<?xml version="1.0" encoding="UTF-8" standalone="no"?>
<!DOCTYPE svg PUBLIC "-//W3C//DTD SVG 1.1//EN"
 "http://www.w3.org/Graphics/SVG/1.1/DTD/svg11.dtd">
<!-- Generated by graphviz version 2.28.0 (20110507.0327)
 -->
<!-- Title: ObjectDiagram Pages: 1 -->
<svg width="867pt" height="268pt"
 viewBox="0.00 0.00 867.00 268.00" xmlns="http://www.w3.org/2000/svg" xmlns:xlink="http://www.w3.org/1999/xlink">
<g id="graph1" class="graph" transform="scale(1 1) rotate(0) translate(4 264)">
<title>ObjectDiagram</title>
<polygon fill="white" stroke="white" points="-4,5 -4,-264 864,-264 864,5 -4,5"/>
<!-- abuInit -->
<g id="node1" class="node"><title>abuInit</title>
<image xlink:href="icons/worker.png" width="80px" height="61px" preserveAspectRatio="xMinYMin meet" x="47.5" y="-253"/>
<a xlink:href="../examples/org/sdmlib/examples/replication/maumau/MultiMauMauClientInitTask.java" xlink:title="&lt;TABLE&gt;">
<polygon fill="none" stroke="black" points="8,-174 8,-190 167,-190 167,-174 8,-174"/>
<text text-anchor="start" x="11.5" y="-180" font-family="Times New Roman,serif" font-size="10.00"> </text>
<text text-anchor="start" x="14.5" y="-180" font-family="Times New Roman,serif" font-size="10.00">abuInit :MultiMauMauClientInitTask</text>
</a>
</g>
<!-- taskboard -->
<g id="node2" class="node"><title>taskboard</title>
<image xlink:href="icons/shared.png" width="70px" height="23px" preserveAspectRatio="xMinYMin meet" x="225" y="-234"/>
<a xlink:href="../../SDMLib/src/org/sdmlib/replication/TaskFlowBoard.java" xlink:title="&lt;TABLE&gt;">
<polygon fill="none" stroke="black" points="201,-193 201,-209 319,-209 319,-193 201,-193"/>
<text text-anchor="start" x="204.5" y="-199" font-family="Times New Roman,serif" font-size="10.00"> </text>
<text text-anchor="start" x="207.5" y="-199" font-family="Times New Roman,serif" font-size="10.00">taskboard :TaskFlowBoard</text>
</a>
</g>
<!-- l1 -->
<g id="node3" class="node"><title>l1</title>
<a xlink:href="../../SDMLib/src/org/sdmlib/replication/Lane.java" xlink:title="&lt;TABLE&gt;">
<polygon fill="none" stroke="black" points="216,-109 216,-126 305,-126 305,-109 216,-109"/>
<text text-anchor="start" x="243.5" y="-115.5" font-family="Times New Roman,serif" font-size="10.00"> </text>
<text text-anchor="start" x="246.5" y="-115.5" font-family="Times New Roman,serif" font-size="10.00">l1 :Lane</text>
</a>
<polygon fill="none" stroke="black" points="216,-89 216,-109 305,-109 305,-89 216,-89"/>
<text text-anchor="start" x="221" y="-97" font-family="Times New Roman,serif" font-size="10.00">name = &quot;AbuLane&quot;</text>
</g>
<!-- taskboard&#45;&#45;l1 -->
<g id="edge2" class="edge"><title>taskboard&#45;&#45;l1</title>
<path fill="none" stroke="black" d="M260,-189.382C260,-171.561 260,-147.702 260,-130.616"/>
<text text-anchor="middle" x="264.226" y="-137.179" font-family="Times New Roman,serif" font-size="10.00">lanes</text>
<text text-anchor="middle" x="255.774" y="-177.819" font-family="Times New Roman,serif" font-size="10.00">board</text>
</g>
<!-- abuLaneListener -->
<g id="node4" class="node"><title>abuLaneListener</title>
<image xlink:href="icons/person1.png" width="32px" height="43px" preserveAspectRatio="xMinYMin meet" x="419" y="-244"/>
<a xlink:href="../examples/org/sdmlib/examples/replication/maumau/PlayerLaneListener.java" xlink:title="&lt;TABLE&gt;">
<polygon fill="none" stroke="black" points="356,-183 356,-199 514,-199 514,-183 356,-183"/>
<text text-anchor="start" x="359.5" y="-189" font-family="Times New Roman,serif" font-size="10.00"> </text>
<text text-anchor="start" x="362.5" y="-189" font-family="Times New Roman,serif" font-size="10.00">abuLaneListener :PlayerLaneListener</text>
</a>
</g>
<!-- abuLaneListener&#45;&#45;l1 -->
<g id="edge8" class="edge"><title>abuLaneListener&#45;&#45;l1</title>
<path fill="none" stroke="black" d="M377.213,-179.328C350.432,-163.259 319.437,-144.662 296.049,-130.629"/>
<text text-anchor="middle" x="305.995" y="-129.168" font-family="Times New Roman,serif" font-size="10.00">sources</text>
</g>
<!-- abuStartGameHandler -->
<g id="node5" class="node"><title>abuStartGameHandler</title>
<a xlink:href="../examples/org/sdmlib/examples/replication/maumau/ShowStartGameButton.java" xlink:title="&lt;TABLE&gt;">
<polygon fill="none" stroke="black" points="339,-99 339,-116 532,-116 532,-99 339,-99"/>
<text text-anchor="start" x="342.5" y="-105.5" font-family="Times New Roman,serif" font-size="10.00"> </text>
<text text-anchor="start" x="345.5" y="-105.5" font-family="Times New Roman,serif" font-size="10.00">abuStartGameHandler :ShowStartGameButton</text>
</a>
</g>
<!-- abuLaneListener&#45;&#45;abuStartGameHandler -->
<g id="edge4" class="edge"><title>abuLaneListener&#45;&#45;abuStartGameHandler</title>
<path fill="none" stroke="black" d="M435,-179.328C435,-161.527 435,-140.623 435,-126.259"/>
<text text-anchor="middle" x="439.226" y="-132.822" font-family="Times New Roman,serif" font-size="10.00">handlerList</text>
</g>
<!-- s2 -->
<g id="node6" class="node"><title>s2</title>
<a xlink:href="../examples/org/sdmlib/examples/replication/maumau/StoryTheo.java" xlink:title="&lt;TABLE&gt;">
<polygon fill="none" stroke="black" points="566,-99 566,-116 633,-116 633,-99 566,-99"/>
<text text-anchor="start" x="569.5" y="-105.5" font-family="Times New Roman,serif" font-size="10.00"> </text>
<text text-anchor="start" x="572.5" y="-105.5" font-family="Times New Roman,serif" font-size="10.00">s2 :StoryTheo</text>
</a>
</g>
<!-- abuLaneListener&#45;&#45;s2 -->
<g id="edge6" class="edge"><title>abuLaneListener&#45;&#45;s2</title>
<path fill="none" stroke="black" d="M489.154,-179.328C516.958,-161.527 549.608,-140.623 572.044,-126.259"/>
<text text-anchor="middle" x="566.69" y="-132.205" font-family="Times New Roman,serif" font-size="10.00">handlerList</text>
</g>
<!-- maumau -->
<g id="node7" class="node"><title>maumau</title>
<image xlink:href="icons/shared.png" width="70px" height="23px" preserveAspectRatio="xMinYMin meet" x="675" y="-127"/>
<a xlink:href="../examples/org/sdmlib/examples/replication/maumau/MauMau.java" xlink:title="&lt;TABLE&gt;">
<polygon fill="none" stroke="black" points="667,-86 667,-102 753,-102 753,-86 667,-86"/>
<text text-anchor="start" x="670.5" y="-92" font-family="Times New Roman,serif" font-size="10.00"> </text>
<text text-anchor="start" x="673.5" y="-92" font-family="Times New Roman,serif" font-size="10.00">maumau :MauMau</text>
</a>
</g>
<!-- abu -->
<g id="node8" class="node"><title>abu</title>
<a xlink:href="../examples/org/sdmlib/examples/replication/maumau/Player.java" xlink:title="&lt;TABLE&gt;">
<polygon fill="none" stroke="black" points="715,-24 715,-41 784,-41 784,-24 715,-24"/>
<text text-anchor="start" x="725.5" y="-30.5" font-family="Times New Roman,serif" font-size="10.00"> </text>
<text text-anchor="start" x="728.5" y="-30.5" font-family="Times New Roman,serif" font-size="10.00">abu :Player</text>
</a>
<polygon fill="none" stroke="black" points="715,-4 715,-24 784,-24 784,-4 715,-4"/>
<text text-anchor="start" x="720" y="-12" font-family="Times New Roman,serif" font-size="10.00">name = &quot;Abu&quot;</text>
</g>
<!-- maumau&#45;&#45;abu -->
<g id="edge10" class="edge"><title>maumau&#45;&#45;abu</title>
<path fill="none" stroke="black" d="M721.701,-82.0973C727.176,-70.4462 733.632,-56.7055 738.892,-45.5129"/>
<text text-anchor="middle" x="738.862" y="-53.0128" font-family="Times New Roman,serif" font-size="10.00">players</text>
<text text-anchor="middle" x="721.731" y="-69.5973" font-family="Times New Roman,serif" font-size="10.00">game</text>
</g>
<!-- abuMauMauController -->
<g id="node9" class="node"><title>abuMauMauController</title>
<image xlink:href="icons/person1.png" width="32px" height="43px" preserveAspectRatio="xMinYMin meet" x="733" y="-244"/>
<a xlink:href="../examples/org/sdmlib/examples/replication/maumau/MultiMauMauControler.java" xlink:title="&lt;TABLE&gt;">
<polygon fill="none" stroke="black" points="647,-183 647,-199 851,-199 851,-183 647,-183"/>
<text text-anchor="start" x="650.5" y="-189" font-family="Times New Roman,serif" font-size="10.00"> </text>
<text text-anchor="start" x="653.5" y="-189" font-family="Times New Roman,serif" font-size="10.00">abuMauMauController :MultiMauMauControler</text>
</a>
</g>
<!-- abuMauMauController&#45;&#45;maumau -->
<g id="edge12" class="edge"><title>abuMauMauController&#45;&#45;maumau</title>
<path fill="none" stroke="black" d="M736.122,-179.328C730.575,-164.394 724.217,-147.277 719.163,-133.669"/>
<text text-anchor="middle" x="726.28" y="-138.193" font-family="Times New Roman,serif" font-size="10.00">mauMau</text>
</g>
<!-- abuMauMauController&#45;&#45;abu -->
<g id="edge14" class="edge"><title>abuMauMauController&#45;&#45;abu</title>
<path fill="none" stroke="black" d="M760.779,-179.487C768.357,-152.825 775.795,-115.026 770,-82 767.816,-69.5534 763.184,-56.2581 758.824,-45.541"/>
<text text-anchor="middle" x="766.11" y="-49.8906" font-family="Times New Roman,serif" font-size="10.00">activePlayer</text>
</g>
</g>
</svg>
