<?xml version="1.0" encoding="UTF-8" standalone="no"?>
<!DOCTYPE svg PUBLIC "-//W3C//DTD SVG 1.1//EN"
 "http://www.w3.org/Graphics/SVG/1.1/DTD/svg11.dtd">
<!-- Generated by graphviz version 2.28.0 (20110507.0327)
 -->
<!-- Title: ObjectDiagram Pages: 1 -->
<svg width="401pt" height="668pt"
 viewBox="0.00 0.00 401.00 668.00" xmlns="http://www.w3.org/2000/svg" xmlns:xlink="http://www.w3.org/1999/xlink">
<g id="graph1" class="graph" transform="scale(1 1) rotate(0) translate(4 664)">
<title>ObjectDiagram</title>
<polygon fill="white" stroke="white" points="-4,5 -4,-664 398,-664 398,5 -4,5"/>
<!-- abuNode -->
<g id="node1" class="node"><title>abuNode</title>
<image xlink:href="icons/node.png" width="83px" height="61px" preserveAspectRatio="xMinYMin meet" x="10" y="-653"/>
<a xlink:href="../../SDMLib/src/org/sdmlib/replication/Node.java" xlink:title="&lt;TABLE&gt;">
<polygon fill="none" stroke="black" points="8,-574 8,-590 95,-590 95,-574 8,-574"/>
<text text-anchor="start" x="16" y="-580" font-family="Arial" font-size="10.00"> </text>
<text text-anchor="start" x="20" y="-580" font-family="Arial" font-size="10.00">abuNode :Node</text>
</a>
</g>
<!-- c70 -->
<g id="node2" class="node"><title>c70</title>
<image xlink:href="icons/worker.png" width="80px" height="61px" preserveAspectRatio="xMinYMin meet" x="133" y="-653"/>
<a xlink:href="../examples/org/sdmlib/examples/replication/maumau/CardListener.java" xlink:title="&lt;TABLE&gt;">
<polygon fill="none" stroke="black" points="129,-574 129,-590 217,-590 217,-574 129,-574"/>
<text text-anchor="start" x="132.5" y="-580" font-family="Arial" font-size="10.00"> </text>
<text text-anchor="start" x="136.5" y="-580" font-family="Arial" font-size="10.00">c70 :CardListener</text>
</a>
</g>
<!-- h17 -->
<g id="node3" class="node"><title>h17</title>
<a xlink:href="../examples/org/sdmlib/examples/replication/maumau/Holder.java" xlink:title="&lt;TABLE&gt;">
<polygon fill="none" stroke="black" points="251,-616 251,-633 331,-633 331,-616 251,-616"/>
<text text-anchor="start" x="264" y="-622.5" font-family="Arial" font-size="10.00"> </text>
<text text-anchor="start" x="268" y="-622.5" font-family="Arial" font-size="10.00">h17 :Holder</text>
</a>
<polygon fill="none" stroke="black" points="251,-596 251,-616 331,-616 331,-596 251,-596"/>
<text text-anchor="start" x="256" y="-604" font-family="Arial" font-size="10.00">deckOwner = &quot;&quot;</text>
</g>
<!-- c34 -->
<g id="node4" class="node"><title>c34</title>
<a xlink:href="../examples/org/sdmlib/examples/replication/maumau/Card.java" xlink:title="&lt;TABLE&gt;">
<polygon fill="none" stroke="black" points="217,-512 217,-529 292,-529 292,-512 217,-512"/>
<text text-anchor="start" x="231" y="-518.5" font-family="Arial" font-size="10.00"> </text>
<text text-anchor="start" x="235" y="-518.5" font-family="Arial" font-size="10.00">c34 :Card</text>
</a>
<polygon fill="none" stroke="black" points="217,-478 217,-512 292,-512 292,-478 217,-478"/>
<text text-anchor="start" x="222" y="-500" font-family="Arial" font-size="10.00">suit = &quot;Hearts&quot;</text>
<text text-anchor="start" x="222" y="-486" font-family="Arial" font-size="10.00">value = &quot;7&quot;</text>
</g>
<!-- h17&#45;&#45;c34 -->
<g id="edge2" class="edge"><title>h17&#45;&#45;c34</title>
<path fill="none" stroke="black" d="M283.69,-592.465C277.962,-575.589 269.94,-551.959 263.679,-533.514"/>
<text text-anchor="middle" x="270.594" y="-538.238" font-family="Arial" font-size="10.00">cards</text>
<text text-anchor="middle" x="276.775" y="-582.741" font-family="Arial" font-size="10.00">holder</text>
</g>
<!-- maumau -->
<g id="node5" class="node"><title>maumau</title>
<image xlink:href="icons/shared.png" width="70px" height="23px" preserveAspectRatio="xMinYMin meet" x="256.5" y="-431"/>
<a xlink:href="../examples/org/sdmlib/examples/replication/maumau/MauMau.java" xlink:title="&lt;TABLE&gt;">
<polygon fill="none" stroke="black" points="245,-390 245,-406 338,-406 338,-390 245,-390"/>
<text text-anchor="start" x="248.5" y="-396" font-family="Arial" font-size="10.00"> </text>
<text text-anchor="start" x="252.5" y="-396" font-family="Arial" font-size="10.00">maumau :MauMau</text>
</a>
</g>
<!-- h17&#45;&#45;maumau -->
<g id="edge4" class="edge"><title>h17&#45;&#45;maumau</title>
<path fill="none" stroke="black" d="M296.858,-592.466C300.893,-576.473 305.893,-554.052 308,-534 310.787,-507.479 311.613,-500.421 308,-474 306.332,-461.8 302.869,-448.6 299.502,-437.609"/>
<text text-anchor="middle" x="306.16" y="-442.57" font-family="Arial" font-size="10.00">stackOwner</text>
<text text-anchor="middle" x="294.938" y="-580.152" font-family="Arial" font-size="10.00">stack</text>
</g>
<!-- c34&#45;&#45;maumau -->
<g id="edge6" class="edge"><title>c34&#45;&#45;maumau</title>
<path fill="none" stroke="black" d="M265.911,-474.028C270.727,-462.312 276.229,-448.928 280.851,-437.686"/>
<text text-anchor="middle" x="281.314" y="-445.175" font-family="Arial" font-size="10.00">game</text>
<text text-anchor="middle" x="265.448" y="-461.539" font-family="Arial" font-size="10.00">cards</text>
</g>
<!-- abu -->
<g id="node6" class="node"><title>abu</title>
<a xlink:href="../examples/org/sdmlib/examples/replication/maumau/Player.java" xlink:title="&lt;TABLE&gt;">
<polygon fill="none" stroke="black" points="211,-328 211,-345 294,-345 294,-328 211,-328"/>
<text text-anchor="start" x="225.5" y="-334.5" font-family="Arial" font-size="10.00"> </text>
<text text-anchor="start" x="229.5" y="-334.5" font-family="Arial" font-size="10.00">abu :Player</text>
</a>
<polygon fill="none" stroke="black" points="211,-252 211,-328 294,-328 294,-252 211,-252"/>
<text text-anchor="start" x="216" y="-316" font-family="Arial" font-size="10.00">name = &quot;Abu&quot;</text>
<text text-anchor="start" x="216" y="-302" font-family="Arial" font-size="10.00">deckOwner = &quot;&quot;</text>
<text text-anchor="start" x="216" y="-288" font-family="Arial" font-size="10.00">stackOwner = &quot;&quot;</text>
<text text-anchor="start" x="216" y="-274" font-family="Arial" font-size="10.00">assignment = &quot;&quot;</text>
<text text-anchor="start" x="216" y="-260" font-family="Arial" font-size="10.00">duty = &quot;&quot;</text>
</g>
<!-- maumau&#45;&#45;abu -->
<g id="edge8" class="edge"><title>maumau&#45;&#45;abu</title>
<path fill="none" stroke="black" d="M282.345,-386.366C278.53,-375.508 273.903,-362.339 269.424,-349.59"/>
<text text-anchor="middle" x="276.415" y="-354.24" font-family="Arial" font-size="10.00">players</text>
<text text-anchor="middle" x="275.353" y="-376.716" font-family="Arial" font-size="10.00">game</text>
</g>
<!-- p9 -->
<g id="node7" class="node"><title>p9</title>
<a xlink:href="../examples/org/sdmlib/examples/replication/maumau/Player.java" xlink:title="&lt;TABLE&gt;">
<polygon fill="none" stroke="black" points="249,-190 249,-207 332,-207 332,-190 249,-190"/>
<text text-anchor="start" x="266" y="-196.5" font-family="Arial" font-size="10.00"> </text>
<text text-anchor="start" x="270" y="-196.5" font-family="Arial" font-size="10.00">p9 :Player</text>
</a>
<polygon fill="none" stroke="black" points="249,-142 249,-190 332,-190 332,-142 249,-142"/>
<text text-anchor="start" x="254" y="-178" font-family="Arial" font-size="10.00">name = &quot;Karli&quot;</text>
<text text-anchor="start" x="254" y="-164" font-family="Arial" font-size="10.00">deckOwner = &quot;&quot;</text>
<text text-anchor="start" x="254" y="-150" font-family="Arial" font-size="10.00">stackOwner = &quot;&quot;</text>
</g>
<!-- maumau&#45;&#45;p9 -->
<g id="edge10" class="edge"><title>maumau&#45;&#45;p9</title>
<path fill="none" stroke="black" d="M300.498,-386.469C304.261,-375.493 308.132,-362.282 310,-350 316.818,-305.182 316.123,-292.918 310,-248 308.37,-236.045 305.285,-223.274 302.017,-211.858"/>
<text text-anchor="middle" x="308.539" y="-216.939" font-family="Arial" font-size="10.00">players_currentMove</text>
<text text-anchor="middle" x="299.384" y="-374.031" font-family="Arial" font-size="10.00">game_assignment</text>
</g>
<!-- p11 -->
<g id="node8" class="node"><title>p11</title>
<a xlink:href="../examples/org/sdmlib/examples/replication/maumau/Player.java" xlink:title="&lt;TABLE&gt;">
<polygon fill="none" stroke="black" points="170,-80 170,-97 255,-97 255,-80 170,-80"/>
<text text-anchor="start" x="185.5" y="-86.5" font-family="Arial" font-size="10.00"> </text>
<text text-anchor="start" x="189.5" y="-86.5" font-family="Arial" font-size="10.00">p11 :Player</text>
</a>
<polygon fill="none" stroke="black" points="170,-4 170,-80 255,-80 255,-4 170,-4"/>
<text text-anchor="start" x="175" y="-68" font-family="Arial" font-size="10.00">name = &quot;Sabine&quot;</text>
<text text-anchor="start" x="175" y="-54" font-family="Arial" font-size="10.00">deckOwner = &quot;&quot;</text>
<text text-anchor="start" x="175" y="-40" font-family="Arial" font-size="10.00">stackOwner = &quot;&quot;</text>
<text text-anchor="start" x="175" y="-26" font-family="Arial" font-size="10.00">assignment = &quot;&quot;</text>
<text text-anchor="start" x="175" y="-12" font-family="Arial" font-size="10.00">duty = &quot;&quot;</text>
</g>
<!-- maumau&#45;&#45;p11 -->
<g id="edge12" class="edge"><title>maumau&#45;&#45;p11</title>
<path fill="none" stroke="black" d="M236.534,-389.475C219.852,-380.004 203.427,-367.065 194,-350 150.829,-271.854 173.903,-163.956 193.62,-101.722"/>
<text text-anchor="middle" x="195.083" y="-109.115" font-family="Arial" font-size="10.00">players</text>
<text text-anchor="middle" x="226.581" y="-386.007" font-family="Arial" font-size="10.00">game</text>
</g>
<!-- draw2 -->
<g id="node9" class="node"><title>draw2</title>
<a xlink:href="../examples/org/sdmlib/examples/replication/maumau/Duty.java" xlink:title="&lt;TABLE&gt;">
<polygon fill="none" stroke="black" points="309,-59 309,-76 385,-76 385,-59 309,-59"/>
<text text-anchor="start" x="319" y="-65.5" font-family="Arial" font-size="10.00"> </text>
<text text-anchor="start" x="323" y="-65.5" font-family="Arial" font-size="10.00">draw2 :Duty</text>
</a>
<polygon fill="none" stroke="black" points="309,-25 309,-59 385,-59 385,-25 309,-25"/>
<text text-anchor="start" x="314" y="-47" font-family="Arial" font-size="10.00">kind = &quot;Draw2&quot;</text>
<text text-anchor="start" x="314" y="-33" font-family="Arial" font-size="10.00">number = 2</text>
</g>
<!-- maumau&#45;&#45;draw2 -->
<g id="edge14" class="edge"><title>maumau&#45;&#45;draw2</title>
<path fill="none" stroke="black" d="M307.803,-386.466C314.436,-375.707 321.527,-362.664 326,-350 359.248,-255.86 354.368,-134.798 349.902,-80.5328"/>
<text text-anchor="middle" x="354.77" y="-86.7679" font-family="Arial" font-size="10.00">duty</text>
<text text-anchor="middle" x="308.896" y="-374.026" font-family="Arial" font-size="10.00">game</text>
</g>
<!-- abu&#45;&#45;p9 -->
<g id="edge16" class="edge"><title>abu&#45;&#45;p9</title>
<path fill="none" stroke="black" d="M267.456,-248.378C271.278,-236.108 275.298,-223.2 278.868,-211.739"/>
<text text-anchor="middle" x="280.208" y="-219.148" font-family="Arial" font-size="10.00">next</text>
<text text-anchor="middle" x="266.116" y="-235.968" font-family="Arial" font-size="10.00">prev</text>
</g>
<!-- abu&#45;&#45;p11 -->
<g id="edge18" class="edge"><title>abu&#45;&#45;p11</title>
<path fill="none" stroke="black" d="M239.482,-248.159C236.775,-236.353 234.099,-223.771 232,-212 225.441,-175.208 220.284,-133.278 216.85,-101.573"/>
<text text-anchor="middle" x="222.045" y="-107.618" font-family="Arial" font-size="10.00">prev</text>
<text text-anchor="middle" x="233.351" y="-237.759" font-family="Arial" font-size="10.00">next</text>
</g>
<!-- p9&#45;&#45;p11 -->
<g id="edge20" class="edge"><title>p9&#45;&#45;p11</title>
<path fill="none" stroke="black" d="M267.229,-138.385C259.945,-126.991 251.741,-114.159 243.929,-101.94"/>
<text text-anchor="middle" x="252.371" y="-104.799" font-family="Arial" font-size="10.00">next</text>
<text text-anchor="middle" x="258.787" y="-130.525" font-family="Arial" font-size="10.00">prev</text>
</g>
<!-- p9&#45;&#45;draw2 -->
<g id="edge22" class="edge"><title>p9&#45;&#45;draw2</title>
<path fill="none" stroke="black" d="M306.64,-138.385C315.184,-120.098 325.458,-98.1077 333.502,-80.8906"/>
<text text-anchor="middle" x="333.495" y="-88.3906" font-family="Arial" font-size="10.00">duty</text>
<text text-anchor="middle" x="306.647" y="-125.885" font-family="Arial" font-size="10.00">player</text>
</g>
</g>
</svg>
