<?xml version="1.0" encoding="UTF-8" standalone="no"?>
<!DOCTYPE svg PUBLIC "-//W3C//DTD SVG 1.1//EN"
 "http://www.w3.org/Graphics/SVG/1.1/DTD/svg11.dtd">
<!-- Generated by graphviz version 2.28.0 (20110507.0327)
 -->
<!-- Title: ObjectDiagram Pages: 1 -->
<svg width="781pt" height="262pt"
 viewBox="0.00 0.00 781.00 262.00" xmlns="http://www.w3.org/2000/svg" xmlns:xlink="http://www.w3.org/1999/xlink">
<g id="graph1" class="graph" transform="scale(1 1) rotate(0) translate(4 258)">
<title>ObjectDiagram</title>
<polygon fill="white" stroke="white" points="-4,5 -4,-258 778,-258 778,5 -4,5"/>
<!-- abuStartGameHandler -->
<g id="node1" class="node"><title>abuStartGameHandler</title>
<image xlink:href="icons/worker.png" width="80px" height="61px" preserveAspectRatio="xMinYMin meet" x="64.5" y="-247"/>
<a xlink:href="../examples/org/sdmlib/examples/replication/maumau/ShowStartGameButton.java" xlink:title="&lt;TABLE&gt;">
<polygon fill="none" stroke="black" points="8,-168 8,-184 201,-184 201,-168 8,-168"/>
<text text-anchor="start" x="11.5" y="-174" font-family="Times New Roman,serif" font-size="10.00"> </text>
<text text-anchor="start" x="14.5" y="-174" font-family="Times New Roman,serif" font-size="10.00">abuStartGameHandler :ShowStartGameButton</text>
</a>
</g>
<!-- taskboard -->
<g id="node2" class="node"><title>taskboard</title>
<image xlink:href="icons/shared.png" width="70px" height="23px" preserveAspectRatio="xMinYMin meet" x="259" y="-228"/>
<a xlink:href="../../SDMLib/src/org/sdmlib/replication/TaskFlowBoard.java" xlink:title="&lt;TABLE&gt;">
<polygon fill="none" stroke="black" points="235,-187 235,-203 353,-203 353,-187 235,-187"/>
<text text-anchor="start" x="238.5" y="-193" font-family="Times New Roman,serif" font-size="10.00"> </text>
<text text-anchor="start" x="241.5" y="-193" font-family="Times New Roman,serif" font-size="10.00">taskboard :TaskFlowBoard</text>
</a>
</g>
<!-- l3 -->
<g id="node3" class="node"><title>l3</title>
<a xlink:href="../../SDMLib/src/org/sdmlib/replication/Lane.java" xlink:title="&lt;TABLE&gt;">
<polygon fill="none" stroke="black" points="197,-106 197,-123 273,-123 273,-106 197,-106"/>
<text text-anchor="start" x="218" y="-112.5" font-family="Times New Roman,serif" font-size="10.00"> </text>
<text text-anchor="start" x="221" y="-112.5" font-family="Times New Roman,serif" font-size="10.00">l3 :Lane</text>
</a>
<polygon fill="none" stroke="black" points="197,-86 197,-106 273,-106 273,-86 197,-86"/>
<text text-anchor="start" x="202" y="-94" font-family="Times New Roman,serif" font-size="10.00">name = &quot;server&quot;</text>
</g>
<!-- taskboard&#45;&#45;l3 -->
<g id="edge2" class="edge"><title>taskboard&#45;&#45;l3</title>
<path fill="none" stroke="black" d="M279.718,-183.309C269.896,-166.328 256.975,-143.99 247.548,-127.694"/>
<text text-anchor="middle" x="255.745" y="-130.923" font-family="Times New Roman,serif" font-size="10.00">lanes</text>
<text text-anchor="middle" x="271.522" y="-175.08" font-family="Times New Roman,serif" font-size="10.00">board</text>
</g>
<!-- l1 -->
<g id="node4" class="node"><title>l1</title>
<a xlink:href="../../SDMLib/src/org/sdmlib/replication/Lane.java" xlink:title="&lt;TABLE&gt;">
<polygon fill="none" stroke="black" points="308,-106 308,-123 397,-123 397,-106 308,-106"/>
<text text-anchor="start" x="335.5" y="-112.5" font-family="Times New Roman,serif" font-size="10.00"> </text>
<text text-anchor="start" x="338.5" y="-112.5" font-family="Times New Roman,serif" font-size="10.00">l1 :Lane</text>
</a>
<polygon fill="none" stroke="black" points="308,-86 308,-106 397,-106 397,-86 308,-86"/>
<text text-anchor="start" x="313" y="-94" font-family="Times New Roman,serif" font-size="10.00">name = &quot;AbuLane&quot;</text>
</g>
<!-- taskboard&#45;&#45;l1 -->
<g id="edge4" class="edge"><title>taskboard&#45;&#45;l1</title>
<path fill="none" stroke="black" d="M308.04,-183.309C317.696,-166.328 330.398,-143.99 339.664,-127.694"/>
<text text-anchor="middle" x="338.858" y="-135.161" font-family="Times New Roman,serif" font-size="10.00">lanes</text>
<text text-anchor="middle" x="308.846" y="-170.841" font-family="Times New Roman,serif" font-size="10.00">board</text>
</g>
<!-- b6 -->
<g id="node5" class="node"><title>b6</title>
<a xlink:href="../../SDMLib/src/org/sdmlib/replication/BoardTask.java" xlink:title="&lt;TABLE&gt;">
<polygon fill="none" stroke="black" points="318,-24 318,-41 386,-41 386,-24 318,-24"/>
<text text-anchor="start" x="321.5" y="-30.5" font-family="Times New Roman,serif" font-size="10.00"> </text>
<text text-anchor="start" x="324.5" y="-30.5" font-family="Times New Roman,serif" font-size="10.00">b6 :BoardTask</text>
</a>
<polygon fill="none" stroke="black" points="318,-4 318,-24 386,-24 386,-4 318,-4"/>
<text text-anchor="start" x="323" y="-12" font-family="Times New Roman,serif" font-size="10.00">name = &quot;init&quot;</text>
</g>
<!-- l1&#45;&#45;b6 -->
<g id="edge6" class="edge"><title>l1&#45;&#45;b6</title>
<path fill="none" stroke="black" d="M352,-82.1396C352,-70.759 352,-56.8929 352,-45.5569"/>
<text text-anchor="middle" x="356.226" y="-52.12" font-family="Times New Roman,serif" font-size="10.00">tasks</text>
<text text-anchor="middle" x="347.774" y="-70.5766" font-family="Times New Roman,serif" font-size="10.00">lane</text>
</g>
<!-- l4 -->
<g id="node6" class="node"><title>l4</title>
<a xlink:href="../../SDMLib/src/org/eclipse/swt/widgets/Label.java" xlink:title="&lt;TABLE&gt;">
<polygon fill="none" stroke="black" points="431,-106 431,-123 654,-123 654,-106 431,-106"/>
<text text-anchor="start" x="524" y="-112.5" font-family="Times New Roman,serif" font-size="10.00"> </text>
<text text-anchor="start" x="527" y="-112.5" font-family="Times New Roman,serif" font-size="10.00">l4 :Label</text>
</a>
<polygon fill="none" stroke="black" points="431,-86 431,-106 654,-106 654,-86 431,-86"/>
<text text-anchor="start" x="436" y="-94" font-family="Times New Roman,serif" font-size="10.00">text = &quot;When all players have shown up, Start Game&quot;</text>
</g>
<!-- s5 -->
<g id="node7" class="node"><title>s5</title>
<image xlink:href="icons/person1.png" width="32px" height="43px" preserveAspectRatio="xMinYMin meet" x="526" y="-238"/>
<a xlink:href="../examples/org/sdmlib/examples/replication/maumau/ShowStartGameButton.java" xlink:title="&lt;TABLE&gt;">
<polygon fill="none" stroke="black" points="448,-177 448,-193 636,-193 636,-177 448,-177"/>
<text text-anchor="start" x="451.5" y="-183" font-family="Times New Roman,serif" font-size="10.00"> </text>
<text text-anchor="start" x="454.5" y="-183" font-family="Times New Roman,serif" font-size="10.00">s5 :ShowStartGameButton$StartGameAction</text>
</a>
</g>
<!-- s5&#45;&#45;l4 -->
<g id="edge8" class="edge"><title>s5&#45;&#45;l4</title>
<path fill="none" stroke="black" d="M542,-173.467C542,-158.325 542,-141.013 542,-127.717"/>
<text text-anchor="middle" x="546.226" y="-134.28" font-family="Times New Roman,serif" font-size="10.00">startGameLabel</text>
</g>
<!-- maumau -->
<g id="node8" class="node"><title>maumau</title>
<image xlink:href="icons/shared.png" width="70px" height="23px" preserveAspectRatio="xMinYMin meet" x="687" y="-228"/>
<a xlink:href="../examples/org/sdmlib/examples/replication/maumau/MauMau.java" xlink:title="&lt;TABLE&gt;">
<polygon fill="none" stroke="black" points="679,-187 679,-203 765,-203 765,-187 679,-187"/>
<text text-anchor="start" x="682.5" y="-193" font-family="Times New Roman,serif" font-size="10.00"> </text>
<text text-anchor="start" x="685.5" y="-193" font-family="Times New Roman,serif" font-size="10.00">maumau :MauMau</text>
</a>
</g>
<!-- abu -->
<g id="node9" class="node"><title>abu</title>
<a xlink:href="../examples/org/sdmlib/examples/replication/maumau/Player.java" xlink:title="&lt;TABLE&gt;">
<polygon fill="none" stroke="black" points="688,-106 688,-123 757,-123 757,-106 688,-106"/>
<text text-anchor="start" x="698.5" y="-112.5" font-family="Times New Roman,serif" font-size="10.00"> </text>
<text text-anchor="start" x="701.5" y="-112.5" font-family="Times New Roman,serif" font-size="10.00">abu :Player</text>
</a>
<polygon fill="none" stroke="black" points="688,-86 688,-106 757,-106 757,-86 688,-86"/>
<text text-anchor="start" x="693" y="-94" font-family="Times New Roman,serif" font-size="10.00">name = &quot;Abu&quot;</text>
</g>
<!-- maumau&#45;&#45;abu -->
<g id="edge10" class="edge"><title>maumau&#45;&#45;abu</title>
<path fill="none" stroke="black" d="M722,-183.309C722,-166.328 722,-143.99 722,-127.694"/>
<text text-anchor="middle" x="726.226" y="-134.257" font-family="Times New Roman,serif" font-size="10.00">players</text>
<text text-anchor="middle" x="717.774" y="-171.746" font-family="Times New Roman,serif" font-size="10.00">game</text>
</g>
</g>
</svg>
