<?xml version="1.0" encoding="UTF-8" standalone="no"?>
<!DOCTYPE svg PUBLIC "-//W3C//DTD SVG 1.1//EN"
 "http://www.w3.org/Graphics/SVG/1.1/DTD/svg11.dtd">
<!-- Generated by graphviz version 2.28.0 (20110507.0327)
 -->
<!-- Title: ObjectDiagram Pages: 1 -->
<svg width="2268pt" height="654pt"
 viewBox="0.00 0.00 2268.00 654.00" xmlns="http://www.w3.org/2000/svg" xmlns:xlink="http://www.w3.org/1999/xlink">
<g id="graph1" class="graph" transform="scale(1 1) rotate(0) translate(4 650)">
<title>ObjectDiagram</title>
<polygon fill="white" stroke="white" points="-4,5 -4,-650 2265,-650 2265,5 -4,5"/>
<!-- c3 -->
<g id="node1" class="node"><title>c3</title>
<image xlink:href="icons/worker.png" width="80px" height="61px" preserveAspectRatio="xMinYMin meet" x="755.5" y="-639"/>
<a xlink:href="../examples/org/sdmlib/examples/replication/maumau/CardsAreDeltScreenDumpHandler.java" xlink:title="&lt;TABLE&gt;">
<polygon fill="none" stroke="black" points="715,-560 715,-576 876,-576 876,-560 715,-560"/>
<text text-anchor="start" x="718.5" y="-566" font-family="Times New Roman,serif" font-size="10.00"> </text>
<text text-anchor="start" x="721.5" y="-566" font-family="Times New Roman,serif" font-size="10.00">c3 :CardsAreDeltScreenDumpHandler</text>
</a>
</g>
<!-- maumau -->
<g id="node2" class="node"><title>maumau</title>
<image xlink:href="icons/shared.png" width="70px" height="23px" preserveAspectRatio="xMinYMin meet" x="1089" y="-513"/>
<a xlink:href="../examples/org/sdmlib/examples/replication/maumau/MauMau.java" xlink:title="&lt;TABLE&gt;">
<polygon fill="none" stroke="black" points="1081,-472 1081,-488 1167,-488 1167,-472 1081,-472"/>
<text text-anchor="start" x="1084.5" y="-478" font-family="Times New Roman,serif" font-size="10.00"> </text>
<text text-anchor="start" x="1087.5" y="-478" font-family="Times New Roman,serif" font-size="10.00">maumau :MauMau</text>
</a>
</g>
<!-- c66 -->
<g id="node3" class="node"><title>c66</title>
<a xlink:href="../examples/org/sdmlib/examples/replication/maumau/Card.java" xlink:title="&lt;TABLE&gt;">
<polygon fill="none" stroke="black" points="937,-354 937,-371 1012,-371 1012,-354 937,-354"/>
<text text-anchor="start" x="954.5" y="-360.5" font-family="Times New Roman,serif" font-size="10.00"> </text>
<text text-anchor="start" x="957.5" y="-360.5" font-family="Times New Roman,serif" font-size="10.00">c66 :Card</text>
</a>
<polygon fill="none" stroke="black" points="937,-320 937,-354 1012,-354 1012,-320 937,-320"/>
<text text-anchor="start" x="942" y="-342" font-family="Times New Roman,serif" font-size="10.00">suit = &quot;Spades&quot;</text>
<text text-anchor="start" x="942" y="-328" font-family="Times New Roman,serif" font-size="10.00">value = &quot;8&quot;</text>
</g>
<!-- maumau&#45;&#45;c66 -->
<g id="edge2" class="edge"><title>maumau&#45;&#45;c66</title>
<path fill="none" stroke="black" d="M1080.86,-468.269C1065.16,-458.15 1047.88,-445.616 1034,-432 1016.98,-415.301 1001.56,-393.224 990.615,-375.755"/>
<text text-anchor="middle" x="999.045" y="-378.634" font-family="Times New Roman,serif" font-size="10.00">cards</text>
<text text-anchor="middle" x="1070.96" y="-464.347" font-family="Times New Roman,serif" font-size="10.00">game</text>
</g>
<!-- abu -->
<g id="node4" class="node"><title>abu</title>
<a xlink:href="../examples/org/sdmlib/examples/replication/maumau/Player.java" xlink:title="&lt;TABLE&gt;">
<polygon fill="none" stroke="black" points="1019,-202 1019,-219 1088,-219 1088,-202 1019,-202"/>
<text text-anchor="start" x="1029.5" y="-208.5" font-family="Times New Roman,serif" font-size="10.00"> </text>
<text text-anchor="start" x="1032.5" y="-208.5" font-family="Times New Roman,serif" font-size="10.00">abu :Player</text>
</a>
<polygon fill="none" stroke="black" points="1019,-182 1019,-202 1088,-202 1088,-182 1019,-182"/>
<text text-anchor="start" x="1024" y="-190" font-family="Times New Roman,serif" font-size="10.00">name = &quot;Abu&quot;</text>
</g>
<!-- maumau&#45;&#45;abu -->
<g id="edge16" class="edge"><title>maumau&#45;&#45;abu</title>
<path fill="none" stroke="black" d="M1117.95,-468.19C1104.26,-412.112 1071.15,-276.375 1058.26,-223.546"/>
<text text-anchor="middle" x="1064.51" y="-228.849" font-family="Times New Roman,serif" font-size="10.00">players_currentMove</text>
<text text-anchor="middle" x="1111.69" y="-457.886" font-family="Times New Roman,serif" font-size="10.00">game_assignment</text>
</g>
<!-- c87 -->
<g id="node5" class="node"><title>c87</title>
<a xlink:href="../examples/org/sdmlib/examples/replication/maumau/Card.java" xlink:title="&lt;TABLE&gt;">
<polygon fill="none" stroke="black" points="898,-120 898,-137 984,-137 984,-120 898,-120"/>
<text text-anchor="start" x="921" y="-126.5" font-family="Times New Roman,serif" font-size="10.00"> </text>
<text text-anchor="start" x="924" y="-126.5" font-family="Times New Roman,serif" font-size="10.00">c87 :Card</text>
</a>
<polygon fill="none" stroke="black" points="898,-86 898,-120 984,-120 984,-86 898,-86"/>
<text text-anchor="start" x="903" y="-108" font-family="Times New Roman,serif" font-size="10.00">suit = &quot;Diamonds&quot;</text>
<text text-anchor="start" x="903" y="-94" font-family="Times New Roman,serif" font-size="10.00">value = &quot;King&quot;</text>
</g>
<!-- maumau&#45;&#45;c87 -->
<g id="edge12" class="edge"><title>maumau&#45;&#45;c87</title>
<path fill="none" stroke="black" d="M1093.38,-468.425C1082.56,-458.239 1071.29,-445.618 1064,-432 1027.12,-363.153 1059.55,-331.443 1028,-260 1020.03,-241.946 1012.55,-240.68 1002,-224 984.838,-196.868 967.411,-164.58 955.603,-141.842"/>
<text text-anchor="middle" x="963.545" y="-145.418" font-family="Times New Roman,serif" font-size="10.00">cards</text>
<text text-anchor="middle" x="1083.91" y="-462.691" font-family="Times New Roman,serif" font-size="10.00">game</text>
</g>
<!-- c72 -->
<g id="node6" class="node"><title>c72</title>
<a xlink:href="../examples/org/sdmlib/examples/replication/maumau/Card.java" xlink:title="&lt;TABLE&gt;">
<polygon fill="none" stroke="black" points="789,-120 789,-137 864,-137 864,-120 789,-120"/>
<text text-anchor="start" x="806.5" y="-126.5" font-family="Times New Roman,serif" font-size="10.00"> </text>
<text text-anchor="start" x="809.5" y="-126.5" font-family="Times New Roman,serif" font-size="10.00">c72 :Card</text>
</a>
<polygon fill="none" stroke="black" points="789,-86 789,-120 864,-120 864,-86 789,-86"/>
<text text-anchor="start" x="794" y="-108" font-family="Times New Roman,serif" font-size="10.00">suit = &quot;Spades&quot;</text>
<text text-anchor="start" x="794" y="-94" font-family="Times New Roman,serif" font-size="10.00">value = &quot;Ace&quot;</text>
</g>
<!-- maumau&#45;&#45;c72 -->
<g id="edge4" class="edge"><title>maumau&#45;&#45;c72</title>
<path fill="none" stroke="black" d="M1072.85,-491.108C1026.61,-486.653 959.716,-472.942 919,-432 877.458,-390.227 843.004,-212.046 830.772,-141.716"/>
<text text-anchor="middle" x="836.532" y="-147.39" font-family="Times New Roman,serif" font-size="10.00">cards</text>
<text text-anchor="middle" x="1063.37" y="-491.79" font-family="Times New Roman,serif" font-size="10.00">game</text>
</g>
<!-- c73 -->
<g id="node7" class="node"><title>c73</title>
<a xlink:href="../examples/org/sdmlib/examples/replication/maumau/Card.java" xlink:title="&lt;TABLE&gt;">
<polygon fill="none" stroke="black" points="1198,-120 1198,-137 1270,-137 1270,-120 1198,-120"/>
<text text-anchor="start" x="1214" y="-126.5" font-family="Times New Roman,serif" font-size="10.00"> </text>
<text text-anchor="start" x="1217" y="-126.5" font-family="Times New Roman,serif" font-size="10.00">c73 :Card</text>
</a>
<polygon fill="none" stroke="black" points="1198,-86 1198,-120 1270,-120 1270,-86 1198,-86"/>
<text text-anchor="start" x="1203" y="-108" font-family="Times New Roman,serif" font-size="10.00">suit = &quot;Hearts&quot;</text>
<text text-anchor="start" x="1203" y="-94" font-family="Times New Roman,serif" font-size="10.00">value = &quot;7&quot;</text>
</g>
<!-- maumau&#45;&#45;c73 -->
<g id="edge6" class="edge"><title>maumau&#45;&#45;c73</title>
<path fill="none" stroke="black" d="M1150.13,-468.441C1159.68,-458.077 1169.68,-445.328 1176,-432 1182.26,-418.808 1216.48,-217.423 1229.22,-141.59"/>
<text text-anchor="middle" x="1231.88" y="-148.73" font-family="Times New Roman,serif" font-size="10.00">cards</text>
<text text-anchor="middle" x="1153.07" y="-456.384" font-family="Times New Roman,serif" font-size="10.00">game</text>
</g>
<!-- c86 -->
<g id="node8" class="node"><title>c86</title>
<a xlink:href="../examples/org/sdmlib/examples/replication/maumau/Card.java" xlink:title="&lt;TABLE&gt;">
<polygon fill="none" stroke="black" points="1304,-120 1304,-137 1390,-137 1390,-120 1304,-120"/>
<text text-anchor="start" x="1327" y="-126.5" font-family="Times New Roman,serif" font-size="10.00"> </text>
<text text-anchor="start" x="1330" y="-126.5" font-family="Times New Roman,serif" font-size="10.00">c86 :Card</text>
</a>
<polygon fill="none" stroke="black" points="1304,-86 1304,-120 1390,-120 1390,-86 1304,-86"/>
<text text-anchor="start" x="1309" y="-108" font-family="Times New Roman,serif" font-size="10.00">suit = &quot;Diamonds&quot;</text>
<text text-anchor="start" x="1309" y="-94" font-family="Times New Roman,serif" font-size="10.00">value = &quot;Queen&quot;</text>
</g>
<!-- maumau&#45;&#45;c86 -->
<g id="edge10" class="edge"><title>maumau&#45;&#45;c86</title>
<path fill="none" stroke="black" d="M1167.41,-468.289C1181.18,-458.563 1195.32,-446.277 1205,-432 1271.22,-334.378 1218.54,-277.436 1282,-178 1290.41,-164.816 1301.91,-152.201 1312.9,-141.651"/>
<text text-anchor="middle" x="1309.36" y="-148.504" font-family="Times New Roman,serif" font-size="10.00">cards</text>
<text text-anchor="middle" x="1172.27" y="-457.051" font-family="Times New Roman,serif" font-size="10.00">game</text>
</g>
<!-- p50 -->
<g id="node9" class="node"><title>p50</title>
<a xlink:href="../examples/org/sdmlib/examples/replication/maumau/Player.java" xlink:title="&lt;TABLE&gt;">
<polygon fill="none" stroke="black" points="1056,-113 1056,-130 1126,-130 1126,-113 1056,-113"/>
<text text-anchor="start" x="1067.5" y="-119.5" font-family="Times New Roman,serif" font-size="10.00"> </text>
<text text-anchor="start" x="1070.5" y="-119.5" font-family="Times New Roman,serif" font-size="10.00">p50 :Player</text>
</a>
<polygon fill="none" stroke="black" points="1056,-93 1056,-113 1126,-113 1126,-93 1056,-93"/>
<text text-anchor="start" x="1061" y="-101" font-family="Times New Roman,serif" font-size="10.00">name = &quot;Karli&quot;</text>
</g>
<!-- maumau&#45;&#45;p50 -->
<g id="edge18" class="edge"><title>maumau&#45;&#45;p50</title>
<path fill="none" stroke="black" d="M1123.56,-468.385C1122.36,-415.181 1118.11,-285.578 1104,-178 1102.08,-163.395 1098.83,-147.145 1096.06,-134.546"/>
<text text-anchor="middle" x="1102.12" y="-140.005" font-family="Times New Roman,serif" font-size="10.00">players</text>
<text text-anchor="middle" x="1119.1" y="-456.932" font-family="Times New Roman,serif" font-size="10.00">game</text>
</g>
<!-- p52 -->
<g id="node10" class="node"><title>p52</title>
<a xlink:href="../examples/org/sdmlib/examples/replication/maumau/Player.java" xlink:title="&lt;TABLE&gt;">
<polygon fill="none" stroke="black" points="1052,-24 1052,-41 1130,-41 1130,-24 1052,-24"/>
<text text-anchor="start" x="1067.5" y="-30.5" font-family="Times New Roman,serif" font-size="10.00"> </text>
<text text-anchor="start" x="1070.5" y="-30.5" font-family="Times New Roman,serif" font-size="10.00">p52 :Player</text>
</a>
<polygon fill="none" stroke="black" points="1052,-4 1052,-24 1130,-24 1130,-4 1052,-4"/>
<text text-anchor="start" x="1057" y="-12" font-family="Times New Roman,serif" font-size="10.00">name = &quot;Sabine&quot;</text>
</g>
<!-- maumau&#45;&#45;p52 -->
<g id="edge20" class="edge"><title>maumau&#45;&#45;p52</title>
<path fill="none" stroke="black" d="M1131.77,-468.295C1151.02,-402.7 1195.71,-219.763 1143,-82 1137.68,-68.1062 1127.34,-55.4437 1117.26,-45.5197"/>
<text text-anchor="middle" x="1126.64" y="-46.4902" font-family="Times New Roman,serif" font-size="10.00">players</text>
<text text-anchor="middle" x="1130.13" y="-455.931" font-family="Times New Roman,serif" font-size="10.00">game</text>
</g>
<!-- c78 -->
<g id="node11" class="node"><title>c78</title>
<a xlink:href="../examples/org/sdmlib/examples/replication/maumau/Card.java" xlink:title="&lt;TABLE&gt;">
<polygon fill="none" stroke="black" points="1312,-354 1312,-371 1390,-371 1390,-354 1312,-354"/>
<text text-anchor="start" x="1331" y="-360.5" font-family="Times New Roman,serif" font-size="10.00"> </text>
<text text-anchor="start" x="1334" y="-360.5" font-family="Times New Roman,serif" font-size="10.00">c78 :Card</text>
</a>
<polygon fill="none" stroke="black" points="1312,-320 1312,-354 1390,-354 1390,-320 1312,-320"/>
<text text-anchor="start" x="1317" y="-342" font-family="Times New Roman,serif" font-size="10.00">suit = &quot;Hearts&quot;</text>
<text text-anchor="start" x="1317" y="-328" font-family="Times New Roman,serif" font-size="10.00">value = &quot;Queen&quot;</text>
</g>
<!-- maumau&#45;&#45;c78 -->
<g id="edge8" class="edge"><title>maumau&#45;&#45;c78</title>
<path fill="none" stroke="black" d="M1175.04,-482.612C1210.01,-473.6 1256.03,-457.836 1290,-432 1309.66,-417.046 1325.65,-393.991 1336.32,-375.663"/>
<text text-anchor="middle" x="1335.3" y="-383.111" font-family="Times New Roman,serif" font-size="10.00">cards</text>
<text text-anchor="middle" x="1182.69" y="-473.673" font-family="Times New Roman,serif" font-size="10.00">game</text>
</g>
<!-- h56 -->
<g id="node12" class="node"><title>h56</title>
<a xlink:href="../examples/org/sdmlib/examples/replication/maumau/Holder.java" xlink:title="&lt;TABLE&gt;">
<polygon fill="none" stroke="black" points="1299,-192 1299,-209 1355,-209 1355,-192 1299,-192"/>
<text text-anchor="start" x="1302.5" y="-198.5" font-family="Times New Roman,serif" font-size="10.00"> </text>
<text text-anchor="start" x="1305.5" y="-198.5" font-family="Times New Roman,serif" font-size="10.00">h56 :Holder</text>
</a>
</g>
<!-- maumau&#45;&#45;h56 -->
<g id="edge14" class="edge"><title>maumau&#45;&#45;h56</title>
<path fill="none" stroke="black" d="M1175.27,-480.029C1201.79,-470.8 1232.6,-455.724 1252,-432 1301.88,-371.004 1266.17,-333.334 1295,-260 1300.64,-245.658 1309.14,-230.439 1315.97,-219.191"/>
<text text-anchor="middle" x="1314.93" y="-226.637" font-family="Times New Roman,serif" font-size="10.00">stack</text>
<text text-anchor="middle" x="1182.33" y="-470.45" font-family="Times New Roman,serif" font-size="10.00">stackOwner</text>
</g>
<!-- c66&#45;&#45;abu -->
<g id="edge22" class="edge"><title>c66&#45;&#45;abu</title>
<path fill="none" stroke="black" d="M989.797,-316.406C1004.93,-289.02 1027.42,-248.307 1041.09,-223.554"/>
<text text-anchor="middle" x="1040.41" y="-231.03" font-family="Times New Roman,serif" font-size="10.00">holder</text>
<text text-anchor="middle" x="990.48" y="-303.929" font-family="Times New Roman,serif" font-size="10.00">cards</text>
</g>
<!-- abu&#45;&#45;c87 -->
<g id="edge24" class="edge"><title>abu&#45;&#45;c87</title>
<path fill="none" stroke="black" d="M1025.31,-178.494C1011.06,-167.424 993.492,-153.775 978.085,-141.807"/>
<text text-anchor="middle" x="987.835" y="-141.53" font-family="Times New Roman,serif" font-size="10.00">cards</text>
<text text-anchor="middle" x="1015.56" y="-173.772" font-family="Times New Roman,serif" font-size="10.00">holder</text>
</g>
<!-- abu&#45;&#45;c72 -->
<g id="edge26" class="edge"><title>abu&#45;&#45;c72</title>
<path fill="none" stroke="black" d="M1010.59,-187.774C975.339,-177.122 924.152,-160.511 881,-142 877.825,-140.638 874.585,-139.164 871.345,-137.626"/>
<text text-anchor="middle" x="881.345" y="-135.178" font-family="Times New Roman,serif" font-size="10.00">cards</text>
<text text-anchor="middle" x="1000.69" y="-186.667" font-family="Times New Roman,serif" font-size="10.00">holder</text>
</g>
<!-- abu&#45;&#45;c73 -->
<g id="edge28" class="edge"><title>abu&#45;&#45;c73</title>
<path fill="none" stroke="black" d="M1095.44,-179.602C1123.86,-165.941 1161.19,-147.998 1189.94,-134.178"/>
<text text-anchor="middle" x="1183.6" y="-139.414" font-family="Times New Roman,serif" font-size="10.00">cards</text>
<text text-anchor="middle" x="1101.77" y="-169.367" font-family="Times New Roman,serif" font-size="10.00">holder</text>
</g>
<!-- abu&#45;&#45;c86 -->
<g id="edge30" class="edge"><title>abu&#45;&#45;c86</title>
<path fill="none" stroke="black" d="M1095.63,-192.202C1143.14,-182.877 1221.85,-165.531 1287,-142 1289.94,-140.939 1292.92,-139.779 1295.91,-138.553"/>
<text text-anchor="middle" x="1289.12" y="-143.388" font-family="Times New Roman,serif" font-size="10.00">cards</text>
<text text-anchor="middle" x="1103.68" y="-183.776" font-family="Times New Roman,serif" font-size="10.00">holder</text>
</g>
<!-- abu&#45;&#45;p50 -->
<g id="edge32" class="edge"><title>abu&#45;&#45;p50</title>
<path fill="none" stroke="black" d="M1062.39,-178.494C1068.24,-165.11 1075.73,-147.955 1081.58,-134.56"/>
<text text-anchor="middle" x="1081.83" y="-142.057" font-family="Times New Roman,serif" font-size="10.00">next</text>
<text text-anchor="middle" x="1062.15" y="-165.997" font-family="Times New Roman,serif" font-size="10.00">prev</text>
</g>
<!-- abu&#45;&#45;p52 -->
<g id="edge34" class="edge"><title>abu&#45;&#45;p52</title>
<path fill="none" stroke="black" d="M1044.49,-178.361C1036.28,-154.104 1026.76,-113.984 1039,-82 1044.32,-68.1062 1054.66,-55.4437 1064.74,-45.5197"/>
<text text-anchor="middle" x="1061.37" y="-52.4348" font-family="Times New Roman,serif" font-size="10.00">prev</text>
<text text-anchor="middle" x="1037.7" y="-168.521" font-family="Times New Roman,serif" font-size="10.00">next</text>
</g>
<!-- p50&#45;&#45;p52 -->
<g id="edge36" class="edge"><title>p50&#45;&#45;p52</title>
<path fill="none" stroke="black" d="M1091,-89.4944C1091,-76.1096 1091,-58.9547 1091,-45.5597"/>
<text text-anchor="middle" x="1095.23" y="-52.1228" font-family="Times New Roman,serif" font-size="10.00">next</text>
<text text-anchor="middle" x="1086.77" y="-77.9313" font-family="Times New Roman,serif" font-size="10.00">prev</text>
</g>
<!-- c78&#45;&#45;h56 -->
<g id="edge38" class="edge"><title>c78&#45;&#45;h56</title>
<path fill="none" stroke="black" d="M1346.2,-316.406C1341.33,-287.389 1333.95,-243.413 1329.91,-219.309"/>
<text text-anchor="middle" x="1335.57" y="-225.048" font-family="Times New Roman,serif" font-size="10.00">holder</text>
<text text-anchor="middle" x="1340.53" y="-305.667" font-family="Times New Roman,serif" font-size="10.00">cards</text>
</g>
<!-- abuMauMauController -->
<g id="node13" class="node"><title>abuMauMauController</title>
<image xlink:href="icons/person1.png" width="32px" height="43px" preserveAspectRatio="xMinYMin meet" x="996" y="-630"/>
<a xlink:href="../examples/org/sdmlib/examples/replication/maumau/MultiMauMauControler.java" xlink:title="&lt;TABLE&gt;">
<polygon fill="none" stroke="black" points="910,-569 910,-585 1114,-585 1114,-569 910,-569"/>
<text text-anchor="start" x="913.5" y="-575" font-family="Times New Roman,serif" font-size="10.00"> </text>
<text text-anchor="start" x="916.5" y="-575" font-family="Times New Roman,serif" font-size="10.00">abuMauMauController :MultiMauMauControler</text>
</a>
</g>
<!-- abuMauMauController&#45;&#45;maumau -->
<g id="edge40" class="edge"><title>abuMauMauController&#45;&#45;maumau</title>
<path fill="none" stroke="black" d="M1048.98,-565.328C1064.91,-550.394 1083.17,-533.277 1097.69,-519.669"/>
<text text-anchor="middle" x="1093.97" y="-526.45" font-family="Times New Roman,serif" font-size="10.00">mauMau</text>
</g>
<!-- abuMauMauController&#45;&#45;abu -->
<g id="edge42" class="edge"><title>abuMauMauController&#45;&#45;abu</title>
<path fill="none" stroke="black" d="M985.374,-565.289C939.06,-500.354 854.496,-358.207 919,-260 939.179,-229.277 979.488,-214.75 1010.65,-207.929"/>
<text text-anchor="middle" x="1002.81" y="-211.641" font-family="Times New Roman,serif" font-size="10.00">activePlayer</text>
</g>
<!-- c97 -->
<g id="node14" class="node"><title>c97</title>
<a xlink:href="../examples/org/sdmlib/examples/replication/maumau/CardControler.java" xlink:title="&lt;TABLE&gt;">
<polygon fill="none" stroke="black" points="229,-485 229,-502 314,-502 314,-485 229,-485"/>
<text text-anchor="start" x="232.5" y="-491.5" font-family="Times New Roman,serif" font-size="10.00"> </text>
<text text-anchor="start" x="235.5" y="-491.5" font-family="Times New Roman,serif" font-size="10.00">c97 :CardControler</text>
</a>
</g>
<!-- abuMauMauController&#45;&#45;c97 -->
<g id="edge44" class="edge"><title>abuMauMauController&#45;&#45;c97</title>
<path fill="none" stroke="black" d="M926.65,-565.487C915.145,-561.787 903.383,-558.476 892,-556 688.586,-511.752 631.701,-544.7 425,-520 390.306,-515.854 351.473,-509.538 321.482,-504.292"/>
<text text-anchor="middle" x="331.134" y="-499.176" font-family="Times New Roman,serif" font-size="10.00">cardControlers</text>
<text text-anchor="middle" x="916.733" y="-564.273" font-family="Times New Roman,serif" font-size="10.00">mauMauControler</text>
</g>
<!-- c100 -->
<g id="node17" class="node"><title>c100</title>
<a xlink:href="../examples/org/sdmlib/examples/replication/maumau/CardControler.java" xlink:title="&lt;TABLE&gt;">
<polygon fill="none" stroke="black" points="663,-485 663,-502 752,-502 752,-485 663,-485"/>
<text text-anchor="start" x="666.5" y="-491.5" font-family="Times New Roman,serif" font-size="10.00"> </text>
<text text-anchor="start" x="669.5" y="-491.5" font-family="Times New Roman,serif" font-size="10.00">c100 :CardControler</text>
</a>
</g>
<!-- abuMauMauController&#45;&#45;c100 -->
<g id="edge46" class="edge"><title>abuMauMauController&#45;&#45;c100</title>
<path fill="none" stroke="black" d="M918.755,-565.47C909.728,-562.229 900.697,-559.027 892,-556 847.445,-540.491 796.514,-523.771 759.386,-511.765"/>
<text text-anchor="middle" x="769.311" y="-508.039" font-family="Times New Roman,serif" font-size="10.00">cardControlers</text>
<text text-anchor="middle" x="908.798" y="-563.89" font-family="Times New Roman,serif" font-size="10.00">mauMauControler</text>
</g>
<!-- c103 -->
<g id="node20" class="node"><title>c103</title>
<a xlink:href="../examples/org/sdmlib/examples/replication/maumau/CardControler.java" xlink:title="&lt;TABLE&gt;">
<polygon fill="none" stroke="black" points="1427,-485 1427,-502 1516,-502 1516,-485 1427,-485"/>
<text text-anchor="start" x="1430.5" y="-491.5" font-family="Times New Roman,serif" font-size="10.00"> </text>
<text text-anchor="start" x="1433.5" y="-491.5" font-family="Times New Roman,serif" font-size="10.00">c103 :CardControler</text>
</a>
</g>
<!-- abuMauMauController&#45;&#45;c103 -->
<g id="edge48" class="edge"><title>abuMauMauController&#45;&#45;c103</title>
<path fill="none" stroke="black" d="M1100.14,-565.452C1110.46,-561.992 1120.9,-558.749 1131,-556 1231.1,-528.743 1351.18,-510.468 1418.52,-501.483"/>
<text text-anchor="middle" x="1410.12" y="-504.4" font-family="Times New Roman,serif" font-size="10.00">cardControlers</text>
<text text-anchor="middle" x="1107.41" y="-556.081" font-family="Times New Roman,serif" font-size="10.00">mauMauControler</text>
</g>
<!-- c106 -->
<g id="node23" class="node"><title>c106</title>
<a xlink:href="../examples/org/sdmlib/examples/replication/maumau/CardControler.java" xlink:title="&lt;TABLE&gt;">
<polygon fill="none" stroke="black" points="1619,-485 1619,-502 1708,-502 1708,-485 1619,-485"/>
<text text-anchor="start" x="1622.5" y="-491.5" font-family="Times New Roman,serif" font-size="10.00"> </text>
<text text-anchor="start" x="1625.5" y="-491.5" font-family="Times New Roman,serif" font-size="10.00">c106 :CardControler</text>
</a>
</g>
<!-- abuMauMauController&#45;&#45;c106 -->
<g id="edge50" class="edge"><title>abuMauMauController&#45;&#45;c106</title>
<path fill="none" stroke="black" d="M1097.31,-565.404C1108.5,-561.768 1119.93,-558.496 1131,-556 1305.55,-516.628 1354.79,-544.802 1532,-520 1558.03,-516.358 1586.72,-511.031 1610.61,-506.229"/>
<text text-anchor="middle" x="1602.55" y="-509.644" font-family="Times New Roman,serif" font-size="10.00">cardControlers</text>
<text text-anchor="middle" x="1104.65" y="-556.112" font-family="Times New Roman,serif" font-size="10.00">mauMauControler</text>
</g>
<!-- c109 -->
<g id="node26" class="node"><title>c109</title>
<a xlink:href="../examples/org/sdmlib/examples/replication/maumau/CardControler.java" xlink:title="&lt;TABLE&gt;">
<polygon fill="none" stroke="black" points="1986,-485 1986,-502 2075,-502 2075,-485 1986,-485"/>
<text text-anchor="start" x="1989.5" y="-491.5" font-family="Times New Roman,serif" font-size="10.00"> </text>
<text text-anchor="start" x="1992.5" y="-491.5" font-family="Times New Roman,serif" font-size="10.00">c109 :CardControler</text>
</a>
</g>
<!-- abuMauMauController&#45;&#45;c109 -->
<g id="edge52" class="edge"><title>abuMauMauController&#45;&#45;c109</title>
<path fill="none" stroke="black" d="M1096.26,-565.412C1107.78,-561.698 1119.58,-558.404 1131,-556 1389.38,-501.631 1460.63,-538.751 1724,-520 1813.06,-513.66 1916.57,-504.914 1977.5,-499.624"/>
<text text-anchor="middle" x="1968.84" y="-502.115" font-family="Times New Roman,serif" font-size="10.00">cardControlers</text>
<text text-anchor="middle" x="1103.62" y="-556.139" font-family="Times New Roman,serif" font-size="10.00">mauMauControler</text>
</g>
<!-- c112 -->
<g id="node29" class="node"><title>c112</title>
<a xlink:href="../examples/org/sdmlib/examples/replication/maumau/CardControler.java" xlink:title="&lt;TABLE&gt;">
<polygon fill="none" stroke="black" points="443,-485 443,-502 532,-502 532,-485 443,-485"/>
<text text-anchor="start" x="446.5" y="-491.5" font-family="Times New Roman,serif" font-size="10.00"> </text>
<text text-anchor="start" x="449.5" y="-491.5" font-family="Times New Roman,serif" font-size="10.00">c112 :CardControler</text>
</a>
</g>
<!-- abuMauMauController&#45;&#45;c112 -->
<g id="edge54" class="edge"><title>abuMauMauController&#45;&#45;c112</title>
<path fill="none" stroke="black" d="M924.18,-565.456C913.442,-561.93 902.54,-558.67 892,-556 784.459,-528.759 754.678,-536.669 645,-520 609.718,-514.638 570.047,-508.36 539.282,-503.436"/>
<text text-anchor="middle" x="548.899" y="-498.193" font-family="Times New Roman,serif" font-size="10.00">cardControlers</text>
<text text-anchor="middle" x="914.254" y="-564.171" font-family="Times New Roman,serif" font-size="10.00">mauMauControler</text>
</g>
<!-- c97&#45;&#45;c66 -->
<g id="edge56" class="edge"><title>c97&#45;&#45;c66</title>
<path fill="none" stroke="black" d="M321.496,-483.822C351.492,-478.616 390.325,-472.302 425,-468 610.047,-445.044 666.641,-492.554 843,-432 879.155,-419.586 915.223,-395.061 940.332,-375.532"/>
<text text-anchor="middle" x="935.691" y="-381.89" font-family="Times New Roman,serif" font-size="10.00">card</text>
</g>
<!-- l98 -->
<g id="node15" class="node"><title>l98</title>
<a xlink:href="../../SDMLib/src/org/eclipse/swt/widgets/Label.java" xlink:title="&lt;TABLE&gt;">
<polygon fill="none" stroke="black" points="122,-410 122,-427 230,-427 230,-410 122,-410"/>
<text text-anchor="start" x="155.5" y="-416.5" font-family="Times New Roman,serif" font-size="10.00"> </text>
<text text-anchor="start" x="158.5" y="-416.5" font-family="Times New Roman,serif" font-size="10.00">l98 :Label</text>
</a>
<polygon fill="none" stroke="black" points="122,-264 122,-410 230,-410 230,-264 122,-264"/>
<text text-anchor="start" x="127" y="-398" font-family="Times New Roman,serif" font-size="10.00">text = &quot;8 Spades&quot;</text>
<text text-anchor="start" x="127" y="-384" font-family="Times New Roman,serif" font-size="10.00">alignment = 16777216</text>
<text text-anchor="start" x="127" y="-370" font-family="Times New Roman,serif" font-size="10.00">visible = &quot;true&quot;</text>
<text text-anchor="start" x="127" y="-356" font-family="Times New Roman,serif" font-size="10.00">enabled = &quot;true&quot;</text>
<text text-anchor="start" x="127" y="-342" font-family="Times New Roman,serif" font-size="10.00">borderWidth = 1</text>
<text text-anchor="start" x="127" y="-328" font-family="Times New Roman,serif" font-size="10.00">dragDetect = &quot;true&quot;</text>
<text text-anchor="start" x="127" y="-314" font-family="Times New Roman,serif" font-size="10.00">orientation = 33554432</text>
<text text-anchor="start" x="127" y="-300" font-family="Times New Roman,serif" font-size="10.00">textDirection = 33554432</text>
<text text-anchor="start" x="127" y="-286" font-family="Times New Roman,serif" font-size="10.00">touchEnabled = &quot;false&quot;</text>
<text text-anchor="start" x="127" y="-272" font-family="Times New Roman,serif" font-size="10.00">style = 50858016</text>
</g>
<!-- c97&#45;&#45;l98 -->
<g id="edge58" class="edge"><title>c97&#45;&#45;l98</title>
<path fill="none" stroke="black" d="M259.916,-475.966C252.477,-464.533 242.058,-448.521 231.086,-431.658"/>
<text text-anchor="middle" x="239.571" y="-434.45" font-family="Times New Roman,serif" font-size="10.00">label</text>
</g>
<!-- c99 -->
<g id="node16" class="node"><title>c99</title>
<a xlink:href="../examples/org/sdmlib/examples/replication/maumau/CardListener.java" xlink:title="&lt;TABLE&gt;">
<polygon fill="none" stroke="black" points="8,-337 8,-354 88,-354 88,-337 8,-337"/>
<text text-anchor="start" x="11.5" y="-343.5" font-family="Times New Roman,serif" font-size="10.00"> </text>
<text text-anchor="start" x="14.5" y="-343.5" font-family="Times New Roman,serif" font-size="10.00">c99 :CardListener</text>
</a>
</g>
<!-- c97&#45;&#45;c99 -->
<g id="edge60" class="edge"><title>c97&#45;&#45;c99</title>
<path fill="none" stroke="black" d="M220.455,-483.138C185.274,-474.315 138.796,-458.562 105,-432 81.6709,-413.664 64.5225,-383.079 55.4187,-364.029"/>
<text text-anchor="middle" x="63.212" y="-367.795" font-family="Times New Roman,serif" font-size="10.00">listener</text>
</g>
<!-- c100&#45;&#45;c72 -->
<g id="edge62" class="edge"><title>c100&#45;&#45;c72</title>
<path fill="none" stroke="black" d="M654.635,-481.215C628.306,-472.357 598.722,-457.256 583,-432 542.601,-367.103 545.456,-326.59 583,-260 625.256,-185.052 722.811,-143.978 780.644,-125.422"/>
<text text-anchor="middle" x="773.417" y="-129.834" font-family="Times New Roman,serif" font-size="10.00">card</text>
</g>
<!-- l101 -->
<g id="node18" class="node"><title>l101</title>
<a xlink:href="../../SDMLib/src/org/eclipse/swt/widgets/Label.java" xlink:title="&lt;TABLE&gt;">
<polygon fill="none" stroke="black" points="718,-410 718,-427 826,-427 826,-410 718,-410"/>
<text text-anchor="start" x="749" y="-416.5" font-family="Times New Roman,serif" font-size="10.00"> </text>
<text text-anchor="start" x="752" y="-416.5" font-family="Times New Roman,serif" font-size="10.00">l101 :Label</text>
</a>
<polygon fill="none" stroke="black" points="718,-264 718,-410 826,-410 826,-264 718,-264"/>
<text text-anchor="start" x="723" y="-398" font-family="Times New Roman,serif" font-size="10.00">text = &quot;Ace Spades&quot;</text>
<text text-anchor="start" x="723" y="-384" font-family="Times New Roman,serif" font-size="10.00">alignment = 16777216</text>
<text text-anchor="start" x="723" y="-370" font-family="Times New Roman,serif" font-size="10.00">visible = &quot;true&quot;</text>
<text text-anchor="start" x="723" y="-356" font-family="Times New Roman,serif" font-size="10.00">enabled = &quot;true&quot;</text>
<text text-anchor="start" x="723" y="-342" font-family="Times New Roman,serif" font-size="10.00">borderWidth = 1</text>
<text text-anchor="start" x="723" y="-328" font-family="Times New Roman,serif" font-size="10.00">dragDetect = &quot;true&quot;</text>
<text text-anchor="start" x="723" y="-314" font-family="Times New Roman,serif" font-size="10.00">orientation = 33554432</text>
<text text-anchor="start" x="723" y="-300" font-family="Times New Roman,serif" font-size="10.00">textDirection = 33554432</text>
<text text-anchor="start" x="723" y="-286" font-family="Times New Roman,serif" font-size="10.00">touchEnabled = &quot;false&quot;</text>
<text text-anchor="start" x="723" y="-272" font-family="Times New Roman,serif" font-size="10.00">style = 50858016</text>
</g>
<!-- c100&#45;&#45;l101 -->
<g id="edge64" class="edge"><title>c100&#45;&#45;l101</title>
<path fill="none" stroke="black" d="M714.584,-475.966C719.674,-464.533 726.802,-448.521 734.31,-431.658"/>
<text text-anchor="middle" x="734.485" y="-439.156" font-family="Times New Roman,serif" font-size="10.00">label</text>
</g>
<!-- c102 -->
<g id="node19" class="node"><title>c102</title>
<a xlink:href="../examples/org/sdmlib/examples/replication/maumau/CardListener.java" xlink:title="&lt;TABLE&gt;">
<polygon fill="none" stroke="black" points="600,-337 600,-354 684,-354 684,-337 600,-337"/>
<text text-anchor="start" x="603.5" y="-343.5" font-family="Times New Roman,serif" font-size="10.00"> </text>
<text text-anchor="start" x="606.5" y="-343.5" font-family="Times New Roman,serif" font-size="10.00">c102 :CardListener</text>
</a>
</g>
<!-- c100&#45;&#45;c102 -->
<g id="edge66" class="edge"><title>c100&#45;&#45;c102</title>
<path fill="none" stroke="black" d="M699.416,-475.966C686.959,-447.984 662.294,-392.583 649.737,-364.378"/>
<text text-anchor="middle" x="657.284" y="-368.439" font-family="Times New Roman,serif" font-size="10.00">listener</text>
</g>
<!-- c103&#45;&#45;c73 -->
<g id="edge68" class="edge"><title>c103&#45;&#45;c73</title>
<path fill="none" stroke="black" d="M1462.73,-475.971C1457.13,-463.912 1449.88,-447.238 1445,-432 1409.15,-320.146 1455.17,-260.94 1372,-178 1342.95,-149.031 1323.93,-159.869 1287,-142 1284.07,-140.584 1281.08,-139.085 1278.07,-137.545"/>
<text text-anchor="middle" x="1288.07" y="-135.409" font-family="Times New Roman,serif" font-size="10.00">card</text>
</g>
<!-- l104 -->
<g id="node21" class="node"><title>l104</title>
<a xlink:href="../../SDMLib/src/org/eclipse/swt/widgets/Label.java" xlink:title="&lt;TABLE&gt;">
<polygon fill="none" stroke="black" points="1462,-410 1462,-427 1570,-427 1570,-410 1462,-410"/>
<text text-anchor="start" x="1493" y="-416.5" font-family="Times New Roman,serif" font-size="10.00"> </text>
<text text-anchor="start" x="1496" y="-416.5" font-family="Times New Roman,serif" font-size="10.00">l104 :Label</text>
</a>
<polygon fill="none" stroke="black" points="1462,-264 1462,-410 1570,-410 1570,-264 1462,-264"/>
<text text-anchor="start" x="1467" y="-398" font-family="Times New Roman,serif" font-size="10.00">text = &quot;7 Hearts&quot;</text>
<text text-anchor="start" x="1467" y="-384" font-family="Times New Roman,serif" font-size="10.00">alignment = 16777216</text>
<text text-anchor="start" x="1467" y="-370" font-family="Times New Roman,serif" font-size="10.00">visible = &quot;true&quot;</text>
<text text-anchor="start" x="1467" y="-356" font-family="Times New Roman,serif" font-size="10.00">enabled = &quot;true&quot;</text>
<text text-anchor="start" x="1467" y="-342" font-family="Times New Roman,serif" font-size="10.00">borderWidth = 1</text>
<text text-anchor="start" x="1467" y="-328" font-family="Times New Roman,serif" font-size="10.00">dragDetect = &quot;true&quot;</text>
<text text-anchor="start" x="1467" y="-314" font-family="Times New Roman,serif" font-size="10.00">orientation = 33554432</text>
<text text-anchor="start" x="1467" y="-300" font-family="Times New Roman,serif" font-size="10.00">textDirection = 33554432</text>
<text text-anchor="start" x="1467" y="-286" font-family="Times New Roman,serif" font-size="10.00">touchEnabled = &quot;false&quot;</text>
<text text-anchor="start" x="1467" y="-272" font-family="Times New Roman,serif" font-size="10.00">style = 50858016</text>
</g>
<!-- c103&#45;&#45;l104 -->
<g id="edge70" class="edge"><title>c103&#45;&#45;l104</title>
<path fill="none" stroke="black" d="M1476.25,-475.966C1479.77,-464.533 1484.71,-448.521 1489.91,-431.658"/>
<text text-anchor="middle" x="1491.28" y="-439.064" font-family="Times New Roman,serif" font-size="10.00">label</text>
</g>
<!-- c105 -->
<g id="node22" class="node"><title>c105</title>
<a xlink:href="../examples/org/sdmlib/examples/replication/maumau/CardListener.java" xlink:title="&lt;TABLE&gt;">
<polygon fill="none" stroke="black" points="1604,-337 1604,-354 1688,-354 1688,-337 1604,-337"/>
<text text-anchor="start" x="1607.5" y="-343.5" font-family="Times New Roman,serif" font-size="10.00"> </text>
<text text-anchor="start" x="1610.5" y="-343.5" font-family="Times New Roman,serif" font-size="10.00">c105 :CardListener</text>
</a>
</g>
<!-- c103&#45;&#45;c105 -->
<g id="edge72" class="edge"><title>c103&#45;&#45;c105</title>
<path fill="none" stroke="black" d="M1514.86,-475.978C1537.99,-465.586 1565.86,-450.691 1587,-432 1609.2,-412.365 1627.3,-382.73 1637.35,-364.143"/>
<text text-anchor="middle" x="1636.67" y="-371.619" font-family="Times New Roman,serif" font-size="10.00">listener</text>
</g>
<!-- c106&#45;&#45;c78 -->
<g id="edge74" class="edge"><title>c106&#45;&#45;c78</title>
<path fill="none" stroke="black" d="M1610.65,-485.343C1564.8,-477.051 1497.48,-460.944 1445,-432 1418.61,-417.443 1393.54,-394.123 1375.94,-375.589"/>
<text text-anchor="middle" x="1385.28" y="-376.67" font-family="Times New Roman,serif" font-size="10.00">card</text>
</g>
<!-- l107 -->
<g id="node24" class="node"><title>l107</title>
<a xlink:href="../../SDMLib/src/org/eclipse/swt/widgets/Label.java" xlink:title="&lt;TABLE&gt;">
<polygon fill="none" stroke="black" points="1722,-410 1722,-427 1830,-427 1830,-410 1722,-410"/>
<text text-anchor="start" x="1753" y="-416.5" font-family="Times New Roman,serif" font-size="10.00"> </text>
<text text-anchor="start" x="1756" y="-416.5" font-family="Times New Roman,serif" font-size="10.00">l107 :Label</text>
</a>
<polygon fill="none" stroke="black" points="1722,-264 1722,-410 1830,-410 1830,-264 1722,-264"/>
<text text-anchor="start" x="1727" y="-398" font-family="Times New Roman,serif" font-size="10.00">text = &quot;Queen Hearts&quot;</text>
<text text-anchor="start" x="1727" y="-384" font-family="Times New Roman,serif" font-size="10.00">alignment = 16777216</text>
<text text-anchor="start" x="1727" y="-370" font-family="Times New Roman,serif" font-size="10.00">visible = &quot;true&quot;</text>
<text text-anchor="start" x="1727" y="-356" font-family="Times New Roman,serif" font-size="10.00">enabled = &quot;true&quot;</text>
<text text-anchor="start" x="1727" y="-342" font-family="Times New Roman,serif" font-size="10.00">borderWidth = 1</text>
<text text-anchor="start" x="1727" y="-328" font-family="Times New Roman,serif" font-size="10.00">dragDetect = &quot;true&quot;</text>
<text text-anchor="start" x="1727" y="-314" font-family="Times New Roman,serif" font-size="10.00">orientation = 33554432</text>
<text text-anchor="start" x="1727" y="-300" font-family="Times New Roman,serif" font-size="10.00">textDirection = 33554432</text>
<text text-anchor="start" x="1727" y="-286" font-family="Times New Roman,serif" font-size="10.00">touchEnabled = &quot;false&quot;</text>
<text text-anchor="start" x="1727" y="-272" font-family="Times New Roman,serif" font-size="10.00">style = 50858016</text>
</g>
<!-- c106&#45;&#45;l107 -->
<g id="edge76" class="edge"><title>c106&#45;&#45;l107</title>
<path fill="none" stroke="black" d="M1676.18,-475.966C1685.79,-463.555 1699.57,-445.749 1713.84,-427.315"/>
<text text-anchor="middle" x="1711.63" y="-434.569" font-family="Times New Roman,serif" font-size="10.00">label</text>
</g>
<!-- c108 -->
<g id="node25" class="node"><title>c108</title>
<a xlink:href="../examples/org/sdmlib/examples/replication/maumau/CardListener.java" xlink:title="&lt;TABLE&gt;">
<polygon fill="none" stroke="black" points="1864,-337 1864,-354 1948,-354 1948,-337 1864,-337"/>
<text text-anchor="start" x="1867.5" y="-343.5" font-family="Times New Roman,serif" font-size="10.00"> </text>
<text text-anchor="start" x="1870.5" y="-343.5" font-family="Times New Roman,serif" font-size="10.00">c108 :CardListener</text>
</a>
</g>
<!-- c106&#45;&#45;c108 -->
<g id="edge78" class="edge"><title>c106&#45;&#45;c108</title>
<path fill="none" stroke="black" d="M1715.55,-484.854C1754.82,-476.695 1808.19,-461.022 1847,-432 1871.02,-414.035 1888.81,-383.337 1898.28,-364.163"/>
<text text-anchor="middle" x="1897.94" y="-371.657" font-family="Times New Roman,serif" font-size="10.00">listener</text>
</g>
<!-- c109&#45;&#45;c86 -->
<g id="edge80" class="edge"><title>c109&#45;&#45;c86</title>
<path fill="none" stroke="black" d="M2021.25,-475.746C2015.44,-463.725 2007.98,-447.186 2003,-432 1978.59,-357.615 2019.91,-315.801 1965,-260 1885.13,-178.837 1532,-132.964 1398.42,-118.259"/>
<text text-anchor="middle" x="1407.91" y="-112.604" font-family="Times New Roman,serif" font-size="10.00">card</text>
</g>
<!-- l110 -->
<g id="node27" class="node"><title>l110</title>
<a xlink:href="../../SDMLib/src/org/eclipse/swt/widgets/Label.java" xlink:title="&lt;TABLE&gt;">
<polygon fill="none" stroke="black" points="2020,-410 2020,-427 2134,-427 2134,-410 2020,-410"/>
<text text-anchor="start" x="2054" y="-416.5" font-family="Times New Roman,serif" font-size="10.00"> </text>
<text text-anchor="start" x="2057" y="-416.5" font-family="Times New Roman,serif" font-size="10.00">l110 :Label</text>
</a>
<polygon fill="none" stroke="black" points="2020,-264 2020,-410 2134,-410 2134,-264 2020,-264"/>
<text text-anchor="start" x="2025" y="-398" font-family="Times New Roman,serif" font-size="10.00">text = &quot;Queen Diamonds&quot;</text>
<text text-anchor="start" x="2025" y="-384" font-family="Times New Roman,serif" font-size="10.00">alignment = 16777216</text>
<text text-anchor="start" x="2025" y="-370" font-family="Times New Roman,serif" font-size="10.00">visible = &quot;true&quot;</text>
<text text-anchor="start" x="2025" y="-356" font-family="Times New Roman,serif" font-size="10.00">enabled = &quot;true&quot;</text>
<text text-anchor="start" x="2025" y="-342" font-family="Times New Roman,serif" font-size="10.00">borderWidth = 1</text>
<text text-anchor="start" x="2025" y="-328" font-family="Times New Roman,serif" font-size="10.00">dragDetect = &quot;true&quot;</text>
<text text-anchor="start" x="2025" y="-314" font-family="Times New Roman,serif" font-size="10.00">orientation = 33554432</text>
<text text-anchor="start" x="2025" y="-300" font-family="Times New Roman,serif" font-size="10.00">textDirection = 33554432</text>
<text text-anchor="start" x="2025" y="-286" font-family="Times New Roman,serif" font-size="10.00">touchEnabled = &quot;false&quot;</text>
<text text-anchor="start" x="2025" y="-272" font-family="Times New Roman,serif" font-size="10.00">style = 50858016</text>
</g>
<!-- c109&#45;&#45;l110 -->
<g id="edge82" class="edge"><title>c109&#45;&#45;l110</title>
<path fill="none" stroke="black" d="M2035.48,-475.966C2039.16,-464.533 2044.32,-448.521 2049.75,-431.658"/>
<text text-anchor="middle" x="2050.99" y="-439.08" font-family="Times New Roman,serif" font-size="10.00">label</text>
</g>
<!-- c111 -->
<g id="node28" class="node"><title>c111</title>
<a xlink:href="../examples/org/sdmlib/examples/replication/maumau/CardListener.java" xlink:title="&lt;TABLE&gt;">
<polygon fill="none" stroke="black" points="2168,-337 2168,-354 2252,-354 2252,-337 2168,-337"/>
<text text-anchor="start" x="2171.5" y="-343.5" font-family="Times New Roman,serif" font-size="10.00"> </text>
<text text-anchor="start" x="2174.5" y="-343.5" font-family="Times New Roman,serif" font-size="10.00">c111 :CardListener</text>
</a>
</g>
<!-- c109&#45;&#45;c111 -->
<g id="edge84" class="edge"><title>c109&#45;&#45;c111</title>
<path fill="none" stroke="black" d="M2076.65,-475.959C2100.61,-465.685 2129.25,-450.905 2151,-432 2173.37,-412.557 2191.41,-382.866 2201.42,-364.215"/>
<text text-anchor="middle" x="2200.76" y="-371.694" font-family="Times New Roman,serif" font-size="10.00">listener</text>
</g>
<!-- c112&#45;&#45;c87 -->
<g id="edge86" class="edge"><title>c112&#45;&#45;c87</title>
<path fill="none" stroke="black" d="M493.202,-475.8C511.752,-424.687 566.539,-276.254 583,-260 684.068,-160.202 749.791,-198.745 880,-142 883.225,-140.595 886.532,-139.12 889.857,-137.613"/>
<text text-anchor="middle" x="883.343" y="-142.7" font-family="Times New Roman,serif" font-size="10.00">card</text>
</g>
<!-- l113 -->
<g id="node30" class="node"><title>l113</title>
<a xlink:href="../../SDMLib/src/org/eclipse/swt/widgets/Label.java" xlink:title="&lt;TABLE&gt;">
<polygon fill="none" stroke="black" points="264,-410 264,-427 372,-427 372,-410 264,-410"/>
<text text-anchor="start" x="295" y="-416.5" font-family="Times New Roman,serif" font-size="10.00"> </text>
<text text-anchor="start" x="298" y="-416.5" font-family="Times New Roman,serif" font-size="10.00">l113 :Label</text>
</a>
<polygon fill="none" stroke="black" points="264,-264 264,-410 372,-410 372,-264 264,-264"/>
<text text-anchor="start" x="269" y="-398" font-family="Times New Roman,serif" font-size="10.00">text = &quot;King Diamonds&quot;</text>
<text text-anchor="start" x="269" y="-384" font-family="Times New Roman,serif" font-size="10.00">alignment = 16777216</text>
<text text-anchor="start" x="269" y="-370" font-family="Times New Roman,serif" font-size="10.00">visible = &quot;true&quot;</text>
<text text-anchor="start" x="269" y="-356" font-family="Times New Roman,serif" font-size="10.00">enabled = &quot;true&quot;</text>
<text text-anchor="start" x="269" y="-342" font-family="Times New Roman,serif" font-size="10.00">borderWidth = 1</text>
<text text-anchor="start" x="269" y="-328" font-family="Times New Roman,serif" font-size="10.00">dragDetect = &quot;true&quot;</text>
<text text-anchor="start" x="269" y="-314" font-family="Times New Roman,serif" font-size="10.00">orientation = 33554432</text>
<text text-anchor="start" x="269" y="-300" font-family="Times New Roman,serif" font-size="10.00">textDirection = 33554432</text>
<text text-anchor="start" x="269" y="-286" font-family="Times New Roman,serif" font-size="10.00">touchEnabled = &quot;false&quot;</text>
<text text-anchor="start" x="269" y="-272" font-family="Times New Roman,serif" font-size="10.00">style = 50858016</text>
</g>
<!-- c112&#45;&#45;l113 -->
<g id="edge88" class="edge"><title>c112&#45;&#45;l113</title>
<path fill="none" stroke="black" d="M453.891,-475.895C434.007,-464.798 408.809,-449.229 389,-432 386.098,-429.476 383.217,-426.828 380.37,-424.091"/>
<text text-anchor="middle" x="389.839" y="-424.805" font-family="Times New Roman,serif" font-size="10.00">label</text>
</g>
<!-- c114 -->
<g id="node31" class="node"><title>c114</title>
<a xlink:href="../examples/org/sdmlib/examples/replication/maumau/CardListener.java" xlink:title="&lt;TABLE&gt;">
<polygon fill="none" stroke="black" points="406,-337 406,-354 490,-354 490,-337 406,-337"/>
<text text-anchor="start" x="409.5" y="-343.5" font-family="Times New Roman,serif" font-size="10.00"> </text>
<text text-anchor="start" x="412.5" y="-343.5" font-family="Times New Roman,serif" font-size="10.00">c114 :CardListener</text>
</a>
</g>
<!-- c112&#45;&#45;c114 -->
<g id="edge90" class="edge"><title>c112&#45;&#45;c114</title>
<path fill="none" stroke="black" d="M482.45,-475.966C474.975,-447.984 460.176,-392.583 452.642,-364.378"/>
<text text-anchor="middle" x="459.064" y="-369.543" font-family="Times New Roman,serif" font-size="10.00">listener</text>
</g>
<!-- n115 -->
<g id="node32" class="node"><title>n115</title>
<a xlink:href="../examples/org/sdmlib/examples/replication/maumau/NewPlayerHandler.java" xlink:title="&lt;TABLE&gt;">
<polygon fill="none" stroke="black" points="1148,-592 1148,-609 1256,-609 1256,-592 1148,-592"/>
<text text-anchor="start" x="1151.5" y="-598.5" font-family="Times New Roman,serif" font-size="10.00"> </text>
<text text-anchor="start" x="1154.5" y="-598.5" font-family="Times New Roman,serif" font-size="10.00">n115 :NewPlayerHandler</text>
</a>
</g>
<!-- n116 -->
<g id="node33" class="node"><title>n116</title>
<a xlink:href="../examples/org/sdmlib/examples/replication/maumau/NewCardHandler.java" xlink:title="&lt;TABLE&gt;">
<polygon fill="none" stroke="black" points="1290,-592 1290,-609 1392,-609 1392,-592 1290,-592"/>
<text text-anchor="start" x="1293.5" y="-598.5" font-family="Times New Roman,serif" font-size="10.00"> </text>
<text text-anchor="start" x="1296.5" y="-598.5" font-family="Times New Roman,serif" font-size="10.00">n116 :NewCardHandler</text>
</a>
</g>
<!-- n117 -->
<g id="node34" class="node"><title>n117</title>
<a xlink:href="../examples/org/sdmlib/examples/replication/maumau/NewDutyHandler.java" xlink:title="&lt;TABLE&gt;">
<polygon fill="none" stroke="black" points="1426,-592 1426,-609 1530,-609 1530,-592 1426,-592"/>
<text text-anchor="start" x="1429.5" y="-598.5" font-family="Times New Roman,serif" font-size="10.00"> </text>
<text text-anchor="start" x="1432.5" y="-598.5" font-family="Times New Roman,serif" font-size="10.00">n117 :NewDutyHandler</text>
</a>
</g>
</g>
</svg>
