<?xml version="1.0" encoding="UTF-8" standalone="no"?>
<!DOCTYPE svg PUBLIC "-//W3C//DTD SVG 1.1//EN"
 "http://www.w3.org/Graphics/SVG/1.1/DTD/svg11.dtd">
<!-- Generated by graphviz version 2.28.0 (20110507.0327)
 -->
<!-- Title: ObjectDiagram Pages: 1 -->
<svg width="1001pt" height="384pt"
 viewBox="0.00 0.00 1001.00 384.00" xmlns="http://www.w3.org/2000/svg" xmlns:xlink="http://www.w3.org/1999/xlink">
<g id="graph1" class="graph" transform="scale(1 1) rotate(0) translate(4 380)">
<title>ObjectDiagram</title>
<polygon fill="white" stroke="white" points="-4,5 -4,-380 998,-380 998,5 -4,5"/>
<!-- abuNode -->
<g id="node1" class="node"><title>abuNode</title>
<image xlink:href="icons/node.png" width="83px" height="61px" preserveAspectRatio="xMinYMin meet" x="10" y="-357"/>
<a xlink:href="../../SDMLib/src/org/sdmlib/replication/Node.java" xlink:title="&lt;TABLE&gt;">
<polygon fill="none" stroke="black" points="8,-278 8,-294 95,-294 95,-278 8,-278"/>
<text text-anchor="start" x="16" y="-284" font-family="Arial" font-size="10.00"> </text>
<text text-anchor="start" x="20" y="-284" font-family="Arial" font-size="10.00">abuNode :Node</text>
</a>
</g>
<!-- s6 -->
<g id="node2" class="node"><title>s6</title>
<image xlink:href="icons/worker.png" width="80px" height="61px" preserveAspectRatio="xMinYMin meet" x="167" y="-357"/>
<a xlink:href="../examples/org/sdmlib/examples/replication/maumau/ShowStartGameButtonAction.java" xlink:title="&lt;TABLE&gt;">
<polygon fill="none" stroke="black" points="129,-278 129,-294 285,-294 285,-278 129,-278"/>
<text text-anchor="start" x="132.5" y="-284" font-family="Arial" font-size="10.00"> </text>
<text text-anchor="start" x="136.5" y="-284" font-family="Arial" font-size="10.00">s6 :ShowStartGameButtonAction</text>
</a>
</g>
<!-- taskboard -->
<g id="node3" class="node"><title>taskboard</title>
<image xlink:href="icons/shared.png" width="70px" height="23px" preserveAspectRatio="xMinYMin meet" x="348.5" y="-338"/>
<a xlink:href="../../SDMLib/src/org/sdmlib/replication/TaskFlowBoard.java" xlink:title="&lt;TABLE&gt;">
<polygon fill="none" stroke="black" points="320,-297 320,-313 447,-313 447,-297 320,-297"/>
<text text-anchor="start" x="323.5" y="-303" font-family="Arial" font-size="10.00"> </text>
<text text-anchor="start" x="327.5" y="-303" font-family="Arial" font-size="10.00">taskboard :TaskFlowBoard</text>
</a>
</g>
<!-- l2 -->
<g id="node4" class="node"><title>l2</title>
<a xlink:href="../../SDMLib/src/org/sdmlib/replication/Lane.java" xlink:title="&lt;TABLE&gt;">
<polygon fill="none" stroke="black" points="197,-162 197,-179 278,-179 278,-162 197,-162"/>
<text text-anchor="start" x="218" y="-168.5" font-family="Arial" font-size="10.00"> </text>
<text text-anchor="start" x="222" y="-168.5" font-family="Arial" font-size="10.00">l2 :Lane</text>
</a>
<polygon fill="none" stroke="black" points="197,-142 197,-162 278,-162 278,-142 197,-142"/>
<text text-anchor="start" x="202" y="-150" font-family="Arial" font-size="10.00">name = &quot;server&quot;</text>
</g>
<!-- taskboard&#45;&#45;l2 -->
<g id="edge2" class="edge"><title>taskboard&#45;&#45;l2</title>
<path fill="none" stroke="black" d="M358.913,-293.182C341.124,-274.765 316.387,-248.971 295,-226 282.023,-212.062 267.647,-196.202 256.454,-183.758"/>
<text text-anchor="middle" x="265.659" y="-185.165" font-family="Arial" font-size="10.00">lanes</text>
<text text-anchor="middle" x="349.579" y="-287.095" font-family="Arial" font-size="10.00">board</text>
</g>
<!-- l3 -->
<g id="node5" class="node"><title>l3</title>
<a xlink:href="../../SDMLib/src/org/sdmlib/replication/Lane.java" xlink:title="&lt;TABLE&gt;">
<polygon fill="none" stroke="black" points="312,-162 312,-179 455,-179 455,-162 312,-162"/>
<text text-anchor="start" x="364" y="-168.5" font-family="Arial" font-size="10.00"> </text>
<text text-anchor="start" x="368" y="-168.5" font-family="Arial" font-size="10.00">l3 :Lane</text>
</a>
<polygon fill="none" stroke="black" points="312,-142 312,-162 455,-162 455,-142 312,-142"/>
<text text-anchor="start" x="317" y="-150" font-family="Arial" font-size="10.00">name = &quot;play7WorkFlowLane&quot;</text>
</g>
<!-- taskboard&#45;&#45;l3 -->
<g id="edge4" class="edge"><title>taskboard&#45;&#45;l3</title>
<path fill="none" stroke="black" d="M383,-293.281C383,-263.04 383,-212.329 383,-183.589"/>
<text text-anchor="middle" x="387.226" y="-190.152" font-family="Arial" font-size="10.00">lanes</text>
<text text-anchor="middle" x="378.774" y="-281.718" font-family="Arial" font-size="10.00">board</text>
</g>
<!-- l1 -->
<g id="node7" class="node"><title>l1</title>
<a xlink:href="../../SDMLib/src/org/sdmlib/replication/Lane.java" xlink:title="&lt;TABLE&gt;">
<polygon fill="none" stroke="black" points="494,-162 494,-179 587,-179 587,-162 494,-162"/>
<text text-anchor="start" x="521" y="-168.5" font-family="Arial" font-size="10.00"> </text>
<text text-anchor="start" x="525" y="-168.5" font-family="Arial" font-size="10.00">l1 :Lane</text>
</a>
<polygon fill="none" stroke="black" points="494,-142 494,-162 587,-162 587,-142 494,-142"/>
<text text-anchor="start" x="499" y="-150" font-family="Arial" font-size="10.00">name = &quot;AbuLane&quot;</text>
</g>
<!-- taskboard&#45;&#45;l1 -->
<g id="edge6" class="edge"><title>taskboard&#45;&#45;l1</title>
<path fill="none" stroke="black" d="M407.877,-293.281C438.313,-263.04 489.348,-212.329 518.273,-183.589"/>
<text text-anchor="middle" x="514.823" y="-190.475" font-family="Arial" font-size="10.00">lanes</text>
<text text-anchor="middle" x="411.327" y="-281.395" font-family="Arial" font-size="10.00">board</text>
</g>
<!-- b4 -->
<g id="node6" class="node"><title>b4</title>
<a xlink:href="../../SDMLib/src/org/sdmlib/replication/BoardTask.java" xlink:title="&lt;TABLE&gt;">
<polygon fill="none" stroke="black" points="328,-38 328,-55 433,-55 433,-38 328,-38"/>
<text text-anchor="start" x="346.5" y="-44.5" font-family="Arial" font-size="10.00"> </text>
<text text-anchor="start" x="350.5" y="-44.5" font-family="Arial" font-size="10.00">b4 :BoardTask</text>
</a>
<polygon fill="none" stroke="black" points="328,-4 328,-38 433,-38 433,-4 328,-4"/>
<text text-anchor="start" x="333" y="-26" font-family="Arial" font-size="10.00">name = &quot;startClients&quot;</text>
<text text-anchor="start" x="333" y="-12" font-family="Arial" font-size="10.00">status = &quot;start&quot;</text>
</g>
<!-- l3&#45;&#45;b4 -->
<g id="edge8" class="edge"><title>l3&#45;&#45;b4</title>
<path fill="none" stroke="black" d="M382.498,-138.408C381.997,-116.891 381.226,-83.7134 380.673,-59.9275"/>
<text text-anchor="middle" x="385.108" y="-66.3899" font-family="Arial" font-size="10.00">tasks</text>
<text text-anchor="middle" x="378.062" y="-126.946" font-family="Arial" font-size="10.00">lane</text>
</g>
<!-- b5 -->
<g id="node8" class="node"><title>b5</title>
<a xlink:href="../../SDMLib/src/org/sdmlib/replication/BoardTask.java" xlink:title="&lt;TABLE&gt;">
<polygon fill="none" stroke="black" points="467,-38 467,-55 620,-55 620,-38 467,-38"/>
<text text-anchor="start" x="509.5" y="-44.5" font-family="Arial" font-size="10.00"> </text>
<text text-anchor="start" x="513.5" y="-44.5" font-family="Arial" font-size="10.00">b5 :BoardTask</text>
</a>
<polygon fill="none" stroke="black" points="467,-4 467,-38 620,-38 620,-4 467,-4"/>
<text text-anchor="start" x="472" y="-26" font-family="Arial" font-size="10.00">name = &quot;showStartGameButton&quot;</text>
<text text-anchor="start" x="472" y="-12" font-family="Arial" font-size="10.00">status = &quot;start&quot;</text>
</g>
<!-- l1&#45;&#45;b5 -->
<g id="edge10" class="edge"><title>l1&#45;&#45;b5</title>
<path fill="none" stroke="black" d="M540.502,-138.408C541.003,-116.891 541.774,-83.7134 542.327,-59.9275"/>
<text text-anchor="middle" x="546.342" y="-66.5864" font-family="Arial" font-size="10.00">tasks</text>
<text text-anchor="middle" x="536.488" y="-126.749" font-family="Arial" font-size="10.00">lane</text>
</g>
<!-- l7 -->
<g id="node9" class="node"><title>l7</title>
<a xlink:href="../../SDMLib/src/org/eclipse/swt/widgets/Label.java" xlink:title="&lt;TABLE&gt;">
<polygon fill="none" stroke="black" points="621,-162 621,-179 864,-179 864,-162 621,-162"/>
<text text-anchor="start" x="722" y="-168.5" font-family="Arial" font-size="10.00"> </text>
<text text-anchor="start" x="726" y="-168.5" font-family="Arial" font-size="10.00">l7 :Label</text>
</a>
<polygon fill="none" stroke="black" points="621,-142 621,-162 864,-162 864,-142 621,-142"/>
<text text-anchor="start" x="626" y="-150" font-family="Arial" font-size="10.00">text = &quot;When all players have shown up, Start Game&quot;</text>
</g>
<!-- s8 -->
<g id="node10" class="node"><title>s8</title>
<image xlink:href="icons/person1.png" width="32px" height="43px" preserveAspectRatio="xMinYMin meet" x="726" y="-348"/>
<a xlink:href="../examples/org/sdmlib/examples/replication/maumau/StartGameMouseAdapter.java" xlink:title="&lt;TABLE&gt;">
<polygon fill="none" stroke="black" points="673,-287 673,-303 811,-303 811,-287 673,-287"/>
<text text-anchor="start" x="676.5" y="-293" font-family="Arial" font-size="10.00"> </text>
<text text-anchor="start" x="680.5" y="-293" font-family="Arial" font-size="10.00">s8 :StartGameMouseAdapter</text>
</a>
</g>
<!-- s8&#45;&#45;l7 -->
<g id="edge12" class="edge"><title>s8&#45;&#45;l7</title>
<path fill="none" stroke="black" d="M742,-283.379C742,-252.859 742,-209.348 742,-183.558"/>
<text text-anchor="middle" x="746.226" y="-190.121" font-family="Arial" font-size="10.00">startGameLabel</text>
</g>
<!-- maumau -->
<g id="node11" class="node"><title>maumau</title>
<image xlink:href="icons/shared.png" width="70px" height="23px" preserveAspectRatio="xMinYMin meet" x="904.5" y="-369"/>
<a xlink:href="../examples/org/sdmlib/examples/replication/maumau/MauMau.java" xlink:title="&lt;TABLE&gt;">
<polygon fill="none" stroke="black" points="893,-328 893,-344 986,-344 986,-328 893,-328"/>
<text text-anchor="start" x="896.5" y="-334" font-family="Arial" font-size="10.00"> </text>
<text text-anchor="start" x="900.5" y="-334" font-family="Arial" font-size="10.00">maumau :MauMau</text>
</a>
<polygon fill="none" stroke="black" points="893,-266 893,-328 986,-328 986,-266 893,-266"/>
<text text-anchor="start" x="898" y="-316" font-family="Arial" font-size="10.00">deck = &quot;&quot;</text>
<text text-anchor="start" x="898" y="-302" font-family="Arial" font-size="10.00">stack = &quot;&quot;</text>
<text text-anchor="start" x="898" y="-288" font-family="Arial" font-size="10.00">currentMove = &quot;&quot;</text>
<text text-anchor="start" x="898" y="-274" font-family="Arial" font-size="10.00">duty = &quot;&quot;</text>
</g>
<!-- abu -->
<g id="node12" class="node"><title>abu</title>
<a xlink:href="../examples/org/sdmlib/examples/replication/maumau/Player.java" xlink:title="&lt;TABLE&gt;">
<polygon fill="none" stroke="black" points="898,-204 898,-221 981,-221 981,-204 898,-204"/>
<text text-anchor="start" x="912.5" y="-210.5" font-family="Arial" font-size="10.00"> </text>
<text text-anchor="start" x="916.5" y="-210.5" font-family="Arial" font-size="10.00">abu :Player</text>
</a>
<polygon fill="none" stroke="black" points="898,-100 898,-204 981,-204 981,-100 898,-100"/>
<text text-anchor="start" x="903" y="-192" font-family="Arial" font-size="10.00">name = &quot;Abu&quot;</text>
<text text-anchor="start" x="903" y="-178" font-family="Arial" font-size="10.00">deckOwner = &quot;&quot;</text>
<text text-anchor="start" x="903" y="-164" font-family="Arial" font-size="10.00">stackOwner = &quot;&quot;</text>
<text text-anchor="start" x="903" y="-150" font-family="Arial" font-size="10.00">next = &quot;&quot;</text>
<text text-anchor="start" x="903" y="-136" font-family="Arial" font-size="10.00">prev = &quot;&quot;</text>
<text text-anchor="start" x="903" y="-122" font-family="Arial" font-size="10.00">assignment = &quot;&quot;</text>
<text text-anchor="start" x="903" y="-108" font-family="Arial" font-size="10.00">duty = &quot;&quot;</text>
</g>
<!-- maumau&#45;&#45;abu -->
<g id="edge14" class="edge"><title>maumau&#45;&#45;abu</title>
<path fill="none" stroke="black" d="M939,-262.121C939,-250.318 939,-237.779 939,-225.712"/>
<text text-anchor="middle" x="943.226" y="-232.275" font-family="Arial" font-size="10.00">players</text>
<text text-anchor="middle" x="934.774" y="-250.558" font-family="Arial" font-size="10.00">game</text>
</g>
</g>
</svg>
