<?xml version="1.0" encoding="UTF-8" standalone="no"?>
<!DOCTYPE svg PUBLIC "-//W3C//DTD SVG 1.1//EN"
 "http://www.w3.org/Graphics/SVG/1.1/DTD/svg11.dtd">
<!-- Generated by graphviz version 2.28.0 (20110507.0327)
 -->
<!-- Title: ObjectDiagram Pages: 1 -->
<svg width="790pt" height="276pt"
 viewBox="0.00 0.00 790.00 276.00" xmlns="http://www.w3.org/2000/svg" xmlns:xlink="http://www.w3.org/1999/xlink">
<g id="graph1" class="graph" transform="scale(1 1) rotate(0) translate(4 272)">
<title>ObjectDiagram</title>
<polygon fill="white" stroke="white" points="-4,5 -4,-272 787,-272 787,5 -4,5"/>
<!-- abuNode -->
<g id="node1" class="node"><title>abuNode</title>
<image xlink:href="icons/node.png" width="83px" height="61px" preserveAspectRatio="xMinYMin meet" x="10" y="-261"/>
<a xlink:href="../../SDMLib/src/org/sdmlib/replication/Node.java" xlink:title="&lt;TABLE&gt;">
<polygon fill="none" stroke="black" points="8,-182 8,-198 95,-198 95,-182 8,-182"/>
<text text-anchor="start" x="16" y="-188" font-family="Arial" font-size="10.00"> </text>
<text text-anchor="start" x="20" y="-188" font-family="Arial" font-size="10.00">abuNode :Node</text>
</a>
</g>
<!-- s8 -->
<g id="node2" class="node"><title>s8</title>
<image xlink:href="icons/worker.png" width="80px" height="61px" preserveAspectRatio="xMinYMin meet" x="158" y="-261"/>
<a xlink:href="../examples/org/sdmlib/examples/replication/maumau/StartGameMouseAdapter.java" xlink:title="&lt;TABLE&gt;">
<polygon fill="none" stroke="black" points="129,-182 129,-198 267,-198 267,-182 129,-182"/>
<text text-anchor="start" x="132.5" y="-188" font-family="Arial" font-size="10.00"> </text>
<text text-anchor="start" x="136.5" y="-188" font-family="Arial" font-size="10.00">s8 :StartGameMouseAdapter</text>
</a>
</g>
<!-- l7 -->
<g id="node3" class="node"><title>l7</title>
<a xlink:href="../../SDMLib/src/org/eclipse/swt/widgets/Label.java" xlink:title="&lt;TABLE&gt;">
<polygon fill="none" stroke="black" points="77,-120 77,-137 320,-137 320,-120 77,-120"/>
<text text-anchor="start" x="178" y="-126.5" font-family="Arial" font-size="10.00"> </text>
<text text-anchor="start" x="182" y="-126.5" font-family="Arial" font-size="10.00">l7 :Label</text>
</a>
<polygon fill="none" stroke="black" points="77,-100 77,-120 320,-120 320,-100 77,-100"/>
<text text-anchor="start" x="82" y="-108" font-family="Arial" font-size="10.00">text = &quot;When all players have shown up, Start Game&quot;</text>
</g>
<!-- s8&#45;&#45;l7 -->
<g id="edge2" class="edge"><title>s8&#45;&#45;l7</title>
<path fill="none" stroke="black" d="M198,-178.447C198,-165.668 198,-152.252 198,-141.501"/>
<text text-anchor="middle" x="202.226" y="-148.064" font-family="Arial" font-size="10.00">startGameLabel</text>
</g>
<!-- taskboard -->
<g id="node4" class="node"><title>taskboard</title>
<image xlink:href="icons/shared.png" width="70px" height="23px" preserveAspectRatio="xMinYMin meet" x="505.5" y="-242"/>
<a xlink:href="../../SDMLib/src/org/sdmlib/replication/TaskFlowBoard.java" xlink:title="&lt;TABLE&gt;">
<polygon fill="none" stroke="black" points="477,-201 477,-217 604,-217 604,-201 477,-201"/>
<text text-anchor="start" x="480.5" y="-207" font-family="Arial" font-size="10.00"> </text>
<text text-anchor="start" x="484.5" y="-207" font-family="Arial" font-size="10.00">taskboard :TaskFlowBoard</text>
</a>
</g>
<!-- l2 -->
<g id="node5" class="node"><title>l2</title>
<a xlink:href="../../SDMLib/src/org/sdmlib/replication/Lane.java" xlink:title="&lt;TABLE&gt;">
<polygon fill="none" stroke="black" points="354,-120 354,-137 435,-137 435,-120 354,-120"/>
<text text-anchor="start" x="375" y="-126.5" font-family="Arial" font-size="10.00"> </text>
<text text-anchor="start" x="379" y="-126.5" font-family="Arial" font-size="10.00">l2 :Lane</text>
</a>
<polygon fill="none" stroke="black" points="354,-100 354,-120 435,-120 435,-100 354,-100"/>
<text text-anchor="start" x="359" y="-108" font-family="Arial" font-size="10.00">name = &quot;server&quot;</text>
</g>
<!-- taskboard&#45;&#45;l2 -->
<g id="edge4" class="edge"><title>taskboard&#45;&#45;l2</title>
<path fill="none" stroke="black" d="M504.657,-197.309C480.352,-180.328 448.378,-157.99 425.052,-141.694"/>
<text text-anchor="middle" x="434.902" y="-140.92" font-family="Arial" font-size="10.00">lanes</text>
<text text-anchor="middle" x="494.808" y="-193.083" font-family="Arial" font-size="10.00">board</text>
</g>
<!-- l3 -->
<g id="node7" class="node"><title>l3</title>
<a xlink:href="../../SDMLib/src/org/sdmlib/replication/Lane.java" xlink:title="&lt;TABLE&gt;">
<polygon fill="none" stroke="black" points="469,-120 469,-137 612,-137 612,-120 469,-120"/>
<text text-anchor="start" x="521" y="-126.5" font-family="Arial" font-size="10.00"> </text>
<text text-anchor="start" x="525" y="-126.5" font-family="Arial" font-size="10.00">l3 :Lane</text>
</a>
<polygon fill="none" stroke="black" points="469,-100 469,-120 612,-120 612,-100 469,-100"/>
<text text-anchor="start" x="474" y="-108" font-family="Arial" font-size="10.00">name = &quot;play7WorkFlowLane&quot;</text>
</g>
<!-- taskboard&#45;&#45;l3 -->
<g id="edge6" class="edge"><title>taskboard&#45;&#45;l3</title>
<path fill="none" stroke="black" d="M540,-197.309C540,-180.328 540,-157.99 540,-141.694"/>
<text text-anchor="middle" x="544.226" y="-148.257" font-family="Arial" font-size="10.00">lanes</text>
<text text-anchor="middle" x="535.774" y="-185.746" font-family="Arial" font-size="10.00">board</text>
</g>
<!-- l1 -->
<g id="node9" class="node"><title>l1</title>
<a xlink:href="../../SDMLib/src/org/sdmlib/replication/Lane.java" xlink:title="&lt;TABLE&gt;">
<polygon fill="none" stroke="black" points="651,-120 651,-137 744,-137 744,-120 651,-120"/>
<text text-anchor="start" x="678" y="-126.5" font-family="Arial" font-size="10.00"> </text>
<text text-anchor="start" x="682" y="-126.5" font-family="Arial" font-size="10.00">l1 :Lane</text>
</a>
<polygon fill="none" stroke="black" points="651,-100 651,-120 744,-120 744,-100 651,-100"/>
<text text-anchor="start" x="656" y="-108" font-family="Arial" font-size="10.00">name = &quot;AbuLane&quot;</text>
</g>
<!-- taskboard&#45;&#45;l1 -->
<g id="edge8" class="edge"><title>taskboard&#45;&#45;l1</title>
<path fill="none" stroke="black" d="M578.005,-197.309C604.232,-180.269 638.764,-157.835 663.869,-141.524"/>
<text text-anchor="middle" x="658.572" y="-147.506" font-family="Arial" font-size="10.00">lanes</text>
<text text-anchor="middle" x="583.303" y="-186.327" font-family="Arial" font-size="10.00">board</text>
</g>
<!-- b9 -->
<g id="node6" class="node"><title>b9</title>
<a xlink:href="../../SDMLib/src/org/sdmlib/replication/BoardTask.java" xlink:title="&lt;TABLE&gt;">
<polygon fill="none" stroke="black" points="344,-38 344,-55 445,-55 445,-38 344,-38"/>
<text text-anchor="start" x="360.5" y="-44.5" font-family="Arial" font-size="10.00"> </text>
<text text-anchor="start" x="364.5" y="-44.5" font-family="Arial" font-size="10.00">b9 :BoardTask</text>
</a>
<polygon fill="none" stroke="black" points="344,-4 344,-38 445,-38 445,-4 344,-4"/>
<text text-anchor="start" x="349" y="-26" font-family="Arial" font-size="10.00">name = &quot;startGame&quot;</text>
<text text-anchor="start" x="349" y="-12" font-family="Arial" font-size="10.00">status = &quot;&quot;</text>
</g>
<!-- l2&#45;&#45;b9 -->
<g id="edge10" class="edge"><title>l2&#45;&#45;b9</title>
<path fill="none" stroke="black" d="M394,-96.4944C394,-85.4243 394,-71.7752 394,-59.8074"/>
<text text-anchor="middle" x="398.226" y="-66.3705" font-family="Arial" font-size="10.00">tasks</text>
<text text-anchor="middle" x="389.774" y="-84.9313" font-family="Arial" font-size="10.00">lane</text>
</g>
<!-- b4 -->
<g id="node8" class="node"><title>b4</title>
<a xlink:href="../../SDMLib/src/org/sdmlib/replication/BoardTask.java" xlink:title="&lt;TABLE&gt;">
<polygon fill="none" stroke="black" points="483,-38 483,-55 588,-55 588,-38 483,-38"/>
<text text-anchor="start" x="501.5" y="-44.5" font-family="Arial" font-size="10.00"> </text>
<text text-anchor="start" x="505.5" y="-44.5" font-family="Arial" font-size="10.00">b4 :BoardTask</text>
</a>
<polygon fill="none" stroke="black" points="483,-4 483,-38 588,-38 588,-4 483,-4"/>
<text text-anchor="start" x="488" y="-26" font-family="Arial" font-size="10.00">name = &quot;startClients&quot;</text>
<text text-anchor="start" x="488" y="-12" font-family="Arial" font-size="10.00">status = &quot;start&quot;</text>
</g>
<!-- l3&#45;&#45;b4 -->
<g id="edge12" class="edge"><title>l3&#45;&#45;b4</title>
<path fill="none" stroke="black" d="M538.764,-96.4944C538.128,-85.4243 537.343,-71.7752 536.656,-59.8074"/>
<text text-anchor="middle" x="541.395" y="-66.113" font-family="Arial" font-size="10.00">tasks</text>
<text text-anchor="middle" x="534.025" y="-85.1887" font-family="Arial" font-size="10.00">lane</text>
</g>
<!-- b5 -->
<g id="node10" class="node"><title>b5</title>
<a xlink:href="../../SDMLib/src/org/sdmlib/replication/BoardTask.java" xlink:title="&lt;TABLE&gt;">
<polygon fill="none" stroke="black" points="622,-38 622,-55 775,-55 775,-38 622,-38"/>
<text text-anchor="start" x="664.5" y="-44.5" font-family="Arial" font-size="10.00"> </text>
<text text-anchor="start" x="668.5" y="-44.5" font-family="Arial" font-size="10.00">b5 :BoardTask</text>
</a>
<polygon fill="none" stroke="black" points="622,-4 622,-38 775,-38 775,-4 622,-4"/>
<text text-anchor="start" x="627" y="-26" font-family="Arial" font-size="10.00">name = &quot;showStartGameButton&quot;</text>
<text text-anchor="start" x="627" y="-12" font-family="Arial" font-size="10.00">status = &quot;start&quot;</text>
</g>
<!-- l1&#45;&#45;b5 -->
<g id="edge14" class="edge"><title>l1&#45;&#45;b5</title>
<path fill="none" stroke="black" d="M697.247,-96.4944C697.374,-85.4243 697.531,-71.7752 697.669,-59.8074"/>
<text text-anchor="middle" x="701.791" y="-66.4184" font-family="Arial" font-size="10.00">tasks</text>
<text text-anchor="middle" x="693.125" y="-84.8833" font-family="Arial" font-size="10.00">lane</text>
</g>
</g>
</svg>
