<?xml version="1.0" encoding="UTF-8" standalone="no"?>
<!DOCTYPE svg PUBLIC "-//W3C//DTD SVG 1.1//EN"
 "http://www.w3.org/Graphics/SVG/1.1/DTD/svg11.dtd">
<!-- Generated by graphviz version 2.28.0 (20110507.0327)
 -->
<!-- Title: ObjectDiagram Pages: 1 -->
<svg width="260pt" height="542pt"
 viewBox="0.00 0.00 260.00 542.00" xmlns="http://www.w3.org/2000/svg" xmlns:xlink="http://www.w3.org/1999/xlink">
<g id="graph1" class="graph" transform="scale(1 1) rotate(0) translate(4 538)">
<title>ObjectDiagram</title>
<polygon fill="white" stroke="white" points="-4,5 -4,-538 257,-538 257,5 -4,5"/>
<!-- c64 -->
<g id="node1" class="node"><title>c64</title>
<image xlink:href="icons/worker.png" width="76px" height="61px" preserveAspectRatio="xMinYMin meet" x="10" y="-527"/>
<a xlink:href="../examples/org/sdmlib/examples/replication/maumau/CardListener.java" xlink:title="&lt;TABLE&gt;">
<polygon fill="none" stroke="black" points="8,-448 8,-464 88,-464 88,-448 8,-448"/>
<text text-anchor="start" x="11.5" y="-454" font-family="Times New Roman,serif" font-size="10.00"> </text>
<text text-anchor="start" x="14.5" y="-454" font-family="Times New Roman,serif" font-size="10.00">c64 :CardListener</text>
</a>
</g>
<!-- h15 -->
<g id="node2" class="node"><title>h15</title>
<a xlink:href="../examples/org/sdmlib/examples/replication/maumau/Holder.java" xlink:title="&lt;TABLE&gt;">
<polygon fill="none" stroke="black" points="122,-480 122,-497 178,-497 178,-480 122,-480"/>
<text text-anchor="start" x="125.5" y="-486.5" font-family="Times New Roman,serif" font-size="10.00"> </text>
<text text-anchor="start" x="128.5" y="-486.5" font-family="Times New Roman,serif" font-size="10.00">h15 :Holder</text>
</a>
</g>
<!-- c32 -->
<g id="node3" class="node"><title>c32</title>
<a xlink:href="../examples/org/sdmlib/examples/replication/maumau/Card.java" xlink:title="&lt;TABLE&gt;">
<polygon fill="none" stroke="black" points="78,-386 78,-403 150,-403 150,-386 78,-386"/>
<text text-anchor="start" x="94" y="-392.5" font-family="Times New Roman,serif" font-size="10.00"> </text>
<text text-anchor="start" x="97" y="-392.5" font-family="Times New Roman,serif" font-size="10.00">c32 :Card</text>
</a>
<polygon fill="none" stroke="black" points="78,-352 78,-386 150,-386 150,-352 78,-352"/>
<text text-anchor="start" x="83" y="-374" font-family="Times New Roman,serif" font-size="10.00">suit = &quot;Hearts&quot;</text>
<text text-anchor="start" x="83" y="-360" font-family="Times New Roman,serif" font-size="10.00">value = &quot;7&quot;</text>
</g>
<!-- h15&#45;&#45;c32 -->
<g id="edge2" class="edge"><title>h15&#45;&#45;c32</title>
<path fill="none" stroke="black" d="M144.375,-470.969C138.798,-454.084 130.15,-427.899 123.506,-407.781"/>
<text text-anchor="middle" x="130.361" y="-412.562" font-family="Times New Roman,serif" font-size="10.00">cards</text>
<text text-anchor="middle" x="137.52" y="-461.188" font-family="Times New Roman,serif" font-size="10.00">holder</text>
</g>
<!-- maumau -->
<g id="node4" class="node"><title>maumau</title>
<image xlink:href="icons/shared.png" width="70px" height="23px" preserveAspectRatio="xMinYMin meet" x="115" y="-305"/>
<a xlink:href="../examples/org/sdmlib/examples/replication/maumau/MauMau.java" xlink:title="&lt;TABLE&gt;">
<polygon fill="none" stroke="black" points="107,-264 107,-280 193,-280 193,-264 107,-264"/>
<text text-anchor="start" x="110.5" y="-270" font-family="Times New Roman,serif" font-size="10.00"> </text>
<text text-anchor="start" x="113.5" y="-270" font-family="Times New Roman,serif" font-size="10.00">maumau :MauMau</text>
</a>
</g>
<!-- h15&#45;&#45;maumau -->
<g id="edge4" class="edge"><title>h15&#45;&#45;maumau</title>
<path fill="none" stroke="black" d="M154.696,-471C158.879,-454.917 164.685,-430.029 167,-408 169.787,-381.479 170.613,-374.421 167,-348 165.332,-335.8 161.869,-322.6 158.502,-311.609"/>
<text text-anchor="middle" x="165.16" y="-316.57" font-family="Times New Roman,serif" font-size="10.00">stackOwner</text>
<text text-anchor="middle" x="152.847" y="-458.672" font-family="Times New Roman,serif" font-size="10.00">stack</text>
</g>
<!-- c32&#45;&#45;maumau -->
<g id="edge6" class="edge"><title>c32&#45;&#45;maumau</title>
<path fill="none" stroke="black" d="M125.589,-348.028C130.275,-336.312 135.629,-322.928 140.126,-311.686"/>
<text text-anchor="middle" x="140.684" y="-319.17" font-family="Times New Roman,serif" font-size="10.00">game</text>
<text text-anchor="middle" x="125.031" y="-335.544" font-family="Times New Roman,serif" font-size="10.00">cards</text>
</g>
<!-- abu -->
<g id="node5" class="node"><title>abu</title>
<a xlink:href="../examples/org/sdmlib/examples/replication/maumau/Player.java" xlink:title="&lt;TABLE&gt;">
<polygon fill="none" stroke="black" points="81,-202 81,-219 150,-219 150,-202 81,-202"/>
<text text-anchor="start" x="91.5" y="-208.5" font-family="Times New Roman,serif" font-size="10.00"> </text>
<text text-anchor="start" x="94.5" y="-208.5" font-family="Times New Roman,serif" font-size="10.00">abu :Player</text>
</a>
<polygon fill="none" stroke="black" points="81,-182 81,-202 150,-202 150,-182 81,-182"/>
<text text-anchor="start" x="86" y="-190" font-family="Times New Roman,serif" font-size="10.00">name = &quot;Abu&quot;</text>
</g>
<!-- maumau&#45;&#45;abu -->
<g id="edge8" class="edge"><title>maumau&#45;&#45;abu</title>
<path fill="none" stroke="black" d="M139.499,-260.097C134.586,-248.446 128.791,-234.705 124.072,-223.513"/>
<text text-anchor="middle" x="131.487" y="-227.722" font-family="Times New Roman,serif" font-size="10.00">players</text>
<text text-anchor="middle" x="132.083" y="-250.888" font-family="Times New Roman,serif" font-size="10.00">game</text>
</g>
<!-- p9 -->
<g id="node6" class="node"><title>p9</title>
<a xlink:href="../examples/org/sdmlib/examples/replication/maumau/Player.java" xlink:title="&lt;TABLE&gt;">
<polygon fill="none" stroke="black" points="118,-120 118,-137 188,-137 188,-120 118,-120"/>
<text text-anchor="start" x="131.5" y="-126.5" font-family="Times New Roman,serif" font-size="10.00"> </text>
<text text-anchor="start" x="134.5" y="-126.5" font-family="Times New Roman,serif" font-size="10.00">p9 :Player</text>
</a>
<polygon fill="none" stroke="black" points="118,-100 118,-120 188,-120 188,-100 118,-100"/>
<text text-anchor="start" x="123" y="-108" font-family="Times New Roman,serif" font-size="10.00">name = &quot;Karli&quot;</text>
</g>
<!-- maumau&#45;&#45;p9 -->
<g id="edge10" class="edge"><title>maumau&#45;&#45;p9</title>
<path fill="none" stroke="black" d="M158.003,-260.355C161.173,-249.358 164.432,-236.162 166,-224 168.615,-203.723 168.249,-198.32 166,-178 164.649,-165.795 161.745,-152.404 159.024,-141.567"/>
<text text-anchor="middle" x="165.298" y="-146.854" font-family="Times New Roman,serif" font-size="10.00">players_currentMove</text>
<text text-anchor="middle" x="156.406" y="-247.984" font-family="Times New Roman,serif" font-size="10.00">game_assignment</text>
</g>
<!-- p11 -->
<g id="node7" class="node"><title>p11</title>
<a xlink:href="../examples/org/sdmlib/examples/replication/maumau/Player.java" xlink:title="&lt;TABLE&gt;">
<polygon fill="none" stroke="black" points="43,-31 43,-48 121,-48 121,-31 43,-31"/>
<text text-anchor="start" x="58.5" y="-37.5" font-family="Times New Roman,serif" font-size="10.00"> </text>
<text text-anchor="start" x="61.5" y="-37.5" font-family="Times New Roman,serif" font-size="10.00">p11 :Player</text>
</a>
<polygon fill="none" stroke="black" points="43,-11 43,-31 121,-31 121,-11 43,-11"/>
<text text-anchor="start" x="48" y="-19" font-family="Times New Roman,serif" font-size="10.00">name = &quot;Sabine&quot;</text>
</g>
<!-- maumau&#45;&#45;p11 -->
<g id="edge12" class="edge"><title>maumau&#45;&#45;p11</title>
<path fill="none" stroke="black" d="M98.7315,-260.813C84.5632,-251.432 70.9168,-239.22 63,-224 33.7902,-167.845 57.7291,-90.0815 72.5076,-52.7317"/>
<text text-anchor="middle" x="73.2734" y="-60.2024" font-family="Times New Roman,serif" font-size="10.00">players</text>
<text text-anchor="middle" x="88.8667" y="-256.674" font-family="Times New Roman,serif" font-size="10.00">game</text>
</g>
<!-- draw2 -->
<g id="node8" class="node"><title>draw2</title>
<a xlink:href="../examples/org/sdmlib/examples/replication/maumau/Duty.java" xlink:title="&lt;TABLE&gt;">
<polygon fill="none" stroke="black" points="172,-38 172,-55 245,-55 245,-38 172,-38"/>
<text text-anchor="start" x="182.5" y="-44.5" font-family="Times New Roman,serif" font-size="10.00"> </text>
<text text-anchor="start" x="185.5" y="-44.5" font-family="Times New Roman,serif" font-size="10.00">draw2 :Duty</text>
</a>
<polygon fill="none" stroke="black" points="172,-4 172,-38 245,-38 245,-4 172,-4"/>
<text text-anchor="start" x="177" y="-26" font-family="Times New Roman,serif" font-size="10.00">kind = &quot;Draw2&quot;</text>
<text text-anchor="start" x="177" y="-12" font-family="Times New Roman,serif" font-size="10.00">number = 2</text>
</g>
<!-- maumau&#45;&#45;draw2 -->
<g id="edge14" class="edge"><title>maumau&#45;&#45;draw2</title>
<path fill="none" stroke="black" d="M163.185,-260.479C168.791,-249.504 175.14,-236.292 180,-224 194.008,-188.568 198.874,-179.605 205,-142 209.494,-114.411 209.86,-82.4643 209.332,-59.9477"/>
<text text-anchor="middle" x="213.723" y="-66.4321" font-family="Times New Roman,serif" font-size="10.00">duty</text>
<text text-anchor="middle" x="163.514" y="-247.984" font-family="Times New Roman,serif" font-size="10.00">game</text>
</g>
<!-- abu&#45;&#45;p9 -->
<g id="edge16" class="edge"><title>abu&#45;&#45;p9</title>
<path fill="none" stroke="black" d="M125.384,-178.14C130.789,-166.759 137.376,-152.893 142.76,-141.557"/>
<text text-anchor="middle" x="142.689" y="-149.057" font-family="Times New Roman,serif" font-size="10.00">next</text>
<text text-anchor="middle" x="125.455" y="-165.64" font-family="Times New Roman,serif" font-size="10.00">prev</text>
</g>
<!-- abu&#45;&#45;p11 -->
<g id="edge18" class="edge"><title>abu&#45;&#45;p11</title>
<path fill="none" stroke="black" d="M109.4,-178.319C106.687,-167.455 103.487,-154.073 101,-142 94.6481,-111.17 88.7708,-75.2155 85.2834,-52.7759"/>
<text text-anchor="middle" x="90.8623" y="-58.5751" font-family="Times New Roman,serif" font-size="10.00">prev</text>
<text text-anchor="middle" x="103.114" y="-168.042" font-family="Times New Roman,serif" font-size="10.00">next</text>
</g>
<!-- p9&#45;&#45;p11 -->
<g id="edge20" class="edge"><title>p9&#45;&#45;p11</title>
<path fill="none" stroke="black" d="M135.449,-96.4944C124.526,-83.1096 110.526,-65.9547 99.5947,-52.5597"/>
<text text-anchor="middle" x="108.599" y="-54.4093" font-family="Times New Roman,serif" font-size="10.00">next</text>
<text text-anchor="middle" x="126.445" y="-89.6448" font-family="Times New Roman,serif" font-size="10.00">prev</text>
</g>
<!-- p9&#45;&#45;draw2 -->
<g id="edge22" class="edge"><title>p9&#45;&#45;draw2</title>
<path fill="none" stroke="black" d="M166.596,-96.4944C173.594,-85.4243 182.223,-71.7752 189.788,-59.8074"/>
<text text-anchor="middle" x="188.518" y="-67.2263" font-family="Times New Roman,serif" font-size="10.00">duty</text>
<text text-anchor="middle" x="167.866" y="-84.0754" font-family="Times New Roman,serif" font-size="10.00">player</text>
</g>
</g>
</svg>
