<?xml version="1.0" encoding="UTF-8" standalone="no"?>
<!DOCTYPE svg PUBLIC "-//W3C//DTD SVG 1.1//EN"
 "http://www.w3.org/Graphics/SVG/1.1/DTD/svg11.dtd">
<!-- Generated by graphviz version 2.28.0 (20110507.0327)
 -->
<!-- Title: ObjectDiagram Pages: 1 -->
<svg width="922pt" height="416pt"
 viewBox="0.00 0.00 922.00 416.00" xmlns="http://www.w3.org/2000/svg" xmlns:xlink="http://www.w3.org/1999/xlink">
<g id="graph1" class="graph" transform="scale(1 1) rotate(0) translate(4 412)">
<title>ObjectDiagram</title>
<polygon fill="white" stroke="white" points="-4,5 -4,-412 919,-412 919,5 -4,5"/>
<!-- abuNode -->
<g id="node1" class="node"><title>abuNode</title>
<image xlink:href="icons/node.png" width="83px" height="61px" preserveAspectRatio="xMinYMin meet" x="10" y="-400"/>
<a xlink:href="../../SDMLib/src/org/sdmlib/replication/Node.java" xlink:title="&lt;TABLE&gt;">
<polygon fill="none" stroke="black" points="8,-321 8,-337 95,-337 95,-321 8,-321"/>
<text text-anchor="start" x="16" y="-327" font-family="Arial" font-size="10.00"> </text>
<text text-anchor="start" x="20" y="-327" font-family="Arial" font-size="10.00">abuNode :Node</text>
</a>
</g>
<!-- abuInit -->
<g id="node2" class="node"><title>abuInit</title>
<image xlink:href="icons/worker.png" width="80px" height="61px" preserveAspectRatio="xMinYMin meet" x="170.5" y="-400"/>
<a xlink:href="../examples/org/sdmlib/examples/replication/maumau/MultiMauMauClientInitTask.java" xlink:title="&lt;TABLE&gt;">
<polygon fill="none" stroke="black" points="129,-321 129,-337 292,-337 292,-321 129,-321"/>
<text text-anchor="start" x="132.5" y="-327" font-family="Arial" font-size="10.00"> </text>
<text text-anchor="start" x="136.5" y="-327" font-family="Arial" font-size="10.00">abuInit :MultiMauMauClientInitTask</text>
</a>
</g>
<!-- taskboard -->
<g id="node3" class="node"><title>taskboard</title>
<image xlink:href="icons/shared.png" width="70px" height="23px" preserveAspectRatio="xMinYMin meet" x="354.5" y="-381"/>
<a xlink:href="../../SDMLib/src/org/sdmlib/replication/TaskFlowBoard.java" xlink:title="&lt;TABLE&gt;">
<polygon fill="none" stroke="black" points="326,-340 326,-356 453,-356 453,-340 326,-340"/>
<text text-anchor="start" x="329.5" y="-346" font-family="Arial" font-size="10.00"> </text>
<text text-anchor="start" x="333.5" y="-346" font-family="Arial" font-size="10.00">taskboard :TaskFlowBoard</text>
</a>
</g>
<!-- l1 -->
<g id="node4" class="node"><title>l1</title>
<a xlink:href="../../SDMLib/src/org/sdmlib/replication/Lane.java" xlink:title="&lt;TABLE&gt;">
<polygon fill="none" stroke="black" points="343,-224 343,-241 436,-241 436,-224 343,-224"/>
<text text-anchor="start" x="370" y="-230.5" font-family="Arial" font-size="10.00"> </text>
<text text-anchor="start" x="374" y="-230.5" font-family="Arial" font-size="10.00">l1 :Lane</text>
</a>
<polygon fill="none" stroke="black" points="343,-204 343,-224 436,-224 436,-204 343,-204"/>
<text text-anchor="start" x="348" y="-212" font-family="Arial" font-size="10.00">name = &quot;AbuLane&quot;</text>
</g>
<!-- taskboard&#45;&#45;l1 -->
<g id="edge2" class="edge"><title>taskboard&#45;&#45;l1</title>
<path fill="none" stroke="black" d="M389,-336.19C389,-310.436 389,-270.54 389,-245.913"/>
<text text-anchor="middle" x="393.226" y="-252.476" font-family="Arial" font-size="10.00">lanes</text>
<text text-anchor="middle" x="384.774" y="-324.627" font-family="Arial" font-size="10.00">board</text>
</g>
<!-- abuLaneListener -->
<g id="node5" class="node"><title>abuLaneListener</title>
<image xlink:href="icons/person1.png" width="32px" height="43px" preserveAspectRatio="xMinYMin meet" x="558.5" y="-401"/>
<a xlink:href="../examples/org/sdmlib/examples/replication/maumau/PlayerLaneManager.java" xlink:title="&lt;TABLE&gt;">
<polygon fill="none" stroke="black" points="487,-340 487,-356 662,-356 662,-340 487,-340"/>
<text text-anchor="start" x="490.5" y="-346" font-family="Arial" font-size="10.00"> </text>
<text text-anchor="start" x="494.5" y="-346" font-family="Arial" font-size="10.00">abuLaneListener :PlayerLaneManager</text>
</a>
<polygon fill="none" stroke="black" points="487,-320 487,-340 662,-340 662,-320 487,-320"/>
<text text-anchor="start" x="492" y="-328" font-family="Arial" font-size="10.00">source = &quot;&quot;</text>
</g>
<!-- maumau -->
<g id="node6" class="node"><title>maumau</title>
<image xlink:href="icons/shared.png" width="70px" height="23px" preserveAspectRatio="xMinYMin meet" x="724.5" y="-273"/>
<a xlink:href="../examples/org/sdmlib/examples/replication/maumau/MauMau.java" xlink:title="&lt;TABLE&gt;">
<polygon fill="none" stroke="black" points="713,-232 713,-248 806,-248 806,-232 713,-232"/>
<text text-anchor="start" x="716.5" y="-238" font-family="Arial" font-size="10.00"> </text>
<text text-anchor="start" x="720.5" y="-238" font-family="Arial" font-size="10.00">maumau :MauMau</text>
</a>
<polygon fill="none" stroke="black" points="713,-170 713,-232 806,-232 806,-170 713,-170"/>
<text text-anchor="start" x="718" y="-220" font-family="Arial" font-size="10.00">deck = &quot;&quot;</text>
<text text-anchor="start" x="718" y="-206" font-family="Arial" font-size="10.00">stack = &quot;&quot;</text>
<text text-anchor="start" x="718" y="-192" font-family="Arial" font-size="10.00">currentMove = &quot;&quot;</text>
<text text-anchor="start" x="718" y="-178" font-family="Arial" font-size="10.00">duty = &quot;&quot;</text>
</g>
<!-- abu -->
<g id="node7" class="node"><title>abu</title>
<a xlink:href="../examples/org/sdmlib/examples/replication/maumau/Player.java" xlink:title="&lt;TABLE&gt;">
<polygon fill="none" stroke="black" points="759,-108 759,-125 842,-125 842,-108 759,-108"/>
<text text-anchor="start" x="773.5" y="-114.5" font-family="Arial" font-size="10.00"> </text>
<text text-anchor="start" x="777.5" y="-114.5" font-family="Arial" font-size="10.00">abu :Player</text>
</a>
<polygon fill="none" stroke="black" points="759,-4 759,-108 842,-108 842,-4 759,-4"/>
<text text-anchor="start" x="764" y="-96" font-family="Arial" font-size="10.00">name = &quot;Abu&quot;</text>
<text text-anchor="start" x="764" y="-82" font-family="Arial" font-size="10.00">deckOwner = &quot;&quot;</text>
<text text-anchor="start" x="764" y="-68" font-family="Arial" font-size="10.00">stackOwner = &quot;&quot;</text>
<text text-anchor="start" x="764" y="-54" font-family="Arial" font-size="10.00">next = &quot;&quot;</text>
<text text-anchor="start" x="764" y="-40" font-family="Arial" font-size="10.00">prev = &quot;&quot;</text>
<text text-anchor="start" x="764" y="-26" font-family="Arial" font-size="10.00">assignment = &quot;&quot;</text>
<text text-anchor="start" x="764" y="-12" font-family="Arial" font-size="10.00">duty = &quot;&quot;</text>
</g>
<!-- maumau&#45;&#45;abu -->
<g id="edge4" class="edge"><title>maumau&#45;&#45;abu</title>
<path fill="none" stroke="black" d="M773.686,-166.121C776.788,-154.318 780.084,-141.779 783.255,-129.712"/>
<text text-anchor="middle" x="785.039" y="-137.052" font-family="Arial" font-size="10.00">players</text>
<text text-anchor="middle" x="771.902" y="-153.781" font-family="Arial" font-size="10.00">game</text>
</g>
<!-- abuMauMauController -->
<g id="node8" class="node"><title>abuMauMauController</title>
<image xlink:href="icons/person1.png" width="32px" height="43px" preserveAspectRatio="xMinYMin meet" x="785" y="-391"/>
<a xlink:href="../examples/org/sdmlib/examples/replication/maumau/MultiMauMauControler.java" xlink:title="&lt;TABLE&gt;">
<polygon fill="none" stroke="black" points="696,-330 696,-346 906,-346 906,-330 696,-330"/>
<text text-anchor="start" x="699.5" y="-336" font-family="Arial" font-size="10.00"> </text>
<text text-anchor="start" x="703.5" y="-336" font-family="Arial" font-size="10.00">abuMauMauController :MultiMauMauControler</text>
</a>
</g>
<!-- abuMauMauController&#45;&#45;maumau -->
<g id="edge6" class="edge"><title>abuMauMauController&#45;&#45;maumau</title>
<path fill="none" stroke="black" d="M790.402,-326.429C786.052,-312.24 780.905,-295.453 776.051,-279.618"/>
<text text-anchor="middle" x="782.748" y="-284.545" font-family="Arial" font-size="10.00">mauMau</text>
</g>
<!-- abuMauMauController&#45;&#45;abu -->
<g id="edge8" class="edge"><title>abuMauMauController&#45;&#45;abu</title>
<path fill="none" stroke="black" d="M812.062,-326.293C816.042,-312.1 820.034,-295.419 822,-280 828.409,-229.74 827.475,-216.37 822,-166 820.713,-154.16 818.593,-141.667 816.163,-129.675"/>
<text text-anchor="middle" x="822.078" y="-135.239" font-family="Arial" font-size="10.00">activePlayer</text>
</g>
</g>
</svg>
