<?xml version="1.0" encoding="UTF-8" standalone="no"?>
<!DOCTYPE svg PUBLIC "-//W3C//DTD SVG 1.1//EN"
 "http://www.w3.org/Graphics/SVG/1.1/DTD/svg11.dtd">
<!-- Generated by graphviz version 2.28.0 (20110507.0327)
 -->
<!-- Title: ObjectDiagram Pages: 1 -->
<svg width="1087pt" height="384pt"
 viewBox="0.00 0.00 1087.00 384.00" xmlns="http://www.w3.org/2000/svg" xmlns:xlink="http://www.w3.org/1999/xlink">
<g id="graph1" class="graph" transform="scale(1 1) rotate(0) translate(4 380)">
<title>ObjectDiagram</title>
<polygon fill="white" stroke="white" points="-4,5 -4,-380 1084,-380 1084,5 -4,5"/>
<!-- abuNode -->
<g id="node1" class="node"><title>abuNode</title>
<image xlink:href="icons/node.png" width="83px" height="61px" preserveAspectRatio="xMinYMin meet" x="10" y="-357"/>
<a xlink:href="../../SDMLib/src/org/sdmlib/replication/Node.java" xlink:title="&lt;TABLE&gt;">
<polygon fill="none" stroke="black" points="8,-278 8,-294 95,-294 95,-278 8,-278"/>
<text text-anchor="start" x="16" y="-284" font-family="Arial" font-size="10.00"> </text>
<text text-anchor="start" x="20" y="-284" font-family="Arial" font-size="10.00">abuNode :Node</text>
</a>
</g>
<!-- s6 -->
<g id="node2" class="node"><title>s6</title>
<image xlink:href="icons/worker.png" width="80px" height="61px" preserveAspectRatio="xMinYMin meet" x="167" y="-357"/>
<a xlink:href="../examples/org/sdmlib/examples/replication/maumau/ShowStartGameButtonAction.java" xlink:title="&lt;TABLE&gt;">
<polygon fill="none" stroke="black" points="129,-278 129,-294 285,-294 285,-278 129,-278"/>
<text text-anchor="start" x="132.5" y="-284" font-family="Arial" font-size="10.00"> </text>
<text text-anchor="start" x="136.5" y="-284" font-family="Arial" font-size="10.00">s6 :ShowStartGameButtonAction</text>
</a>
</g>
<!-- taskboard -->
<g id="node3" class="node"><title>taskboard</title>
<image xlink:href="icons/shared.png" width="70px" height="23px" preserveAspectRatio="xMinYMin meet" x="348.5" y="-338"/>
<a xlink:href="../../SDMLib/src/org/sdmlib/replication/TaskFlowBoard.java" xlink:title="&lt;TABLE&gt;">
<polygon fill="none" stroke="black" points="320,-297 320,-313 447,-313 447,-297 320,-297"/>
<text text-anchor="start" x="323.5" y="-303" font-family="Arial" font-size="10.00"> </text>
<text text-anchor="start" x="327.5" y="-303" font-family="Arial" font-size="10.00">taskboard :TaskFlowBoard</text>
</a>
</g>
<!-- l2 -->
<g id="node4" class="node"><title>l2</title>
<a xlink:href="../../SDMLib/src/org/sdmlib/replication/Lane.java" xlink:title="&lt;TABLE&gt;">
<polygon fill="none" stroke="black" points="222,-162 222,-179 303,-179 303,-162 222,-162"/>
<text text-anchor="start" x="243" y="-168.5" font-family="Arial" font-size="10.00"> </text>
<text text-anchor="start" x="247" y="-168.5" font-family="Arial" font-size="10.00">l2 :Lane</text>
</a>
<polygon fill="none" stroke="black" points="222,-142 222,-162 303,-162 303,-142 222,-142"/>
<text text-anchor="start" x="227" y="-150" font-family="Arial" font-size="10.00">name = &quot;server&quot;</text>
</g>
<!-- taskboard&#45;&#45;l2 -->
<g id="edge2" class="edge"><title>taskboard&#45;&#45;l2</title>
<path fill="none" stroke="black" d="M363.827,-293.281C340.371,-263.04 301.038,-212.329 278.745,-183.589"/>
<text text-anchor="middle" x="287.639" y="-185.66" font-family="Arial" font-size="10.00">lanes</text>
<text text-anchor="middle" x="354.933" y="-286.21" font-family="Arial" font-size="10.00">board</text>
</g>
<!-- l1 -->
<g id="node5" class="node"><title>l1</title>
<a xlink:href="../../SDMLib/src/org/sdmlib/replication/Lane.java" xlink:title="&lt;TABLE&gt;">
<polygon fill="none" stroke="black" points="337,-162 337,-179 430,-179 430,-162 337,-162"/>
<text text-anchor="start" x="364" y="-168.5" font-family="Arial" font-size="10.00"> </text>
<text text-anchor="start" x="368" y="-168.5" font-family="Arial" font-size="10.00">l1 :Lane</text>
</a>
<polygon fill="none" stroke="black" points="337,-142 337,-162 430,-162 430,-142 337,-142"/>
<text text-anchor="start" x="342" y="-150" font-family="Arial" font-size="10.00">name = &quot;AbuLane&quot;</text>
</g>
<!-- taskboard&#45;&#45;l1 -->
<g id="edge4" class="edge"><title>taskboard&#45;&#45;l1</title>
<path fill="none" stroke="black" d="M383,-293.281C383,-263.04 383,-212.329 383,-183.589"/>
<text text-anchor="middle" x="387.226" y="-190.152" font-family="Arial" font-size="10.00">lanes</text>
<text text-anchor="middle" x="378.774" y="-281.718" font-family="Arial" font-size="10.00">board</text>
</g>
<!-- l4 -->
<g id="node7" class="node"><title>l4</title>
<a xlink:href="../../SDMLib/src/org/sdmlib/replication/Lane.java" xlink:title="&lt;TABLE&gt;">
<polygon fill="none" stroke="black" points="464,-162 464,-179 560,-179 560,-162 464,-162"/>
<text text-anchor="start" x="492.5" y="-168.5" font-family="Arial" font-size="10.00"> </text>
<text text-anchor="start" x="496.5" y="-168.5" font-family="Arial" font-size="10.00">l4 :Lane</text>
</a>
<polygon fill="none" stroke="black" points="464,-142 464,-162 560,-162 560,-142 464,-142"/>
<text text-anchor="start" x="469" y="-150" font-family="Arial" font-size="10.00">name = &quot;KarliLane&quot;</text>
</g>
<!-- taskboard&#45;&#45;l4 -->
<g id="edge6" class="edge"><title>taskboard&#45;&#45;l4</title>
<path fill="none" stroke="black" d="M403.44,-293.281C428.448,-263.04 470.381,-212.329 494.148,-183.589"/>
<text text-anchor="middle" x="491.629" y="-190.766" font-family="Arial" font-size="10.00">lanes</text>
<text text-anchor="middle" x="405.959" y="-281.104" font-family="Arial" font-size="10.00">board</text>
</g>
<!-- b5 -->
<g id="node6" class="node"><title>b5</title>
<a xlink:href="../../SDMLib/src/org/sdmlib/replication/BoardTask.java" xlink:title="&lt;TABLE&gt;">
<polygon fill="none" stroke="black" points="307,-38 307,-55 460,-55 460,-38 307,-38"/>
<text text-anchor="start" x="349.5" y="-44.5" font-family="Arial" font-size="10.00"> </text>
<text text-anchor="start" x="353.5" y="-44.5" font-family="Arial" font-size="10.00">b5 :BoardTask</text>
</a>
<polygon fill="none" stroke="black" points="307,-4 307,-38 460,-38 460,-4 307,-4"/>
<text text-anchor="start" x="312" y="-26" font-family="Arial" font-size="10.00">name = &quot;showStartGameButton&quot;</text>
<text text-anchor="start" x="312" y="-12" font-family="Arial" font-size="10.00">status = &quot;start&quot;</text>
</g>
<!-- l1&#45;&#45;b5 -->
<g id="edge8" class="edge"><title>l1&#45;&#45;b5</title>
<path fill="none" stroke="black" d="M383,-138.408C383,-116.891 383,-83.7134 383,-59.9275"/>
<text text-anchor="middle" x="387.226" y="-66.4906" font-family="Arial" font-size="10.00">tasks</text>
<text text-anchor="middle" x="378.774" y="-126.845" font-family="Arial" font-size="10.00">lane</text>
</g>
<!-- l7 -->
<g id="node8" class="node"><title>l7</title>
<a xlink:href="../../SDMLib/src/org/eclipse/swt/widgets/Label.java" xlink:title="&lt;TABLE&gt;">
<polygon fill="none" stroke="black" points="595,-162 595,-179 838,-179 838,-162 595,-162"/>
<text text-anchor="start" x="696" y="-168.5" font-family="Arial" font-size="10.00"> </text>
<text text-anchor="start" x="700" y="-168.5" font-family="Arial" font-size="10.00">l7 :Label</text>
</a>
<polygon fill="none" stroke="black" points="595,-142 595,-162 838,-162 838,-142 595,-142"/>
<text text-anchor="start" x="600" y="-150" font-family="Arial" font-size="10.00">text = &quot;When all players have shown up, Start Game&quot;</text>
</g>
<!-- s8 -->
<g id="node9" class="node"><title>s8</title>
<image xlink:href="icons/person1.png" width="32px" height="43px" preserveAspectRatio="xMinYMin meet" x="700" y="-348"/>
<a xlink:href="../examples/org/sdmlib/examples/replication/maumau/StartGameMouseAdapter.java" xlink:title="&lt;TABLE&gt;">
<polygon fill="none" stroke="black" points="647,-287 647,-303 785,-303 785,-287 647,-287"/>
<text text-anchor="start" x="650.5" y="-293" font-family="Arial" font-size="10.00"> </text>
<text text-anchor="start" x="654.5" y="-293" font-family="Arial" font-size="10.00">s8 :StartGameMouseAdapter</text>
</a>
</g>
<!-- s8&#45;&#45;l7 -->
<g id="edge10" class="edge"><title>s8&#45;&#45;l7</title>
<path fill="none" stroke="black" d="M716,-283.379C716,-252.859 716,-209.348 716,-183.558"/>
<text text-anchor="middle" x="720.226" y="-190.121" font-family="Arial" font-size="10.00">startGameLabel</text>
</g>
<!-- maumau -->
<g id="node10" class="node"><title>maumau</title>
<image xlink:href="icons/shared.png" width="70px" height="23px" preserveAspectRatio="xMinYMin meet" x="937.5" y="-369"/>
<a xlink:href="../examples/org/sdmlib/examples/replication/maumau/MauMau.java" xlink:title="&lt;TABLE&gt;">
<polygon fill="none" stroke="black" points="926,-328 926,-344 1019,-344 1019,-328 926,-328"/>
<text text-anchor="start" x="929.5" y="-334" font-family="Arial" font-size="10.00"> </text>
<text text-anchor="start" x="933.5" y="-334" font-family="Arial" font-size="10.00">maumau :MauMau</text>
</a>
<polygon fill="none" stroke="black" points="926,-266 926,-328 1019,-328 1019,-266 926,-266"/>
<text text-anchor="start" x="931" y="-316" font-family="Arial" font-size="10.00">deck = &quot;&quot;</text>
<text text-anchor="start" x="931" y="-302" font-family="Arial" font-size="10.00">stack = &quot;&quot;</text>
<text text-anchor="start" x="931" y="-288" font-family="Arial" font-size="10.00">currentMove = &quot;&quot;</text>
<text text-anchor="start" x="931" y="-274" font-family="Arial" font-size="10.00">duty = &quot;&quot;</text>
</g>
<!-- abu -->
<g id="node11" class="node"><title>abu</title>
<a xlink:href="../examples/org/sdmlib/examples/replication/maumau/Player.java" xlink:title="&lt;TABLE&gt;">
<polygon fill="none" stroke="black" points="872,-204 872,-221 955,-221 955,-204 872,-204"/>
<text text-anchor="start" x="886.5" y="-210.5" font-family="Arial" font-size="10.00"> </text>
<text text-anchor="start" x="890.5" y="-210.5" font-family="Arial" font-size="10.00">abu :Player</text>
</a>
<polygon fill="none" stroke="black" points="872,-100 872,-204 955,-204 955,-100 872,-100"/>
<text text-anchor="start" x="877" y="-192" font-family="Arial" font-size="10.00">name = &quot;Abu&quot;</text>
<text text-anchor="start" x="877" y="-178" font-family="Arial" font-size="10.00">deckOwner = &quot;&quot;</text>
<text text-anchor="start" x="877" y="-164" font-family="Arial" font-size="10.00">stackOwner = &quot;&quot;</text>
<text text-anchor="start" x="877" y="-150" font-family="Arial" font-size="10.00">next = &quot;&quot;</text>
<text text-anchor="start" x="877" y="-136" font-family="Arial" font-size="10.00">prev = &quot;&quot;</text>
<text text-anchor="start" x="877" y="-122" font-family="Arial" font-size="10.00">assignment = &quot;&quot;</text>
<text text-anchor="start" x="877" y="-108" font-family="Arial" font-size="10.00">duty = &quot;&quot;</text>
</g>
<!-- maumau&#45;&#45;abu -->
<g id="edge12" class="edge"><title>maumau&#45;&#45;abu</title>
<path fill="none" stroke="black" d="M950.866,-262.121C946.402,-250.318 941.66,-237.779 937.096,-225.712"/>
<text text-anchor="middle" x="944.255" y="-230.194" font-family="Arial" font-size="10.00">players</text>
<text text-anchor="middle" x="943.707" y="-252.639" font-family="Arial" font-size="10.00">game</text>
</g>
<!-- p3 -->
<g id="node12" class="node"><title>p3</title>
<a xlink:href="../examples/org/sdmlib/examples/replication/maumau/Player.java" xlink:title="&lt;TABLE&gt;">
<polygon fill="none" stroke="black" points="989,-204 989,-221 1072,-221 1072,-204 989,-204"/>
<text text-anchor="start" x="1006" y="-210.5" font-family="Arial" font-size="10.00"> </text>
<text text-anchor="start" x="1010" y="-210.5" font-family="Arial" font-size="10.00">p3 :Player</text>
</a>
<polygon fill="none" stroke="black" points="989,-100 989,-204 1072,-204 1072,-100 989,-100"/>
<text text-anchor="start" x="994" y="-192" font-family="Arial" font-size="10.00">name = &quot;Karli&quot;</text>
<text text-anchor="start" x="994" y="-178" font-family="Arial" font-size="10.00">deckOwner = &quot;&quot;</text>
<text text-anchor="start" x="994" y="-164" font-family="Arial" font-size="10.00">stackOwner = &quot;&quot;</text>
<text text-anchor="start" x="994" y="-150" font-family="Arial" font-size="10.00">next = &quot;&quot;</text>
<text text-anchor="start" x="994" y="-136" font-family="Arial" font-size="10.00">prev = &quot;&quot;</text>
<text text-anchor="start" x="994" y="-122" font-family="Arial" font-size="10.00">assignment = &quot;&quot;</text>
<text text-anchor="start" x="994" y="-108" font-family="Arial" font-size="10.00">duty = &quot;&quot;</text>
</g>
<!-- maumau&#45;&#45;p3 -->
<g id="edge14" class="edge"><title>maumau&#45;&#45;p3</title>
<path fill="none" stroke="black" d="M992.776,-262.121C997.164,-250.318 1001.83,-237.779 1006.31,-225.712"/>
<text text-anchor="middle" x="1007.12" y="-233.18" font-family="Arial" font-size="10.00">players</text>
<text text-anchor="middle" x="991.973" y="-249.653" font-family="Arial" font-size="10.00">game</text>
</g>
</g>
</svg>
