<?xml version="1.0" encoding="UTF-8" standalone="no"?>
<!DOCTYPE svg PUBLIC "-//W3C//DTD SVG 1.1//EN"
 "http://www.w3.org/Graphics/SVG/1.1/DTD/svg11.dtd">
<!-- Generated by graphviz version 2.28.0 (20110507.0327)
 -->
<!-- Title: ObjectDiagram Pages: 1 -->
<svg width="381pt" height="542pt"
 viewBox="0.00 0.00 381.00 542.00" xmlns="http://www.w3.org/2000/svg" xmlns:xlink="http://www.w3.org/1999/xlink">
<g id="graph1" class="graph" transform="scale(1 1) rotate(0) translate(4 538)">
<title>ObjectDiagram</title>
<polygon fill="white" stroke="white" points="-4,5 -4,-538 378,-538 378,5 -4,5"/>
<!-- abuNode -->
<g id="node1" class="node"><title>abuNode</title>
<image xlink:href="icons/node.png" width="83px" height="61px" preserveAspectRatio="xMinYMin meet" x="10" y="-527"/>
<a xlink:href="../../SDMLib/src/org/sdmlib/replication/Node.java" xlink:title="&lt;TABLE&gt;">
<polygon fill="none" stroke="black" points="8,-448 8,-464 95,-464 95,-448 8,-448"/>
<text text-anchor="start" x="18" y="-454" font-family="Times New Roman,serif" font-size="10.00"> </text>
<text text-anchor="start" x="21" y="-454" font-family="Times New Roman,serif" font-size="10.00">abuNode :Node</text>
</a>
</g>
<!-- c70 -->
<g id="node2" class="node"><title>c70</title>
<image xlink:href="icons/worker.png" width="76px" height="61px" preserveAspectRatio="xMinYMin meet" x="131" y="-527"/>
<a xlink:href="../examples/org/sdmlib/examples/replication/maumau/CardListener.java" xlink:title="&lt;TABLE&gt;">
<polygon fill="none" stroke="black" points="129,-448 129,-464 209,-464 209,-448 129,-448"/>
<text text-anchor="start" x="132.5" y="-454" font-family="Times New Roman,serif" font-size="10.00"> </text>
<text text-anchor="start" x="135.5" y="-454" font-family="Times New Roman,serif" font-size="10.00">c70 :CardListener</text>
</a>
</g>
<!-- h17 -->
<g id="node3" class="node"><title>h17</title>
<a xlink:href="../examples/org/sdmlib/examples/replication/maumau/Holder.java" xlink:title="&lt;TABLE&gt;">
<polygon fill="none" stroke="black" points="243,-480 243,-497 299,-497 299,-480 243,-480"/>
<text text-anchor="start" x="246.5" y="-486.5" font-family="Times New Roman,serif" font-size="10.00"> </text>
<text text-anchor="start" x="249.5" y="-486.5" font-family="Times New Roman,serif" font-size="10.00">h17 :Holder</text>
</a>
</g>
<!-- c34 -->
<g id="node4" class="node"><title>c34</title>
<a xlink:href="../examples/org/sdmlib/examples/replication/maumau/Card.java" xlink:title="&lt;TABLE&gt;">
<polygon fill="none" stroke="black" points="199,-386 199,-403 271,-403 271,-386 199,-386"/>
<text text-anchor="start" x="215" y="-392.5" font-family="Times New Roman,serif" font-size="10.00"> </text>
<text text-anchor="start" x="218" y="-392.5" font-family="Times New Roman,serif" font-size="10.00">c34 :Card</text>
</a>
<polygon fill="none" stroke="black" points="199,-352 199,-386 271,-386 271,-352 199,-352"/>
<text text-anchor="start" x="204" y="-374" font-family="Times New Roman,serif" font-size="10.00">suit = &quot;Hearts&quot;</text>
<text text-anchor="start" x="204" y="-360" font-family="Times New Roman,serif" font-size="10.00">value = &quot;7&quot;</text>
</g>
<!-- h17&#45;&#45;c34 -->
<g id="edge2" class="edge"><title>h17&#45;&#45;c34</title>
<path fill="none" stroke="black" d="M265.375,-470.969C259.798,-454.084 251.15,-427.899 244.506,-407.781"/>
<text text-anchor="middle" x="251.361" y="-412.562" font-family="Times New Roman,serif" font-size="10.00">cards</text>
<text text-anchor="middle" x="258.52" y="-461.188" font-family="Times New Roman,serif" font-size="10.00">holder</text>
</g>
<!-- maumau -->
<g id="node5" class="node"><title>maumau</title>
<image xlink:href="icons/shared.png" width="70px" height="23px" preserveAspectRatio="xMinYMin meet" x="236" y="-305"/>
<a xlink:href="../examples/org/sdmlib/examples/replication/maumau/MauMau.java" xlink:title="&lt;TABLE&gt;">
<polygon fill="none" stroke="black" points="228,-264 228,-280 314,-280 314,-264 228,-264"/>
<text text-anchor="start" x="231.5" y="-270" font-family="Times New Roman,serif" font-size="10.00"> </text>
<text text-anchor="start" x="234.5" y="-270" font-family="Times New Roman,serif" font-size="10.00">maumau :MauMau</text>
</a>
</g>
<!-- h17&#45;&#45;maumau -->
<g id="edge4" class="edge"><title>h17&#45;&#45;maumau</title>
<path fill="none" stroke="black" d="M275.696,-471C279.879,-454.917 285.685,-430.029 288,-408 290.787,-381.479 291.613,-374.421 288,-348 286.332,-335.8 282.869,-322.6 279.502,-311.609"/>
<text text-anchor="middle" x="286.16" y="-316.57" font-family="Times New Roman,serif" font-size="10.00">stackOwner</text>
<text text-anchor="middle" x="273.847" y="-458.672" font-family="Times New Roman,serif" font-size="10.00">stack</text>
</g>
<!-- c34&#45;&#45;maumau -->
<g id="edge6" class="edge"><title>c34&#45;&#45;maumau</title>
<path fill="none" stroke="black" d="M246.589,-348.028C251.275,-336.312 256.629,-322.928 261.126,-311.686"/>
<text text-anchor="middle" x="261.684" y="-319.17" font-family="Times New Roman,serif" font-size="10.00">game</text>
<text text-anchor="middle" x="246.031" y="-335.544" font-family="Times New Roman,serif" font-size="10.00">cards</text>
</g>
<!-- abu -->
<g id="node6" class="node"><title>abu</title>
<a xlink:href="../examples/org/sdmlib/examples/replication/maumau/Player.java" xlink:title="&lt;TABLE&gt;">
<polygon fill="none" stroke="black" points="202,-202 202,-219 271,-219 271,-202 202,-202"/>
<text text-anchor="start" x="212.5" y="-208.5" font-family="Times New Roman,serif" font-size="10.00"> </text>
<text text-anchor="start" x="215.5" y="-208.5" font-family="Times New Roman,serif" font-size="10.00">abu :Player</text>
</a>
<polygon fill="none" stroke="black" points="202,-182 202,-202 271,-202 271,-182 202,-182"/>
<text text-anchor="start" x="207" y="-190" font-family="Times New Roman,serif" font-size="10.00">name = &quot;Abu&quot;</text>
</g>
<!-- maumau&#45;&#45;abu -->
<g id="edge8" class="edge"><title>maumau&#45;&#45;abu</title>
<path fill="none" stroke="black" d="M260.499,-260.097C255.586,-248.446 249.791,-234.705 245.072,-223.513"/>
<text text-anchor="middle" x="252.487" y="-227.722" font-family="Times New Roman,serif" font-size="10.00">players</text>
<text text-anchor="middle" x="253.083" y="-250.888" font-family="Times New Roman,serif" font-size="10.00">game</text>
</g>
<!-- p9 -->
<g id="node7" class="node"><title>p9</title>
<a xlink:href="../examples/org/sdmlib/examples/replication/maumau/Player.java" xlink:title="&lt;TABLE&gt;">
<polygon fill="none" stroke="black" points="239,-120 239,-137 309,-137 309,-120 239,-120"/>
<text text-anchor="start" x="252.5" y="-126.5" font-family="Times New Roman,serif" font-size="10.00"> </text>
<text text-anchor="start" x="255.5" y="-126.5" font-family="Times New Roman,serif" font-size="10.00">p9 :Player</text>
</a>
<polygon fill="none" stroke="black" points="239,-100 239,-120 309,-120 309,-100 239,-100"/>
<text text-anchor="start" x="244" y="-108" font-family="Times New Roman,serif" font-size="10.00">name = &quot;Karli&quot;</text>
</g>
<!-- maumau&#45;&#45;p9 -->
<g id="edge10" class="edge"><title>maumau&#45;&#45;p9</title>
<path fill="none" stroke="black" d="M279.003,-260.355C282.173,-249.358 285.432,-236.162 287,-224 289.615,-203.723 289.249,-198.32 287,-178 285.649,-165.795 282.745,-152.404 280.024,-141.567"/>
<text text-anchor="middle" x="286.298" y="-146.854" font-family="Times New Roman,serif" font-size="10.00">players_currentMove</text>
<text text-anchor="middle" x="277.406" y="-247.984" font-family="Times New Roman,serif" font-size="10.00">game_assignment</text>
</g>
<!-- p11 -->
<g id="node8" class="node"><title>p11</title>
<a xlink:href="../examples/org/sdmlib/examples/replication/maumau/Player.java" xlink:title="&lt;TABLE&gt;">
<polygon fill="none" stroke="black" points="164,-31 164,-48 242,-48 242,-31 164,-31"/>
<text text-anchor="start" x="179.5" y="-37.5" font-family="Times New Roman,serif" font-size="10.00"> </text>
<text text-anchor="start" x="182.5" y="-37.5" font-family="Times New Roman,serif" font-size="10.00">p11 :Player</text>
</a>
<polygon fill="none" stroke="black" points="164,-11 164,-31 242,-31 242,-11 164,-11"/>
<text text-anchor="start" x="169" y="-19" font-family="Times New Roman,serif" font-size="10.00">name = &quot;Sabine&quot;</text>
</g>
<!-- maumau&#45;&#45;p11 -->
<g id="edge12" class="edge"><title>maumau&#45;&#45;p11</title>
<path fill="none" stroke="black" d="M219.856,-260.393C206.012,-251.047 192.731,-238.961 185,-224 155.957,-167.793 179.279,-90.0541 193.717,-52.7208"/>
<text text-anchor="middle" x="194.559" y="-60.1853" font-family="Times New Roman,serif" font-size="10.00">players</text>
<text text-anchor="middle" x="210.006" y="-256.167" font-family="Times New Roman,serif" font-size="10.00">game</text>
</g>
<!-- draw2 -->
<g id="node9" class="node"><title>draw2</title>
<a xlink:href="../examples/org/sdmlib/examples/replication/maumau/Duty.java" xlink:title="&lt;TABLE&gt;">
<polygon fill="none" stroke="black" points="293,-38 293,-55 366,-55 366,-38 293,-38"/>
<text text-anchor="start" x="303.5" y="-44.5" font-family="Times New Roman,serif" font-size="10.00"> </text>
<text text-anchor="start" x="306.5" y="-44.5" font-family="Times New Roman,serif" font-size="10.00">draw2 :Duty</text>
</a>
<polygon fill="none" stroke="black" points="293,-4 293,-38 366,-38 366,-4 293,-4"/>
<text text-anchor="start" x="298" y="-26" font-family="Times New Roman,serif" font-size="10.00">kind = &quot;Draw2&quot;</text>
<text text-anchor="start" x="298" y="-12" font-family="Times New Roman,serif" font-size="10.00">number = 2</text>
</g>
<!-- maumau&#45;&#45;draw2 -->
<g id="edge14" class="edge"><title>maumau&#45;&#45;draw2</title>
<path fill="none" stroke="black" d="M284.185,-260.479C289.791,-249.504 296.14,-236.292 301,-224 315.008,-188.568 319.874,-179.605 326,-142 330.494,-114.411 330.86,-82.4643 330.332,-59.9477"/>
<text text-anchor="middle" x="334.723" y="-66.4321" font-family="Times New Roman,serif" font-size="10.00">duty</text>
<text text-anchor="middle" x="284.514" y="-247.984" font-family="Times New Roman,serif" font-size="10.00">game</text>
</g>
<!-- abu&#45;&#45;p9 -->
<g id="edge16" class="edge"><title>abu&#45;&#45;p9</title>
<path fill="none" stroke="black" d="M246.384,-178.14C251.789,-166.759 258.376,-152.893 263.76,-141.557"/>
<text text-anchor="middle" x="263.689" y="-149.057" font-family="Times New Roman,serif" font-size="10.00">next</text>
<text text-anchor="middle" x="246.455" y="-165.64" font-family="Times New Roman,serif" font-size="10.00">prev</text>
</g>
<!-- abu&#45;&#45;p11 -->
<g id="edge18" class="edge"><title>abu&#45;&#45;p11</title>
<path fill="none" stroke="black" d="M230.4,-178.319C227.687,-167.455 224.487,-154.073 222,-142 215.648,-111.17 209.771,-75.2155 206.283,-52.7759"/>
<text text-anchor="middle" x="211.862" y="-58.5751" font-family="Times New Roman,serif" font-size="10.00">prev</text>
<text text-anchor="middle" x="224.114" y="-168.042" font-family="Times New Roman,serif" font-size="10.00">next</text>
</g>
<!-- p9&#45;&#45;p11 -->
<g id="edge20" class="edge"><title>p9&#45;&#45;p11</title>
<path fill="none" stroke="black" d="M256.449,-96.4944C245.526,-83.1096 231.526,-65.9547 220.595,-52.5597"/>
<text text-anchor="middle" x="229.599" y="-54.4093" font-family="Times New Roman,serif" font-size="10.00">next</text>
<text text-anchor="middle" x="247.445" y="-89.6448" font-family="Times New Roman,serif" font-size="10.00">prev</text>
</g>
<!-- p9&#45;&#45;draw2 -->
<g id="edge22" class="edge"><title>p9&#45;&#45;draw2</title>
<path fill="none" stroke="black" d="M287.596,-96.4944C294.594,-85.4243 303.223,-71.7752 310.788,-59.8074"/>
<text text-anchor="middle" x="309.518" y="-67.2263" font-family="Times New Roman,serif" font-size="10.00">duty</text>
<text text-anchor="middle" x="288.866" y="-84.0754" font-family="Times New Roman,serif" font-size="10.00">player</text>
</g>
</g>
</svg>
