<?xml version="1.0" encoding="UTF-8" standalone="no"?>
<!DOCTYPE svg PUBLIC "-//W3C//DTD SVG 1.1//EN"
 "http://www.w3.org/Graphics/SVG/1.1/DTD/svg11.dtd">
<!-- Generated by graphviz version 2.28.0 (20110507.0327)
 -->
<!-- Title: ObjectDiagram Pages: 1 -->
<svg width="1261pt" height="268pt"
 viewBox="0.00 0.00 1261.00 268.00" xmlns="http://www.w3.org/2000/svg" xmlns:xlink="http://www.w3.org/1999/xlink">
<g id="graph1" class="graph" transform="scale(1 1) rotate(0) translate(4 264)">
<title>ObjectDiagram</title>
<polygon fill="white" stroke="white" points="-4,5 -4,-264 1258,-264 1258,5 -4,5"/>
<!-- abuInit -->
<g id="node1" class="node"><title>abuInit</title>
<image xlink:href="icons/worker.png" width="80px" height="61px" preserveAspectRatio="xMinYMin meet" x="47.5" y="-253"/>
<a xlink:href="../examples/org/sdmlib/examples/replication/maumau/MultiMauMauClientInitTask.java" xlink:title="&lt;TABLE&gt;">
<polygon fill="none" stroke="black" points="8,-174 8,-190 167,-190 167,-174 8,-174"/>
<text text-anchor="start" x="11.5" y="-180" font-family="Times New Roman,serif" font-size="10.00"> </text>
<text text-anchor="start" x="14.5" y="-180" font-family="Times New Roman,serif" font-size="10.00">abuInit :MultiMauMauClientInitTask</text>
</a>
</g>
<!-- taskboard -->
<g id="node2" class="node"><title>taskboard</title>
<image xlink:href="icons/shared.png" width="70px" height="23px" preserveAspectRatio="xMinYMin meet" x="225" y="-234"/>
<a xlink:href="../../SDMLib/src/org/sdmlib/replication/TaskFlowBoard.java" xlink:title="&lt;TABLE&gt;">
<polygon fill="none" stroke="black" points="201,-193 201,-209 319,-209 319,-193 201,-193"/>
<text text-anchor="start" x="204.5" y="-199" font-family="Times New Roman,serif" font-size="10.00"> </text>
<text text-anchor="start" x="207.5" y="-199" font-family="Times New Roman,serif" font-size="10.00">taskboard :TaskFlowBoard</text>
</a>
</g>
<!-- l1 -->
<g id="node3" class="node"><title>l1</title>
<a xlink:href="../../SDMLib/src/org/sdmlib/replication/Lane.java" xlink:title="&lt;TABLE&gt;">
<polygon fill="none" stroke="black" points="216,-109 216,-126 305,-126 305,-109 216,-109"/>
<text text-anchor="start" x="243.5" y="-115.5" font-family="Times New Roman,serif" font-size="10.00"> </text>
<text text-anchor="start" x="246.5" y="-115.5" font-family="Times New Roman,serif" font-size="10.00">l1 :Lane</text>
</a>
<polygon fill="none" stroke="black" points="216,-89 216,-109 305,-109 305,-89 216,-89"/>
<text text-anchor="start" x="221" y="-97" font-family="Times New Roman,serif" font-size="10.00">name = &quot;AbuLane&quot;</text>
</g>
<!-- taskboard&#45;&#45;l1 -->
<g id="edge2" class="edge"><title>taskboard&#45;&#45;l1</title>
<path fill="none" stroke="black" d="M260,-189.382C260,-171.561 260,-147.702 260,-130.616"/>
<text text-anchor="middle" x="264.226" y="-137.179" font-family="Times New Roman,serif" font-size="10.00">lanes</text>
<text text-anchor="middle" x="255.774" y="-177.819" font-family="Times New Roman,serif" font-size="10.00">board</text>
</g>
<!-- abuLaneListener -->
<g id="node4" class="node"><title>abuLaneListener</title>
<image xlink:href="icons/person1.png" width="32px" height="43px" preserveAspectRatio="xMinYMin meet" x="606" y="-244"/>
<a xlink:href="../examples/org/sdmlib/examples/replication/maumau/PlayerLaneListener.java" xlink:title="&lt;TABLE&gt;">
<polygon fill="none" stroke="black" points="543,-183 543,-199 701,-199 701,-183 543,-183"/>
<text text-anchor="start" x="546.5" y="-189" font-family="Times New Roman,serif" font-size="10.00"> </text>
<text text-anchor="start" x="549.5" y="-189" font-family="Times New Roman,serif" font-size="10.00">abuLaneListener :PlayerLaneListener</text>
</a>
</g>
<!-- abuLaneListener&#45;&#45;l1 -->
<g id="edge12" class="edge"><title>abuLaneListener&#45;&#45;l1</title>
<path fill="none" stroke="black" d="M534.838,-193.995C474.263,-179.326 391.983,-157.868 321,-134 317.854,-132.942 314.638,-131.803 311.408,-130.615"/>
<text text-anchor="middle" x="321.372" y="-127.266" font-family="Times New Roman,serif" font-size="10.00">sources</text>
</g>
<!-- abuStartGameHandler -->
<g id="node5" class="node"><title>abuStartGameHandler</title>
<a xlink:href="../examples/org/sdmlib/examples/replication/maumau/ShowStartGameButton.java" xlink:title="&lt;TABLE&gt;">
<polygon fill="none" stroke="black" points="339,-99 339,-116 532,-116 532,-99 339,-99"/>
<text text-anchor="start" x="342.5" y="-105.5" font-family="Times New Roman,serif" font-size="10.00"> </text>
<text text-anchor="start" x="345.5" y="-105.5" font-family="Times New Roman,serif" font-size="10.00">abuStartGameHandler :ShowStartGameButton</text>
</a>
</g>
<!-- abuLaneListener&#45;&#45;abuStartGameHandler -->
<g id="edge4" class="edge"><title>abuLaneListener&#45;&#45;abuStartGameHandler</title>
<path fill="none" stroke="black" d="M560.51,-179.474C528.575,-161.542 490.973,-140.429 465.31,-126.019"/>
<text text-anchor="middle" x="475.281" y="-124.271" font-family="Times New Roman,serif" font-size="10.00">handlerList</text>
</g>
<!-- c2 -->
<g id="node6" class="node"><title>c2</title>
<a xlink:href="../examples/org/sdmlib/examples/replication/maumau/ClickStartGameButton.java" xlink:title="&lt;TABLE&gt;">
<polygon fill="none" stroke="black" points="566,-99 566,-116 678,-116 678,-99 566,-99"/>
<text text-anchor="start" x="569.5" y="-105.5" font-family="Times New Roman,serif" font-size="10.00"> </text>
<text text-anchor="start" x="572.5" y="-105.5" font-family="Times New Roman,serif" font-size="10.00">c2 :ClickStartGameButton</text>
</a>
</g>
<!-- abuLaneListener&#45;&#45;c2 -->
<g id="edge6" class="edge"><title>abuLaneListener&#45;&#45;c2</title>
<path fill="none" stroke="black" d="M622,-179.328C622,-161.527 622,-140.623 622,-126.259"/>
<text text-anchor="middle" x="626.226" y="-132.822" font-family="Times New Roman,serif" font-size="10.00">handlerList</text>
</g>
<!-- c3 -->
<g id="node7" class="node"><title>c3</title>
<a xlink:href="../examples/org/sdmlib/examples/replication/maumau/CardsAreDeltScreenDumpHandler.java" xlink:title="&lt;TABLE&gt;">
<polygon fill="none" stroke="black" points="713,-99 713,-116 874,-116 874,-99 713,-99"/>
<text text-anchor="start" x="716.5" y="-105.5" font-family="Times New Roman,serif" font-size="10.00"> </text>
<text text-anchor="start" x="719.5" y="-105.5" font-family="Times New Roman,serif" font-size="10.00">c3 :CardsAreDeltScreenDumpHandler</text>
</a>
</g>
<!-- abuLaneListener&#45;&#45;c3 -->
<g id="edge8" class="edge"><title>abuLaneListener&#45;&#45;c3</title>
<path fill="none" stroke="black" d="M678.466,-179.328C707.456,-161.527 741.499,-140.623 764.893,-126.259"/>
<text text-anchor="middle" x="759.381" y="-132.102" font-family="Times New Roman,serif" font-size="10.00">handlerList</text>
</g>
<!-- k4 -->
<g id="node8" class="node"><title>k4</title>
<a xlink:href="../examples/org/sdmlib/examples/replication/maumau/KarliDrawCardsHandler.java" xlink:title="&lt;TABLE&gt;">
<polygon fill="none" stroke="black" points="908,-99 908,-116 1027,-116 1027,-99 908,-99"/>
<text text-anchor="start" x="911.5" y="-105.5" font-family="Times New Roman,serif" font-size="10.00"> </text>
<text text-anchor="start" x="914.5" y="-105.5" font-family="Times New Roman,serif" font-size="10.00">k4 :KarliDrawCardsHandler</text>
</a>
</g>
<!-- abuLaneListener&#45;&#45;k4 -->
<g id="edge10" class="edge"><title>abuLaneListener&#45;&#45;k4</title>
<path fill="none" stroke="black" d="M709.061,-188.583C761.565,-173.112 829.734,-152.776 890,-134 898.051,-131.492 906.558,-128.786 914.865,-126.113"/>
<text text-anchor="middle" x="907.53" y="-130.409" font-family="Times New Roman,serif" font-size="10.00">handlerList</text>
</g>
<!-- maumau -->
<g id="node9" class="node"><title>maumau</title>
<image xlink:href="icons/shared.png" width="70px" height="23px" preserveAspectRatio="xMinYMin meet" x="1069" y="-127"/>
<a xlink:href="../examples/org/sdmlib/examples/replication/maumau/MauMau.java" xlink:title="&lt;TABLE&gt;">
<polygon fill="none" stroke="black" points="1061,-86 1061,-102 1147,-102 1147,-86 1061,-86"/>
<text text-anchor="start" x="1064.5" y="-92" font-family="Times New Roman,serif" font-size="10.00"> </text>
<text text-anchor="start" x="1067.5" y="-92" font-family="Times New Roman,serif" font-size="10.00">maumau :MauMau</text>
</a>
</g>
<!-- abu -->
<g id="node10" class="node"><title>abu</title>
<a xlink:href="../examples/org/sdmlib/examples/replication/maumau/Player.java" xlink:title="&lt;TABLE&gt;">
<polygon fill="none" stroke="black" points="1109,-24 1109,-41 1178,-41 1178,-24 1109,-24"/>
<text text-anchor="start" x="1119.5" y="-30.5" font-family="Times New Roman,serif" font-size="10.00"> </text>
<text text-anchor="start" x="1122.5" y="-30.5" font-family="Times New Roman,serif" font-size="10.00">abu :Player</text>
</a>
<polygon fill="none" stroke="black" points="1109,-4 1109,-24 1178,-24 1178,-4 1109,-4"/>
<text text-anchor="start" x="1114" y="-12" font-family="Times New Roman,serif" font-size="10.00">name = &quot;Abu&quot;</text>
</g>
<!-- maumau&#45;&#45;abu -->
<g id="edge14" class="edge"><title>maumau&#45;&#45;abu</title>
<path fill="none" stroke="black" d="M1115.7,-82.0973C1121.18,-70.4462 1127.63,-56.7055 1132.89,-45.5129"/>
<text text-anchor="middle" x="1132.86" y="-53.0128" font-family="Times New Roman,serif" font-size="10.00">players</text>
<text text-anchor="middle" x="1115.73" y="-69.5973" font-family="Times New Roman,serif" font-size="10.00">game</text>
</g>
<!-- abuMauMauController -->
<g id="node11" class="node"><title>abuMauMauController</title>
<image xlink:href="icons/person1.png" width="32px" height="43px" preserveAspectRatio="xMinYMin meet" x="1127" y="-244"/>
<a xlink:href="../examples/org/sdmlib/examples/replication/maumau/MultiMauMauControler.java" xlink:title="&lt;TABLE&gt;">
<polygon fill="none" stroke="black" points="1041,-183 1041,-199 1245,-199 1245,-183 1041,-183"/>
<text text-anchor="start" x="1044.5" y="-189" font-family="Times New Roman,serif" font-size="10.00"> </text>
<text text-anchor="start" x="1047.5" y="-189" font-family="Times New Roman,serif" font-size="10.00">abuMauMauController :MultiMauMauControler</text>
</a>
</g>
<!-- abuMauMauController&#45;&#45;maumau -->
<g id="edge16" class="edge"><title>abuMauMauController&#45;&#45;maumau</title>
<path fill="none" stroke="black" d="M1130.12,-179.328C1124.58,-164.394 1118.22,-147.277 1113.16,-133.669"/>
<text text-anchor="middle" x="1120.28" y="-138.193" font-family="Times New Roman,serif" font-size="10.00">mauMau</text>
</g>
<!-- abuMauMauController&#45;&#45;abu -->
<g id="edge18" class="edge"><title>abuMauMauController&#45;&#45;abu</title>
<path fill="none" stroke="black" d="M1154.78,-179.487C1162.36,-152.825 1169.79,-115.026 1164,-82 1161.82,-69.5534 1157.18,-56.2581 1152.82,-45.541"/>
<text text-anchor="middle" x="1160.11" y="-49.8906" font-family="Times New Roman,serif" font-size="10.00">activePlayer</text>
</g>
</g>
</svg>
