<?xml version="1.0" encoding="UTF-8" standalone="no"?>
<!DOCTYPE svg PUBLIC "-//W3C//DTD SVG 1.1//EN"
 "http://www.w3.org/Graphics/SVG/1.1/DTD/svg11.dtd">
<!-- Generated by graphviz version 2.28.0 (20110507.0327)
 -->
<!-- Title: ObjectDiagram Pages: 1 -->
<svg width="822pt" height="276pt"
 viewBox="0.00 0.00 822.00 276.00" xmlns="http://www.w3.org/2000/svg" xmlns:xlink="http://www.w3.org/1999/xlink">
<g id="graph1" class="graph" transform="scale(1 1) rotate(0) translate(4 272)">
<title>ObjectDiagram</title>
<polygon fill="white" stroke="white" points="-4,5 -4,-272 819,-272 819,5 -4,5"/>
<!-- s7 -->
<g id="node1" class="node"><title>s7</title>
<image xlink:href="icons/worker.png" width="80px" height="61px" preserveAspectRatio="xMinYMin meet" x="39.5" y="-261"/>
<a xlink:href="../examples/org/sdmlib/examples/replication/maumau/ShowStartGameButtonAction.java" xlink:title="&lt;TABLE&gt;">
<polygon fill="none" stroke="black" points="8,-182 8,-198 151,-198 151,-182 8,-182"/>
<text text-anchor="start" x="11.5" y="-188" font-family="Times New Roman,serif" font-size="10.00"> </text>
<text text-anchor="start" x="14.5" y="-188" font-family="Times New Roman,serif" font-size="10.00">s7 :ShowStartGameButtonAction</text>
</a>
</g>
<!-- taskboard -->
<g id="node2" class="node"><title>taskboard</title>
<image xlink:href="icons/shared.png" width="70px" height="23px" preserveAspectRatio="xMinYMin meet" x="209" y="-242"/>
<a xlink:href="../../SDMLib/src/org/sdmlib/replication/TaskFlowBoard.java" xlink:title="&lt;TABLE&gt;">
<polygon fill="none" stroke="black" points="185,-201 185,-217 303,-217 303,-201 185,-201"/>
<text text-anchor="start" x="188.5" y="-207" font-family="Times New Roman,serif" font-size="10.00"> </text>
<text text-anchor="start" x="191.5" y="-207" font-family="Times New Roman,serif" font-size="10.00">taskboard :TaskFlowBoard</text>
</a>
</g>
<!-- l2 -->
<g id="node3" class="node"><title>l2</title>
<a xlink:href="../../SDMLib/src/org/sdmlib/replication/Lane.java" xlink:title="&lt;TABLE&gt;">
<polygon fill="none" stroke="black" points="66,-120 66,-137 142,-137 142,-120 66,-120"/>
<text text-anchor="start" x="87" y="-126.5" font-family="Times New Roman,serif" font-size="10.00"> </text>
<text text-anchor="start" x="90" y="-126.5" font-family="Times New Roman,serif" font-size="10.00">l2 :Lane</text>
</a>
<polygon fill="none" stroke="black" points="66,-100 66,-120 142,-120 142,-100 66,-100"/>
<text text-anchor="start" x="71" y="-108" font-family="Times New Roman,serif" font-size="10.00">name = &quot;server&quot;</text>
</g>
<!-- taskboard&#45;&#45;l2 -->
<g id="edge2" class="edge"><title>taskboard&#45;&#45;l2</title>
<path fill="none" stroke="black" d="M210.11,-197.309C186.804,-180.328 156.143,-157.99 133.776,-141.694"/>
<text text-anchor="middle" x="143.59" y="-141.115" font-family="Times New Roman,serif" font-size="10.00">lanes</text>
<text text-anchor="middle" x="200.296" y="-192.888" font-family="Times New Roman,serif" font-size="10.00">board</text>
</g>
<!-- l3 -->
<g id="node4" class="node"><title>l3</title>
<a xlink:href="../../SDMLib/src/org/sdmlib/replication/Lane.java" xlink:title="&lt;TABLE&gt;">
<polygon fill="none" stroke="black" points="177,-120 177,-137 312,-137 312,-120 177,-120"/>
<text text-anchor="start" x="227.5" y="-126.5" font-family="Times New Roman,serif" font-size="10.00"> </text>
<text text-anchor="start" x="230.5" y="-126.5" font-family="Times New Roman,serif" font-size="10.00">l3 :Lane</text>
</a>
<polygon fill="none" stroke="black" points="177,-100 177,-120 312,-120 312,-100 177,-100"/>
<text text-anchor="start" x="182" y="-108" font-family="Times New Roman,serif" font-size="10.00">name = &quot;play7WorkFlowLane&quot;</text>
</g>
<!-- taskboard&#45;&#45;l3 -->
<g id="edge4" class="edge"><title>taskboard&#45;&#45;l3</title>
<path fill="none" stroke="black" d="M244,-197.309C244,-180.328 244,-157.99 244,-141.694"/>
<text text-anchor="middle" x="248.226" y="-148.257" font-family="Times New Roman,serif" font-size="10.00">lanes</text>
<text text-anchor="middle" x="239.774" y="-185.746" font-family="Times New Roman,serif" font-size="10.00">board</text>
</g>
<!-- l1 -->
<g id="node7" class="node"><title>l1</title>
<a xlink:href="../../SDMLib/src/org/sdmlib/replication/Lane.java" xlink:title="&lt;TABLE&gt;">
<polygon fill="none" stroke="black" points="349,-120 349,-137 438,-137 438,-120 349,-120"/>
<text text-anchor="start" x="376.5" y="-126.5" font-family="Times New Roman,serif" font-size="10.00"> </text>
<text text-anchor="start" x="379.5" y="-126.5" font-family="Times New Roman,serif" font-size="10.00">l1 :Lane</text>
</a>
<polygon fill="none" stroke="black" points="349,-100 349,-120 438,-120 438,-100 349,-100"/>
<text text-anchor="start" x="354" y="-108" font-family="Times New Roman,serif" font-size="10.00">name = &quot;AbuLane&quot;</text>
</g>
<!-- taskboard&#45;&#45;l1 -->
<g id="edge6" class="edge"><title>taskboard&#45;&#45;l1</title>
<path fill="none" stroke="black" d="M280.069,-197.309C304.873,-180.328 337.505,-157.99 361.31,-141.694"/>
<text text-anchor="middle" x="356.218" y="-147.801" font-family="Times New Roman,serif" font-size="10.00">lanes</text>
<text text-anchor="middle" x="285.16" y="-186.202" font-family="Times New Roman,serif" font-size="10.00">board</text>
</g>
<!-- b4 -->
<g id="node5" class="node"><title>b4</title>
<a xlink:href="../../SDMLib/src/org/sdmlib/replication/BoardTask.java" xlink:title="&lt;TABLE&gt;">
<polygon fill="none" stroke="black" points="21,-38 21,-55 162,-55 162,-38 21,-38"/>
<text text-anchor="start" x="61" y="-44.5" font-family="Times New Roman,serif" font-size="10.00"> </text>
<text text-anchor="start" x="64" y="-44.5" font-family="Times New Roman,serif" font-size="10.00">b4 :BoardTask</text>
</a>
<polygon fill="none" stroke="black" points="21,-4 21,-38 162,-38 162,-4 21,-4"/>
<text text-anchor="start" x="26" y="-26" font-family="Times New Roman,serif" font-size="10.00">name = &quot;showStartGameButton&quot;</text>
<text text-anchor="start" x="26" y="-12" font-family="Times New Roman,serif" font-size="10.00">status = &quot;start&quot;</text>
</g>
<!-- l3&#45;&#45;b4 -->
<g id="edge8" class="edge"><title>l3&#45;&#45;b4</title>
<path fill="none" stroke="black" d="M206.18,-96.4944C186.623,-85.3739 162.49,-71.6511 141.374,-59.6443"/>
<text text-anchor="middle" x="151.342" y="-57.9504" font-family="Times New Roman,serif" font-size="10.00">tasks</text>
<text text-anchor="middle" x="196.212" y="-93.1883" font-family="Times New Roman,serif" font-size="10.00">lane</text>
</g>
<!-- b5 -->
<g id="node6" class="node"><title>b5</title>
<a xlink:href="../../SDMLib/src/org/sdmlib/replication/BoardTask.java" xlink:title="&lt;TABLE&gt;">
<polygon fill="none" stroke="black" points="196,-38 196,-55 293,-55 293,-38 196,-38"/>
<text text-anchor="start" x="214" y="-44.5" font-family="Times New Roman,serif" font-size="10.00"> </text>
<text text-anchor="start" x="217" y="-44.5" font-family="Times New Roman,serif" font-size="10.00">b5 :BoardTask</text>
</a>
<polygon fill="none" stroke="black" points="196,-4 196,-38 293,-38 293,-4 196,-4"/>
<text text-anchor="start" x="201" y="-26" font-family="Times New Roman,serif" font-size="10.00">name = &quot;startClients&quot;</text>
<text text-anchor="start" x="201" y="-12" font-family="Times New Roman,serif" font-size="10.00">status = &quot;start&quot;</text>
</g>
<!-- l3&#45;&#45;b5 -->
<g id="edge10" class="edge"><title>l3&#45;&#45;b5</title>
<path fill="none" stroke="black" d="M244,-96.4944C244,-85.4243 244,-71.7752 244,-59.8074"/>
<text text-anchor="middle" x="248.226" y="-66.3705" font-family="Times New Roman,serif" font-size="10.00">tasks</text>
<text text-anchor="middle" x="239.774" y="-84.9313" font-family="Times New Roman,serif" font-size="10.00">lane</text>
</g>
<!-- b6 -->
<g id="node8" class="node"><title>b6</title>
<a xlink:href="../../SDMLib/src/org/sdmlib/replication/BoardTask.java" xlink:title="&lt;TABLE&gt;">
<polygon fill="none" stroke="black" points="327,-38 327,-55 468,-55 468,-38 327,-38"/>
<text text-anchor="start" x="367" y="-44.5" font-family="Times New Roman,serif" font-size="10.00"> </text>
<text text-anchor="start" x="370" y="-44.5" font-family="Times New Roman,serif" font-size="10.00">b6 :BoardTask</text>
</a>
<polygon fill="none" stroke="black" points="327,-4 327,-38 468,-38 468,-4 327,-4"/>
<text text-anchor="start" x="332" y="-26" font-family="Times New Roman,serif" font-size="10.00">name = &quot;showStartGameButton&quot;</text>
<text text-anchor="start" x="332" y="-12" font-family="Times New Roman,serif" font-size="10.00">status = &quot;start&quot;</text>
</g>
<!-- l1&#45;&#45;b6 -->
<g id="edge12" class="edge"><title>l1&#45;&#45;b6</title>
<path fill="none" stroke="black" d="M393.989,-96.4944C394.498,-85.4243 395.125,-71.7752 395.676,-59.8074"/>
<text text-anchor="middle" x="399.481" y="-66.555" font-family="Times New Roman,serif" font-size="10.00">tasks</text>
<text text-anchor="middle" x="390.183" y="-84.7468" font-family="Times New Roman,serif" font-size="10.00">lane</text>
</g>
<!-- l8 -->
<g id="node9" class="node"><title>l8</title>
<a xlink:href="../../SDMLib/src/org/eclipse/swt/widgets/Label.java" xlink:title="&lt;TABLE&gt;">
<polygon fill="none" stroke="black" points="472,-120 472,-137 695,-137 695,-120 472,-120"/>
<text text-anchor="start" x="565" y="-126.5" font-family="Times New Roman,serif" font-size="10.00"> </text>
<text text-anchor="start" x="568" y="-126.5" font-family="Times New Roman,serif" font-size="10.00">l8 :Label</text>
</a>
<polygon fill="none" stroke="black" points="472,-100 472,-120 695,-120 695,-100 472,-100"/>
<text text-anchor="start" x="477" y="-108" font-family="Times New Roman,serif" font-size="10.00">text = &quot;When all players have shown up, Start Game&quot;</text>
</g>
<!-- s9 -->
<g id="node10" class="node"><title>s9</title>
<image xlink:href="icons/person1.png" width="32px" height="43px" preserveAspectRatio="xMinYMin meet" x="567" y="-252"/>
<a xlink:href="../examples/org/sdmlib/examples/replication/maumau/StartGameMouseAdapter.java" xlink:title="&lt;TABLE&gt;">
<polygon fill="none" stroke="black" points="520,-191 520,-207 646,-207 646,-191 520,-191"/>
<text text-anchor="start" x="523.5" y="-197" font-family="Times New Roman,serif" font-size="10.00"> </text>
<text text-anchor="start" x="526.5" y="-197" font-family="Times New Roman,serif" font-size="10.00">s9 :StartGameMouseAdapter</text>
</a>
</g>
<!-- s9&#45;&#45;l8 -->
<g id="edge14" class="edge"><title>s9&#45;&#45;l8</title>
<path fill="none" stroke="black" d="M583,-187.467C583,-172.325 583,-155.013 583,-141.717"/>
<text text-anchor="middle" x="587.226" y="-148.28" font-family="Times New Roman,serif" font-size="10.00">startGameLabel</text>
</g>
<!-- maumau -->
<g id="node11" class="node"><title>maumau</title>
<image xlink:href="icons/shared.png" width="70px" height="23px" preserveAspectRatio="xMinYMin meet" x="728" y="-242"/>
<a xlink:href="../examples/org/sdmlib/examples/replication/maumau/MauMau.java" xlink:title="&lt;TABLE&gt;">
<polygon fill="none" stroke="black" points="720,-201 720,-217 806,-217 806,-201 720,-201"/>
<text text-anchor="start" x="723.5" y="-207" font-family="Times New Roman,serif" font-size="10.00"> </text>
<text text-anchor="start" x="726.5" y="-207" font-family="Times New Roman,serif" font-size="10.00">maumau :MauMau</text>
</a>
</g>
<!-- abu -->
<g id="node12" class="node"><title>abu</title>
<a xlink:href="../examples/org/sdmlib/examples/replication/maumau/Player.java" xlink:title="&lt;TABLE&gt;">
<polygon fill="none" stroke="black" points="729,-120 729,-137 798,-137 798,-120 729,-120"/>
<text text-anchor="start" x="739.5" y="-126.5" font-family="Times New Roman,serif" font-size="10.00"> </text>
<text text-anchor="start" x="742.5" y="-126.5" font-family="Times New Roman,serif" font-size="10.00">abu :Player</text>
</a>
<polygon fill="none" stroke="black" points="729,-100 729,-120 798,-120 798,-100 729,-100"/>
<text text-anchor="start" x="734" y="-108" font-family="Times New Roman,serif" font-size="10.00">name = &quot;Abu&quot;</text>
</g>
<!-- maumau&#45;&#45;abu -->
<g id="edge16" class="edge"><title>maumau&#45;&#45;abu</title>
<path fill="none" stroke="black" d="M763,-197.309C763,-180.328 763,-157.99 763,-141.694"/>
<text text-anchor="middle" x="767.226" y="-148.257" font-family="Times New Roman,serif" font-size="10.00">players</text>
<text text-anchor="middle" x="758.774" y="-185.746" font-family="Times New Roman,serif" font-size="10.00">game</text>
</g>
</g>
</svg>
