<?xml version="1.0" encoding="UTF-8" standalone="no"?>
<!DOCTYPE svg PUBLIC "-//W3C//DTD SVG 1.1//EN"
 "http://www.w3.org/Graphics/SVG/1.1/DTD/svg11.dtd">
<!-- Generated by graphviz version 2.28.0 (20110507.0327)
 -->
<!-- Title: ObjectDiagram Pages: 1 -->
<svg width="868pt" height="276pt"
 viewBox="0.00 0.00 868.00 276.00" xmlns="http://www.w3.org/2000/svg" xmlns:xlink="http://www.w3.org/1999/xlink">
<g id="graph1" class="graph" transform="scale(1 1) rotate(0) translate(4 272)">
<title>ObjectDiagram</title>
<polygon fill="white" stroke="white" points="-4,5 -4,-272 865,-272 865,5 -4,5"/>
<!-- abuNode -->
<g id="node1" class="node"><title>abuNode</title>
<image xlink:href="icons/node.png" width="83px" height="61px" preserveAspectRatio="xMinYMin meet" x="10" y="-261"/>
<a xlink:href="../../SDMLib/src/org/sdmlib/replication/Node.java" xlink:title="&lt;TABLE&gt;">
<polygon fill="none" stroke="black" points="8,-182 8,-198 95,-198 95,-182 8,-182"/>
<text text-anchor="start" x="16" y="-188" font-family="Arial" font-size="10.00"> </text>
<text text-anchor="start" x="20" y="-188" font-family="Arial" font-size="10.00">abuNode :Node</text>
</a>
</g>
<!-- s8 -->
<g id="node2" class="node"><title>s8</title>
<image xlink:href="icons/worker.png" width="80px" height="61px" preserveAspectRatio="xMinYMin meet" x="158" y="-261"/>
<a xlink:href="../examples/org/sdmlib/examples/replication/maumau/StartGameMouseAdapter.java" xlink:title="&lt;TABLE&gt;">
<polygon fill="none" stroke="black" points="129,-182 129,-198 267,-198 267,-182 129,-182"/>
<text text-anchor="start" x="132.5" y="-188" font-family="Arial" font-size="10.00"> </text>
<text text-anchor="start" x="136.5" y="-188" font-family="Arial" font-size="10.00">s8 :StartGameMouseAdapter</text>
</a>
</g>
<!-- l7 -->
<g id="node3" class="node"><title>l7</title>
<a xlink:href="../../SDMLib/src/org/eclipse/swt/widgets/Label.java" xlink:title="&lt;TABLE&gt;">
<polygon fill="none" stroke="black" points="77,-120 77,-137 320,-137 320,-120 77,-120"/>
<text text-anchor="start" x="178" y="-126.5" font-family="Arial" font-size="10.00"> </text>
<text text-anchor="start" x="182" y="-126.5" font-family="Arial" font-size="10.00">l7 :Label</text>
</a>
<polygon fill="none" stroke="black" points="77,-100 77,-120 320,-120 320,-100 77,-100"/>
<text text-anchor="start" x="82" y="-108" font-family="Arial" font-size="10.00">text = &quot;When all players have shown up, Start Game&quot;</text>
</g>
<!-- s8&#45;&#45;l7 -->
<g id="edge2" class="edge"><title>s8&#45;&#45;l7</title>
<path fill="none" stroke="black" d="M198,-178.447C198,-165.668 198,-152.252 198,-141.501"/>
<text text-anchor="middle" x="202.226" y="-148.064" font-family="Arial" font-size="10.00">startGameLabel</text>
</g>
<!-- taskboard -->
<g id="node4" class="node"><title>taskboard</title>
<image xlink:href="icons/shared.png" width="70px" height="23px" preserveAspectRatio="xMinYMin meet" x="564.5" y="-242"/>
<a xlink:href="../../SDMLib/src/org/sdmlib/replication/TaskFlowBoard.java" xlink:title="&lt;TABLE&gt;">
<polygon fill="none" stroke="black" points="536,-201 536,-217 663,-217 663,-201 536,-201"/>
<text text-anchor="start" x="539.5" y="-207" font-family="Arial" font-size="10.00"> </text>
<text text-anchor="start" x="543.5" y="-207" font-family="Arial" font-size="10.00">taskboard :TaskFlowBoard</text>
</a>
</g>
<!-- l2 -->
<g id="node5" class="node"><title>l2</title>
<a xlink:href="../../SDMLib/src/org/sdmlib/replication/Lane.java" xlink:title="&lt;TABLE&gt;">
<polygon fill="none" stroke="black" points="354,-120 354,-137 435,-137 435,-120 354,-120"/>
<text text-anchor="start" x="375" y="-126.5" font-family="Arial" font-size="10.00"> </text>
<text text-anchor="start" x="379" y="-126.5" font-family="Arial" font-size="10.00">l2 :Lane</text>
</a>
<polygon fill="none" stroke="black" points="354,-100 354,-120 435,-120 435,-100 354,-100"/>
<text text-anchor="start" x="359" y="-108" font-family="Arial" font-size="10.00">name = &quot;server&quot;</text>
</g>
<!-- taskboard&#45;&#45;l2 -->
<g id="edge4" class="edge"><title>taskboard&#45;&#45;l2</title>
<path fill="none" stroke="black" d="M549.637,-197.439C515.397,-180.403 470.224,-157.926 437.369,-141.579"/>
<text text-anchor="middle" x="447.366" y="-139.332" font-family="Arial" font-size="10.00">lanes</text>
<text text-anchor="middle" x="539.64" y="-194.685" font-family="Arial" font-size="10.00">board</text>
</g>
<!-- l1 -->
<g id="node7" class="node"><title>l1</title>
<a xlink:href="../../SDMLib/src/org/sdmlib/replication/Lane.java" xlink:title="&lt;TABLE&gt;">
<polygon fill="none" stroke="black" points="489,-120 489,-137 582,-137 582,-120 489,-120"/>
<text text-anchor="start" x="516" y="-126.5" font-family="Arial" font-size="10.00"> </text>
<text text-anchor="start" x="520" y="-126.5" font-family="Arial" font-size="10.00">l1 :Lane</text>
</a>
<polygon fill="none" stroke="black" points="489,-100 489,-120 582,-120 582,-100 489,-100"/>
<text text-anchor="start" x="494" y="-108" font-family="Arial" font-size="10.00">name = &quot;AbuLane&quot;</text>
</g>
<!-- taskboard&#45;&#45;l1 -->
<g id="edge6" class="edge"><title>taskboard&#45;&#45;l1</title>
<path fill="none" stroke="black" d="M583.507,-197.309C572.853,-180.328 558.837,-157.99 548.612,-141.694"/>
<text text-anchor="middle" x="557.009" y="-144.625" font-family="Arial" font-size="10.00">lanes</text>
<text text-anchor="middle" x="575.111" y="-189.378" font-family="Arial" font-size="10.00">board</text>
</g>
<!-- l4 -->
<g id="node9" class="node"><title>l4</title>
<a xlink:href="../../SDMLib/src/org/sdmlib/replication/Lane.java" xlink:title="&lt;TABLE&gt;">
<polygon fill="none" stroke="black" points="616,-120 616,-137 712,-137 712,-120 616,-120"/>
<text text-anchor="start" x="644.5" y="-126.5" font-family="Arial" font-size="10.00"> </text>
<text text-anchor="start" x="648.5" y="-126.5" font-family="Arial" font-size="10.00">l4 :Lane</text>
</a>
<polygon fill="none" stroke="black" points="616,-100 616,-120 712,-120 712,-100 616,-100"/>
<text text-anchor="start" x="621" y="-108" font-family="Arial" font-size="10.00">name = &quot;KarliLane&quot;</text>
</g>
<!-- taskboard&#45;&#45;l4 -->
<g id="edge8" class="edge"><title>taskboard&#45;&#45;l4</title>
<path fill="none" stroke="black" d="M614.735,-197.309C625.555,-180.328 639.791,-157.99 650.175,-141.694"/>
<text text-anchor="middle" x="648.869" y="-149.108" font-family="Arial" font-size="10.00">lanes</text>
<text text-anchor="middle" x="616.041" y="-184.894" font-family="Arial" font-size="10.00">board</text>
</g>
<!-- l11 -->
<g id="node11" class="node"><title>l11</title>
<a xlink:href="../../SDMLib/src/org/sdmlib/replication/Lane.java" xlink:title="&lt;TABLE&gt;">
<polygon fill="none" stroke="black" points="746,-120 746,-137 852,-137 852,-120 746,-120"/>
<text text-anchor="start" x="777" y="-126.5" font-family="Arial" font-size="10.00"> </text>
<text text-anchor="start" x="781" y="-126.5" font-family="Arial" font-size="10.00">l11 :Lane</text>
</a>
<polygon fill="none" stroke="black" points="746,-100 746,-120 852,-120 852,-100 746,-100"/>
<text text-anchor="start" x="751" y="-108" font-family="Arial" font-size="10.00">name = &quot;SabineLane&quot;</text>
</g>
<!-- taskboard&#45;&#45;l11 -->
<g id="edge10" class="edge"><title>taskboard&#45;&#45;l11</title>
<path fill="none" stroke="black" d="M647.159,-197.439C680.564,-180.403 724.635,-157.926 756.689,-141.579"/>
<text text-anchor="middle" x="750.535" y="-146.961" font-family="Arial" font-size="10.00">lanes</text>
<text text-anchor="middle" x="653.313" y="-187.056" font-family="Arial" font-size="10.00">board</text>
</g>
<!-- b12 -->
<g id="node6" class="node"><title>b12</title>
<a xlink:href="../../SDMLib/src/org/sdmlib/replication/BoardTask.java" xlink:title="&lt;TABLE&gt;">
<polygon fill="none" stroke="black" points="324,-38 324,-55 425,-55 425,-38 324,-38"/>
<text text-anchor="start" x="338" y="-44.5" font-family="Arial" font-size="10.00"> </text>
<text text-anchor="start" x="342" y="-44.5" font-family="Arial" font-size="10.00">b12 :BoardTask</text>
</a>
<polygon fill="none" stroke="black" points="324,-4 324,-38 425,-38 425,-4 324,-4"/>
<text text-anchor="start" x="329" y="-26" font-family="Arial" font-size="10.00">name = &quot;startGame&quot;</text>
<text text-anchor="start" x="329" y="-12" font-family="Arial" font-size="10.00">status = &quot;&quot;</text>
</g>
<!-- l2&#45;&#45;b12 -->
<g id="edge12" class="edge"><title>l2&#45;&#45;b12</title>
<path fill="none" stroke="black" d="M389.056,-96.4944C386.511,-85.4243 383.374,-71.7752 380.622,-59.8074"/>
<text text-anchor="middle" x="386.772" y="-65.1932" font-family="Arial" font-size="10.00">tasks</text>
<text text-anchor="middle" x="382.907" y="-86.1085" font-family="Arial" font-size="10.00">lane</text>
</g>
<!-- b5 -->
<g id="node8" class="node"><title>b5</title>
<a xlink:href="../../SDMLib/src/org/sdmlib/replication/BoardTask.java" xlink:title="&lt;TABLE&gt;">
<polygon fill="none" stroke="black" points="459,-38 459,-55 612,-55 612,-38 459,-38"/>
<text text-anchor="start" x="501.5" y="-44.5" font-family="Arial" font-size="10.00"> </text>
<text text-anchor="start" x="505.5" y="-44.5" font-family="Arial" font-size="10.00">b5 :BoardTask</text>
</a>
<polygon fill="none" stroke="black" points="459,-4 459,-38 612,-38 612,-4 459,-4"/>
<text text-anchor="start" x="464" y="-26" font-family="Arial" font-size="10.00">name = &quot;showStartGameButton&quot;</text>
<text text-anchor="start" x="464" y="-12" font-family="Arial" font-size="10.00">status = &quot;start&quot;</text>
</g>
<!-- l1&#45;&#45;b5 -->
<g id="edge14" class="edge"><title>l1&#45;&#45;b5</title>
<path fill="none" stroke="black" d="M535,-96.4944C535,-85.4243 535,-71.7752 535,-59.8074"/>
<text text-anchor="middle" x="539.226" y="-66.3705" font-family="Arial" font-size="10.00">tasks</text>
<text text-anchor="middle" x="530.774" y="-84.9313" font-family="Arial" font-size="10.00">lane</text>
</g>
<!-- b9 -->
<g id="node10" class="node"><title>b9</title>
<a xlink:href="../../SDMLib/src/org/sdmlib/replication/BoardTask.java" xlink:title="&lt;TABLE&gt;">
<polygon fill="none" stroke="black" points="646,-38 646,-55 799,-55 799,-38 646,-38"/>
<text text-anchor="start" x="688.5" y="-44.5" font-family="Arial" font-size="10.00"> </text>
<text text-anchor="start" x="692.5" y="-44.5" font-family="Arial" font-size="10.00">b9 :BoardTask</text>
</a>
<polygon fill="none" stroke="black" points="646,-4 646,-38 799,-38 799,-4 646,-4"/>
<text text-anchor="start" x="651" y="-26" font-family="Arial" font-size="10.00">name = &quot;showStartGameButton&quot;</text>
<text text-anchor="start" x="651" y="-12" font-family="Arial" font-size="10.00">status = &quot;start&quot;</text>
</g>
<!-- l4&#45;&#45;b9 -->
<g id="edge16" class="edge"><title>l4&#45;&#45;b9</title>
<path fill="none" stroke="black" d="M678.337,-96.4944C685.717,-85.4243 694.817,-71.7752 702.795,-59.8074"/>
<text text-anchor="middle" x="701.284" y="-67.1926" font-family="Arial" font-size="10.00">tasks</text>
<text text-anchor="middle" x="679.848" y="-84.1092" font-family="Arial" font-size="10.00">lane</text>
</g>
</g>
</svg>
