<?xml version="1.0" encoding="UTF-8" standalone="no"?>
<!DOCTYPE svg PUBLIC "-//W3C//DTD SVG 1.1//EN"
 "http://www.w3.org/Graphics/SVG/1.1/DTD/svg11.dtd">
<!-- Generated by graphviz version 2.28.0 (20110507.0327)
 -->
<!-- Title: ObjectDiagram Pages: 1 -->
<svg width="904pt" height="384pt"
 viewBox="0.00 0.00 904.00 384.00" xmlns="http://www.w3.org/2000/svg" xmlns:xlink="http://www.w3.org/1999/xlink">
<g id="graph1" class="graph" transform="scale(1 1) rotate(0) translate(4 380)">
<title>ObjectDiagram</title>
<polygon fill="white" stroke="white" points="-4,5 -4,-380 901,-380 901,5 -4,5"/>
<!-- abuNode -->
<g id="node1" class="node"><title>abuNode</title>
<image xlink:href="icons/node.png" width="83px" height="61px" preserveAspectRatio="xMinYMin meet" x="10" y="-357"/>
<a xlink:href="../../SDMLib/src/org/sdmlib/replication/Node.java" xlink:title="&lt;TABLE&gt;">
<polygon fill="none" stroke="black" points="8,-278 8,-294 95,-294 95,-278 8,-278"/>
<text text-anchor="start" x="16" y="-284" font-family="Arial" font-size="10.00"> </text>
<text text-anchor="start" x="20" y="-284" font-family="Arial" font-size="10.00">abuNode :Node</text>
</a>
</g>
<!-- s4 -->
<g id="node2" class="node"><title>s4</title>
<image xlink:href="icons/worker.png" width="80px" height="61px" preserveAspectRatio="xMinYMin meet" x="167" y="-357"/>
<a xlink:href="../examples/org/sdmlib/examples/replication/maumau/ShowStartGameButtonAction.java" xlink:title="&lt;TABLE&gt;">
<polygon fill="none" stroke="black" points="129,-278 129,-294 285,-294 285,-278 129,-278"/>
<text text-anchor="start" x="132.5" y="-284" font-family="Arial" font-size="10.00"> </text>
<text text-anchor="start" x="136.5" y="-284" font-family="Arial" font-size="10.00">s4 :ShowStartGameButtonAction</text>
</a>
</g>
<!-- taskboard -->
<g id="node3" class="node"><title>taskboard</title>
<image xlink:href="icons/shared.png" width="70px" height="23px" preserveAspectRatio="xMinYMin meet" x="348.5" y="-338"/>
<a xlink:href="../../SDMLib/src/org/sdmlib/replication/TaskFlowBoard.java" xlink:title="&lt;TABLE&gt;">
<polygon fill="none" stroke="black" points="320,-297 320,-313 447,-313 447,-297 320,-297"/>
<text text-anchor="start" x="323.5" y="-303" font-family="Arial" font-size="10.00"> </text>
<text text-anchor="start" x="327.5" y="-303" font-family="Arial" font-size="10.00">taskboard :TaskFlowBoard</text>
</a>
</g>
<!-- l2 -->
<g id="node4" class="node"><title>l2</title>
<a xlink:href="../../SDMLib/src/org/sdmlib/replication/Lane.java" xlink:title="&lt;TABLE&gt;">
<polygon fill="none" stroke="black" points="282,-162 282,-179 363,-179 363,-162 282,-162"/>
<text text-anchor="start" x="303" y="-168.5" font-family="Arial" font-size="10.00"> </text>
<text text-anchor="start" x="307" y="-168.5" font-family="Arial" font-size="10.00">l2 :Lane</text>
</a>
<polygon fill="none" stroke="black" points="282,-142 282,-162 363,-162 363,-142 282,-142"/>
<text text-anchor="start" x="287" y="-150" font-family="Arial" font-size="10.00">name = &quot;server&quot;</text>
</g>
<!-- taskboard&#45;&#45;l2 -->
<g id="edge2" class="edge"><title>taskboard&#45;&#45;l2</title>
<path fill="none" stroke="black" d="M373.334,-293.281C361.509,-263.04 341.68,-212.329 330.442,-183.589"/>
<text text-anchor="middle" x="337.678" y="-187.99" font-family="Arial" font-size="10.00">lanes</text>
<text text-anchor="middle" x="366.098" y="-283.88" font-family="Arial" font-size="10.00">board</text>
</g>
<!-- l1 -->
<g id="node5" class="node"><title>l1</title>
<a xlink:href="../../SDMLib/src/org/sdmlib/replication/Lane.java" xlink:title="&lt;TABLE&gt;">
<polygon fill="none" stroke="black" points="397,-162 397,-179 490,-179 490,-162 397,-162"/>
<text text-anchor="start" x="424" y="-168.5" font-family="Arial" font-size="10.00"> </text>
<text text-anchor="start" x="428" y="-168.5" font-family="Arial" font-size="10.00">l1 :Lane</text>
</a>
<polygon fill="none" stroke="black" points="397,-142 397,-162 490,-162 490,-142 397,-142"/>
<text text-anchor="start" x="402" y="-150" font-family="Arial" font-size="10.00">name = &quot;AbuLane&quot;</text>
</g>
<!-- taskboard&#45;&#45;l1 -->
<g id="edge4" class="edge"><title>taskboard&#45;&#45;l1</title>
<path fill="none" stroke="black" d="M392.507,-293.281C404.139,-263.04 423.643,-212.329 434.697,-183.589"/>
<text text-anchor="middle" x="435.388" y="-191.065" font-family="Arial" font-size="10.00">lanes</text>
<text text-anchor="middle" x="391.816" y="-280.805" font-family="Arial" font-size="10.00">board</text>
</g>
<!-- b3 -->
<g id="node6" class="node"><title>b3</title>
<a xlink:href="../../SDMLib/src/org/sdmlib/replication/BoardTask.java" xlink:title="&lt;TABLE&gt;">
<polygon fill="none" stroke="black" points="367,-38 367,-55 520,-55 520,-38 367,-38"/>
<text text-anchor="start" x="409.5" y="-44.5" font-family="Arial" font-size="10.00"> </text>
<text text-anchor="start" x="413.5" y="-44.5" font-family="Arial" font-size="10.00">b3 :BoardTask</text>
</a>
<polygon fill="none" stroke="black" points="367,-4 367,-38 520,-38 520,-4 367,-4"/>
<text text-anchor="start" x="372" y="-26" font-family="Arial" font-size="10.00">name = &quot;showStartGameButton&quot;</text>
<text text-anchor="start" x="372" y="-12" font-family="Arial" font-size="10.00">status = &quot;start&quot;</text>
</g>
<!-- l1&#45;&#45;b3 -->
<g id="edge6" class="edge"><title>l1&#45;&#45;b3</title>
<path fill="none" stroke="black" d="M443,-138.408C443,-116.891 443,-83.7134 443,-59.9275"/>
<text text-anchor="middle" x="447.226" y="-66.4906" font-family="Arial" font-size="10.00">tasks</text>
<text text-anchor="middle" x="438.774" y="-126.845" font-family="Arial" font-size="10.00">lane</text>
</g>
<!-- l5 -->
<g id="node7" class="node"><title>l5</title>
<a xlink:href="../../SDMLib/src/org/eclipse/swt/widgets/Label.java" xlink:title="&lt;TABLE&gt;">
<polygon fill="none" stroke="black" points="524,-162 524,-179 767,-179 767,-162 524,-162"/>
<text text-anchor="start" x="625" y="-168.5" font-family="Arial" font-size="10.00"> </text>
<text text-anchor="start" x="629" y="-168.5" font-family="Arial" font-size="10.00">l5 :Label</text>
</a>
<polygon fill="none" stroke="black" points="524,-142 524,-162 767,-162 767,-142 524,-142"/>
<text text-anchor="start" x="529" y="-150" font-family="Arial" font-size="10.00">text = &quot;When all players have shown up, Start Game&quot;</text>
</g>
<!-- s6 -->
<g id="node8" class="node"><title>s6</title>
<image xlink:href="icons/person1.png" width="32px" height="43px" preserveAspectRatio="xMinYMin meet" x="629" y="-348"/>
<a xlink:href="../examples/org/sdmlib/examples/replication/maumau/StartGameMouseAdapter.java" xlink:title="&lt;TABLE&gt;">
<polygon fill="none" stroke="black" points="576,-287 576,-303 714,-303 714,-287 576,-287"/>
<text text-anchor="start" x="579.5" y="-293" font-family="Arial" font-size="10.00"> </text>
<text text-anchor="start" x="583.5" y="-293" font-family="Arial" font-size="10.00">s6 :StartGameMouseAdapter</text>
</a>
</g>
<!-- s6&#45;&#45;l5 -->
<g id="edge8" class="edge"><title>s6&#45;&#45;l5</title>
<path fill="none" stroke="black" d="M645,-283.379C645,-252.859 645,-209.348 645,-183.558"/>
<text text-anchor="middle" x="649.226" y="-190.121" font-family="Arial" font-size="10.00">startGameLabel</text>
</g>
<!-- maumau -->
<g id="node9" class="node"><title>maumau</title>
<image xlink:href="icons/shared.png" width="70px" height="23px" preserveAspectRatio="xMinYMin meet" x="807.5" y="-369"/>
<a xlink:href="../examples/org/sdmlib/examples/replication/maumau/MauMau.java" xlink:title="&lt;TABLE&gt;">
<polygon fill="none" stroke="black" points="796,-328 796,-344 889,-344 889,-328 796,-328"/>
<text text-anchor="start" x="799.5" y="-334" font-family="Arial" font-size="10.00"> </text>
<text text-anchor="start" x="803.5" y="-334" font-family="Arial" font-size="10.00">maumau :MauMau</text>
</a>
<polygon fill="none" stroke="black" points="796,-266 796,-328 889,-328 889,-266 796,-266"/>
<text text-anchor="start" x="801" y="-316" font-family="Arial" font-size="10.00">deck = &quot;&quot;</text>
<text text-anchor="start" x="801" y="-302" font-family="Arial" font-size="10.00">stack = &quot;&quot;</text>
<text text-anchor="start" x="801" y="-288" font-family="Arial" font-size="10.00">currentMove = &quot;&quot;</text>
<text text-anchor="start" x="801" y="-274" font-family="Arial" font-size="10.00">duty = &quot;&quot;</text>
</g>
<!-- abu -->
<g id="node10" class="node"><title>abu</title>
<a xlink:href="../examples/org/sdmlib/examples/replication/maumau/Player.java" xlink:title="&lt;TABLE&gt;">
<polygon fill="none" stroke="black" points="801,-204 801,-221 884,-221 884,-204 801,-204"/>
<text text-anchor="start" x="815.5" y="-210.5" font-family="Arial" font-size="10.00"> </text>
<text text-anchor="start" x="819.5" y="-210.5" font-family="Arial" font-size="10.00">abu :Player</text>
</a>
<polygon fill="none" stroke="black" points="801,-100 801,-204 884,-204 884,-100 801,-100"/>
<text text-anchor="start" x="806" y="-192" font-family="Arial" font-size="10.00">name = &quot;Abu&quot;</text>
<text text-anchor="start" x="806" y="-178" font-family="Arial" font-size="10.00">deckOwner = &quot;&quot;</text>
<text text-anchor="start" x="806" y="-164" font-family="Arial" font-size="10.00">stackOwner = &quot;&quot;</text>
<text text-anchor="start" x="806" y="-150" font-family="Arial" font-size="10.00">next = &quot;&quot;</text>
<text text-anchor="start" x="806" y="-136" font-family="Arial" font-size="10.00">prev = &quot;&quot;</text>
<text text-anchor="start" x="806" y="-122" font-family="Arial" font-size="10.00">assignment = &quot;&quot;</text>
<text text-anchor="start" x="806" y="-108" font-family="Arial" font-size="10.00">duty = &quot;&quot;</text>
</g>
<!-- maumau&#45;&#45;abu -->
<g id="edge10" class="edge"><title>maumau&#45;&#45;abu</title>
<path fill="none" stroke="black" d="M842,-262.121C842,-250.318 842,-237.779 842,-225.712"/>
<text text-anchor="middle" x="846.226" y="-232.275" font-family="Arial" font-size="10.00">players</text>
<text text-anchor="middle" x="837.774" y="-250.558" font-family="Arial" font-size="10.00">game</text>
</g>
</g>
</svg>
