<?xml version="1.0" encoding="UTF-8" standalone="no"?>
<!DOCTYPE svg PUBLIC "-//W3C//DTD SVG 1.1//EN"
 "http://www.w3.org/Graphics/SVG/1.1/DTD/svg11.dtd">
<!-- Generated by graphviz version 2.28.0 (20110507.0327)
 -->
<!-- Title: ObjectDiagram Pages: 1 -->
<svg width="2272pt" height="702pt"
 viewBox="0.00 0.00 2272.00 702.00" xmlns="http://www.w3.org/2000/svg" xmlns:xlink="http://www.w3.org/1999/xlink">
<g id="graph1" class="graph" transform="scale(1 1) rotate(0) translate(4 698)">
<title>ObjectDiagram</title>
<polygon fill="white" stroke="white" points="-4,5 -4,-698 2269,-698 2269,5 -4,5"/>
<!-- abuNode -->
<g id="node1" class="node"><title>abuNode</title>
<image xlink:href="icons/node.png" width="83px" height="61px" preserveAspectRatio="xMinYMin meet" x="579" y="-687"/>
<a xlink:href="../../SDMLib/src/org/sdmlib/replication/Node.java" xlink:title="&lt;TABLE&gt;">
<polygon fill="none" stroke="black" points="577,-608 577,-624 664,-624 664,-608 577,-608"/>
<text text-anchor="start" x="585" y="-614" font-family="Arial" font-size="10.00"> </text>
<text text-anchor="start" x="589" y="-614" font-family="Arial" font-size="10.00">abuNode :Node</text>
</a>
</g>
<!-- c55 -->
<g id="node2" class="node"><title>c55</title>
<image xlink:href="icons/worker.png" width="80px" height="61px" preserveAspectRatio="xMinYMin meet" x="745.5" y="-687"/>
<a xlink:href="../examples/org/sdmlib/examples/replication/maumau/CardsAreDeltScreenDumpAction.java" xlink:title="&lt;TABLE&gt;">
<polygon fill="none" stroke="black" points="698,-608 698,-624 873,-624 873,-608 698,-608"/>
<text text-anchor="start" x="701.5" y="-614" font-family="Arial" font-size="10.00"> </text>
<text text-anchor="start" x="705.5" y="-614" font-family="Arial" font-size="10.00">c55 :CardsAreDeltScreenDumpAction</text>
</a>
</g>
<!-- maumau -->
<g id="node3" class="node"><title>maumau</title>
<image xlink:href="icons/shared.png" width="70px" height="23px" preserveAspectRatio="xMinYMin meet" x="1091.5" y="-561"/>
<a xlink:href="../examples/org/sdmlib/examples/replication/maumau/MauMau.java" xlink:title="&lt;TABLE&gt;">
<polygon fill="none" stroke="black" points="1080,-520 1080,-536 1173,-536 1173,-520 1080,-520"/>
<text text-anchor="start" x="1083.5" y="-526" font-family="Arial" font-size="10.00"> </text>
<text text-anchor="start" x="1087.5" y="-526" font-family="Arial" font-size="10.00">maumau :MauMau</text>
</a>
<polygon fill="none" stroke="black" points="1080,-500 1080,-520 1173,-520 1173,-500 1080,-500"/>
<text text-anchor="start" x="1085" y="-508" font-family="Arial" font-size="10.00">duty = &quot;&quot;</text>
</g>
<!-- c27 -->
<g id="node4" class="node"><title>c27</title>
<a xlink:href="../examples/org/sdmlib/examples/replication/maumau/Card.java" xlink:title="&lt;TABLE&gt;">
<polygon fill="none" stroke="black" points="934,-438 934,-455 1014,-455 1014,-438 934,-438"/>
<text text-anchor="start" x="950.5" y="-444.5" font-family="Arial" font-size="10.00"> </text>
<text text-anchor="start" x="954.5" y="-444.5" font-family="Arial" font-size="10.00">c27 :Card</text>
</a>
<polygon fill="none" stroke="black" points="934,-404 934,-438 1014,-438 1014,-404 934,-404"/>
<text text-anchor="start" x="939" y="-426" font-family="Arial" font-size="10.00">suit = &quot;Spades&quot;</text>
<text text-anchor="start" x="939" y="-412" font-family="Arial" font-size="10.00">value = &quot;8&quot;</text>
</g>
<!-- maumau&#45;&#45;c27 -->
<g id="edge2" class="edge"><title>maumau&#45;&#45;c27</title>
<path fill="none" stroke="black" d="M1073.26,-496.305C1055.09,-484.346 1034.94,-471.094 1017.58,-459.671"/>
<text text-anchor="middle" x="1027.47" y="-458.621" font-family="Arial" font-size="10.00">cards</text>
<text text-anchor="middle" x="1063.37" y="-492.355" font-family="Arial" font-size="10.00">game</text>
</g>
<!-- abu -->
<g id="node5" class="node"><title>abu</title>
<a xlink:href="../examples/org/sdmlib/examples/replication/maumau/Player.java" xlink:title="&lt;TABLE&gt;">
<polygon fill="none" stroke="black" points="1007,-342 1007,-359 1090,-359 1090,-342 1007,-342"/>
<text text-anchor="start" x="1021.5" y="-348.5" font-family="Arial" font-size="10.00"> </text>
<text text-anchor="start" x="1025.5" y="-348.5" font-family="Arial" font-size="10.00">abu :Player</text>
</a>
<polygon fill="none" stroke="black" points="1007,-280 1007,-342 1090,-342 1090,-280 1007,-280"/>
<text text-anchor="start" x="1012" y="-330" font-family="Arial" font-size="10.00">name = &quot;Abu&quot;</text>
<text text-anchor="start" x="1012" y="-316" font-family="Arial" font-size="10.00">deckOwner = &quot;&quot;</text>
<text text-anchor="start" x="1012" y="-302" font-family="Arial" font-size="10.00">stackOwner = &quot;&quot;</text>
<text text-anchor="start" x="1012" y="-288" font-family="Arial" font-size="10.00">duty = &quot;&quot;</text>
</g>
<!-- maumau&#45;&#45;abu -->
<g id="edge16" class="edge"><title>maumau&#45;&#45;abu</title>
<path fill="none" stroke="black" d="M1113.12,-496.323C1099.62,-459.976 1078.39,-402.823 1063.87,-363.718"/>
<text text-anchor="middle" x="1070.98" y="-368.243" font-family="Arial" font-size="10.00">players_currentMove</text>
<text text-anchor="middle" x="1106" y="-486.798" font-family="Arial" font-size="10.00">game_assignment</text>
</g>
<!-- c48 -->
<g id="node6" class="node"><title>c48</title>
<a xlink:href="../examples/org/sdmlib/examples/replication/maumau/Card.java" xlink:title="&lt;TABLE&gt;">
<polygon fill="none" stroke="black" points="882,-197 882,-214 972,-214 972,-197 882,-197"/>
<text text-anchor="start" x="903.5" y="-203.5" font-family="Arial" font-size="10.00"> </text>
<text text-anchor="start" x="907.5" y="-203.5" font-family="Arial" font-size="10.00">c48 :Card</text>
</a>
<polygon fill="none" stroke="black" points="882,-163 882,-197 972,-197 972,-163 882,-163"/>
<text text-anchor="start" x="887" y="-185" font-family="Arial" font-size="10.00">suit = &quot;Diamonds&quot;</text>
<text text-anchor="start" x="887" y="-171" font-family="Arial" font-size="10.00">value = &quot;King&quot;</text>
</g>
<!-- maumau&#45;&#45;c48 -->
<g id="edge12" class="edge"><title>maumau&#45;&#45;c48</title>
<path fill="none" stroke="black" d="M1099.91,-496.488C1091.27,-484.943 1081.65,-471.967 1073,-460 1053.93,-433.621 1052.72,-424.246 1031,-400 1014.82,-381.938 1003.67,-384.03 990,-364 958.671,-318.09 940.914,-254.768 932.693,-218.533"/>
<text text-anchor="middle" x="938.895" y="-223.879" font-family="Arial" font-size="10.00">cards</text>
<text text-anchor="middle" x="1091.1" y="-489.26" font-family="Arial" font-size="10.00">game</text>
</g>
<!-- c33 -->
<g id="node7" class="node"><title>c33</title>
<a xlink:href="../examples/org/sdmlib/examples/replication/maumau/Card.java" xlink:title="&lt;TABLE&gt;">
<polygon fill="none" stroke="black" points="768,-197 768,-214 848,-214 848,-197 768,-197"/>
<text text-anchor="start" x="784.5" y="-203.5" font-family="Arial" font-size="10.00"> </text>
<text text-anchor="start" x="788.5" y="-203.5" font-family="Arial" font-size="10.00">c33 :Card</text>
</a>
<polygon fill="none" stroke="black" points="768,-163 768,-197 848,-197 848,-163 768,-163"/>
<text text-anchor="start" x="773" y="-185" font-family="Arial" font-size="10.00">suit = &quot;Spades&quot;</text>
<text text-anchor="start" x="773" y="-171" font-family="Arial" font-size="10.00">value = &quot;Ace&quot;</text>
</g>
<!-- maumau&#45;&#45;c33 -->
<g id="edge4" class="edge"><title>maumau&#45;&#45;c33</title>
<path fill="none" stroke="black" d="M1071.5,-525.179C1025.07,-517.542 959.329,-500.014 917,-460 846.101,-392.979 820.152,-273.552 811.673,-218.83"/>
<text text-anchor="middle" x="817.356" y="-224.559" font-family="Arial" font-size="10.00">cards</text>
<text text-anchor="middle" x="1061.84" y="-525.235" font-family="Arial" font-size="10.00">game</text>
</g>
<!-- c34 -->
<g id="node8" class="node"><title>c34</title>
<a xlink:href="../examples/org/sdmlib/examples/replication/maumau/Card.java" xlink:title="&lt;TABLE&gt;">
<polygon fill="none" stroke="black" points="1201,-197 1201,-214 1276,-214 1276,-197 1201,-197"/>
<text text-anchor="start" x="1215" y="-203.5" font-family="Arial" font-size="10.00"> </text>
<text text-anchor="start" x="1219" y="-203.5" font-family="Arial" font-size="10.00">c34 :Card</text>
</a>
<polygon fill="none" stroke="black" points="1201,-163 1201,-197 1276,-197 1276,-163 1201,-163"/>
<text text-anchor="start" x="1206" y="-185" font-family="Arial" font-size="10.00">suit = &quot;Hearts&quot;</text>
<text text-anchor="start" x="1206" y="-171" font-family="Arial" font-size="10.00">value = &quot;7&quot;</text>
</g>
<!-- maumau&#45;&#45;c34 -->
<g id="edge6" class="edge"><title>maumau&#45;&#45;c34</title>
<path fill="none" stroke="black" d="M1155.81,-496.319C1164.03,-485.297 1172.26,-472.664 1178,-460 1197.62,-416.699 1222.78,-278.864 1233.18,-218.63"/>
<text text-anchor="middle" x="1235.78" y="-225.786" font-family="Arial" font-size="10.00">cards</text>
<text text-anchor="middle" x="1157.77" y="-484.014" font-family="Arial" font-size="10.00">game</text>
</g>
<!-- c47 -->
<g id="node9" class="node"><title>c47</title>
<a xlink:href="../examples/org/sdmlib/examples/replication/maumau/Card.java" xlink:title="&lt;TABLE&gt;">
<polygon fill="none" stroke="black" points="1310,-197 1310,-214 1400,-214 1400,-197 1310,-197"/>
<text text-anchor="start" x="1331.5" y="-203.5" font-family="Arial" font-size="10.00"> </text>
<text text-anchor="start" x="1335.5" y="-203.5" font-family="Arial" font-size="10.00">c47 :Card</text>
</a>
<polygon fill="none" stroke="black" points="1310,-163 1310,-197 1400,-197 1400,-163 1310,-163"/>
<text text-anchor="start" x="1315" y="-185" font-family="Arial" font-size="10.00">suit = &quot;Diamonds&quot;</text>
<text text-anchor="start" x="1315" y="-171" font-family="Arial" font-size="10.00">value = &quot;Queen&quot;</text>
</g>
<!-- maumau&#45;&#45;c47 -->
<g id="edge10" class="edge"><title>maumau&#45;&#45;c47</title>
<path fill="none" stroke="black" d="M1168.88,-496.146C1180.33,-485.401 1192,-472.961 1201,-460 1251.66,-387.038 1231.64,-351.144 1279,-276 1292.07,-255.266 1310.12,-234.603 1325.36,-218.729"/>
<text text-anchor="middle" x="1322.19" y="-225.714" font-family="Arial" font-size="10.00">cards</text>
<text text-anchor="middle" x="1172.53" y="-484.336" font-family="Arial" font-size="10.00">game</text>
</g>
<!-- p9 -->
<g id="node10" class="node"><title>p9</title>
<a xlink:href="../examples/org/sdmlib/examples/replication/maumau/Player.java" xlink:title="&lt;TABLE&gt;">
<polygon fill="none" stroke="black" points="1045,-218 1045,-235 1128,-235 1128,-218 1045,-218"/>
<text text-anchor="start" x="1062" y="-224.5" font-family="Arial" font-size="10.00"> </text>
<text text-anchor="start" x="1066" y="-224.5" font-family="Arial" font-size="10.00">p9 :Player</text>
</a>
<polygon fill="none" stroke="black" points="1045,-142 1045,-218 1128,-218 1128,-142 1045,-142"/>
<text text-anchor="start" x="1050" y="-206" font-family="Arial" font-size="10.00">name = &quot;Karli&quot;</text>
<text text-anchor="start" x="1050" y="-192" font-family="Arial" font-size="10.00">deckOwner = &quot;&quot;</text>
<text text-anchor="start" x="1050" y="-178" font-family="Arial" font-size="10.00">stackOwner = &quot;&quot;</text>
<text text-anchor="start" x="1050" y="-164" font-family="Arial" font-size="10.00">assignment = &quot;&quot;</text>
<text text-anchor="start" x="1050" y="-150" font-family="Arial" font-size="10.00">duty = &quot;&quot;</text>
</g>
<!-- maumau&#45;&#45;p9 -->
<g id="edge18" class="edge"><title>maumau&#45;&#45;p9</title>
<path fill="none" stroke="black" d="M1124.92,-496.163C1123.03,-446.884 1118.08,-354.116 1106,-276 1104.17,-264.184 1101.6,-251.584 1098.91,-239.776"/>
<text text-anchor="middle" x="1105.03" y="-245.188" font-family="Arial" font-size="10.00">players</text>
<text text-anchor="middle" x="1120.33" y="-484.783" font-family="Arial" font-size="10.00">game</text>
</g>
<!-- p11 -->
<g id="node11" class="node"><title>p11</title>
<a xlink:href="../examples/org/sdmlib/examples/replication/maumau/Player.java" xlink:title="&lt;TABLE&gt;">
<polygon fill="none" stroke="black" points="1044,-80 1044,-97 1129,-97 1129,-80 1044,-80"/>
<text text-anchor="start" x="1059.5" y="-86.5" font-family="Arial" font-size="10.00"> </text>
<text text-anchor="start" x="1063.5" y="-86.5" font-family="Arial" font-size="10.00">p11 :Player</text>
</a>
<polygon fill="none" stroke="black" points="1044,-4 1044,-80 1129,-80 1129,-4 1044,-4"/>
<text text-anchor="start" x="1049" y="-68" font-family="Arial" font-size="10.00">name = &quot;Sabine&quot;</text>
<text text-anchor="start" x="1049" y="-54" font-family="Arial" font-size="10.00">deckOwner = &quot;&quot;</text>
<text text-anchor="start" x="1049" y="-40" font-family="Arial" font-size="10.00">stackOwner = &quot;&quot;</text>
<text text-anchor="start" x="1049" y="-26" font-family="Arial" font-size="10.00">assignment = &quot;&quot;</text>
<text text-anchor="start" x="1049" y="-12" font-family="Arial" font-size="10.00">duty = &quot;&quot;</text>
</g>
<!-- maumau&#45;&#45;p11 -->
<g id="edge20" class="edge"><title>maumau&#45;&#45;p11</title>
<path fill="none" stroke="black" d="M1135.21,-496.388C1152.11,-426.723 1182.94,-265.368 1144,-138 1140.16,-125.428 1133.79,-113.033 1126.65,-101.736"/>
<text text-anchor="middle" x="1135.01" y="-104.719" font-family="Arial" font-size="10.00">players</text>
<text text-anchor="middle" x="1133.12" y="-484.109" font-family="Arial" font-size="10.00">game</text>
</g>
<!-- c39 -->
<g id="node12" class="node"><title>c39</title>
<a xlink:href="../examples/org/sdmlib/examples/replication/maumau/Card.java" xlink:title="&lt;TABLE&gt;">
<polygon fill="none" stroke="black" points="1315,-438 1315,-455 1396,-455 1396,-438 1315,-438"/>
<text text-anchor="start" x="1332" y="-444.5" font-family="Arial" font-size="10.00"> </text>
<text text-anchor="start" x="1336" y="-444.5" font-family="Arial" font-size="10.00">c39 :Card</text>
</a>
<polygon fill="none" stroke="black" points="1315,-404 1315,-438 1396,-438 1396,-404 1315,-404"/>
<text text-anchor="start" x="1320" y="-426" font-family="Arial" font-size="10.00">suit = &quot;Hearts&quot;</text>
<text text-anchor="start" x="1320" y="-412" font-family="Arial" font-size="10.00">value = &quot;Queen&quot;</text>
</g>
<!-- maumau&#45;&#45;c39 -->
<g id="edge8" class="edge"><title>maumau&#45;&#45;c39</title>
<path fill="none" stroke="black" d="M1180.36,-508.188C1212.86,-494.445 1254.9,-476.469 1292,-460 1296.73,-457.899 1301.65,-455.686 1306.56,-453.458"/>
<text text-anchor="middle" x="1300.05" y="-458.549" font-family="Arial" font-size="10.00">cards</text>
<text text-anchor="middle" x="1187.06" y="-498.262" font-family="Arial" font-size="10.00">game</text>
</g>
<!-- h17 -->
<g id="node13" class="node"><title>h17</title>
<a xlink:href="../examples/org/sdmlib/examples/replication/maumau/Holder.java" xlink:title="&lt;TABLE&gt;">
<polygon fill="none" stroke="black" points="1296,-321 1296,-338 1376,-338 1376,-321 1296,-321"/>
<text text-anchor="start" x="1309" y="-327.5" font-family="Arial" font-size="10.00"> </text>
<text text-anchor="start" x="1313" y="-327.5" font-family="Arial" font-size="10.00">h17 :Holder</text>
</a>
<polygon fill="none" stroke="black" points="1296,-301 1296,-321 1376,-321 1376,-301 1296,-301"/>
<text text-anchor="start" x="1301" y="-309" font-family="Arial" font-size="10.00">deckOwner = &quot;&quot;</text>
</g>
<!-- maumau&#45;&#45;h17 -->
<g id="edge14" class="edge"><title>maumau&#45;&#45;h17</title>
<path fill="none" stroke="black" d="M1180.34,-508.82C1204.86,-496.929 1232.97,-480.477 1254,-460 1272.62,-441.87 1307.31,-377.031 1325,-342.694"/>
<text text-anchor="middle" x="1324.58" y="-350.185" font-family="Arial" font-size="10.00">stack</text>
<text text-anchor="middle" x="1186.58" y="-498.502" font-family="Arial" font-size="10.00">stackOwner</text>
</g>
<!-- c27&#45;&#45;abu -->
<g id="edge22" class="edge"><title>c27&#45;&#45;abu</title>
<path fill="none" stroke="black" d="M993.636,-400.342C1001.34,-389.093 1010.35,-375.947 1018.79,-363.629"/>
<text text-anchor="middle" x="1017.16" y="-370.994" font-family="Arial" font-size="10.00">holder</text>
<text text-anchor="middle" x="995.273" y="-387.976" font-family="Arial" font-size="10.00">cards</text>
</g>
<!-- abu&#45;&#45;c48 -->
<g id="edge24" class="edge"><title>abu&#45;&#45;c48</title>
<path fill="none" stroke="black" d="M1008.04,-276.403C990.285,-257.469 969.844,-235.677 953.935,-218.716"/>
<text text-anchor="middle" x="963.218" y="-219.935" font-family="Arial" font-size="10.00">cards</text>
<text text-anchor="middle" x="998.762" y="-270.184" font-family="Arial" font-size="10.00">holder</text>
</g>
<!-- abu&#45;&#45;c33 -->
<g id="edge26" class="edge"><title>abu&#45;&#45;c33</title>
<path fill="none" stroke="black" d="M998.542,-302.447C960.488,-288.598 907.411,-266.815 865,-240 855.32,-233.88 845.636,-226.145 837.069,-218.599"/>
<text text-anchor="middle" x="846.679" y="-218.867" font-family="Arial" font-size="10.00">cards</text>
<text text-anchor="middle" x="988.575" y="-300.759" font-family="Arial" font-size="10.00">holder</text>
</g>
<!-- abu&#45;&#45;c34 -->
<g id="edge28" class="edge"><title>abu&#45;&#45;c34</title>
<path fill="none" stroke="black" d="M1097.42,-285.444C1127.99,-264.69 1166.81,-238.335 1195.9,-218.581"/>
<text text-anchor="middle" x="1190.78" y="-224.668" font-family="Arial" font-size="10.00">cards</text>
<text text-anchor="middle" x="1102.55" y="-274.356" font-family="Arial" font-size="10.00">holder</text>
</g>
<!-- abu&#45;&#45;c47 -->
<g id="edge30" class="edge"><title>abu&#45;&#45;c47</title>
<path fill="none" stroke="black" d="M1097.29,-308.539C1148.1,-296.519 1228.62,-273.969 1292,-240 1302.95,-234.129 1313.91,-226.298 1323.53,-218.578"/>
<text text-anchor="middle" x="1319.05" y="-225.017" font-family="Arial" font-size="10.00">cards</text>
<text text-anchor="middle" x="1105.09" y="-299.786" font-family="Arial" font-size="10.00">holder</text>
</g>
<!-- abu&#45;&#45;p9 -->
<g id="edge32" class="edge"><title>abu&#45;&#45;p9</title>
<path fill="none" stroke="black" d="M1060.55,-276.403C1064.01,-264.661 1067.79,-251.82 1071.36,-239.713"/>
<text text-anchor="middle" x="1072.85" y="-247.101" font-family="Arial" font-size="10.00">next</text>
<text text-anchor="middle" x="1059.05" y="-264.015" font-family="Arial" font-size="10.00">prev</text>
</g>
<!-- abu&#45;&#45;p11 -->
<g id="edge34" class="edge"><title>abu&#45;&#45;p11</title>
<path fill="none" stroke="black" d="M1033.82,-276.408C1023.64,-239.148 1013.95,-183.955 1028,-138 1031.84,-125.428 1038.21,-113.033 1045.35,-101.736"/>
<text text-anchor="middle" x="1044.18" y="-109.167" font-family="Arial" font-size="10.00">prev</text>
<text text-anchor="middle" x="1027.47" y="-266.189" font-family="Arial" font-size="10.00">next</text>
</g>
<!-- p9&#45;&#45;p11 -->
<g id="edge36" class="edge"><title>p9&#45;&#45;p11</title>
<path fill="none" stroke="black" d="M1086,-138.131C1086,-126.305 1086,-113.689 1086,-101.863"/>
<text text-anchor="middle" x="1090.23" y="-108.426" font-family="Arial" font-size="10.00">next</text>
<text text-anchor="middle" x="1081.77" y="-126.568" font-family="Arial" font-size="10.00">prev</text>
</g>
<!-- c39&#45;&#45;h17 -->
<g id="edge38" class="edge"><title>c39&#45;&#45;h17</title>
<path fill="none" stroke="black" d="M1349.96,-400.342C1346.77,-382.219 1342.72,-359.172 1339.8,-342.593"/>
<text text-anchor="middle" x="1345.53" y="-348.287" font-family="Arial" font-size="10.00">holder</text>
<text text-anchor="middle" x="1344.23" y="-389.648" font-family="Arial" font-size="10.00">cards</text>
</g>
<!-- abuMauMauController -->
<g id="node14" class="node"><title>abuMauMauController</title>
<image xlink:href="icons/person1.png" width="32px" height="43px" preserveAspectRatio="xMinYMin meet" x="996" y="-678"/>
<a xlink:href="../examples/org/sdmlib/examples/replication/maumau/MultiMauMauControler.java" xlink:title="&lt;TABLE&gt;">
<polygon fill="none" stroke="black" points="907,-617 907,-633 1117,-633 1117,-617 907,-617"/>
<text text-anchor="start" x="910.5" y="-623" font-family="Arial" font-size="10.00"> </text>
<text text-anchor="start" x="914.5" y="-623" font-family="Arial" font-size="10.00">abuMauMauController :MultiMauMauControler</text>
</a>
</g>
<!-- abuMauMauController&#45;&#45;maumau -->
<g id="edge40" class="edge"><title>abuMauMauController&#45;&#45;maumau</title>
<path fill="none" stroke="black" d="M1046.2,-613.496C1060.5,-599.073 1077.09,-582.339 1091.43,-567.877"/>
<text text-anchor="middle" x="1088.05" y="-574.789" font-family="Arial" font-size="10.00">mauMau</text>
</g>
<!-- abuMauMauController&#45;&#45;abu -->
<g id="edge42" class="edge"><title>abuMauMauController&#45;&#45;abu</title>
<path fill="none" stroke="black" d="M980.025,-613.279C938.684,-563.962 876.531,-471.663 917,-400 934.434,-369.127 969.31,-348.97 998.695,-336.748"/>
<text text-anchor="middle" x="992.078" y="-341.745" font-family="Arial" font-size="10.00">activePlayer</text>
</g>
<!-- c62 -->
<g id="node15" class="node"><title>c62</title>
<a xlink:href="../examples/org/sdmlib/examples/replication/maumau/CardControler.java" xlink:title="&lt;TABLE&gt;">
<polygon fill="none" stroke="black" points="221,-523 221,-540 314,-540 314,-523 221,-523"/>
<text text-anchor="start" x="224.5" y="-529.5" font-family="Arial" font-size="10.00"> </text>
<text text-anchor="start" x="228.5" y="-529.5" font-family="Arial" font-size="10.00">c62 :CardControler</text>
</a>
</g>
<!-- abuMauMauController&#45;&#45;c62 -->
<g id="edge44" class="edge"><title>abuMauMauController&#45;&#45;c62</title>
<path fill="none" stroke="black" d="M924.135,-613.397C912.457,-609.738 900.534,-606.461 889,-604 685.412,-560.556 627.849,-599.008 422,-568 388.31,-562.925 351.052,-554.601 321.51,-547.344"/>
<text text-anchor="middle" x="331.314" y="-542.875" font-family="Arial" font-size="10.00">cardControlers</text>
<text text-anchor="middle" x="914.228" y="-612.256" font-family="Arial" font-size="10.00">mauMauControler</text>
</g>
<!-- c65 -->
<g id="node18" class="node"><title>c65</title>
<a xlink:href="../examples/org/sdmlib/examples/replication/maumau/CardControler.java" xlink:title="&lt;TABLE&gt;">
<polygon fill="none" stroke="black" points="662,-523 662,-540 755,-540 755,-523 662,-523"/>
<text text-anchor="start" x="665.5" y="-529.5" font-family="Arial" font-size="10.00"> </text>
<text text-anchor="start" x="669.5" y="-529.5" font-family="Arial" font-size="10.00">c65 :CardControler</text>
</a>
</g>
<!-- abuMauMauController&#45;&#45;c65 -->
<g id="edge46" class="edge"><title>abuMauMauController&#45;&#45;c65</title>
<path fill="none" stroke="black" d="M920.79,-613.496C865.349,-592.523 796.99,-566.664 752.961,-550.008"/>
<text text-anchor="middle" x="762.933" y="-546.762" font-family="Arial" font-size="10.00">cardControlers</text>
<text text-anchor="middle" x="910.818" y="-611.742" font-family="Arial" font-size="10.00">mauMauControler</text>
</g>
<!-- c68 -->
<g id="node21" class="node"><title>c68</title>
<a xlink:href="../examples/org/sdmlib/examples/replication/maumau/CardControler.java" xlink:title="&lt;TABLE&gt;">
<polygon fill="none" stroke="black" points="1425,-523 1425,-540 1518,-540 1518,-523 1425,-523"/>
<text text-anchor="start" x="1428.5" y="-529.5" font-family="Arial" font-size="10.00"> </text>
<text text-anchor="start" x="1432.5" y="-529.5" font-family="Arial" font-size="10.00">c68 :CardControler</text>
</a>
</g>
<!-- abuMauMauController&#45;&#45;c68 -->
<g id="edge48" class="edge"><title>abuMauMauController&#45;&#45;c68</title>
<path fill="none" stroke="black" d="M1104.25,-613.488C1114.56,-610.083 1124.96,-606.842 1135,-604 1232.95,-576.268 1349.72,-553.944 1416.62,-542.151"/>
<text text-anchor="middle" x="1408.45" y="-545.408" font-family="Arial" font-size="10.00">cardControlers</text>
<text text-anchor="middle" x="1111.54" y="-604.146" font-family="Arial" font-size="10.00">mauMauControler</text>
</g>
<!-- c71 -->
<g id="node24" class="node"><title>c71</title>
<a xlink:href="../examples/org/sdmlib/examples/replication/maumau/CardControler.java" xlink:title="&lt;TABLE&gt;">
<polygon fill="none" stroke="black" points="1615,-523 1615,-540 1708,-540 1708,-523 1615,-523"/>
<text text-anchor="start" x="1618.5" y="-529.5" font-family="Arial" font-size="10.00"> </text>
<text text-anchor="start" x="1622.5" y="-529.5" font-family="Arial" font-size="10.00">c71 :CardControler</text>
</a>
</g>
<!-- abuMauMauController&#45;&#45;c71 -->
<g id="edge50" class="edge"><title>abuMauMauController&#45;&#45;c71</title>
<path fill="none" stroke="black" d="M1100.23,-613.434C1111.8,-609.794 1123.59,-606.512 1135,-604 1308.89,-565.707 1358.81,-599.78 1534,-568 1558.42,-563.571 1584.95,-556.609 1607.42,-550.057"/>
<text text-anchor="middle" x="1599.88" y="-554.127" font-family="Arial" font-size="10.00">cardControlers</text>
<text text-anchor="middle" x="1107.63" y="-604.208" font-family="Arial" font-size="10.00">mauMauControler</text>
</g>
<!-- c74 -->
<g id="node27" class="node"><title>c74</title>
<a xlink:href="../examples/org/sdmlib/examples/replication/maumau/CardControler.java" xlink:title="&lt;TABLE&gt;">
<polygon fill="none" stroke="black" points="1977,-523 1977,-540 2070,-540 2070,-523 1977,-523"/>
<text text-anchor="start" x="1980.5" y="-529.5" font-family="Arial" font-size="10.00"> </text>
<text text-anchor="start" x="1984.5" y="-529.5" font-family="Arial" font-size="10.00">c74 :CardControler</text>
</a>
</g>
<!-- abuMauMauController&#45;&#45;c74 -->
<g id="edge52" class="edge"><title>abuMauMauController&#45;&#45;c74</title>
<path fill="none" stroke="black" d="M1099.15,-613.433C1111.05,-609.716 1123.23,-606.415 1135,-604 1391.92,-551.307 1462.77,-591.255 1724,-568 1809.64,-560.377 1908.68,-548.099 1968.53,-540.296"/>
<text text-anchor="middle" x="1960.09" y="-543.149" font-family="Arial" font-size="10.00">cardControlers</text>
<text text-anchor="middle" x="1106.57" y="-604.225" font-family="Arial" font-size="10.00">mauMauControler</text>
</g>
<!-- c77 -->
<g id="node30" class="node"><title>c77</title>
<a xlink:href="../examples/org/sdmlib/examples/replication/maumau/CardControler.java" xlink:title="&lt;TABLE&gt;">
<polygon fill="none" stroke="black" points="440,-523 440,-540 533,-540 533,-523 440,-523"/>
<text text-anchor="start" x="443.5" y="-529.5" font-family="Arial" font-size="10.00"> </text>
<text text-anchor="start" x="447.5" y="-529.5" font-family="Arial" font-size="10.00">c77 :CardControler</text>
</a>
</g>
<!-- abuMauMauController&#45;&#45;c77 -->
<g id="edge54" class="edge"><title>abuMauMauController&#45;&#45;c77</title>
<path fill="none" stroke="black" d="M921.605,-613.392C910.715,-609.899 899.672,-606.665 889,-604 782.221,-577.335 752.241,-587.914 644,-568 609.322,-561.62 570.673,-553.084 540.28,-546.039"/>
<text text-anchor="middle" x="550.06" y="-541.455" font-family="Arial" font-size="10.00">cardControlers</text>
<text text-anchor="middle" x="911.688" y="-612.174" font-family="Arial" font-size="10.00">mauMauControler</text>
</g>
<!-- c62&#45;&#45;c27 -->
<g id="edge56" class="edge"><title>c62&#45;&#45;c27</title>
<path fill="none" stroke="black" d="M321.528,-516.777C351.076,-509.555 388.333,-501.226 422,-496 606.259,-467.398 655.615,-487.777 840,-460 868.715,-455.674 900.494,-448.885 925.895,-442.963"/>
<text text-anchor="middle" x="918.013" y="-446.618" font-family="Arial" font-size="10.00">card</text>
</g>
<!-- l63 -->
<g id="node16" class="node"><title>l63</title>
<a xlink:href="../../SDMLib/src/org/eclipse/swt/widgets/Label.java" xlink:title="&lt;TABLE&gt;">
<polygon fill="none" stroke="black" points="131,-431 131,-448 220,-448 220,-431 131,-431"/>
<text text-anchor="start" x="152" y="-437.5" font-family="Arial" font-size="10.00"> </text>
<text text-anchor="start" x="156" y="-437.5" font-family="Arial" font-size="10.00">l63 :Label</text>
</a>
<polygon fill="none" stroke="black" points="131,-411 131,-431 220,-431 220,-411 131,-411"/>
<text text-anchor="start" x="136" y="-419" font-family="Arial" font-size="10.00">text = &quot;8 Spades&quot;</text>
</g>
<!-- c62&#45;&#45;l63 -->
<g id="edge58" class="edge"><title>c62&#45;&#45;l63</title>
<path fill="none" stroke="black" d="M250.975,-513.581C235.427,-496.682 211.788,-470.987 195.012,-452.752"/>
<text text-anchor="middle" x="204.259" y="-454.061" font-family="Arial" font-size="10.00">label</text>
</g>
<!-- c64 -->
<g id="node17" class="node"><title>c64</title>
<a xlink:href="../examples/org/sdmlib/examples/replication/maumau/CardListener.java" xlink:title="&lt;TABLE&gt;">
<polygon fill="none" stroke="black" points="8,-421 8,-438 96,-438 96,-421 8,-421"/>
<text text-anchor="start" x="11.5" y="-427.5" font-family="Arial" font-size="10.00"> </text>
<text text-anchor="start" x="15.5" y="-427.5" font-family="Arial" font-size="10.00">c64 :CardListener</text>
</a>
</g>
<!-- c62&#45;&#45;c64 -->
<g id="edge60" class="edge"><title>c62&#45;&#45;c64</title>
<path fill="none" stroke="black" d="M229.6,-513.906C198.379,-499.601 152.728,-478.601 113,-460 104.823,-456.171 96.046,-452.022 87.7702,-448.092"/>
<text text-anchor="middle" x="97.77" y="-445.661" font-family="Arial" font-size="10.00">listener</text>
</g>
<!-- c65&#45;&#45;c33 -->
<g id="edge62" class="edge"><title>c65&#45;&#45;c33</title>
<path fill="none" stroke="black" d="M653.699,-514.636C627.424,-503.674 598.317,-486.315 583,-460 569.585,-436.953 572.372,-424.457 583,-400 618.883,-317.425 705.007,-252.574 759.688,-217.889"/>
<text text-anchor="middle" x="754.418" y="-223.887" font-family="Arial" font-size="10.00">card</text>
</g>
<!-- l66 -->
<g id="node19" class="node"><title>l66</title>
<a xlink:href="../../SDMLib/src/org/eclipse/swt/widgets/Label.java" xlink:title="&lt;TABLE&gt;">
<polygon fill="none" stroke="black" points="723,-431 723,-448 824,-448 824,-431 723,-431"/>
<text text-anchor="start" x="750" y="-437.5" font-family="Arial" font-size="10.00"> </text>
<text text-anchor="start" x="754" y="-437.5" font-family="Arial" font-size="10.00">l66 :Label</text>
</a>
<polygon fill="none" stroke="black" points="723,-411 723,-431 824,-431 824,-411 723,-411"/>
<text text-anchor="start" x="728" y="-419" font-family="Arial" font-size="10.00">text = &quot;Ace Spades&quot;</text>
</g>
<!-- c65&#45;&#45;l66 -->
<g id="edge64" class="edge"><title>c65&#45;&#45;l66</title>
<path fill="none" stroke="black" d="M719.322,-513.581C730.307,-496.682 747.008,-470.987 758.861,-452.752"/>
<text text-anchor="middle" x="757.465" y="-460.155" font-family="Arial" font-size="10.00">label</text>
</g>
<!-- c67 -->
<g id="node20" class="node"><title>c67</title>
<a xlink:href="../examples/org/sdmlib/examples/replication/maumau/CardListener.java" xlink:title="&lt;TABLE&gt;">
<polygon fill="none" stroke="black" points="600,-421 600,-438 688,-438 688,-421 600,-421"/>
<text text-anchor="start" x="603.5" y="-427.5" font-family="Arial" font-size="10.00"> </text>
<text text-anchor="start" x="607.5" y="-427.5" font-family="Arial" font-size="10.00">c67 :CardListener</text>
</a>
</g>
<!-- c65&#45;&#45;c67 -->
<g id="edge66" class="edge"><title>c65&#45;&#45;c67</title>
<path fill="none" stroke="black" d="M696.852,-513.581C685.105,-495.227 666.719,-466.498 655.02,-448.219"/>
<text text-anchor="middle" x="663.465" y="-451.074" font-family="Arial" font-size="10.00">listener</text>
</g>
<!-- c68&#45;&#45;c34 -->
<g id="edge68" class="edge"><title>c68&#45;&#45;c34</title>
<path fill="none" stroke="black" d="M1466.19,-513.778C1450.54,-457.94 1401.56,-284.988 1393,-276 1360.42,-241.795 1333.47,-264.354 1293,-240 1283.16,-234.079 1273.51,-226.231 1265.12,-218.513"/>
<text text-anchor="middle" x="1274.67" y="-218.97" font-family="Arial" font-size="10.00">card</text>
</g>
<!-- l69 -->
<g id="node22" class="node"><title>l69</title>
<a xlink:href="../../SDMLib/src/org/eclipse/swt/widgets/Label.java" xlink:title="&lt;TABLE&gt;">
<polygon fill="none" stroke="black" points="1468,-431 1468,-448 1552,-448 1552,-431 1468,-431"/>
<text text-anchor="start" x="1486.5" y="-437.5" font-family="Arial" font-size="10.00"> </text>
<text text-anchor="start" x="1490.5" y="-437.5" font-family="Arial" font-size="10.00">l69 :Label</text>
</a>
<polygon fill="none" stroke="black" points="1468,-411 1468,-431 1552,-431 1552,-411 1468,-411"/>
<text text-anchor="start" x="1473" y="-419" font-family="Arial" font-size="10.00">text = &quot;7 Hearts&quot;</text>
</g>
<!-- c68&#45;&#45;l69 -->
<g id="edge70" class="edge"><title>c68&#45;&#45;l69</title>
<path fill="none" stroke="black" d="M1477.79,-513.581C1484.38,-496.682 1494.4,-470.987 1501.52,-452.752"/>
<text text-anchor="middle" x="1502.16" y="-460.232" font-family="Arial" font-size="10.00">label</text>
</g>
<!-- c70 -->
<g id="node23" class="node"><title>c70</title>
<a xlink:href="../examples/org/sdmlib/examples/replication/maumau/CardListener.java" xlink:title="&lt;TABLE&gt;">
<polygon fill="none" stroke="black" points="1586,-421 1586,-438 1674,-438 1674,-421 1586,-421"/>
<text text-anchor="start" x="1589.5" y="-427.5" font-family="Arial" font-size="10.00"> </text>
<text text-anchor="start" x="1593.5" y="-427.5" font-family="Arial" font-size="10.00">c70 :CardListener</text>
</a>
</g>
<!-- c68&#45;&#45;c70 -->
<g id="edge72" class="edge"><title>c68&#45;&#45;c70</title>
<path fill="none" stroke="black" d="M1498.33,-513.809C1527.54,-495.437 1573.58,-466.484 1602.76,-448.133"/>
<text text-anchor="middle" x="1597.34" y="-454.036" font-family="Arial" font-size="10.00">listener</text>
</g>
<!-- c71&#45;&#45;c39 -->
<g id="edge74" class="edge"><title>c71&#45;&#45;c39</title>
<path fill="none" stroke="black" d="M1608.74,-513.923C1551.22,-495.124 1459.49,-465.147 1403.51,-446.852"/>
<text text-anchor="middle" x="1413.43" y="-443.15" font-family="Arial" font-size="10.00">card</text>
</g>
<!-- l72 -->
<g id="node25" class="node"><title>l72</title>
<a xlink:href="../../SDMLib/src/org/eclipse/swt/widgets/Label.java" xlink:title="&lt;TABLE&gt;">
<polygon fill="none" stroke="black" points="1708,-431 1708,-448 1816,-448 1816,-431 1708,-431"/>
<text text-anchor="start" x="1738.5" y="-437.5" font-family="Arial" font-size="10.00"> </text>
<text text-anchor="start" x="1742.5" y="-437.5" font-family="Arial" font-size="10.00">l72 :Label</text>
</a>
<polygon fill="none" stroke="black" points="1708,-411 1708,-431 1816,-431 1816,-411 1708,-411"/>
<text text-anchor="start" x="1713" y="-419" font-family="Arial" font-size="10.00">text = &quot;Queen Hearts&quot;</text>
</g>
<!-- c71&#45;&#45;l72 -->
<g id="edge76" class="edge"><title>c71&#45;&#45;l72</title>
<path fill="none" stroke="black" d="M1678.59,-513.581C1695.66,-496.682 1721.61,-470.987 1740.03,-452.752"/>
<text text-anchor="middle" x="1736.56" y="-459.632" font-family="Arial" font-size="10.00">label</text>
</g>
<!-- c73 -->
<g id="node26" class="node"><title>c73</title>
<a xlink:href="../examples/org/sdmlib/examples/replication/maumau/CardListener.java" xlink:title="&lt;TABLE&gt;">
<polygon fill="none" stroke="black" points="1850,-421 1850,-438 1938,-438 1938,-421 1850,-421"/>
<text text-anchor="start" x="1853.5" y="-427.5" font-family="Arial" font-size="10.00"> </text>
<text text-anchor="start" x="1857.5" y="-427.5" font-family="Arial" font-size="10.00">c73 :CardListener</text>
</a>
</g>
<!-- c71&#45;&#45;c73 -->
<g id="edge78" class="edge"><title>c71&#45;&#45;c73</title>
<path fill="none" stroke="black" d="M1704.03,-513.965C1738.98,-499.953 1789.45,-479.327 1833,-460 1841.47,-456.243 1850.52,-452.043 1858.99,-448.031"/>
<text text-anchor="middle" x="1852.6" y="-453.225" font-family="Arial" font-size="10.00">listener</text>
</g>
<!-- c74&#45;&#45;c47 -->
<g id="edge80" class="edge"><title>c74&#45;&#45;c47</title>
<path fill="none" stroke="black" d="M2015.86,-513.553C2002.54,-481.745 1973.59,-416.116 1955,-400 1789.9,-256.845 1521.27,-209.51 1408.02,-195.409"/>
<text text-anchor="middle" x="1417.57" y="-189.96" font-family="Arial" font-size="10.00">card</text>
</g>
<!-- l75 -->
<g id="node28" class="node"><title>l75</title>
<a xlink:href="../../SDMLib/src/org/eclipse/swt/widgets/Label.java" xlink:title="&lt;TABLE&gt;">
<polygon fill="none" stroke="black" points="2011,-431 2011,-448 2134,-448 2134,-431 2011,-431"/>
<text text-anchor="start" x="2049" y="-437.5" font-family="Arial" font-size="10.00"> </text>
<text text-anchor="start" x="2053" y="-437.5" font-family="Arial" font-size="10.00">l75 :Label</text>
</a>
<polygon fill="none" stroke="black" points="2011,-411 2011,-431 2134,-431 2134,-411 2011,-411"/>
<text text-anchor="start" x="2016" y="-419" font-family="Arial" font-size="10.00">text = &quot;Queen Diamonds&quot;</text>
</g>
<!-- c74&#45;&#45;l75 -->
<g id="edge82" class="edge"><title>c74&#45;&#45;l75</title>
<path fill="none" stroke="black" d="M2031.54,-513.581C2039.82,-496.682 2052.41,-470.987 2061.34,-452.752"/>
<text text-anchor="middle" x="2061.15" y="-460.251" font-family="Arial" font-size="10.00">label</text>
</g>
<!-- c76 -->
<g id="node29" class="node"><title>c76</title>
<a xlink:href="../examples/org/sdmlib/examples/replication/maumau/CardListener.java" xlink:title="&lt;TABLE&gt;">
<polygon fill="none" stroke="black" points="2168,-421 2168,-438 2256,-438 2256,-421 2168,-421"/>
<text text-anchor="start" x="2171.5" y="-427.5" font-family="Arial" font-size="10.00"> </text>
<text text-anchor="start" x="2175.5" y="-427.5" font-family="Arial" font-size="10.00">c76 :CardListener</text>
</a>
</g>
<!-- c74&#45;&#45;c76 -->
<g id="edge84" class="edge"><title>c74&#45;&#45;c76</title>
<path fill="none" stroke="black" d="M2055.49,-513.809C2090.21,-495.437 2144.94,-466.484 2179.62,-448.133"/>
<text text-anchor="middle" x="2173.58" y="-453.607" font-family="Arial" font-size="10.00">listener</text>
</g>
<!-- c77&#45;&#45;c48 -->
<g id="edge86" class="edge"><title>c77&#45;&#45;c48</title>
<path fill="none" stroke="black" d="M495.452,-513.934C510.962,-487.092 544.017,-434.52 583,-400 690.883,-304.467 745.855,-321.053 865,-240 874.604,-233.467 884.581,-225.837 893.651,-218.535"/>
<text text-anchor="middle" x="889.217" y="-224.998" font-family="Arial" font-size="10.00">card</text>
</g>
<!-- l78 -->
<g id="node31" class="node"><title>l78</title>
<a xlink:href="../../SDMLib/src/org/eclipse/swt/widgets/Label.java" xlink:title="&lt;TABLE&gt;">
<polygon fill="none" stroke="black" points="254,-431 254,-448 368,-448 368,-431 254,-431"/>
<text text-anchor="start" x="287.5" y="-437.5" font-family="Arial" font-size="10.00"> </text>
<text text-anchor="start" x="291.5" y="-437.5" font-family="Arial" font-size="10.00">l78 :Label</text>
</a>
<polygon fill="none" stroke="black" points="254,-411 254,-431 368,-431 368,-411 254,-411"/>
<text text-anchor="start" x="259" y="-419" font-family="Arial" font-size="10.00">text = &quot;King Diamonds&quot;</text>
</g>
<!-- c77&#45;&#45;l78 -->
<g id="edge88" class="edge"><title>c77&#45;&#45;l78</title>
<path fill="none" stroke="black" d="M455.916,-513.809C426.306,-496.889 380.989,-470.994 348.926,-452.672"/>
<text text-anchor="middle" x="358.892" y="-450.999" font-family="Arial" font-size="10.00">label</text>
</g>
<!-- c79 -->
<g id="node32" class="node"><title>c79</title>
<a xlink:href="../examples/org/sdmlib/examples/replication/maumau/CardListener.java" xlink:title="&lt;TABLE&gt;">
<polygon fill="none" stroke="black" points="402,-421 402,-438 490,-438 490,-421 402,-421"/>
<text text-anchor="start" x="405.5" y="-427.5" font-family="Arial" font-size="10.00"> </text>
<text text-anchor="start" x="409.5" y="-427.5" font-family="Arial" font-size="10.00">c79 :CardListener</text>
</a>
</g>
<!-- c77&#45;&#45;c79 -->
<g id="edge90" class="edge"><title>c77&#45;&#45;c79</title>
<path fill="none" stroke="black" d="M479.033,-513.581C471.691,-495.227 460.199,-466.498 452.888,-448.219"/>
<text text-anchor="middle" x="460.177" y="-452.564" font-family="Arial" font-size="10.00">listener</text>
</g>
<!-- n80 -->
<g id="node33" class="node"><title>n80</title>
<a xlink:href="../examples/org/sdmlib/examples/replication/maumau/NewPlayerHandler.java" xlink:title="&lt;TABLE&gt;">
<polygon fill="none" stroke="black" points="1152,-640 1152,-657 1265,-657 1265,-640 1152,-640"/>
<text text-anchor="start" x="1155.5" y="-646.5" font-family="Arial" font-size="10.00"> </text>
<text text-anchor="start" x="1159.5" y="-646.5" font-family="Arial" font-size="10.00">n80 :NewPlayerHandler</text>
</a>
</g>
<!-- n81 -->
<g id="node34" class="node"><title>n81</title>
<a xlink:href="../examples/org/sdmlib/examples/replication/maumau/NewCardHandler.java" xlink:title="&lt;TABLE&gt;">
<polygon fill="none" stroke="black" points="1299,-640 1299,-657 1404,-657 1404,-640 1299,-640"/>
<text text-anchor="start" x="1302.5" y="-646.5" font-family="Arial" font-size="10.00"> </text>
<text text-anchor="start" x="1306.5" y="-646.5" font-family="Arial" font-size="10.00">n81 :NewCardHandler</text>
</a>
</g>
<!-- n82 -->
<g id="node35" class="node"><title>n82</title>
<a xlink:href="../examples/org/sdmlib/examples/replication/maumau/NewDutyHandler.java" xlink:title="&lt;TABLE&gt;">
<polygon fill="none" stroke="black" points="1438,-640 1438,-657 1543,-657 1543,-640 1438,-640"/>
<text text-anchor="start" x="1441.5" y="-646.5" font-family="Arial" font-size="10.00"> </text>
<text text-anchor="start" x="1445.5" y="-646.5" font-family="Arial" font-size="10.00">n82 :NewDutyHandler</text>
</a>
</g>
</g>
</svg>
