<?xml version="1.0" encoding="UTF-8" standalone="no"?>
<!DOCTYPE svg PUBLIC "-//W3C//DTD SVG 1.1//EN"
 "http://www.w3.org/Graphics/SVG/1.1/DTD/svg11.dtd">
<!-- Generated by graphviz version 2.28.0 (20110507.0327)
 -->
<!-- Title: ObjectDiagram Pages: 1 -->
<svg width="264pt" height="542pt"
 viewBox="0.00 0.00 264.00 542.00" xmlns="http://www.w3.org/2000/svg" xmlns:xlink="http://www.w3.org/1999/xlink">
<g id="graph1" class="graph" transform="scale(1 1) rotate(0) translate(4 538)">
<title>ObjectDiagram</title>
<polygon fill="white" stroke="white" points="-4,5 -4,-538 261,-538 261,5 -4,5"/>
<!-- c105 -->
<g id="node1" class="node"><title>c105</title>
<image xlink:href="icons/worker.png" width="80px" height="61px" preserveAspectRatio="xMinYMin meet" x="10" y="-527"/>
<a xlink:href="../examples/org/sdmlib/examples/replication/maumau/CardListener.java" xlink:title="&lt;TABLE&gt;">
<polygon fill="none" stroke="black" points="8,-448 8,-464 92,-464 92,-448 8,-448"/>
<text text-anchor="start" x="11.5" y="-454" font-family="Times New Roman,serif" font-size="10.00"> </text>
<text text-anchor="start" x="14.5" y="-454" font-family="Times New Roman,serif" font-size="10.00">c105 :CardListener</text>
</a>
</g>
<!-- h56 -->
<g id="node2" class="node"><title>h56</title>
<a xlink:href="../examples/org/sdmlib/examples/replication/maumau/Holder.java" xlink:title="&lt;TABLE&gt;">
<polygon fill="none" stroke="black" points="126,-480 126,-497 182,-497 182,-480 126,-480"/>
<text text-anchor="start" x="129.5" y="-486.5" font-family="Times New Roman,serif" font-size="10.00"> </text>
<text text-anchor="start" x="132.5" y="-486.5" font-family="Times New Roman,serif" font-size="10.00">h56 :Holder</text>
</a>
</g>
<!-- c73 -->
<g id="node3" class="node"><title>c73</title>
<a xlink:href="../examples/org/sdmlib/examples/replication/maumau/Card.java" xlink:title="&lt;TABLE&gt;">
<polygon fill="none" stroke="black" points="82,-386 82,-403 154,-403 154,-386 82,-386"/>
<text text-anchor="start" x="98" y="-392.5" font-family="Times New Roman,serif" font-size="10.00"> </text>
<text text-anchor="start" x="101" y="-392.5" font-family="Times New Roman,serif" font-size="10.00">c73 :Card</text>
</a>
<polygon fill="none" stroke="black" points="82,-352 82,-386 154,-386 154,-352 82,-352"/>
<text text-anchor="start" x="87" y="-374" font-family="Times New Roman,serif" font-size="10.00">suit = &quot;Hearts&quot;</text>
<text text-anchor="start" x="87" y="-360" font-family="Times New Roman,serif" font-size="10.00">value = &quot;7&quot;</text>
</g>
<!-- h56&#45;&#45;c73 -->
<g id="edge2" class="edge"><title>h56&#45;&#45;c73</title>
<path fill="none" stroke="black" d="M148.375,-470.969C142.798,-454.084 134.15,-427.899 127.506,-407.781"/>
<text text-anchor="middle" x="134.361" y="-412.562" font-family="Times New Roman,serif" font-size="10.00">cards</text>
<text text-anchor="middle" x="141.52" y="-461.188" font-family="Times New Roman,serif" font-size="10.00">holder</text>
</g>
<!-- maumau -->
<g id="node4" class="node"><title>maumau</title>
<image xlink:href="icons/shared.png" width="70px" height="23px" preserveAspectRatio="xMinYMin meet" x="119" y="-305"/>
<a xlink:href="../examples/org/sdmlib/examples/replication/maumau/MauMau.java" xlink:title="&lt;TABLE&gt;">
<polygon fill="none" stroke="black" points="111,-264 111,-280 197,-280 197,-264 111,-264"/>
<text text-anchor="start" x="114.5" y="-270" font-family="Times New Roman,serif" font-size="10.00"> </text>
<text text-anchor="start" x="117.5" y="-270" font-family="Times New Roman,serif" font-size="10.00">maumau :MauMau</text>
</a>
</g>
<!-- h56&#45;&#45;maumau -->
<g id="edge4" class="edge"><title>h56&#45;&#45;maumau</title>
<path fill="none" stroke="black" d="M158.696,-471C162.879,-454.917 168.685,-430.029 171,-408 173.787,-381.479 174.613,-374.421 171,-348 169.332,-335.8 165.869,-322.6 162.502,-311.609"/>
<text text-anchor="middle" x="169.16" y="-316.57" font-family="Times New Roman,serif" font-size="10.00">stackOwner</text>
<text text-anchor="middle" x="156.847" y="-458.672" font-family="Times New Roman,serif" font-size="10.00">stack</text>
</g>
<!-- c73&#45;&#45;maumau -->
<g id="edge6" class="edge"><title>c73&#45;&#45;maumau</title>
<path fill="none" stroke="black" d="M129.589,-348.028C134.275,-336.312 139.629,-322.928 144.126,-311.686"/>
<text text-anchor="middle" x="144.684" y="-319.17" font-family="Times New Roman,serif" font-size="10.00">game</text>
<text text-anchor="middle" x="129.031" y="-335.544" font-family="Times New Roman,serif" font-size="10.00">cards</text>
</g>
<!-- abu -->
<g id="node5" class="node"><title>abu</title>
<a xlink:href="../examples/org/sdmlib/examples/replication/maumau/Player.java" xlink:title="&lt;TABLE&gt;">
<polygon fill="none" stroke="black" points="85,-202 85,-219 154,-219 154,-202 85,-202"/>
<text text-anchor="start" x="95.5" y="-208.5" font-family="Times New Roman,serif" font-size="10.00"> </text>
<text text-anchor="start" x="98.5" y="-208.5" font-family="Times New Roman,serif" font-size="10.00">abu :Player</text>
</a>
<polygon fill="none" stroke="black" points="85,-182 85,-202 154,-202 154,-182 85,-182"/>
<text text-anchor="start" x="90" y="-190" font-family="Times New Roman,serif" font-size="10.00">name = &quot;Abu&quot;</text>
</g>
<!-- maumau&#45;&#45;abu -->
<g id="edge8" class="edge"><title>maumau&#45;&#45;abu</title>
<path fill="none" stroke="black" d="M143.499,-260.097C138.586,-248.446 132.791,-234.705 128.072,-223.513"/>
<text text-anchor="middle" x="135.487" y="-227.722" font-family="Times New Roman,serif" font-size="10.00">players</text>
<text text-anchor="middle" x="136.083" y="-250.888" font-family="Times New Roman,serif" font-size="10.00">game</text>
</g>
<!-- p50 -->
<g id="node6" class="node"><title>p50</title>
<a xlink:href="../examples/org/sdmlib/examples/replication/maumau/Player.java" xlink:title="&lt;TABLE&gt;">
<polygon fill="none" stroke="black" points="122,-120 122,-137 192,-137 192,-120 122,-120"/>
<text text-anchor="start" x="133.5" y="-126.5" font-family="Times New Roman,serif" font-size="10.00"> </text>
<text text-anchor="start" x="136.5" y="-126.5" font-family="Times New Roman,serif" font-size="10.00">p50 :Player</text>
</a>
<polygon fill="none" stroke="black" points="122,-100 122,-120 192,-120 192,-100 122,-100"/>
<text text-anchor="start" x="127" y="-108" font-family="Times New Roman,serif" font-size="10.00">name = &quot;Karli&quot;</text>
</g>
<!-- maumau&#45;&#45;p50 -->
<g id="edge10" class="edge"><title>maumau&#45;&#45;p50</title>
<path fill="none" stroke="black" d="M162.003,-260.355C165.173,-249.358 168.432,-236.162 170,-224 172.615,-203.723 172.249,-198.32 170,-178 168.649,-165.795 165.745,-152.404 163.024,-141.567"/>
<text text-anchor="middle" x="169.298" y="-146.854" font-family="Times New Roman,serif" font-size="10.00">players_currentMove</text>
<text text-anchor="middle" x="160.406" y="-247.984" font-family="Times New Roman,serif" font-size="10.00">game_assignment</text>
</g>
<!-- p52 -->
<g id="node7" class="node"><title>p52</title>
<a xlink:href="../examples/org/sdmlib/examples/replication/maumau/Player.java" xlink:title="&lt;TABLE&gt;">
<polygon fill="none" stroke="black" points="47,-31 47,-48 125,-48 125,-31 47,-31"/>
<text text-anchor="start" x="62.5" y="-37.5" font-family="Times New Roman,serif" font-size="10.00"> </text>
<text text-anchor="start" x="65.5" y="-37.5" font-family="Times New Roman,serif" font-size="10.00">p52 :Player</text>
</a>
<polygon fill="none" stroke="black" points="47,-11 47,-31 125,-31 125,-11 47,-11"/>
<text text-anchor="start" x="52" y="-19" font-family="Times New Roman,serif" font-size="10.00">name = &quot;Sabine&quot;</text>
</g>
<!-- maumau&#45;&#45;p52 -->
<g id="edge12" class="edge"><title>maumau&#45;&#45;p52</title>
<path fill="none" stroke="black" d="M102.732,-260.813C88.5632,-251.432 74.9168,-239.22 67,-224 37.7902,-167.845 61.7291,-90.0815 76.5076,-52.7317"/>
<text text-anchor="middle" x="77.2734" y="-60.2024" font-family="Times New Roman,serif" font-size="10.00">players</text>
<text text-anchor="middle" x="92.8667" y="-256.674" font-family="Times New Roman,serif" font-size="10.00">game</text>
</g>
<!-- draw2 -->
<g id="node8" class="node"><title>draw2</title>
<a xlink:href="../examples/org/sdmlib/examples/replication/maumau/Duty.java" xlink:title="&lt;TABLE&gt;">
<polygon fill="none" stroke="black" points="176,-38 176,-55 249,-55 249,-38 176,-38"/>
<text text-anchor="start" x="186.5" y="-44.5" font-family="Times New Roman,serif" font-size="10.00"> </text>
<text text-anchor="start" x="189.5" y="-44.5" font-family="Times New Roman,serif" font-size="10.00">draw2 :Duty</text>
</a>
<polygon fill="none" stroke="black" points="176,-4 176,-38 249,-38 249,-4 176,-4"/>
<text text-anchor="start" x="181" y="-26" font-family="Times New Roman,serif" font-size="10.00">kind = &quot;Draw2&quot;</text>
<text text-anchor="start" x="181" y="-12" font-family="Times New Roman,serif" font-size="10.00">number = 2</text>
</g>
<!-- maumau&#45;&#45;draw2 -->
<g id="edge14" class="edge"><title>maumau&#45;&#45;draw2</title>
<path fill="none" stroke="black" d="M167.185,-260.479C172.791,-249.504 179.14,-236.292 184,-224 198.008,-188.568 202.874,-179.605 209,-142 213.494,-114.411 213.86,-82.4643 213.332,-59.9477"/>
<text text-anchor="middle" x="217.723" y="-66.4321" font-family="Times New Roman,serif" font-size="10.00">duty</text>
<text text-anchor="middle" x="167.514" y="-247.984" font-family="Times New Roman,serif" font-size="10.00">game</text>
</g>
<!-- abu&#45;&#45;p50 -->
<g id="edge16" class="edge"><title>abu&#45;&#45;p50</title>
<path fill="none" stroke="black" d="M129.384,-178.14C134.789,-166.759 141.376,-152.893 146.76,-141.557"/>
<text text-anchor="middle" x="146.689" y="-149.057" font-family="Times New Roman,serif" font-size="10.00">next</text>
<text text-anchor="middle" x="129.455" y="-165.64" font-family="Times New Roman,serif" font-size="10.00">prev</text>
</g>
<!-- abu&#45;&#45;p52 -->
<g id="edge18" class="edge"><title>abu&#45;&#45;p52</title>
<path fill="none" stroke="black" d="M113.4,-178.319C110.687,-167.455 107.487,-154.073 105,-142 98.6481,-111.17 92.7708,-75.2155 89.2834,-52.7759"/>
<text text-anchor="middle" x="94.8623" y="-58.5751" font-family="Times New Roman,serif" font-size="10.00">prev</text>
<text text-anchor="middle" x="107.114" y="-168.042" font-family="Times New Roman,serif" font-size="10.00">next</text>
</g>
<!-- p50&#45;&#45;p52 -->
<g id="edge20" class="edge"><title>p50&#45;&#45;p52</title>
<path fill="none" stroke="black" d="M139.449,-96.4944C128.526,-83.1096 114.526,-65.9547 103.595,-52.5597"/>
<text text-anchor="middle" x="112.599" y="-54.4093" font-family="Times New Roman,serif" font-size="10.00">next</text>
<text text-anchor="middle" x="130.445" y="-89.6448" font-family="Times New Roman,serif" font-size="10.00">prev</text>
</g>
<!-- p50&#45;&#45;draw2 -->
<g id="edge22" class="edge"><title>p50&#45;&#45;draw2</title>
<path fill="none" stroke="black" d="M170.596,-96.4944C177.594,-85.4243 186.223,-71.7752 193.788,-59.8074"/>
<text text-anchor="middle" x="192.518" y="-67.2263" font-family="Times New Roman,serif" font-size="10.00">duty</text>
<text text-anchor="middle" x="171.866" y="-84.0754" font-family="Times New Roman,serif" font-size="10.00">player</text>
</g>
</g>
</svg>
