<?xml version="1.0" encoding="UTF-8" standalone="no"?>
<!DOCTYPE svg PUBLIC "-//W3C//DTD SVG 1.1//EN"
 "http://www.w3.org/Graphics/SVG/1.1/DTD/svg11.dtd">
<!-- Generated by graphviz version 2.28.0 (20110507.0327)
 -->
<!-- Title: ObjectDiagram Pages: 1 -->
<svg width="2169pt" height="542pt"
 viewBox="0.00 0.00 2169.00 542.00" xmlns="http://www.w3.org/2000/svg" xmlns:xlink="http://www.w3.org/1999/xlink">
<g id="graph1" class="graph" transform="scale(1 1) rotate(0) translate(4 538)">
<title>ObjectDiagram</title>
<polygon fill="white" stroke="white" points="-4,5 -4,-538 2166,-538 2166,5 -4,5"/>
<!-- abuNode -->
<g id="node1" class="node"><title>abuNode</title>
<image xlink:href="icons/node.png" width="83px" height="61px" preserveAspectRatio="xMinYMin meet" x="546" y="-527"/>
<a xlink:href="../../SDMLib/src/org/sdmlib/replication/Node.java" xlink:title="&lt;TABLE&gt;">
<polygon fill="none" stroke="black" points="544,-448 544,-464 631,-464 631,-448 544,-448"/>
<text text-anchor="start" x="554" y="-454" font-family="Times New Roman,serif" font-size="10.00"> </text>
<text text-anchor="start" x="557" y="-454" font-family="Times New Roman,serif" font-size="10.00">abuNode :Node</text>
</a>
</g>
<!-- c55 -->
<g id="node2" class="node"><title>c55</title>
<image xlink:href="icons/worker.png" width="80px" height="61px" preserveAspectRatio="xMinYMin meet" x="706" y="-527"/>
<a xlink:href="../examples/org/sdmlib/examples/replication/maumau/CardsAreDeltScreenDumpAction.java" xlink:title="&lt;TABLE&gt;">
<polygon fill="none" stroke="black" points="665,-448 665,-464 827,-464 827,-448 665,-448"/>
<text text-anchor="start" x="668.5" y="-454" font-family="Times New Roman,serif" font-size="10.00"> </text>
<text text-anchor="start" x="671.5" y="-454" font-family="Times New Roman,serif" font-size="10.00">c55 :CardsAreDeltScreenDumpAction</text>
</a>
</g>
<!-- maumau -->
<g id="node3" class="node"><title>maumau</title>
<image xlink:href="icons/shared.png" width="70px" height="23px" preserveAspectRatio="xMinYMin meet" x="1040" y="-401"/>
<a xlink:href="../examples/org/sdmlib/examples/replication/maumau/MauMau.java" xlink:title="&lt;TABLE&gt;">
<polygon fill="none" stroke="black" points="1032,-360 1032,-376 1118,-376 1118,-360 1032,-360"/>
<text text-anchor="start" x="1035.5" y="-366" font-family="Times New Roman,serif" font-size="10.00"> </text>
<text text-anchor="start" x="1038.5" y="-366" font-family="Times New Roman,serif" font-size="10.00">maumau :MauMau</text>
</a>
</g>
<!-- c27 -->
<g id="node4" class="node"><title>c27</title>
<a xlink:href="../examples/org/sdmlib/examples/replication/maumau/Card.java" xlink:title="&lt;TABLE&gt;">
<polygon fill="none" stroke="black" points="888,-298 888,-315 963,-315 963,-298 888,-298"/>
<text text-anchor="start" x="905.5" y="-304.5" font-family="Times New Roman,serif" font-size="10.00"> </text>
<text text-anchor="start" x="908.5" y="-304.5" font-family="Times New Roman,serif" font-size="10.00">c27 :Card</text>
</a>
<polygon fill="none" stroke="black" points="888,-264 888,-298 963,-298 963,-264 888,-264"/>
<text text-anchor="start" x="893" y="-286" font-family="Times New Roman,serif" font-size="10.00">suit = &quot;Spades&quot;</text>
<text text-anchor="start" x="893" y="-272" font-family="Times New Roman,serif" font-size="10.00">value = &quot;8&quot;</text>
</g>
<!-- maumau&#45;&#45;c27 -->
<g id="edge2" class="edge"><title>maumau&#45;&#45;c27</title>
<path fill="none" stroke="black" d="M1034.01,-356.407C1014.32,-344.593 990.662,-330.397 970.425,-318.255"/>
<text text-anchor="middle" x="980.371" y="-316.794" font-family="Times New Roman,serif" font-size="10.00">cards</text>
<text text-anchor="middle" x="1024.07" y="-352.868" font-family="Times New Roman,serif" font-size="10.00">game</text>
</g>
<!-- abu -->
<g id="node5" class="node"><title>abu</title>
<a xlink:href="../examples/org/sdmlib/examples/replication/maumau/Player.java" xlink:title="&lt;TABLE&gt;">
<polygon fill="none" stroke="black" points="970,-202 970,-219 1039,-219 1039,-202 970,-202"/>
<text text-anchor="start" x="980.5" y="-208.5" font-family="Times New Roman,serif" font-size="10.00"> </text>
<text text-anchor="start" x="983.5" y="-208.5" font-family="Times New Roman,serif" font-size="10.00">abu :Player</text>
</a>
<polygon fill="none" stroke="black" points="970,-182 970,-202 1039,-202 1039,-182 970,-182"/>
<text text-anchor="start" x="975" y="-190" font-family="Times New Roman,serif" font-size="10.00">name = &quot;Abu&quot;</text>
</g>
<!-- maumau&#45;&#45;abu -->
<g id="edge16" class="edge"><title>maumau&#45;&#45;abu</title>
<path fill="none" stroke="black" d="M1065.28,-356.486C1051.34,-321.346 1025.9,-257.208 1012.61,-223.698"/>
<text text-anchor="middle" x="1019.88" y="-228.064" font-family="Times New Roman,serif" font-size="10.00">players_currentMove</text>
<text text-anchor="middle" x="1058.01" y="-347.12" font-family="Times New Roman,serif" font-size="10.00">game_assignment</text>
</g>
<!-- c48 -->
<g id="node6" class="node"><title>c48</title>
<a xlink:href="../examples/org/sdmlib/examples/replication/maumau/Card.java" xlink:title="&lt;TABLE&gt;">
<polygon fill="none" stroke="black" points="849,-120 849,-137 935,-137 935,-120 849,-120"/>
<text text-anchor="start" x="872" y="-126.5" font-family="Times New Roman,serif" font-size="10.00"> </text>
<text text-anchor="start" x="875" y="-126.5" font-family="Times New Roman,serif" font-size="10.00">c48 :Card</text>
</a>
<polygon fill="none" stroke="black" points="849,-86 849,-120 935,-120 935,-86 849,-86"/>
<text text-anchor="start" x="854" y="-108" font-family="Times New Roman,serif" font-size="10.00">suit = &quot;Diamonds&quot;</text>
<text text-anchor="start" x="854" y="-94" font-family="Times New Roman,serif" font-size="10.00">value = &quot;King&quot;</text>
</g>
<!-- maumau&#45;&#45;c48 -->
<g id="edge12" class="edge"><title>maumau&#45;&#45;c48</title>
<path fill="none" stroke="black" d="M1053.82,-356.345C1044.52,-345.346 1033.56,-332.151 1024,-320 1015.8,-309.573 960.155,-235.172 953,-224 935.685,-196.966 918.279,-164.664 906.518,-141.896"/>
<text text-anchor="middle" x="914.448" y="-145.488" font-family="Times New Roman,serif" font-size="10.00">cards</text>
<text text-anchor="middle" x="1044.74" y="-349.644" font-family="Times New Roman,serif" font-size="10.00">game</text>
</g>
<!-- c33 -->
<g id="node7" class="node"><title>c33</title>
<a xlink:href="../examples/org/sdmlib/examples/replication/maumau/Card.java" xlink:title="&lt;TABLE&gt;">
<polygon fill="none" stroke="black" points="740,-120 740,-137 815,-137 815,-120 740,-120"/>
<text text-anchor="start" x="757.5" y="-126.5" font-family="Times New Roman,serif" font-size="10.00"> </text>
<text text-anchor="start" x="760.5" y="-126.5" font-family="Times New Roman,serif" font-size="10.00">c33 :Card</text>
</a>
<polygon fill="none" stroke="black" points="740,-86 740,-120 815,-120 815,-86 740,-86"/>
<text text-anchor="start" x="745" y="-108" font-family="Times New Roman,serif" font-size="10.00">suit = &quot;Spades&quot;</text>
<text text-anchor="start" x="745" y="-94" font-family="Times New Roman,serif" font-size="10.00">value = &quot;Ace&quot;</text>
</g>
<!-- maumau&#45;&#45;c33 -->
<g id="edge4" class="edge"><title>maumau&#45;&#45;c33</title>
<path fill="none" stroke="black" d="M1023.64,-377.438C978.579,-371.809 913.751,-357.311 871,-320 816.284,-272.247 791.662,-186.203 782.14,-141.58"/>
<text text-anchor="middle" x="788.279" y="-146.974" font-family="Times New Roman,serif" font-size="10.00">cards</text>
<text text-anchor="middle" x="1014.08" y="-377.867" font-family="Times New Roman,serif" font-size="10.00">game</text>
</g>
<!-- c34 -->
<g id="node8" class="node"><title>c34</title>
<a xlink:href="../examples/org/sdmlib/examples/replication/maumau/Card.java" xlink:title="&lt;TABLE&gt;">
<polygon fill="none" stroke="black" points="1149,-120 1149,-137 1221,-137 1221,-120 1149,-120"/>
<text text-anchor="start" x="1165" y="-126.5" font-family="Times New Roman,serif" font-size="10.00"> </text>
<text text-anchor="start" x="1168" y="-126.5" font-family="Times New Roman,serif" font-size="10.00">c34 :Card</text>
</a>
<polygon fill="none" stroke="black" points="1149,-86 1149,-120 1221,-120 1221,-86 1149,-86"/>
<text text-anchor="start" x="1154" y="-108" font-family="Times New Roman,serif" font-size="10.00">suit = &quot;Hearts&quot;</text>
<text text-anchor="start" x="1154" y="-94" font-family="Times New Roman,serif" font-size="10.00">value = &quot;7&quot;</text>
</g>
<!-- maumau&#45;&#45;c34 -->
<g id="edge6" class="edge"><title>maumau&#45;&#45;c34</title>
<path fill="none" stroke="black" d="M1100.23,-356.417C1109.77,-345.954 1120,-333.141 1127,-320 1158.5,-260.877 1174.34,-182.895 1181,-141.568"/>
<text text-anchor="middle" x="1183.65" y="-148.71" font-family="Times New Roman,serif" font-size="10.00">cards</text>
<text text-anchor="middle" x="1103.13" y="-344.349" font-family="Times New Roman,serif" font-size="10.00">game</text>
</g>
<!-- c47 -->
<g id="node9" class="node"><title>c47</title>
<a xlink:href="../examples/org/sdmlib/examples/replication/maumau/Card.java" xlink:title="&lt;TABLE&gt;">
<polygon fill="none" stroke="black" points="1255,-120 1255,-137 1341,-137 1341,-120 1255,-120"/>
<text text-anchor="start" x="1278" y="-126.5" font-family="Times New Roman,serif" font-size="10.00"> </text>
<text text-anchor="start" x="1281" y="-126.5" font-family="Times New Roman,serif" font-size="10.00">c47 :Card</text>
</a>
<polygon fill="none" stroke="black" points="1255,-86 1255,-120 1341,-120 1341,-86 1255,-86"/>
<text text-anchor="start" x="1260" y="-108" font-family="Times New Roman,serif" font-size="10.00">suit = &quot;Diamonds&quot;</text>
<text text-anchor="start" x="1260" y="-94" font-family="Times New Roman,serif" font-size="10.00">value = &quot;Queen&quot;</text>
</g>
<!-- maumau&#45;&#45;c47 -->
<g id="edge10" class="edge"><title>maumau&#45;&#45;c47</title>
<path fill="none" stroke="black" d="M1112.51,-356.361C1126.29,-346.167 1141.35,-333.558 1153,-320 1200.22,-265.07 1189.21,-235.7 1233,-178 1242.74,-165.161 1254.92,-152.335 1266.09,-141.51"/>
<text text-anchor="middle" x="1262.57" y="-148.37" font-family="Times New Roman,serif" font-size="10.00">cards</text>
<text text-anchor="middle" x="1117.22" y="-345.039" font-family="Times New Roman,serif" font-size="10.00">game</text>
</g>
<!-- p9 -->
<g id="node10" class="node"><title>p9</title>
<a xlink:href="../examples/org/sdmlib/examples/replication/maumau/Player.java" xlink:title="&lt;TABLE&gt;">
<polygon fill="none" stroke="black" points="1007,-113 1007,-130 1077,-130 1077,-113 1007,-113"/>
<text text-anchor="start" x="1020.5" y="-119.5" font-family="Times New Roman,serif" font-size="10.00"> </text>
<text text-anchor="start" x="1023.5" y="-119.5" font-family="Times New Roman,serif" font-size="10.00">p9 :Player</text>
</a>
<polygon fill="none" stroke="black" points="1007,-93 1007,-113 1077,-113 1077,-93 1007,-93"/>
<text text-anchor="start" x="1012" y="-101" font-family="Times New Roman,serif" font-size="10.00">name = &quot;Karli&quot;</text>
</g>
<!-- maumau&#45;&#45;p9 -->
<g id="edge18" class="edge"><title>maumau&#45;&#45;p9</title>
<path fill="none" stroke="black" d="M1073.35,-356.216C1070.63,-317.874 1064.52,-241.925 1055,-178 1052.83,-163.43 1049.58,-147.18 1046.87,-134.573"/>
<text text-anchor="middle" x="1052.89" y="-140.058" font-family="Times New Roman,serif" font-size="10.00">players</text>
<text text-anchor="middle" x="1068.48" y="-344.985" font-family="Times New Roman,serif" font-size="10.00">game</text>
</g>
<!-- p11 -->
<g id="node11" class="node"><title>p11</title>
<a xlink:href="../examples/org/sdmlib/examples/replication/maumau/Player.java" xlink:title="&lt;TABLE&gt;">
<polygon fill="none" stroke="black" points="1003,-24 1003,-41 1081,-41 1081,-24 1003,-24"/>
<text text-anchor="start" x="1018.5" y="-30.5" font-family="Times New Roman,serif" font-size="10.00"> </text>
<text text-anchor="start" x="1021.5" y="-30.5" font-family="Times New Roman,serif" font-size="10.00">p11 :Player</text>
</a>
<polygon fill="none" stroke="black" points="1003,-4 1003,-24 1081,-24 1081,-4 1003,-4"/>
<text text-anchor="start" x="1008" y="-12" font-family="Times New Roman,serif" font-size="10.00">name = &quot;Sabine&quot;</text>
</g>
<!-- maumau&#45;&#45;p11 -->
<g id="edge20" class="edge"><title>maumau&#45;&#45;p11</title>
<path fill="none" stroke="black" d="M1083.27,-356.326C1099.47,-303.811 1130.71,-177.944 1094,-82 1088.68,-68.1062 1078.34,-55.4437 1068.26,-45.5197"/>
<text text-anchor="middle" x="1077.64" y="-46.4902" font-family="Times New Roman,serif" font-size="10.00">players</text>
<text text-anchor="middle" x="1081.77" y="-343.94" font-family="Times New Roman,serif" font-size="10.00">game</text>
</g>
<!-- c39 -->
<g id="node12" class="node"><title>c39</title>
<a xlink:href="../examples/org/sdmlib/examples/replication/maumau/Card.java" xlink:title="&lt;TABLE&gt;">
<polygon fill="none" stroke="black" points="1263,-298 1263,-315 1341,-315 1341,-298 1263,-298"/>
<text text-anchor="start" x="1282" y="-304.5" font-family="Times New Roman,serif" font-size="10.00"> </text>
<text text-anchor="start" x="1285" y="-304.5" font-family="Times New Roman,serif" font-size="10.00">c39 :Card</text>
</a>
<polygon fill="none" stroke="black" points="1263,-264 1263,-298 1341,-298 1341,-264 1263,-264"/>
<text text-anchor="start" x="1268" y="-286" font-family="Times New Roman,serif" font-size="10.00">suit = &quot;Hearts&quot;</text>
<text text-anchor="start" x="1268" y="-272" font-family="Times New Roman,serif" font-size="10.00">value = &quot;Queen&quot;</text>
</g>
<!-- maumau&#45;&#45;c39 -->
<g id="edge8" class="edge"><title>maumau&#45;&#45;c39</title>
<path fill="none" stroke="black" d="M1126.33,-363.507C1159.37,-351.911 1203.07,-335.945 1241,-320 1245.54,-318.091 1250.23,-316.028 1254.9,-313.913"/>
<text text-anchor="middle" x="1248.38" y="-318.994" font-family="Times New Roman,serif" font-size="10.00">cards</text>
<text text-anchor="middle" x="1133.47" y="-354.005" font-family="Times New Roman,serif" font-size="10.00">game</text>
</g>
<!-- h17 -->
<g id="node13" class="node"><title>h17</title>
<a xlink:href="../examples/org/sdmlib/examples/replication/maumau/Holder.java" xlink:title="&lt;TABLE&gt;">
<polygon fill="none" stroke="black" points="1250,-192 1250,-209 1306,-209 1306,-192 1250,-192"/>
<text text-anchor="start" x="1253.5" y="-198.5" font-family="Times New Roman,serif" font-size="10.00"> </text>
<text text-anchor="start" x="1256.5" y="-198.5" font-family="Times New Roman,serif" font-size="10.00">h17 :Holder</text>
</a>
</g>
<!-- maumau&#45;&#45;h17 -->
<g id="edge14" class="edge"><title>maumau&#45;&#45;h17</title>
<path fill="none" stroke="black" d="M1126.27,-364.224C1151.38,-354.209 1180.88,-339.582 1203,-320 1220.08,-304.875 1252.52,-248.326 1268.55,-219.352"/>
<text text-anchor="middle" x="1267.83" y="-226.826" font-family="Times New Roman,serif" font-size="10.00">stack</text>
<text text-anchor="middle" x="1133.04" y="-354.371" font-family="Times New Roman,serif" font-size="10.00">stackOwner</text>
</g>
<!-- c27&#45;&#45;abu -->
<g id="edge22" class="edge"><title>c27&#45;&#45;abu</title>
<path fill="none" stroke="black" d="M951.306,-260.03C962.078,-248.167 974.33,-234.675 984.307,-223.687"/>
<text text-anchor="middle" x="981.343" y="-230.738" font-family="Times New Roman,serif" font-size="10.00">holder</text>
<text text-anchor="middle" x="954.27" y="-247.98" font-family="Times New Roman,serif" font-size="10.00">cards</text>
</g>
<!-- abu&#45;&#45;c48 -->
<g id="edge24" class="edge"><title>abu&#45;&#45;c48</title>
<path fill="none" stroke="black" d="M976.315,-178.494C962.063,-167.424 944.492,-153.775 929.085,-141.807"/>
<text text-anchor="middle" x="938.835" y="-141.53" font-family="Times New Roman,serif" font-size="10.00">cards</text>
<text text-anchor="middle" x="966.565" y="-173.772" font-family="Times New Roman,serif" font-size="10.00">holder</text>
</g>
<!-- abu&#45;&#45;c33 -->
<g id="edge26" class="edge"><title>abu&#45;&#45;c33</title>
<path fill="none" stroke="black" d="M961.59,-187.774C926.339,-177.122 875.152,-160.511 832,-142 828.825,-140.638 825.585,-139.164 822.345,-137.626"/>
<text text-anchor="middle" x="832.345" y="-135.178" font-family="Times New Roman,serif" font-size="10.00">cards</text>
<text text-anchor="middle" x="951.687" y="-186.667" font-family="Times New Roman,serif" font-size="10.00">holder</text>
</g>
<!-- abu&#45;&#45;c34 -->
<g id="edge28" class="edge"><title>abu&#45;&#45;c34</title>
<path fill="none" stroke="black" d="M1046.44,-179.602C1074.86,-165.941 1112.19,-147.998 1140.94,-134.178"/>
<text text-anchor="middle" x="1134.6" y="-139.414" font-family="Times New Roman,serif" font-size="10.00">cards</text>
<text text-anchor="middle" x="1052.77" y="-169.367" font-family="Times New Roman,serif" font-size="10.00">holder</text>
</g>
<!-- abu&#45;&#45;c47 -->
<g id="edge30" class="edge"><title>abu&#45;&#45;c47</title>
<path fill="none" stroke="black" d="M1046.63,-192.202C1094.14,-182.877 1172.85,-165.531 1238,-142 1240.94,-140.939 1243.92,-139.779 1246.91,-138.553"/>
<text text-anchor="middle" x="1240.12" y="-143.388" font-family="Times New Roman,serif" font-size="10.00">cards</text>
<text text-anchor="middle" x="1054.68" y="-183.776" font-family="Times New Roman,serif" font-size="10.00">holder</text>
</g>
<!-- abu&#45;&#45;p9 -->
<g id="edge32" class="edge"><title>abu&#45;&#45;p9</title>
<path fill="none" stroke="black" d="M1013.39,-178.494C1019.24,-165.11 1026.73,-147.955 1032.58,-134.56"/>
<text text-anchor="middle" x="1032.83" y="-142.057" font-family="Times New Roman,serif" font-size="10.00">next</text>
<text text-anchor="middle" x="1013.15" y="-165.997" font-family="Times New Roman,serif" font-size="10.00">prev</text>
</g>
<!-- abu&#45;&#45;p11 -->
<g id="edge34" class="edge"><title>abu&#45;&#45;p11</title>
<path fill="none" stroke="black" d="M995.488,-178.361C987.281,-154.104 977.762,-113.984 990,-82 995.316,-68.1062 1005.66,-55.4437 1015.74,-45.5197"/>
<text text-anchor="middle" x="1012.37" y="-52.4348" font-family="Times New Roman,serif" font-size="10.00">prev</text>
<text text-anchor="middle" x="988.696" y="-168.521" font-family="Times New Roman,serif" font-size="10.00">next</text>
</g>
<!-- p9&#45;&#45;p11 -->
<g id="edge36" class="edge"><title>p9&#45;&#45;p11</title>
<path fill="none" stroke="black" d="M1042,-89.4944C1042,-76.1096 1042,-58.9547 1042,-45.5597"/>
<text text-anchor="middle" x="1046.23" y="-52.1228" font-family="Times New Roman,serif" font-size="10.00">next</text>
<text text-anchor="middle" x="1037.77" y="-77.9313" font-family="Times New Roman,serif" font-size="10.00">prev</text>
</g>
<!-- c39&#45;&#45;h17 -->
<g id="edge38" class="edge"><title>c39&#45;&#45;h17</title>
<path fill="none" stroke="black" d="M1294.01,-260.03C1290.27,-246.486 1285.95,-230.819 1282.74,-219.18"/>
<text text-anchor="middle" x="1289.22" y="-224.293" font-family="Times New Roman,serif" font-size="10.00">holder</text>
<text text-anchor="middle" x="1287.52" y="-249.917" font-family="Times New Roman,serif" font-size="10.00">cards</text>
</g>
<!-- abuMauMauController -->
<g id="node14" class="node"><title>abuMauMauController</title>
<image xlink:href="icons/person1.png" width="32px" height="43px" preserveAspectRatio="xMinYMin meet" x="947" y="-518"/>
<a xlink:href="../examples/org/sdmlib/examples/replication/maumau/MultiMauMauControler.java" xlink:title="&lt;TABLE&gt;">
<polygon fill="none" stroke="black" points="861,-457 861,-473 1065,-473 1065,-457 861,-457"/>
<text text-anchor="start" x="864.5" y="-463" font-family="Times New Roman,serif" font-size="10.00"> </text>
<text text-anchor="start" x="867.5" y="-463" font-family="Times New Roman,serif" font-size="10.00">abuMauMauController :MultiMauMauControler</text>
</a>
</g>
<!-- abuMauMauController&#45;&#45;maumau -->
<g id="edge40" class="edge"><title>abuMauMauController&#45;&#45;maumau</title>
<path fill="none" stroke="black" d="M999.983,-453.328C1015.91,-438.394 1034.17,-421.277 1048.69,-407.669"/>
<text text-anchor="middle" x="1044.97" y="-414.45" font-family="Times New Roman,serif" font-size="10.00">mauMau</text>
</g>
<!-- abuMauMauController&#45;&#45;abu -->
<g id="edge42" class="edge"><title>abuMauMauController&#45;&#45;abu</title>
<path fill="none" stroke="black" d="M929.256,-453.134C888.428,-406.567 829.96,-322.669 871,-260 890.942,-229.548 930.746,-214.995 961.636,-208.094"/>
<text text-anchor="middle" x="953.826" y="-211.839" font-family="Times New Roman,serif" font-size="10.00">activePlayer</text>
</g>
<!-- c62 -->
<g id="node15" class="node"><title>c62</title>
<a xlink:href="../examples/org/sdmlib/examples/replication/maumau/CardControler.java" xlink:title="&lt;TABLE&gt;">
<polygon fill="none" stroke="black" points="208,-373 208,-390 293,-390 293,-373 208,-373"/>
<text text-anchor="start" x="211.5" y="-379.5" font-family="Times New Roman,serif" font-size="10.00"> </text>
<text text-anchor="start" x="214.5" y="-379.5" font-family="Times New Roman,serif" font-size="10.00">c62 :CardControler</text>
</a>
</g>
<!-- abuMauMauController&#45;&#45;c62 -->
<g id="edge44" class="edge"><title>abuMauMauController&#45;&#45;c62</title>
<path fill="none" stroke="black" d="M878.042,-453.412C866.735,-449.75 855.185,-446.469 844,-444 649.376,-401.038 594.769,-432.732 397,-408 364.763,-403.969 328.804,-397.882 300.521,-392.723"/>
<text text-anchor="middle" x="310.191" y="-387.676" font-family="Times New Roman,serif" font-size="10.00">cardControlers</text>
<text text-anchor="middle" x="868.123" y="-452.177" font-family="Times New Roman,serif" font-size="10.00">mauMauControler</text>
</g>
<!-- c65 -->
<g id="node18" class="node"><title>c65</title>
<a xlink:href="../examples/org/sdmlib/examples/replication/maumau/CardControler.java" xlink:title="&lt;TABLE&gt;">
<polygon fill="none" stroke="black" points="627,-373 627,-390 712,-390 712,-373 627,-373"/>
<text text-anchor="start" x="630.5" y="-379.5" font-family="Times New Roman,serif" font-size="10.00"> </text>
<text text-anchor="start" x="633.5" y="-379.5" font-family="Times New Roman,serif" font-size="10.00">c65 :CardControler</text>
</a>
</g>
<!-- abuMauMauController&#45;&#45;c65 -->
<g id="edge46" class="edge"><title>abuMauMauController&#45;&#45;c65</title>
<path fill="none" stroke="black" d="M870.164,-453.483C861.329,-450.256 852.499,-447.052 844,-444 801.909,-428.884 753.934,-412.199 718.873,-400.106"/>
<text text-anchor="middle" x="728.819" y="-396.57" font-family="Times New Roman,serif" font-size="10.00">cardControlers</text>
<text text-anchor="middle" x="860.202" y="-451.845" font-family="Times New Roman,serif" font-size="10.00">mauMauControler</text>
</g>
<!-- c68 -->
<g id="node21" class="node"><title>c68</title>
<a xlink:href="../examples/org/sdmlib/examples/replication/maumau/CardControler.java" xlink:title="&lt;TABLE&gt;">
<polygon fill="none" stroke="black" points="1372,-373 1372,-390 1457,-390 1457,-373 1372,-373"/>
<text text-anchor="start" x="1375.5" y="-379.5" font-family="Times New Roman,serif" font-size="10.00"> </text>
<text text-anchor="start" x="1378.5" y="-379.5" font-family="Times New Roman,serif" font-size="10.00">c68 :CardControler</text>
</a>
</g>
<!-- abuMauMauController&#45;&#45;c68 -->
<g id="edge48" class="edge"><title>abuMauMauController&#45;&#45;c68</title>
<path fill="none" stroke="black" d="M1051.15,-453.494C1061.47,-450.027 1071.91,-446.77 1082,-444 1180.19,-417.043 1298.03,-398.579 1363.62,-389.496"/>
<text text-anchor="middle" x="1355.24" y="-392.454" font-family="Times New Roman,serif" font-size="10.00">cardControlers</text>
<text text-anchor="middle" x="1058.41" y="-444.117" font-family="Times New Roman,serif" font-size="10.00">mauMauControler</text>
</g>
<!-- c71 -->
<g id="node24" class="node"><title>c71</title>
<a xlink:href="../examples/org/sdmlib/examples/replication/maumau/CardControler.java" xlink:title="&lt;TABLE&gt;">
<polygon fill="none" stroke="black" points="1551,-373 1551,-390 1636,-390 1636,-373 1551,-373"/>
<text text-anchor="start" x="1554.5" y="-379.5" font-family="Times New Roman,serif" font-size="10.00"> </text>
<text text-anchor="start" x="1557.5" y="-379.5" font-family="Times New Roman,serif" font-size="10.00">c71 :CardControler</text>
</a>
</g>
<!-- abuMauMauController&#45;&#45;c71 -->
<g id="edge50" class="edge"><title>abuMauMauController&#45;&#45;c71</title>
<path fill="none" stroke="black" d="M1048.31,-453.428C1059.51,-449.789 1070.94,-446.509 1082,-444 1252.19,-405.408 1300.41,-433.838 1473,-408 1496.05,-404.55 1521.33,-399.477 1542.72,-394.802"/>
<text text-anchor="middle" x="1534.76" y="-398.349" font-family="Times New Roman,serif" font-size="10.00">cardControlers</text>
<text text-anchor="middle" x="1055.65" y="-444.134" font-family="Times New Roman,serif" font-size="10.00">mauMauControler</text>
</g>
<!-- c74 -->
<g id="node27" class="node"><title>c74</title>
<a xlink:href="../examples/org/sdmlib/examples/replication/maumau/CardControler.java" xlink:title="&lt;TABLE&gt;">
<polygon fill="none" stroke="black" points="1893,-373 1893,-390 1978,-390 1978,-373 1893,-373"/>
<text text-anchor="start" x="1896.5" y="-379.5" font-family="Times New Roman,serif" font-size="10.00"> </text>
<text text-anchor="start" x="1899.5" y="-379.5" font-family="Times New Roman,serif" font-size="10.00">c74 :CardControler</text>
</a>
</g>
<!-- abuMauMauController&#45;&#45;c74 -->
<g id="edge52" class="edge"><title>abuMauMauController&#45;&#45;c74</title>
<path fill="none" stroke="black" d="M1047.27,-453.438C1058.79,-449.72 1070.58,-446.418 1082,-444 1330.33,-391.429 1398.89,-427.17 1652,-408 1733.52,-401.826 1828.11,-393.167 1884.68,-387.829"/>
<text text-anchor="middle" x="1876.05" y="-390.383" font-family="Times New Roman,serif" font-size="10.00">cardControlers</text>
<text text-anchor="middle" x="1054.62" y="-444.162" font-family="Times New Roman,serif" font-size="10.00">mauMauControler</text>
</g>
<!-- c77 -->
<g id="node30" class="node"><title>c77</title>
<a xlink:href="../examples/org/sdmlib/examples/replication/maumau/CardControler.java" xlink:title="&lt;TABLE&gt;">
<polygon fill="none" stroke="black" points="415,-373 415,-390 500,-390 500,-373 415,-373"/>
<text text-anchor="start" x="418.5" y="-379.5" font-family="Times New Roman,serif" font-size="10.00"> </text>
<text text-anchor="start" x="421.5" y="-379.5" font-family="Times New Roman,serif" font-size="10.00">c77 :CardControler</text>
</a>
</g>
<!-- abuMauMauController&#45;&#45;c77 -->
<g id="edge54" class="edge"><title>abuMauMauController&#45;&#45;c77</title>
<path fill="none" stroke="black" d="M875.58,-453.412C865.038,-449.916 854.343,-446.675 844,-444 741.703,-417.543 713.355,-424.574 609,-408 575.06,-402.609 536.895,-396.332 507.298,-391.415"/>
<text text-anchor="middle" x="516.931" y="-386.229" font-family="Times New Roman,serif" font-size="10.00">cardControlers</text>
<text text-anchor="middle" x="865.651" y="-452.097" font-family="Times New Roman,serif" font-size="10.00">mauMauControler</text>
</g>
<!-- c62&#45;&#45;c27 -->
<g id="edge56" class="edge"><title>c62&#45;&#45;c27</title>
<path fill="none" stroke="black" d="M300.538,-371.406C328.826,-366.288 364.784,-360.197 397,-356 572.245,-333.168 618.351,-347.014 793,-320 821.984,-315.517 854.135,-308.498 879.449,-302.488"/>
<text text-anchor="middle" x="871.593" y="-306.174" font-family="Times New Roman,serif" font-size="10.00">card</text>
</g>
<!-- l63 -->
<g id="node16" class="node"><title>l63</title>
<a xlink:href="../../SDMLib/src/org/eclipse/swt/widgets/Label.java" xlink:title="&lt;TABLE&gt;">
<polygon fill="none" stroke="black" points="123,-291 123,-308 204,-308 204,-291 123,-291"/>
<text text-anchor="start" x="143" y="-297.5" font-family="Times New Roman,serif" font-size="10.00"> </text>
<text text-anchor="start" x="146" y="-297.5" font-family="Times New Roman,serif" font-size="10.00">l63 :Label</text>
</a>
<polygon fill="none" stroke="black" points="123,-271 123,-291 204,-291 204,-271 123,-271"/>
<text text-anchor="start" x="128" y="-279" font-family="Times New Roman,serif" font-size="10.00">text = &quot;8 Spades&quot;</text>
</g>
<!-- c62&#45;&#45;l63 -->
<g id="edge58" class="edge"><title>c62&#45;&#45;l63</title>
<path fill="none" stroke="black" d="M233.226,-363.647C219.202,-349.14 199.129,-328.375 184.033,-312.758"/>
<text text-anchor="middle" x="193.37" y="-313.837" font-family="Times New Roman,serif" font-size="10.00">label</text>
</g>
<!-- c64 -->
<g id="node17" class="node"><title>c64</title>
<a xlink:href="../examples/org/sdmlib/examples/replication/maumau/CardListener.java" xlink:title="&lt;TABLE&gt;">
<polygon fill="none" stroke="black" points="8,-281 8,-298 88,-298 88,-281 8,-281"/>
<text text-anchor="start" x="11.5" y="-287.5" font-family="Times New Roman,serif" font-size="10.00"> </text>
<text text-anchor="start" x="14.5" y="-287.5" font-family="Times New Roman,serif" font-size="10.00">c64 :CardListener</text>
</a>
</g>
<!-- c62&#45;&#45;c64 -->
<g id="edge60" class="edge"><title>c62&#45;&#45;c64</title>
<path fill="none" stroke="black" d="M207.135,-363.92C178.08,-352.11 138.94,-335.748 105,-320 97.0434,-316.308 88.5694,-312.133 80.6551,-308.125"/>
<text text-anchor="middle" x="90.6502" y="-305.938" font-family="Times New Roman,serif" font-size="10.00">listener</text>
</g>
<!-- c65&#45;&#45;c33 -->
<g id="edge62" class="edge"><title>c65&#45;&#45;c33</title>
<path fill="none" stroke="black" d="M618.602,-368.111C593.966,-358.993 566.55,-343.995 552,-320 538.173,-297.198 539.308,-283.453 552,-260 589.975,-189.827 677.609,-147.812 731.617,-127.648"/>
<text text-anchor="middle" x="724.72" y="-132.389" font-family="Times New Roman,serif" font-size="10.00">card</text>
</g>
<!-- l66 -->
<g id="node19" class="node"><title>l66</title>
<a xlink:href="../../SDMLib/src/org/eclipse/swt/widgets/Label.java" xlink:title="&lt;TABLE&gt;">
<polygon fill="none" stroke="black" points="684,-291 684,-308 777,-308 777,-291 684,-291"/>
<text text-anchor="start" x="710" y="-297.5" font-family="Times New Roman,serif" font-size="10.00"> </text>
<text text-anchor="start" x="713" y="-297.5" font-family="Times New Roman,serif" font-size="10.00">l66 :Label</text>
</a>
<polygon fill="none" stroke="black" points="684,-271 684,-291 777,-291 777,-271 684,-271"/>
<text text-anchor="start" x="689" y="-279" font-family="Times New Roman,serif" font-size="10.00">text = &quot;Ace Spades&quot;</text>
</g>
<!-- c65&#45;&#45;l66 -->
<g id="edge64" class="edge"><title>c65&#45;&#45;l66</title>
<path fill="none" stroke="black" d="M680.761,-363.647C690.594,-349.14 704.668,-328.375 715.253,-312.758"/>
<text text-anchor="middle" x="713.667" y="-320.131" font-family="Times New Roman,serif" font-size="10.00">label</text>
</g>
<!-- c67 -->
<g id="node20" class="node"><title>c67</title>
<a xlink:href="../examples/org/sdmlib/examples/replication/maumau/CardListener.java" xlink:title="&lt;TABLE&gt;">
<polygon fill="none" stroke="black" points="569,-281 569,-298 649,-298 649,-281 569,-281"/>
<text text-anchor="start" x="572.5" y="-287.5" font-family="Times New Roman,serif" font-size="10.00"> </text>
<text text-anchor="start" x="575.5" y="-287.5" font-family="Times New Roman,serif" font-size="10.00">c67 :CardListener</text>
</a>
</g>
<!-- c65&#45;&#45;c67 -->
<g id="edge66" class="edge"><title>c65&#45;&#45;c67</title>
<path fill="none" stroke="black" d="M657.431,-363.647C646.807,-347.71 631.146,-324.22 620.533,-308.3"/>
<text text-anchor="middle" x="629.077" y="-310.996" font-family="Times New Roman,serif" font-size="10.00">listener</text>
</g>
<!-- c68&#45;&#45;c34 -->
<g id="edge68" class="edge"><title>c68&#45;&#45;c34</title>
<path fill="none" stroke="black" d="M1408.19,-363.979C1393.03,-320.32 1351.42,-205.835 1323,-178 1293.69,-149.293 1274.93,-159.869 1238,-142 1235.07,-140.584 1232.08,-139.085 1229.07,-137.545"/>
<text text-anchor="middle" x="1239.07" y="-135.409" font-family="Times New Roman,serif" font-size="10.00">card</text>
</g>
<!-- l69 -->
<g id="node22" class="node"><title>l69</title>
<a xlink:href="../../SDMLib/src/org/eclipse/swt/widgets/Label.java" xlink:title="&lt;TABLE&gt;">
<polygon fill="none" stroke="black" points="1413,-291 1413,-308 1491,-308 1491,-291 1413,-291"/>
<text text-anchor="start" x="1431.5" y="-297.5" font-family="Times New Roman,serif" font-size="10.00"> </text>
<text text-anchor="start" x="1434.5" y="-297.5" font-family="Times New Roman,serif" font-size="10.00">l69 :Label</text>
</a>
<polygon fill="none" stroke="black" points="1413,-271 1413,-291 1491,-291 1491,-271 1413,-271"/>
<text text-anchor="start" x="1418" y="-279" font-family="Times New Roman,serif" font-size="10.00">text = &quot;7 Hearts&quot;</text>
</g>
<!-- c68&#45;&#45;l69 -->
<g id="edge70" class="edge"><title>c68&#45;&#45;l69</title>
<path fill="none" stroke="black" d="M1421.33,-363.647C1427.45,-349.14 1436.22,-328.375 1442.81,-312.758"/>
<text text-anchor="middle" x="1443.18" y="-320.251" font-family="Times New Roman,serif" font-size="10.00">label</text>
</g>
<!-- c70 -->
<g id="node23" class="node"><title>c70</title>
<a xlink:href="../examples/org/sdmlib/examples/replication/maumau/CardListener.java" xlink:title="&lt;TABLE&gt;">
<polygon fill="none" stroke="black" points="1525,-281 1525,-298 1605,-298 1605,-281 1525,-281"/>
<text text-anchor="start" x="1528.5" y="-287.5" font-family="Times New Roman,serif" font-size="10.00"> </text>
<text text-anchor="start" x="1531.5" y="-287.5" font-family="Times New Roman,serif" font-size="10.00">c70 :CardListener</text>
</a>
</g>
<!-- c68&#45;&#45;c70 -->
<g id="edge72" class="edge"><title>c68&#45;&#45;c70</title>
<path fill="none" stroke="black" d="M1442.76,-363.86C1469.63,-347.845 1509.52,-324.07 1536.35,-308.076"/>
<text text-anchor="middle" x="1530.73" y="-313.847" font-family="Times New Roman,serif" font-size="10.00">listener</text>
</g>
<!-- c71&#45;&#45;c39 -->
<g id="edge74" class="edge"><title>c71&#45;&#45;c39</title>
<path fill="none" stroke="black" d="M1542.64,-365.426C1488.31,-348.622 1402.46,-322.07 1349.33,-305.639"/>
<text text-anchor="middle" x="1359.24" y="-301.779" font-family="Times New Roman,serif" font-size="10.00">card</text>
</g>
<!-- l72 -->
<g id="node25" class="node"><title>l72</title>
<a xlink:href="../../SDMLib/src/org/eclipse/swt/widgets/Label.java" xlink:title="&lt;TABLE&gt;">
<polygon fill="none" stroke="black" points="1640,-291 1640,-308 1739,-308 1739,-291 1640,-291"/>
<text text-anchor="start" x="1669" y="-297.5" font-family="Times New Roman,serif" font-size="10.00"> </text>
<text text-anchor="start" x="1672" y="-297.5" font-family="Times New Roman,serif" font-size="10.00">l72 :Label</text>
</a>
<polygon fill="none" stroke="black" points="1640,-271 1640,-291 1739,-291 1739,-271 1640,-271"/>
<text text-anchor="start" x="1645" y="-279" font-family="Times New Roman,serif" font-size="10.00">text = &quot;Queen Hearts&quot;</text>
</g>
<!-- c71&#45;&#45;l72 -->
<g id="edge76" class="edge"><title>c71&#45;&#45;l72</title>
<path fill="none" stroke="black" d="M1611.51,-363.647C1626.98,-349.14 1649.13,-328.375 1665.79,-312.758"/>
<text text-anchor="middle" x="1662.07" y="-319.54" font-family="Times New Roman,serif" font-size="10.00">label</text>
</g>
<!-- c73 -->
<g id="node26" class="node"><title>c73</title>
<a xlink:href="../examples/org/sdmlib/examples/replication/maumau/CardListener.java" xlink:title="&lt;TABLE&gt;">
<polygon fill="none" stroke="black" points="1773,-281 1773,-298 1853,-298 1853,-281 1773,-281"/>
<text text-anchor="start" x="1776.5" y="-287.5" font-family="Times New Roman,serif" font-size="10.00"> </text>
<text text-anchor="start" x="1779.5" y="-287.5" font-family="Times New Roman,serif" font-size="10.00">c73 :CardListener</text>
</a>
</g>
<!-- c71&#45;&#45;c73 -->
<g id="edge78" class="edge"><title>c71&#45;&#45;c73</title>
<path fill="none" stroke="black" d="M1642.44,-363.885C1674.8,-352.318 1717.82,-336.242 1755,-320 1763.36,-316.349 1772.23,-312.106 1780.46,-308.01"/>
<text text-anchor="middle" x="1774.22" y="-313.321" font-family="Times New Roman,serif" font-size="10.00">listener</text>
</g>
<!-- c74&#45;&#45;c47 -->
<g id="edge80" class="edge"><title>c74&#45;&#45;c47</title>
<path fill="none" stroke="black" d="M1927.82,-363.806C1915,-333.857 1887.83,-273.973 1870,-260 1710.81,-135.251 1457.35,-115.471 1349.4,-112.962"/>
<text text-anchor="middle" x="1358.61" y="-106.576" font-family="Times New Roman,serif" font-size="10.00">card</text>
</g>
<!-- l75 -->
<g id="node28" class="node"><title>l75</title>
<a xlink:href="../../SDMLib/src/org/eclipse/swt/widgets/Label.java" xlink:title="&lt;TABLE&gt;">
<polygon fill="none" stroke="black" points="1925,-291 1925,-308 2039,-308 2039,-291 1925,-291"/>
<text text-anchor="start" x="1961.5" y="-297.5" font-family="Times New Roman,serif" font-size="10.00"> </text>
<text text-anchor="start" x="1964.5" y="-297.5" font-family="Times New Roman,serif" font-size="10.00">l75 :Label</text>
</a>
<polygon fill="none" stroke="black" points="1925,-271 1925,-291 2039,-291 2039,-271 1925,-271"/>
<text text-anchor="start" x="1930" y="-279" font-family="Times New Roman,serif" font-size="10.00">text = &quot;Queen Diamonds&quot;</text>
</g>
<!-- c74&#45;&#45;l75 -->
<g id="edge82" class="edge"><title>c74&#45;&#45;l75</title>
<path fill="none" stroke="black" d="M1944.06,-363.647C1951.64,-349.14 1962.48,-328.375 1970.64,-312.758"/>
<text text-anchor="middle" x="1970.19" y="-320.248" font-family="Times New Roman,serif" font-size="10.00">label</text>
</g>
<!-- c76 -->
<g id="node29" class="node"><title>c76</title>
<a xlink:href="../examples/org/sdmlib/examples/replication/maumau/CardListener.java" xlink:title="&lt;TABLE&gt;">
<polygon fill="none" stroke="black" points="2073,-281 2073,-298 2153,-298 2153,-281 2073,-281"/>
<text text-anchor="start" x="2076.5" y="-287.5" font-family="Times New Roman,serif" font-size="10.00"> </text>
<text text-anchor="start" x="2079.5" y="-287.5" font-family="Times New Roman,serif" font-size="10.00">c76 :CardListener</text>
</a>
</g>
<!-- c74&#45;&#45;c76 -->
<g id="edge84" class="edge"><title>c74&#45;&#45;c76</title>
<path fill="none" stroke="black" d="M1968.92,-363.942C1993.18,-351.729 2026.62,-334.881 2056,-320 2063.63,-316.137 2071.82,-311.975 2079.55,-308.042"/>
<text text-anchor="middle" x="2073.39" y="-313.417" font-family="Times New Roman,serif" font-size="10.00">listener</text>
</g>
<!-- c77&#45;&#45;c48 -->
<g id="edge86" class="edge"><title>c77&#45;&#45;c48</title>
<path fill="none" stroke="black" d="M466.544,-363.914C481.658,-338.223 513.382,-289.52 552,-260 658.963,-178.237 708.174,-197.139 831,-142 834.209,-140.559 837.504,-139.058 840.82,-137.53"/>
<text text-anchor="middle" x="834.354" y="-142.658" font-family="Times New Roman,serif" font-size="10.00">card</text>
</g>
<!-- l78 -->
<g id="node31" class="node"><title>l78</title>
<a xlink:href="../../SDMLib/src/org/eclipse/swt/widgets/Label.java" xlink:title="&lt;TABLE&gt;">
<polygon fill="none" stroke="black" points="238,-291 238,-308 345,-308 345,-291 238,-291"/>
<text text-anchor="start" x="271" y="-297.5" font-family="Times New Roman,serif" font-size="10.00"> </text>
<text text-anchor="start" x="274" y="-297.5" font-family="Times New Roman,serif" font-size="10.00">l78 :Label</text>
</a>
<polygon fill="none" stroke="black" points="238,-271 238,-291 345,-291 345,-271 238,-271"/>
<text text-anchor="start" x="243" y="-279" font-family="Times New Roman,serif" font-size="10.00">text = &quot;King Diamonds&quot;</text>
</g>
<!-- c77&#45;&#45;l78 -->
<g id="edge88" class="edge"><title>c77&#45;&#45;l78</title>
<path fill="none" stroke="black" d="M425.386,-363.86C398.482,-349.273 359.703,-328.249 330.71,-312.53"/>
<text text-anchor="middle" x="340.692" y="-310.634" font-family="Times New Roman,serif" font-size="10.00">label</text>
</g>
<!-- c79 -->
<g id="node32" class="node"><title>c79</title>
<a xlink:href="../examples/org/sdmlib/examples/replication/maumau/CardListener.java" xlink:title="&lt;TABLE&gt;">
<polygon fill="none" stroke="black" points="379,-281 379,-298 459,-298 459,-281 379,-281"/>
<text text-anchor="start" x="382.5" y="-287.5" font-family="Times New Roman,serif" font-size="10.00"> </text>
<text text-anchor="start" x="385.5" y="-287.5" font-family="Times New Roman,serif" font-size="10.00">c79 :CardListener</text>
</a>
</g>
<!-- c77&#45;&#45;c79 -->
<g id="edge90" class="edge"><title>c77&#45;&#45;c79</title>
<path fill="none" stroke="black" d="M449.673,-363.647C442.944,-347.71 433.026,-324.22 426.304,-308.3"/>
<text text-anchor="middle" x="433.723" y="-312.505" font-family="Times New Roman,serif" font-size="10.00">listener</text>
</g>
<!-- n80 -->
<g id="node33" class="node"><title>n80</title>
<a xlink:href="../examples/org/sdmlib/examples/replication/maumau/NewPlayerHandler.java" xlink:title="&lt;TABLE&gt;">
<polygon fill="none" stroke="black" points="1099,-480 1099,-497 1203,-497 1203,-480 1099,-480"/>
<text text-anchor="start" x="1102.5" y="-486.5" font-family="Times New Roman,serif" font-size="10.00"> </text>
<text text-anchor="start" x="1105.5" y="-486.5" font-family="Times New Roman,serif" font-size="10.00">n80 :NewPlayerHandler</text>
</a>
</g>
<!-- n81 -->
<g id="node34" class="node"><title>n81</title>
<a xlink:href="../examples/org/sdmlib/examples/replication/maumau/NewCardHandler.java" xlink:title="&lt;TABLE&gt;">
<polygon fill="none" stroke="black" points="1237,-480 1237,-497 1335,-497 1335,-480 1237,-480"/>
<text text-anchor="start" x="1240.5" y="-486.5" font-family="Times New Roman,serif" font-size="10.00"> </text>
<text text-anchor="start" x="1243.5" y="-486.5" font-family="Times New Roman,serif" font-size="10.00">n81 :NewCardHandler</text>
</a>
</g>
<!-- n82 -->
<g id="node35" class="node"><title>n82</title>
<a xlink:href="../examples/org/sdmlib/examples/replication/maumau/NewDutyHandler.java" xlink:title="&lt;TABLE&gt;">
<polygon fill="none" stroke="black" points="1370,-480 1370,-497 1469,-497 1469,-480 1370,-480"/>
<text text-anchor="start" x="1373.5" y="-486.5" font-family="Times New Roman,serif" font-size="10.00"> </text>
<text text-anchor="start" x="1376.5" y="-486.5" font-family="Times New Roman,serif" font-size="10.00">n82 :NewDutyHandler</text>
</a>
</g>
</g>
</svg>
