<?xml version="1.0" encoding="UTF-8" standalone="no"?>
<!DOCTYPE svg PUBLIC "-//W3C//DTD SVG 1.1//EN"
 "http://www.w3.org/Graphics/SVG/1.1/DTD/svg11.dtd">
<!-- Generated by graphviz version 2.28.0 (20110507.0327)
 -->
<!-- Title: ObjectDiagram Pages: 1 -->
<svg width="890pt" height="268pt"
 viewBox="0.00 0.00 890.00 268.00" xmlns="http://www.w3.org/2000/svg" xmlns:xlink="http://www.w3.org/1999/xlink">
<g id="graph1" class="graph" transform="scale(1 1) rotate(0) translate(4 264)">
<title>ObjectDiagram</title>
<polygon fill="white" stroke="white" points="-4,5 -4,-264 887,-264 887,5 -4,5"/>
<!-- abuNode -->
<g id="node1" class="node"><title>abuNode</title>
<image xlink:href="icons/node.png" width="83px" height="61px" preserveAspectRatio="xMinYMin meet" x="10" y="-253"/>
<a xlink:href="../../SDMLib/src/org/sdmlib/replication/Node.java" xlink:title="&lt;TABLE&gt;">
<polygon fill="none" stroke="black" points="8,-174 8,-190 95,-190 95,-174 8,-174"/>
<text text-anchor="start" x="18" y="-180" font-family="Times New Roman,serif" font-size="10.00"> </text>
<text text-anchor="start" x="21" y="-180" font-family="Times New Roman,serif" font-size="10.00">abuNode :Node</text>
</a>
</g>
<!-- abuInit -->
<g id="node2" class="node"><title>abuInit</title>
<image xlink:href="icons/worker.png" width="80px" height="61px" preserveAspectRatio="xMinYMin meet" x="168.5" y="-253"/>
<a xlink:href="../examples/org/sdmlib/examples/replication/maumau/MultiMauMauClientInitTask.java" xlink:title="&lt;TABLE&gt;">
<polygon fill="none" stroke="black" points="129,-174 129,-190 288,-190 288,-174 129,-174"/>
<text text-anchor="start" x="132.5" y="-180" font-family="Times New Roman,serif" font-size="10.00"> </text>
<text text-anchor="start" x="135.5" y="-180" font-family="Times New Roman,serif" font-size="10.00">abuInit :MultiMauMauClientInitTask</text>
</a>
</g>
<!-- taskboard -->
<g id="node3" class="node"><title>taskboard</title>
<image xlink:href="icons/shared.png" width="70px" height="23px" preserveAspectRatio="xMinYMin meet" x="346" y="-234"/>
<a xlink:href="../../SDMLib/src/org/sdmlib/replication/TaskFlowBoard.java" xlink:title="&lt;TABLE&gt;">
<polygon fill="none" stroke="black" points="322,-193 322,-209 440,-209 440,-193 322,-193"/>
<text text-anchor="start" x="325.5" y="-199" font-family="Times New Roman,serif" font-size="10.00"> </text>
<text text-anchor="start" x="328.5" y="-199" font-family="Times New Roman,serif" font-size="10.00">taskboard :TaskFlowBoard</text>
</a>
</g>
<!-- l1 -->
<g id="node4" class="node"><title>l1</title>
<a xlink:href="../../SDMLib/src/org/sdmlib/replication/Lane.java" xlink:title="&lt;TABLE&gt;">
<polygon fill="none" stroke="black" points="337,-109 337,-126 426,-126 426,-109 337,-109"/>
<text text-anchor="start" x="364.5" y="-115.5" font-family="Times New Roman,serif" font-size="10.00"> </text>
<text text-anchor="start" x="367.5" y="-115.5" font-family="Times New Roman,serif" font-size="10.00">l1 :Lane</text>
</a>
<polygon fill="none" stroke="black" points="337,-89 337,-109 426,-109 426,-89 337,-89"/>
<text text-anchor="start" x="342" y="-97" font-family="Times New Roman,serif" font-size="10.00">name = &quot;AbuLane&quot;</text>
</g>
<!-- taskboard&#45;&#45;l1 -->
<g id="edge2" class="edge"><title>taskboard&#45;&#45;l1</title>
<path fill="none" stroke="black" d="M381,-189.382C381,-171.561 381,-147.702 381,-130.616"/>
<text text-anchor="middle" x="385.226" y="-137.179" font-family="Times New Roman,serif" font-size="10.00">lanes</text>
<text text-anchor="middle" x="376.774" y="-177.819" font-family="Times New Roman,serif" font-size="10.00">board</text>
</g>
<!-- abuLaneListener -->
<g id="node5" class="node"><title>abuLaneListener</title>
<image xlink:href="icons/person1.png" width="32px" height="43px" preserveAspectRatio="xMinYMin meet" x="539" y="-244"/>
<a xlink:href="../examples/org/sdmlib/examples/replication/maumau/PlayerLaneManager.java" xlink:title="&lt;TABLE&gt;">
<polygon fill="none" stroke="black" points="474,-183 474,-199 636,-199 636,-183 474,-183"/>
<text text-anchor="start" x="477.5" y="-189" font-family="Times New Roman,serif" font-size="10.00"> </text>
<text text-anchor="start" x="480.5" y="-189" font-family="Times New Roman,serif" font-size="10.00">abuLaneListener :PlayerLaneManager</text>
</a>
</g>
<!-- maumau -->
<g id="node6" class="node"><title>maumau</title>
<image xlink:href="icons/shared.png" width="70px" height="23px" preserveAspectRatio="xMinYMin meet" x="697" y="-127"/>
<a xlink:href="../examples/org/sdmlib/examples/replication/maumau/MauMau.java" xlink:title="&lt;TABLE&gt;">
<polygon fill="none" stroke="black" points="689,-86 689,-102 775,-102 775,-86 689,-86"/>
<text text-anchor="start" x="692.5" y="-92" font-family="Times New Roman,serif" font-size="10.00"> </text>
<text text-anchor="start" x="695.5" y="-92" font-family="Times New Roman,serif" font-size="10.00">maumau :MauMau</text>
</a>
</g>
<!-- abu -->
<g id="node7" class="node"><title>abu</title>
<a xlink:href="../examples/org/sdmlib/examples/replication/maumau/Player.java" xlink:title="&lt;TABLE&gt;">
<polygon fill="none" stroke="black" points="737,-24 737,-41 806,-41 806,-24 737,-24"/>
<text text-anchor="start" x="747.5" y="-30.5" font-family="Times New Roman,serif" font-size="10.00"> </text>
<text text-anchor="start" x="750.5" y="-30.5" font-family="Times New Roman,serif" font-size="10.00">abu :Player</text>
</a>
<polygon fill="none" stroke="black" points="737,-4 737,-24 806,-24 806,-4 737,-4"/>
<text text-anchor="start" x="742" y="-12" font-family="Times New Roman,serif" font-size="10.00">name = &quot;Abu&quot;</text>
</g>
<!-- maumau&#45;&#45;abu -->
<g id="edge4" class="edge"><title>maumau&#45;&#45;abu</title>
<path fill="none" stroke="black" d="M743.701,-82.0973C749.176,-70.4462 755.632,-56.7055 760.892,-45.5129"/>
<text text-anchor="middle" x="760.862" y="-53.0128" font-family="Times New Roman,serif" font-size="10.00">players</text>
<text text-anchor="middle" x="743.731" y="-69.5973" font-family="Times New Roman,serif" font-size="10.00">game</text>
</g>
<!-- abuMauMauController -->
<g id="node8" class="node"><title>abuMauMauController</title>
<image xlink:href="icons/person1.png" width="32px" height="43px" preserveAspectRatio="xMinYMin meet" x="756" y="-244"/>
<a xlink:href="../examples/org/sdmlib/examples/replication/maumau/MultiMauMauControler.java" xlink:title="&lt;TABLE&gt;">
<polygon fill="none" stroke="black" points="670,-183 670,-199 874,-199 874,-183 670,-183"/>
<text text-anchor="start" x="673.5" y="-189" font-family="Times New Roman,serif" font-size="10.00"> </text>
<text text-anchor="start" x="676.5" y="-189" font-family="Times New Roman,serif" font-size="10.00">abuMauMauController :MultiMauMauControler</text>
</a>
</g>
<!-- abuMauMauController&#45;&#45;maumau -->
<g id="edge6" class="edge"><title>abuMauMauController&#45;&#45;maumau</title>
<path fill="none" stroke="black" d="M758.792,-179.328C753.103,-164.394 746.582,-147.277 741.398,-133.669"/>
<text text-anchor="middle" x="748.573" y="-138.133" font-family="Times New Roman,serif" font-size="10.00">mauMau</text>
</g>
<!-- abuMauMauController&#45;&#45;abu -->
<g id="edge8" class="edge"><title>abuMauMauController&#45;&#45;abu</title>
<path fill="none" stroke="black" d="M783.371,-179.465C790.67,-152.792 797.788,-114.989 792,-82 789.816,-69.5534 785.184,-56.2581 780.824,-45.541"/>
<text text-anchor="middle" x="788.11" y="-49.8906" font-family="Times New Roman,serif" font-size="10.00">activePlayer</text>
</g>
</g>
</svg>
