<?xml version="1.0" encoding="UTF-8" standalone="no"?>
<!DOCTYPE svg PUBLIC "-//W3C//DTD SVG 1.1//EN"
 "http://www.w3.org/Graphics/SVG/1.1/DTD/svg11.dtd">
<!-- Generated by graphviz version 2.28.0 (20110507.0327)
 -->
<!-- Title: ObjectDiagram Pages: 1 -->
<svg width="943pt" height="276pt"
 viewBox="0.00 0.00 943.00 276.00" xmlns="http://www.w3.org/2000/svg" xmlns:xlink="http://www.w3.org/1999/xlink">
<g id="graph1" class="graph" transform="scale(1 1) rotate(0) translate(4 272)">
<title>ObjectDiagram</title>
<polygon fill="white" stroke="white" points="-4,5 -4,-272 940,-272 940,5 -4,5"/>
<!-- abuNode -->
<g id="node1" class="node"><title>abuNode</title>
<image xlink:href="icons/node.png" width="83px" height="61px" preserveAspectRatio="xMinYMin meet" x="10" y="-261"/>
<a xlink:href="../../SDMLib/src/org/sdmlib/replication/Node.java" xlink:title="&lt;TABLE&gt;">
<polygon fill="none" stroke="black" points="8,-182 8,-198 95,-198 95,-182 8,-182"/>
<text text-anchor="start" x="18" y="-188" font-family="Times New Roman,serif" font-size="10.00"> </text>
<text text-anchor="start" x="21" y="-188" font-family="Times New Roman,serif" font-size="10.00">abuNode :Node</text>
</a>
</g>
<!-- s6 -->
<g id="node2" class="node"><title>s6</title>
<image xlink:href="icons/worker.png" width="80px" height="61px" preserveAspectRatio="xMinYMin meet" x="160.5" y="-261"/>
<a xlink:href="../examples/org/sdmlib/examples/replication/maumau/ShowStartGameButtonAction.java" xlink:title="&lt;TABLE&gt;">
<polygon fill="none" stroke="black" points="129,-182 129,-198 272,-198 272,-182 129,-182"/>
<text text-anchor="start" x="132.5" y="-188" font-family="Times New Roman,serif" font-size="10.00"> </text>
<text text-anchor="start" x="135.5" y="-188" font-family="Times New Roman,serif" font-size="10.00">s6 :ShowStartGameButtonAction</text>
</a>
</g>
<!-- taskboard -->
<g id="node3" class="node"><title>taskboard</title>
<image xlink:href="icons/shared.png" width="70px" height="23px" preserveAspectRatio="xMinYMin meet" x="330" y="-242"/>
<a xlink:href="../../SDMLib/src/org/sdmlib/replication/TaskFlowBoard.java" xlink:title="&lt;TABLE&gt;">
<polygon fill="none" stroke="black" points="306,-201 306,-217 424,-217 424,-201 306,-201"/>
<text text-anchor="start" x="309.5" y="-207" font-family="Times New Roman,serif" font-size="10.00"> </text>
<text text-anchor="start" x="312.5" y="-207" font-family="Times New Roman,serif" font-size="10.00">taskboard :TaskFlowBoard</text>
</a>
</g>
<!-- l2 -->
<g id="node4" class="node"><title>l2</title>
<a xlink:href="../../SDMLib/src/org/sdmlib/replication/Lane.java" xlink:title="&lt;TABLE&gt;">
<polygon fill="none" stroke="black" points="187,-120 187,-137 263,-137 263,-120 187,-120"/>
<text text-anchor="start" x="208" y="-126.5" font-family="Times New Roman,serif" font-size="10.00"> </text>
<text text-anchor="start" x="211" y="-126.5" font-family="Times New Roman,serif" font-size="10.00">l2 :Lane</text>
</a>
<polygon fill="none" stroke="black" points="187,-100 187,-120 263,-120 263,-100 187,-100"/>
<text text-anchor="start" x="192" y="-108" font-family="Times New Roman,serif" font-size="10.00">name = &quot;server&quot;</text>
</g>
<!-- taskboard&#45;&#45;l2 -->
<g id="edge2" class="edge"><title>taskboard&#45;&#45;l2</title>
<path fill="none" stroke="black" d="M331.11,-197.309C307.804,-180.328 277.143,-157.99 254.776,-141.694"/>
<text text-anchor="middle" x="264.59" y="-141.115" font-family="Times New Roman,serif" font-size="10.00">lanes</text>
<text text-anchor="middle" x="321.296" y="-192.888" font-family="Times New Roman,serif" font-size="10.00">board</text>
</g>
<!-- l3 -->
<g id="node5" class="node"><title>l3</title>
<a xlink:href="../../SDMLib/src/org/sdmlib/replication/Lane.java" xlink:title="&lt;TABLE&gt;">
<polygon fill="none" stroke="black" points="298,-120 298,-137 433,-137 433,-120 298,-120"/>
<text text-anchor="start" x="348.5" y="-126.5" font-family="Times New Roman,serif" font-size="10.00"> </text>
<text text-anchor="start" x="351.5" y="-126.5" font-family="Times New Roman,serif" font-size="10.00">l3 :Lane</text>
</a>
<polygon fill="none" stroke="black" points="298,-100 298,-120 433,-120 433,-100 298,-100"/>
<text text-anchor="start" x="303" y="-108" font-family="Times New Roman,serif" font-size="10.00">name = &quot;play7WorkFlowLane&quot;</text>
</g>
<!-- taskboard&#45;&#45;l3 -->
<g id="edge4" class="edge"><title>taskboard&#45;&#45;l3</title>
<path fill="none" stroke="black" d="M365,-197.309C365,-180.328 365,-157.99 365,-141.694"/>
<text text-anchor="middle" x="369.226" y="-148.257" font-family="Times New Roman,serif" font-size="10.00">lanes</text>
<text text-anchor="middle" x="360.774" y="-185.746" font-family="Times New Roman,serif" font-size="10.00">board</text>
</g>
<!-- l1 -->
<g id="node7" class="node"><title>l1</title>
<a xlink:href="../../SDMLib/src/org/sdmlib/replication/Lane.java" xlink:title="&lt;TABLE&gt;">
<polygon fill="none" stroke="black" points="470,-120 470,-137 559,-137 559,-120 470,-120"/>
<text text-anchor="start" x="497.5" y="-126.5" font-family="Times New Roman,serif" font-size="10.00"> </text>
<text text-anchor="start" x="500.5" y="-126.5" font-family="Times New Roman,serif" font-size="10.00">l1 :Lane</text>
</a>
<polygon fill="none" stroke="black" points="470,-100 470,-120 559,-120 559,-100 470,-100"/>
<text text-anchor="start" x="475" y="-108" font-family="Times New Roman,serif" font-size="10.00">name = &quot;AbuLane&quot;</text>
</g>
<!-- taskboard&#45;&#45;l1 -->
<g id="edge6" class="edge"><title>taskboard&#45;&#45;l1</title>
<path fill="none" stroke="black" d="M401.069,-197.309C425.873,-180.328 458.505,-157.99 482.31,-141.694"/>
<text text-anchor="middle" x="477.218" y="-147.801" font-family="Times New Roman,serif" font-size="10.00">lanes</text>
<text text-anchor="middle" x="406.16" y="-186.202" font-family="Times New Roman,serif" font-size="10.00">board</text>
</g>
<!-- b4 -->
<g id="node6" class="node"><title>b4</title>
<a xlink:href="../../SDMLib/src/org/sdmlib/replication/BoardTask.java" xlink:title="&lt;TABLE&gt;">
<polygon fill="none" stroke="black" points="315,-38 315,-55 412,-55 412,-38 315,-38"/>
<text text-anchor="start" x="333" y="-44.5" font-family="Times New Roman,serif" font-size="10.00"> </text>
<text text-anchor="start" x="336" y="-44.5" font-family="Times New Roman,serif" font-size="10.00">b4 :BoardTask</text>
</a>
<polygon fill="none" stroke="black" points="315,-4 315,-38 412,-38 412,-4 315,-4"/>
<text text-anchor="start" x="320" y="-26" font-family="Times New Roman,serif" font-size="10.00">name = &quot;startClients&quot;</text>
<text text-anchor="start" x="320" y="-12" font-family="Times New Roman,serif" font-size="10.00">status = &quot;start&quot;</text>
</g>
<!-- l3&#45;&#45;b4 -->
<g id="edge8" class="edge"><title>l3&#45;&#45;b4</title>
<path fill="none" stroke="black" d="M364.506,-96.4944C364.251,-85.4243 363.937,-71.7752 363.662,-59.8074"/>
<text text-anchor="middle" x="368.096" y="-66.2709" font-family="Times New Roman,serif" font-size="10.00">tasks</text>
<text text-anchor="middle" x="360.072" y="-85.0308" font-family="Times New Roman,serif" font-size="10.00">lane</text>
</g>
<!-- b5 -->
<g id="node8" class="node"><title>b5</title>
<a xlink:href="../../SDMLib/src/org/sdmlib/replication/BoardTask.java" xlink:title="&lt;TABLE&gt;">
<polygon fill="none" stroke="black" points="446,-38 446,-55 587,-55 587,-38 446,-38"/>
<text text-anchor="start" x="486" y="-44.5" font-family="Times New Roman,serif" font-size="10.00"> </text>
<text text-anchor="start" x="489" y="-44.5" font-family="Times New Roman,serif" font-size="10.00">b5 :BoardTask</text>
</a>
<polygon fill="none" stroke="black" points="446,-4 446,-38 587,-38 587,-4 446,-4"/>
<text text-anchor="start" x="451" y="-26" font-family="Times New Roman,serif" font-size="10.00">name = &quot;showStartGameButton&quot;</text>
<text text-anchor="start" x="451" y="-12" font-family="Times New Roman,serif" font-size="10.00">status = &quot;start&quot;</text>
</g>
<!-- l1&#45;&#45;b5 -->
<g id="edge10" class="edge"><title>l1&#45;&#45;b5</title>
<path fill="none" stroke="black" d="M514.494,-96.4944C514.749,-85.4243 515.063,-71.7752 515.338,-59.8074"/>
<text text-anchor="middle" x="519.355" y="-66.4652" font-family="Times New Roman,serif" font-size="10.00">tasks</text>
<text text-anchor="middle" x="510.478" y="-84.8366" font-family="Times New Roman,serif" font-size="10.00">lane</text>
</g>
<!-- l7 -->
<g id="node9" class="node"><title>l7</title>
<a xlink:href="../../SDMLib/src/org/eclipse/swt/widgets/Label.java" xlink:title="&lt;TABLE&gt;">
<polygon fill="none" stroke="black" points="593,-120 593,-137 816,-137 816,-120 593,-120"/>
<text text-anchor="start" x="686" y="-126.5" font-family="Times New Roman,serif" font-size="10.00"> </text>
<text text-anchor="start" x="689" y="-126.5" font-family="Times New Roman,serif" font-size="10.00">l7 :Label</text>
</a>
<polygon fill="none" stroke="black" points="593,-100 593,-120 816,-120 816,-100 593,-100"/>
<text text-anchor="start" x="598" y="-108" font-family="Times New Roman,serif" font-size="10.00">text = &quot;When all players have shown up, Start Game&quot;</text>
</g>
<!-- s8 -->
<g id="node10" class="node"><title>s8</title>
<image xlink:href="icons/person1.png" width="32px" height="43px" preserveAspectRatio="xMinYMin meet" x="688" y="-252"/>
<a xlink:href="../examples/org/sdmlib/examples/replication/maumau/StartGameMouseAdapter.java" xlink:title="&lt;TABLE&gt;">
<polygon fill="none" stroke="black" points="641,-191 641,-207 767,-207 767,-191 641,-191"/>
<text text-anchor="start" x="644.5" y="-197" font-family="Times New Roman,serif" font-size="10.00"> </text>
<text text-anchor="start" x="647.5" y="-197" font-family="Times New Roman,serif" font-size="10.00">s8 :StartGameMouseAdapter</text>
</a>
</g>
<!-- s8&#45;&#45;l7 -->
<g id="edge12" class="edge"><title>s8&#45;&#45;l7</title>
<path fill="none" stroke="black" d="M704,-187.467C704,-172.325 704,-155.013 704,-141.717"/>
<text text-anchor="middle" x="708.226" y="-148.28" font-family="Times New Roman,serif" font-size="10.00">startGameLabel</text>
</g>
<!-- maumau -->
<g id="node11" class="node"><title>maumau</title>
<image xlink:href="icons/shared.png" width="70px" height="23px" preserveAspectRatio="xMinYMin meet" x="849" y="-242"/>
<a xlink:href="../examples/org/sdmlib/examples/replication/maumau/MauMau.java" xlink:title="&lt;TABLE&gt;">
<polygon fill="none" stroke="black" points="841,-201 841,-217 927,-217 927,-201 841,-201"/>
<text text-anchor="start" x="844.5" y="-207" font-family="Times New Roman,serif" font-size="10.00"> </text>
<text text-anchor="start" x="847.5" y="-207" font-family="Times New Roman,serif" font-size="10.00">maumau :MauMau</text>
</a>
</g>
<!-- abu -->
<g id="node12" class="node"><title>abu</title>
<a xlink:href="../examples/org/sdmlib/examples/replication/maumau/Player.java" xlink:title="&lt;TABLE&gt;">
<polygon fill="none" stroke="black" points="850,-120 850,-137 919,-137 919,-120 850,-120"/>
<text text-anchor="start" x="860.5" y="-126.5" font-family="Times New Roman,serif" font-size="10.00"> </text>
<text text-anchor="start" x="863.5" y="-126.5" font-family="Times New Roman,serif" font-size="10.00">abu :Player</text>
</a>
<polygon fill="none" stroke="black" points="850,-100 850,-120 919,-120 919,-100 850,-100"/>
<text text-anchor="start" x="855" y="-108" font-family="Times New Roman,serif" font-size="10.00">name = &quot;Abu&quot;</text>
</g>
<!-- maumau&#45;&#45;abu -->
<g id="edge14" class="edge"><title>maumau&#45;&#45;abu</title>
<path fill="none" stroke="black" d="M884,-197.309C884,-180.328 884,-157.99 884,-141.694"/>
<text text-anchor="middle" x="888.226" y="-148.257" font-family="Times New Roman,serif" font-size="10.00">players</text>
<text text-anchor="middle" x="879.774" y="-185.746" font-family="Times New Roman,serif" font-size="10.00">game</text>
</g>
</g>
</svg>
