<?xml version="1.0" encoding="UTF-8" standalone="no"?>
<!DOCTYPE svg PUBLIC "-//W3C//DTD SVG 1.1//EN"
 "http://www.w3.org/Graphics/SVG/1.1/DTD/svg11.dtd">
<!-- Generated by graphviz version 2.28.0 (20110507.0327)
 -->
<!-- Title: ClassDiagram Pages: 1 -->
<svg width="191pt" height="176pt"
 viewBox="0.00 0.00 191.00 176.00" xmlns="http://www.w3.org/2000/svg" xmlns:xlink="http://www.w3.org/1999/xlink">
<g id="graph1" class="graph" transform="scale(1 1) rotate(0) translate(4 172)">
<title>ClassDiagram</title>
<polygon fill="white" stroke="white" points="-4,5 -4,-172 188,-172 188,5 -4,5"/>
<!-- _University -->
<g id="node1" class="node"><title>_University</title>
<a xlink:href="../examples/org/sdmlib/examples/emfstudyright/University.java" xlink:title="&lt;TABLE&gt;">
<polygon fill="none" stroke="black" points="8,-146 8,-163 75,-163 75,-146 8,-146"/>
<text text-anchor="start" x="20" y="-152.5" font-family="Arial" font-size="10.00">University</text>
</a>
<polygon fill="none" stroke="black" points="8,-126 8,-146 75,-146 75,-126 8,-126"/>
<text text-anchor="start" x="13" y="-134" font-family="Arial" font-size="10.00">name :String</text>
<polygon fill="none" stroke="black" points="8,-106 8,-126 75,-126 75,-106 8,-106"/>
<text text-anchor="start" x="39.5" y="-114" font-family="Arial" font-size="10.00"> </text>
</g>
<!-- _Student -->
<g id="node3" class="node"><title>_Student</title>
<a xlink:href="../examples/org/sdmlib/examples/emfstudyright/Student.java" xlink:title="&lt;TABLE&gt;">
<polygon fill="none" stroke="black" points="57,-44 57,-61 126,-61 126,-44 57,-44"/>
<text text-anchor="start" x="74.5" y="-50.5" font-family="Arial" font-size="10.00">Student</text>
</a>
<polygon fill="none" stroke="black" points="57,-24 57,-44 126,-44 126,-24 57,-24"/>
<text text-anchor="start" x="62" y="-32" font-family="Arial" font-size="10.00">studId :String</text>
<polygon fill="none" stroke="black" points="57,-4 57,-24 126,-24 126,-4 57,-4"/>
<text text-anchor="start" x="89.5" y="-12" font-family="Arial" font-size="10.00"> </text>
</g>
<!-- _University&#45;&gt;_Student -->
<g id="edge4" class="edge"><title>_University&#45;&gt;_Student</title>
<path fill="none" stroke="black" d="M56.8203,-102.359C62.6568,-90.6864 69.2684,-77.4631 75.111,-65.778"/>
<text text-anchor="middle" x="74.8379" y="-73.2743" font-family="Arial" font-size="10.00">students *</text>
<text text-anchor="middle" x="57.0934" y="-89.8631" font-family="Arial" font-size="10.00">uni</text>
</g>
<!-- _Person -->
<g id="node2" class="node"><title>_Person</title>
<a xlink:href="../examples/org/sdmlib/examples/emfstudyright/Person.java" xlink:title="&lt;TABLE&gt;">
<polygon fill="none" stroke="black" points="109,-146 109,-163 176,-163 176,-146 109,-146"/>
<text text-anchor="start" x="127" y="-152.5" font-family="Arial" font-size="10.00">Person</text>
</a>
<polygon fill="none" stroke="black" points="109,-126 109,-146 176,-146 176,-126 109,-126"/>
<text text-anchor="start" x="114" y="-134" font-family="Arial" font-size="10.00">name :String</text>
<polygon fill="none" stroke="black" points="109,-106 109,-126 176,-126 176,-106 109,-106"/>
<text text-anchor="start" x="140.5" y="-114" font-family="Arial" font-size="10.00"> </text>
</g>
<!-- _Person&#45;&gt;_Student -->
<g id="edge2" class="edge"><title>_Person&#45;&gt;_Student</title>
<path fill="none" stroke="black" d="M121.275,-93.3622C116.587,-84.1709 111.676,-74.5418 107.207,-65.778"/>
<polygon fill="none" stroke="black" points="118.202,-95.0412 125.863,-102.359 124.438,-91.8608 118.202,-95.0412"/>
</g>
</g>
</svg>
