<?xml version="1.0" encoding="UTF-8" standalone="no"?>
<!DOCTYPE svg PUBLIC "-//W3C//DTD SVG 1.1//EN"
 "http://www.w3.org/Graphics/SVG/1.1/DTD/svg11.dtd">
<!-- Generated by graphviz version 2.28.0 (20110507.0327)
 -->
<!-- Title: TrafoOpDiagram Pages: 1 -->
<svg width="406pt" height="620pt"
 viewBox="0.00 0.00 406.00 620.00" xmlns="http://www.w3.org/2000/svg" xmlns:xlink="http://www.w3.org/1999/xlink">
<g id="graph1" class="graph" transform="scale(1 1) rotate(0) translate(4 616)">
<title>TrafoOpDiagram</title>
<polygon fill="white" stroke="white" points="-4,5 -4,-616 403,-616 403,5 -4,5"/>
<!-- this -->
<g id="node1" class="node"><title>this</title>
<polygon fill="none" stroke="black" points="174,-585 174,-602 197,-602 197,-585 174,-585"/>
<text text-anchor="start" x="177.5" y="-591.5" font-family="Times New Roman,serif" font-size="10.00">this</text>
</g>
<!-- items -->
<g id="node2" class="node"><title>items</title>
<polygon fill="none" stroke="black" points="100,-513 100,-530 129,-530 129,-513 100,-513"/>
<text text-anchor="start" x="103.5" y="-519.5" font-family="Times New Roman,serif" font-size="10.00">items</text>
</g>
<!-- this&#45;&gt;items -->
<g id="edge2" class="edge"><title>this&#45;&gt;items</title>
<path fill="none" stroke="black" d="M167.449,-575.697C156.444,-564.846 142.316,-550.917 131.349,-540.104"/>
<text text-anchor="middle" x="140.77" y="-540.958" font-family="Times New Roman,serif" font-size="10.00">get</text>
</g>
<!-- persons -->
<g id="node4" class="node"><title>persons</title>
<polygon fill="none" stroke="black" points="233,-369 233,-386 273,-386 273,-369 233,-369"/>
<text text-anchor="start" x="236.5" y="-375.5" font-family="Times New Roman,serif" font-size="10.00">persons</text>
</g>
<!-- this&#45;&gt;persons -->
<g id="edge6" class="edge"><title>this&#45;&gt;persons</title>
<path fill="none" stroke="black" d="M193.641,-575.635C205.127,-551.886 225.328,-507.687 237,-468 244.176,-443.601 248.677,-414.442 251.015,-396.318"/>
<text text-anchor="middle" x="254.007" y="-403.36" font-family="Times New Roman,serif" font-size="10.00">get</text>
</g>
<!-- value -->
<g id="node3" class="node"><title>value</title>
<polygon fill="none" stroke="black" points="13,-441 13,-458 42,-458 42,-441 13,-441"/>
<text text-anchor="start" x="16.5" y="-447.5" font-family="Times New Roman,serif" font-size="10.00">value</text>
</g>
<!-- items&#45;&gt;value -->
<g id="edge4" class="edge"><title>items&#45;&gt;value</title>
<path fill="none" stroke="black" d="M92.4944,-503.697C79.009,-492.846 61.6965,-478.917 48.2582,-468.104"/>
<text text-anchor="middle" x="57.9687" y="-467.993" font-family="Times New Roman,serif" font-size="10.00">get</text>
</g>
<!-- totalvaluesum -->
<g id="node9" class="node"><title>totalvaluesum</title>
<text text-anchor="start" x="112.5" y="-375.5" font-family="Times New Roman,serif" font-size="10.00">total = value.sum()</text>
</g>
<!-- value&#45;&gt;totalvaluesum -->
<g id="edge18" class="edge"><title>value&#45;&gt;totalvaluesum</title>
<path fill="none" stroke="black" stroke-dasharray="1,5" d="M54.2977,-433.465C73.69,-422.428 99.7349,-407.606 119.758,-396.211"/>
</g>
<!-- person -->
<g id="node5" class="node"><title>person</title>
<polygon fill="none" stroke="black" points="286,-297 286,-314 321,-314 321,-297 286,-297"/>
<text text-anchor="start" x="289.5" y="-303.5" font-family="Times New Roman,serif" font-size="10.00">person</text>
</g>
<!-- persons&#45;&gt;person -->
<g id="edge8" class="edge"><title>persons&#45;&gt;person</title>
<path fill="none" stroke="black" d="M265.36,-359.697C273.11,-348.846 283.059,-334.917 290.783,-324.104"/>
<text text-anchor="middle" x="267.188" y="-347.365" font-family="Times New Roman,serif" font-size="10.00">in</text>
</g>
<!-- sharetotalpersonssize -->
<g id="node10" class="node"><title>sharetotalpersonssize</title>
<text text-anchor="start" x="96.5" y="-303.5" font-family="Times New Roman,serif" font-size="10.00">share = total / persons.size()</text>
</g>
<!-- persons&#45;&gt;sharetotalpersonssize -->
<g id="edge22" class="edge"><title>persons&#45;&gt;sharetotalpersonssize</title>
<path fill="none" stroke="black" stroke-dasharray="1,5" d="M228.537,-359.876C213.041,-349.029 193.071,-335.05 177.557,-324.19"/>
</g>
<!-- foreachperson -->
<g id="node11" class="node"><title>foreachperson</title>
<text text-anchor="start" x="186.5" y="-231.5" font-family="Times New Roman,serif" font-size="10.00">foreach person</text>
</g>
<!-- persons&#45;&gt;foreachperson -->
<g id="edge28" class="edge"><title>persons&#45;&gt;foreachperson</title>
<path fill="none" stroke="black" stroke-dasharray="1,5" d="M248.658,-359.871C241.738,-332.578 228.287,-279.52 221.358,-252.189"/>
</g>
<!-- items2 -->
<g id="node6" class="node"><title>items2</title>
<polygon fill="none" stroke="black" points="287,-225 287,-242 320,-242 320,-225 287,-225"/>
<text text-anchor="start" x="290.5" y="-231.5" font-family="Times New Roman,serif" font-size="10.00">items2</text>
</g>
<!-- person&#45;&gt;items2 -->
<g id="edge10" class="edge"><title>person&#45;&gt;items2</title>
<path fill="none" stroke="black" d="M303,-287.697C303,-276.846 303,-262.917 303,-252.104"/>
<text text-anchor="middle" x="307.226" y="-258.667" font-family="Times New Roman,serif" font-size="10.00">get</text>
</g>
<!-- person&#45;&gt;foreachperson -->
<g id="edge26" class="edge"><title>person&#45;&gt;foreachperson</title>
<path fill="none" stroke="black" stroke-dasharray="1,5" d="M281.742,-287.697C268.411,-276.846 251.298,-262.917 238.014,-252.104"/>
</g>
<!-- personsetBalancemyCostsshare -->
<g id="node13" class="node"><title>personsetBalancemyCostsshare</title>
<text text-anchor="start" x="242.5" y="-15.5" font-family="Times New Roman,serif" font-size="10.00">person.setBalance(myCosts &#45; share)</text>
</g>
<!-- person&#45;&gt;personsetBalancemyCostsshare -->
<g id="edge34" class="edge"><title>person&#45;&gt;personsetBalancemyCostsshare</title>
<path fill="none" stroke="black" stroke-dasharray="1,5" d="M318.61,-287.774C326.373,-278.03 334.946,-265.184 339,-252 346.728,-226.869 367.468,-211.492 338,-72 335.346,-59.4383 329.596,-46.1883 324.51,-36.0787"/>
</g>
<!-- value2 -->
<g id="node7" class="node"><title>value2</title>
<polygon fill="none" stroke="black" points="278,-153 278,-170 312,-170 312,-153 278,-153"/>
<text text-anchor="start" x="281.5" y="-159.5" font-family="Times New Roman,serif" font-size="10.00">value2</text>
</g>
<!-- items2&#45;&gt;value2 -->
<g id="edge12" class="edge"><title>items2&#45;&gt;value2</title>
<path fill="none" stroke="black" d="M301.022,-215.697C299.782,-204.846 298.19,-190.917 296.955,-180.104"/>
<text text-anchor="middle" x="302.183" y="-186.129" font-family="Times New Roman,serif" font-size="10.00">get</text>
</g>
<!-- myCostsvaluesum -->
<g id="node12" class="node"><title>myCostsvaluesum</title>
<text text-anchor="start" x="227.5" y="-87.5" font-family="Times New Roman,serif" font-size="10.00">myCosts = value.sum()</text>
</g>
<!-- value2&#45;&gt;myCostsvaluesum -->
<g id="edge32" class="edge"><title>value2&#45;&gt;myCostsvaluesum</title>
<path fill="none" stroke="black" stroke-dasharray="1,5" d="M289.562,-143.697C286.152,-132.846 281.774,-118.917 278.376,-108.104"/>
</g>
<!-- GroupAccountupdateBalances -->
<g id="node8" class="node"><title>GroupAccountupdateBalances</title>
<text text-anchor="start" x="82.5" y="-447.5" font-family="Times New Roman,serif" font-size="10.00">GroupAccount::updateBalances()</text>
</g>
<!-- GroupAccountupdateBalances&#45;&gt;totalvaluesum -->
<g id="edge14" class="edge"><title>GroupAccountupdateBalances&#45;&gt;totalvaluesum</title>
<path fill="none" stroke="black" stroke-dasharray="1,5" d="M150,-431.697C150,-423.983 150,-414.712 150,-406.112"/>
<polygon fill="black" stroke="black" points="150,-396.104 154.5,-406.104 150,-401.104 150,-406.104 150,-406.104 150,-406.104 150,-401.104 145.5,-406.104 150,-396.104 150,-396.104"/>
</g>
<!-- totalvaluesum&#45;&gt;sharetotalpersonssize -->
<g id="edge16" class="edge"><title>totalvaluesum&#45;&gt;sharetotalpersonssize</title>
<path fill="none" stroke="black" stroke-dasharray="1,5" d="M150.742,-359.697C151.072,-351.983 151.469,-342.712 151.838,-334.112"/>
<polygon fill="black" stroke="black" points="152.267,-324.104 156.335,-334.288 152.053,-329.1 151.839,-334.095 151.839,-334.095 151.839,-334.095 152.053,-329.1 147.343,-333.902 152.267,-324.104 152.267,-324.104"/>
</g>
<!-- sharetotalpersonssize&#45;&gt;foreachperson -->
<g id="edge20" class="edge"><title>sharetotalpersonssize&#45;&gt;foreachperson</title>
<path fill="none" stroke="black" stroke-dasharray="1,5" d="M168.82,-287.697C176.57,-279.22 186.039,-268.864 194.524,-259.583"/>
<polygon fill="black" stroke="black" points="201.362,-252.104 197.935,-262.521 197.988,-255.794 194.614,-259.485 194.614,-259.485 194.614,-259.485 197.988,-255.794 191.293,-256.448 201.362,-252.104 201.362,-252.104"/>
</g>
<!-- foreachperson&#45;&gt;myCostsvaluesum -->
<g id="edge24" class="edge"><title>foreachperson&#45;&gt;myCostsvaluesum</title>
<path fill="none" stroke="black" stroke-dasharray="1,5" d="M223.755,-215.871C233.383,-191.457 251.142,-146.426 262.496,-117.635"/>
<polygon fill="black" stroke="black" points="266.221,-108.189 266.739,-119.143 264.387,-112.841 262.552,-117.492 262.552,-117.492 262.552,-117.492 264.387,-112.841 258.366,-115.841 266.221,-108.189 266.221,-108.189"/>
</g>
<!-- myCostsvaluesum&#45;&gt;personsetBalancemyCostsshare -->
<g id="edge30" class="edge"><title>myCostsvaluesum&#45;&gt;personsetBalancemyCostsshare</title>
<path fill="none" stroke="black" stroke-dasharray="1,5" d="M283.382,-71.6966C288.265,-63.5589 294.187,-53.689 299.579,-44.7013"/>
<polygon fill="black" stroke="black" points="304.737,-36.1043 303.451,-46.9945 302.165,-40.3918 299.592,-44.6793 299.592,-44.6793 299.592,-44.6793 302.165,-40.3918 295.734,-42.364 304.737,-36.1043 304.737,-36.1043"/>
</g>
</g>
</svg>
