<?xml version="1.0" encoding="UTF-8" standalone="no"?>
<!DOCTYPE svg PUBLIC "-//W3C//DTD SVG 1.1//EN"
 "http://www.w3.org/Graphics/SVG/1.1/DTD/svg11.dtd">
<!-- Generated by graphviz version 2.28.0 (20110507.0327)
 -->
<!-- Title: ClassDiagram Pages: 1 -->
<svg width="182pt" height="320pt"
 viewBox="0.00 0.00 182.00 320.00" xmlns="http://www.w3.org/2000/svg" xmlns:xlink="http://www.w3.org/1999/xlink">
<g id="graph1" class="graph" transform="scale(1 1) rotate(0) translate(4 316)">
<title>ClassDiagram</title>
<polygon fill="white" stroke="white" points="-4,5 -4,-316 179,-316 179,5 -4,5"/>
<!-- _GroupAccount -->
<g id="node1" class="node"><title>_GroupAccount</title>
<a xlink:href="../src/GroupAccount.java" xlink:title="&lt;TABLE&gt;">
<polygon fill="none" stroke="black" points="8,-290 8,-307 167,-307 167,-290 8,-290"/>
<text text-anchor="start" x="57" y="-296.5" font-family="Times New Roman,serif" font-size="10.00">GroupAccount</text>
</a>
<polygon fill="none" stroke="black" points="8,-270 8,-290 167,-290 167,-270 8,-270"/>
<text text-anchor="start" x="86" y="-278" font-family="Times New Roman,serif" font-size="10.00"> </text>
<polygon fill="none" stroke="black" points="8,-236 8,-270 167,-270 167,-236 8,-236"/>
<text text-anchor="start" x="13" y="-258" font-family="Times New Roman,serif" font-size="10.00">initAccounts(double num, String str)</text>
<text text-anchor="start" x="13" y="-244" font-family="Times New Roman,serif" font-size="10.00">updateBalances()</text>
</g>
<!-- _Person -->
<g id="node2" class="node"><title>_Person</title>
<a xlink:href="../src/Person.java" xlink:title="&lt;TABLE&gt;">
<polygon fill="none" stroke="black" points="13,-174 13,-191 88,-191 88,-174 13,-174"/>
<text text-anchor="start" x="36.5" y="-180.5" font-family="Times New Roman,serif" font-size="10.00">Person</text>
</a>
<polygon fill="none" stroke="black" points="13,-140 13,-174 88,-174 88,-140 13,-140"/>
<text text-anchor="start" x="18" y="-162" font-family="Times New Roman,serif" font-size="10.00">name :String</text>
<text text-anchor="start" x="18" y="-148" font-family="Times New Roman,serif" font-size="10.00">balance :double</text>
<polygon fill="none" stroke="black" points="13,-120 13,-140 88,-140 88,-120 13,-120"/>
<text text-anchor="start" x="49" y="-128" font-family="Times New Roman,serif" font-size="10.00"> </text>
</g>
<!-- _GroupAccount&#45;&gt;_Person -->
<g id="edge2" class="edge"><title>_GroupAccount&#45;&gt;_Person</title>
<path fill="none" stroke="black" d="M74.4735,-232.405C70.616,-220.519 66.3703,-207.438 62.5136,-195.555"/>
<text text-anchor="middle" x="69.3312" y="-200.371" font-family="Times New Roman,serif" font-size="10.00">persons *</text>
<text text-anchor="middle" x="67.6559" y="-222.589" font-family="Times New Roman,serif" font-size="10.00">parent</text>
</g>
<!-- _Item -->
<g id="node3" class="node"><title>_Item</title>
<a xlink:href="../src/Item.java" xlink:title="&lt;TABLE&gt;">
<polygon fill="none" stroke="black" points="45,-58 45,-75 130,-75 130,-58 45,-58"/>
<text text-anchor="start" x="78.5" y="-64.5" font-family="Times New Roman,serif" font-size="10.00">Item</text>
</a>
<polygon fill="none" stroke="black" points="45,-24 45,-58 130,-58 130,-24 45,-24"/>
<text text-anchor="start" x="50" y="-46" font-family="Times New Roman,serif" font-size="10.00">description :String</text>
<text text-anchor="start" x="50" y="-32" font-family="Times New Roman,serif" font-size="10.00">value :double</text>
<polygon fill="none" stroke="black" points="45,-4 45,-24 130,-24 130,-4 45,-4"/>
<text text-anchor="start" x="86" y="-12" font-family="Times New Roman,serif" font-size="10.00"> </text>
</g>
<!-- _GroupAccount&#45;&gt;_Item -->
<g id="edge4" class="edge"><title>_GroupAccount&#45;&gt;_Item</title>
<path fill="none" stroke="black" d="M97.4882,-232.355C100.166,-220.756 102.664,-207.941 104,-196 107.954,-160.665 107.954,-151.335 104,-116 102.664,-104.059 100.166,-91.2437 97.4882,-79.6455"/>
<text text-anchor="middle" x="103.614" y="-85.0494" font-family="Times New Roman,serif" font-size="10.00">items *</text>
<text text-anchor="middle" x="95.3711" y="-220.081" font-family="Times New Roman,serif" font-size="10.00">parent</text>
</g>
<!-- _Person&#45;&gt;_Item -->
<g id="edge6" class="edge"><title>_Person&#45;&gt;_Item</title>
<path fill="none" stroke="black" d="M62.5265,-116.405C66.384,-104.519 70.6297,-91.4381 74.4864,-79.5555"/>
<text text-anchor="middle" x="75.7083" y="-86.9805" font-family="Times New Roman,serif" font-size="10.00">items *</text>
<text text-anchor="middle" x="61.3046" y="-103.98" font-family="Times New Roman,serif" font-size="10.00">buyer</text>
</g>
</g>
</svg>
