<?xml version="1.0" encoding="UTF-8" standalone="no"?>
<!DOCTYPE svg PUBLIC "-//W3C//DTD SVG 1.1//EN"
 "http://www.w3.org/Graphics/SVG/1.1/DTD/svg11.dtd">
<!-- Generated by graphviz version 2.28.0 (20110507.0327)
 -->
<!-- Title: ObjectDiagram Pages: 1 -->
<svg width="347pt" height="98pt"
 viewBox="0.00 0.00 347.00 98.00" xmlns="http://www.w3.org/2000/svg" xmlns:xlink="http://www.w3.org/1999/xlink">
<g id="graph1" class="graph" transform="scale(1 1) rotate(0) translate(4 94)">
<title>ObjectDiagram</title>
<polygon fill="white" stroke="white" points="-4,5 -4,-94 344,-94 344,5 -4,5"/>
<!-- s2 -->
<g id="node1" class="node"><title>s2</title>
<image xlink:href="icons/worker.png" width="63px" height="61px" preserveAspectRatio="xMinYMin meet" x="10" y="-83"/>
<a xlink:href="../examples/org/sdmlib/examples/replication/maumau/StoryTheo.java" xlink:title="&lt;TABLE&gt;">
<polygon fill="none" stroke="black" points="8,-4 8,-20 75,-20 75,-4 8,-4"/>
<text text-anchor="start" x="11.5" y="-10" font-family="Times New Roman,serif" font-size="10.00"> </text>
<text text-anchor="start" x="14.5" y="-10" font-family="Times New Roman,serif" font-size="10.00">s2 :StoryTheo</text>
</a>
</g>
<!-- l7 -->
<g id="node2" class="node"><title>l7</title>
<a xlink:href="../../SDMLib/src/org/eclipse/swt/widgets/Label.java" xlink:title="&lt;TABLE&gt;">
<polygon fill="none" stroke="black" points="109,-46 109,-63 332,-63 332,-46 109,-46"/>
<text text-anchor="start" x="202" y="-52.5" font-family="Times New Roman,serif" font-size="10.00"> </text>
<text text-anchor="start" x="205" y="-52.5" font-family="Times New Roman,serif" font-size="10.00">l7 :Label</text>
</a>
<polygon fill="none" stroke="black" points="109,-26 109,-46 332,-46 332,-26 109,-26"/>
<text text-anchor="start" x="114" y="-34" font-family="Times New Roman,serif" font-size="10.00">text = &quot;When all players have shown up, Start Game&quot;</text>
</g>
</g>
</svg>
