<?xml version="1.0" encoding="UTF-8" standalone="no"?>
<!DOCTYPE svg PUBLIC "-//W3C//DTD SVG 1.1//EN"
 "http://www.w3.org/Graphics/SVG/1.1/DTD/svg11.dtd">
<!-- Generated by graphviz version 2.28.0 (20110507.0327)
 -->
<!-- Title: ObjectDiagram Pages: 1 -->
<svg width="1061pt" height="276pt"
 viewBox="0.00 0.00 1061.00 276.00" xmlns="http://www.w3.org/2000/svg" xmlns:xlink="http://www.w3.org/1999/xlink">
<g id="graph1" class="graph" transform="scale(1 1) rotate(0) translate(4 272)">
<title>ObjectDiagram</title>
<polygon fill="white" stroke="white" points="-4,5 -4,-272 1058,-272 1058,5 -4,5"/>
<!-- s10 -->
<g id="node1" class="node"><title>s10</title>
<image xlink:href="icons/worker.png" width="80px" height="61px" preserveAspectRatio="xMinYMin meet" x="101.5" y="-261"/>
<a xlink:href="../examples/org/sdmlib/examples/replication/maumau/ShowStartGameButtonAction.java" xlink:title="&lt;TABLE&gt;">
<polygon fill="none" stroke="black" points="68,-182 68,-198 215,-198 215,-182 68,-182"/>
<text text-anchor="start" x="71.5" y="-188" font-family="Times New Roman,serif" font-size="10.00"> </text>
<text text-anchor="start" x="74.5" y="-188" font-family="Times New Roman,serif" font-size="10.00">s10 :ShowStartGameButtonAction</text>
</a>
</g>
<!-- taskboard -->
<g id="node2" class="node"><title>taskboard</title>
<image xlink:href="icons/shared.png" width="70px" height="23px" preserveAspectRatio="xMinYMin meet" x="273" y="-242"/>
<a xlink:href="../../SDMLib/src/org/sdmlib/replication/TaskFlowBoard.java" xlink:title="&lt;TABLE&gt;">
<polygon fill="none" stroke="black" points="249,-201 249,-217 367,-217 367,-201 249,-201"/>
<text text-anchor="start" x="252.5" y="-207" font-family="Times New Roman,serif" font-size="10.00"> </text>
<text text-anchor="start" x="255.5" y="-207" font-family="Times New Roman,serif" font-size="10.00">taskboard :TaskFlowBoard</text>
</a>
</g>
<!-- l2 -->
<g id="node3" class="node"><title>l2</title>
<a xlink:href="../../SDMLib/src/org/sdmlib/replication/Lane.java" xlink:title="&lt;TABLE&gt;">
<polygon fill="none" stroke="black" points="55,-120 55,-137 131,-137 131,-120 55,-120"/>
<text text-anchor="start" x="76" y="-126.5" font-family="Times New Roman,serif" font-size="10.00"> </text>
<text text-anchor="start" x="79" y="-126.5" font-family="Times New Roman,serif" font-size="10.00">l2 :Lane</text>
</a>
<polygon fill="none" stroke="black" points="55,-100 55,-120 131,-120 131,-100 55,-100"/>
<text text-anchor="start" x="60" y="-108" font-family="Times New Roman,serif" font-size="10.00">name = &quot;server&quot;</text>
</g>
<!-- taskboard&#45;&#45;l2 -->
<g id="edge2" class="edge"><title>taskboard&#45;&#45;l2</title>
<path fill="none" stroke="black" d="M266.939,-197.314C255.459,-190.749 242.873,-183.861 231,-178 214.163,-169.689 172.365,-152.281 139.15,-138.694"/>
<text text-anchor="middle" x="149.139" y="-135.722" font-family="Times New Roman,serif" font-size="10.00">lanes</text>
<text text-anchor="middle" x="256.972" y="-194.004" font-family="Times New Roman,serif" font-size="10.00">board</text>
</g>
<!-- l3 -->
<g id="node4" class="node"><title>l3</title>
<a xlink:href="../../SDMLib/src/org/sdmlib/replication/Lane.java" xlink:title="&lt;TABLE&gt;">
<polygon fill="none" stroke="black" points="166,-120 166,-137 301,-137 301,-120 166,-120"/>
<text text-anchor="start" x="216.5" y="-126.5" font-family="Times New Roman,serif" font-size="10.00"> </text>
<text text-anchor="start" x="219.5" y="-126.5" font-family="Times New Roman,serif" font-size="10.00">l3 :Lane</text>
</a>
<polygon fill="none" stroke="black" points="166,-100 166,-120 301,-120 301,-100 166,-100"/>
<text text-anchor="start" x="171" y="-108" font-family="Times New Roman,serif" font-size="10.00">name = &quot;play7WorkFlowLane&quot;</text>
</g>
<!-- taskboard&#45;&#45;l3 -->
<g id="edge4" class="edge"><title>taskboard&#45;&#45;l3</title>
<path fill="none" stroke="black" d="M289.845,-197.309C277.359,-180.328 260.934,-157.99 248.951,-141.694"/>
<text text-anchor="middle" x="257.725" y="-143.992" font-family="Times New Roman,serif" font-size="10.00">lanes</text>
<text text-anchor="middle" x="281.071" y="-190.011" font-family="Times New Roman,serif" font-size="10.00">board</text>
</g>
<!-- l7 -->
<g id="node7" class="node"><title>l7</title>
<a xlink:href="../../SDMLib/src/org/sdmlib/replication/Lane.java" xlink:title="&lt;TABLE&gt;">
<polygon fill="none" stroke="black" points="338,-120 338,-137 427,-137 427,-120 338,-120"/>
<text text-anchor="start" x="365.5" y="-126.5" font-family="Times New Roman,serif" font-size="10.00"> </text>
<text text-anchor="start" x="368.5" y="-126.5" font-family="Times New Roman,serif" font-size="10.00">l7 :Lane</text>
</a>
<polygon fill="none" stroke="black" points="338,-100 338,-120 427,-120 427,-100 338,-100"/>
<text text-anchor="start" x="343" y="-108" font-family="Times New Roman,serif" font-size="10.00">name = &quot;AbuLane&quot;</text>
</g>
<!-- taskboard&#45;&#45;l7 -->
<g id="edge6" class="edge"><title>taskboard&#45;&#45;l7</title>
<path fill="none" stroke="black" d="M325.913,-197.309C338.232,-180.328 354.439,-157.99 366.261,-141.694"/>
<text text-anchor="middle" x="364.36" y="-149.012" font-family="Times New Roman,serif" font-size="10.00">lanes</text>
<text text-anchor="middle" x="327.815" y="-184.991" font-family="Times New Roman,serif" font-size="10.00">board</text>
</g>
<!-- l1 -->
<g id="node9" class="node"><title>l1</title>
<a xlink:href="../../SDMLib/src/org/sdmlib/replication/Lane.java" xlink:title="&lt;TABLE&gt;">
<polygon fill="none" stroke="black" points="490,-120 490,-137 580,-137 580,-120 490,-120"/>
<text text-anchor="start" x="518" y="-126.5" font-family="Times New Roman,serif" font-size="10.00"> </text>
<text text-anchor="start" x="521" y="-126.5" font-family="Times New Roman,serif" font-size="10.00">l1 :Lane</text>
</a>
<polygon fill="none" stroke="black" points="490,-100 490,-120 580,-120 580,-100 490,-100"/>
<text text-anchor="start" x="495" y="-108" font-family="Times New Roman,serif" font-size="10.00">name = &quot;KarliLane&quot;</text>
</g>
<!-- taskboard&#45;&#45;l1 -->
<g id="edge8" class="edge"><title>taskboard&#45;&#45;l1</title>
<path fill="none" stroke="black" d="M362.661,-197.439C400.575,-180.403 450.596,-157.926 486.977,-141.579"/>
<text text-anchor="middle" x="480.442" y="-146.648" font-family="Times New Roman,serif" font-size="10.00">lanes</text>
<text text-anchor="middle" x="369.196" y="-187.369" font-family="Times New Roman,serif" font-size="10.00">board</text>
</g>
<!-- b4 -->
<g id="node5" class="node"><title>b4</title>
<a xlink:href="../../SDMLib/src/org/sdmlib/replication/BoardTask.java" xlink:title="&lt;TABLE&gt;">
<polygon fill="none" stroke="black" points="8,-38 8,-55 149,-55 149,-38 8,-38"/>
<text text-anchor="start" x="48" y="-44.5" font-family="Times New Roman,serif" font-size="10.00"> </text>
<text text-anchor="start" x="51" y="-44.5" font-family="Times New Roman,serif" font-size="10.00">b4 :BoardTask</text>
</a>
<polygon fill="none" stroke="black" points="8,-4 8,-38 149,-38 149,-4 8,-4"/>
<text text-anchor="start" x="13" y="-26" font-family="Times New Roman,serif" font-size="10.00">name = &quot;showStartGameButton&quot;</text>
<text text-anchor="start" x="13" y="-12" font-family="Times New Roman,serif" font-size="10.00">status = &quot;start&quot;</text>
</g>
<!-- l3&#45;&#45;b4 -->
<g id="edge10" class="edge"><title>l3&#45;&#45;b4</title>
<path fill="none" stroke="black" d="M194.685,-96.4944C174.873,-85.3739 150.424,-71.6511 129.033,-59.6443"/>
<text text-anchor="middle" x="139.005" y="-57.895" font-family="Times New Roman,serif" font-size="10.00">tasks</text>
<text text-anchor="middle" x="184.714" y="-93.2437" font-family="Times New Roman,serif" font-size="10.00">lane</text>
</g>
<!-- b5 -->
<g id="node6" class="node"><title>b5</title>
<a xlink:href="../../SDMLib/src/org/sdmlib/replication/BoardTask.java" xlink:title="&lt;TABLE&gt;">
<polygon fill="none" stroke="black" points="183,-38 183,-55 280,-55 280,-38 183,-38"/>
<text text-anchor="start" x="201" y="-44.5" font-family="Times New Roman,serif" font-size="10.00"> </text>
<text text-anchor="start" x="204" y="-44.5" font-family="Times New Roman,serif" font-size="10.00">b5 :BoardTask</text>
</a>
<polygon fill="none" stroke="black" points="183,-4 183,-38 280,-38 280,-4 183,-4"/>
<text text-anchor="start" x="188" y="-26" font-family="Times New Roman,serif" font-size="10.00">name = &quot;startClients&quot;</text>
<text text-anchor="start" x="188" y="-12" font-family="Times New Roman,serif" font-size="10.00">status = &quot;start&quot;</text>
</g>
<!-- l3&#45;&#45;b5 -->
<g id="edge12" class="edge"><title>l3&#45;&#45;b5</title>
<path fill="none" stroke="black" d="M232.506,-96.4944C232.251,-85.4243 231.937,-71.7752 231.662,-59.8074"/>
<text text-anchor="middle" x="236.096" y="-66.2709" font-family="Times New Roman,serif" font-size="10.00">tasks</text>
<text text-anchor="middle" x="228.072" y="-85.0308" font-family="Times New Roman,serif" font-size="10.00">lane</text>
</g>
<!-- b8 -->
<g id="node8" class="node"><title>b8</title>
<a xlink:href="../../SDMLib/src/org/sdmlib/replication/BoardTask.java" xlink:title="&lt;TABLE&gt;">
<polygon fill="none" stroke="black" points="314,-38 314,-55 455,-55 455,-38 314,-38"/>
<text text-anchor="start" x="354" y="-44.5" font-family="Times New Roman,serif" font-size="10.00"> </text>
<text text-anchor="start" x="357" y="-44.5" font-family="Times New Roman,serif" font-size="10.00">b8 :BoardTask</text>
</a>
<polygon fill="none" stroke="black" points="314,-4 314,-38 455,-38 455,-4 314,-4"/>
<text text-anchor="start" x="319" y="-26" font-family="Times New Roman,serif" font-size="10.00">name = &quot;showStartGameButton&quot;</text>
<text text-anchor="start" x="319" y="-12" font-family="Times New Roman,serif" font-size="10.00">status = &quot;start&quot;</text>
</g>
<!-- l7&#45;&#45;b8 -->
<g id="edge14" class="edge"><title>l7&#45;&#45;b8</title>
<path fill="none" stroke="black" d="M382.494,-96.4944C382.749,-85.4243 383.063,-71.7752 383.338,-59.8074"/>
<text text-anchor="middle" x="387.355" y="-66.4652" font-family="Times New Roman,serif" font-size="10.00">tasks</text>
<text text-anchor="middle" x="378.478" y="-84.8366" font-family="Times New Roman,serif" font-size="10.00">lane</text>
</g>
<!-- b9 -->
<g id="node10" class="node"><title>b9</title>
<a xlink:href="../../SDMLib/src/org/sdmlib/replication/BoardTask.java" xlink:title="&lt;TABLE&gt;">
<polygon fill="none" stroke="black" points="489,-38 489,-55 630,-55 630,-38 489,-38"/>
<text text-anchor="start" x="529" y="-44.5" font-family="Times New Roman,serif" font-size="10.00"> </text>
<text text-anchor="start" x="532" y="-44.5" font-family="Times New Roman,serif" font-size="10.00">b9 :BoardTask</text>
</a>
<polygon fill="none" stroke="black" points="489,-4 489,-38 630,-38 630,-4 489,-4"/>
<text text-anchor="start" x="494" y="-26" font-family="Times New Roman,serif" font-size="10.00">name = &quot;showStartGameButton&quot;</text>
<text text-anchor="start" x="494" y="-12" font-family="Times New Roman,serif" font-size="10.00">status = &quot;start&quot;</text>
</g>
<!-- l1&#45;&#45;b9 -->
<g id="edge16" class="edge"><title>l1&#45;&#45;b9</title>
<path fill="none" stroke="black" d="M540.933,-96.4944C543.986,-85.4243 547.752,-71.7752 551.053,-59.8074"/>
<text text-anchor="middle" x="552.717" y="-67.168" font-family="Times New Roman,serif" font-size="10.00">tasks</text>
<text text-anchor="middle" x="539.269" y="-84.1338" font-family="Times New Roman,serif" font-size="10.00">lane</text>
</g>
<!-- l11 -->
<g id="node11" class="node"><title>l11</title>
<a xlink:href="../../SDMLib/src/org/eclipse/swt/widgets/Label.java" xlink:title="&lt;TABLE&gt;">
<polygon fill="none" stroke="black" points="615,-120 615,-137 838,-137 838,-120 615,-120"/>
<text text-anchor="start" x="706" y="-126.5" font-family="Times New Roman,serif" font-size="10.00"> </text>
<text text-anchor="start" x="709" y="-126.5" font-family="Times New Roman,serif" font-size="10.00">l11 :Label</text>
</a>
<polygon fill="none" stroke="black" points="615,-100 615,-120 838,-120 838,-100 615,-100"/>
<text text-anchor="start" x="620" y="-108" font-family="Times New Roman,serif" font-size="10.00">text = &quot;When all players have shown up, Start Game&quot;</text>
</g>
<!-- s12 -->
<g id="node12" class="node"><title>s12</title>
<image xlink:href="icons/person1.png" width="32px" height="43px" preserveAspectRatio="xMinYMin meet" x="710.5" y="-252"/>
<a xlink:href="../examples/org/sdmlib/examples/replication/maumau/StartGameMouseAdapter.java" xlink:title="&lt;TABLE&gt;">
<polygon fill="none" stroke="black" points="661,-191 661,-207 792,-207 792,-191 661,-191"/>
<text text-anchor="start" x="664.5" y="-197" font-family="Times New Roman,serif" font-size="10.00"> </text>
<text text-anchor="start" x="667.5" y="-197" font-family="Times New Roman,serif" font-size="10.00">s12 :StartGameMouseAdapter</text>
</a>
</g>
<!-- s12&#45;&#45;l11 -->
<g id="edge18" class="edge"><title>s12&#45;&#45;l11</title>
<path fill="none" stroke="black" d="M726,-187.467C726,-172.325 726,-155.013 726,-141.717"/>
<text text-anchor="middle" x="730.226" y="-148.28" font-family="Times New Roman,serif" font-size="10.00">startGameLabel</text>
</g>
<!-- maumau -->
<g id="node13" class="node"><title>maumau</title>
<image xlink:href="icons/shared.png" width="70px" height="23px" preserveAspectRatio="xMinYMin meet" x="923" y="-242"/>
<a xlink:href="../examples/org/sdmlib/examples/replication/maumau/MauMau.java" xlink:title="&lt;TABLE&gt;">
<polygon fill="none" stroke="black" points="915,-201 915,-217 1001,-217 1001,-201 915,-201"/>
<text text-anchor="start" x="918.5" y="-207" font-family="Times New Roman,serif" font-size="10.00"> </text>
<text text-anchor="start" x="921.5" y="-207" font-family="Times New Roman,serif" font-size="10.00">maumau :MauMau</text>
</a>
</g>
<!-- p6 -->
<g id="node14" class="node"><title>p6</title>
<a xlink:href="../examples/org/sdmlib/examples/replication/maumau/Player.java" xlink:title="&lt;TABLE&gt;">
<polygon fill="none" stroke="black" points="872,-120 872,-137 941,-137 941,-120 872,-120"/>
<text text-anchor="start" x="885" y="-126.5" font-family="Times New Roman,serif" font-size="10.00"> </text>
<text text-anchor="start" x="888" y="-126.5" font-family="Times New Roman,serif" font-size="10.00">p6 :Player</text>
</a>
<polygon fill="none" stroke="black" points="872,-100 872,-120 941,-120 941,-100 872,-100"/>
<text text-anchor="start" x="877" y="-108" font-family="Times New Roman,serif" font-size="10.00">name = &quot;Abu&quot;</text>
</g>
<!-- maumau&#45;&#45;p6 -->
<g id="edge20" class="edge"><title>maumau&#45;&#45;p6</title>
<path fill="none" stroke="black" d="M945.412,-197.309C936.756,-180.328 925.367,-157.99 917.06,-141.694"/>
<text text-anchor="middle" x="924.941" y="-145.349" font-family="Times New Roman,serif" font-size="10.00">players</text>
<text text-anchor="middle" x="937.531" y="-188.654" font-family="Times New Roman,serif" font-size="10.00">game</text>
</g>
<!-- karli -->
<g id="node15" class="node"><title>karli</title>
<a xlink:href="../examples/org/sdmlib/examples/replication/maumau/Player.java" xlink:title="&lt;TABLE&gt;">
<polygon fill="none" stroke="black" points="975,-120 975,-137 1045,-137 1045,-120 975,-120"/>
<text text-anchor="start" x="985.5" y="-126.5" font-family="Times New Roman,serif" font-size="10.00"> </text>
<text text-anchor="start" x="988.5" y="-126.5" font-family="Times New Roman,serif" font-size="10.00">karli :Player</text>
</a>
<polygon fill="none" stroke="black" points="975,-100 975,-120 1045,-120 1045,-100 975,-100"/>
<text text-anchor="start" x="980" y="-108" font-family="Times New Roman,serif" font-size="10.00">name = &quot;Karli&quot;</text>
</g>
<!-- maumau&#45;&#45;karli -->
<g id="edge22" class="edge"><title>maumau&#45;&#45;karli</title>
<path fill="none" stroke="black" d="M970.588,-197.309C979.244,-180.328 990.633,-157.99 998.94,-141.694"/>
<text text-anchor="middle" x="998.589" y="-149.188" font-family="Times New Roman,serif" font-size="10.00">players</text>
<text text-anchor="middle" x="970.939" y="-184.815" font-family="Times New Roman,serif" font-size="10.00">game</text>
</g>
</g>
</svg>
