<?xml version="1.0" encoding="UTF-8" standalone="no"?>
<!DOCTYPE svg PUBLIC "-//W3C//DTD SVG 1.1//EN"
 "http://www.w3.org/Graphics/SVG/1.1/DTD/svg11.dtd">
<!-- Generated by graphviz version 2.28.0 (20110507.0327)
 -->
<!-- Title: ObjectDiagram Pages: 1 -->
<svg width="1116pt" height="384pt"
 viewBox="0.00 0.00 1116.00 384.00" xmlns="http://www.w3.org/2000/svg" xmlns:xlink="http://www.w3.org/1999/xlink">
<g id="graph1" class="graph" transform="scale(1 1) rotate(0) translate(4 380)">
<title>ObjectDiagram</title>
<polygon fill="white" stroke="white" points="-4,5 -4,-380 1113,-380 1113,5 -4,5"/>
<!-- karliNode -->
<g id="node1" class="node"><title>karliNode</title>
<image xlink:href="icons/node.png" width="83px" height="61px" preserveAspectRatio="xMinYMin meet" x="10" y="-357"/>
<a xlink:href="../../SDMLib/src/org/sdmlib/replication/Node.java" xlink:title="&lt;TABLE&gt;">
<polygon fill="none" stroke="black" points="8,-278 8,-294 95,-294 95,-278 8,-278"/>
<text text-anchor="start" x="14.5" y="-284" font-family="Arial" font-size="10.00"> </text>
<text text-anchor="start" x="18.5" y="-284" font-family="Arial" font-size="10.00">karliNode :Node</text>
</a>
</g>
<!-- s7 -->
<g id="node2" class="node"><title>s7</title>
<image xlink:href="icons/worker.png" width="80px" height="61px" preserveAspectRatio="xMinYMin meet" x="167" y="-357"/>
<a xlink:href="../examples/org/sdmlib/examples/replication/maumau/ShowStartGameButtonAction.java" xlink:title="&lt;TABLE&gt;">
<polygon fill="none" stroke="black" points="129,-278 129,-294 285,-294 285,-278 129,-278"/>
<text text-anchor="start" x="132.5" y="-284" font-family="Arial" font-size="10.00"> </text>
<text text-anchor="start" x="136.5" y="-284" font-family="Arial" font-size="10.00">s7 :ShowStartGameButtonAction</text>
</a>
</g>
<!-- taskboard -->
<g id="node3" class="node"><title>taskboard</title>
<image xlink:href="icons/shared.png" width="70px" height="23px" preserveAspectRatio="xMinYMin meet" x="348.5" y="-338"/>
<a xlink:href="../../SDMLib/src/org/sdmlib/replication/TaskFlowBoard.java" xlink:title="&lt;TABLE&gt;">
<polygon fill="none" stroke="black" points="320,-297 320,-313 447,-313 447,-297 320,-297"/>
<text text-anchor="start" x="323.5" y="-303" font-family="Arial" font-size="10.00"> </text>
<text text-anchor="start" x="327.5" y="-303" font-family="Arial" font-size="10.00">taskboard :TaskFlowBoard</text>
</a>
</g>
<!-- l2 -->
<g id="node4" class="node"><title>l2</title>
<a xlink:href="../../SDMLib/src/org/sdmlib/replication/Lane.java" xlink:title="&lt;TABLE&gt;">
<polygon fill="none" stroke="black" points="222,-162 222,-179 303,-179 303,-162 222,-162"/>
<text text-anchor="start" x="243" y="-168.5" font-family="Arial" font-size="10.00"> </text>
<text text-anchor="start" x="247" y="-168.5" font-family="Arial" font-size="10.00">l2 :Lane</text>
</a>
<polygon fill="none" stroke="black" points="222,-142 222,-162 303,-162 303,-142 222,-142"/>
<text text-anchor="start" x="227" y="-150" font-family="Arial" font-size="10.00">name = &quot;server&quot;</text>
</g>
<!-- taskboard&#45;&#45;l2 -->
<g id="edge2" class="edge"><title>taskboard&#45;&#45;l2</title>
<path fill="none" stroke="black" d="M363.827,-293.281C340.371,-263.04 301.038,-212.329 278.745,-183.589"/>
<text text-anchor="middle" x="287.639" y="-185.66" font-family="Arial" font-size="10.00">lanes</text>
<text text-anchor="middle" x="354.933" y="-286.21" font-family="Arial" font-size="10.00">board</text>
</g>
<!-- l4 -->
<g id="node5" class="node"><title>l4</title>
<a xlink:href="../../SDMLib/src/org/sdmlib/replication/Lane.java" xlink:title="&lt;TABLE&gt;">
<polygon fill="none" stroke="black" points="337,-162 337,-179 430,-179 430,-162 337,-162"/>
<text text-anchor="start" x="364" y="-168.5" font-family="Arial" font-size="10.00"> </text>
<text text-anchor="start" x="368" y="-168.5" font-family="Arial" font-size="10.00">l4 :Lane</text>
</a>
<polygon fill="none" stroke="black" points="337,-142 337,-162 430,-162 430,-142 337,-142"/>
<text text-anchor="start" x="342" y="-150" font-family="Arial" font-size="10.00">name = &quot;AbuLane&quot;</text>
</g>
<!-- taskboard&#45;&#45;l4 -->
<g id="edge4" class="edge"><title>taskboard&#45;&#45;l4</title>
<path fill="none" stroke="black" d="M383,-293.281C383,-263.04 383,-212.329 383,-183.589"/>
<text text-anchor="middle" x="387.226" y="-190.152" font-family="Arial" font-size="10.00">lanes</text>
<text text-anchor="middle" x="378.774" y="-281.718" font-family="Arial" font-size="10.00">board</text>
</g>
<!-- l1 -->
<g id="node7" class="node"><title>l1</title>
<a xlink:href="../../SDMLib/src/org/sdmlib/replication/Lane.java" xlink:title="&lt;TABLE&gt;">
<polygon fill="none" stroke="black" points="493,-162 493,-179 589,-179 589,-162 493,-162"/>
<text text-anchor="start" x="521.5" y="-168.5" font-family="Arial" font-size="10.00"> </text>
<text text-anchor="start" x="525.5" y="-168.5" font-family="Arial" font-size="10.00">l1 :Lane</text>
</a>
<polygon fill="none" stroke="black" points="493,-142 493,-162 589,-162 589,-142 493,-142"/>
<text text-anchor="start" x="498" y="-150" font-family="Arial" font-size="10.00">name = &quot;KarliLane&quot;</text>
</g>
<!-- taskboard&#45;&#45;l1 -->
<g id="edge6" class="edge"><title>taskboard&#45;&#45;l1</title>
<path fill="none" stroke="black" d="M408.036,-293.281C438.665,-263.04 490.025,-212.329 519.135,-183.589"/>
<text text-anchor="middle" x="515.655" y="-190.464" font-family="Arial" font-size="10.00">lanes</text>
<text text-anchor="middle" x="411.516" y="-281.406" font-family="Arial" font-size="10.00">board</text>
</g>
<!-- b5 -->
<g id="node6" class="node"><title>b5</title>
<a xlink:href="../../SDMLib/src/org/sdmlib/replication/BoardTask.java" xlink:title="&lt;TABLE&gt;">
<polygon fill="none" stroke="black" points="293,-38 293,-55 446,-55 446,-38 293,-38"/>
<text text-anchor="start" x="335.5" y="-44.5" font-family="Arial" font-size="10.00"> </text>
<text text-anchor="start" x="339.5" y="-44.5" font-family="Arial" font-size="10.00">b5 :BoardTask</text>
</a>
<polygon fill="none" stroke="black" points="293,-4 293,-38 446,-38 446,-4 293,-4"/>
<text text-anchor="start" x="298" y="-26" font-family="Arial" font-size="10.00">name = &quot;showStartGameButton&quot;</text>
<text text-anchor="start" x="298" y="-12" font-family="Arial" font-size="10.00">status = &quot;start&quot;</text>
</g>
<!-- l4&#45;&#45;b5 -->
<g id="edge8" class="edge"><title>l4&#45;&#45;b5</title>
<path fill="none" stroke="black" d="M380.657,-138.408C378.321,-116.891 374.721,-83.7134 372.139,-59.9275"/>
<text text-anchor="middle" x="377.319" y="-65.9817" font-family="Arial" font-size="10.00">tasks</text>
<text text-anchor="middle" x="375.477" y="-127.354" font-family="Arial" font-size="10.00">lane</text>
</g>
<!-- b6 -->
<g id="node8" class="node"><title>b6</title>
<a xlink:href="../../SDMLib/src/org/sdmlib/replication/BoardTask.java" xlink:title="&lt;TABLE&gt;">
<polygon fill="none" stroke="black" points="480,-38 480,-55 633,-55 633,-38 480,-38"/>
<text text-anchor="start" x="522.5" y="-44.5" font-family="Arial" font-size="10.00"> </text>
<text text-anchor="start" x="526.5" y="-44.5" font-family="Arial" font-size="10.00">b6 :BoardTask</text>
</a>
<polygon fill="none" stroke="black" points="480,-4 480,-38 633,-38 633,-4 480,-4"/>
<text text-anchor="start" x="485" y="-26" font-family="Arial" font-size="10.00">name = &quot;showStartGameButton&quot;</text>
<text text-anchor="start" x="485" y="-12" font-family="Arial" font-size="10.00">status = &quot;start&quot;</text>
</g>
<!-- l1&#45;&#45;b6 -->
<g id="edge10" class="edge"><title>l1&#45;&#45;b6</title>
<path fill="none" stroke="black" d="M543.511,-138.408C546.013,-116.891 549.871,-83.7134 552.636,-59.9275"/>
<text text-anchor="middle" x="555.787" y="-66.9181" font-family="Arial" font-size="10.00">tasks</text>
<text text-anchor="middle" x="540.36" y="-126.418" font-family="Arial" font-size="10.00">lane</text>
</g>
<!-- l8 -->
<g id="node9" class="node"><title>l8</title>
<a xlink:href="../../SDMLib/src/org/eclipse/swt/widgets/Label.java" xlink:title="&lt;TABLE&gt;">
<polygon fill="none" stroke="black" points="624,-162 624,-179 867,-179 867,-162 624,-162"/>
<text text-anchor="start" x="725" y="-168.5" font-family="Arial" font-size="10.00"> </text>
<text text-anchor="start" x="729" y="-168.5" font-family="Arial" font-size="10.00">l8 :Label</text>
</a>
<polygon fill="none" stroke="black" points="624,-142 624,-162 867,-162 867,-142 624,-142"/>
<text text-anchor="start" x="629" y="-150" font-family="Arial" font-size="10.00">text = &quot;When all players have shown up, Start Game&quot;</text>
</g>
<!-- s9 -->
<g id="node10" class="node"><title>s9</title>
<image xlink:href="icons/person1.png" width="32px" height="43px" preserveAspectRatio="xMinYMin meet" x="729" y="-348"/>
<a xlink:href="../examples/org/sdmlib/examples/replication/maumau/StartGameMouseAdapter.java" xlink:title="&lt;TABLE&gt;">
<polygon fill="none" stroke="black" points="676,-287 676,-303 814,-303 814,-287 676,-287"/>
<text text-anchor="start" x="679.5" y="-293" font-family="Arial" font-size="10.00"> </text>
<text text-anchor="start" x="683.5" y="-293" font-family="Arial" font-size="10.00">s9 :StartGameMouseAdapter</text>
</a>
</g>
<!-- s9&#45;&#45;l8 -->
<g id="edge12" class="edge"><title>s9&#45;&#45;l8</title>
<path fill="none" stroke="black" d="M745,-283.379C745,-252.859 745,-209.348 745,-183.558"/>
<text text-anchor="middle" x="749.226" y="-190.121" font-family="Arial" font-size="10.00">startGameLabel</text>
</g>
<!-- maumau -->
<g id="node11" class="node"><title>maumau</title>
<image xlink:href="icons/shared.png" width="70px" height="23px" preserveAspectRatio="xMinYMin meet" x="966.5" y="-369"/>
<a xlink:href="../examples/org/sdmlib/examples/replication/maumau/MauMau.java" xlink:title="&lt;TABLE&gt;">
<polygon fill="none" stroke="black" points="955,-328 955,-344 1048,-344 1048,-328 955,-328"/>
<text text-anchor="start" x="958.5" y="-334" font-family="Arial" font-size="10.00"> </text>
<text text-anchor="start" x="962.5" y="-334" font-family="Arial" font-size="10.00">maumau :MauMau</text>
</a>
<polygon fill="none" stroke="black" points="955,-266 955,-328 1048,-328 1048,-266 955,-266"/>
<text text-anchor="start" x="960" y="-316" font-family="Arial" font-size="10.00">deck = &quot;&quot;</text>
<text text-anchor="start" x="960" y="-302" font-family="Arial" font-size="10.00">stack = &quot;&quot;</text>
<text text-anchor="start" x="960" y="-288" font-family="Arial" font-size="10.00">currentMove = &quot;&quot;</text>
<text text-anchor="start" x="960" y="-274" font-family="Arial" font-size="10.00">duty = &quot;&quot;</text>
</g>
<!-- p3 -->
<g id="node12" class="node"><title>p3</title>
<a xlink:href="../examples/org/sdmlib/examples/replication/maumau/Player.java" xlink:title="&lt;TABLE&gt;">
<polygon fill="none" stroke="black" points="901,-204 901,-221 984,-221 984,-204 901,-204"/>
<text text-anchor="start" x="918" y="-210.5" font-family="Arial" font-size="10.00"> </text>
<text text-anchor="start" x="922" y="-210.5" font-family="Arial" font-size="10.00">p3 :Player</text>
</a>
<polygon fill="none" stroke="black" points="901,-100 901,-204 984,-204 984,-100 901,-100"/>
<text text-anchor="start" x="906" y="-192" font-family="Arial" font-size="10.00">name = &quot;Abu&quot;</text>
<text text-anchor="start" x="906" y="-178" font-family="Arial" font-size="10.00">deckOwner = &quot;&quot;</text>
<text text-anchor="start" x="906" y="-164" font-family="Arial" font-size="10.00">stackOwner = &quot;&quot;</text>
<text text-anchor="start" x="906" y="-150" font-family="Arial" font-size="10.00">next = &quot;&quot;</text>
<text text-anchor="start" x="906" y="-136" font-family="Arial" font-size="10.00">prev = &quot;&quot;</text>
<text text-anchor="start" x="906" y="-122" font-family="Arial" font-size="10.00">assignment = &quot;&quot;</text>
<text text-anchor="start" x="906" y="-108" font-family="Arial" font-size="10.00">duty = &quot;&quot;</text>
</g>
<!-- maumau&#45;&#45;p3 -->
<g id="edge14" class="edge"><title>maumau&#45;&#45;p3</title>
<path fill="none" stroke="black" d="M979.866,-262.121C975.402,-250.318 970.66,-237.779 966.096,-225.712"/>
<text text-anchor="middle" x="973.255" y="-230.194" font-family="Arial" font-size="10.00">players</text>
<text text-anchor="middle" x="972.707" y="-252.639" font-family="Arial" font-size="10.00">game</text>
</g>
<!-- karli -->
<g id="node13" class="node"><title>karli</title>
<a xlink:href="../examples/org/sdmlib/examples/replication/maumau/Player.java" xlink:title="&lt;TABLE&gt;">
<polygon fill="none" stroke="black" points="1018,-204 1018,-221 1101,-221 1101,-204 1018,-204"/>
<text text-anchor="start" x="1031.5" y="-210.5" font-family="Arial" font-size="10.00"> </text>
<text text-anchor="start" x="1035.5" y="-210.5" font-family="Arial" font-size="10.00">karli :Player</text>
</a>
<polygon fill="none" stroke="black" points="1018,-100 1018,-204 1101,-204 1101,-100 1018,-100"/>
<text text-anchor="start" x="1023" y="-192" font-family="Arial" font-size="10.00">name = &quot;Karli&quot;</text>
<text text-anchor="start" x="1023" y="-178" font-family="Arial" font-size="10.00">deckOwner = &quot;&quot;</text>
<text text-anchor="start" x="1023" y="-164" font-family="Arial" font-size="10.00">stackOwner = &quot;&quot;</text>
<text text-anchor="start" x="1023" y="-150" font-family="Arial" font-size="10.00">next = &quot;&quot;</text>
<text text-anchor="start" x="1023" y="-136" font-family="Arial" font-size="10.00">prev = &quot;&quot;</text>
<text text-anchor="start" x="1023" y="-122" font-family="Arial" font-size="10.00">assignment = &quot;&quot;</text>
<text text-anchor="start" x="1023" y="-108" font-family="Arial" font-size="10.00">duty = &quot;&quot;</text>
</g>
<!-- maumau&#45;&#45;karli -->
<g id="edge16" class="edge"><title>maumau&#45;&#45;karli</title>
<path fill="none" stroke="black" d="M1021.78,-262.121C1026.16,-250.318 1030.83,-237.779 1035.31,-225.712"/>
<text text-anchor="middle" x="1036.12" y="-233.18" font-family="Arial" font-size="10.00">players</text>
<text text-anchor="middle" x="1020.97" y="-249.653" font-family="Arial" font-size="10.00">game</text>
</g>
</g>
</svg>
