<?xml version="1.0" encoding="UTF-8" standalone="no"?>
<!DOCTYPE svg PUBLIC "-//W3C//DTD SVG 1.1//EN"
 "http://www.w3.org/Graphics/SVG/1.1/DTD/svg11.dtd">
<!-- Generated by graphviz version 2.28.0 (20110507.0327)
 -->
<!-- Title: ObjectDiagram Pages: 1 -->
<svg width="927pt" height="580pt"
 viewBox="0.00 0.00 927.03 580.00" xmlns="http://www.w3.org/2000/svg" xmlns:xlink="http://www.w3.org/1999/xlink">
<g id="graph1" class="graph" transform="scale(1 1) rotate(0) translate(4 576)">
<title>ObjectDiagram</title>
<polygon fill="white" stroke="white" points="-4,5 -4,-576 924.034,-576 924.034,5 -4,5"/>
<!-- karliNode -->
<g id="node1" class="node"><title>karliNode</title>
<image xlink:href="icons/node.png" width="83px" height="61px" preserveAspectRatio="xMinYMin meet" x="75.0344" y="-565"/>
<a xlink:href="../../SDMLib/src/org/sdmlib/replication/Node.java" xlink:title="&lt;TABLE&gt;">
<polygon fill="none" stroke="black" points="73.0344,-486 73.0344,-502 160.034,-502 160.034,-486 73.0344,-486"/>
<text text-anchor="start" x="79.5344" y="-492" font-family="Arial" font-size="10.00"> </text>
<text text-anchor="start" x="83.5344" y="-492" font-family="Arial" font-size="10.00">karliNode :Node</text>
</a>
</g>
<!-- k59 -->
<g id="node2" class="node"><title>k59</title>
<image xlink:href="icons/worker.png" width="80px" height="61px" preserveAspectRatio="xMinYMin meet" x="218.034" y="-565"/>
<a xlink:href="../examples/org/sdmlib/examples/replication/maumau/KarliDrawCardsAction.java" xlink:title="&lt;TABLE&gt;">
<polygon fill="none" stroke="black" points="194.034,-486 194.034,-502 322.034,-502 322.034,-486 194.034,-486"/>
<text text-anchor="start" x="197.534" y="-492" font-family="Arial" font-size="10.00"> </text>
<text text-anchor="start" x="201.534" y="-492" font-family="Arial" font-size="10.00">k59 :KarliDrawCardsAction</text>
</a>
</g>
<!-- maumau -->
<g id="node3" class="node"><title>maumau</title>
<image xlink:href="icons/shared.png" width="70px" height="23px" preserveAspectRatio="xMinYMin meet" x="368.534" y="-546"/>
<a xlink:href="../examples/org/sdmlib/examples/replication/maumau/MauMau.java" xlink:title="&lt;TABLE&gt;">
<polygon fill="none" stroke="black" points="357.034,-505 357.034,-521 450.034,-521 450.034,-505 357.034,-505"/>
<text text-anchor="start" x="360.534" y="-511" font-family="Arial" font-size="10.00"> </text>
<text text-anchor="start" x="364.534" y="-511" font-family="Arial" font-size="10.00">maumau :MauMau</text>
</a>
</g>
<!-- c24 -->
<g id="node4" class="node"><title>c24</title>
<a xlink:href="../examples/org/sdmlib/examples/replication/maumau/Card.java" xlink:title="&lt;TABLE&gt;">
<polygon fill="none" stroke="black" points="367.034,-424 367.034,-441 439.034,-441 439.034,-424 367.034,-424"/>
<text text-anchor="start" x="379.534" y="-430.5" font-family="Arial" font-size="10.00"> </text>
<text text-anchor="start" x="383.534" y="-430.5" font-family="Arial" font-size="10.00">c24 :Card</text>
</a>
<polygon fill="none" stroke="black" points="367.034,-390 367.034,-424 439.034,-424 439.034,-390 367.034,-390"/>
<text text-anchor="start" x="372.034" y="-412" font-family="Arial" font-size="10.00">suit = &quot;Clubs&quot;</text>
<text text-anchor="start" x="372.034" y="-398" font-family="Arial" font-size="10.00">value = &quot;10&quot;</text>
</g>
<!-- maumau&#45;&#45;c24 -->
<g id="edge2" class="edge"><title>maumau&#45;&#45;c24</title>
<path fill="none" stroke="black" d="M403.034,-501.266C403.034,-484.81 403.034,-463.13 403.034,-445.881"/>
<text text-anchor="middle" x="407.261" y="-452.444" font-family="Arial" font-size="10.00">cards</text>
<text text-anchor="middle" x="398.808" y="-489.703" font-family="Arial" font-size="10.00">game</text>
</g>
<!-- karli -->
<g id="node5" class="node"><title>karli</title>
<a xlink:href="../examples/org/sdmlib/examples/replication/maumau/Player.java" xlink:title="&lt;TABLE&gt;">
<polygon fill="none" stroke="black" points="356.034,-328 356.034,-345 439.034,-345 439.034,-328 356.034,-328"/>
<text text-anchor="start" x="369.534" y="-334.5" font-family="Arial" font-size="10.00"> </text>
<text text-anchor="start" x="373.534" y="-334.5" font-family="Arial" font-size="10.00">karli :Player</text>
</a>
<polygon fill="none" stroke="black" points="356.034,-280 356.034,-328 439.034,-328 439.034,-280 356.034,-280"/>
<text text-anchor="start" x="361.034" y="-316" font-family="Arial" font-size="10.00">name = &quot;Karli&quot;</text>
<text text-anchor="start" x="361.034" y="-302" font-family="Arial" font-size="10.00">deckOwner = &quot;&quot;</text>
<text text-anchor="start" x="361.034" y="-288" font-family="Arial" font-size="10.00">stackOwner = &quot;&quot;</text>
</g>
<!-- maumau&#45;&#45;karli -->
<g id="edge18" class="edge"><title>maumau&#45;&#45;karli</title>
<path fill="none" stroke="black" d="M381.147,-501.314C369.435,-486.419 356.185,-466.419 350.034,-446 342.344,-420.466 342.43,-411.56 350.034,-386 353.823,-373.266 360.658,-360.684 367.963,-349.687"/>
<text text-anchor="middle" x="366.566" y="-357.089" font-family="Arial" font-size="10.00">players_currentMove</text>
<text text-anchor="middle" x="372.272" y="-494.207" font-family="Arial" font-size="10.00">game_assignment</text>
</g>
<!-- c31 -->
<g id="node6" class="node"><title>c31</title>
<a xlink:href="../examples/org/sdmlib/examples/replication/maumau/Card.java" xlink:title="&lt;TABLE&gt;">
<polygon fill="none" stroke="black" points="665.034,-197 665.034,-214 745.034,-214 745.034,-197 665.034,-197"/>
<text text-anchor="start" x="681.534" y="-203.5" font-family="Arial" font-size="10.00"> </text>
<text text-anchor="start" x="685.534" y="-203.5" font-family="Arial" font-size="10.00">c31 :Card</text>
</a>
<polygon fill="none" stroke="black" points="665.034,-163 665.034,-197 745.034,-197 745.034,-163 665.034,-163"/>
<text text-anchor="start" x="670.034" y="-185" font-family="Arial" font-size="10.00">suit = &quot;Spades&quot;</text>
<text text-anchor="start" x="670.034" y="-171" font-family="Arial" font-size="10.00">value = &quot;9&quot;</text>
</g>
<!-- maumau&#45;&#45;c31 -->
<g id="edge4" class="edge"><title>maumau&#45;&#45;c31</title>
<path fill="none" stroke="black" d="M441.991,-501.329C462.354,-487.013 486.595,-467.569 504.034,-446 557.021,-380.465 531.15,-338.182 588.034,-276 608.768,-253.335 622.207,-258.089 647.034,-240 655.953,-233.502 665.185,-225.962 673.59,-218.738"/>
<text text-anchor="middle" x="669.446" y="-225.339" font-family="Arial" font-size="10.00">cards</text>
<text text-anchor="middle" x="446.903" y="-490.119" font-family="Arial" font-size="10.00">game</text>
</g>
<!-- c52 -->
<g id="node7" class="node"><title>c52</title>
<a xlink:href="../examples/org/sdmlib/examples/replication/maumau/Card.java" xlink:title="&lt;TABLE&gt;">
<polygon fill="none" stroke="black" points="49.0344,-197 49.0344,-214 139.034,-214 139.034,-197 49.0344,-197"/>
<text text-anchor="start" x="70.5344" y="-203.5" font-family="Arial" font-size="10.00"> </text>
<text text-anchor="start" x="74.5344" y="-203.5" font-family="Arial" font-size="10.00">c52 :Card</text>
</a>
<polygon fill="none" stroke="black" points="49.0344,-163 49.0344,-197 139.034,-197 139.034,-163 49.0344,-163"/>
<text text-anchor="start" x="54.0344" y="-185" font-family="Arial" font-size="10.00">suit = &quot;Diamonds&quot;</text>
<text text-anchor="start" x="54.0344" y="-171" font-family="Arial" font-size="10.00">value = &quot;Ace&quot;</text>
</g>
<!-- maumau&#45;&#45;c52 -->
<g id="edge12" class="edge"><title>maumau&#45;&#45;c52</title>
<path fill="none" stroke="black" d="M367.551,-501.472C358.287,-495.105 348.302,-488.274 339.034,-482 315.149,-465.829 305.964,-465.849 285.034,-446 208.99,-373.882 141.124,-268.716 110.809,-218.607"/>
<text text-anchor="middle" x="119.153" y="-221.619" font-family="Arial" font-size="10.00">cards</text>
<text text-anchor="middle" x="357.688" y="-497.324" font-family="Arial" font-size="10.00">game</text>
</g>
<!-- c43 -->
<g id="node8" class="node"><title>c43</title>
<a xlink:href="../examples/org/sdmlib/examples/replication/maumau/Card.java" xlink:title="&lt;TABLE&gt;">
<polygon fill="none" stroke="black" points="174.034,-197 174.034,-214 249.034,-214 249.034,-197 174.034,-197"/>
<text text-anchor="start" x="188.034" y="-203.5" font-family="Arial" font-size="10.00"> </text>
<text text-anchor="start" x="192.034" y="-203.5" font-family="Arial" font-size="10.00">c43 :Card</text>
</a>
<polygon fill="none" stroke="black" points="174.034,-163 174.034,-197 249.034,-197 249.034,-163 174.034,-163"/>
<text text-anchor="start" x="179.034" y="-185" font-family="Arial" font-size="10.00">suit = &quot;Hearts&quot;</text>
<text text-anchor="start" x="179.034" y="-171" font-family="Arial" font-size="10.00">value = &quot;King&quot;</text>
</g>
<!-- maumau&#45;&#45;c43 -->
<g id="edge8" class="edge"><title>maumau&#45;&#45;c43</title>
<path fill="none" stroke="black" d="M372.862,-501.309C356.261,-486.563 336.215,-466.712 322.034,-446 270.584,-370.854 234.838,-268.016 219.479,-218.686"/>
<text text-anchor="middle" x="226.262" y="-223.533" font-family="Arial" font-size="10.00">cards</text>
<text text-anchor="middle" x="363.301" y="-495.881" font-family="Arial" font-size="10.00">game</text>
</g>
<!-- c35 -->
<g id="node9" class="node"><title>c35</title>
<a xlink:href="../examples/org/sdmlib/examples/replication/maumau/Card.java" xlink:title="&lt;TABLE&gt;">
<polygon fill="none" stroke="black" points="283.034,-197 283.034,-214 363.034,-214 363.034,-197 283.034,-197"/>
<text text-anchor="start" x="299.534" y="-203.5" font-family="Arial" font-size="10.00"> </text>
<text text-anchor="start" x="303.534" y="-203.5" font-family="Arial" font-size="10.00">c35 :Card</text>
</a>
<polygon fill="none" stroke="black" points="283.034,-163 283.034,-197 363.034,-197 363.034,-163 283.034,-163"/>
<text text-anchor="start" x="288.034" y="-185" font-family="Arial" font-size="10.00">suit = &quot;Spades&quot;</text>
<text text-anchor="start" x="288.034" y="-171" font-family="Arial" font-size="10.00">value = &quot;King&quot;</text>
</g>
<!-- maumau&#45;&#45;c35 -->
<g id="edge6" class="edge"><title>maumau&#45;&#45;c35</title>
<path fill="none" stroke="black" d="M377.735,-501.412C364.316,-486.699 348.995,-466.848 341.034,-446 311.314,-368.165 315.409,-267.444 319.775,-218.804"/>
<text text-anchor="middle" x="323.276" y="-225.672" font-family="Arial" font-size="10.00">cards</text>
<text text-anchor="middle" x="368.547" y="-494.965" font-family="Arial" font-size="10.00">game</text>
</g>
<!-- p12 -->
<g id="node10" class="node"><title>p12</title>
<a xlink:href="../examples/org/sdmlib/examples/replication/maumau/Player.java" xlink:title="&lt;TABLE&gt;">
<polygon fill="none" stroke="black" points="546.034,-218 546.034,-235 631.034,-235 631.034,-218 546.034,-218"/>
<text text-anchor="start" x="561.534" y="-224.5" font-family="Arial" font-size="10.00"> </text>
<text text-anchor="start" x="565.534" y="-224.5" font-family="Arial" font-size="10.00">p12 :Player</text>
</a>
<polygon fill="none" stroke="black" points="546.034,-142 546.034,-218 631.034,-218 631.034,-142 546.034,-142"/>
<text text-anchor="start" x="551.034" y="-206" font-family="Arial" font-size="10.00">name = &quot;Sabine&quot;</text>
<text text-anchor="start" x="551.034" y="-192" font-family="Arial" font-size="10.00">deckOwner = &quot;&quot;</text>
<text text-anchor="start" x="551.034" y="-178" font-family="Arial" font-size="10.00">stackOwner = &quot;&quot;</text>
<text text-anchor="start" x="551.034" y="-164" font-family="Arial" font-size="10.00">assignment = &quot;&quot;</text>
<text text-anchor="start" x="551.034" y="-150" font-family="Arial" font-size="10.00">duty = &quot;&quot;</text>
</g>
<!-- maumau&#45;&#45;p12 -->
<g id="edge20" class="edge"><title>maumau&#45;&#45;p12</title>
<path fill="none" stroke="black" d="M431.012,-501.203C446.313,-486.423 464.622,-466.573 477.034,-446 518.426,-377.396 503.104,-348.584 537.034,-276 542.695,-263.892 549.564,-251.287 556.403,-239.58"/>
<text text-anchor="middle" x="555.512" y="-247.04" font-family="Arial" font-size="10.00">players</text>
<text text-anchor="middle" x="434.523" y="-489.34" font-family="Arial" font-size="10.00">game</text>
</g>
<!-- p5 -->
<g id="node11" class="node"><title>p5</title>
<a xlink:href="../examples/org/sdmlib/examples/replication/maumau/Player.java" xlink:title="&lt;TABLE&gt;">
<polygon fill="none" stroke="black" points="358.034,-80 358.034,-97 441.034,-97 441.034,-80 358.034,-80"/>
<text text-anchor="start" x="375.034" y="-86.5" font-family="Arial" font-size="10.00"> </text>
<text text-anchor="start" x="379.034" y="-86.5" font-family="Arial" font-size="10.00">p5 :Player</text>
</a>
<polygon fill="none" stroke="black" points="358.034,-4 358.034,-80 441.034,-80 441.034,-4 358.034,-4"/>
<text text-anchor="start" x="363.034" y="-68" font-family="Arial" font-size="10.00">name = &quot;Abu&quot;</text>
<text text-anchor="start" x="363.034" y="-54" font-family="Arial" font-size="10.00">deckOwner = &quot;&quot;</text>
<text text-anchor="start" x="363.034" y="-40" font-family="Arial" font-size="10.00">stackOwner = &quot;&quot;</text>
<text text-anchor="start" x="363.034" y="-26" font-family="Arial" font-size="10.00">assignment = &quot;&quot;</text>
<text text-anchor="start" x="363.034" y="-12" font-family="Arial" font-size="10.00">duty = &quot;&quot;</text>
</g>
<!-- maumau&#45;&#45;p5 -->
<g id="edge16" class="edge"><title>maumau&#45;&#45;p5</title>
<path fill="none" stroke="black" d="M371.28,-501.452C361.327,-494.516 350.054,-487.396 339.034,-482 291.696,-458.82 270.639,-474.083 226.034,-446 89.1291,-359.804 -68.4679,-264.776 32.0344,-138 71.1638,-88.6413 258.96,-64.8862 349.718,-56.1383"/>
<text text-anchor="middle" x="341.136" y="-58.7726" font-family="Arial" font-size="10.00">players</text>
<text text-anchor="middle" x="361.419" y="-497.288" font-family="Arial" font-size="10.00">game</text>
</g>
<!-- d57 -->
<g id="node12" class="node"><title>d57</title>
<a xlink:href="../examples/org/sdmlib/examples/replication/maumau/Duty.java" xlink:title="&lt;TABLE&gt;">
<polygon fill="none" stroke="black" points="435.034,-197 435.034,-214 511.034,-214 511.034,-197 435.034,-197"/>
<text text-anchor="start" x="449.534" y="-203.5" font-family="Arial" font-size="10.00"> </text>
<text text-anchor="start" x="453.534" y="-203.5" font-family="Arial" font-size="10.00">d57 :Duty</text>
</a>
<polygon fill="none" stroke="black" points="435.034,-163 435.034,-197 511.034,-197 511.034,-163 435.034,-163"/>
<text text-anchor="start" x="440.034" y="-185" font-family="Arial" font-size="10.00">kind = &quot;Draw2&quot;</text>
<text text-anchor="start" x="440.034" y="-171" font-family="Arial" font-size="10.00">number = 2</text>
</g>
<!-- maumau&#45;&#45;d57 -->
<g id="edge22" class="edge"><title>maumau&#45;&#45;d57</title>
<path fill="none" stroke="black" d="M424.417,-501.153C435.961,-486.204 449.211,-466.204 456.034,-446 482.687,-367.085 479.473,-266.862 475.804,-218.569"/>
<text text-anchor="middle" x="480.62" y="-224.833" font-family="Arial" font-size="10.00">duty</text>
<text text-anchor="middle" x="426.518" y="-488.876" font-family="Arial" font-size="10.00">game</text>
</g>
<!-- c44 -->
<g id="node13" class="node"><title>c44</title>
<a xlink:href="../examples/org/sdmlib/examples/replication/maumau/Card.java" xlink:title="&lt;TABLE&gt;">
<polygon fill="none" stroke="black" points="626.034,-424 626.034,-441 701.034,-441 701.034,-424 626.034,-424"/>
<text text-anchor="start" x="640.034" y="-430.5" font-family="Arial" font-size="10.00"> </text>
<text text-anchor="start" x="644.034" y="-430.5" font-family="Arial" font-size="10.00">c44 :Card</text>
</a>
<polygon fill="none" stroke="black" points="626.034,-390 626.034,-424 701.034,-424 701.034,-390 626.034,-390"/>
<text text-anchor="start" x="631.034" y="-412" font-family="Arial" font-size="10.00">suit = &quot;Hearts&quot;</text>
<text text-anchor="start" x="631.034" y="-398" font-family="Arial" font-size="10.00">value = &quot;Ace&quot;</text>
</g>
<!-- maumau&#45;&#45;c44 -->
<g id="edge10" class="edge"><title>maumau&#45;&#45;c44</title>
<path fill="none" stroke="black" d="M457.361,-505.449C497.829,-489.856 554.275,-467.504 603.034,-446 607.798,-443.899 612.741,-441.641 617.653,-439.345"/>
<text text-anchor="middle" x="611.225" y="-444.506" font-family="Arial" font-size="10.00">cards</text>
<text text-anchor="middle" x="464.289" y="-495.737" font-family="Arial" font-size="10.00">game</text>
</g>
<!-- h19 -->
<g id="node14" class="node"><title>h19</title>
<a xlink:href="../examples/org/sdmlib/examples/replication/maumau/Holder.java" xlink:title="&lt;TABLE&gt;">
<polygon fill="none" stroke="black" points="605.034,-314 605.034,-331 688.034,-331 688.034,-314 605.034,-314"/>
<text text-anchor="start" x="619.534" y="-320.5" font-family="Arial" font-size="10.00"> </text>
<text text-anchor="start" x="623.534" y="-320.5" font-family="Arial" font-size="10.00">h19 :Holder</text>
</a>
<polygon fill="none" stroke="black" points="605.034,-294 605.034,-314 688.034,-314 688.034,-294 605.034,-294"/>
<text text-anchor="start" x="610.034" y="-302" font-family="Arial" font-size="10.00">stackOwner = &quot;&quot;</text>
</g>
<!-- maumau&#45;&#45;h19 -->
<g id="edge14" class="edge"><title>maumau&#45;&#45;h19</title>
<path fill="none" stroke="black" d="M457.566,-507.963C491.372,-494.765 534.098,-474.222 565.034,-446 583.259,-429.374 616.975,-368.762 634.61,-335.764"/>
<text text-anchor="middle" x="634.031" y="-343.247" font-family="Arial" font-size="10.00">deck</text>
<text text-anchor="middle" x="464.396" y="-498.16" font-family="Arial" font-size="10.00">deckOwner</text>
</g>
<!-- c24&#45;&#45;karli -->
<g id="edge24" class="edge"><title>c24&#45;&#45;karli</title>
<path fill="none" stroke="black" d="M401.331,-386.328C400.652,-374.897 399.863,-361.618 399.148,-349.582"/>
<text text-anchor="middle" x="403.904" y="-355.879" font-family="Arial" font-size="10.00">holder</text>
<text text-anchor="middle" x="396.575" y="-375.031" font-family="Arial" font-size="10.00">cards</text>
</g>
<!-- karli&#45;&#45;c31 -->
<g id="edge26" class="edge"><title>karli&#45;&#45;c31</title>
<path fill="none" stroke="black" d="M446.456,-298.987C514.114,-280.987 629.257,-249.618 647.034,-240 657.558,-234.306 667.851,-226.436 676.774,-218.624"/>
<text text-anchor="middle" x="672.671" y="-225.243" font-family="Arial" font-size="10.00">cards</text>
<text text-anchor="middle" x="454.121" y="-290.065" font-family="Arial" font-size="10.00">holder</text>
</g>
<!-- karli&#45;&#45;c52 -->
<g id="edge28" class="edge"><title>karli&#45;&#45;c52</title>
<path fill="none" stroke="black" d="M347.335,-303.045C297.037,-292.656 218.055,-272.643 156.034,-240 145.144,-234.268 134.332,-226.478 124.86,-218.754"/>
<text text-anchor="middle" x="134.571" y="-218.642" font-family="Arial" font-size="10.00">cards</text>
<text text-anchor="middle" x="337.587" y="-302.778" font-family="Arial" font-size="10.00">holder</text>
</g>
<!-- karli&#45;&#45;c43 -->
<g id="edge30" class="edge"><title>karli&#45;&#45;c43</title>
<path fill="none" stroke="black" d="M347.486,-288.275C322.252,-275.333 291.588,-258.25 266.034,-240 257.108,-233.625 248.046,-225.971 239.922,-218.591"/>
<text text-anchor="middle" x="249.484" y="-219.019" font-family="Arial" font-size="10.00">cards</text>
<text text-anchor="middle" x="337.494" y="-285.356" font-family="Arial" font-size="10.00">holder</text>
</g>
<!-- karli&#45;&#45;c35 -->
<g id="edge32" class="edge"><title>karli&#45;&#45;c35</title>
<path fill="none" stroke="black" d="M375.432,-276.385C364.34,-258.098 351.001,-236.108 340.558,-218.891"/>
<text text-anchor="middle" x="348.872" y="-221.948" font-family="Arial" font-size="10.00">cards</text>
<text text-anchor="middle" x="367.118" y="-268.327" font-family="Arial" font-size="10.00">holder</text>
</g>
<!-- karli&#45;&#45;p12 -->
<g id="edge34" class="edge"><title>karli&#45;&#45;p12</title>
<path fill="none" stroke="black" d="M446.572,-287.651C471.662,-274.607 502.201,-257.622 528.034,-240 531.171,-237.861 534.339,-235.591 537.494,-233.245"/>
<text text-anchor="middle" x="532.727" y="-239.536" font-family="Arial" font-size="10.00">next</text>
<text text-anchor="middle" x="452.636" y="-277.199" font-family="Arial" font-size="10.00">prev</text>
</g>
<!-- karli&#45;&#45;p5 -->
<g id="edge36" class="edge"><title>karli&#45;&#45;p5</title>
<path fill="none" stroke="black" d="M397.308,-276.393C397.656,-231.193 398.258,-152.962 398.651,-101.846"/>
<text text-anchor="middle" x="402.807" y="-108.441" font-family="Arial" font-size="10.00">prev</text>
<text text-anchor="middle" x="393.152" y="-264.798" font-family="Arial" font-size="10.00">next</text>
</g>
<!-- karli&#45;&#45;d57 -->
<g id="edge38" class="edge"><title>karli&#45;&#45;d57</title>
<path fill="none" stroke="black" d="M419.221,-276.385C430.613,-258.098 444.312,-236.108 455.037,-218.891"/>
<text text-anchor="middle" x="453.832" y="-226.318" font-family="Arial" font-size="10.00">duty</text>
<text text-anchor="middle" x="420.426" y="-263.957" font-family="Arial" font-size="10.00">player</text>
</g>
<!-- p12&#45;&#45;p5 -->
<g id="edge40" class="edge"><title>p12&#45;&#45;p5</title>
<path fill="none" stroke="black" d="M537.602,-145.329C534.392,-142.814 531.185,-140.353 528.034,-138 502.477,-118.917 472.94,-99.0735 448.583,-83.2626"/>
<text text-anchor="middle" x="458.483" y="-82.1723" font-family="Arial" font-size="10.00">next</text>
<text text-anchor="middle" x="527.859" y="-140.576" font-family="Arial" font-size="10.00">prev</text>
</g>
<!-- c44&#45;&#45;h19 -->
<g id="edge42" class="edge"><title>c44&#45;&#45;h19</title>
<path fill="none" stroke="black" d="M658.208,-386.328C655.499,-370.231 652.173,-350.471 649.683,-335.675"/>
<text text-anchor="middle" x="655.355" y="-341.411" font-family="Arial" font-size="10.00">holder</text>
<text text-anchor="middle" x="652.537" y="-375.592" font-family="Arial" font-size="10.00">cards</text>
</g>
<!-- topCardOnDeckControler -->
<g id="node15" class="node"><title>topCardOnDeckControler</title>
<image xlink:href="icons/person1.png" width="32px" height="43px" preserveAspectRatio="xMinYMin meet" x="763.534" y="-556"/>
<a xlink:href="../examples/org/sdmlib/examples/replication/maumau/CardControler.java" xlink:title="&lt;TABLE&gt;">
<polygon fill="none" stroke="black" points="687.034,-495 687.034,-511 872.034,-511 872.034,-495 687.034,-495"/>
<text text-anchor="start" x="690.534" y="-501" font-family="Arial" font-size="10.00"> </text>
<text text-anchor="start" x="694.534" y="-501" font-family="Arial" font-size="10.00">topCardOnDeckControler :CardControler</text>
</a>
</g>
<!-- topCardOnDeckControler&#45;&#45;c44 -->
<g id="edge44" class="edge"><title>topCardOnDeckControler&#45;&#45;c44</title>
<path fill="none" stroke="black" d="M742.012,-491.212C726.364,-476.508 708.362,-459.592 693.5,-445.627"/>
<text text-anchor="middle" x="702.999" y="-446.254" font-family="Arial" font-size="10.00">card</text>
</g>
<!-- l62 -->
<g id="node16" class="node"><title>l62</title>
<a xlink:href="../../SDMLib/src/org/eclipse/swt/widgets/Label.java" xlink:title="&lt;TABLE&gt;">
<polygon fill="none" stroke="black" points="857.034,-417 857.034,-434 911.034,-434 911.034,-417 857.034,-417"/>
<text text-anchor="start" x="860.534" y="-423.5" font-family="Arial" font-size="10.00"> </text>
<text text-anchor="start" x="864.534" y="-423.5" font-family="Arial" font-size="10.00">l62 :Label</text>
</a>
<polygon fill="none" stroke="black" points="857.034,-397 857.034,-417 911.034,-417 911.034,-397 857.034,-397"/>
<text text-anchor="start" x="862.034" y="-405" font-family="Arial" font-size="10.00">text = &quot; &quot;</text>
</g>
<!-- topCardOnDeckControler&#45;&#45;l62 -->
<g id="edge46" class="edge"><title>topCardOnDeckControler&#45;&#45;l62</title>
<path fill="none" stroke="black" d="M812.546,-491.212C829.111,-474.016 848.59,-453.794 863.029,-438.806"/>
<text text-anchor="middle" x="859.785" y="-445.765" font-family="Arial" font-size="10.00">label</text>
</g>
<!-- c63 -->
<g id="node17" class="node"><title>c63</title>
<a xlink:href="../examples/org/sdmlib/examples/replication/maumau/CardListener.java" xlink:title="&lt;TABLE&gt;">
<polygon fill="none" stroke="black" points="735.034,-407 735.034,-424 823.034,-424 823.034,-407 735.034,-407"/>
<text text-anchor="start" x="738.534" y="-413.5" font-family="Arial" font-size="10.00"> </text>
<text text-anchor="start" x="742.534" y="-413.5" font-family="Arial" font-size="10.00">c63 :CardListener</text>
</a>
</g>
<!-- topCardOnDeckControler&#45;&#45;c63 -->
<g id="edge48" class="edge"><title>topCardOnDeckControler&#45;&#45;c63</title>
<path fill="none" stroke="black" d="M779.034,-491.212C779.034,-472.147 779.034,-449.363 779.034,-434.115"/>
<text text-anchor="middle" x="783.261" y="-440.678" font-family="Arial" font-size="10.00">listener</text>
</g>
</g>
</svg>
