<?xml version="1.0" encoding="UTF-8" standalone="no"?>
<!DOCTYPE svg PUBLIC "-//W3C//DTD SVG 1.1//EN"
 "http://www.w3.org/Graphics/SVG/1.1/DTD/svg11.dtd">
<!-- Generated by graphviz version 2.28.0 (20110507.0327)
 -->
<!-- Title: ObjectDiagram Pages: 1 -->
<svg width="1264pt" height="268pt"
 viewBox="0.00 0.00 1264.00 268.00" xmlns="http://www.w3.org/2000/svg" xmlns:xlink="http://www.w3.org/1999/xlink">
<g id="graph1" class="graph" transform="scale(1 1) rotate(0) translate(4 264)">
<title>ObjectDiagram</title>
<polygon fill="white" stroke="white" points="-4,5 -4,-264 1261,-264 1261,5 -4,5"/>
<!-- karliInit -->
<g id="node1" class="node"><title>karliInit</title>
<image xlink:href="icons/worker.png" width="80px" height="61px" preserveAspectRatio="xMinYMin meet" x="48.5" y="-253"/>
<a xlink:href="../examples/org/sdmlib/examples/replication/maumau/MultiMauMauClientInitTask.java" xlink:title="&lt;TABLE&gt;">
<polygon fill="none" stroke="black" points="8,-174 8,-190 169,-190 169,-174 8,-174"/>
<text text-anchor="start" x="11.5" y="-180" font-family="Times New Roman,serif" font-size="10.00"> </text>
<text text-anchor="start" x="14.5" y="-180" font-family="Times New Roman,serif" font-size="10.00">karliInit :MultiMauMauClientInitTask</text>
</a>
</g>
<!-- taskboard -->
<g id="node2" class="node"><title>taskboard</title>
<image xlink:href="icons/shared.png" width="70px" height="23px" preserveAspectRatio="xMinYMin meet" x="227" y="-234"/>
<a xlink:href="../../SDMLib/src/org/sdmlib/replication/TaskFlowBoard.java" xlink:title="&lt;TABLE&gt;">
<polygon fill="none" stroke="black" points="203,-193 203,-209 321,-209 321,-193 203,-193"/>
<text text-anchor="start" x="206.5" y="-199" font-family="Times New Roman,serif" font-size="10.00"> </text>
<text text-anchor="start" x="209.5" y="-199" font-family="Times New Roman,serif" font-size="10.00">taskboard :TaskFlowBoard</text>
</a>
</g>
<!-- l1 -->
<g id="node3" class="node"><title>l1</title>
<a xlink:href="../../SDMLib/src/org/sdmlib/replication/Lane.java" xlink:title="&lt;TABLE&gt;">
<polygon fill="none" stroke="black" points="217,-109 217,-126 307,-126 307,-109 217,-109"/>
<text text-anchor="start" x="245" y="-115.5" font-family="Times New Roman,serif" font-size="10.00"> </text>
<text text-anchor="start" x="248" y="-115.5" font-family="Times New Roman,serif" font-size="10.00">l1 :Lane</text>
</a>
<polygon fill="none" stroke="black" points="217,-89 217,-109 307,-109 307,-89 217,-89"/>
<text text-anchor="start" x="222" y="-97" font-family="Times New Roman,serif" font-size="10.00">name = &quot;KarliLane&quot;</text>
</g>
<!-- taskboard&#45;&#45;l1 -->
<g id="edge2" class="edge"><title>taskboard&#45;&#45;l1</title>
<path fill="none" stroke="black" d="M262,-189.382C262,-171.561 262,-147.702 262,-130.616"/>
<text text-anchor="middle" x="266.226" y="-137.179" font-family="Times New Roman,serif" font-size="10.00">lanes</text>
<text text-anchor="middle" x="257.774" y="-177.819" font-family="Times New Roman,serif" font-size="10.00">board</text>
</g>
<!-- karliLaneListener -->
<g id="node4" class="node"><title>karliLaneListener</title>
<image xlink:href="icons/person1.png" width="32px" height="43px" preserveAspectRatio="xMinYMin meet" x="609" y="-244"/>
<a xlink:href="../examples/org/sdmlib/examples/replication/maumau/PlayerLaneListener.java" xlink:title="&lt;TABLE&gt;">
<polygon fill="none" stroke="black" points="545,-183 545,-199 705,-199 705,-183 545,-183"/>
<text text-anchor="start" x="548.5" y="-189" font-family="Times New Roman,serif" font-size="10.00"> </text>
<text text-anchor="start" x="551.5" y="-189" font-family="Times New Roman,serif" font-size="10.00">karliLaneListener :PlayerLaneListener</text>
</a>
</g>
<!-- karliLaneListener&#45;&#45;l1 -->
<g id="edge12" class="edge"><title>karliLaneListener&#45;&#45;l1</title>
<path fill="none" stroke="black" d="M536.895,-193.628C476.434,-178.908 394.666,-157.538 324,-134 320.807,-132.936 317.541,-131.793 314.261,-130.601"/>
<text text-anchor="middle" x="324.221" y="-127.212" font-family="Times New Roman,serif" font-size="10.00">sources</text>
</g>
<!-- karliStartGameHandler -->
<g id="node5" class="node"><title>karliStartGameHandler</title>
<a xlink:href="../examples/org/sdmlib/examples/replication/maumau/ShowStartGameButton.java" xlink:title="&lt;TABLE&gt;">
<polygon fill="none" stroke="black" points="341,-99 341,-116 535,-116 535,-99 341,-99"/>
<text text-anchor="start" x="344.5" y="-105.5" font-family="Times New Roman,serif" font-size="10.00"> </text>
<text text-anchor="start" x="347.5" y="-105.5" font-family="Times New Roman,serif" font-size="10.00">karliStartGameHandler :ShowStartGameButton</text>
</a>
</g>
<!-- karliLaneListener&#45;&#45;karliStartGameHandler -->
<g id="edge4" class="edge"><title>karliLaneListener&#45;&#45;karliStartGameHandler</title>
<path fill="none" stroke="black" d="M563.51,-179.474C531.575,-161.542 493.973,-140.429 468.31,-126.019"/>
<text text-anchor="middle" x="478.281" y="-124.271" font-family="Times New Roman,serif" font-size="10.00">handlerList</text>
</g>
<!-- c2 -->
<g id="node6" class="node"><title>c2</title>
<a xlink:href="../examples/org/sdmlib/examples/replication/maumau/ClickStartGameButton.java" xlink:title="&lt;TABLE&gt;">
<polygon fill="none" stroke="black" points="569,-99 569,-116 681,-116 681,-99 569,-99"/>
<text text-anchor="start" x="572.5" y="-105.5" font-family="Times New Roman,serif" font-size="10.00"> </text>
<text text-anchor="start" x="575.5" y="-105.5" font-family="Times New Roman,serif" font-size="10.00">c2 :ClickStartGameButton</text>
</a>
</g>
<!-- karliLaneListener&#45;&#45;c2 -->
<g id="edge6" class="edge"><title>karliLaneListener&#45;&#45;c2</title>
<path fill="none" stroke="black" d="M625,-179.328C625,-161.527 625,-140.623 625,-126.259"/>
<text text-anchor="middle" x="629.226" y="-132.822" font-family="Times New Roman,serif" font-size="10.00">handlerList</text>
</g>
<!-- c3 -->
<g id="node7" class="node"><title>c3</title>
<a xlink:href="../examples/org/sdmlib/examples/replication/maumau/CardsAreDeltScreenDumpHandler.java" xlink:title="&lt;TABLE&gt;">
<polygon fill="none" stroke="black" points="716,-99 716,-116 877,-116 877,-99 716,-99"/>
<text text-anchor="start" x="719.5" y="-105.5" font-family="Times New Roman,serif" font-size="10.00"> </text>
<text text-anchor="start" x="722.5" y="-105.5" font-family="Times New Roman,serif" font-size="10.00">c3 :CardsAreDeltScreenDumpHandler</text>
</a>
</g>
<!-- karliLaneListener&#45;&#45;c3 -->
<g id="edge8" class="edge"><title>karliLaneListener&#45;&#45;c3</title>
<path fill="none" stroke="black" d="M681.466,-179.328C710.456,-161.527 744.499,-140.623 767.893,-126.259"/>
<text text-anchor="middle" x="762.381" y="-132.102" font-family="Times New Roman,serif" font-size="10.00">handlerList</text>
</g>
<!-- k4 -->
<g id="node8" class="node"><title>k4</title>
<a xlink:href="../examples/org/sdmlib/examples/replication/maumau/KarliDrawCardsHandler.java" xlink:title="&lt;TABLE&gt;">
<polygon fill="none" stroke="black" points="911,-99 911,-116 1030,-116 1030,-99 911,-99"/>
<text text-anchor="start" x="914.5" y="-105.5" font-family="Times New Roman,serif" font-size="10.00"> </text>
<text text-anchor="start" x="917.5" y="-105.5" font-family="Times New Roman,serif" font-size="10.00">k4 :KarliDrawCardsHandler</text>
</a>
</g>
<!-- karliLaneListener&#45;&#45;k4 -->
<g id="edge10" class="edge"><title>karliLaneListener&#45;&#45;k4</title>
<path fill="none" stroke="black" d="M713.276,-188.225C765.613,-172.799 833.197,-152.631 893,-134 901.051,-131.492 909.558,-128.786 917.865,-126.113"/>
<text text-anchor="middle" x="910.53" y="-130.409" font-family="Times New Roman,serif" font-size="10.00">handlerList</text>
</g>
<!-- maumau -->
<g id="node9" class="node"><title>maumau</title>
<image xlink:href="icons/shared.png" width="70px" height="23px" preserveAspectRatio="xMinYMin meet" x="1072" y="-127"/>
<a xlink:href="../examples/org/sdmlib/examples/replication/maumau/MauMau.java" xlink:title="&lt;TABLE&gt;">
<polygon fill="none" stroke="black" points="1064,-86 1064,-102 1150,-102 1150,-86 1064,-86"/>
<text text-anchor="start" x="1067.5" y="-92" font-family="Times New Roman,serif" font-size="10.00"> </text>
<text text-anchor="start" x="1070.5" y="-92" font-family="Times New Roman,serif" font-size="10.00">maumau :MauMau</text>
</a>
</g>
<!-- karli -->
<g id="node10" class="node"><title>karli</title>
<a xlink:href="../examples/org/sdmlib/examples/replication/maumau/Player.java" xlink:title="&lt;TABLE&gt;">
<polygon fill="none" stroke="black" points="1111,-24 1111,-41 1181,-41 1181,-24 1111,-24"/>
<text text-anchor="start" x="1121.5" y="-30.5" font-family="Times New Roman,serif" font-size="10.00"> </text>
<text text-anchor="start" x="1124.5" y="-30.5" font-family="Times New Roman,serif" font-size="10.00">karli :Player</text>
</a>
<polygon fill="none" stroke="black" points="1111,-4 1111,-24 1181,-24 1181,-4 1111,-4"/>
<text text-anchor="start" x="1116" y="-12" font-family="Times New Roman,serif" font-size="10.00">name = &quot;Karli&quot;</text>
</g>
<!-- maumau&#45;&#45;karli -->
<g id="edge14" class="edge"><title>maumau&#45;&#45;karli</title>
<path fill="none" stroke="black" d="M1118.7,-82.0973C1124.18,-70.4462 1130.63,-56.7055 1135.89,-45.5129"/>
<text text-anchor="middle" x="1135.86" y="-53.0128" font-family="Times New Roman,serif" font-size="10.00">players</text>
<text text-anchor="middle" x="1118.73" y="-69.5973" font-family="Times New Roman,serif" font-size="10.00">game</text>
</g>
<!-- abuMauMauController -->
<g id="node11" class="node"><title>abuMauMauController</title>
<image xlink:href="icons/person1.png" width="32px" height="43px" preserveAspectRatio="xMinYMin meet" x="1130" y="-244"/>
<a xlink:href="../examples/org/sdmlib/examples/replication/maumau/MultiMauMauControler.java" xlink:title="&lt;TABLE&gt;">
<polygon fill="none" stroke="black" points="1044,-183 1044,-199 1248,-199 1248,-183 1044,-183"/>
<text text-anchor="start" x="1047.5" y="-189" font-family="Times New Roman,serif" font-size="10.00"> </text>
<text text-anchor="start" x="1050.5" y="-189" font-family="Times New Roman,serif" font-size="10.00">abuMauMauController :MultiMauMauControler</text>
</a>
</g>
<!-- abuMauMauController&#45;&#45;maumau -->
<g id="edge16" class="edge"><title>abuMauMauController&#45;&#45;maumau</title>
<path fill="none" stroke="black" d="M1133.12,-179.328C1127.58,-164.394 1121.22,-147.277 1116.16,-133.669"/>
<text text-anchor="middle" x="1123.28" y="-138.193" font-family="Times New Roman,serif" font-size="10.00">mauMau</text>
</g>
<!-- abuMauMauController&#45;&#45;karli -->
<g id="edge18" class="edge"><title>abuMauMauController&#45;&#45;karli</title>
<path fill="none" stroke="black" d="M1157.78,-179.487C1165.36,-152.825 1172.79,-115.026 1167,-82 1164.82,-69.5534 1160.18,-56.2581 1155.82,-45.541"/>
<text text-anchor="middle" x="1163.11" y="-49.8906" font-family="Times New Roman,serif" font-size="10.00">activePlayer</text>
</g>
</g>
</svg>
