<?xml version="1.0" encoding="UTF-8" standalone="no"?>
<!DOCTYPE svg PUBLIC "-//W3C//DTD SVG 1.1//EN"
 "http://www.w3.org/Graphics/SVG/1.1/DTD/svg11.dtd">
<!-- Generated by graphviz version 2.28.0 (20110507.0327)
 -->
<!-- Title: ObjectDiagram Pages: 1 -->
<svg width="871pt" height="268pt"
 viewBox="0.00 0.00 871.00 268.00" xmlns="http://www.w3.org/2000/svg" xmlns:xlink="http://www.w3.org/1999/xlink">
<g id="graph1" class="graph" transform="scale(1 1) rotate(0) translate(4 264)">
<title>ObjectDiagram</title>
<polygon fill="white" stroke="white" points="-4,5 -4,-264 868,-264 868,5 -4,5"/>
<!-- karliInit -->
<g id="node1" class="node"><title>karliInit</title>
<image xlink:href="icons/worker.png" width="80px" height="61px" preserveAspectRatio="xMinYMin meet" x="48.5" y="-253"/>
<a xlink:href="../examples/org/sdmlib/examples/replication/maumau/MultiMauMauClientInitTask.java" xlink:title="&lt;TABLE&gt;">
<polygon fill="none" stroke="black" points="8,-174 8,-190 169,-190 169,-174 8,-174"/>
<text text-anchor="start" x="11.5" y="-180" font-family="Times New Roman,serif" font-size="10.00"> </text>
<text text-anchor="start" x="14.5" y="-180" font-family="Times New Roman,serif" font-size="10.00">karliInit :MultiMauMauClientInitTask</text>
</a>
</g>
<!-- taskboard -->
<g id="node2" class="node"><title>taskboard</title>
<image xlink:href="icons/shared.png" width="70px" height="23px" preserveAspectRatio="xMinYMin meet" x="227" y="-234"/>
<a xlink:href="../../SDMLib/src/org/sdmlib/replication/TaskFlowBoard.java" xlink:title="&lt;TABLE&gt;">
<polygon fill="none" stroke="black" points="203,-193 203,-209 321,-209 321,-193 203,-193"/>
<text text-anchor="start" x="206.5" y="-199" font-family="Times New Roman,serif" font-size="10.00"> </text>
<text text-anchor="start" x="209.5" y="-199" font-family="Times New Roman,serif" font-size="10.00">taskboard :TaskFlowBoard</text>
</a>
</g>
<!-- l1 -->
<g id="node3" class="node"><title>l1</title>
<a xlink:href="../../SDMLib/src/org/sdmlib/replication/Lane.java" xlink:title="&lt;TABLE&gt;">
<polygon fill="none" stroke="black" points="217,-109 217,-126 307,-126 307,-109 217,-109"/>
<text text-anchor="start" x="245" y="-115.5" font-family="Times New Roman,serif" font-size="10.00"> </text>
<text text-anchor="start" x="248" y="-115.5" font-family="Times New Roman,serif" font-size="10.00">l1 :Lane</text>
</a>
<polygon fill="none" stroke="black" points="217,-89 217,-109 307,-109 307,-89 217,-89"/>
<text text-anchor="start" x="222" y="-97" font-family="Times New Roman,serif" font-size="10.00">name = &quot;KarliLane&quot;</text>
</g>
<!-- taskboard&#45;&#45;l1 -->
<g id="edge2" class="edge"><title>taskboard&#45;&#45;l1</title>
<path fill="none" stroke="black" d="M262,-189.382C262,-171.561 262,-147.702 262,-130.616"/>
<text text-anchor="middle" x="266.226" y="-137.179" font-family="Times New Roman,serif" font-size="10.00">lanes</text>
<text text-anchor="middle" x="257.774" y="-177.819" font-family="Times New Roman,serif" font-size="10.00">board</text>
</g>
<!-- karliLaneListener -->
<g id="node4" class="node"><title>karliLaneListener</title>
<image xlink:href="icons/person1.png" width="32px" height="43px" preserveAspectRatio="xMinYMin meet" x="422" y="-244"/>
<a xlink:href="../examples/org/sdmlib/examples/replication/maumau/PlayerLaneListener.java" xlink:title="&lt;TABLE&gt;">
<polygon fill="none" stroke="black" points="358,-183 358,-199 518,-199 518,-183 358,-183"/>
<text text-anchor="start" x="361.5" y="-189" font-family="Times New Roman,serif" font-size="10.00"> </text>
<text text-anchor="start" x="364.5" y="-189" font-family="Times New Roman,serif" font-size="10.00">karliLaneListener :PlayerLaneListener</text>
</a>
</g>
<!-- karliLaneListener&#45;&#45;l1 -->
<g id="edge8" class="edge"><title>karliLaneListener&#45;&#45;l1</title>
<path fill="none" stroke="black" d="M379.883,-179.328C352.949,-163.259 321.777,-144.662 298.255,-130.629"/>
<text text-anchor="middle" x="308.203" y="-129.143" font-family="Times New Roman,serif" font-size="10.00">sources</text>
</g>
<!-- karliStartGameHandler -->
<g id="node5" class="node"><title>karliStartGameHandler</title>
<a xlink:href="../examples/org/sdmlib/examples/replication/maumau/ShowStartGameButton.java" xlink:title="&lt;TABLE&gt;">
<polygon fill="none" stroke="black" points="341,-99 341,-116 535,-116 535,-99 341,-99"/>
<text text-anchor="start" x="344.5" y="-105.5" font-family="Times New Roman,serif" font-size="10.00"> </text>
<text text-anchor="start" x="347.5" y="-105.5" font-family="Times New Roman,serif" font-size="10.00">karliStartGameHandler :ShowStartGameButton</text>
</a>
</g>
<!-- karliLaneListener&#45;&#45;karliStartGameHandler -->
<g id="edge4" class="edge"><title>karliLaneListener&#45;&#45;karliStartGameHandler</title>
<path fill="none" stroke="black" d="M438,-179.328C438,-161.527 438,-140.623 438,-126.259"/>
<text text-anchor="middle" x="442.226" y="-132.822" font-family="Times New Roman,serif" font-size="10.00">handlerList</text>
</g>
<!-- s2 -->
<g id="node6" class="node"><title>s2</title>
<a xlink:href="../examples/org/sdmlib/examples/replication/maumau/StoryTheo.java" xlink:title="&lt;TABLE&gt;">
<polygon fill="none" stroke="black" points="570,-99 570,-116 637,-116 637,-99 570,-99"/>
<text text-anchor="start" x="573.5" y="-105.5" font-family="Times New Roman,serif" font-size="10.00"> </text>
<text text-anchor="start" x="576.5" y="-105.5" font-family="Times New Roman,serif" font-size="10.00">s2 :StoryTheo</text>
</a>
</g>
<!-- karliLaneListener&#45;&#45;s2 -->
<g id="edge6" class="edge"><title>karliLaneListener&#45;&#45;s2</title>
<path fill="none" stroke="black" d="M492.484,-179.328C520.457,-161.527 553.306,-140.623 575.879,-126.259"/>
<text text-anchor="middle" x="570.502" y="-132.19" font-family="Times New Roman,serif" font-size="10.00">handlerList</text>
</g>
<!-- maumau -->
<g id="node7" class="node"><title>maumau</title>
<image xlink:href="icons/shared.png" width="70px" height="23px" preserveAspectRatio="xMinYMin meet" x="679" y="-127"/>
<a xlink:href="../examples/org/sdmlib/examples/replication/maumau/MauMau.java" xlink:title="&lt;TABLE&gt;">
<polygon fill="none" stroke="black" points="671,-86 671,-102 757,-102 757,-86 671,-86"/>
<text text-anchor="start" x="674.5" y="-92" font-family="Times New Roman,serif" font-size="10.00"> </text>
<text text-anchor="start" x="677.5" y="-92" font-family="Times New Roman,serif" font-size="10.00">maumau :MauMau</text>
</a>
</g>
<!-- karli -->
<g id="node8" class="node"><title>karli</title>
<a xlink:href="../examples/org/sdmlib/examples/replication/maumau/Player.java" xlink:title="&lt;TABLE&gt;">
<polygon fill="none" stroke="black" points="718,-24 718,-41 788,-41 788,-24 718,-24"/>
<text text-anchor="start" x="728.5" y="-30.5" font-family="Times New Roman,serif" font-size="10.00"> </text>
<text text-anchor="start" x="731.5" y="-30.5" font-family="Times New Roman,serif" font-size="10.00">karli :Player</text>
</a>
<polygon fill="none" stroke="black" points="718,-4 718,-24 788,-24 788,-4 718,-4"/>
<text text-anchor="start" x="723" y="-12" font-family="Times New Roman,serif" font-size="10.00">name = &quot;Karli&quot;</text>
</g>
<!-- maumau&#45;&#45;karli -->
<g id="edge10" class="edge"><title>maumau&#45;&#45;karli</title>
<path fill="none" stroke="black" d="M725.701,-82.0973C731.176,-70.4462 737.632,-56.7055 742.892,-45.5129"/>
<text text-anchor="middle" x="742.862" y="-53.0128" font-family="Times New Roman,serif" font-size="10.00">players</text>
<text text-anchor="middle" x="725.731" y="-69.5973" font-family="Times New Roman,serif" font-size="10.00">game</text>
</g>
<!-- abuMauMauController -->
<g id="node9" class="node"><title>abuMauMauController</title>
<image xlink:href="icons/person1.png" width="32px" height="43px" preserveAspectRatio="xMinYMin meet" x="737" y="-244"/>
<a xlink:href="../examples/org/sdmlib/examples/replication/maumau/MultiMauMauControler.java" xlink:title="&lt;TABLE&gt;">
<polygon fill="none" stroke="black" points="651,-183 651,-199 855,-199 855,-183 651,-183"/>
<text text-anchor="start" x="654.5" y="-189" font-family="Times New Roman,serif" font-size="10.00"> </text>
<text text-anchor="start" x="657.5" y="-189" font-family="Times New Roman,serif" font-size="10.00">abuMauMauController :MultiMauMauControler</text>
</a>
</g>
<!-- abuMauMauController&#45;&#45;maumau -->
<g id="edge12" class="edge"><title>abuMauMauController&#45;&#45;maumau</title>
<path fill="none" stroke="black" d="M740.122,-179.328C734.575,-164.394 728.217,-147.277 723.163,-133.669"/>
<text text-anchor="middle" x="730.28" y="-138.193" font-family="Times New Roman,serif" font-size="10.00">mauMau</text>
</g>
<!-- abuMauMauController&#45;&#45;karli -->
<g id="edge14" class="edge"><title>abuMauMauController&#45;&#45;karli</title>
<path fill="none" stroke="black" d="M764.779,-179.487C772.357,-152.825 779.795,-115.026 774,-82 771.816,-69.5534 767.184,-56.2581 762.824,-45.541"/>
<text text-anchor="middle" x="770.11" y="-49.8906" font-family="Times New Roman,serif" font-size="10.00">activePlayer</text>
</g>
</g>
</svg>
