<?xml version="1.0" encoding="UTF-8" standalone="no"?>
<!DOCTYPE svg PUBLIC "-//W3C//DTD SVG 1.1//EN"
 "http://www.w3.org/Graphics/SVG/1.1/DTD/svg11.dtd">
<!-- Generated by graphviz version 2.28.0 (20110507.0327)
 -->
<!-- Title: ObjectDiagram Pages: 1 -->
<svg width="1113pt" height="276pt"
 viewBox="0.00 0.00 1113.00 276.00" xmlns="http://www.w3.org/2000/svg" xmlns:xlink="http://www.w3.org/1999/xlink">
<g id="graph1" class="graph" transform="scale(1 1) rotate(0) translate(4 272)">
<title>ObjectDiagram</title>
<polygon fill="white" stroke="white" points="-4,5 -4,-272 1110,-272 1110,5 -4,5"/>
<!-- karliNode -->
<g id="node1" class="node"><title>karliNode</title>
<image xlink:href="icons/node.png" width="83px" height="61px" preserveAspectRatio="xMinYMin meet" x="10" y="-261"/>
<a xlink:href="../../SDMLib/src/org/sdmlib/replication/Node.java" xlink:title="&lt;TABLE&gt;">
<polygon fill="none" stroke="black" points="8,-182 8,-198 95,-198 95,-182 8,-182"/>
<text text-anchor="start" x="17.5" y="-188" font-family="Times New Roman,serif" font-size="10.00"> </text>
<text text-anchor="start" x="20.5" y="-188" font-family="Times New Roman,serif" font-size="10.00">karliNode :Node</text>
</a>
</g>
<!-- s9 -->
<g id="node2" class="node"><title>s9</title>
<image xlink:href="icons/worker.png" width="80px" height="61px" preserveAspectRatio="xMinYMin meet" x="160.5" y="-261"/>
<a xlink:href="../examples/org/sdmlib/examples/replication/maumau/ShowStartGameButtonAction.java" xlink:title="&lt;TABLE&gt;">
<polygon fill="none" stroke="black" points="129,-182 129,-198 272,-198 272,-182 129,-182"/>
<text text-anchor="start" x="132.5" y="-188" font-family="Times New Roman,serif" font-size="10.00"> </text>
<text text-anchor="start" x="135.5" y="-188" font-family="Times New Roman,serif" font-size="10.00">s9 :ShowStartGameButtonAction</text>
</a>
</g>
<!-- taskboard -->
<g id="node3" class="node"><title>taskboard</title>
<image xlink:href="icons/shared.png" width="70px" height="23px" preserveAspectRatio="xMinYMin meet" x="330" y="-242"/>
<a xlink:href="../../SDMLib/src/org/sdmlib/replication/TaskFlowBoard.java" xlink:title="&lt;TABLE&gt;">
<polygon fill="none" stroke="black" points="306,-201 306,-217 424,-217 424,-201 306,-201"/>
<text text-anchor="start" x="309.5" y="-207" font-family="Times New Roman,serif" font-size="10.00"> </text>
<text text-anchor="start" x="312.5" y="-207" font-family="Times New Roman,serif" font-size="10.00">taskboard :TaskFlowBoard</text>
</a>
</g>
<!-- l2 -->
<g id="node4" class="node"><title>l2</title>
<a xlink:href="../../SDMLib/src/org/sdmlib/replication/Lane.java" xlink:title="&lt;TABLE&gt;">
<polygon fill="none" stroke="black" points="114,-120 114,-137 190,-137 190,-120 114,-120"/>
<text text-anchor="start" x="135" y="-126.5" font-family="Times New Roman,serif" font-size="10.00"> </text>
<text text-anchor="start" x="138" y="-126.5" font-family="Times New Roman,serif" font-size="10.00">l2 :Lane</text>
</a>
<polygon fill="none" stroke="black" points="114,-100 114,-120 190,-120 190,-100 114,-100"/>
<text text-anchor="start" x="119" y="-108" font-family="Times New Roman,serif" font-size="10.00">name = &quot;server&quot;</text>
</g>
<!-- taskboard&#45;&#45;l2 -->
<g id="edge2" class="edge"><title>taskboard&#45;&#45;l2</title>
<path fill="none" stroke="black" d="M323.918,-197.355C312.439,-190.791 299.858,-183.892 288,-178 271.506,-169.805 230.771,-152.573 198.153,-139.01"/>
<text text-anchor="middle" x="208.145" y="-136.096" font-family="Times New Roman,serif" font-size="10.00">lanes</text>
<text text-anchor="middle" x="313.951" y="-194.045" font-family="Times New Roman,serif" font-size="10.00">board</text>
</g>
<!-- l3 -->
<g id="node5" class="node"><title>l3</title>
<a xlink:href="../../SDMLib/src/org/sdmlib/replication/Lane.java" xlink:title="&lt;TABLE&gt;">
<polygon fill="none" stroke="black" points="225,-120 225,-137 360,-137 360,-120 225,-120"/>
<text text-anchor="start" x="275.5" y="-126.5" font-family="Times New Roman,serif" font-size="10.00"> </text>
<text text-anchor="start" x="278.5" y="-126.5" font-family="Times New Roman,serif" font-size="10.00">l3 :Lane</text>
</a>
<polygon fill="none" stroke="black" points="225,-100 225,-120 360,-120 360,-100 225,-100"/>
<text text-anchor="start" x="230" y="-108" font-family="Times New Roman,serif" font-size="10.00">name = &quot;play7WorkFlowLane&quot;</text>
</g>
<!-- taskboard&#45;&#45;l3 -->
<g id="edge4" class="edge"><title>taskboard&#45;&#45;l3</title>
<path fill="none" stroke="black" d="M347.329,-197.309C335.176,-180.328 319.189,-157.99 307.526,-141.694"/>
<text text-anchor="middle" x="316.237" y="-144.104" font-family="Times New Roman,serif" font-size="10.00">lanes</text>
<text text-anchor="middle" x="338.617" y="-189.898" font-family="Times New Roman,serif" font-size="10.00">board</text>
</g>
<!-- l6 -->
<g id="node7" class="node"><title>l6</title>
<a xlink:href="../../SDMLib/src/org/sdmlib/replication/Lane.java" xlink:title="&lt;TABLE&gt;">
<polygon fill="none" stroke="black" points="394,-120 394,-137 483,-137 483,-120 394,-120"/>
<text text-anchor="start" x="421.5" y="-126.5" font-family="Times New Roman,serif" font-size="10.00"> </text>
<text text-anchor="start" x="424.5" y="-126.5" font-family="Times New Roman,serif" font-size="10.00">l6 :Lane</text>
</a>
<polygon fill="none" stroke="black" points="394,-100 394,-120 483,-120 483,-100 394,-100"/>
<text text-anchor="start" x="399" y="-108" font-family="Times New Roman,serif" font-size="10.00">name = &quot;AbuLane&quot;</text>
</g>
<!-- taskboard&#45;&#45;l6 -->
<g id="edge6" class="edge"><title>taskboard&#45;&#45;l6</title>
<path fill="none" stroke="black" d="M382.671,-197.309C394.824,-180.328 410.811,-157.99 422.474,-141.694"/>
<text text-anchor="middle" x="420.636" y="-149.024" font-family="Times New Roman,serif" font-size="10.00">lanes</text>
<text text-anchor="middle" x="384.509" y="-184.979" font-family="Times New Roman,serif" font-size="10.00">board</text>
</g>
<!-- l1 -->
<g id="node9" class="node"><title>l1</title>
<a xlink:href="../../SDMLib/src/org/sdmlib/replication/Lane.java" xlink:title="&lt;TABLE&gt;">
<polygon fill="none" stroke="black" points="542,-120 542,-137 632,-137 632,-120 542,-120"/>
<text text-anchor="start" x="570" y="-126.5" font-family="Times New Roman,serif" font-size="10.00"> </text>
<text text-anchor="start" x="573" y="-126.5" font-family="Times New Roman,serif" font-size="10.00">l1 :Lane</text>
</a>
<polygon fill="none" stroke="black" points="542,-100 542,-120 632,-120 632,-100 542,-100"/>
<text text-anchor="start" x="547" y="-108" font-family="Times New Roman,serif" font-size="10.00">name = &quot;KarliLane&quot;</text>
</g>
<!-- taskboard&#45;&#45;l1 -->
<g id="edge8" class="edge"><title>taskboard&#45;&#45;l1</title>
<path fill="none" stroke="black" d="M418.457,-197.439C455.536,-180.403 504.455,-157.926 540.035,-141.579"/>
<text text-anchor="middle" x="533.564" y="-146.703" font-family="Times New Roman,serif" font-size="10.00">lanes</text>
<text text-anchor="middle" x="424.928" y="-187.315" font-family="Times New Roman,serif" font-size="10.00">board</text>
</g>
<!-- b4 -->
<g id="node6" class="node"><title>b4</title>
<a xlink:href="../../SDMLib/src/org/sdmlib/replication/BoardTask.java" xlink:title="&lt;TABLE&gt;">
<polygon fill="none" stroke="black" points="237,-38 237,-55 334,-55 334,-38 237,-38"/>
<text text-anchor="start" x="255" y="-44.5" font-family="Times New Roman,serif" font-size="10.00"> </text>
<text text-anchor="start" x="258" y="-44.5" font-family="Times New Roman,serif" font-size="10.00">b4 :BoardTask</text>
</a>
<polygon fill="none" stroke="black" points="237,-4 237,-38 334,-38 334,-4 237,-4"/>
<text text-anchor="start" x="242" y="-26" font-family="Times New Roman,serif" font-size="10.00">name = &quot;startClients&quot;</text>
<text text-anchor="start" x="242" y="-12" font-family="Times New Roman,serif" font-size="10.00">status = &quot;start&quot;</text>
</g>
<!-- l3&#45;&#45;b4 -->
<g id="edge10" class="edge"><title>l3&#45;&#45;b4</title>
<path fill="none" stroke="black" d="M290.27,-96.4944C289.379,-85.4243 288.281,-71.7752 287.318,-59.8074"/>
<text text-anchor="middle" x="292.257" y="-66.0023" font-family="Times New Roman,serif" font-size="10.00">tasks</text>
<text text-anchor="middle" x="285.33" y="-85.2994" font-family="Times New Roman,serif" font-size="10.00">lane</text>
</g>
<!-- b7 -->
<g id="node8" class="node"><title>b7</title>
<a xlink:href="../../SDMLib/src/org/sdmlib/replication/BoardTask.java" xlink:title="&lt;TABLE&gt;">
<polygon fill="none" stroke="black" points="368,-38 368,-55 509,-55 509,-38 368,-38"/>
<text text-anchor="start" x="408" y="-44.5" font-family="Times New Roman,serif" font-size="10.00"> </text>
<text text-anchor="start" x="411" y="-44.5" font-family="Times New Roman,serif" font-size="10.00">b7 :BoardTask</text>
</a>
<polygon fill="none" stroke="black" points="368,-4 368,-38 509,-38 509,-4 368,-4"/>
<text text-anchor="start" x="373" y="-26" font-family="Times New Roman,serif" font-size="10.00">name = &quot;showStartGameButton&quot;</text>
<text text-anchor="start" x="373" y="-12" font-family="Times New Roman,serif" font-size="10.00">status = &quot;start&quot;</text>
</g>
<!-- l6&#45;&#45;b7 -->
<g id="edge12" class="edge"><title>l6&#45;&#45;b7</title>
<path fill="none" stroke="black" d="M438,-96.4944C438,-85.4243 438,-71.7752 438,-59.8074"/>
<text text-anchor="middle" x="442.226" y="-66.3705" font-family="Times New Roman,serif" font-size="10.00">tasks</text>
<text text-anchor="middle" x="433.774" y="-84.9313" font-family="Times New Roman,serif" font-size="10.00">lane</text>
</g>
<!-- b8 -->
<g id="node10" class="node"><title>b8</title>
<a xlink:href="../../SDMLib/src/org/sdmlib/replication/BoardTask.java" xlink:title="&lt;TABLE&gt;">
<polygon fill="none" stroke="black" points="543,-38 543,-55 684,-55 684,-38 543,-38"/>
<text text-anchor="start" x="583" y="-44.5" font-family="Times New Roman,serif" font-size="10.00"> </text>
<text text-anchor="start" x="586" y="-44.5" font-family="Times New Roman,serif" font-size="10.00">b8 :BoardTask</text>
</a>
<polygon fill="none" stroke="black" points="543,-4 543,-38 684,-38 684,-4 543,-4"/>
<text text-anchor="start" x="548" y="-26" font-family="Times New Roman,serif" font-size="10.00">name = &quot;showStartGameButton&quot;</text>
<text text-anchor="start" x="548" y="-12" font-family="Times New Roman,serif" font-size="10.00">status = &quot;start&quot;</text>
</g>
<!-- l1&#45;&#45;b8 -->
<g id="edge14" class="edge"><title>l1&#45;&#45;b8</title>
<path fill="none" stroke="black" d="M593.427,-96.4944C596.735,-85.4243 600.814,-71.7752 604.391,-59.8074"/>
<text text-anchor="middle" x="605.845" y="-67.2011" font-family="Times New Roman,serif" font-size="10.00">tasks</text>
<text text-anchor="middle" x="591.973" y="-84.1007" font-family="Times New Roman,serif" font-size="10.00">lane</text>
</g>
<!-- l10 -->
<g id="node11" class="node"><title>l10</title>
<a xlink:href="../../SDMLib/src/org/eclipse/swt/widgets/Label.java" xlink:title="&lt;TABLE&gt;">
<polygon fill="none" stroke="black" points="667,-120 667,-137 890,-137 890,-120 667,-120"/>
<text text-anchor="start" x="758" y="-126.5" font-family="Times New Roman,serif" font-size="10.00"> </text>
<text text-anchor="start" x="761" y="-126.5" font-family="Times New Roman,serif" font-size="10.00">l10 :Label</text>
</a>
<polygon fill="none" stroke="black" points="667,-100 667,-120 890,-120 890,-100 667,-100"/>
<text text-anchor="start" x="672" y="-108" font-family="Times New Roman,serif" font-size="10.00">text = &quot;When all players have shown up, Start Game&quot;</text>
</g>
<!-- s11 -->
<g id="node12" class="node"><title>s11</title>
<image xlink:href="icons/person1.png" width="32px" height="43px" preserveAspectRatio="xMinYMin meet" x="762.5" y="-252"/>
<a xlink:href="../examples/org/sdmlib/examples/replication/maumau/StartGameMouseAdapter.java" xlink:title="&lt;TABLE&gt;">
<polygon fill="none" stroke="black" points="713,-191 713,-207 844,-207 844,-191 713,-191"/>
<text text-anchor="start" x="716.5" y="-197" font-family="Times New Roman,serif" font-size="10.00"> </text>
<text text-anchor="start" x="719.5" y="-197" font-family="Times New Roman,serif" font-size="10.00">s11 :StartGameMouseAdapter</text>
</a>
</g>
<!-- s11&#45;&#45;l10 -->
<g id="edge16" class="edge"><title>s11&#45;&#45;l10</title>
<path fill="none" stroke="black" d="M778,-187.467C778,-172.325 778,-155.013 778,-141.717"/>
<text text-anchor="middle" x="782.226" y="-148.28" font-family="Times New Roman,serif" font-size="10.00">startGameLabel</text>
</g>
<!-- maumau -->
<g id="node13" class="node"><title>maumau</title>
<image xlink:href="icons/shared.png" width="70px" height="23px" preserveAspectRatio="xMinYMin meet" x="975" y="-242"/>
<a xlink:href="../examples/org/sdmlib/examples/replication/maumau/MauMau.java" xlink:title="&lt;TABLE&gt;">
<polygon fill="none" stroke="black" points="967,-201 967,-217 1053,-217 1053,-201 967,-201"/>
<text text-anchor="start" x="970.5" y="-207" font-family="Times New Roman,serif" font-size="10.00"> </text>
<text text-anchor="start" x="973.5" y="-207" font-family="Times New Roman,serif" font-size="10.00">maumau :MauMau</text>
</a>
</g>
<!-- p5 -->
<g id="node14" class="node"><title>p5</title>
<a xlink:href="../examples/org/sdmlib/examples/replication/maumau/Player.java" xlink:title="&lt;TABLE&gt;">
<polygon fill="none" stroke="black" points="924,-120 924,-137 993,-137 993,-120 924,-120"/>
<text text-anchor="start" x="937" y="-126.5" font-family="Times New Roman,serif" font-size="10.00"> </text>
<text text-anchor="start" x="940" y="-126.5" font-family="Times New Roman,serif" font-size="10.00">p5 :Player</text>
</a>
<polygon fill="none" stroke="black" points="924,-100 924,-120 993,-120 993,-100 924,-100"/>
<text text-anchor="start" x="929" y="-108" font-family="Times New Roman,serif" font-size="10.00">name = &quot;Abu&quot;</text>
</g>
<!-- maumau&#45;&#45;p5 -->
<g id="edge18" class="edge"><title>maumau&#45;&#45;p5</title>
<path fill="none" stroke="black" d="M997.412,-197.309C988.756,-180.328 977.367,-157.99 969.06,-141.694"/>
<text text-anchor="middle" x="976.941" y="-145.349" font-family="Times New Roman,serif" font-size="10.00">players</text>
<text text-anchor="middle" x="989.531" y="-188.654" font-family="Times New Roman,serif" font-size="10.00">game</text>
</g>
<!-- karli -->
<g id="node15" class="node"><title>karli</title>
<a xlink:href="../examples/org/sdmlib/examples/replication/maumau/Player.java" xlink:title="&lt;TABLE&gt;">
<polygon fill="none" stroke="black" points="1027,-120 1027,-137 1097,-137 1097,-120 1027,-120"/>
<text text-anchor="start" x="1037.5" y="-126.5" font-family="Times New Roman,serif" font-size="10.00"> </text>
<text text-anchor="start" x="1040.5" y="-126.5" font-family="Times New Roman,serif" font-size="10.00">karli :Player</text>
</a>
<polygon fill="none" stroke="black" points="1027,-100 1027,-120 1097,-120 1097,-100 1027,-100"/>
<text text-anchor="start" x="1032" y="-108" font-family="Times New Roman,serif" font-size="10.00">name = &quot;Karli&quot;</text>
</g>
<!-- maumau&#45;&#45;karli -->
<g id="edge20" class="edge"><title>maumau&#45;&#45;karli</title>
<path fill="none" stroke="black" d="M1022.59,-197.309C1031.24,-180.328 1042.63,-157.99 1050.94,-141.694"/>
<text text-anchor="middle" x="1050.59" y="-149.188" font-family="Times New Roman,serif" font-size="10.00">players</text>
<text text-anchor="middle" x="1022.94" y="-184.815" font-family="Times New Roman,serif" font-size="10.00">game</text>
</g>
</g>
</svg>
