<?xml version="1.0" encoding="UTF-8" standalone="no"?>
<!DOCTYPE svg PUBLIC "-//W3C//DTD SVG 1.1//EN"
 "http://www.w3.org/Graphics/SVG/1.1/DTD/svg11.dtd">
<!-- Generated by graphviz version 2.28.0 (20110507.0327)
 -->
<!-- Title: ObjectDiagram Pages: 1 -->
<svg width="1274pt" height="276pt"
 viewBox="0.00 0.00 1274.00 276.00" xmlns="http://www.w3.org/2000/svg" xmlns:xlink="http://www.w3.org/1999/xlink">
<g id="graph1" class="graph" transform="scale(1 1) rotate(0) translate(4 272)">
<title>ObjectDiagram</title>
<polygon fill="white" stroke="white" points="-4,5 -4,-272 1271,-272 1271,5 -4,5"/>
<!-- s12 -->
<g id="node1" class="node"><title>s12</title>
<image xlink:href="icons/worker.png" width="80px" height="61px" preserveAspectRatio="xMinYMin meet" x="79.5" y="-261"/>
<a xlink:href="../examples/org/sdmlib/examples/replication/maumau/StartGameMouseAdapter.java" xlink:title="&lt;TABLE&gt;">
<polygon fill="none" stroke="black" points="54,-182 54,-198 185,-198 185,-182 54,-182"/>
<text text-anchor="start" x="57.5" y="-188" font-family="Times New Roman,serif" font-size="10.00"> </text>
<text text-anchor="start" x="60.5" y="-188" font-family="Times New Roman,serif" font-size="10.00">s12 :StartGameMouseAdapter</text>
</a>
</g>
<!-- l11 -->
<g id="node2" class="node"><title>l11</title>
<a xlink:href="../../SDMLib/src/org/eclipse/swt/widgets/Label.java" xlink:title="&lt;TABLE&gt;">
<polygon fill="none" stroke="black" points="8,-120 8,-137 231,-137 231,-120 8,-120"/>
<text text-anchor="start" x="99" y="-126.5" font-family="Times New Roman,serif" font-size="10.00"> </text>
<text text-anchor="start" x="102" y="-126.5" font-family="Times New Roman,serif" font-size="10.00">l11 :Label</text>
</a>
<polygon fill="none" stroke="black" points="8,-100 8,-120 231,-120 231,-100 8,-100"/>
<text text-anchor="start" x="13" y="-108" font-family="Times New Roman,serif" font-size="10.00">text = &quot;When all players have shown up, Start Game&quot;</text>
</g>
<!-- s12&#45;&#45;l11 -->
<g id="edge2" class="edge"><title>s12&#45;&#45;l11</title>
<path fill="none" stroke="black" d="M119,-178.447C119,-165.668 119,-152.252 119,-141.501"/>
<text text-anchor="middle" x="123.226" y="-148.064" font-family="Times New Roman,serif" font-size="10.00">startGameLabel</text>
</g>
<!-- taskboard -->
<g id="node3" class="node"><title>taskboard</title>
<image xlink:href="icons/shared.png" width="70px" height="23px" preserveAspectRatio="xMinYMin meet" x="827" y="-242"/>
<a xlink:href="../../SDMLib/src/org/sdmlib/replication/TaskFlowBoard.java" xlink:title="&lt;TABLE&gt;">
<polygon fill="none" stroke="black" points="803,-201 803,-217 921,-217 921,-201 803,-201"/>
<text text-anchor="start" x="806.5" y="-207" font-family="Times New Roman,serif" font-size="10.00"> </text>
<text text-anchor="start" x="809.5" y="-207" font-family="Times New Roman,serif" font-size="10.00">taskboard :TaskFlowBoard</text>
</a>
</g>
<!-- l2 -->
<g id="node4" class="node"><title>l2</title>
<a xlink:href="../../SDMLib/src/org/sdmlib/replication/Lane.java" xlink:title="&lt;TABLE&gt;">
<polygon fill="none" stroke="black" points="265,-120 265,-137 341,-137 341,-120 265,-120"/>
<text text-anchor="start" x="286" y="-126.5" font-family="Times New Roman,serif" font-size="10.00"> </text>
<text text-anchor="start" x="289" y="-126.5" font-family="Times New Roman,serif" font-size="10.00">l2 :Lane</text>
</a>
<polygon fill="none" stroke="black" points="265,-100 265,-120 341,-120 341,-100 265,-100"/>
<text text-anchor="start" x="270" y="-108" font-family="Times New Roman,serif" font-size="10.00">name = &quot;server&quot;</text>
</g>
<!-- taskboard&#45;&#45;l2 -->
<g id="edge4" class="edge"><title>taskboard&#45;&#45;l2</title>
<path fill="none" stroke="black" d="M794.849,-209.747C679.828,-188.759 447.984,-146.455 349.236,-128.437"/>
<text text-anchor="middle" x="358.911" y="-123.406" font-family="Times New Roman,serif" font-size="10.00">lanes</text>
<text text-anchor="middle" x="785.175" y="-209.778" font-family="Times New Roman,serif" font-size="10.00">board</text>
</g>
<!-- l3 -->
<g id="node6" class="node"><title>l3</title>
<a xlink:href="../../SDMLib/src/org/sdmlib/replication/Lane.java" xlink:title="&lt;TABLE&gt;">
<polygon fill="none" stroke="black" points="536,-120 536,-137 671,-137 671,-120 536,-120"/>
<text text-anchor="start" x="586.5" y="-126.5" font-family="Times New Roman,serif" font-size="10.00"> </text>
<text text-anchor="start" x="589.5" y="-126.5" font-family="Times New Roman,serif" font-size="10.00">l3 :Lane</text>
</a>
<polygon fill="none" stroke="black" points="536,-100 536,-120 671,-120 671,-100 536,-100"/>
<text text-anchor="start" x="541" y="-108" font-family="Times New Roman,serif" font-size="10.00">name = &quot;play7WorkFlowLane&quot;</text>
</g>
<!-- taskboard&#45;&#45;l3 -->
<g id="edge6" class="edge"><title>taskboard&#45;&#45;l3</title>
<path fill="none" stroke="black" d="M799.633,-197.439C756.375,-180.403 699.302,-157.926 657.793,-141.579"/>
<text text-anchor="middle" x="667.774" y="-138.467" font-family="Times New Roman,serif" font-size="10.00">lanes</text>
<text text-anchor="middle" x="789.652" y="-195.55" font-family="Times New Roman,serif" font-size="10.00">board</text>
</g>
<!-- l7 -->
<g id="node10" class="node"><title>l7</title>
<a xlink:href="../../SDMLib/src/org/sdmlib/replication/Lane.java" xlink:title="&lt;TABLE&gt;">
<polygon fill="none" stroke="black" points="818,-120 818,-137 907,-137 907,-120 818,-120"/>
<text text-anchor="start" x="845.5" y="-126.5" font-family="Times New Roman,serif" font-size="10.00"> </text>
<text text-anchor="start" x="848.5" y="-126.5" font-family="Times New Roman,serif" font-size="10.00">l7 :Lane</text>
</a>
<polygon fill="none" stroke="black" points="818,-100 818,-120 907,-120 907,-100 818,-100"/>
<text text-anchor="start" x="823" y="-108" font-family="Times New Roman,serif" font-size="10.00">name = &quot;AbuLane&quot;</text>
</g>
<!-- taskboard&#45;&#45;l7 -->
<g id="edge8" class="edge"><title>taskboard&#45;&#45;l7</title>
<path fill="none" stroke="black" d="M862,-197.309C862,-180.328 862,-157.99 862,-141.694"/>
<text text-anchor="middle" x="866.226" y="-148.257" font-family="Times New Roman,serif" font-size="10.00">lanes</text>
<text text-anchor="middle" x="857.774" y="-185.746" font-family="Times New Roman,serif" font-size="10.00">board</text>
</g>
<!-- l1 -->
<g id="node12" class="node"><title>l1</title>
<a xlink:href="../../SDMLib/src/org/sdmlib/replication/Lane.java" xlink:title="&lt;TABLE&gt;">
<polygon fill="none" stroke="black" points="967,-120 967,-137 1057,-137 1057,-120 967,-120"/>
<text text-anchor="start" x="995" y="-126.5" font-family="Times New Roman,serif" font-size="10.00"> </text>
<text text-anchor="start" x="998" y="-126.5" font-family="Times New Roman,serif" font-size="10.00">l1 :Lane</text>
</a>
<polygon fill="none" stroke="black" points="967,-100 967,-120 1057,-120 1057,-100 967,-100"/>
<text text-anchor="start" x="972" y="-108" font-family="Times New Roman,serif" font-size="10.00">name = &quot;KarliLane&quot;</text>
</g>
<!-- taskboard&#45;&#45;l1 -->
<g id="edge10" class="edge"><title>taskboard&#45;&#45;l1</title>
<path fill="none" stroke="black" d="M898.311,-197.309C923.282,-180.328 956.132,-157.99 980.097,-141.694"/>
<text text-anchor="middle" x="974.979" y="-147.785" font-family="Times New Roman,serif" font-size="10.00">lanes</text>
<text text-anchor="middle" x="903.429" y="-186.218" font-family="Times New Roman,serif" font-size="10.00">board</text>
</g>
<!-- l14 -->
<g id="node15" class="node"><title>l14</title>
<a xlink:href="../../SDMLib/src/org/sdmlib/replication/Lane.java" xlink:title="&lt;TABLE&gt;">
<polygon fill="none" stroke="black" points="1091,-120 1091,-137 1189,-137 1189,-120 1091,-120"/>
<text text-anchor="start" x="1120.5" y="-126.5" font-family="Times New Roman,serif" font-size="10.00"> </text>
<text text-anchor="start" x="1123.5" y="-126.5" font-family="Times New Roman,serif" font-size="10.00">l14 :Lane</text>
</a>
<polygon fill="none" stroke="black" points="1091,-100 1091,-120 1189,-120 1189,-100 1091,-100"/>
<text text-anchor="start" x="1096" y="-108" font-family="Times New Roman,serif" font-size="10.00">name = &quot;SabineLane&quot;</text>
</g>
<!-- taskboard&#45;&#45;l14 -->
<g id="edge12" class="edge"><title>taskboard&#45;&#45;l14</title>
<path fill="none" stroke="black" d="M928.942,-197.439C975.856,-180.226 1037.91,-157.459 1082.57,-141.072"/>
<text text-anchor="middle" x="1075.52" y="-145.661" font-family="Times New Roman,serif" font-size="10.00">lanes</text>
<text text-anchor="middle" x="935.994" y="-187.849" font-family="Times New Roman,serif" font-size="10.00">board</text>
</g>
<!-- b18 -->
<g id="node5" class="node"><title>b18</title>
<a xlink:href="../../SDMLib/src/org/sdmlib/replication/BoardTask.java" xlink:title="&lt;TABLE&gt;">
<polygon fill="none" stroke="black" points="176,-31 176,-48 267,-48 267,-31 176,-31"/>
<text text-anchor="start" x="188.5" y="-37.5" font-family="Times New Roman,serif" font-size="10.00"> </text>
<text text-anchor="start" x="191.5" y="-37.5" font-family="Times New Roman,serif" font-size="10.00">b18 :BoardTask</text>
</a>
<polygon fill="none" stroke="black" points="176,-11 176,-31 267,-31 267,-11 176,-11"/>
<text text-anchor="start" x="181" y="-19" font-family="Times New Roman,serif" font-size="10.00">name = &quot;startGame&quot;</text>
</g>
<!-- l2&#45;&#45;b18 -->
<g id="edge14" class="edge"><title>l2&#45;&#45;b18</title>
<path fill="none" stroke="black" d="M282.73,-96.4944C270.115,-83.1096 253.946,-65.9547 241.321,-52.5597"/>
<text text-anchor="middle" x="250.612" y="-53.7563" font-family="Times New Roman,serif" font-size="10.00">tasks</text>
<text text-anchor="middle" x="273.439" y="-90.2978" font-family="Times New Roman,serif" font-size="10.00">lane</text>
</g>
<!-- b4 -->
<g id="node7" class="node"><title>b4</title>
<a xlink:href="../../SDMLib/src/org/sdmlib/replication/BoardTask.java" xlink:title="&lt;TABLE&gt;">
<polygon fill="none" stroke="black" points="301,-38 301,-55 442,-55 442,-38 301,-38"/>
<text text-anchor="start" x="341" y="-44.5" font-family="Times New Roman,serif" font-size="10.00"> </text>
<text text-anchor="start" x="344" y="-44.5" font-family="Times New Roman,serif" font-size="10.00">b4 :BoardTask</text>
</a>
<polygon fill="none" stroke="black" points="301,-4 301,-38 442,-38 442,-4 301,-4"/>
<text text-anchor="start" x="306" y="-26" font-family="Times New Roman,serif" font-size="10.00">name = &quot;showStartGameButton&quot;</text>
<text text-anchor="start" x="306" y="-12" font-family="Times New Roman,serif" font-size="10.00">status = &quot;start&quot;</text>
</g>
<!-- l3&#45;&#45;b4 -->
<g id="edge16" class="edge"><title>l3&#45;&#45;b4</title>
<path fill="none" stroke="black" d="M545.652,-96.4944C515.997,-85.3739 479.403,-71.6511 447.385,-59.6443"/>
<text text-anchor="middle" x="457.355" y="-56.3695" font-family="Times New Roman,serif" font-size="10.00">tasks</text>
<text text-anchor="middle" x="535.682" y="-94.7692" font-family="Times New Roman,serif" font-size="10.00">lane</text>
</g>
<!-- b5 -->
<g id="node8" class="node"><title>b5</title>
<a xlink:href="../../SDMLib/src/org/sdmlib/replication/BoardTask.java" xlink:title="&lt;TABLE&gt;">
<polygon fill="none" stroke="black" points="476,-38 476,-55 573,-55 573,-38 476,-38"/>
<text text-anchor="start" x="494" y="-44.5" font-family="Times New Roman,serif" font-size="10.00"> </text>
<text text-anchor="start" x="497" y="-44.5" font-family="Times New Roman,serif" font-size="10.00">b5 :BoardTask</text>
</a>
<polygon fill="none" stroke="black" points="476,-4 476,-38 573,-38 573,-4 476,-4"/>
<text text-anchor="start" x="481" y="-26" font-family="Times New Roman,serif" font-size="10.00">name = &quot;startClients&quot;</text>
<text text-anchor="start" x="481" y="-12" font-family="Times New Roman,serif" font-size="10.00">status = &quot;start&quot;</text>
</g>
<!-- l3&#45;&#45;b5 -->
<g id="edge18" class="edge"><title>l3&#45;&#45;b5</title>
<path fill="none" stroke="black" d="M583.472,-96.4944C573.42,-85.4243 561.026,-71.7752 550.158,-59.8074"/>
<text text-anchor="middle" x="559.38" y="-61.176" font-family="Times New Roman,serif" font-size="10.00">tasks</text>
<text text-anchor="middle" x="574.251" y="-90.1258" font-family="Times New Roman,serif" font-size="10.00">lane</text>
</g>
<!-- b15 -->
<g id="node9" class="node"><title>b15</title>
<a xlink:href="../../SDMLib/src/org/sdmlib/replication/BoardTask.java" xlink:title="&lt;TABLE&gt;">
<polygon fill="none" stroke="black" points="607,-38 607,-55 758,-55 758,-38 607,-38"/>
<text text-anchor="start" x="649.5" y="-44.5" font-family="Times New Roman,serif" font-size="10.00"> </text>
<text text-anchor="start" x="652.5" y="-44.5" font-family="Times New Roman,serif" font-size="10.00">b15 :BoardTask</text>
</a>
<polygon fill="none" stroke="black" points="607,-4 607,-38 758,-38 758,-4 607,-4"/>
<text text-anchor="start" x="612" y="-26" font-family="Times New Roman,serif" font-size="10.00">name = &quot;askKarliToStartTheGame&quot;</text>
<text text-anchor="start" x="612" y="-12" font-family="Times New Roman,serif" font-size="10.00">status = &quot;start&quot;</text>
</g>
<!-- l3&#45;&#45;b15 -->
<g id="edge20" class="edge"><title>l3&#45;&#45;b15</title>
<path fill="none" stroke="black" d="M622.528,-96.4944C632.58,-85.4243 644.974,-71.7752 655.842,-59.8074"/>
<text text-anchor="middle" x="652.878" y="-66.8581" font-family="Times New Roman,serif" font-size="10.00">tasks</text>
<text text-anchor="middle" x="625.492" y="-84.4437" font-family="Times New Roman,serif" font-size="10.00">lane</text>
</g>
<!-- b8 -->
<g id="node11" class="node"><title>b8</title>
<a xlink:href="../../SDMLib/src/org/sdmlib/replication/BoardTask.java" xlink:title="&lt;TABLE&gt;">
<polygon fill="none" stroke="black" points="792,-38 792,-55 933,-55 933,-38 792,-38"/>
<text text-anchor="start" x="832" y="-44.5" font-family="Times New Roman,serif" font-size="10.00"> </text>
<text text-anchor="start" x="835" y="-44.5" font-family="Times New Roman,serif" font-size="10.00">b8 :BoardTask</text>
</a>
<polygon fill="none" stroke="black" points="792,-4 792,-38 933,-38 933,-4 792,-4"/>
<text text-anchor="start" x="797" y="-26" font-family="Times New Roman,serif" font-size="10.00">name = &quot;showStartGameButton&quot;</text>
<text text-anchor="start" x="797" y="-12" font-family="Times New Roman,serif" font-size="10.00">status = &quot;start&quot;</text>
</g>
<!-- l7&#45;&#45;b8 -->
<g id="edge22" class="edge"><title>l7&#45;&#45;b8</title>
<path fill="none" stroke="black" d="M862,-96.4944C862,-85.4243 862,-71.7752 862,-59.8074"/>
<text text-anchor="middle" x="866.226" y="-66.3705" font-family="Times New Roman,serif" font-size="10.00">tasks</text>
<text text-anchor="middle" x="857.774" y="-84.9313" font-family="Times New Roman,serif" font-size="10.00">lane</text>
</g>
<!-- b9 -->
<g id="node13" class="node"><title>b9</title>
<a xlink:href="../../SDMLib/src/org/sdmlib/replication/BoardTask.java" xlink:title="&lt;TABLE&gt;">
<polygon fill="none" stroke="black" points="967,-38 967,-55 1108,-55 1108,-38 967,-38"/>
<text text-anchor="start" x="1007" y="-44.5" font-family="Times New Roman,serif" font-size="10.00"> </text>
<text text-anchor="start" x="1010" y="-44.5" font-family="Times New Roman,serif" font-size="10.00">b9 :BoardTask</text>
</a>
<polygon fill="none" stroke="black" points="967,-4 967,-38 1108,-38 1108,-4 967,-4"/>
<text text-anchor="start" x="972" y="-26" font-family="Times New Roman,serif" font-size="10.00">name = &quot;showStartGameButton&quot;</text>
<text text-anchor="start" x="972" y="-12" font-family="Times New Roman,serif" font-size="10.00">status = &quot;start&quot;</text>
</g>
<!-- l1&#45;&#45;b9 -->
<g id="edge24" class="edge"><title>l1&#45;&#45;b9</title>
<path fill="none" stroke="black" d="M1018.18,-96.4944C1021.36,-85.4243 1025.28,-71.7752 1028.72,-59.8074"/>
<text text-anchor="middle" x="1030.28" y="-67.1851" font-family="Times New Roman,serif" font-size="10.00">tasks</text>
<text text-anchor="middle" x="1016.62" y="-84.1166" font-family="Times New Roman,serif" font-size="10.00">lane</text>
</g>
<!-- b16 -->
<g id="node14" class="node"><title>b16</title>
<a xlink:href="../../SDMLib/src/org/sdmlib/replication/BoardTask.java" xlink:title="&lt;TABLE&gt;">
<polygon fill="none" stroke="black" points="1142,-38 1142,-55 1258,-55 1258,-38 1142,-38"/>
<text text-anchor="start" x="1167" y="-44.5" font-family="Times New Roman,serif" font-size="10.00"> </text>
<text text-anchor="start" x="1170" y="-44.5" font-family="Times New Roman,serif" font-size="10.00">b16 :BoardTask</text>
</a>
<polygon fill="none" stroke="black" points="1142,-4 1142,-38 1258,-38 1258,-4 1142,-4"/>
<text text-anchor="start" x="1147" y="-26" font-family="Times New Roman,serif" font-size="10.00">name = &quot;clickStartButton&quot;</text>
<text text-anchor="start" x="1147" y="-12" font-family="Times New Roman,serif" font-size="10.00">status = &quot;start&quot;</text>
</g>
<!-- l1&#45;&#45;b16 -->
<g id="edge26" class="edge"><title>l1&#45;&#45;b16</title>
<path fill="none" stroke="black" d="M1058.47,-96.4944C1082.5,-85.3739 1112.16,-71.6511 1138.1,-59.6443"/>
<text text-anchor="middle" x="1131.65" y="-64.786" font-family="Times New Roman,serif" font-size="10.00">tasks</text>
<text text-anchor="middle" x="1064.92" y="-86.3527" font-family="Times New Roman,serif" font-size="10.00">lane</text>
</g>
</g>
</svg>
