<?xml version="1.0" encoding="UTF-8" standalone="no"?>
<!DOCTYPE svg PUBLIC "-//W3C//DTD SVG 1.1//EN"
 "http://www.w3.org/Graphics/SVG/1.1/DTD/svg11.dtd">
<!-- Generated by graphviz version 2.28.0 (20110507.0327)
 -->
<!-- Title: ObjectDiagram Pages: 1 -->
<svg width="554pt" height="98pt"
 viewBox="0.00 0.00 554.00 98.00" xmlns="http://www.w3.org/2000/svg" xmlns:xlink="http://www.w3.org/1999/xlink">
<g id="graph1" class="graph" transform="scale(1 1) rotate(0) translate(4 94)">
<title>ObjectDiagram</title>
<polygon fill="white" stroke="white" points="-4,5 -4,-94 551,-94 551,5 -4,5"/>
<!-- karliNode -->
<g id="node1" class="node"><title>karliNode</title>
<image xlink:href="icons/node.png" width="83px" height="61px" preserveAspectRatio="xMinYMin meet" x="10" y="-83"/>
<a xlink:href="../../SDMLib/src/org/sdmlib/replication/Node.java" xlink:title="&lt;TABLE&gt;">
<polygon fill="none" stroke="black" points="8,-4 8,-20 95,-20 95,-4 8,-4"/>
<text text-anchor="start" x="14.5" y="-10" font-family="Arial" font-size="10.00"> </text>
<text text-anchor="start" x="18.5" y="-10" font-family="Arial" font-size="10.00">karliNode :Node</text>
</a>
</g>
<!-- c16 -->
<g id="node2" class="node"><title>c16</title>
<image xlink:href="icons/worker.png" width="80px" height="61px" preserveAspectRatio="xMinYMin meet" x="155" y="-83"/>
<a xlink:href="../examples/org/sdmlib/examples/replication/maumau/ClickStartButtonAction.java" xlink:title="&lt;TABLE&gt;">
<polygon fill="none" stroke="black" points="129,-4 129,-20 261,-20 261,-4 129,-4"/>
<text text-anchor="start" x="132.5" y="-10" font-family="Arial" font-size="10.00"> </text>
<text text-anchor="start" x="136.5" y="-10" font-family="Arial" font-size="10.00">c16 :ClickStartButtonAction</text>
</a>
</g>
<!-- l10 -->
<g id="node3" class="node"><title>l10</title>
<a xlink:href="../../SDMLib/src/org/eclipse/swt/widgets/Label.java" xlink:title="&lt;TABLE&gt;">
<polygon fill="none" stroke="black" points="296,-46 296,-63 539,-63 539,-46 296,-46"/>
<text text-anchor="start" x="394" y="-52.5" font-family="Arial" font-size="10.00"> </text>
<text text-anchor="start" x="398" y="-52.5" font-family="Arial" font-size="10.00">l10 :Label</text>
</a>
<polygon fill="none" stroke="black" points="296,-26 296,-46 539,-46 539,-26 296,-26"/>
<text text-anchor="start" x="301" y="-34" font-family="Arial" font-size="10.00">text = &quot;When all players have shown up, Start Game&quot;</text>
</g>
</g>
</svg>
