<?xml version="1.0" encoding="UTF-8" standalone="no"?>
<!DOCTYPE svg PUBLIC "-//W3C//DTD SVG 1.1//EN"
 "http://www.w3.org/Graphics/SVG/1.1/DTD/svg11.dtd">
<!-- Generated by graphviz version 2.28.0 (20110507.0327)
 -->
<!-- Title: ObjectDiagram Pages: 1 -->
<svg width="926pt" height="416pt"
 viewBox="0.00 0.00 926.00 416.00" xmlns="http://www.w3.org/2000/svg" xmlns:xlink="http://www.w3.org/1999/xlink">
<g id="graph1" class="graph" transform="scale(1 1) rotate(0) translate(4 412)">
<title>ObjectDiagram</title>
<polygon fill="white" stroke="white" points="-4,5 -4,-412 923,-412 923,5 -4,5"/>
<!-- karliNode -->
<g id="node1" class="node"><title>karliNode</title>
<image xlink:href="icons/node.png" width="83px" height="61px" preserveAspectRatio="xMinYMin meet" x="10" y="-400"/>
<a xlink:href="../../SDMLib/src/org/sdmlib/replication/Node.java" xlink:title="&lt;TABLE&gt;">
<polygon fill="none" stroke="black" points="8,-321 8,-337 95,-337 95,-321 8,-321"/>
<text text-anchor="start" x="14.5" y="-327" font-family="Arial" font-size="10.00"> </text>
<text text-anchor="start" x="18.5" y="-327" font-family="Arial" font-size="10.00">karliNode :Node</text>
</a>
</g>
<!-- karliInit -->
<g id="node2" class="node"><title>karliInit</title>
<image xlink:href="icons/worker.png" width="80px" height="61px" preserveAspectRatio="xMinYMin meet" x="171.5" y="-400"/>
<a xlink:href="../examples/org/sdmlib/examples/replication/maumau/MultiMauMauClientInitTask.java" xlink:title="&lt;TABLE&gt;">
<polygon fill="none" stroke="black" points="129,-321 129,-337 294,-337 294,-321 129,-321"/>
<text text-anchor="start" x="132.5" y="-327" font-family="Arial" font-size="10.00"> </text>
<text text-anchor="start" x="136.5" y="-327" font-family="Arial" font-size="10.00">karliInit :MultiMauMauClientInitTask</text>
</a>
</g>
<!-- taskboard -->
<g id="node3" class="node"><title>taskboard</title>
<image xlink:href="icons/shared.png" width="70px" height="23px" preserveAspectRatio="xMinYMin meet" x="356.5" y="-381"/>
<a xlink:href="../../SDMLib/src/org/sdmlib/replication/TaskFlowBoard.java" xlink:title="&lt;TABLE&gt;">
<polygon fill="none" stroke="black" points="328,-340 328,-356 455,-356 455,-340 328,-340"/>
<text text-anchor="start" x="331.5" y="-346" font-family="Arial" font-size="10.00"> </text>
<text text-anchor="start" x="335.5" y="-346" font-family="Arial" font-size="10.00">taskboard :TaskFlowBoard</text>
</a>
</g>
<!-- l1 -->
<g id="node4" class="node"><title>l1</title>
<a xlink:href="../../SDMLib/src/org/sdmlib/replication/Lane.java" xlink:title="&lt;TABLE&gt;">
<polygon fill="none" stroke="black" points="343,-224 343,-241 439,-241 439,-224 343,-224"/>
<text text-anchor="start" x="371.5" y="-230.5" font-family="Arial" font-size="10.00"> </text>
<text text-anchor="start" x="375.5" y="-230.5" font-family="Arial" font-size="10.00">l1 :Lane</text>
</a>
<polygon fill="none" stroke="black" points="343,-204 343,-224 439,-224 439,-204 343,-204"/>
<text text-anchor="start" x="348" y="-212" font-family="Arial" font-size="10.00">name = &quot;KarliLane&quot;</text>
</g>
<!-- taskboard&#45;&#45;l1 -->
<g id="edge2" class="edge"><title>taskboard&#45;&#45;l1</title>
<path fill="none" stroke="black" d="M391,-336.19C391,-310.436 391,-270.54 391,-245.913"/>
<text text-anchor="middle" x="395.226" y="-252.476" font-family="Arial" font-size="10.00">lanes</text>
<text text-anchor="middle" x="386.774" y="-324.627" font-family="Arial" font-size="10.00">board</text>
</g>
<!-- karliLaneListener -->
<g id="node5" class="node"><title>karliLaneListener</title>
<image xlink:href="icons/person1.png" width="32px" height="43px" preserveAspectRatio="xMinYMin meet" x="561.5" y="-401"/>
<a xlink:href="../examples/org/sdmlib/examples/replication/maumau/PlayerLaneManager.java" xlink:title="&lt;TABLE&gt;">
<polygon fill="none" stroke="black" points="489,-340 489,-356 666,-356 666,-340 489,-340"/>
<text text-anchor="start" x="492.5" y="-346" font-family="Arial" font-size="10.00"> </text>
<text text-anchor="start" x="496.5" y="-346" font-family="Arial" font-size="10.00">karliLaneListener :PlayerLaneManager</text>
</a>
<polygon fill="none" stroke="black" points="489,-320 489,-340 666,-340 666,-320 489,-320"/>
<text text-anchor="start" x="494" y="-328" font-family="Arial" font-size="10.00">source = &quot;&quot;</text>
</g>
<!-- maumau -->
<g id="node6" class="node"><title>maumau</title>
<image xlink:href="icons/shared.png" width="70px" height="23px" preserveAspectRatio="xMinYMin meet" x="728.5" y="-273"/>
<a xlink:href="../examples/org/sdmlib/examples/replication/maumau/MauMau.java" xlink:title="&lt;TABLE&gt;">
<polygon fill="none" stroke="black" points="717,-232 717,-248 810,-248 810,-232 717,-232"/>
<text text-anchor="start" x="720.5" y="-238" font-family="Arial" font-size="10.00"> </text>
<text text-anchor="start" x="724.5" y="-238" font-family="Arial" font-size="10.00">maumau :MauMau</text>
</a>
<polygon fill="none" stroke="black" points="717,-170 717,-232 810,-232 810,-170 717,-170"/>
<text text-anchor="start" x="722" y="-220" font-family="Arial" font-size="10.00">deck = &quot;&quot;</text>
<text text-anchor="start" x="722" y="-206" font-family="Arial" font-size="10.00">stack = &quot;&quot;</text>
<text text-anchor="start" x="722" y="-192" font-family="Arial" font-size="10.00">currentMove = &quot;&quot;</text>
<text text-anchor="start" x="722" y="-178" font-family="Arial" font-size="10.00">duty = &quot;&quot;</text>
</g>
<!-- karli -->
<g id="node7" class="node"><title>karli</title>
<a xlink:href="../examples/org/sdmlib/examples/replication/maumau/Player.java" xlink:title="&lt;TABLE&gt;">
<polygon fill="none" stroke="black" points="763,-108 763,-125 846,-125 846,-108 763,-108"/>
<text text-anchor="start" x="776.5" y="-114.5" font-family="Arial" font-size="10.00"> </text>
<text text-anchor="start" x="780.5" y="-114.5" font-family="Arial" font-size="10.00">karli :Player</text>
</a>
<polygon fill="none" stroke="black" points="763,-4 763,-108 846,-108 846,-4 763,-4"/>
<text text-anchor="start" x="768" y="-96" font-family="Arial" font-size="10.00">name = &quot;Karli&quot;</text>
<text text-anchor="start" x="768" y="-82" font-family="Arial" font-size="10.00">deckOwner = &quot;&quot;</text>
<text text-anchor="start" x="768" y="-68" font-family="Arial" font-size="10.00">stackOwner = &quot;&quot;</text>
<text text-anchor="start" x="768" y="-54" font-family="Arial" font-size="10.00">next = &quot;&quot;</text>
<text text-anchor="start" x="768" y="-40" font-family="Arial" font-size="10.00">prev = &quot;&quot;</text>
<text text-anchor="start" x="768" y="-26" font-family="Arial" font-size="10.00">assignment = &quot;&quot;</text>
<text text-anchor="start" x="768" y="-12" font-family="Arial" font-size="10.00">duty = &quot;&quot;</text>
</g>
<!-- maumau&#45;&#45;karli -->
<g id="edge4" class="edge"><title>maumau&#45;&#45;karli</title>
<path fill="none" stroke="black" d="M777.686,-166.121C780.788,-154.318 784.084,-141.779 787.255,-129.712"/>
<text text-anchor="middle" x="789.039" y="-137.052" font-family="Arial" font-size="10.00">players</text>
<text text-anchor="middle" x="775.902" y="-153.781" font-family="Arial" font-size="10.00">game</text>
</g>
<!-- abuMauMauController -->
<g id="node8" class="node"><title>abuMauMauController</title>
<image xlink:href="icons/person1.png" width="32px" height="43px" preserveAspectRatio="xMinYMin meet" x="789" y="-391"/>
<a xlink:href="../examples/org/sdmlib/examples/replication/maumau/MultiMauMauControler.java" xlink:title="&lt;TABLE&gt;">
<polygon fill="none" stroke="black" points="700,-330 700,-346 910,-346 910,-330 700,-330"/>
<text text-anchor="start" x="703.5" y="-336" font-family="Arial" font-size="10.00"> </text>
<text text-anchor="start" x="707.5" y="-336" font-family="Arial" font-size="10.00">abuMauMauController :MultiMauMauControler</text>
</a>
</g>
<!-- abuMauMauController&#45;&#45;maumau -->
<g id="edge6" class="edge"><title>abuMauMauController&#45;&#45;maumau</title>
<path fill="none" stroke="black" d="M794.402,-326.429C790.052,-312.24 784.905,-295.453 780.051,-279.618"/>
<text text-anchor="middle" x="786.748" y="-284.545" font-family="Arial" font-size="10.00">mauMau</text>
</g>
<!-- abuMauMauController&#45;&#45;karli -->
<g id="edge8" class="edge"><title>abuMauMauController&#45;&#45;karli</title>
<path fill="none" stroke="black" d="M816.062,-326.293C820.042,-312.1 824.034,-295.419 826,-280 832.409,-229.74 831.475,-216.37 826,-166 824.713,-154.16 822.593,-141.667 820.163,-129.675"/>
<text text-anchor="middle" x="826.078" y="-135.239" font-family="Arial" font-size="10.00">activePlayer</text>
</g>
</g>
</svg>
