<?xml version="1.0" encoding="UTF-8" standalone="no"?>
<!DOCTYPE svg PUBLIC "-//W3C//DTD SVG 1.1//EN"
 "http://www.w3.org/Graphics/SVG/1.1/DTD/svg11.dtd">
<!-- Generated by graphviz version 2.28.0 (20110507.0327)
 -->
<!-- Title: ObjectDiagram Pages: 1 -->
<svg width="888pt" height="454pt"
 viewBox="0.00 0.00 887.57 454.00" xmlns="http://www.w3.org/2000/svg" xmlns:xlink="http://www.w3.org/1999/xlink">
<g id="graph1" class="graph" transform="scale(1 1) rotate(0) translate(4 450)">
<title>ObjectDiagram</title>
<polygon fill="white" stroke="white" points="-4,5 -4,-450 884.574,-450 884.574,5 -4,5"/>
<!-- karliNode -->
<g id="node1" class="node"><title>karliNode</title>
<image xlink:href="icons/node.png" width="83px" height="61px" preserveAspectRatio="xMinYMin meet" x="67.5742" y="-439"/>
<a xlink:href="../../SDMLib/src/org/sdmlib/replication/Node.java" xlink:title="&lt;TABLE&gt;">
<polygon fill="none" stroke="black" points="65.5742,-360 65.5742,-376 152.574,-376 152.574,-360 65.5742,-360"/>
<text text-anchor="start" x="75.0742" y="-366" font-family="Times New Roman,serif" font-size="10.00"> </text>
<text text-anchor="start" x="78.0742" y="-366" font-family="Times New Roman,serif" font-size="10.00">karliNode :Node</text>
</a>
</g>
<!-- k59 -->
<g id="node2" class="node"><title>k59</title>
<image xlink:href="icons/worker.png" width="80px" height="61px" preserveAspectRatio="xMinYMin meet" x="206.074" y="-439"/>
<a xlink:href="../examples/org/sdmlib/examples/replication/maumau/KarliDrawCardsAction.java" xlink:title="&lt;TABLE&gt;">
<polygon fill="none" stroke="black" points="186.574,-360 186.574,-376 305.574,-376 305.574,-360 186.574,-360"/>
<text text-anchor="start" x="190.074" y="-366" font-family="Times New Roman,serif" font-size="10.00"> </text>
<text text-anchor="start" x="193.074" y="-366" font-family="Times New Roman,serif" font-size="10.00">k59 :KarliDrawCardsAction</text>
</a>
</g>
<!-- maumau -->
<g id="node3" class="node"><title>maumau</title>
<image xlink:href="icons/shared.png" width="70px" height="23px" preserveAspectRatio="xMinYMin meet" x="347.574" y="-420"/>
<a xlink:href="../examples/org/sdmlib/examples/replication/maumau/MauMau.java" xlink:title="&lt;TABLE&gt;">
<polygon fill="none" stroke="black" points="339.574,-379 339.574,-395 425.574,-395 425.574,-379 339.574,-379"/>
<text text-anchor="start" x="343.074" y="-385" font-family="Times New Roman,serif" font-size="10.00"> </text>
<text text-anchor="start" x="346.074" y="-385" font-family="Times New Roman,serif" font-size="10.00">maumau :MauMau</text>
</a>
</g>
<!-- c24 -->
<g id="node4" class="node"><title>c24</title>
<a xlink:href="../examples/org/sdmlib/examples/replication/maumau/Card.java" xlink:title="&lt;TABLE&gt;">
<polygon fill="none" stroke="black" points="348.574,-298 348.574,-315 417.574,-315 417.574,-298 348.574,-298"/>
<text text-anchor="start" x="363.074" y="-304.5" font-family="Times New Roman,serif" font-size="10.00"> </text>
<text text-anchor="start" x="366.074" y="-304.5" font-family="Times New Roman,serif" font-size="10.00">c24 :Card</text>
</a>
<polygon fill="none" stroke="black" points="348.574,-264 348.574,-298 417.574,-298 417.574,-264 348.574,-264"/>
<text text-anchor="start" x="353.574" y="-286" font-family="Times New Roman,serif" font-size="10.00">suit = &quot;Clubs&quot;</text>
<text text-anchor="start" x="353.574" y="-272" font-family="Times New Roman,serif" font-size="10.00">value = &quot;10&quot;</text>
</g>
<!-- maumau&#45;&#45;c24 -->
<g id="edge2" class="edge"><title>maumau&#45;&#45;c24</title>
<path fill="none" stroke="black" d="M382.574,-375.266C382.574,-358.81 382.574,-337.13 382.574,-319.881"/>
<text text-anchor="middle" x="386.8" y="-326.444" font-family="Times New Roman,serif" font-size="10.00">cards</text>
<text text-anchor="middle" x="378.348" y="-363.703" font-family="Times New Roman,serif" font-size="10.00">game</text>
</g>
<!-- karli -->
<g id="node5" class="node"><title>karli</title>
<a xlink:href="../examples/org/sdmlib/examples/replication/maumau/Player.java" xlink:title="&lt;TABLE&gt;">
<polygon fill="none" stroke="black" points="345.574,-202 345.574,-219 415.574,-219 415.574,-202 345.574,-202"/>
<text text-anchor="start" x="356.074" y="-208.5" font-family="Times New Roman,serif" font-size="10.00"> </text>
<text text-anchor="start" x="359.074" y="-208.5" font-family="Times New Roman,serif" font-size="10.00">karli :Player</text>
</a>
<polygon fill="none" stroke="black" points="345.574,-182 345.574,-202 415.574,-202 415.574,-182 345.574,-182"/>
<text text-anchor="start" x="350.574" y="-190" font-family="Times New Roman,serif" font-size="10.00">name = &quot;Karli&quot;</text>
</g>
<!-- maumau&#45;&#45;karli -->
<g id="edge18" class="edge"><title>maumau&#45;&#45;karli</title>
<path fill="none" stroke="black" d="M361.094,-375.247C349.601,-360.329 336.601,-340.329 330.574,-320 322.995,-294.433 321.287,-284.997 330.574,-260 335.667,-246.292 345.615,-233.655 355.305,-223.701"/>
<text text-anchor="middle" x="352.131" y="-230.683" font-family="Times New Roman,serif" font-size="10.00">players_currentMove</text>
<text text-anchor="middle" x="352.264" y="-368.053" font-family="Times New Roman,serif" font-size="10.00">game_assignment</text>
</g>
<!-- c31 -->
<g id="node6" class="node"><title>c31</title>
<a xlink:href="../examples/org/sdmlib/examples/replication/maumau/Card.java" xlink:title="&lt;TABLE&gt;">
<polygon fill="none" stroke="black" points="637.574,-120 637.574,-137 712.574,-137 712.574,-120 637.574,-120"/>
<text text-anchor="start" x="655.074" y="-126.5" font-family="Times New Roman,serif" font-size="10.00"> </text>
<text text-anchor="start" x="658.074" y="-126.5" font-family="Times New Roman,serif" font-size="10.00">c31 :Card</text>
</a>
<polygon fill="none" stroke="black" points="637.574,-86 637.574,-120 712.574,-120 712.574,-86 637.574,-86"/>
<text text-anchor="start" x="642.574" y="-108" font-family="Times New Roman,serif" font-size="10.00">suit = &quot;Spades&quot;</text>
<text text-anchor="start" x="642.574" y="-94" font-family="Times New Roman,serif" font-size="10.00">value = &quot;9&quot;</text>
</g>
<!-- maumau&#45;&#45;c31 -->
<g id="edge4" class="edge"><title>maumau&#45;&#45;c31</title>
<path fill="none" stroke="black" d="M419.327,-375.241C439.419,-360.62 463.935,-340.913 482.574,-320 532.131,-264.396 518.988,-230.748 571.574,-178 580.979,-168.566 606.078,-152.672 629.143,-138.963"/>
<text text-anchor="middle" x="623.539" y="-144.745" font-family="Times New Roman,serif" font-size="10.00">cards</text>
<text text-anchor="middle" x="424.113" y="-363.961" font-family="Times New Roman,serif" font-size="10.00">game</text>
</g>
<!-- c52 -->
<g id="node7" class="node"><title>c52</title>
<a xlink:href="../examples/org/sdmlib/examples/replication/maumau/Card.java" xlink:title="&lt;TABLE&gt;">
<polygon fill="none" stroke="black" points="42.5742,-120 42.5742,-137 128.574,-137 128.574,-120 42.5742,-120"/>
<text text-anchor="start" x="65.5742" y="-126.5" font-family="Times New Roman,serif" font-size="10.00"> </text>
<text text-anchor="start" x="68.5742" y="-126.5" font-family="Times New Roman,serif" font-size="10.00">c52 :Card</text>
</a>
<polygon fill="none" stroke="black" points="42.5742,-86 42.5742,-120 128.574,-120 128.574,-86 42.5742,-86"/>
<text text-anchor="start" x="47.5742" y="-108" font-family="Times New Roman,serif" font-size="10.00">suit = &quot;Diamonds&quot;</text>
<text text-anchor="start" x="47.5742" y="-94" font-family="Times New Roman,serif" font-size="10.00">value = &quot;Ace&quot;</text>
</g>
<!-- maumau&#45;&#45;c52 -->
<g id="edge12" class="edge"><title>maumau&#45;&#45;c52</title>
<path fill="none" stroke="black" d="M349.34,-375.323C340.419,-368.893 330.711,-362.069 321.574,-356 295.987,-339.002 285.957,-339.921 262.574,-320 197.426,-264.499 135.921,-184.002 105.474,-141.599"/>
<text text-anchor="middle" x="114.223" y="-143.943" font-family="Times New Roman,serif" font-size="10.00">cards</text>
<text text-anchor="middle" x="339.514" y="-370.965" font-family="Times New Roman,serif" font-size="10.00">game</text>
</g>
<!-- c43 -->
<g id="node8" class="node"><title>c43</title>
<a xlink:href="../examples/org/sdmlib/examples/replication/maumau/Card.java" xlink:title="&lt;TABLE&gt;">
<polygon fill="none" stroke="black" points="162.574,-120 162.574,-137 234.574,-137 234.574,-120 162.574,-120"/>
<text text-anchor="start" x="178.574" y="-126.5" font-family="Times New Roman,serif" font-size="10.00"> </text>
<text text-anchor="start" x="181.574" y="-126.5" font-family="Times New Roman,serif" font-size="10.00">c43 :Card</text>
</a>
<polygon fill="none" stroke="black" points="162.574,-86 162.574,-120 234.574,-120 234.574,-86 162.574,-86"/>
<text text-anchor="start" x="167.574" y="-108" font-family="Times New Roman,serif" font-size="10.00">suit = &quot;Hearts&quot;</text>
<text text-anchor="start" x="167.574" y="-94" font-family="Times New Roman,serif" font-size="10.00">value = &quot;King&quot;</text>
</g>
<!-- maumau&#45;&#45;c43 -->
<g id="edge8" class="edge"><title>maumau&#45;&#45;c43</title>
<path fill="none" stroke="black" d="M353.614,-375.286C337.294,-360.382 317.294,-340.382 302.574,-320 260.306,-261.476 226.182,-183.253 209.562,-141.728"/>
<text text-anchor="middle" x="216.895" y="-146.027" font-family="Times New Roman,serif" font-size="10.00">cards</text>
<text text-anchor="middle" x="344.09" y="-369.738" font-family="Times New Roman,serif" font-size="10.00">game</text>
</g>
<!-- c35 -->
<g id="node9" class="node"><title>c35</title>
<a xlink:href="../examples/org/sdmlib/examples/replication/maumau/Card.java" xlink:title="&lt;TABLE&gt;">
<polygon fill="none" stroke="black" points="269.574,-120 269.574,-137 344.574,-137 344.574,-120 269.574,-120"/>
<text text-anchor="start" x="287.074" y="-126.5" font-family="Times New Roman,serif" font-size="10.00"> </text>
<text text-anchor="start" x="290.074" y="-126.5" font-family="Times New Roman,serif" font-size="10.00">c35 :Card</text>
</a>
<polygon fill="none" stroke="black" points="269.574,-86 269.574,-120 344.574,-120 344.574,-86 269.574,-86"/>
<text text-anchor="start" x="274.574" y="-108" font-family="Times New Roman,serif" font-size="10.00">suit = &quot;Spades&quot;</text>
<text text-anchor="start" x="274.574" y="-94" font-family="Times New Roman,serif" font-size="10.00">value = &quot;King&quot;</text>
</g>
<!-- maumau&#45;&#45;c35 -->
<g id="edge6" class="edge"><title>maumau&#45;&#45;c35</title>
<path fill="none" stroke="black" d="M357.254,-375.42C343.828,-360.71 328.507,-340.858 320.574,-320 297.655,-259.736 299.942,-182.544 303.392,-141.56"/>
<text text-anchor="middle" x="306.945" y="-148.407" font-family="Times New Roman,serif" font-size="10.00">cards</text>
<text text-anchor="middle" x="348.065" y="-368.976" font-family="Times New Roman,serif" font-size="10.00">game</text>
</g>
<!-- p12 -->
<g id="node10" class="node"><title>p12</title>
<a xlink:href="../examples/org/sdmlib/examples/replication/maumau/Player.java" xlink:title="&lt;TABLE&gt;">
<polygon fill="none" stroke="black" points="524.574,-113 524.574,-130 602.574,-130 602.574,-113 524.574,-113"/>
<text text-anchor="start" x="540.074" y="-119.5" font-family="Times New Roman,serif" font-size="10.00"> </text>
<text text-anchor="start" x="543.074" y="-119.5" font-family="Times New Roman,serif" font-size="10.00">p12 :Player</text>
</a>
<polygon fill="none" stroke="black" points="524.574,-93 524.574,-113 602.574,-113 602.574,-93 524.574,-93"/>
<text text-anchor="start" x="529.574" y="-101" font-family="Times New Roman,serif" font-size="10.00">name = &quot;Sabine&quot;</text>
</g>
<!-- maumau&#45;&#45;p12 -->
<g id="edge20" class="edge"><title>maumau&#45;&#45;p12</title>
<path fill="none" stroke="black" d="M408.559,-375.459C423.401,-360.458 441.581,-340.303 454.574,-320 491.599,-262.145 481.39,-237.578 515.574,-178 524.301,-162.791 535.95,-146.937 545.586,-134.694"/>
<text text-anchor="middle" x="543.344" y="-141.94" font-family="Times New Roman,serif" font-size="10.00">players</text>
<text text-anchor="middle" x="411.871" y="-363.523" font-family="Times New Roman,serif" font-size="10.00">game</text>
</g>
<!-- p5 -->
<g id="node11" class="node"><title>p5</title>
<a xlink:href="../examples/org/sdmlib/examples/replication/maumau/Player.java" xlink:title="&lt;TABLE&gt;">
<polygon fill="none" stroke="black" points="346.574,-24 346.574,-41 415.574,-41 415.574,-24 346.574,-24"/>
<text text-anchor="start" x="359.574" y="-30.5" font-family="Times New Roman,serif" font-size="10.00"> </text>
<text text-anchor="start" x="362.574" y="-30.5" font-family="Times New Roman,serif" font-size="10.00">p5 :Player</text>
</a>
<polygon fill="none" stroke="black" points="346.574,-4 346.574,-24 415.574,-24 415.574,-4 346.574,-4"/>
<text text-anchor="start" x="351.574" y="-12" font-family="Times New Roman,serif" font-size="10.00">name = &quot;Abu&quot;</text>
</g>
<!-- maumau&#45;&#45;p5 -->
<g id="edge16" class="edge"><title>maumau&#45;&#45;p5</title>
<path fill="none" stroke="black" d="M352.841,-375.446C343.287,-368.429 332.372,-361.266 321.574,-356 269.994,-330.847 246.72,-349.63 197.574,-320 85.8065,-252.616 -58.9429,-181.446 25.5742,-82 65.2577,-35.3069 252.724,-26.1185 338.071,-24.373"/>
<text text-anchor="middle" x="329.127" y="-26.3453" font-family="Times New Roman,serif" font-size="10.00">players</text>
<text text-anchor="middle" x="343.023" y="-371.046" font-family="Times New Roman,serif" font-size="10.00">game</text>
</g>
<!-- d57 -->
<g id="node12" class="node"><title>d57</title>
<a xlink:href="../examples/org/sdmlib/examples/replication/maumau/Duty.java" xlink:title="&lt;TABLE&gt;">
<polygon fill="none" stroke="black" points="417.574,-120 417.574,-137 490.574,-137 490.574,-120 417.574,-120"/>
<text text-anchor="start" x="432.574" y="-126.5" font-family="Times New Roman,serif" font-size="10.00"> </text>
<text text-anchor="start" x="435.574" y="-126.5" font-family="Times New Roman,serif" font-size="10.00">d57 :Duty</text>
</a>
<polygon fill="none" stroke="black" points="417.574,-86 417.574,-120 490.574,-120 490.574,-86 417.574,-86"/>
<text text-anchor="start" x="422.574" y="-108" font-family="Times New Roman,serif" font-size="10.00">kind = &quot;Draw2&quot;</text>
<text text-anchor="start" x="422.574" y="-94" font-family="Times New Roman,serif" font-size="10.00">number = 2</text>
</g>
<!-- maumau&#45;&#45;d57 -->
<g id="edge22" class="edge"><title>maumau&#45;&#45;d57</title>
<path fill="none" stroke="black" d="M402.663,-375.3C413.754,-360.245 426.65,-340.088 433.574,-320 454.575,-259.071 456.013,-182.47 454.959,-141.675"/>
<text text-anchor="middle" x="459.338" y="-148.165" font-family="Times New Roman,serif" font-size="10.00">duty</text>
<text text-anchor="middle" x="404.55" y="-362.98" font-family="Times New Roman,serif" font-size="10.00">game</text>
</g>
<!-- c44 -->
<g id="node13" class="node"><title>c44</title>
<a xlink:href="../examples/org/sdmlib/examples/replication/maumau/Card.java" xlink:title="&lt;TABLE&gt;">
<polygon fill="none" stroke="black" points="603.574,-298 603.574,-315 675.574,-315 675.574,-298 603.574,-298"/>
<text text-anchor="start" x="619.574" y="-304.5" font-family="Times New Roman,serif" font-size="10.00"> </text>
<text text-anchor="start" x="622.574" y="-304.5" font-family="Times New Roman,serif" font-size="10.00">c44 :Card</text>
</a>
<polygon fill="none" stroke="black" points="603.574,-264 603.574,-298 675.574,-298 675.574,-264 603.574,-264"/>
<text text-anchor="start" x="608.574" y="-286" font-family="Times New Roman,serif" font-size="10.00">suit = &quot;Hearts&quot;</text>
<text text-anchor="start" x="608.574" y="-272" font-family="Times New Roman,serif" font-size="10.00">value = &quot;Ace&quot;</text>
</g>
<!-- maumau&#45;&#45;c44 -->
<g id="edge10" class="edge"><title>maumau&#45;&#45;c44</title>
<path fill="none" stroke="black" d="M433.766,-380.741C474.246,-365.196 532,-342.314 581.574,-320 586.091,-317.967 590.769,-315.776 595.419,-313.541"/>
<text text-anchor="middle" x="589.073" y="-318.77" font-family="Times New Roman,serif" font-size="10.00">cards</text>
<text text-anchor="middle" x="440.7" y="-371.036" font-family="Times New Roman,serif" font-size="10.00">game</text>
</g>
<!-- h19 -->
<g id="node14" class="node"><title>h19</title>
<a xlink:href="../examples/org/sdmlib/examples/replication/maumau/Holder.java" xlink:title="&lt;TABLE&gt;">
<polygon fill="none" stroke="black" points="588.574,-192 588.574,-209 644.574,-209 644.574,-192 588.574,-192"/>
<text text-anchor="start" x="592.074" y="-198.5" font-family="Times New Roman,serif" font-size="10.00"> </text>
<text text-anchor="start" x="595.074" y="-198.5" font-family="Times New Roman,serif" font-size="10.00">h19 :Holder</text>
</a>
</g>
<!-- maumau&#45;&#45;h19 -->
<g id="edge14" class="edge"><title>maumau&#45;&#45;h19</title>
<path fill="none" stroke="black" d="M433.738,-383.025C467.76,-369.839 511.852,-348.905 543.574,-320 560.312,-304.749 591.836,-248.26 607.401,-219.326"/>
<text text-anchor="middle" x="606.796" y="-226.807" font-family="Times New Roman,serif" font-size="10.00">deck</text>
<text text-anchor="middle" x="440.587" y="-373.239" font-family="Times New Roman,serif" font-size="10.00">deckOwner</text>
</g>
<!-- c24&#45;&#45;karli -->
<g id="edge24" class="edge"><title>c24&#45;&#45;karli</title>
<path fill="none" stroke="black" d="M381.908,-260.03C381.636,-248.167 381.325,-234.675 381.073,-223.687"/>
<text text-anchor="middle" x="385.506" y="-230.151" font-family="Times New Roman,serif" font-size="10.00">holder</text>
<text text-anchor="middle" x="377.475" y="-248.567" font-family="Times New Roman,serif" font-size="10.00">cards</text>
</g>
<!-- karli&#45;&#45;c31 -->
<g id="edge26" class="edge"><title>karli&#45;&#45;c31</title>
<path fill="none" stroke="black" d="M423.842,-192.833C472.469,-184.02 553.281,-167.078 619.574,-142 622.704,-140.816 625.882,-139.494 629.052,-138.083"/>
<text text-anchor="middle" x="622.471" y="-143.113" font-family="Times New Roman,serif" font-size="10.00">cards</text>
<text text-anchor="middle" x="431.978" y="-184.519" font-family="Times New Roman,serif" font-size="10.00">holder</text>
</g>
<!-- karli&#45;&#45;c52 -->
<g id="edge28" class="edge"><title>karli&#45;&#45;c52</title>
<path fill="none" stroke="black" d="M337.328,-192.14C289.57,-182.817 210.8,-165.521 145.574,-142 142.636,-140.94 139.65,-139.782 136.659,-138.556"/>
<text text-anchor="middle" x="146.646" y="-135.562" font-family="Times New Roman,serif" font-size="10.00">cards</text>
<text text-anchor="middle" x="327.613" y="-192.012" font-family="Times New Roman,serif" font-size="10.00">holder</text>
</g>
<!-- karli&#45;&#45;c43 -->
<g id="edge30" class="edge"><title>karli&#45;&#45;c43</title>
<path fill="none" stroke="black" d="M337.475,-181.628C312.218,-170.612 279.826,-156.053 251.574,-142 248.663,-140.552 245.68,-139.029 242.684,-137.471"/>
<text text-anchor="middle" x="252.675" y="-135.396" font-family="Times New Roman,serif" font-size="10.00">cards</text>
<text text-anchor="middle" x="327.478" y="-179.364" font-family="Times New Roman,serif" font-size="10.00">holder</text>
</g>
<!-- karli&#45;&#45;c35 -->
<g id="edge32" class="edge"><title>karli&#45;&#45;c35</title>
<path fill="none" stroke="black" d="M362.282,-178.494C352.866,-167.424 341.257,-153.775 331.077,-141.807"/>
<text text-anchor="middle" x="340.168" y="-143.473" font-family="Times New Roman,serif" font-size="10.00">cards</text>
<text text-anchor="middle" x="353.191" y="-171.829" font-family="Times New Roman,serif" font-size="10.00">holder</text>
</g>
<!-- karli&#45;&#45;p12 -->
<g id="edge34" class="edge"><title>karli&#45;&#45;p12</title>
<path fill="none" stroke="black" d="M423.634,-180.684C448.07,-169.596 479.158,-155.278 506.574,-142 511.471,-139.629 516.581,-137.103 521.644,-134.568"/>
<text text-anchor="middle" x="515.427" y="-139.901" font-family="Times New Roman,serif" font-size="10.00">next</text>
<text text-anchor="middle" x="430.136" y="-170.585" font-family="Times New Roman,serif" font-size="10.00">prev</text>
</g>
<!-- karli&#45;&#45;p5 -->
<g id="edge36" class="edge"><title>karli&#45;&#45;p5</title>
<path fill="none" stroke="black" d="M380.574,-178.419C380.574,-144.64 380.574,-79.6451 380.574,-45.7576"/>
<text text-anchor="middle" x="384.8" y="-52.3207" font-family="Times New Roman,serif" font-size="10.00">prev</text>
<text text-anchor="middle" x="376.348" y="-166.856" font-family="Times New Roman,serif" font-size="10.00">next</text>
</g>
<!-- karli&#45;&#45;d57 -->
<g id="edge38" class="edge"><title>karli&#45;&#45;d57</title>
<path fill="none" stroke="black" d="M398.619,-178.494C407.908,-167.424 419.361,-153.775 429.403,-141.807"/>
<text text-anchor="middle" x="426.814" y="-148.967" font-family="Times New Roman,serif" font-size="10.00">duty</text>
<text text-anchor="middle" x="401.207" y="-166.335" font-family="Times New Roman,serif" font-size="10.00">player</text>
</g>
<!-- p12&#45;&#45;p5 -->
<g id="edge40" class="edge"><title>p12&#45;&#45;p5</title>
<path fill="none" stroke="black" d="M521.644,-89.4321C516.581,-86.8975 511.471,-84.3714 506.574,-82 478.941,-68.6168 447.579,-54.1775 423.056,-43.0539"/>
<text text-anchor="middle" x="433.056" y="-40.4566" font-family="Times New Roman,serif" font-size="10.00">next</text>
<text text-anchor="middle" x="511.648" y="-86.6591" font-family="Times New Roman,serif" font-size="10.00">prev</text>
</g>
<!-- c44&#45;&#45;h19 -->
<g id="edge42" class="edge"><title>c44&#45;&#45;h19</title>
<path fill="none" stroke="black" d="M631.916,-260.03C628.335,-246.486 624.193,-230.819 621.116,-219.18"/>
<text text-anchor="middle" x="627.518" y="-224.362" font-family="Times New Roman,serif" font-size="10.00">holder</text>
<text text-anchor="middle" x="625.513" y="-249.848" font-family="Times New Roman,serif" font-size="10.00">cards</text>
</g>
<!-- topCardOnDeckControler -->
<g id="node15" class="node"><title>topCardOnDeckControler</title>
<image xlink:href="icons/person1.png" width="32px" height="43px" preserveAspectRatio="xMinYMin meet" x="734.074" y="-430"/>
<a xlink:href="../examples/org/sdmlib/examples/replication/maumau/CardControler.java" xlink:title="&lt;TABLE&gt;">
<polygon fill="none" stroke="black" points="663.574,-369 663.574,-385 836.574,-385 836.574,-369 663.574,-369"/>
<text text-anchor="start" x="667.074" y="-375" font-family="Times New Roman,serif" font-size="10.00"> </text>
<text text-anchor="start" x="670.074" y="-375" font-family="Times New Roman,serif" font-size="10.00">topCardOnDeckControler :CardControler</text>
</a>
</g>
<!-- topCardOnDeckControler&#45;&#45;c44 -->
<g id="edge44" class="edge"><title>topCardOnDeckControler&#45;&#45;c44</title>
<path fill="none" stroke="black" d="M714.467,-365.212C699.628,-350.508 682.557,-333.592 668.464,-319.627"/>
<text text-anchor="middle" x="677.877" y="-320.505" font-family="Times New Roman,serif" font-size="10.00">card</text>
</g>
<!-- l62 -->
<g id="node16" class="node"><title>l62</title>
<a xlink:href="../../SDMLib/src/org/eclipse/swt/widgets/Label.java" xlink:title="&lt;TABLE&gt;">
<polygon fill="none" stroke="black" points="823.574,-291 823.574,-308 871.574,-308 871.574,-291 823.574,-291"/>
<text text-anchor="start" x="827.074" y="-297.5" font-family="Times New Roman,serif" font-size="10.00"> </text>
<text text-anchor="start" x="830.074" y="-297.5" font-family="Times New Roman,serif" font-size="10.00">l62 :Label</text>
</a>
<polygon fill="none" stroke="black" points="823.574,-271 823.574,-291 871.574,-291 871.574,-271 823.574,-271"/>
<text text-anchor="start" x="828.574" y="-279" font-family="Times New Roman,serif" font-size="10.00">text = &quot; &quot;</text>
</g>
<!-- topCardOnDeckControler&#45;&#45;l62 -->
<g id="edge46" class="edge"><title>topCardOnDeckControler&#45;&#45;l62</title>
<path fill="none" stroke="black" d="M780.851,-365.212C796.312,-348.016 814.493,-327.794 827.969,-312.806"/>
<text text-anchor="middle" x="825.052" y="-319.871" font-family="Times New Roman,serif" font-size="10.00">label</text>
</g>
<!-- c63 -->
<g id="node17" class="node"><title>c63</title>
<a xlink:href="../examples/org/sdmlib/examples/replication/maumau/CardListener.java" xlink:title="&lt;TABLE&gt;">
<polygon fill="none" stroke="black" points="709.574,-281 709.574,-298 789.574,-298 789.574,-281 709.574,-281"/>
<text text-anchor="start" x="713.074" y="-287.5" font-family="Times New Roman,serif" font-size="10.00"> </text>
<text text-anchor="start" x="716.074" y="-287.5" font-family="Times New Roman,serif" font-size="10.00">c63 :CardListener</text>
</a>
</g>
<!-- topCardOnDeckControler&#45;&#45;c63 -->
<g id="edge48" class="edge"><title>topCardOnDeckControler&#45;&#45;c63</title>
<path fill="none" stroke="black" d="M749.574,-365.212C749.574,-346.147 749.574,-323.363 749.574,-308.115"/>
<text text-anchor="middle" x="753.8" y="-314.678" font-family="Times New Roman,serif" font-size="10.00">listener</text>
</g>
</g>
</svg>
