<?xml version="1.0" encoding="UTF-8" standalone="no"?>
<!DOCTYPE svg PUBLIC "-//W3C//DTD SVG 1.1//EN"
 "http://www.w3.org/Graphics/SVG/1.1/DTD/svg11.dtd">
<!-- Generated by graphviz version 2.28.0 (20110507.0327)
 -->
<!-- Title: ObjectDiagram Pages: 1 -->
<svg width="403pt" height="98pt"
 viewBox="0.00 0.00 403.00 98.00" xmlns="http://www.w3.org/2000/svg" xmlns:xlink="http://www.w3.org/1999/xlink">
<g id="graph1" class="graph" transform="scale(1 1) rotate(0) translate(4 94)">
<title>ObjectDiagram</title>
<polygon fill="white" stroke="white" points="-4,5 -4,-94 400,-94 400,5 -4,5"/>
<!-- c17 -->
<g id="node1" class="node"><title>c17</title>
<image xlink:href="icons/worker.png" width="80px" height="61px" preserveAspectRatio="xMinYMin meet" x="29" y="-83"/>
<a xlink:href="../examples/org/sdmlib/examples/replication/maumau/ClickStartButtonAction.java" xlink:title="&lt;TABLE&gt;">
<polygon fill="none" stroke="black" points="8,-4 8,-20 130,-20 130,-4 8,-4"/>
<text text-anchor="start" x="11.5" y="-10" font-family="Times New Roman,serif" font-size="10.00"> </text>
<text text-anchor="start" x="14.5" y="-10" font-family="Times New Roman,serif" font-size="10.00">c17 :ClickStartButtonAction</text>
</a>
</g>
<!-- l11 -->
<g id="node2" class="node"><title>l11</title>
<a xlink:href="../../SDMLib/src/org/eclipse/swt/widgets/Label.java" xlink:title="&lt;TABLE&gt;">
<polygon fill="none" stroke="black" points="165,-46 165,-63 388,-63 388,-46 165,-46"/>
<text text-anchor="start" x="256" y="-52.5" font-family="Times New Roman,serif" font-size="10.00"> </text>
<text text-anchor="start" x="259" y="-52.5" font-family="Times New Roman,serif" font-size="10.00">l11 :Label</text>
</a>
<polygon fill="none" stroke="black" points="165,-26 165,-46 388,-46 388,-26 165,-26"/>
<text text-anchor="start" x="170" y="-34" font-family="Times New Roman,serif" font-size="10.00">text = &quot;When all players have shown up, Start Game&quot;</text>
</g>
</g>
</svg>
