<?xml version="1.0" encoding="UTF-8" standalone="no"?>
<!DOCTYPE svg PUBLIC "-//W3C//DTD SVG 1.1//EN"
 "http://www.w3.org/Graphics/SVG/1.1/DTD/svg11.dtd">
<!-- Generated by graphviz version 2.28.0 (20110507.0327)
 -->
<!-- Title: ObjectDiagram Pages: 1 -->
<svg width="1281pt" height="384pt"
 viewBox="0.00 0.00 1281.00 384.00" xmlns="http://www.w3.org/2000/svg" xmlns:xlink="http://www.w3.org/1999/xlink">
<g id="graph1" class="graph" transform="scale(1 1) rotate(0) translate(4 380)">
<title>ObjectDiagram</title>
<polygon fill="white" stroke="white" points="-4,5 -4,-380 1278,-380 1278,5 -4,5"/>
<!-- karliNode -->
<g id="node1" class="node"><title>karliNode</title>
<image xlink:href="icons/node.png" width="83px" height="61px" preserveAspectRatio="xMinYMin meet" x="10" y="-357"/>
<a xlink:href="../../SDMLib/src/org/sdmlib/replication/Node.java" xlink:title="&lt;TABLE&gt;">
<polygon fill="none" stroke="black" points="8,-278 8,-294 95,-294 95,-278 8,-278"/>
<text text-anchor="start" x="14.5" y="-284" font-family="Arial" font-size="10.00"> </text>
<text text-anchor="start" x="18.5" y="-284" font-family="Arial" font-size="10.00">karliNode :Node</text>
</a>
</g>
<!-- s9 -->
<g id="node2" class="node"><title>s9</title>
<image xlink:href="icons/worker.png" width="80px" height="61px" preserveAspectRatio="xMinYMin meet" x="167" y="-357"/>
<a xlink:href="../examples/org/sdmlib/examples/replication/maumau/ShowStartGameButtonAction.java" xlink:title="&lt;TABLE&gt;">
<polygon fill="none" stroke="black" points="129,-278 129,-294 285,-294 285,-278 129,-278"/>
<text text-anchor="start" x="132.5" y="-284" font-family="Arial" font-size="10.00"> </text>
<text text-anchor="start" x="136.5" y="-284" font-family="Arial" font-size="10.00">s9 :ShowStartGameButtonAction</text>
</a>
</g>
<!-- taskboard -->
<g id="node3" class="node"><title>taskboard</title>
<image xlink:href="icons/shared.png" width="70px" height="23px" preserveAspectRatio="xMinYMin meet" x="348.5" y="-338"/>
<a xlink:href="../../SDMLib/src/org/sdmlib/replication/TaskFlowBoard.java" xlink:title="&lt;TABLE&gt;">
<polygon fill="none" stroke="black" points="320,-297 320,-313 447,-313 447,-297 320,-297"/>
<text text-anchor="start" x="323.5" y="-303" font-family="Arial" font-size="10.00"> </text>
<text text-anchor="start" x="327.5" y="-303" font-family="Arial" font-size="10.00">taskboard :TaskFlowBoard</text>
</a>
</g>
<!-- l2 -->
<g id="node4" class="node"><title>l2</title>
<a xlink:href="../../SDMLib/src/org/sdmlib/replication/Lane.java" xlink:title="&lt;TABLE&gt;">
<polygon fill="none" stroke="black" points="157,-162 157,-179 238,-179 238,-162 157,-162"/>
<text text-anchor="start" x="178" y="-168.5" font-family="Arial" font-size="10.00"> </text>
<text text-anchor="start" x="182" y="-168.5" font-family="Arial" font-size="10.00">l2 :Lane</text>
</a>
<polygon fill="none" stroke="black" points="157,-142 157,-162 238,-162 238,-142 157,-142"/>
<text text-anchor="start" x="162" y="-150" font-family="Arial" font-size="10.00">name = &quot;server&quot;</text>
</g>
<!-- taskboard&#45;&#45;l2 -->
<g id="edge2" class="edge"><title>taskboard&#45;&#45;l2</title>
<path fill="none" stroke="black" d="M347.599,-293.361C312.36,-268.737 262.343,-233.487 254,-226 239.493,-212.982 224.907,-196.528 214.122,-183.564"/>
<text text-anchor="middle" x="223.185" y="-185.29" font-family="Arial" font-size="10.00">lanes</text>
<text text-anchor="middle" x="337.75" y="-289.128" font-family="Arial" font-size="10.00">board</text>
</g>
<!-- l4 -->
<g id="node5" class="node"><title>l4</title>
<a xlink:href="../../SDMLib/src/org/sdmlib/replication/Lane.java" xlink:title="&lt;TABLE&gt;">
<polygon fill="none" stroke="black" points="272,-162 272,-179 365,-179 365,-162 272,-162"/>
<text text-anchor="start" x="299" y="-168.5" font-family="Arial" font-size="10.00"> </text>
<text text-anchor="start" x="303" y="-168.5" font-family="Arial" font-size="10.00">l4 :Lane</text>
</a>
<polygon fill="none" stroke="black" points="272,-142 272,-162 365,-162 365,-142 272,-142"/>
<text text-anchor="start" x="277" y="-150" font-family="Arial" font-size="10.00">name = &quot;AbuLane&quot;</text>
</g>
<!-- taskboard&#45;&#45;l4 -->
<g id="edge4" class="edge"><title>taskboard&#45;&#45;l4</title>
<path fill="none" stroke="black" d="M372.701,-293.281C360.1,-263.04 338.971,-212.329 326.995,-183.589"/>
<text text-anchor="middle" x="334.382" y="-187.829" font-family="Arial" font-size="10.00">lanes</text>
<text text-anchor="middle" x="365.314" y="-284.041" font-family="Arial" font-size="10.00">board</text>
</g>
<!-- l1 -->
<g id="node7" class="node"><title>l1</title>
<a xlink:href="../../SDMLib/src/org/sdmlib/replication/Lane.java" xlink:title="&lt;TABLE&gt;">
<polygon fill="none" stroke="black" points="399,-162 399,-179 495,-179 495,-162 399,-162"/>
<text text-anchor="start" x="427.5" y="-168.5" font-family="Arial" font-size="10.00"> </text>
<text text-anchor="start" x="431.5" y="-168.5" font-family="Arial" font-size="10.00">l1 :Lane</text>
</a>
<polygon fill="none" stroke="black" points="399,-142 399,-162 495,-162 495,-142 399,-142"/>
<text text-anchor="start" x="404" y="-150" font-family="Arial" font-size="10.00">name = &quot;KarliLane&quot;</text>
</g>
<!-- taskboard&#45;&#45;l1 -->
<g id="edge6" class="edge"><title>taskboard&#45;&#45;l1</title>
<path fill="none" stroke="black" d="M393.141,-293.281C405.548,-263.04 426.352,-212.329 438.143,-183.589"/>
<text text-anchor="middle" x="438.613" y="-191.078" font-family="Arial" font-size="10.00">lanes</text>
<text text-anchor="middle" x="392.671" y="-280.792" font-family="Arial" font-size="10.00">board</text>
</g>
<!-- l7 -->
<g id="node9" class="node"><title>l7</title>
<a xlink:href="../../SDMLib/src/org/sdmlib/replication/Lane.java" xlink:title="&lt;TABLE&gt;">
<polygon fill="none" stroke="black" points="529,-162 529,-179 635,-179 635,-162 529,-162"/>
<text text-anchor="start" x="562.5" y="-168.5" font-family="Arial" font-size="10.00"> </text>
<text text-anchor="start" x="566.5" y="-168.5" font-family="Arial" font-size="10.00">l7 :Lane</text>
</a>
<polygon fill="none" stroke="black" points="529,-142 529,-162 635,-162 635,-142 529,-142"/>
<text text-anchor="start" x="534" y="-150" font-family="Arial" font-size="10.00">name = &quot;SabineLane&quot;</text>
</g>
<!-- taskboard&#45;&#45;l7 -->
<g id="edge8" class="edge"><title>taskboard&#45;&#45;l7</title>
<path fill="none" stroke="black" d="M420.012,-293.367C446.284,-275.462 482.057,-250.218 512,-226 528.516,-212.642 546.161,-196.495 559.604,-183.762"/>
<text text-anchor="middle" x="555.909" y="-190.555" font-family="Arial" font-size="10.00">lanes</text>
<text text-anchor="middle" x="425.101" y="-282.259" font-family="Arial" font-size="10.00">board</text>
</g>
<!-- b5 -->
<g id="node6" class="node"><title>b5</title>
<a xlink:href="../../SDMLib/src/org/sdmlib/replication/BoardTask.java" xlink:title="&lt;TABLE&gt;">
<polygon fill="none" stroke="black" points="213,-38 213,-55 366,-55 366,-38 213,-38"/>
<text text-anchor="start" x="255.5" y="-44.5" font-family="Arial" font-size="10.00"> </text>
<text text-anchor="start" x="259.5" y="-44.5" font-family="Arial" font-size="10.00">b5 :BoardTask</text>
</a>
<polygon fill="none" stroke="black" points="213,-4 213,-38 366,-38 366,-4 213,-4"/>
<text text-anchor="start" x="218" y="-26" font-family="Arial" font-size="10.00">name = &quot;showStartGameButton&quot;</text>
<text text-anchor="start" x="218" y="-12" font-family="Arial" font-size="10.00">status = &quot;start&quot;</text>
</g>
<!-- l4&#45;&#45;b5 -->
<g id="edge10" class="edge"><title>l4&#45;&#45;b5</title>
<path fill="none" stroke="black" d="M313.146,-138.408C308.309,-116.891 300.85,-83.7134 295.503,-59.9275"/>
<text text-anchor="middle" x="301.614" y="-65.343" font-family="Arial" font-size="10.00">tasks</text>
<text text-anchor="middle" x="307.035" y="-127.993" font-family="Arial" font-size="10.00">lane</text>
</g>
<!-- b8 -->
<g id="node8" class="node"><title>b8</title>
<a xlink:href="../../SDMLib/src/org/sdmlib/replication/BoardTask.java" xlink:title="&lt;TABLE&gt;">
<polygon fill="none" stroke="black" points="400,-38 400,-55 553,-55 553,-38 400,-38"/>
<text text-anchor="start" x="442.5" y="-44.5" font-family="Arial" font-size="10.00"> </text>
<text text-anchor="start" x="446.5" y="-44.5" font-family="Arial" font-size="10.00">b8 :BoardTask</text>
</a>
<polygon fill="none" stroke="black" points="400,-4 400,-38 553,-38 553,-4 400,-4"/>
<text text-anchor="start" x="405" y="-26" font-family="Arial" font-size="10.00">name = &quot;showStartGameButton&quot;</text>
<text text-anchor="start" x="405" y="-12" font-family="Arial" font-size="10.00">status = &quot;start&quot;</text>
</g>
<!-- l1&#45;&#45;b8 -->
<g id="edge12" class="edge"><title>l1&#45;&#45;b8</title>
<path fill="none" stroke="black" d="M451.854,-138.408C456.691,-116.891 464.15,-83.7134 469.497,-59.9275"/>
<text text-anchor="middle" x="471.632" y="-67.1969" font-family="Arial" font-size="10.00">tasks</text>
<text text-anchor="middle" x="449.718" y="-126.139" font-family="Arial" font-size="10.00">lane</text>
</g>
<!-- l10 -->
<g id="node10" class="node"><title>l10</title>
<a xlink:href="../../SDMLib/src/org/eclipse/swt/widgets/Label.java" xlink:title="&lt;TABLE&gt;">
<polygon fill="none" stroke="black" points="670,-162 670,-179 913,-179 913,-162 670,-162"/>
<text text-anchor="start" x="768" y="-168.5" font-family="Arial" font-size="10.00"> </text>
<text text-anchor="start" x="772" y="-168.5" font-family="Arial" font-size="10.00">l10 :Label</text>
</a>
<polygon fill="none" stroke="black" points="670,-142 670,-162 913,-162 913,-142 670,-142"/>
<text text-anchor="start" x="675" y="-150" font-family="Arial" font-size="10.00">text = &quot;When all players have shown up, Start Game&quot;</text>
</g>
<!-- s11 -->
<g id="node11" class="node"><title>s11</title>
<image xlink:href="icons/person1.png" width="32px" height="43px" preserveAspectRatio="xMinYMin meet" x="775" y="-348"/>
<a xlink:href="../examples/org/sdmlib/examples/replication/maumau/StartGameMouseAdapter.java" xlink:title="&lt;TABLE&gt;">
<polygon fill="none" stroke="black" points="719,-287 719,-303 863,-303 863,-287 719,-287"/>
<text text-anchor="start" x="722.5" y="-293" font-family="Arial" font-size="10.00"> </text>
<text text-anchor="start" x="726.5" y="-293" font-family="Arial" font-size="10.00">s11 :StartGameMouseAdapter</text>
</a>
</g>
<!-- s11&#45;&#45;l10 -->
<g id="edge14" class="edge"><title>s11&#45;&#45;l10</title>
<path fill="none" stroke="black" d="M791,-283.379C791,-252.859 791,-209.348 791,-183.558"/>
<text text-anchor="middle" x="795.226" y="-190.121" font-family="Arial" font-size="10.00">startGameLabel</text>
</g>
<!-- maumau -->
<g id="node12" class="node"><title>maumau</title>
<image xlink:href="icons/shared.png" width="70px" height="23px" preserveAspectRatio="xMinYMin meet" x="1070.5" y="-369"/>
<a xlink:href="../examples/org/sdmlib/examples/replication/maumau/MauMau.java" xlink:title="&lt;TABLE&gt;">
<polygon fill="none" stroke="black" points="1059,-328 1059,-344 1152,-344 1152,-328 1059,-328"/>
<text text-anchor="start" x="1062.5" y="-334" font-family="Arial" font-size="10.00"> </text>
<text text-anchor="start" x="1066.5" y="-334" font-family="Arial" font-size="10.00">maumau :MauMau</text>
</a>
<polygon fill="none" stroke="black" points="1059,-266 1059,-328 1152,-328 1152,-266 1059,-266"/>
<text text-anchor="start" x="1064" y="-316" font-family="Arial" font-size="10.00">deck = &quot;&quot;</text>
<text text-anchor="start" x="1064" y="-302" font-family="Arial" font-size="10.00">stack = &quot;&quot;</text>
<text text-anchor="start" x="1064" y="-288" font-family="Arial" font-size="10.00">currentMove = &quot;&quot;</text>
<text text-anchor="start" x="1064" y="-274" font-family="Arial" font-size="10.00">duty = &quot;&quot;</text>
</g>
<!-- p3 -->
<g id="node13" class="node"><title>p3</title>
<a xlink:href="../examples/org/sdmlib/examples/replication/maumau/Player.java" xlink:title="&lt;TABLE&gt;">
<polygon fill="none" stroke="black" points="947,-204 947,-221 1030,-221 1030,-204 947,-204"/>
<text text-anchor="start" x="964" y="-210.5" font-family="Arial" font-size="10.00"> </text>
<text text-anchor="start" x="968" y="-210.5" font-family="Arial" font-size="10.00">p3 :Player</text>
</a>
<polygon fill="none" stroke="black" points="947,-100 947,-204 1030,-204 1030,-100 947,-100"/>
<text text-anchor="start" x="952" y="-192" font-family="Arial" font-size="10.00">name = &quot;Abu&quot;</text>
<text text-anchor="start" x="952" y="-178" font-family="Arial" font-size="10.00">deckOwner = &quot;&quot;</text>
<text text-anchor="start" x="952" y="-164" font-family="Arial" font-size="10.00">stackOwner = &quot;&quot;</text>
<text text-anchor="start" x="952" y="-150" font-family="Arial" font-size="10.00">next = &quot;&quot;</text>
<text text-anchor="start" x="952" y="-136" font-family="Arial" font-size="10.00">prev = &quot;&quot;</text>
<text text-anchor="start" x="952" y="-122" font-family="Arial" font-size="10.00">assignment = &quot;&quot;</text>
<text text-anchor="start" x="952" y="-108" font-family="Arial" font-size="10.00">duty = &quot;&quot;</text>
</g>
<!-- maumau&#45;&#45;p3 -->
<g id="edge16" class="edge"><title>maumau&#45;&#45;p3</title>
<path fill="none" stroke="black" d="M1063.09,-262.121C1054.24,-250.318 1044.83,-237.779 1035.78,-225.712"/>
<text text-anchor="middle" x="1044.6" y="-227.927" font-family="Arial" font-size="10.00">players</text>
<text text-anchor="middle" x="1054.27" y="-254.906" font-family="Arial" font-size="10.00">game</text>
</g>
<!-- karli -->
<g id="node14" class="node"><title>karli</title>
<a xlink:href="../examples/org/sdmlib/examples/replication/maumau/Player.java" xlink:title="&lt;TABLE&gt;">
<polygon fill="none" stroke="black" points="1064,-204 1064,-221 1147,-221 1147,-204 1064,-204"/>
<text text-anchor="start" x="1077.5" y="-210.5" font-family="Arial" font-size="10.00"> </text>
<text text-anchor="start" x="1081.5" y="-210.5" font-family="Arial" font-size="10.00">karli :Player</text>
</a>
<polygon fill="none" stroke="black" points="1064,-100 1064,-204 1147,-204 1147,-100 1064,-100"/>
<text text-anchor="start" x="1069" y="-192" font-family="Arial" font-size="10.00">name = &quot;Karli&quot;</text>
<text text-anchor="start" x="1069" y="-178" font-family="Arial" font-size="10.00">deckOwner = &quot;&quot;</text>
<text text-anchor="start" x="1069" y="-164" font-family="Arial" font-size="10.00">stackOwner = &quot;&quot;</text>
<text text-anchor="start" x="1069" y="-150" font-family="Arial" font-size="10.00">next = &quot;&quot;</text>
<text text-anchor="start" x="1069" y="-136" font-family="Arial" font-size="10.00">prev = &quot;&quot;</text>
<text text-anchor="start" x="1069" y="-122" font-family="Arial" font-size="10.00">assignment = &quot;&quot;</text>
<text text-anchor="start" x="1069" y="-108" font-family="Arial" font-size="10.00">duty = &quot;&quot;</text>
</g>
<!-- maumau&#45;&#45;karli -->
<g id="edge18" class="edge"><title>maumau&#45;&#45;karli</title>
<path fill="none" stroke="black" d="M1105,-262.121C1105,-250.318 1105,-237.779 1105,-225.712"/>
<text text-anchor="middle" x="1109.23" y="-232.275" font-family="Arial" font-size="10.00">players</text>
<text text-anchor="middle" x="1100.77" y="-250.558" font-family="Arial" font-size="10.00">game</text>
</g>
<!-- p6 -->
<g id="node15" class="node"><title>p6</title>
<a xlink:href="../examples/org/sdmlib/examples/replication/maumau/Player.java" xlink:title="&lt;TABLE&gt;">
<polygon fill="none" stroke="black" points="1181,-204 1181,-221 1266,-221 1266,-204 1181,-204"/>
<text text-anchor="start" x="1199" y="-210.5" font-family="Arial" font-size="10.00"> </text>
<text text-anchor="start" x="1203" y="-210.5" font-family="Arial" font-size="10.00">p6 :Player</text>
</a>
<polygon fill="none" stroke="black" points="1181,-100 1181,-204 1266,-204 1266,-100 1181,-100"/>
<text text-anchor="start" x="1186" y="-192" font-family="Arial" font-size="10.00">name = &quot;Sabine&quot;</text>
<text text-anchor="start" x="1186" y="-178" font-family="Arial" font-size="10.00">deckOwner = &quot;&quot;</text>
<text text-anchor="start" x="1186" y="-164" font-family="Arial" font-size="10.00">stackOwner = &quot;&quot;</text>
<text text-anchor="start" x="1186" y="-150" font-family="Arial" font-size="10.00">next = &quot;&quot;</text>
<text text-anchor="start" x="1186" y="-136" font-family="Arial" font-size="10.00">prev = &quot;&quot;</text>
<text text-anchor="start" x="1186" y="-122" font-family="Arial" font-size="10.00">assignment = &quot;&quot;</text>
<text text-anchor="start" x="1186" y="-108" font-family="Arial" font-size="10.00">duty = &quot;&quot;</text>
</g>
<!-- maumau&#45;&#45;p6 -->
<g id="edge20" class="edge"><title>maumau&#45;&#45;p6</title>
<path fill="none" stroke="black" d="M1147.27,-262.121C1156.2,-250.318 1165.68,-237.779 1174.81,-225.712"/>
<text text-anchor="middle" x="1172.71" y="-232.99" font-family="Arial" font-size="10.00">players</text>
<text text-anchor="middle" x="1149.36" y="-249.843" font-family="Arial" font-size="10.00">game</text>
</g>
</g>
</svg>
