<?xml version="1.0" encoding="UTF-8" standalone="no"?>
<!DOCTYPE svg PUBLIC "-//W3C//DTD SVG 1.1//EN"
 "http://www.w3.org/Graphics/SVG/1.1/DTD/svg11.dtd">
<!-- Generated by graphviz version 2.28.0 (20110507.0327)
 -->
<!-- Title: ObjectDiagram Pages: 1 -->
<svg width="1075pt" height="480pt"
 viewBox="0.00 0.00 1074.79 480.00" xmlns="http://www.w3.org/2000/svg" xmlns:xlink="http://www.w3.org/1999/xlink">
<g id="graph1" class="graph" transform="scale(1 1) rotate(0) translate(4 476)">
<title>ObjectDiagram</title>
<polygon fill="white" stroke="white" points="-4,5 -4,-476 1071.79,-476 1071.79,5 -4,5"/>
<!-- karliNode -->
<g id="node1" class="node"><title>karliNode</title>
<image xlink:href="icons/node.png" width="83px" height="61px" preserveAspectRatio="xMinYMin meet" x="135.795" y="-465"/>
<a xlink:href="../../SDMLib/src/org/sdmlib/replication/Node.java" xlink:title="&lt;TABLE&gt;">
<polygon fill="none" stroke="black" points="133.795,-386 133.795,-402 220.795,-402 220.795,-386 133.795,-386"/>
<text text-anchor="start" x="143.295" y="-392" font-family="Times New Roman,serif" font-size="10.00"> </text>
<text text-anchor="start" x="146.295" y="-392" font-family="Times New Roman,serif" font-size="10.00">karliNode :Node</text>
</a>
</g>
<!-- k59 -->
<g id="node2" class="node"><title>k59</title>
<image xlink:href="icons/worker.png" width="80px" height="61px" preserveAspectRatio="xMinYMin meet" x="274.295" y="-465"/>
<a xlink:href="../examples/org/sdmlib/examples/replication/maumau/KarliDrawCardsAction.java" xlink:title="&lt;TABLE&gt;">
<polygon fill="none" stroke="black" points="254.795,-386 254.795,-402 373.795,-402 373.795,-386 254.795,-386"/>
<text text-anchor="start" x="258.295" y="-392" font-family="Times New Roman,serif" font-size="10.00"> </text>
<text text-anchor="start" x="261.295" y="-392" font-family="Times New Roman,serif" font-size="10.00">k59 :KarliDrawCardsAction</text>
</a>
</g>
<!-- maumau -->
<g id="node3" class="node"><title>maumau</title>
<image xlink:href="icons/shared.png" width="70px" height="23px" preserveAspectRatio="xMinYMin meet" x="415.795" y="-446"/>
<a xlink:href="../examples/org/sdmlib/examples/replication/maumau/MauMau.java" xlink:title="&lt;TABLE&gt;">
<polygon fill="none" stroke="black" points="407.795,-405 407.795,-421 493.795,-421 493.795,-405 407.795,-405"/>
<text text-anchor="start" x="411.295" y="-411" font-family="Times New Roman,serif" font-size="10.00"> </text>
<text text-anchor="start" x="414.295" y="-411" font-family="Times New Roman,serif" font-size="10.00">maumau :MauMau</text>
</a>
</g>
<!-- c24 -->
<g id="node4" class="node"><title>c24</title>
<a xlink:href="../examples/org/sdmlib/examples/replication/maumau/Card.java" xlink:title="&lt;TABLE&gt;">
<polygon fill="none" stroke="black" points="416.795,-324 416.795,-341 485.795,-341 485.795,-324 416.795,-324"/>
<text text-anchor="start" x="431.295" y="-330.5" font-family="Times New Roman,serif" font-size="10.00"> </text>
<text text-anchor="start" x="434.295" y="-330.5" font-family="Times New Roman,serif" font-size="10.00">c24 :Card</text>
</a>
<polygon fill="none" stroke="black" points="416.795,-290 416.795,-324 485.795,-324 485.795,-290 416.795,-290"/>
<text text-anchor="start" x="421.795" y="-312" font-family="Times New Roman,serif" font-size="10.00">suit = &quot;Clubs&quot;</text>
<text text-anchor="start" x="421.795" y="-298" font-family="Times New Roman,serif" font-size="10.00">value = &quot;10&quot;</text>
</g>
<!-- maumau&#45;&#45;c24 -->
<g id="edge2" class="edge"><title>maumau&#45;&#45;c24</title>
<path fill="none" stroke="black" d="M450.795,-401.266C450.795,-384.81 450.795,-363.13 450.795,-345.881"/>
<text text-anchor="middle" x="455.021" y="-352.444" font-family="Times New Roman,serif" font-size="10.00">cards</text>
<text text-anchor="middle" x="446.568" y="-389.703" font-family="Times New Roman,serif" font-size="10.00">game</text>
</g>
<!-- karli -->
<g id="node5" class="node"><title>karli</title>
<a xlink:href="../examples/org/sdmlib/examples/replication/maumau/Player.java" xlink:title="&lt;TABLE&gt;">
<polygon fill="none" stroke="black" points="434.795,-215 434.795,-232 504.795,-232 504.795,-215 434.795,-215"/>
<text text-anchor="start" x="445.295" y="-221.5" font-family="Times New Roman,serif" font-size="10.00"> </text>
<text text-anchor="start" x="448.295" y="-221.5" font-family="Times New Roman,serif" font-size="10.00">karli :Player</text>
</a>
<polygon fill="none" stroke="black" points="434.795,-195 434.795,-215 504.795,-215 504.795,-195 434.795,-195"/>
<text text-anchor="start" x="439.795" y="-203" font-family="Times New Roman,serif" font-size="10.00">name = &quot;Karli&quot;</text>
</g>
<!-- maumau&#45;&#45;karli -->
<g id="edge18" class="edge"><title>maumau&#45;&#45;karli</title>
<path fill="none" stroke="black" d="M471.867,-401.18C483.142,-386.24 495.892,-366.24 501.795,-346 509.261,-320.4 507.398,-312.071 501.795,-286 498.044,-268.551 489.654,-250.22 482.405,-236.555"/>
<text text-anchor="middle" x="490.337" y="-240.144" font-family="Times New Roman,serif" font-size="10.00">players_currentMove</text>
<text text-anchor="middle" x="473.852" y="-388.879" font-family="Times New Roman,serif" font-size="10.00">game_assignment</text>
</g>
<!-- c31 -->
<g id="node6" class="node"><title>c31</title>
<a xlink:href="../examples/org/sdmlib/examples/replication/maumau/Card.java" xlink:title="&lt;TABLE&gt;">
<polygon fill="none" stroke="black" points="46.7945,-120 46.7945,-137 121.795,-137 121.795,-120 46.7945,-120"/>
<text text-anchor="start" x="64.2945" y="-126.5" font-family="Times New Roman,serif" font-size="10.00"> </text>
<text text-anchor="start" x="67.2945" y="-126.5" font-family="Times New Roman,serif" font-size="10.00">c31 :Card</text>
</a>
<polygon fill="none" stroke="black" points="46.7945,-86 46.7945,-120 121.795,-120 121.795,-86 46.7945,-86"/>
<text text-anchor="start" x="51.7945" y="-108" font-family="Times New Roman,serif" font-size="10.00">suit = &quot;Spades&quot;</text>
<text text-anchor="start" x="51.7945" y="-94" font-family="Times New Roman,serif" font-size="10.00">value = &quot;9&quot;</text>
</g>
<!-- maumau&#45;&#45;c31 -->
<g id="edge4" class="edge"><title>maumau&#45;&#45;c31</title>
<path fill="none" stroke="black" d="M419.335,-401.42C410.079,-394.713 399.758,-387.725 389.795,-382 355.637,-362.372 341.073,-368.586 308.795,-346 222.636,-285.712 142.293,-189.176 105.243,-141.517"/>
<text text-anchor="middle" x="114.175" y="-143.512" font-family="Times New Roman,serif" font-size="10.00">cards</text>
<text text-anchor="middle" x="409.51" y="-397.06" font-family="Times New Roman,serif" font-size="10.00">game</text>
</g>
<!-- c52 -->
<g id="node7" class="node"><title>c52</title>
<a xlink:href="../examples/org/sdmlib/examples/replication/maumau/Card.java" xlink:title="&lt;TABLE&gt;">
<polygon fill="none" stroke="black" points="155.795,-120 155.795,-137 241.795,-137 241.795,-120 155.795,-120"/>
<text text-anchor="start" x="178.795" y="-126.5" font-family="Times New Roman,serif" font-size="10.00"> </text>
<text text-anchor="start" x="181.795" y="-126.5" font-family="Times New Roman,serif" font-size="10.00">c52 :Card</text>
</a>
<polygon fill="none" stroke="black" points="155.795,-86 155.795,-120 241.795,-120 241.795,-86 155.795,-86"/>
<text text-anchor="start" x="160.795" y="-108" font-family="Times New Roman,serif" font-size="10.00">suit = &quot;Diamonds&quot;</text>
<text text-anchor="start" x="160.795" y="-94" font-family="Times New Roman,serif" font-size="10.00">value = &quot;Ace&quot;</text>
</g>
<!-- maumau&#45;&#45;c52 -->
<g id="edge12" class="edge"><title>maumau&#45;&#45;c52</title>
<path fill="none" stroke="black" d="M417.923,-401.241C399.216,-386.321 375.966,-366.321 357.795,-346 297.566,-278.647 241.565,-187.354 214.981,-141.612"/>
<text text-anchor="middle" x="223.218" y="-144.782" font-family="Times New Roman,serif" font-size="10.00">cards</text>
<text text-anchor="middle" x="408.214" y="-396.346" font-family="Times New Roman,serif" font-size="10.00">game</text>
</g>
<!-- c43 -->
<g id="node8" class="node"><title>c43</title>
<a xlink:href="../examples/org/sdmlib/examples/replication/maumau/Card.java" xlink:title="&lt;TABLE&gt;">
<polygon fill="none" stroke="black" points="275.795,-120 275.795,-137 347.795,-137 347.795,-120 275.795,-120"/>
<text text-anchor="start" x="291.795" y="-126.5" font-family="Times New Roman,serif" font-size="10.00"> </text>
<text text-anchor="start" x="294.795" y="-126.5" font-family="Times New Roman,serif" font-size="10.00">c43 :Card</text>
</a>
<polygon fill="none" stroke="black" points="275.795,-86 275.795,-120 347.795,-120 347.795,-86 275.795,-86"/>
<text text-anchor="start" x="280.795" y="-108" font-family="Times New Roman,serif" font-size="10.00">suit = &quot;Hearts&quot;</text>
<text text-anchor="start" x="280.795" y="-94" font-family="Times New Roman,serif" font-size="10.00">value = &quot;King&quot;</text>
</g>
<!-- maumau&#45;&#45;c43 -->
<g id="edge8" class="edge"><title>maumau&#45;&#45;c43</title>
<path fill="none" stroke="black" d="M427.188,-401.391C413.821,-386.367 397.655,-366.211 386.795,-346 349.783,-277.123 327.231,-186.888 317.472,-141.58"/>
<text text-anchor="middle" x="323.568" y="-147.007" font-family="Times New Roman,serif" font-size="10.00">cards</text>
<text text-anchor="middle" x="418.034" y="-394.867" font-family="Times New Roman,serif" font-size="10.00">game</text>
</g>
<!-- c35 -->
<g id="node9" class="node"><title>c35</title>
<a xlink:href="../examples/org/sdmlib/examples/replication/maumau/Card.java" xlink:title="&lt;TABLE&gt;">
<polygon fill="none" stroke="black" points="532.795,-120 532.795,-137 607.795,-137 607.795,-120 532.795,-120"/>
<text text-anchor="start" x="550.295" y="-126.5" font-family="Times New Roman,serif" font-size="10.00"> </text>
<text text-anchor="start" x="553.295" y="-126.5" font-family="Times New Roman,serif" font-size="10.00">c35 :Card</text>
</a>
<polygon fill="none" stroke="black" points="532.795,-86 532.795,-120 607.795,-120 607.795,-86 532.795,-86"/>
<text text-anchor="start" x="537.795" y="-108" font-family="Times New Roman,serif" font-size="10.00">suit = &quot;Spades&quot;</text>
<text text-anchor="start" x="537.795" y="-94" font-family="Times New Roman,serif" font-size="10.00">value = &quot;King&quot;</text>
</g>
<!-- maumau&#45;&#45;c35 -->
<g id="edge6" class="edge"><title>maumau&#45;&#45;c35</title>
<path fill="none" stroke="black" d="M476.932,-401.248C491.045,-386.483 507.614,-366.633 517.795,-346 551.54,-277.611 563.64,-187.163 567.776,-141.696"/>
<text text-anchor="middle" x="571.079" y="-148.635" font-family="Times New Roman,serif" font-size="10.00">cards</text>
<text text-anchor="middle" x="480.055" y="-389.249" font-family="Times New Roman,serif" font-size="10.00">game</text>
</g>
<!-- c44 -->
<g id="node10" class="node"><title>c44</title>
<a xlink:href="../examples/org/sdmlib/examples/replication/maumau/Card.java" xlink:title="&lt;TABLE&gt;">
<polygon fill="none" stroke="black" points="748.795,-120 748.795,-137 820.795,-137 820.795,-120 748.795,-120"/>
<text text-anchor="start" x="764.795" y="-126.5" font-family="Times New Roman,serif" font-size="10.00"> </text>
<text text-anchor="start" x="767.795" y="-126.5" font-family="Times New Roman,serif" font-size="10.00">c44 :Card</text>
</a>
<polygon fill="none" stroke="black" points="748.795,-86 748.795,-120 820.795,-120 820.795,-86 748.795,-86"/>
<text text-anchor="start" x="753.795" y="-108" font-family="Times New Roman,serif" font-size="10.00">suit = &quot;Hearts&quot;</text>
<text text-anchor="start" x="753.795" y="-94" font-family="Times New Roman,serif" font-size="10.00">value = &quot;Ace&quot;</text>
</g>
<!-- maumau&#45;&#45;c44 -->
<g id="edge10" class="edge"><title>maumau&#45;&#45;c44</title>
<path fill="none" stroke="black" d="M493.871,-401.438C518.11,-386.733 548.327,-366.881 572.795,-346 649.754,-280.321 726.196,-187.889 762.678,-141.669"/>
<text text-anchor="middle" x="760.332" y="-148.89" font-family="Times New Roman,serif" font-size="10.00">cards</text>
<text text-anchor="middle" x="499.388" y="-390.598" font-family="Times New Roman,serif" font-size="10.00">game</text>
</g>
<!-- p12 -->
<g id="node11" class="node"><title>p12</title>
<a xlink:href="../examples/org/sdmlib/examples/replication/maumau/Player.java" xlink:title="&lt;TABLE&gt;">
<polygon fill="none" stroke="black" points="381.795,-113 381.795,-130 459.795,-130 459.795,-113 381.795,-113"/>
<text text-anchor="start" x="397.295" y="-119.5" font-family="Times New Roman,serif" font-size="10.00"> </text>
<text text-anchor="start" x="400.295" y="-119.5" font-family="Times New Roman,serif" font-size="10.00">p12 :Player</text>
</a>
<polygon fill="none" stroke="black" points="381.795,-93 381.795,-113 459.795,-113 459.795,-93 381.795,-93"/>
<text text-anchor="start" x="386.795" y="-101" font-family="Times New Roman,serif" font-size="10.00">name = &quot;Sabine&quot;</text>
</g>
<!-- maumau&#45;&#45;p12 -->
<g id="edge20" class="edge"><title>maumau&#45;&#45;p12</title>
<path fill="none" stroke="black" d="M429.314,-401.247C417.821,-386.329 404.821,-366.329 398.795,-346 376.507,-270.816 400.329,-176.564 413.404,-134.728"/>
<text text-anchor="middle" x="414.865" y="-142.12" font-family="Times New Roman,serif" font-size="10.00">players</text>
<text text-anchor="middle" x="420.484" y="-394.053" font-family="Times New Roman,serif" font-size="10.00">game</text>
</g>
<!-- p5 -->
<g id="node12" class="node"><title>p5</title>
<a xlink:href="../examples/org/sdmlib/examples/replication/maumau/Player.java" xlink:title="&lt;TABLE&gt;">
<polygon fill="none" stroke="black" points="386.795,-24 386.795,-41 455.795,-41 455.795,-24 386.795,-24"/>
<text text-anchor="start" x="399.795" y="-30.5" font-family="Times New Roman,serif" font-size="10.00"> </text>
<text text-anchor="start" x="402.795" y="-30.5" font-family="Times New Roman,serif" font-size="10.00">p5 :Player</text>
</a>
<polygon fill="none" stroke="black" points="386.795,-4 386.795,-24 455.795,-24 455.795,-4 386.795,-4"/>
<text text-anchor="start" x="391.795" y="-12" font-family="Times New Roman,serif" font-size="10.00">name = &quot;Abu&quot;</text>
</g>
<!-- maumau&#45;&#45;p5 -->
<g id="edge16" class="edge"><title>maumau&#45;&#45;p5</title>
<path fill="none" stroke="black" d="M421.534,-401.331C411.914,-394.225 400.843,-387.04 389.795,-382 326.238,-353.006 298.567,-378.622 236.795,-346 104.706,-276.245 -68.7944,-195.091 28.7945,-82 73.6278,-30.0452 286.647,-23.8432 378.492,-23.6363"/>
<text text-anchor="middle" x="369.467" y="-25.445" font-family="Times New Roman,serif" font-size="10.00">players</text>
<text text-anchor="middle" x="411.72" y="-396.913" font-family="Times New Roman,serif" font-size="10.00">game</text>
</g>
<!-- d57 -->
<g id="node13" class="node"><title>d57</title>
<a xlink:href="../examples/org/sdmlib/examples/replication/maumau/Duty.java" xlink:title="&lt;TABLE&gt;">
<polygon fill="none" stroke="black" points="641.795,-120 641.795,-137 714.795,-137 714.795,-120 641.795,-120"/>
<text text-anchor="start" x="656.795" y="-126.5" font-family="Times New Roman,serif" font-size="10.00"> </text>
<text text-anchor="start" x="659.795" y="-126.5" font-family="Times New Roman,serif" font-size="10.00">d57 :Duty</text>
</a>
<polygon fill="none" stroke="black" points="641.795,-86 641.795,-120 714.795,-120 714.795,-86 641.795,-86"/>
<text text-anchor="start" x="646.795" y="-108" font-family="Times New Roman,serif" font-size="10.00">kind = &quot;Draw2&quot;</text>
<text text-anchor="start" x="646.795" y="-94" font-family="Times New Roman,serif" font-size="10.00">number = 1</text>
</g>
<!-- maumau&#45;&#45;d57 -->
<g id="edge22" class="edge"><title>maumau&#45;&#45;d57</title>
<path fill="none" stroke="black" d="M485.878,-401.174C504.531,-386.674 526.839,-367.106 542.795,-346 592.551,-280.181 576.898,-247.226 621.795,-178 629.981,-165.378 640.424,-152.598 650.069,-141.749"/>
<text text-anchor="middle" x="647.253" y="-148.844" font-family="Times New Roman,serif" font-size="10.00">duty</text>
<text text-anchor="middle" x="490.37" y="-389.74" font-family="Times New Roman,serif" font-size="10.00">game</text>
</g>
<!-- h19 -->
<g id="node14" class="node"><title>h19</title>
<a xlink:href="../examples/org/sdmlib/examples/replication/maumau/Holder.java" xlink:title="&lt;TABLE&gt;">
<polygon fill="none" stroke="black" points="671.795,-307 671.795,-324 727.795,-324 727.795,-307 671.795,-307"/>
<text text-anchor="start" x="675.295" y="-313.5" font-family="Times New Roman,serif" font-size="10.00"> </text>
<text text-anchor="start" x="678.295" y="-313.5" font-family="Times New Roman,serif" font-size="10.00">h19 :Holder</text>
</a>
</g>
<!-- maumau&#45;&#45;h19 -->
<g id="edge14" class="edge"><title>maumau&#45;&#45;h19</title>
<path fill="none" stroke="black" d="M501.964,-407.74C542.684,-392.661 600.768,-369.92 649.795,-346 657.1,-342.436 664.788,-338.224 671.885,-334.131"/>
<text text-anchor="middle" x="666.126" y="-339.806" font-family="Times New Roman,serif" font-size="10.00">deck</text>
<text text-anchor="middle" x="508.976" y="-398.11" font-family="Times New Roman,serif" font-size="10.00">deckOwner</text>
</g>
<!-- c24&#45;&#45;karli -->
<g id="edge24" class="edge"><title>c24&#45;&#45;karli</title>
<path fill="none" stroke="black" d="M456.239,-286.344C459.244,-270.53 462.915,-251.21 465.678,-236.665"/>
<text text-anchor="middle" x="468.138" y="-243.857" font-family="Times New Roman,serif" font-size="10.00">holder</text>
<text text-anchor="middle" x="453.779" y="-274.151" font-family="Times New Roman,serif" font-size="10.00">cards</text>
</g>
<!-- karli&#45;&#45;c31 -->
<g id="edge26" class="edge"><title>karli&#45;&#45;c31</title>
<path fill="none" stroke="black" d="M426.692,-207.6C362.506,-198.707 238.648,-178.253 138.795,-142 135.649,-140.858 132.459,-139.567 129.281,-138.181"/>
<text text-anchor="middle" x="139.277" y="-135.405" font-family="Times New Roman,serif" font-size="10.00">cards</text>
<text text-anchor="middle" x="417.119" y="-207.991" font-family="Times New Roman,serif" font-size="10.00">holder</text>
</g>
<!-- karli&#45;&#45;c52 -->
<g id="edge28" class="edge"><title>karli&#45;&#45;c52</title>
<path fill="none" stroke="black" d="M426.784,-200.268C383.734,-187.12 315.873,-165.29 258.795,-142 255.902,-140.82 252.953,-139.566 249.99,-138.267"/>
<text text-anchor="middle" x="259.987" y="-135.524" font-family="Times New Roman,serif" font-size="10.00">cards</text>
<text text-anchor="middle" x="416.878" y="-199.138" font-family="Times New Roman,serif" font-size="10.00">holder</text>
</g>
<!-- karli&#45;&#45;c43 -->
<g id="edge30" class="edge"><title>karli&#45;&#45;c43</title>
<path fill="none" stroke="black" d="M435.511,-191.301C412.186,-176.539 381.106,-156.868 355.933,-140.936"/>
<text text-anchor="middle" x="365.851" y="-139.711" font-family="Times New Roman,serif" font-size="10.00">cards</text>
<text text-anchor="middle" x="425.593" y="-187.526" font-family="Times New Roman,serif" font-size="10.00">holder</text>
</g>
<!-- karli&#45;&#45;c35 -->
<g id="edge32" class="edge"><title>karli&#45;&#45;c35</title>
<path fill="none" stroke="black" d="M491.493,-191.301C505.969,-176.826 525.163,-157.631 540.925,-141.87"/>
<text text-anchor="middle" x="537.505" y="-148.767" font-family="Times New Roman,serif" font-size="10.00">cards</text>
<text text-anchor="middle" x="494.913" y="-179.405" font-family="Times New Roman,serif" font-size="10.00">holder</text>
</g>
<!-- karli&#45;&#45;c44 -->
<g id="edge34" class="edge"><title>karli&#45;&#45;c44</title>
<path fill="none" stroke="black" d="M512.799,-204.45C565.339,-193.292 656.418,-171.64 730.795,-142 734.057,-140.7 737.375,-139.253 740.681,-137.719"/>
<text text-anchor="middle" x="734.221" y="-142.852" font-family="Times New Roman,serif" font-size="10.00">cards</text>
<text text-anchor="middle" x="520.759" y="-195.897" font-family="Times New Roman,serif" font-size="10.00">holder</text>
</g>
<!-- karli&#45;&#45;p12 -->
<g id="edge36" class="edge"><title>karli&#45;&#45;p12</title>
<path fill="none" stroke="black" d="M459.162,-191.301C450.943,-174.528 439.62,-151.419 431.406,-134.656"/>
<text text-anchor="middle" x="439.189" y="-138.435" font-family="Times New Roman,serif" font-size="10.00">next</text>
<text text-anchor="middle" x="451.379" y="-182.523" font-family="Times New Roman,serif" font-size="10.00">prev</text>
</g>
<!-- karli&#45;&#45;p5 -->
<g id="edge38" class="edge"><title>karli&#45;&#45;p5</title>
<path fill="none" stroke="black" d="M476.422,-191.207C483.359,-164.43 491.382,-118.111 476.795,-82 471.132,-67.9838 460.281,-55.471 449.626,-45.6877"/>
<text text-anchor="middle" x="459.119" y="-46.3324" font-family="Times New Roman,serif" font-size="10.00">prev</text>
<text text-anchor="middle" x="474.458" y="-178.902" font-family="Times New Roman,serif" font-size="10.00">next</text>
</g>
<!-- karli&#45;&#45;d57 -->
<g id="edge40" class="edge"><title>karli&#45;&#45;d57</title>
<path fill="none" stroke="black" d="M512.944,-193.952C544.003,-180.037 586.774,-160.453 623.795,-142 626.937,-140.433 630.167,-138.789 633.41,-137.112"/>
<text text-anchor="middle" x="627.295" y="-142.525" font-family="Times New Roman,serif" font-size="10.00">duty</text>
<text text-anchor="middle" x="519.478" y="-183.882" font-family="Times New Roman,serif" font-size="10.00">player</text>
</g>
<!-- p12&#45;&#45;p5 -->
<g id="edge42" class="edge"><title>p12&#45;&#45;p5</title>
<path fill="none" stroke="black" d="M420.795,-89.4944C420.795,-76.1096 420.795,-58.9547 420.795,-45.5597"/>
<text text-anchor="middle" x="425.021" y="-52.1228" font-family="Times New Roman,serif" font-size="10.00">next</text>
<text text-anchor="middle" x="416.568" y="-77.9313" font-family="Times New Roman,serif" font-size="10.00">prev</text>
</g>
<!-- topCardOnDeckControler -->
<g id="node15" class="node"><title>topCardOnDeckControler</title>
<image xlink:href="icons/person1.png" width="32px" height="43px" preserveAspectRatio="xMinYMin meet" x="884.295" y="-243"/>
<a xlink:href="../examples/org/sdmlib/examples/replication/maumau/CardControler.java" xlink:title="&lt;TABLE&gt;">
<polygon fill="none" stroke="black" points="813.795,-182 813.795,-198 986.795,-198 986.795,-182 813.795,-182"/>
<text text-anchor="start" x="817.295" y="-188" font-family="Times New Roman,serif" font-size="10.00"> </text>
<text text-anchor="start" x="820.295" y="-188" font-family="Times New Roman,serif" font-size="10.00">topCardOnDeckControler :CardControler</text>
</a>
</g>
<!-- topCardOnDeckControler&#45;&#45;c44 -->
<g id="edge44" class="edge"><title>topCardOnDeckControler&#45;&#45;c44</title>
<path fill="none" stroke="black" d="M859.896,-178.305C846.143,-166.346 830.903,-153.094 817.766,-141.671"/>
<text text-anchor="middle" x="827.378" y="-141.929" font-family="Times New Roman,serif" font-size="10.00">card</text>
</g>
<!-- l62 -->
<g id="node16" class="node"><title>l62</title>
<a xlink:href="../../SDMLib/src/org/eclipse/swt/widgets/Label.java" xlink:title="&lt;TABLE&gt;">
<polygon fill="none" stroke="black" points="854.795,-113 854.795,-130 944.795,-130 944.795,-113 854.795,-113"/>
<text text-anchor="start" x="879.295" y="-119.5" font-family="Times New Roman,serif" font-size="10.00"> </text>
<text text-anchor="start" x="882.295" y="-119.5" font-family="Times New Roman,serif" font-size="10.00">l62 :Label</text>
</a>
<polygon fill="none" stroke="black" points="854.795,-93 854.795,-113 944.795,-113 944.795,-93 854.795,-93"/>
<text text-anchor="start" x="859.795" y="-101" font-family="Times New Roman,serif" font-size="10.00">text = &quot;Ace Hearts&quot;</text>
</g>
<!-- topCardOnDeckControler&#45;&#45;l62 -->
<g id="edge46" class="edge"><title>topCardOnDeckControler&#45;&#45;l62</title>
<path fill="none" stroke="black" d="M899.795,-178.305C899.795,-163.751 899.795,-147.283 899.795,-134.524"/>
<text text-anchor="middle" x="904.021" y="-141.088" font-family="Times New Roman,serif" font-size="10.00">label</text>
</g>
<!-- c63 -->
<g id="node17" class="node"><title>c63</title>
<a xlink:href="../examples/org/sdmlib/examples/replication/maumau/CardListener.java" xlink:title="&lt;TABLE&gt;">
<polygon fill="none" stroke="black" points="978.795,-103 978.795,-120 1058.79,-120 1058.79,-103 978.795,-103"/>
<text text-anchor="start" x="982.295" y="-109.5" font-family="Times New Roman,serif" font-size="10.00"> </text>
<text text-anchor="start" x="985.295" y="-109.5" font-family="Times New Roman,serif" font-size="10.00">c63 :CardListener</text>
</a>
</g>
<!-- topCardOnDeckControler&#45;&#45;c63 -->
<g id="edge48" class="edge"><title>topCardOnDeckControler&#45;&#45;c63</title>
<path fill="none" stroke="black" d="M941.081,-178.305C960.414,-162.059 982.587,-143.427 998.287,-130.233"/>
<text text-anchor="middle" x="994.067" y="-136.799" font-family="Times New Roman,serif" font-size="10.00">listener</text>
</g>
</g>
</svg>
