<?xml version="1.0" encoding="UTF-8" standalone="no"?>
<!DOCTYPE svg PUBLIC "-//W3C//DTD SVG 1.1//EN"
 "http://www.w3.org/Graphics/SVG/1.1/DTD/svg11.dtd">
<!-- Generated by graphviz version 2.28.0 (20110507.0327)
 -->
<!-- Title: ObjectDiagram Pages: 1 -->
<svg width="1090pt" height="276pt"
 viewBox="0.00 0.00 1090.00 276.00" xmlns="http://www.w3.org/2000/svg" xmlns:xlink="http://www.w3.org/1999/xlink">
<g id="graph1" class="graph" transform="scale(1 1) rotate(0) translate(4 272)">
<title>ObjectDiagram</title>
<polygon fill="white" stroke="white" points="-4,5 -4,-272 1087,-272 1087,5 -4,5"/>
<!-- s10 -->
<g id="node1" class="node"><title>s10</title>
<image xlink:href="icons/worker.png" width="80px" height="61px" preserveAspectRatio="xMinYMin meet" x="100.5" y="-261"/>
<a xlink:href="../examples/org/sdmlib/examples/replication/maumau/ShowStartGameButtonAction.java" xlink:title="&lt;TABLE&gt;">
<polygon fill="none" stroke="black" points="67,-182 67,-198 214,-198 214,-182 67,-182"/>
<text text-anchor="start" x="70.5" y="-188" font-family="Times New Roman,serif" font-size="10.00"> </text>
<text text-anchor="start" x="73.5" y="-188" font-family="Times New Roman,serif" font-size="10.00">s10 :ShowStartGameButtonAction</text>
</a>
</g>
<!-- taskboard -->
<g id="node2" class="node"><title>taskboard</title>
<image xlink:href="icons/shared.png" width="70px" height="23px" preserveAspectRatio="xMinYMin meet" x="272" y="-242"/>
<a xlink:href="../../SDMLib/src/org/sdmlib/replication/TaskFlowBoard.java" xlink:title="&lt;TABLE&gt;">
<polygon fill="none" stroke="black" points="248,-201 248,-217 366,-217 366,-201 248,-201"/>
<text text-anchor="start" x="251.5" y="-207" font-family="Times New Roman,serif" font-size="10.00"> </text>
<text text-anchor="start" x="254.5" y="-207" font-family="Times New Roman,serif" font-size="10.00">taskboard :TaskFlowBoard</text>
</a>
</g>
<!-- l2 -->
<g id="node3" class="node"><title>l2</title>
<a xlink:href="../../SDMLib/src/org/sdmlib/replication/Lane.java" xlink:title="&lt;TABLE&gt;">
<polygon fill="none" stroke="black" points="67,-120 67,-137 143,-137 143,-120 67,-120"/>
<text text-anchor="start" x="88" y="-126.5" font-family="Times New Roman,serif" font-size="10.00"> </text>
<text text-anchor="start" x="91" y="-126.5" font-family="Times New Roman,serif" font-size="10.00">l2 :Lane</text>
</a>
<polygon fill="none" stroke="black" points="67,-100 67,-120 143,-120 143,-100 67,-100"/>
<text text-anchor="start" x="72" y="-108" font-family="Times New Roman,serif" font-size="10.00">name = &quot;server&quot;</text>
</g>
<!-- taskboard&#45;&#45;l2 -->
<g id="edge2" class="edge"><title>taskboard&#45;&#45;l2</title>
<path fill="none" stroke="black" d="M265.393,-197.371C254.023,-190.875 241.628,-184.006 230,-178 204.281,-164.715 174.949,-151.031 151.165,-140.293"/>
<text text-anchor="middle" x="161.164" y="-137.687" font-family="Times New Roman,serif" font-size="10.00">lanes</text>
<text text-anchor="middle" x="255.426" y="-194.059" font-family="Times New Roman,serif" font-size="10.00">board</text>
</g>
<!-- l3 -->
<g id="node4" class="node"><title>l3</title>
<a xlink:href="../../SDMLib/src/org/sdmlib/replication/Lane.java" xlink:title="&lt;TABLE&gt;">
<polygon fill="none" stroke="black" points="178,-120 178,-137 293,-137 293,-120 178,-120"/>
<text text-anchor="start" x="218.5" y="-126.5" font-family="Times New Roman,serif" font-size="10.00"> </text>
<text text-anchor="start" x="221.5" y="-126.5" font-family="Times New Roman,serif" font-size="10.00">l3 :Lane</text>
</a>
<polygon fill="none" stroke="black" points="178,-100 178,-120 293,-120 293,-100 178,-100"/>
<text text-anchor="start" x="183" y="-108" font-family="Times New Roman,serif" font-size="10.00">name = &quot;play7WorkFlow&quot;</text>
</g>
<!-- taskboard&#45;&#45;l3 -->
<g id="edge4" class="edge"><title>taskboard&#45;&#45;l3</title>
<path fill="none" stroke="black" d="M289.571,-197.309C277.585,-180.328 261.816,-157.99 250.313,-141.694"/>
<text text-anchor="middle" x="258.993" y="-144.161" font-family="Times New Roman,serif" font-size="10.00">lanes</text>
<text text-anchor="middle" x="280.892" y="-189.842" font-family="Times New Roman,serif" font-size="10.00">board</text>
</g>
<!-- l7 -->
<g id="node7" class="node"><title>l7</title>
<a xlink:href="../../SDMLib/src/org/sdmlib/replication/Lane.java" xlink:title="&lt;TABLE&gt;">
<polygon fill="none" stroke="black" points="335,-120 335,-137 424,-137 424,-120 335,-120"/>
<text text-anchor="start" x="362.5" y="-126.5" font-family="Times New Roman,serif" font-size="10.00"> </text>
<text text-anchor="start" x="365.5" y="-126.5" font-family="Times New Roman,serif" font-size="10.00">l7 :Lane</text>
</a>
<polygon fill="none" stroke="black" points="335,-100 335,-120 424,-120 424,-100 335,-100"/>
<text text-anchor="start" x="340" y="-108" font-family="Times New Roman,serif" font-size="10.00">name = &quot;AbuLane&quot;</text>
</g>
<!-- taskboard&#45;&#45;l7 -->
<g id="edge6" class="edge"><title>taskboard&#45;&#45;l7</title>
<path fill="none" stroke="black" d="M324.429,-197.309C336.415,-180.328 352.184,-157.99 363.687,-141.694"/>
<text text-anchor="middle" x="361.913" y="-149.035" font-family="Times New Roman,serif" font-size="10.00">lanes</text>
<text text-anchor="middle" x="326.203" y="-184.967" font-family="Times New Roman,serif" font-size="10.00">board</text>
</g>
<!-- l1 -->
<g id="node9" class="node"><title>l1</title>
<a xlink:href="../../SDMLib/src/org/sdmlib/replication/Lane.java" xlink:title="&lt;TABLE&gt;">
<polygon fill="none" stroke="black" points="492,-120 492,-137 582,-137 582,-120 492,-120"/>
<text text-anchor="start" x="520" y="-126.5" font-family="Times New Roman,serif" font-size="10.00"> </text>
<text text-anchor="start" x="523" y="-126.5" font-family="Times New Roman,serif" font-size="10.00">l1 :Lane</text>
</a>
<polygon fill="none" stroke="black" points="492,-100 492,-120 582,-120 582,-100 492,-100"/>
<text text-anchor="start" x="497" y="-108" font-family="Times New Roman,serif" font-size="10.00">name = &quot;KarliLane&quot;</text>
</g>
<!-- taskboard&#45;&#45;l1 -->
<g id="edge8" class="edge"><title>taskboard&#45;&#45;l1</title>
<path fill="none" stroke="black" d="M362.383,-197.439C400.798,-180.403 451.48,-157.926 488.342,-141.579"/>
<text text-anchor="middle" x="481.77" y="-146.616" font-family="Times New Roman,serif" font-size="10.00">lanes</text>
<text text-anchor="middle" x="368.955" y="-187.401" font-family="Times New Roman,serif" font-size="10.00">board</text>
</g>
<!-- b4 -->
<g id="node5" class="node"><title>b4</title>
<a xlink:href="../../SDMLib/src/org/sdmlib/replication/BoardTask.java" xlink:title="&lt;TABLE&gt;">
<polygon fill="none" stroke="black" points="8,-38 8,-55 149,-55 149,-38 8,-38"/>
<text text-anchor="start" x="48" y="-44.5" font-family="Times New Roman,serif" font-size="10.00"> </text>
<text text-anchor="start" x="51" y="-44.5" font-family="Times New Roman,serif" font-size="10.00">b4 :BoardTask</text>
</a>
<polygon fill="none" stroke="black" points="8,-4 8,-38 149,-38 149,-4 8,-4"/>
<text text-anchor="start" x="13" y="-26" font-family="Times New Roman,serif" font-size="10.00">name = &quot;showStartGameButton&quot;</text>
<text text-anchor="start" x="13" y="-12" font-family="Times New Roman,serif" font-size="10.00">status = &quot;start&quot;</text>
</g>
<!-- l3&#45;&#45;b4 -->
<g id="edge10" class="edge"><title>l3&#45;&#45;b4</title>
<path fill="none" stroke="black" d="M196.191,-96.4944C176.123,-85.3739 151.359,-71.6511 129.691,-59.6443"/>
<text text-anchor="middle" x="139.667" y="-57.8406" font-family="Times New Roman,serif" font-size="10.00">tasks</text>
<text text-anchor="middle" x="186.215" y="-93.2981" font-family="Times New Roman,serif" font-size="10.00">lane</text>
</g>
<!-- b5 -->
<g id="node6" class="node"><title>b5</title>
<a xlink:href="../../SDMLib/src/org/sdmlib/replication/BoardTask.java" xlink:title="&lt;TABLE&gt;">
<polygon fill="none" stroke="black" points="183,-38 183,-55 280,-55 280,-38 183,-38"/>
<text text-anchor="start" x="201" y="-44.5" font-family="Times New Roman,serif" font-size="10.00"> </text>
<text text-anchor="start" x="204" y="-44.5" font-family="Times New Roman,serif" font-size="10.00">b5 :BoardTask</text>
</a>
<polygon fill="none" stroke="black" points="183,-4 183,-38 280,-38 280,-4 183,-4"/>
<text text-anchor="start" x="188" y="-26" font-family="Times New Roman,serif" font-size="10.00">name = &quot;startClients&quot;</text>
<text text-anchor="start" x="188" y="-12" font-family="Times New Roman,serif" font-size="10.00">status = &quot;start&quot;</text>
</g>
<!-- l3&#45;&#45;b5 -->
<g id="edge12" class="edge"><title>l3&#45;&#45;b5</title>
<path fill="none" stroke="black" d="M234.011,-96.4944C233.502,-85.4243 232.875,-71.7752 232.324,-59.8074"/>
<text text-anchor="middle" x="236.962" y="-66.1668" font-family="Times New Roman,serif" font-size="10.00">tasks</text>
<text text-anchor="middle" x="229.373" y="-85.135" font-family="Times New Roman,serif" font-size="10.00">lane</text>
</g>
<!-- b8 -->
<g id="node8" class="node"><title>b8</title>
<a xlink:href="../../SDMLib/src/org/sdmlib/replication/BoardTask.java" xlink:title="&lt;TABLE&gt;">
<polygon fill="none" stroke="black" points="314,-38 314,-55 455,-55 455,-38 314,-38"/>
<text text-anchor="start" x="354" y="-44.5" font-family="Times New Roman,serif" font-size="10.00"> </text>
<text text-anchor="start" x="357" y="-44.5" font-family="Times New Roman,serif" font-size="10.00">b8 :BoardTask</text>
</a>
<polygon fill="none" stroke="black" points="314,-4 314,-38 455,-38 455,-4 314,-4"/>
<text text-anchor="start" x="319" y="-26" font-family="Times New Roman,serif" font-size="10.00">name = &quot;showStartGameButton&quot;</text>
<text text-anchor="start" x="319" y="-12" font-family="Times New Roman,serif" font-size="10.00">status = &quot;start&quot;</text>
</g>
<!-- l7&#45;&#45;b8 -->
<g id="edge14" class="edge"><title>l7&#45;&#45;b8</title>
<path fill="none" stroke="black" d="M380.236,-96.4944C380.872,-85.4243 381.657,-71.7752 382.344,-59.8074"/>
<text text-anchor="middle" x="386.044" y="-66.598" font-family="Times New Roman,serif" font-size="10.00">tasks</text>
<text text-anchor="middle" x="376.537" y="-84.7037" font-family="Times New Roman,serif" font-size="10.00">lane</text>
</g>
<!-- b9 -->
<g id="node10" class="node"><title>b9</title>
<a xlink:href="../../SDMLib/src/org/sdmlib/replication/BoardTask.java" xlink:title="&lt;TABLE&gt;">
<polygon fill="none" stroke="black" points="489,-38 489,-55 630,-55 630,-38 489,-38"/>
<text text-anchor="start" x="529" y="-44.5" font-family="Times New Roman,serif" font-size="10.00"> </text>
<text text-anchor="start" x="532" y="-44.5" font-family="Times New Roman,serif" font-size="10.00">b9 :BoardTask</text>
</a>
<polygon fill="none" stroke="black" points="489,-4 489,-38 630,-38 630,-4 489,-4"/>
<text text-anchor="start" x="494" y="-26" font-family="Times New Roman,serif" font-size="10.00">name = &quot;showStartGameButton&quot;</text>
<text text-anchor="start" x="494" y="-12" font-family="Times New Roman,serif" font-size="10.00">status = &quot;start&quot;</text>
</g>
<!-- l1&#45;&#45;b9 -->
<g id="edge16" class="edge"><title>l1&#45;&#45;b9</title>
<path fill="none" stroke="black" d="M542.438,-96.4944C545.238,-85.4243 548.689,-71.7752 551.715,-59.8074"/>
<text text-anchor="middle" x="553.591" y="-67.13" font-family="Times New Roman,serif" font-size="10.00">tasks</text>
<text text-anchor="middle" x="540.563" y="-84.1718" font-family="Times New Roman,serif" font-size="10.00">lane</text>
</g>
<!-- l11 -->
<g id="node11" class="node"><title>l11</title>
<a xlink:href="../../SDMLib/src/org/eclipse/swt/widgets/Label.java" xlink:title="&lt;TABLE&gt;">
<polygon fill="none" stroke="black" points="617,-120 617,-137 840,-137 840,-120 617,-120"/>
<text text-anchor="start" x="708" y="-126.5" font-family="Times New Roman,serif" font-size="10.00"> </text>
<text text-anchor="start" x="711" y="-126.5" font-family="Times New Roman,serif" font-size="10.00">l11 :Label</text>
</a>
<polygon fill="none" stroke="black" points="617,-100 617,-120 840,-120 840,-100 617,-100"/>
<text text-anchor="start" x="622" y="-108" font-family="Times New Roman,serif" font-size="10.00">text = &quot;When all players have shown up, Start Game&quot;</text>
</g>
<!-- s12 -->
<g id="node12" class="node"><title>s12</title>
<image xlink:href="icons/person1.png" width="32px" height="43px" preserveAspectRatio="xMinYMin meet" x="712" y="-252"/>
<a xlink:href="../examples/org/sdmlib/examples/replication/maumau/ShowStartGameButtonAction.java" xlink:title="&lt;TABLE&gt;">
<polygon fill="none" stroke="black" points="618,-191 618,-207 838,-207 838,-191 618,-191"/>
<text text-anchor="start" x="621.5" y="-197" font-family="Times New Roman,serif" font-size="10.00"> </text>
<text text-anchor="start" x="624.5" y="-197" font-family="Times New Roman,serif" font-size="10.00">s12 :ShowStartGameButtonAction$StartGameAction</text>
</a>
</g>
<!-- s12&#45;&#45;l11 -->
<g id="edge18" class="edge"><title>s12&#45;&#45;l11</title>
<path fill="none" stroke="black" d="M728,-187.467C728,-172.325 728,-155.013 728,-141.717"/>
<text text-anchor="middle" x="732.226" y="-148.28" font-family="Times New Roman,serif" font-size="10.00">startGameLabel</text>
</g>
<!-- maumau -->
<g id="node13" class="node"><title>maumau</title>
<image xlink:href="icons/shared.png" width="70px" height="23px" preserveAspectRatio="xMinYMin meet" x="928" y="-242"/>
<a xlink:href="../examples/org/sdmlib/examples/replication/maumau/MauMau.java" xlink:title="&lt;TABLE&gt;">
<polygon fill="none" stroke="black" points="920,-201 920,-217 1006,-217 1006,-201 920,-201"/>
<text text-anchor="start" x="923.5" y="-207" font-family="Times New Roman,serif" font-size="10.00"> </text>
<text text-anchor="start" x="926.5" y="-207" font-family="Times New Roman,serif" font-size="10.00">maumau :MauMau</text>
</a>
</g>
<!-- p6 -->
<g id="node14" class="node"><title>p6</title>
<a xlink:href="../examples/org/sdmlib/examples/replication/maumau/Player.java" xlink:title="&lt;TABLE&gt;">
<polygon fill="none" stroke="black" points="901,-120 901,-137 970,-137 970,-120 901,-120"/>
<text text-anchor="start" x="914" y="-126.5" font-family="Times New Roman,serif" font-size="10.00"> </text>
<text text-anchor="start" x="917" y="-126.5" font-family="Times New Roman,serif" font-size="10.00">p6 :Player</text>
</a>
<polygon fill="none" stroke="black" points="901,-100 901,-120 970,-120 970,-100 901,-100"/>
<text text-anchor="start" x="906" y="-108" font-family="Times New Roman,serif" font-size="10.00">name = &quot;Abu&quot;</text>
</g>
<!-- maumau&#45;&#45;p6 -->
<g id="edge20" class="edge"><title>maumau&#45;&#45;p6</title>
<path fill="none" stroke="black" d="M956.222,-197.309C951.561,-180.328 945.429,-157.99 940.955,-141.694"/>
<text text-anchor="middle" x="947.43" y="-146.815" font-family="Times New Roman,serif" font-size="10.00">players</text>
<text text-anchor="middle" x="949.747" y="-187.188" font-family="Times New Roman,serif" font-size="10.00">game</text>
</g>
<!-- karli -->
<g id="node15" class="node"><title>karli</title>
<a xlink:href="../examples/org/sdmlib/examples/replication/maumau/Player.java" xlink:title="&lt;TABLE&gt;">
<polygon fill="none" stroke="black" points="1004,-120 1004,-137 1074,-137 1074,-120 1004,-120"/>
<text text-anchor="start" x="1014.5" y="-126.5" font-family="Times New Roman,serif" font-size="10.00"> </text>
<text text-anchor="start" x="1017.5" y="-126.5" font-family="Times New Roman,serif" font-size="10.00">karli :Player</text>
</a>
<polygon fill="none" stroke="black" points="1004,-100 1004,-120 1074,-120 1074,-100 1004,-100"/>
<text text-anchor="start" x="1009" y="-108" font-family="Times New Roman,serif" font-size="10.00">name = &quot;Karli&quot;</text>
</g>
<!-- maumau&#45;&#45;karli -->
<g id="edge22" class="edge"><title>maumau&#45;&#45;karli</title>
<path fill="none" stroke="black" d="M981.397,-197.309C994.049,-180.328 1010.69,-157.99 1022.84,-141.694"/>
<text text-anchor="middle" x="1020.81" y="-148.987" font-family="Times New Roman,serif" font-size="10.00">players</text>
<text text-anchor="middle" x="983.424" y="-185.016" font-family="Times New Roman,serif" font-size="10.00">game</text>
</g>
</g>
</svg>
