<?xml version="1.0" encoding="UTF-8" standalone="no"?>
<!DOCTYPE svg PUBLIC "-//W3C//DTD SVG 1.1//EN"
 "http://www.w3.org/Graphics/SVG/1.1/DTD/svg11.dtd">
<!-- Generated by graphviz version 2.28.0 (20110507.0327)
 -->
<!-- Title: ObjectDiagram Pages: 1 -->
<svg width="393pt" height="98pt"
 viewBox="0.00 0.00 393.00 98.00" xmlns="http://www.w3.org/2000/svg" xmlns:xlink="http://www.w3.org/1999/xlink">
<g id="graph1" class="graph" transform="scale(1 1) rotate(0) translate(4 94)">
<title>ObjectDiagram</title>
<polygon fill="white" stroke="white" points="-4,5 -4,-94 390,-94 390,5 -4,5"/>
<!-- c2 -->
<g id="node1" class="node"><title>c2</title>
<image xlink:href="icons/worker.png" width="80px" height="61px" preserveAspectRatio="xMinYMin meet" x="24" y="-83"/>
<a xlink:href="../examples/org/sdmlib/examples/replication/maumau/ClickStartGameButton.java" xlink:title="&lt;TABLE&gt;">
<polygon fill="none" stroke="black" points="8,-4 8,-20 120,-20 120,-4 8,-4"/>
<text text-anchor="start" x="11.5" y="-10" font-family="Times New Roman,serif" font-size="10.00"> </text>
<text text-anchor="start" x="14.5" y="-10" font-family="Times New Roman,serif" font-size="10.00">c2 :ClickStartGameButton</text>
</a>
</g>
<!-- l9 -->
<g id="node2" class="node"><title>l9</title>
<a xlink:href="../../SDMLib/src/org/eclipse/swt/widgets/Label.java" xlink:title="&lt;TABLE&gt;">
<polygon fill="none" stroke="black" points="155,-46 155,-63 378,-63 378,-46 155,-46"/>
<text text-anchor="start" x="248" y="-52.5" font-family="Times New Roman,serif" font-size="10.00"> </text>
<text text-anchor="start" x="251" y="-52.5" font-family="Times New Roman,serif" font-size="10.00">l9 :Label</text>
</a>
<polygon fill="none" stroke="black" points="155,-26 155,-46 378,-46 378,-26 155,-26"/>
<text text-anchor="start" x="160" y="-34" font-family="Times New Roman,serif" font-size="10.00">text = &quot;When all players have shown up, Start Game&quot;</text>
</g>
</g>
</svg>
