<?xml version="1.0" encoding="UTF-8" standalone="no"?>
<!DOCTYPE svg PUBLIC "-//W3C//DTD SVG 1.1//EN"
 "http://www.w3.org/Graphics/SVG/1.1/DTD/svg11.dtd">
<!-- Generated by graphviz version 2.28.0 (20110507.0327)
 -->
<!-- Title: ObjectDiagram Pages: 1 -->
<svg width="1192pt" height="384pt"
 viewBox="0.00 0.00 1192.00 384.00" xmlns="http://www.w3.org/2000/svg" xmlns:xlink="http://www.w3.org/1999/xlink">
<g id="graph1" class="graph" transform="scale(1 1) rotate(0) translate(4 380)">
<title>ObjectDiagram</title>
<polygon fill="white" stroke="white" points="-4,5 -4,-380 1189,-380 1189,5 -4,5"/>
<!-- karliNode -->
<g id="node1" class="node"><title>karliNode</title>
<image xlink:href="icons/node.png" width="83px" height="61px" preserveAspectRatio="xMinYMin meet" x="10" y="-357"/>
<a xlink:href="../../SDMLib/src/org/sdmlib/replication/Node.java" xlink:title="&lt;TABLE&gt;">
<polygon fill="none" stroke="black" points="8,-278 8,-294 95,-294 95,-278 8,-278"/>
<text text-anchor="start" x="14.5" y="-284" font-family="Arial" font-size="10.00"> </text>
<text text-anchor="start" x="18.5" y="-284" font-family="Arial" font-size="10.00">karliNode :Node</text>
</a>
</g>
<!-- s9 -->
<g id="node2" class="node"><title>s9</title>
<image xlink:href="icons/worker.png" width="80px" height="61px" preserveAspectRatio="xMinYMin meet" x="167" y="-357"/>
<a xlink:href="../examples/org/sdmlib/examples/replication/maumau/ShowStartGameButtonAction.java" xlink:title="&lt;TABLE&gt;">
<polygon fill="none" stroke="black" points="129,-278 129,-294 285,-294 285,-278 129,-278"/>
<text text-anchor="start" x="132.5" y="-284" font-family="Arial" font-size="10.00"> </text>
<text text-anchor="start" x="136.5" y="-284" font-family="Arial" font-size="10.00">s9 :ShowStartGameButtonAction</text>
</a>
</g>
<!-- taskboard -->
<g id="node3" class="node"><title>taskboard</title>
<image xlink:href="icons/shared.png" width="70px" height="23px" preserveAspectRatio="xMinYMin meet" x="348.5" y="-338"/>
<a xlink:href="../../SDMLib/src/org/sdmlib/replication/TaskFlowBoard.java" xlink:title="&lt;TABLE&gt;">
<polygon fill="none" stroke="black" points="320,-297 320,-313 447,-313 447,-297 320,-297"/>
<text text-anchor="start" x="323.5" y="-303" font-family="Arial" font-size="10.00"> </text>
<text text-anchor="start" x="327.5" y="-303" font-family="Arial" font-size="10.00">taskboard :TaskFlowBoard</text>
</a>
</g>
<!-- l2 -->
<g id="node4" class="node"><title>l2</title>
<a xlink:href="../../SDMLib/src/org/sdmlib/replication/Lane.java" xlink:title="&lt;TABLE&gt;">
<polygon fill="none" stroke="black" points="121,-162 121,-179 202,-179 202,-162 121,-162"/>
<text text-anchor="start" x="142" y="-168.5" font-family="Arial" font-size="10.00"> </text>
<text text-anchor="start" x="146" y="-168.5" font-family="Arial" font-size="10.00">l2 :Lane</text>
</a>
<polygon fill="none" stroke="black" points="121,-142 121,-162 202,-162 202,-142 121,-142"/>
<text text-anchor="start" x="126" y="-150" font-family="Arial" font-size="10.00">name = &quot;server&quot;</text>
</g>
<!-- taskboard&#45;&#45;l2 -->
<g id="edge2" class="edge"><title>taskboard&#45;&#45;l2</title>
<path fill="none" stroke="black" d="M350.464,-293.289C336.043,-282.927 318.609,-271.179 302,-262 266.451,-242.353 250.962,-249.733 218,-226 201.699,-214.263 186.739,-197.107 176.239,-183.511"/>
<text text-anchor="middle" x="185.161" y="-185.528" font-family="Arial" font-size="10.00">lanes</text>
<text text-anchor="middle" x="340.631" y="-288.969" font-family="Arial" font-size="10.00">board</text>
</g>
<!-- l3 -->
<g id="node5" class="node"><title>l3</title>
<a xlink:href="../../SDMLib/src/org/sdmlib/replication/Lane.java" xlink:title="&lt;TABLE&gt;">
<polygon fill="none" stroke="black" points="236,-162 236,-179 379,-179 379,-162 236,-162"/>
<text text-anchor="start" x="288" y="-168.5" font-family="Arial" font-size="10.00"> </text>
<text text-anchor="start" x="292" y="-168.5" font-family="Arial" font-size="10.00">l3 :Lane</text>
</a>
<polygon fill="none" stroke="black" points="236,-142 236,-162 379,-162 379,-142 236,-142"/>
<text text-anchor="start" x="241" y="-150" font-family="Arial" font-size="10.00">name = &quot;play7WorkFlowLane&quot;</text>
</g>
<!-- taskboard&#45;&#45;l3 -->
<g id="edge4" class="edge"><title>taskboard&#45;&#45;l3</title>
<path fill="none" stroke="black" d="M370.958,-293.281C356.224,-263.04 331.519,-212.329 317.518,-183.589"/>
<text text-anchor="middle" x="325.286" y="-187.385" font-family="Arial" font-size="10.00">lanes</text>
<text text-anchor="middle" x="363.189" y="-284.485" font-family="Arial" font-size="10.00">board</text>
</g>
<!-- l6 -->
<g id="node7" class="node"><title>l6</title>
<a xlink:href="../../SDMLib/src/org/sdmlib/replication/Lane.java" xlink:title="&lt;TABLE&gt;">
<polygon fill="none" stroke="black" points="413,-162 413,-179 506,-179 506,-162 413,-162"/>
<text text-anchor="start" x="440" y="-168.5" font-family="Arial" font-size="10.00"> </text>
<text text-anchor="start" x="444" y="-168.5" font-family="Arial" font-size="10.00">l6 :Lane</text>
</a>
<polygon fill="none" stroke="black" points="413,-142 413,-162 506,-162 506,-142 413,-142"/>
<text text-anchor="start" x="418" y="-150" font-family="Arial" font-size="10.00">name = &quot;AbuLane&quot;</text>
</g>
<!-- taskboard&#45;&#45;l6 -->
<g id="edge6" class="edge"><title>taskboard&#45;&#45;l6</title>
<path fill="none" stroke="black" d="M395.042,-293.281C409.776,-263.04 434.481,-212.329 448.482,-183.589"/>
<text text-anchor="middle" x="448.312" y="-191.087" font-family="Arial" font-size="10.00">lanes</text>
<text text-anchor="middle" x="395.212" y="-280.783" font-family="Arial" font-size="10.00">board</text>
</g>
<!-- l1 -->
<g id="node9" class="node"><title>l1</title>
<a xlink:href="../../SDMLib/src/org/sdmlib/replication/Lane.java" xlink:title="&lt;TABLE&gt;">
<polygon fill="none" stroke="black" points="569,-162 569,-179 665,-179 665,-162 569,-162"/>
<text text-anchor="start" x="597.5" y="-168.5" font-family="Arial" font-size="10.00"> </text>
<text text-anchor="start" x="601.5" y="-168.5" font-family="Arial" font-size="10.00">l1 :Lane</text>
</a>
<polygon fill="none" stroke="black" points="569,-142 569,-162 665,-162 665,-142 569,-142"/>
<text text-anchor="start" x="574" y="-150" font-family="Arial" font-size="10.00">name = &quot;KarliLane&quot;</text>
</g>
<!-- taskboard&#45;&#45;l1 -->
<g id="edge8" class="edge"><title>taskboard&#45;&#45;l1</title>
<path fill="none" stroke="black" d="M420.223,-293.482C448.246,-274.994 487.585,-248.981 522,-226 543.004,-211.975 566.548,-196.114 584.943,-183.691"/>
<text text-anchor="middle" x="579.796" y="-189.765" font-family="Arial" font-size="10.00">lanes</text>
<text text-anchor="middle" x="425.459" y="-282.462" font-family="Arial" font-size="10.00">board</text>
</g>
<!-- b4 -->
<g id="node6" class="node"><title>b4</title>
<a xlink:href="../../SDMLib/src/org/sdmlib/replication/BoardTask.java" xlink:title="&lt;TABLE&gt;">
<polygon fill="none" stroke="black" points="244,-38 244,-55 349,-55 349,-38 244,-38"/>
<text text-anchor="start" x="262.5" y="-44.5" font-family="Arial" font-size="10.00"> </text>
<text text-anchor="start" x="266.5" y="-44.5" font-family="Arial" font-size="10.00">b4 :BoardTask</text>
</a>
<polygon fill="none" stroke="black" points="244,-4 244,-38 349,-38 349,-4 244,-4"/>
<text text-anchor="start" x="249" y="-26" font-family="Arial" font-size="10.00">name = &quot;startClients&quot;</text>
<text text-anchor="start" x="249" y="-12" font-family="Arial" font-size="10.00">status = &quot;start&quot;</text>
</g>
<!-- l3&#45;&#45;b4 -->
<g id="edge10" class="edge"><title>l3&#45;&#45;b4</title>
<path fill="none" stroke="black" d="M305.159,-138.408C303.324,-116.891 300.495,-83.7134 298.467,-59.9275"/>
<text text-anchor="middle" x="303.448" y="-66.0988" font-family="Arial" font-size="10.00">tasks</text>
<text text-anchor="middle" x="300.178" y="-127.237" font-family="Arial" font-size="10.00">lane</text>
</g>
<!-- b7 -->
<g id="node8" class="node"><title>b7</title>
<a xlink:href="../../SDMLib/src/org/sdmlib/replication/BoardTask.java" xlink:title="&lt;TABLE&gt;">
<polygon fill="none" stroke="black" points="383,-38 383,-55 536,-55 536,-38 383,-38"/>
<text text-anchor="start" x="425.5" y="-44.5" font-family="Arial" font-size="10.00"> </text>
<text text-anchor="start" x="429.5" y="-44.5" font-family="Arial" font-size="10.00">b7 :BoardTask</text>
</a>
<polygon fill="none" stroke="black" points="383,-4 383,-38 536,-38 536,-4 383,-4"/>
<text text-anchor="start" x="388" y="-26" font-family="Arial" font-size="10.00">name = &quot;showStartGameButton&quot;</text>
<text text-anchor="start" x="388" y="-12" font-family="Arial" font-size="10.00">status = &quot;start&quot;</text>
</g>
<!-- l6&#45;&#45;b7 -->
<g id="edge12" class="edge"><title>l6&#45;&#45;b7</title>
<path fill="none" stroke="black" d="M459,-138.408C459,-116.891 459,-83.7134 459,-59.9275"/>
<text text-anchor="middle" x="463.226" y="-66.4906" font-family="Arial" font-size="10.00">tasks</text>
<text text-anchor="middle" x="454.774" y="-126.845" font-family="Arial" font-size="10.00">lane</text>
</g>
<!-- b8 -->
<g id="node10" class="node"><title>b8</title>
<a xlink:href="../../SDMLib/src/org/sdmlib/replication/BoardTask.java" xlink:title="&lt;TABLE&gt;">
<polygon fill="none" stroke="black" points="570,-38 570,-55 723,-55 723,-38 570,-38"/>
<text text-anchor="start" x="612.5" y="-44.5" font-family="Arial" font-size="10.00"> </text>
<text text-anchor="start" x="616.5" y="-44.5" font-family="Arial" font-size="10.00">b8 :BoardTask</text>
</a>
<polygon fill="none" stroke="black" points="570,-4 570,-38 723,-38 723,-4 570,-4"/>
<text text-anchor="start" x="575" y="-26" font-family="Arial" font-size="10.00">name = &quot;showStartGameButton&quot;</text>
<text text-anchor="start" x="575" y="-12" font-family="Arial" font-size="10.00">status = &quot;start&quot;</text>
</g>
<!-- l1&#45;&#45;b8 -->
<g id="edge14" class="edge"><title>l1&#45;&#45;b8</title>
<path fill="none" stroke="black" d="M621.854,-138.408C626.691,-116.891 634.15,-83.7134 639.497,-59.9275"/>
<text text-anchor="middle" x="641.632" y="-67.1969" font-family="Arial" font-size="10.00">tasks</text>
<text text-anchor="middle" x="619.718" y="-126.139" font-family="Arial" font-size="10.00">lane</text>
</g>
<!-- l10 -->
<g id="node11" class="node"><title>l10</title>
<a xlink:href="../../SDMLib/src/org/eclipse/swt/widgets/Label.java" xlink:title="&lt;TABLE&gt;">
<polygon fill="none" stroke="black" points="700,-162 700,-179 943,-179 943,-162 700,-162"/>
<text text-anchor="start" x="798" y="-168.5" font-family="Arial" font-size="10.00"> </text>
<text text-anchor="start" x="802" y="-168.5" font-family="Arial" font-size="10.00">l10 :Label</text>
</a>
<polygon fill="none" stroke="black" points="700,-142 700,-162 943,-162 943,-142 700,-142"/>
<text text-anchor="start" x="705" y="-150" font-family="Arial" font-size="10.00">text = &quot;When all players have shown up, Start Game&quot;</text>
</g>
<!-- s11 -->
<g id="node12" class="node"><title>s11</title>
<image xlink:href="icons/person1.png" width="32px" height="43px" preserveAspectRatio="xMinYMin meet" x="805" y="-348"/>
<a xlink:href="../examples/org/sdmlib/examples/replication/maumau/StartGameMouseAdapter.java" xlink:title="&lt;TABLE&gt;">
<polygon fill="none" stroke="black" points="749,-287 749,-303 893,-303 893,-287 749,-287"/>
<text text-anchor="start" x="752.5" y="-293" font-family="Arial" font-size="10.00"> </text>
<text text-anchor="start" x="756.5" y="-293" font-family="Arial" font-size="10.00">s11 :StartGameMouseAdapter</text>
</a>
</g>
<!-- s11&#45;&#45;l10 -->
<g id="edge16" class="edge"><title>s11&#45;&#45;l10</title>
<path fill="none" stroke="black" d="M821,-283.379C821,-252.859 821,-209.348 821,-183.558"/>
<text text-anchor="middle" x="825.226" y="-190.121" font-family="Arial" font-size="10.00">startGameLabel</text>
</g>
<!-- maumau -->
<g id="node13" class="node"><title>maumau</title>
<image xlink:href="icons/shared.png" width="70px" height="23px" preserveAspectRatio="xMinYMin meet" x="1042.5" y="-369"/>
<a xlink:href="../examples/org/sdmlib/examples/replication/maumau/MauMau.java" xlink:title="&lt;TABLE&gt;">
<polygon fill="none" stroke="black" points="1031,-328 1031,-344 1124,-344 1124,-328 1031,-328"/>
<text text-anchor="start" x="1034.5" y="-334" font-family="Arial" font-size="10.00"> </text>
<text text-anchor="start" x="1038.5" y="-334" font-family="Arial" font-size="10.00">maumau :MauMau</text>
</a>
<polygon fill="none" stroke="black" points="1031,-266 1031,-328 1124,-328 1124,-266 1031,-266"/>
<text text-anchor="start" x="1036" y="-316" font-family="Arial" font-size="10.00">deck = &quot;&quot;</text>
<text text-anchor="start" x="1036" y="-302" font-family="Arial" font-size="10.00">stack = &quot;&quot;</text>
<text text-anchor="start" x="1036" y="-288" font-family="Arial" font-size="10.00">currentMove = &quot;&quot;</text>
<text text-anchor="start" x="1036" y="-274" font-family="Arial" font-size="10.00">duty = &quot;&quot;</text>
</g>
<!-- p5 -->
<g id="node14" class="node"><title>p5</title>
<a xlink:href="../examples/org/sdmlib/examples/replication/maumau/Player.java" xlink:title="&lt;TABLE&gt;">
<polygon fill="none" stroke="black" points="977,-204 977,-221 1060,-221 1060,-204 977,-204"/>
<text text-anchor="start" x="994" y="-210.5" font-family="Arial" font-size="10.00"> </text>
<text text-anchor="start" x="998" y="-210.5" font-family="Arial" font-size="10.00">p5 :Player</text>
</a>
<polygon fill="none" stroke="black" points="977,-100 977,-204 1060,-204 1060,-100 977,-100"/>
<text text-anchor="start" x="982" y="-192" font-family="Arial" font-size="10.00">name = &quot;Abu&quot;</text>
<text text-anchor="start" x="982" y="-178" font-family="Arial" font-size="10.00">deckOwner = &quot;&quot;</text>
<text text-anchor="start" x="982" y="-164" font-family="Arial" font-size="10.00">stackOwner = &quot;&quot;</text>
<text text-anchor="start" x="982" y="-150" font-family="Arial" font-size="10.00">next = &quot;&quot;</text>
<text text-anchor="start" x="982" y="-136" font-family="Arial" font-size="10.00">prev = &quot;&quot;</text>
<text text-anchor="start" x="982" y="-122" font-family="Arial" font-size="10.00">assignment = &quot;&quot;</text>
<text text-anchor="start" x="982" y="-108" font-family="Arial" font-size="10.00">duty = &quot;&quot;</text>
</g>
<!-- maumau&#45;&#45;p5 -->
<g id="edge18" class="edge"><title>maumau&#45;&#45;p5</title>
<path fill="none" stroke="black" d="M1055.87,-262.121C1051.4,-250.318 1046.66,-237.779 1042.1,-225.712"/>
<text text-anchor="middle" x="1049.26" y="-230.194" font-family="Arial" font-size="10.00">players</text>
<text text-anchor="middle" x="1048.71" y="-252.639" font-family="Arial" font-size="10.00">game</text>
</g>
<!-- karli -->
<g id="node15" class="node"><title>karli</title>
<a xlink:href="../examples/org/sdmlib/examples/replication/maumau/Player.java" xlink:title="&lt;TABLE&gt;">
<polygon fill="none" stroke="black" points="1094,-204 1094,-221 1177,-221 1177,-204 1094,-204"/>
<text text-anchor="start" x="1107.5" y="-210.5" font-family="Arial" font-size="10.00"> </text>
<text text-anchor="start" x="1111.5" y="-210.5" font-family="Arial" font-size="10.00">karli :Player</text>
</a>
<polygon fill="none" stroke="black" points="1094,-100 1094,-204 1177,-204 1177,-100 1094,-100"/>
<text text-anchor="start" x="1099" y="-192" font-family="Arial" font-size="10.00">name = &quot;Karli&quot;</text>
<text text-anchor="start" x="1099" y="-178" font-family="Arial" font-size="10.00">deckOwner = &quot;&quot;</text>
<text text-anchor="start" x="1099" y="-164" font-family="Arial" font-size="10.00">stackOwner = &quot;&quot;</text>
<text text-anchor="start" x="1099" y="-150" font-family="Arial" font-size="10.00">next = &quot;&quot;</text>
<text text-anchor="start" x="1099" y="-136" font-family="Arial" font-size="10.00">prev = &quot;&quot;</text>
<text text-anchor="start" x="1099" y="-122" font-family="Arial" font-size="10.00">assignment = &quot;&quot;</text>
<text text-anchor="start" x="1099" y="-108" font-family="Arial" font-size="10.00">duty = &quot;&quot;</text>
</g>
<!-- maumau&#45;&#45;karli -->
<g id="edge20" class="edge"><title>maumau&#45;&#45;karli</title>
<path fill="none" stroke="black" d="M1097.78,-262.121C1102.16,-250.318 1106.83,-237.779 1111.31,-225.712"/>
<text text-anchor="middle" x="1112.12" y="-233.18" font-family="Arial" font-size="10.00">players</text>
<text text-anchor="middle" x="1096.97" y="-249.653" font-family="Arial" font-size="10.00">game</text>
</g>
</g>
</svg>
