<?xml version="1.0" encoding="UTF-8" standalone="no"?>
<!DOCTYPE svg PUBLIC "-//W3C//DTD SVG 1.1//EN"
 "http://www.w3.org/Graphics/SVG/1.1/DTD/svg11.dtd">
<!-- Generated by graphviz version 2.28.0 (20110507.0327)
 -->
<!-- Title: ObjectDiagram Pages: 1 -->
<svg width="1121pt" height="594pt"
 viewBox="0.00 0.00 1121.13 594.00" xmlns="http://www.w3.org/2000/svg" xmlns:xlink="http://www.w3.org/1999/xlink">
<g id="graph1" class="graph" transform="scale(1 1) rotate(0) translate(4 590)">
<title>ObjectDiagram</title>
<polygon fill="white" stroke="white" points="-4,5 -4,-590 1118.13,-590 1118.13,5 -4,5"/>
<!-- karliNode -->
<g id="node1" class="node"><title>karliNode</title>
<image xlink:href="icons/node.png" width="83px" height="61px" preserveAspectRatio="xMinYMin meet" x="145.13" y="-579"/>
<a xlink:href="../../SDMLib/src/org/sdmlib/replication/Node.java" xlink:title="&lt;TABLE&gt;">
<polygon fill="none" stroke="black" points="143.13,-500 143.13,-516 230.13,-516 230.13,-500 143.13,-500"/>
<text text-anchor="start" x="149.63" y="-506" font-family="Arial" font-size="10.00"> </text>
<text text-anchor="start" x="153.63" y="-506" font-family="Arial" font-size="10.00">karliNode :Node</text>
</a>
</g>
<!-- k59 -->
<g id="node2" class="node"><title>k59</title>
<image xlink:href="icons/worker.png" width="80px" height="61px" preserveAspectRatio="xMinYMin meet" x="288.13" y="-579"/>
<a xlink:href="../examples/org/sdmlib/examples/replication/maumau/KarliDrawCardsAction.java" xlink:title="&lt;TABLE&gt;">
<polygon fill="none" stroke="black" points="264.13,-500 264.13,-516 392.13,-516 392.13,-500 264.13,-500"/>
<text text-anchor="start" x="267.63" y="-506" font-family="Arial" font-size="10.00"> </text>
<text text-anchor="start" x="271.63" y="-506" font-family="Arial" font-size="10.00">k59 :KarliDrawCardsAction</text>
</a>
</g>
<!-- maumau -->
<g id="node3" class="node"><title>maumau</title>
<image xlink:href="icons/shared.png" width="70px" height="23px" preserveAspectRatio="xMinYMin meet" x="438.63" y="-570"/>
<a xlink:href="../examples/org/sdmlib/examples/replication/maumau/MauMau.java" xlink:title="&lt;TABLE&gt;">
<polygon fill="none" stroke="black" points="427.13,-529 427.13,-545 520.13,-545 520.13,-529 427.13,-529"/>
<text text-anchor="start" x="430.63" y="-535" font-family="Arial" font-size="10.00"> </text>
<text text-anchor="start" x="434.63" y="-535" font-family="Arial" font-size="10.00">maumau :MauMau</text>
</a>
<polygon fill="none" stroke="black" points="427.13,-509 427.13,-529 520.13,-529 520.13,-509 427.13,-509"/>
<text text-anchor="start" x="432.13" y="-517" font-family="Arial" font-size="10.00">duty = &quot;&quot;</text>
</g>
<!-- c24 -->
<g id="node4" class="node"><title>c24</title>
<a xlink:href="../examples/org/sdmlib/examples/replication/maumau/Card.java" xlink:title="&lt;TABLE&gt;">
<polygon fill="none" stroke="black" points="437.13,-438 437.13,-455 509.13,-455 509.13,-438 437.13,-438"/>
<text text-anchor="start" x="449.63" y="-444.5" font-family="Arial" font-size="10.00"> </text>
<text text-anchor="start" x="453.63" y="-444.5" font-family="Arial" font-size="10.00">c24 :Card</text>
</a>
<polygon fill="none" stroke="black" points="437.13,-404 437.13,-438 509.13,-438 509.13,-404 437.13,-404"/>
<text text-anchor="start" x="442.13" y="-426" font-family="Arial" font-size="10.00">suit = &quot;Clubs&quot;</text>
<text text-anchor="start" x="442.13" y="-412" font-family="Arial" font-size="10.00">value = &quot;10&quot;</text>
</g>
<!-- maumau&#45;&#45;c24 -->
<g id="edge2" class="edge"><title>maumau&#45;&#45;c24</title>
<path fill="none" stroke="black" d="M473.13,-505.212C473.13,-490.508 473.13,-473.592 473.13,-459.627"/>
<text text-anchor="middle" x="477.357" y="-466.19" font-family="Arial" font-size="10.00">cards</text>
<text text-anchor="middle" x="468.904" y="-493.649" font-family="Arial" font-size="10.00">game</text>
</g>
<!-- karli -->
<g id="node5" class="node"><title>karli</title>
<a xlink:href="../examples/org/sdmlib/examples/replication/maumau/Player.java" xlink:title="&lt;TABLE&gt;">
<polygon fill="none" stroke="black" points="451.13,-342 451.13,-359 534.13,-359 534.13,-342 451.13,-342"/>
<text text-anchor="start" x="464.63" y="-348.5" font-family="Arial" font-size="10.00"> </text>
<text text-anchor="start" x="468.63" y="-348.5" font-family="Arial" font-size="10.00">karli :Player</text>
</a>
<polygon fill="none" stroke="black" points="451.13,-280 451.13,-342 534.13,-342 534.13,-280 451.13,-280"/>
<text text-anchor="start" x="456.13" y="-330" font-family="Arial" font-size="10.00">name = &quot;Karli&quot;</text>
<text text-anchor="start" x="456.13" y="-316" font-family="Arial" font-size="10.00">deckOwner = &quot;&quot;</text>
<text text-anchor="start" x="456.13" y="-302" font-family="Arial" font-size="10.00">stackOwner = &quot;&quot;</text>
<text text-anchor="start" x="456.13" y="-288" font-family="Arial" font-size="10.00">duty = &quot;&quot;</text>
</g>
<!-- maumau&#45;&#45;karli -->
<g id="edge20" class="edge"><title>maumau&#45;&#45;karli</title>
<path fill="none" stroke="black" d="M502.554,-505.251C512.004,-491.963 521.278,-476.112 526.13,-460 535.767,-428.005 525.893,-391.261 514.349,-363.59"/>
<text text-anchor="middle" x="521.619" y="-367.956" font-family="Arial" font-size="10.00">players_currentMove</text>
<text text-anchor="middle" x="504.261" y="-492.898" font-family="Arial" font-size="10.00">game_assignment</text>
</g>
<!-- c31 -->
<g id="node6" class="node"><title>c31</title>
<a xlink:href="../examples/org/sdmlib/examples/replication/maumau/Card.java" xlink:title="&lt;TABLE&gt;">
<polygon fill="none" stroke="black" points="51.1305,-197 51.1305,-214 131.13,-214 131.13,-197 51.1305,-197"/>
<text text-anchor="start" x="67.6305" y="-203.5" font-family="Arial" font-size="10.00"> </text>
<text text-anchor="start" x="71.6305" y="-203.5" font-family="Arial" font-size="10.00">c31 :Card</text>
</a>
<polygon fill="none" stroke="black" points="51.1305,-163 51.1305,-197 131.13,-197 131.13,-163 51.1305,-163"/>
<text text-anchor="start" x="56.1305" y="-185" font-family="Arial" font-size="10.00">suit = &quot;Spades&quot;</text>
<text text-anchor="start" x="56.1305" y="-171" font-family="Arial" font-size="10.00">value = &quot;9&quot;</text>
</g>
<!-- maumau&#45;&#45;c31 -->
<g id="edge6" class="edge"><title>maumau&#45;&#45;c31</title>
<path fill="none" stroke="black" d="M424.79,-505.439C419.585,-502.119 414.301,-498.91 409.13,-496 375.151,-476.879 360.507,-483.146 329.13,-460 232.584,-388.778 146.982,-272.514 110.216,-218.833"/>
<text text-anchor="middle" x="118.865" y="-221.352" font-family="Arial" font-size="10.00">cards</text>
<text text-anchor="middle" x="414.873" y="-501.65" font-family="Arial" font-size="10.00">game</text>
</g>
<!-- c52 -->
<g id="node7" class="node"><title>c52</title>
<a xlink:href="../examples/org/sdmlib/examples/replication/maumau/Card.java" xlink:title="&lt;TABLE&gt;">
<polygon fill="none" stroke="black" points="165.13,-197 165.13,-214 255.13,-214 255.13,-197 165.13,-197"/>
<text text-anchor="start" x="186.63" y="-203.5" font-family="Arial" font-size="10.00"> </text>
<text text-anchor="start" x="190.63" y="-203.5" font-family="Arial" font-size="10.00">c52 :Card</text>
</a>
<polygon fill="none" stroke="black" points="165.13,-163 165.13,-197 255.13,-197 255.13,-163 165.13,-163"/>
<text text-anchor="start" x="170.13" y="-185" font-family="Arial" font-size="10.00">suit = &quot;Diamonds&quot;</text>
<text text-anchor="start" x="170.13" y="-171" font-family="Arial" font-size="10.00">value = &quot;Ace&quot;</text>
</g>
<!-- maumau&#45;&#45;c52 -->
<g id="edge14" class="edge"><title>maumau&#45;&#45;c52</title>
<path fill="none" stroke="black" d="M426.019,-505.242C409.83,-492.071 392.247,-476.299 378.13,-460 309.458,-380.708 250.18,-270.388 224.179,-218.774"/>
<text text-anchor="middle" x="232.068" y="-222.418" font-family="Arial" font-size="10.00">cards</text>
<text text-anchor="middle" x="416.335" y="-500.246" font-family="Arial" font-size="10.00">game</text>
</g>
<!-- c43 -->
<g id="node8" class="node"><title>c43</title>
<a xlink:href="../examples/org/sdmlib/examples/replication/maumau/Card.java" xlink:title="&lt;TABLE&gt;">
<polygon fill="none" stroke="black" points="290.13,-197 290.13,-214 365.13,-214 365.13,-197 290.13,-197"/>
<text text-anchor="start" x="304.13" y="-203.5" font-family="Arial" font-size="10.00"> </text>
<text text-anchor="start" x="308.13" y="-203.5" font-family="Arial" font-size="10.00">c43 :Card</text>
</a>
<polygon fill="none" stroke="black" points="290.13,-163 290.13,-197 365.13,-197 365.13,-163 290.13,-163"/>
<text text-anchor="start" x="295.13" y="-185" font-family="Arial" font-size="10.00">suit = &quot;Hearts&quot;</text>
<text text-anchor="start" x="295.13" y="-171" font-family="Arial" font-size="10.00">value = &quot;King&quot;</text>
</g>
<!-- maumau&#45;&#45;c43 -->
<g id="edge10" class="edge"><title>maumau&#45;&#45;c43</title>
<path fill="none" stroke="black" d="M438.675,-505.278C427.005,-491.993 414.757,-476.137 406.13,-460 362.498,-378.378 340.174,-269.649 331.521,-218.669"/>
<text text-anchor="middle" x="337.269" y="-224.352" font-family="Arial" font-size="10.00">cards</text>
<text text-anchor="middle" x="429.548" y="-498.691" font-family="Arial" font-size="10.00">game</text>
</g>
<!-- c35 -->
<g id="node9" class="node"><title>c35</title>
<a xlink:href="../examples/org/sdmlib/examples/replication/maumau/Card.java" xlink:title="&lt;TABLE&gt;">
<polygon fill="none" stroke="black" points="556.13,-197 556.13,-214 636.13,-214 636.13,-197 556.13,-197"/>
<text text-anchor="start" x="572.63" y="-203.5" font-family="Arial" font-size="10.00"> </text>
<text text-anchor="start" x="576.63" y="-203.5" font-family="Arial" font-size="10.00">c35 :Card</text>
</a>
<polygon fill="none" stroke="black" points="556.13,-163 556.13,-197 636.13,-197 636.13,-163 556.13,-163"/>
<text text-anchor="start" x="561.13" y="-185" font-family="Arial" font-size="10.00">suit = &quot;Spades&quot;</text>
<text text-anchor="start" x="561.13" y="-171" font-family="Arial" font-size="10.00">value = &quot;King&quot;</text>
</g>
<!-- maumau&#45;&#45;c35 -->
<g id="edge8" class="edge"><title>maumau&#45;&#45;c35</title>
<path fill="none" stroke="black" d="M509.226,-505.345C521.037,-492.185 533.157,-476.392 541.13,-460 580.783,-378.48 591.868,-269.702 594.952,-218.689"/>
<text text-anchor="middle" x="598.535" y="-225.525" font-family="Arial" font-size="10.00">cards</text>
<text text-anchor="middle" x="512.049" y="-493.252" font-family="Arial" font-size="10.00">game</text>
</g>
<!-- c44 -->
<g id="node10" class="node"><title>c44</title>
<a xlink:href="../examples/org/sdmlib/examples/replication/maumau/Card.java" xlink:title="&lt;TABLE&gt;">
<polygon fill="none" stroke="black" points="671.13,-197 671.13,-214 746.13,-214 746.13,-197 671.13,-197"/>
<text text-anchor="start" x="685.13" y="-203.5" font-family="Arial" font-size="10.00"> </text>
<text text-anchor="start" x="689.13" y="-203.5" font-family="Arial" font-size="10.00">c44 :Card</text>
</a>
<polygon fill="none" stroke="black" points="671.13,-163 671.13,-197 746.13,-197 746.13,-163 671.13,-163"/>
<text text-anchor="start" x="676.13" y="-185" font-family="Arial" font-size="10.00">suit = &quot;Hearts&quot;</text>
<text text-anchor="start" x="676.13" y="-171" font-family="Arial" font-size="10.00">value = &quot;Ace&quot;</text>
</g>
<!-- maumau&#45;&#45;c44 -->
<g id="edge12" class="edge"><title>maumau&#45;&#45;c44</title>
<path fill="none" stroke="black" d="M521.57,-505.426C537.261,-492.496 553.784,-476.828 566.13,-460 618.776,-388.245 600.995,-353.282 645.13,-276 656.604,-255.91 671.893,-234.935 684.536,-218.73"/>
<text text-anchor="middle" x="682.335" y="-225.984" font-family="Arial" font-size="10.00">cards</text>
<text text-anchor="middle" x="525.804" y="-493.866" font-family="Arial" font-size="10.00">game</text>
</g>
<!-- c29 -->
<g id="node11" class="node"><title>c29</title>
<a xlink:href="../examples/org/sdmlib/examples/replication/maumau/Card.java" xlink:title="&lt;TABLE&gt;">
<polygon fill="none" stroke="black" points="780.13,-197 780.13,-214 860.13,-214 860.13,-197 780.13,-197"/>
<text text-anchor="start" x="796.63" y="-203.5" font-family="Arial" font-size="10.00"> </text>
<text text-anchor="start" x="800.63" y="-203.5" font-family="Arial" font-size="10.00">c29 :Card</text>
</a>
<polygon fill="none" stroke="black" points="780.13,-163 780.13,-197 860.13,-197 860.13,-163 780.13,-163"/>
<text text-anchor="start" x="785.13" y="-185" font-family="Arial" font-size="10.00">suit = &quot;Spades&quot;</text>
<text text-anchor="start" x="785.13" y="-171" font-family="Arial" font-size="10.00">value = &quot;7&quot;</text>
</g>
<!-- maumau&#45;&#45;c29 -->
<g id="edge4" class="edge"><title>maumau&#45;&#45;c29</title>
<path fill="none" stroke="black" d="M527.403,-509.612C549.783,-495.866 575.298,-478.548 596.13,-460 682.788,-382.845 764.513,-271.007 800.661,-218.829"/>
<text text-anchor="middle" x="798.916" y="-226.175" font-family="Arial" font-size="10.00">cards</text>
<text text-anchor="middle" x="532.868" y="-498.737" font-family="Arial" font-size="10.00">game</text>
</g>
<!-- p12 -->
<g id="node12" class="node"><title>p12</title>
<a xlink:href="../examples/org/sdmlib/examples/replication/maumau/Player.java" xlink:title="&lt;TABLE&gt;">
<polygon fill="none" stroke="black" points="399.13,-218 399.13,-235 484.13,-235 484.13,-218 399.13,-218"/>
<text text-anchor="start" x="414.63" y="-224.5" font-family="Arial" font-size="10.00"> </text>
<text text-anchor="start" x="418.63" y="-224.5" font-family="Arial" font-size="10.00">p12 :Player</text>
</a>
<polygon fill="none" stroke="black" points="399.13,-142 399.13,-218 484.13,-218 484.13,-142 399.13,-142"/>
<text text-anchor="start" x="404.13" y="-206" font-family="Arial" font-size="10.00">name = &quot;Sabine&quot;</text>
<text text-anchor="start" x="404.13" y="-192" font-family="Arial" font-size="10.00">deckOwner = &quot;&quot;</text>
<text text-anchor="start" x="404.13" y="-178" font-family="Arial" font-size="10.00">stackOwner = &quot;&quot;</text>
<text text-anchor="start" x="404.13" y="-164" font-family="Arial" font-size="10.00">assignment = &quot;&quot;</text>
<text text-anchor="start" x="404.13" y="-150" font-family="Arial" font-size="10.00">duty = &quot;&quot;</text>
</g>
<!-- maumau&#45;&#45;p12 -->
<g id="edge22" class="edge"><title>maumau&#45;&#45;p12</title>
<path fill="none" stroke="black" d="M443.707,-505.251C434.257,-491.963 424.983,-476.112 420.13,-460 397.757,-385.719 412.948,-295.027 426.575,-239.937"/>
<text text-anchor="middle" x="428.63" y="-247.224" font-family="Arial" font-size="10.00">players</text>
<text text-anchor="middle" x="435.062" y="-497.725" font-family="Arial" font-size="10.00">game</text>
</g>
<!-- p5 -->
<g id="node13" class="node"><title>p5</title>
<a xlink:href="../examples/org/sdmlib/examples/replication/maumau/Player.java" xlink:title="&lt;TABLE&gt;">
<polygon fill="none" stroke="black" points="400.13,-80 400.13,-97 483.13,-97 483.13,-80 400.13,-80"/>
<text text-anchor="start" x="417.13" y="-86.5" font-family="Arial" font-size="10.00"> </text>
<text text-anchor="start" x="421.13" y="-86.5" font-family="Arial" font-size="10.00">p5 :Player</text>
</a>
<polygon fill="none" stroke="black" points="400.13,-4 400.13,-80 483.13,-80 483.13,-4 400.13,-4"/>
<text text-anchor="start" x="405.13" y="-68" font-family="Arial" font-size="10.00">name = &quot;Abu&quot;</text>
<text text-anchor="start" x="405.13" y="-54" font-family="Arial" font-size="10.00">deckOwner = &quot;&quot;</text>
<text text-anchor="start" x="405.13" y="-40" font-family="Arial" font-size="10.00">stackOwner = &quot;&quot;</text>
<text text-anchor="start" x="405.13" y="-26" font-family="Arial" font-size="10.00">assignment = &quot;&quot;</text>
<text text-anchor="start" x="405.13" y="-12" font-family="Arial" font-size="10.00">duty = &quot;&quot;</text>
</g>
<!-- maumau&#45;&#45;p5 -->
<g id="edge18" class="edge"><title>maumau&#45;&#45;p5</title>
<path fill="none" stroke="black" d="M427.118,-505.464C421.246,-501.936 415.172,-498.674 409.13,-496 345.251,-467.726 317.903,-492.622 256.13,-460 102.421,-378.826 -75.3436,-273.023 34.1305,-138 78.6471,-83.094 293.052,-61.8724 391.508,-54.9247"/>
<text text-anchor="middle" x="382.798" y="-57.3373" font-family="Arial" font-size="10.00">players</text>
<text text-anchor="middle" x="417.167" y="-501.968" font-family="Arial" font-size="10.00">game</text>
</g>
<!-- h19 -->
<g id="node14" class="node"><title>h19</title>
<a xlink:href="../examples/org/sdmlib/examples/replication/maumau/Holder.java" xlink:title="&lt;TABLE&gt;">
<polygon fill="none" stroke="black" points="696.13,-431 696.13,-448 779.13,-448 779.13,-431 696.13,-431"/>
<text text-anchor="start" x="710.63" y="-437.5" font-family="Arial" font-size="10.00"> </text>
<text text-anchor="start" x="714.63" y="-437.5" font-family="Arial" font-size="10.00">h19 :Holder</text>
</a>
<polygon fill="none" stroke="black" points="696.13,-411 696.13,-431 779.13,-431 779.13,-411 696.13,-411"/>
<text text-anchor="start" x="701.13" y="-419" font-family="Arial" font-size="10.00">stackOwner = &quot;&quot;</text>
</g>
<!-- maumau&#45;&#45;h19 -->
<g id="edge16" class="edge"><title>maumau&#45;&#45;h19</title>
<path fill="none" stroke="black" d="M527.728,-518.925C568.088,-503.162 624.281,-480.825 673.13,-460 678.629,-457.656 684.367,-455.147 690.052,-452.622"/>
<text text-anchor="middle" x="683.481" y="-457.659" font-family="Arial" font-size="10.00">deck</text>
<text text-anchor="middle" x="534.626" y="-509.186" font-family="Arial" font-size="10.00">deckOwner</text>
</g>
<!-- c24&#45;&#45;karli -->
<g id="edge24" class="edge"><title>c24&#45;&#45;karli</title>
<path fill="none" stroke="black" d="M478.172,-400.342C480.151,-389.093 482.464,-375.947 484.631,-363.629"/>
<text text-anchor="middle" x="487.223" y="-370.787" font-family="Arial" font-size="10.00">holder</text>
<text text-anchor="middle" x="475.58" y="-388.183" font-family="Arial" font-size="10.00">cards</text>
</g>
<!-- karli&#45;&#45;c31 -->
<g id="edge26" class="edge"><title>karli&#45;&#45;c31</title>
<path fill="none" stroke="black" d="M442.829,-315.303C373.612,-308.467 245.232,-289.68 148.13,-240 137.466,-234.544 127.181,-226.649 118.353,-218.738"/>
<text text-anchor="middle" x="127.948" y="-219.057" font-family="Arial" font-size="10.00">cards</text>
<text text-anchor="middle" x="433.364" y="-316.03" font-family="Arial" font-size="10.00">holder</text>
</g>
<!-- karli&#45;&#45;c52 -->
<g id="edge28" class="edge"><title>karli&#45;&#45;c52</title>
<path fill="none" stroke="black" d="M442.474,-306.321C396.503,-293.41 327.153,-270.901 272.13,-240 261.521,-234.041 250.879,-226.271 241.481,-218.639"/>
<text text-anchor="middle" x="251.194" y="-218.516" font-family="Arial" font-size="10.00">cards</text>
<text text-anchor="middle" x="432.596" y="-305.375" font-family="Arial" font-size="10.00">holder</text>
</g>
<!-- karli&#45;&#45;c43 -->
<g id="edge30" class="edge"><title>karli&#45;&#45;c43</title>
<path fill="none" stroke="black" d="M442.774,-285.902C423.168,-272.236 400.674,-255.894 381.13,-240 373.002,-233.39 364.541,-225.884 356.793,-218.735"/>
<text text-anchor="middle" x="366.326" y="-219.255" font-family="Arial" font-size="10.00">cards</text>
<text text-anchor="middle" x="432.927" y="-281.664" font-family="Arial" font-size="10.00">holder</text>
</g>
<!-- karli&#45;&#45;c35 -->
<g id="edge32" class="edge"><title>karli&#45;&#45;c35</title>
<path fill="none" stroke="black" d="M526.472,-276.403C541.737,-257.469 559.305,-235.677 572.98,-218.716"/>
<text text-anchor="middle" x="570.582" y="-225.924" font-family="Arial" font-size="10.00">cards</text>
<text text-anchor="middle" x="528.87" y="-264.195" font-family="Arial" font-size="10.00">holder</text>
</g>
<!-- karli&#45;&#45;c44 -->
<g id="edge34" class="edge"><title>karli&#45;&#45;c44</title>
<path fill="none" stroke="black" d="M541.647,-299.046C574.543,-284.765 617.982,-263.891 653.13,-240 662.309,-233.761 671.527,-226.071 679.723,-218.61"/>
<text text-anchor="middle" x="675.823" y="-225.317" font-family="Arial" font-size="10.00">cards</text>
<text text-anchor="middle" x="548.237" y="-289.025" font-family="Arial" font-size="10.00">holder</text>
</g>
<!-- karli&#45;&#45;c29 -->
<g id="edge36" class="edge"><title>karli&#45;&#45;c29</title>
<path fill="none" stroke="black" d="M541.541,-305.128C616.729,-283.935 752.248,-245.374 762.13,-240 772.642,-234.284 782.931,-226.407 791.855,-218.596"/>
<text text-anchor="middle" x="787.752" y="-225.215" font-family="Arial" font-size="10.00">cards</text>
<text text-anchor="middle" x="549.114" y="-296.098" font-family="Arial" font-size="10.00">holder</text>
</g>
<!-- karli&#45;&#45;p12 -->
<g id="edge38" class="edge"><title>karli&#45;&#45;p12</title>
<path fill="none" stroke="black" d="M475.29,-276.403C470.648,-264.661 465.571,-251.82 460.785,-239.713"/>
<text text-anchor="middle" x="468.047" y="-244.088" font-family="Arial" font-size="10.00">next</text>
<text text-anchor="middle" x="468.028" y="-267.029" font-family="Arial" font-size="10.00">prev</text>
</g>
<!-- karli&#45;&#45;p5 -->
<g id="edge40" class="edge"><title>karli&#45;&#45;p5</title>
<path fill="none" stroke="black" d="M502.029,-276.265C508.814,-238.913 514.289,-183.666 500.13,-138 496.216,-125.375 489.737,-112.957 482.473,-101.655"/>
<text text-anchor="middle" x="490.877" y="-104.576" font-family="Arial" font-size="10.00">prev</text>
<text text-anchor="middle" x="499.37" y="-264.125" font-family="Arial" font-size="10.00">next</text>
</g>
<!-- p12&#45;&#45;p5 -->
<g id="edge42" class="edge"><title>p12&#45;&#45;p5</title>
<path fill="none" stroke="black" d="M441.13,-138.131C441.13,-126.305 441.13,-113.689 441.13,-101.863"/>
<text text-anchor="middle" x="445.357" y="-108.426" font-family="Arial" font-size="10.00">next</text>
<text text-anchor="middle" x="436.904" y="-126.568" font-family="Arial" font-size="10.00">prev</text>
</g>
<!-- topCardOnDeckControler -->
<g id="node15" class="node"><title>topCardOnDeckControler</title>
<image xlink:href="icons/person1.png" width="32px" height="43px" preserveAspectRatio="xMinYMin meet" x="922.63" y="-349"/>
<a xlink:href="../examples/org/sdmlib/examples/replication/maumau/CardControler.java" xlink:title="&lt;TABLE&gt;">
<polygon fill="none" stroke="black" points="846.13,-288 846.13,-304 1031.13,-304 1031.13,-288 846.13,-288"/>
<text text-anchor="start" x="849.63" y="-294" font-family="Arial" font-size="10.00"> </text>
<text text-anchor="start" x="853.63" y="-294" font-family="Arial" font-size="10.00">topCardOnDeckControler :CardControler</text>
</a>
</g>
<!-- topCardOnDeckControler&#45;&#45;c29 -->
<g id="edge44" class="edge"><title>topCardOnDeckControler&#45;&#45;c29</title>
<path fill="none" stroke="black" d="M906.509,-284.43C887.667,-263.832 864.038,-238.001 846.259,-218.564"/>
<text text-anchor="middle" x="855.494" y="-219.899" font-family="Arial" font-size="10.00">card</text>
</g>
<!-- l66 -->
<g id="node16" class="node"><title>l66</title>
<a xlink:href="../../SDMLib/src/org/eclipse/swt/widgets/Label.java" xlink:title="&lt;TABLE&gt;">
<polygon fill="none" stroke="black" points="1017.13,-190 1017.13,-207 1106.13,-207 1106.13,-190 1017.13,-190"/>
<text text-anchor="start" x="1038.13" y="-196.5" font-family="Arial" font-size="10.00"> </text>
<text text-anchor="start" x="1042.13" y="-196.5" font-family="Arial" font-size="10.00">l66 :Label</text>
</a>
<polygon fill="none" stroke="black" points="1017.13,-170 1017.13,-190 1106.13,-190 1106.13,-170 1017.13,-170"/>
<text text-anchor="start" x="1022.13" y="-178" font-family="Arial" font-size="10.00">text = &quot;7 Spades&quot;</text>
</g>
<!-- topCardOnDeckControler&#45;&#45;l66 -->
<g id="edge46" class="edge"><title>topCardOnDeckControler&#45;&#45;l66</title>
<path fill="none" stroke="black" d="M971.092,-284.43C993.152,-261.295 1021.51,-231.557 1040.45,-211.694"/>
<text text-anchor="middle" x="1037.25" y="-218.67" font-family="Arial" font-size="10.00">label</text>
</g>
<!-- c67 -->
<g id="node17" class="node"><title>c67</title>
<a xlink:href="../examples/org/sdmlib/examples/replication/maumau/CardListener.java" xlink:title="&lt;TABLE&gt;">
<polygon fill="none" stroke="black" points="894.13,-180 894.13,-197 982.13,-197 982.13,-180 894.13,-180"/>
<text text-anchor="start" x="897.63" y="-186.5" font-family="Arial" font-size="10.00"> </text>
<text text-anchor="start" x="901.63" y="-186.5" font-family="Arial" font-size="10.00">c67 :CardListener</text>
</a>
</g>
<!-- topCardOnDeckControler&#45;&#45;c67 -->
<g id="edge48" class="edge"><title>topCardOnDeckControler&#45;&#45;c67</title>
<path fill="none" stroke="black" d="M938.13,-284.43C938.13,-259.503 938.13,-226.913 938.13,-207.266"/>
<text text-anchor="middle" x="942.357" y="-213.829" font-family="Arial" font-size="10.00">listener</text>
</g>
</g>
</svg>
