<?xml version="1.0" encoding="UTF-8" standalone="no"?>
<!DOCTYPE svg PUBLIC "-//W3C//DTD SVG 1.1//EN"
 "http://www.w3.org/Graphics/SVG/1.1/DTD/svg11.dtd">
<!-- Generated by graphviz version 2.28.0 (20110507.0327)
 -->
<!-- Title: ObjectDiagram Pages: 1 -->
<svg width="1254pt" height="276pt"
 viewBox="0.00 0.00 1254.00 276.00" xmlns="http://www.w3.org/2000/svg" xmlns:xlink="http://www.w3.org/1999/xlink">
<g id="graph1" class="graph" transform="scale(1 1) rotate(0) translate(4 272)">
<title>ObjectDiagram</title>
<polygon fill="white" stroke="white" points="-4,5 -4,-272 1251,-272 1251,5 -4,5"/>
<!-- karliNode -->
<g id="node1" class="node"><title>karliNode</title>
<image xlink:href="icons/node.png" width="83px" height="61px" preserveAspectRatio="xMinYMin meet" x="10" y="-261"/>
<a xlink:href="../../SDMLib/src/org/sdmlib/replication/Node.java" xlink:title="&lt;TABLE&gt;">
<polygon fill="none" stroke="black" points="8,-182 8,-198 95,-198 95,-182 8,-182"/>
<text text-anchor="start" x="14.5" y="-188" font-family="Arial" font-size="10.00"> </text>
<text text-anchor="start" x="18.5" y="-188" font-family="Arial" font-size="10.00">karliNode :Node</text>
</a>
</g>
<!-- s11 -->
<g id="node2" class="node"><title>s11</title>
<image xlink:href="icons/worker.png" width="80px" height="61px" preserveAspectRatio="xMinYMin meet" x="161" y="-261"/>
<a xlink:href="../examples/org/sdmlib/examples/replication/maumau/StartGameMouseAdapter.java" xlink:title="&lt;TABLE&gt;">
<polygon fill="none" stroke="black" points="129,-182 129,-198 273,-198 273,-182 129,-182"/>
<text text-anchor="start" x="132.5" y="-188" font-family="Arial" font-size="10.00"> </text>
<text text-anchor="start" x="136.5" y="-188" font-family="Arial" font-size="10.00">s11 :StartGameMouseAdapter</text>
</a>
</g>
<!-- l10 -->
<g id="node3" class="node"><title>l10</title>
<a xlink:href="../../SDMLib/src/org/eclipse/swt/widgets/Label.java" xlink:title="&lt;TABLE&gt;">
<polygon fill="none" stroke="black" points="80,-120 80,-137 323,-137 323,-120 80,-120"/>
<text text-anchor="start" x="178" y="-126.5" font-family="Arial" font-size="10.00"> </text>
<text text-anchor="start" x="182" y="-126.5" font-family="Arial" font-size="10.00">l10 :Label</text>
</a>
<polygon fill="none" stroke="black" points="80,-100 80,-120 323,-120 323,-100 80,-100"/>
<text text-anchor="start" x="85" y="-108" font-family="Arial" font-size="10.00">text = &quot;When all players have shown up, Start Game&quot;</text>
</g>
<!-- s11&#45;&#45;l10 -->
<g id="edge2" class="edge"><title>s11&#45;&#45;l10</title>
<path fill="none" stroke="black" d="M201,-178.447C201,-165.668 201,-152.252 201,-141.501"/>
<text text-anchor="middle" x="205.226" y="-148.064" font-family="Arial" font-size="10.00">startGameLabel</text>
</g>
<!-- taskboard -->
<g id="node4" class="node"><title>taskboard</title>
<image xlink:href="icons/shared.png" width="70px" height="23px" preserveAspectRatio="xMinYMin meet" x="781.5" y="-242"/>
<a xlink:href="../../SDMLib/src/org/sdmlib/replication/TaskFlowBoard.java" xlink:title="&lt;TABLE&gt;">
<polygon fill="none" stroke="black" points="753,-201 753,-217 880,-217 880,-201 753,-201"/>
<text text-anchor="start" x="756.5" y="-207" font-family="Arial" font-size="10.00"> </text>
<text text-anchor="start" x="760.5" y="-207" font-family="Arial" font-size="10.00">taskboard :TaskFlowBoard</text>
</a>
</g>
<!-- l2 -->
<g id="node5" class="node"><title>l2</title>
<a xlink:href="../../SDMLib/src/org/sdmlib/replication/Lane.java" xlink:title="&lt;TABLE&gt;">
<polygon fill="none" stroke="black" points="357,-120 357,-137 438,-137 438,-120 357,-120"/>
<text text-anchor="start" x="378" y="-126.5" font-family="Arial" font-size="10.00"> </text>
<text text-anchor="start" x="382" y="-126.5" font-family="Arial" font-size="10.00">l2 :Lane</text>
</a>
<polygon fill="none" stroke="black" points="357,-100 357,-120 438,-120 438,-100 357,-100"/>
<text text-anchor="start" x="362" y="-108" font-family="Arial" font-size="10.00">name = &quot;server&quot;</text>
</g>
<!-- taskboard&#45;&#45;l2 -->
<g id="edge4" class="edge"><title>taskboard&#45;&#45;l2</title>
<path fill="none" stroke="black" d="M744.447,-204.581C659.135,-183.813 518.882,-149.671 445.379,-131.777"/>
<text text-anchor="middle" x="455.184" y="-127.315" font-family="Arial" font-size="10.00">lanes</text>
<text text-anchor="middle" x="734.642" y="-204.044" font-family="Arial" font-size="10.00">board</text>
</g>
<!-- l3 -->
<g id="node7" class="node"><title>l3</title>
<a xlink:href="../../SDMLib/src/org/sdmlib/replication/Lane.java" xlink:title="&lt;TABLE&gt;">
<polygon fill="none" stroke="black" points="552,-120 552,-137 695,-137 695,-120 552,-120"/>
<text text-anchor="start" x="604" y="-126.5" font-family="Arial" font-size="10.00"> </text>
<text text-anchor="start" x="608" y="-126.5" font-family="Arial" font-size="10.00">l3 :Lane</text>
</a>
<polygon fill="none" stroke="black" points="552,-100 552,-120 695,-120 695,-100 552,-100"/>
<text text-anchor="start" x="557" y="-108" font-family="Arial" font-size="10.00">name = &quot;play7WorkFlowLane&quot;</text>
</g>
<!-- taskboard&#45;&#45;l3 -->
<g id="edge6" class="edge"><title>taskboard&#45;&#45;l3</title>
<path fill="none" stroke="black" d="M769.28,-197.309C737.039,-180.269 694.589,-157.835 663.728,-141.524"/>
<text text-anchor="middle" x="673.715" y="-139.523" font-family="Arial" font-size="10.00">lanes</text>
<text text-anchor="middle" x="759.293" y="-194.31" font-family="Arial" font-size="10.00">board</text>
</g>
<!-- l6 -->
<g id="node10" class="node"><title>l6</title>
<a xlink:href="../../SDMLib/src/org/sdmlib/replication/Lane.java" xlink:title="&lt;TABLE&gt;">
<polygon fill="none" stroke="black" points="770,-120 770,-137 863,-137 863,-120 770,-120"/>
<text text-anchor="start" x="797" y="-126.5" font-family="Arial" font-size="10.00"> </text>
<text text-anchor="start" x="801" y="-126.5" font-family="Arial" font-size="10.00">l6 :Lane</text>
</a>
<polygon fill="none" stroke="black" points="770,-100 770,-120 863,-120 863,-100 770,-100"/>
<text text-anchor="start" x="775" y="-108" font-family="Arial" font-size="10.00">name = &quot;AbuLane&quot;</text>
</g>
<!-- taskboard&#45;&#45;l6 -->
<g id="edge8" class="edge"><title>taskboard&#45;&#45;l6</title>
<path fill="none" stroke="black" d="M816,-197.309C816,-180.328 816,-157.99 816,-141.694"/>
<text text-anchor="middle" x="820.226" y="-148.257" font-family="Arial" font-size="10.00">lanes</text>
<text text-anchor="middle" x="811.774" y="-185.746" font-family="Arial" font-size="10.00">board</text>
</g>
<!-- l1 -->
<g id="node12" class="node"><title>l1</title>
<a xlink:href="../../SDMLib/src/org/sdmlib/replication/Lane.java" xlink:title="&lt;TABLE&gt;">
<polygon fill="none" stroke="black" points="926,-120 926,-137 1022,-137 1022,-120 926,-120"/>
<text text-anchor="start" x="954.5" y="-126.5" font-family="Arial" font-size="10.00"> </text>
<text text-anchor="start" x="958.5" y="-126.5" font-family="Arial" font-size="10.00">l1 :Lane</text>
</a>
<polygon fill="none" stroke="black" points="926,-100 926,-120 1022,-120 1022,-100 926,-100"/>
<text text-anchor="start" x="931" y="-108" font-family="Arial" font-size="10.00">name = &quot;KarliLane&quot;</text>
</g>
<!-- taskboard&#45;&#45;l1 -->
<g id="edge10" class="edge"><title>taskboard&#45;&#45;l1</title>
<path fill="none" stroke="black" d="M854.247,-197.309C880.642,-180.269 915.393,-157.835 940.658,-141.524"/>
<text text-anchor="middle" x="935.336" y="-147.491" font-family="Arial" font-size="10.00">lanes</text>
<text text-anchor="middle" x="859.569" y="-186.343" font-family="Arial" font-size="10.00">board</text>
</g>
<!-- l13 -->
<g id="node15" class="node"><title>l13</title>
<a xlink:href="../../SDMLib/src/org/sdmlib/replication/Lane.java" xlink:title="&lt;TABLE&gt;">
<polygon fill="none" stroke="black" points="1056,-120 1056,-137 1162,-137 1162,-120 1056,-120"/>
<text text-anchor="start" x="1087" y="-126.5" font-family="Arial" font-size="10.00"> </text>
<text text-anchor="start" x="1091" y="-126.5" font-family="Arial" font-size="10.00">l13 :Lane</text>
</a>
<polygon fill="none" stroke="black" points="1056,-100 1056,-120 1162,-120 1162,-100 1056,-100"/>
<text text-anchor="start" x="1061" y="-108" font-family="Arial" font-size="10.00">name = &quot;SabineLane&quot;</text>
</g>
<!-- taskboard&#45;&#45;l13 -->
<g id="edge12" class="edge"><title>taskboard&#45;&#45;l13</title>
<path fill="none" stroke="black" d="M886.554,-197.439C935.83,-180.285 1000.95,-157.615 1047.99,-141.24"/>
<text text-anchor="middle" x="1040.82" y="-145.711" font-family="Arial" font-size="10.00">lanes</text>
<text text-anchor="middle" x="893.723" y="-187.968" font-family="Arial" font-size="10.00">board</text>
</g>
<!-- b17 -->
<g id="node6" class="node"><title>b17</title>
<a xlink:href="../../SDMLib/src/org/sdmlib/replication/BoardTask.java" xlink:title="&lt;TABLE&gt;">
<polygon fill="none" stroke="black" points="267,-38 267,-55 368,-55 368,-38 267,-38"/>
<text text-anchor="start" x="281" y="-44.5" font-family="Arial" font-size="10.00"> </text>
<text text-anchor="start" x="285" y="-44.5" font-family="Arial" font-size="10.00">b17 :BoardTask</text>
</a>
<polygon fill="none" stroke="black" points="267,-4 267,-38 368,-38 368,-4 267,-4"/>
<text text-anchor="start" x="272" y="-26" font-family="Arial" font-size="10.00">name = &quot;startGame&quot;</text>
<text text-anchor="start" x="272" y="-12" font-family="Arial" font-size="10.00">status = &quot;&quot;</text>
</g>
<!-- l2&#45;&#45;b17 -->
<g id="edge14" class="edge"><title>l2&#45;&#45;b17</title>
<path fill="none" stroke="black" d="M377.225,-96.4944C367.045,-85.4243 354.494,-71.7752 343.49,-59.8074"/>
<text text-anchor="middle" x="352.735" y="-61.1181" font-family="Arial" font-size="10.00">tasks</text>
<text text-anchor="middle" x="367.979" y="-90.1836" font-family="Arial" font-size="10.00">lane</text>
</g>
<!-- b4 -->
<g id="node8" class="node"><title>b4</title>
<a xlink:href="../../SDMLib/src/org/sdmlib/replication/BoardTask.java" xlink:title="&lt;TABLE&gt;">
<polygon fill="none" stroke="black" points="402,-38 402,-55 507,-55 507,-38 402,-38"/>
<text text-anchor="start" x="420.5" y="-44.5" font-family="Arial" font-size="10.00"> </text>
<text text-anchor="start" x="424.5" y="-44.5" font-family="Arial" font-size="10.00">b4 :BoardTask</text>
</a>
<polygon fill="none" stroke="black" points="402,-4 402,-38 507,-38 507,-4 402,-4"/>
<text text-anchor="start" x="407" y="-26" font-family="Arial" font-size="10.00">name = &quot;startClients&quot;</text>
<text text-anchor="start" x="407" y="-12" font-family="Arial" font-size="10.00">status = &quot;start&quot;</text>
</g>
<!-- l3&#45;&#45;b4 -->
<g id="edge16" class="edge"><title>l3&#45;&#45;b4</title>
<path fill="none" stroke="black" d="M581.225,-96.4944C559.623,-85.3739 532.966,-71.6511 509.642,-59.6443"/>
<text text-anchor="middle" x="519.635" y="-57.535" font-family="Arial" font-size="10.00">tasks</text>
<text text-anchor="middle" x="571.232" y="-93.6037" font-family="Arial" font-size="10.00">lane</text>
</g>
<!-- b14 -->
<g id="node9" class="node"><title>b14</title>
<a xlink:href="../../SDMLib/src/org/sdmlib/replication/BoardTask.java" xlink:title="&lt;TABLE&gt;">
<polygon fill="none" stroke="black" points="541,-38 541,-55 705,-55 705,-38 541,-38"/>
<text text-anchor="start" x="586.5" y="-44.5" font-family="Arial" font-size="10.00"> </text>
<text text-anchor="start" x="590.5" y="-44.5" font-family="Arial" font-size="10.00">b14 :BoardTask</text>
</a>
<polygon fill="none" stroke="black" points="541,-4 541,-38 705,-38 705,-4 541,-4"/>
<text text-anchor="start" x="546" y="-26" font-family="Arial" font-size="10.00">name = &quot;askKarliToStartTheGame&quot;</text>
<text text-anchor="start" x="546" y="-12" font-family="Arial" font-size="10.00">status = &quot;start&quot;</text>
</g>
<!-- l3&#45;&#45;b14 -->
<g id="edge18" class="edge"><title>l3&#45;&#45;b14</title>
<path fill="none" stroke="black" d="M623,-96.4944C623,-85.4243 623,-71.7752 623,-59.8074"/>
<text text-anchor="middle" x="627.226" y="-66.3705" font-family="Arial" font-size="10.00">tasks</text>
<text text-anchor="middle" x="618.774" y="-84.9313" font-family="Arial" font-size="10.00">lane</text>
</g>
<!-- b7 -->
<g id="node11" class="node"><title>b7</title>
<a xlink:href="../../SDMLib/src/org/sdmlib/replication/BoardTask.java" xlink:title="&lt;TABLE&gt;">
<polygon fill="none" stroke="black" points="740,-38 740,-55 893,-55 893,-38 740,-38"/>
<text text-anchor="start" x="782.5" y="-44.5" font-family="Arial" font-size="10.00"> </text>
<text text-anchor="start" x="786.5" y="-44.5" font-family="Arial" font-size="10.00">b7 :BoardTask</text>
</a>
<polygon fill="none" stroke="black" points="740,-4 740,-38 893,-38 893,-4 740,-4"/>
<text text-anchor="start" x="745" y="-26" font-family="Arial" font-size="10.00">name = &quot;showStartGameButton&quot;</text>
<text text-anchor="start" x="745" y="-12" font-family="Arial" font-size="10.00">status = &quot;start&quot;</text>
</g>
<!-- l6&#45;&#45;b7 -->
<g id="edge20" class="edge"><title>l6&#45;&#45;b7</title>
<path fill="none" stroke="black" d="M816,-96.4944C816,-85.4243 816,-71.7752 816,-59.8074"/>
<text text-anchor="middle" x="820.226" y="-66.3705" font-family="Arial" font-size="10.00">tasks</text>
<text text-anchor="middle" x="811.774" y="-84.9313" font-family="Arial" font-size="10.00">lane</text>
</g>
<!-- b8 -->
<g id="node13" class="node"><title>b8</title>
<a xlink:href="../../SDMLib/src/org/sdmlib/replication/BoardTask.java" xlink:title="&lt;TABLE&gt;">
<polygon fill="none" stroke="black" points="927,-38 927,-55 1080,-55 1080,-38 927,-38"/>
<text text-anchor="start" x="969.5" y="-44.5" font-family="Arial" font-size="10.00"> </text>
<text text-anchor="start" x="973.5" y="-44.5" font-family="Arial" font-size="10.00">b8 :BoardTask</text>
</a>
<polygon fill="none" stroke="black" points="927,-4 927,-38 1080,-38 1080,-4 927,-4"/>
<text text-anchor="start" x="932" y="-26" font-family="Arial" font-size="10.00">name = &quot;showStartGameButton&quot;</text>
<text text-anchor="start" x="932" y="-12" font-family="Arial" font-size="10.00">status = &quot;start&quot;</text>
</g>
<!-- l1&#45;&#45;b8 -->
<g id="edge22" class="edge"><title>l1&#45;&#45;b8</title>
<path fill="none" stroke="black" d="M981.169,-96.4944C984.859,-85.4243 989.408,-71.7752 993.398,-59.8074"/>
<text text-anchor="middle" x="994.541" y="-67.2418" font-family="Arial" font-size="10.00">tasks</text>
<text text-anchor="middle" x="980.025" y="-84.0599" font-family="Arial" font-size="10.00">lane</text>
</g>
<!-- b15 -->
<g id="node14" class="node"><title>b15</title>
<a xlink:href="../../SDMLib/src/org/sdmlib/replication/BoardTask.java" xlink:title="&lt;TABLE&gt;">
<polygon fill="none" stroke="black" points="1114,-38 1114,-55 1239,-55 1239,-38 1114,-38"/>
<text text-anchor="start" x="1140" y="-44.5" font-family="Arial" font-size="10.00"> </text>
<text text-anchor="start" x="1144" y="-44.5" font-family="Arial" font-size="10.00">b15 :BoardTask</text>
</a>
<polygon fill="none" stroke="black" points="1114,-4 1114,-38 1239,-38 1239,-4 1114,-4"/>
<text text-anchor="start" x="1119" y="-26" font-family="Arial" font-size="10.00">name = &quot;clickStartButton&quot;</text>
<text text-anchor="start" x="1119" y="-12" font-family="Arial" font-size="10.00">status = &quot;start&quot;</text>
</g>
<!-- l1&#45;&#45;b15 -->
<g id="edge24" class="edge"><title>l1&#45;&#45;b15</title>
<path fill="none" stroke="black" d="M1023.93,-96.4944C1049.75,-85.3739 1081.61,-71.6511 1109.49,-59.6443"/>
<text text-anchor="middle" x="1102.84" y="-64.6108" font-family="Arial" font-size="10.00">tasks</text>
<text text-anchor="middle" x="1030.58" y="-86.5279" font-family="Arial" font-size="10.00">lane</text>
</g>
</g>
</svg>
