<?xml version="1.0" encoding="UTF-8" standalone="no"?>
<!DOCTYPE svg PUBLIC "-//W3C//DTD SVG 1.1//EN"
 "http://www.w3.org/Graphics/SVG/1.1/DTD/svg11.dtd">
<!-- Generated by graphviz version 2.28.0 (20110507.0327)
 -->
<!-- Title: ObjectDiagram Pages: 1 -->
<svg width="1183pt" height="276pt"
 viewBox="0.00 0.00 1183.00 276.00" xmlns="http://www.w3.org/2000/svg" xmlns:xlink="http://www.w3.org/1999/xlink">
<g id="graph1" class="graph" transform="scale(1 1) rotate(0) translate(4 272)">
<title>ObjectDiagram</title>
<polygon fill="white" stroke="white" points="-4,5 -4,-272 1180,-272 1180,5 -4,5"/>
<!-- karliNode -->
<g id="node1" class="node"><title>karliNode</title>
<image xlink:href="icons/node.png" width="83px" height="61px" preserveAspectRatio="xMinYMin meet" x="10" y="-261"/>
<a xlink:href="../../SDMLib/src/org/sdmlib/replication/Node.java" xlink:title="&lt;TABLE&gt;">
<polygon fill="none" stroke="black" points="8,-182 8,-198 95,-198 95,-182 8,-182"/>
<text text-anchor="start" x="17.5" y="-188" font-family="Times New Roman,serif" font-size="10.00"> </text>
<text text-anchor="start" x="20.5" y="-188" font-family="Times New Roman,serif" font-size="10.00">karliNode :Node</text>
</a>
</g>
<!-- s11 -->
<g id="node2" class="node"><title>s11</title>
<image xlink:href="icons/worker.png" width="80px" height="61px" preserveAspectRatio="xMinYMin meet" x="154.5" y="-261"/>
<a xlink:href="../examples/org/sdmlib/examples/replication/maumau/StartGameMouseAdapter.java" xlink:title="&lt;TABLE&gt;">
<polygon fill="none" stroke="black" points="129,-182 129,-198 260,-198 260,-182 129,-182"/>
<text text-anchor="start" x="132.5" y="-188" font-family="Times New Roman,serif" font-size="10.00"> </text>
<text text-anchor="start" x="135.5" y="-188" font-family="Times New Roman,serif" font-size="10.00">s11 :StartGameMouseAdapter</text>
</a>
</g>
<!-- l10 -->
<g id="node3" class="node"><title>l10</title>
<a xlink:href="../../SDMLib/src/org/eclipse/swt/widgets/Label.java" xlink:title="&lt;TABLE&gt;">
<polygon fill="none" stroke="black" points="83,-120 83,-137 306,-137 306,-120 83,-120"/>
<text text-anchor="start" x="174" y="-126.5" font-family="Times New Roman,serif" font-size="10.00"> </text>
<text text-anchor="start" x="177" y="-126.5" font-family="Times New Roman,serif" font-size="10.00">l10 :Label</text>
</a>
<polygon fill="none" stroke="black" points="83,-100 83,-120 306,-120 306,-100 83,-100"/>
<text text-anchor="start" x="88" y="-108" font-family="Times New Roman,serif" font-size="10.00">text = &quot;When all players have shown up, Start Game&quot;</text>
</g>
<!-- s11&#45;&#45;l10 -->
<g id="edge2" class="edge"><title>s11&#45;&#45;l10</title>
<path fill="none" stroke="black" d="M194,-178.447C194,-165.668 194,-152.252 194,-141.501"/>
<text text-anchor="middle" x="198.226" y="-148.064" font-family="Times New Roman,serif" font-size="10.00">startGameLabel</text>
</g>
<!-- taskboard -->
<g id="node4" class="node"><title>taskboard</title>
<image xlink:href="icons/shared.png" width="70px" height="23px" preserveAspectRatio="xMinYMin meet" x="736" y="-242"/>
<a xlink:href="../../SDMLib/src/org/sdmlib/replication/TaskFlowBoard.java" xlink:title="&lt;TABLE&gt;">
<polygon fill="none" stroke="black" points="712,-201 712,-217 830,-217 830,-201 712,-201"/>
<text text-anchor="start" x="715.5" y="-207" font-family="Times New Roman,serif" font-size="10.00"> </text>
<text text-anchor="start" x="718.5" y="-207" font-family="Times New Roman,serif" font-size="10.00">taskboard :TaskFlowBoard</text>
</a>
</g>
<!-- l2 -->
<g id="node5" class="node"><title>l2</title>
<a xlink:href="../../SDMLib/src/org/sdmlib/replication/Lane.java" xlink:title="&lt;TABLE&gt;">
<polygon fill="none" stroke="black" points="340,-120 340,-137 416,-137 416,-120 340,-120"/>
<text text-anchor="start" x="361" y="-126.5" font-family="Times New Roman,serif" font-size="10.00"> </text>
<text text-anchor="start" x="364" y="-126.5" font-family="Times New Roman,serif" font-size="10.00">l2 :Lane</text>
</a>
<polygon fill="none" stroke="black" points="340,-100 340,-120 416,-120 416,-100 340,-100"/>
<text text-anchor="start" x="345" y="-108" font-family="Times New Roman,serif" font-size="10.00">name = &quot;server&quot;</text>
</g>
<!-- taskboard&#45;&#45;l2 -->
<g id="edge4" class="edge"><title>taskboard&#45;&#45;l2</title>
<path fill="none" stroke="black" d="M703.887,-204.581C624.198,-183.899 493.399,-149.951 424.23,-131.999"/>
<text text-anchor="middle" x="434.064" y="-127.685" font-family="Times New Roman,serif" font-size="10.00">lanes</text>
<text text-anchor="middle" x="694.053" y="-203.895" font-family="Times New Roman,serif" font-size="10.00">board</text>
</g>
<!-- l3 -->
<g id="node7" class="node"><title>l3</title>
<a xlink:href="../../SDMLib/src/org/sdmlib/replication/Lane.java" xlink:title="&lt;TABLE&gt;">
<polygon fill="none" stroke="black" points="524,-120 524,-137 659,-137 659,-120 524,-120"/>
<text text-anchor="start" x="574.5" y="-126.5" font-family="Times New Roman,serif" font-size="10.00"> </text>
<text text-anchor="start" x="577.5" y="-126.5" font-family="Times New Roman,serif" font-size="10.00">l3 :Lane</text>
</a>
<polygon fill="none" stroke="black" points="524,-100 524,-120 659,-120 659,-100 524,-100"/>
<text text-anchor="start" x="529" y="-108" font-family="Times New Roman,serif" font-size="10.00">name = &quot;play7WorkFlowLane&quot;</text>
</g>
<!-- taskboard&#45;&#45;l3 -->
<g id="edge6" class="edge"><title>taskboard&#45;&#45;l3</title>
<path fill="none" stroke="black" d="M727.427,-197.309C697.358,-180.269 657.767,-157.835 628.984,-141.524"/>
<text text-anchor="middle" x="638.953" y="-139.816" font-family="Times New Roman,serif" font-size="10.00">lanes</text>
<text text-anchor="middle" x="717.458" y="-194.017" font-family="Times New Roman,serif" font-size="10.00">board</text>
</g>
<!-- l6 -->
<g id="node10" class="node"><title>l6</title>
<a xlink:href="../../SDMLib/src/org/sdmlib/replication/Lane.java" xlink:title="&lt;TABLE&gt;">
<polygon fill="none" stroke="black" points="727,-120 727,-137 816,-137 816,-120 727,-120"/>
<text text-anchor="start" x="754.5" y="-126.5" font-family="Times New Roman,serif" font-size="10.00"> </text>
<text text-anchor="start" x="757.5" y="-126.5" font-family="Times New Roman,serif" font-size="10.00">l6 :Lane</text>
</a>
<polygon fill="none" stroke="black" points="727,-100 727,-120 816,-120 816,-100 727,-100"/>
<text text-anchor="start" x="732" y="-108" font-family="Times New Roman,serif" font-size="10.00">name = &quot;AbuLane&quot;</text>
</g>
<!-- taskboard&#45;&#45;l6 -->
<g id="edge8" class="edge"><title>taskboard&#45;&#45;l6</title>
<path fill="none" stroke="black" d="M771,-197.309C771,-180.328 771,-157.99 771,-141.694"/>
<text text-anchor="middle" x="775.226" y="-148.257" font-family="Times New Roman,serif" font-size="10.00">lanes</text>
<text text-anchor="middle" x="766.774" y="-185.746" font-family="Times New Roman,serif" font-size="10.00">board</text>
</g>
<!-- l1 -->
<g id="node12" class="node"><title>l1</title>
<a xlink:href="../../SDMLib/src/org/sdmlib/replication/Lane.java" xlink:title="&lt;TABLE&gt;">
<polygon fill="none" stroke="black" points="876,-120 876,-137 966,-137 966,-120 876,-120"/>
<text text-anchor="start" x="904" y="-126.5" font-family="Times New Roman,serif" font-size="10.00"> </text>
<text text-anchor="start" x="907" y="-126.5" font-family="Times New Roman,serif" font-size="10.00">l1 :Lane</text>
</a>
<polygon fill="none" stroke="black" points="876,-100 876,-120 966,-120 966,-100 876,-100"/>
<text text-anchor="start" x="881" y="-108" font-family="Times New Roman,serif" font-size="10.00">name = &quot;KarliLane&quot;</text>
</g>
<!-- taskboard&#45;&#45;l1 -->
<g id="edge10" class="edge"><title>taskboard&#45;&#45;l1</title>
<path fill="none" stroke="black" d="M807.311,-197.309C832.282,-180.328 865.132,-157.99 889.097,-141.694"/>
<text text-anchor="middle" x="883.979" y="-147.785" font-family="Times New Roman,serif" font-size="10.00">lanes</text>
<text text-anchor="middle" x="812.429" y="-186.218" font-family="Times New Roman,serif" font-size="10.00">board</text>
</g>
<!-- l13 -->
<g id="node15" class="node"><title>l13</title>
<a xlink:href="../../SDMLib/src/org/sdmlib/replication/Lane.java" xlink:title="&lt;TABLE&gt;">
<polygon fill="none" stroke="black" points="1000,-120 1000,-137 1098,-137 1098,-120 1000,-120"/>
<text text-anchor="start" x="1029.5" y="-126.5" font-family="Times New Roman,serif" font-size="10.00"> </text>
<text text-anchor="start" x="1032.5" y="-126.5" font-family="Times New Roman,serif" font-size="10.00">l13 :Lane</text>
</a>
<polygon fill="none" stroke="black" points="1000,-100 1000,-120 1098,-120 1098,-100 1000,-100"/>
<text text-anchor="start" x="1005" y="-108" font-family="Times New Roman,serif" font-size="10.00">name = &quot;SabineLane&quot;</text>
</g>
<!-- taskboard&#45;&#45;l13 -->
<g id="edge12" class="edge"><title>taskboard&#45;&#45;l13</title>
<path fill="none" stroke="black" d="M837.942,-197.439C884.856,-180.226 946.906,-157.459 991.569,-141.072"/>
<text text-anchor="middle" x="984.517" y="-145.661" font-family="Times New Roman,serif" font-size="10.00">lanes</text>
<text text-anchor="middle" x="844.994" y="-187.849" font-family="Times New Roman,serif" font-size="10.00">board</text>
</g>
<!-- b17 -->
<g id="node6" class="node"><title>b17</title>
<a xlink:href="../../SDMLib/src/org/sdmlib/replication/BoardTask.java" xlink:title="&lt;TABLE&gt;">
<polygon fill="none" stroke="black" points="260,-31 260,-48 351,-48 351,-31 260,-31"/>
<text text-anchor="start" x="272.5" y="-37.5" font-family="Times New Roman,serif" font-size="10.00"> </text>
<text text-anchor="start" x="275.5" y="-37.5" font-family="Times New Roman,serif" font-size="10.00">b17 :BoardTask</text>
</a>
<polygon fill="none" stroke="black" points="260,-11 260,-31 351,-31 351,-11 260,-11"/>
<text text-anchor="start" x="265" y="-19" font-family="Times New Roman,serif" font-size="10.00">name = &quot;startGame&quot;</text>
</g>
<!-- l2&#45;&#45;b17 -->
<g id="edge14" class="edge"><title>l2&#45;&#45;b17</title>
<path fill="none" stroke="black" d="M359.955,-96.4944C348.724,-83.1096 334.33,-65.9547 323.09,-52.5597"/>
<text text-anchor="middle" x="332.153" y="-54.286" font-family="Times New Roman,serif" font-size="10.00">tasks</text>
<text text-anchor="middle" x="350.892" y="-89.7681" font-family="Times New Roman,serif" font-size="10.00">lane</text>
</g>
<!-- b4 -->
<g id="node8" class="node"><title>b4</title>
<a xlink:href="../../SDMLib/src/org/sdmlib/replication/BoardTask.java" xlink:title="&lt;TABLE&gt;">
<polygon fill="none" stroke="black" points="385,-38 385,-55 482,-55 482,-38 385,-38"/>
<text text-anchor="start" x="403" y="-44.5" font-family="Times New Roman,serif" font-size="10.00"> </text>
<text text-anchor="start" x="406" y="-44.5" font-family="Times New Roman,serif" font-size="10.00">b4 :BoardTask</text>
</a>
<polygon fill="none" stroke="black" points="385,-4 385,-38 482,-38 482,-4 385,-4"/>
<text text-anchor="start" x="390" y="-26" font-family="Times New Roman,serif" font-size="10.00">name = &quot;startClients&quot;</text>
<text text-anchor="start" x="390" y="-12" font-family="Times New Roman,serif" font-size="10.00">status = &quot;start&quot;</text>
</g>
<!-- l3&#45;&#45;b4 -->
<g id="edge16" class="edge"><title>l3&#45;&#45;b4</title>
<path fill="none" stroke="black" d="M551.944,-96.4944C531.748,-85.3739 506.826,-71.6511 485.021,-59.6443"/>
<text text-anchor="middle" x="494.998" y="-57.8138" font-family="Times New Roman,serif" font-size="10.00">tasks</text>
<text text-anchor="middle" x="541.966" y="-93.3249" font-family="Times New Roman,serif" font-size="10.00">lane</text>
</g>
<!-- b14 -->
<g id="node9" class="node"><title>b14</title>
<a xlink:href="../../SDMLib/src/org/sdmlib/replication/BoardTask.java" xlink:title="&lt;TABLE&gt;">
<polygon fill="none" stroke="black" points="516,-38 516,-55 667,-55 667,-38 516,-38"/>
<text text-anchor="start" x="558.5" y="-44.5" font-family="Times New Roman,serif" font-size="10.00"> </text>
<text text-anchor="start" x="561.5" y="-44.5" font-family="Times New Roman,serif" font-size="10.00">b14 :BoardTask</text>
</a>
<polygon fill="none" stroke="black" points="516,-4 516,-38 667,-38 667,-4 516,-4"/>
<text text-anchor="start" x="521" y="-26" font-family="Times New Roman,serif" font-size="10.00">name = &quot;askKarliToStartTheGame&quot;</text>
<text text-anchor="start" x="521" y="-12" font-family="Times New Roman,serif" font-size="10.00">status = &quot;start&quot;</text>
</g>
<!-- l3&#45;&#45;b14 -->
<g id="edge18" class="edge"><title>l3&#45;&#45;b14</title>
<path fill="none" stroke="black" d="M591,-96.4944C591,-85.4243 591,-71.7752 591,-59.8074"/>
<text text-anchor="middle" x="595.226" y="-66.3705" font-family="Times New Roman,serif" font-size="10.00">tasks</text>
<text text-anchor="middle" x="586.774" y="-84.9313" font-family="Times New Roman,serif" font-size="10.00">lane</text>
</g>
<!-- b7 -->
<g id="node11" class="node"><title>b7</title>
<a xlink:href="../../SDMLib/src/org/sdmlib/replication/BoardTask.java" xlink:title="&lt;TABLE&gt;">
<polygon fill="none" stroke="black" points="701,-38 701,-55 842,-55 842,-38 701,-38"/>
<text text-anchor="start" x="741" y="-44.5" font-family="Times New Roman,serif" font-size="10.00"> </text>
<text text-anchor="start" x="744" y="-44.5" font-family="Times New Roman,serif" font-size="10.00">b7 :BoardTask</text>
</a>
<polygon fill="none" stroke="black" points="701,-4 701,-38 842,-38 842,-4 701,-4"/>
<text text-anchor="start" x="706" y="-26" font-family="Times New Roman,serif" font-size="10.00">name = &quot;showStartGameButton&quot;</text>
<text text-anchor="start" x="706" y="-12" font-family="Times New Roman,serif" font-size="10.00">status = &quot;start&quot;</text>
</g>
<!-- l6&#45;&#45;b7 -->
<g id="edge20" class="edge"><title>l6&#45;&#45;b7</title>
<path fill="none" stroke="black" d="M771,-96.4944C771,-85.4243 771,-71.7752 771,-59.8074"/>
<text text-anchor="middle" x="775.226" y="-66.3705" font-family="Times New Roman,serif" font-size="10.00">tasks</text>
<text text-anchor="middle" x="766.774" y="-84.9313" font-family="Times New Roman,serif" font-size="10.00">lane</text>
</g>
<!-- b8 -->
<g id="node13" class="node"><title>b8</title>
<a xlink:href="../../SDMLib/src/org/sdmlib/replication/BoardTask.java" xlink:title="&lt;TABLE&gt;">
<polygon fill="none" stroke="black" points="876,-38 876,-55 1017,-55 1017,-38 876,-38"/>
<text text-anchor="start" x="916" y="-44.5" font-family="Times New Roman,serif" font-size="10.00"> </text>
<text text-anchor="start" x="919" y="-44.5" font-family="Times New Roman,serif" font-size="10.00">b8 :BoardTask</text>
</a>
<polygon fill="none" stroke="black" points="876,-4 876,-38 1017,-38 1017,-4 876,-4"/>
<text text-anchor="start" x="881" y="-26" font-family="Times New Roman,serif" font-size="10.00">name = &quot;showStartGameButton&quot;</text>
<text text-anchor="start" x="881" y="-12" font-family="Times New Roman,serif" font-size="10.00">status = &quot;start&quot;</text>
</g>
<!-- l1&#45;&#45;b8 -->
<g id="edge22" class="edge"><title>l1&#45;&#45;b8</title>
<path fill="none" stroke="black" d="M927.18,-96.4944C930.361,-85.4243 934.283,-71.7752 937.722,-59.8074"/>
<text text-anchor="middle" x="939.281" y="-67.1851" font-family="Times New Roman,serif" font-size="10.00">tasks</text>
<text text-anchor="middle" x="925.621" y="-84.1166" font-family="Times New Roman,serif" font-size="10.00">lane</text>
</g>
<!-- b15 -->
<g id="node14" class="node"><title>b15</title>
<a xlink:href="../../SDMLib/src/org/sdmlib/replication/BoardTask.java" xlink:title="&lt;TABLE&gt;">
<polygon fill="none" stroke="black" points="1051,-38 1051,-55 1167,-55 1167,-38 1051,-38"/>
<text text-anchor="start" x="1076" y="-44.5" font-family="Times New Roman,serif" font-size="10.00"> </text>
<text text-anchor="start" x="1079" y="-44.5" font-family="Times New Roman,serif" font-size="10.00">b15 :BoardTask</text>
</a>
<polygon fill="none" stroke="black" points="1051,-4 1051,-38 1167,-38 1167,-4 1051,-4"/>
<text text-anchor="start" x="1056" y="-26" font-family="Times New Roman,serif" font-size="10.00">name = &quot;clickStartButton&quot;</text>
<text text-anchor="start" x="1056" y="-12" font-family="Times New Roman,serif" font-size="10.00">status = &quot;start&quot;</text>
</g>
<!-- l1&#45;&#45;b15 -->
<g id="edge24" class="edge"><title>l1&#45;&#45;b15</title>
<path fill="none" stroke="black" d="M967.472,-96.4944C991.502,-85.3739 1021.16,-71.6511 1047.1,-59.6443"/>
<text text-anchor="middle" x="1040.65" y="-64.786" font-family="Times New Roman,serif" font-size="10.00">tasks</text>
<text text-anchor="middle" x="973.922" y="-86.3527" font-family="Times New Roman,serif" font-size="10.00">lane</text>
</g>
</g>
</svg>
