<?xml version="1.0" encoding="UTF-8" standalone="no"?>
<!DOCTYPE svg PUBLIC "-//W3C//DTD SVG 1.1//EN"
 "http://www.w3.org/Graphics/SVG/1.1/DTD/svg11.dtd">
<!-- Generated by graphviz version 2.28.0 (20110507.0327)
 -->
<!-- Title: ObjectDiagram Pages: 1 -->
<svg width="1122pt" height="580pt"
 viewBox="0.00 0.00 1122.36 580.00" xmlns="http://www.w3.org/2000/svg" xmlns:xlink="http://www.w3.org/1999/xlink">
<g id="graph1" class="graph" transform="scale(1 1) rotate(0) translate(4 576)">
<title>ObjectDiagram</title>
<polygon fill="white" stroke="white" points="-4,5 -4,-576 1119.36,-576 1119.36,5 -4,5"/>
<!-- karliNode -->
<g id="node1" class="node"><title>karliNode</title>
<image xlink:href="icons/node.png" width="83px" height="61px" preserveAspectRatio="xMinYMin meet" x="143.359" y="-565"/>
<a xlink:href="../../SDMLib/src/org/sdmlib/replication/Node.java" xlink:title="&lt;TABLE&gt;">
<polygon fill="none" stroke="black" points="141.359,-486 141.359,-502 228.359,-502 228.359,-486 141.359,-486"/>
<text text-anchor="start" x="147.859" y="-492" font-family="Arial" font-size="10.00"> </text>
<text text-anchor="start" x="151.859" y="-492" font-family="Arial" font-size="10.00">karliNode :Node</text>
</a>
</g>
<!-- k59 -->
<g id="node2" class="node"><title>k59</title>
<image xlink:href="icons/worker.png" width="80px" height="61px" preserveAspectRatio="xMinYMin meet" x="286.359" y="-565"/>
<a xlink:href="../examples/org/sdmlib/examples/replication/maumau/KarliDrawCardsAction.java" xlink:title="&lt;TABLE&gt;">
<polygon fill="none" stroke="black" points="262.359,-486 262.359,-502 390.359,-502 390.359,-486 262.359,-486"/>
<text text-anchor="start" x="265.859" y="-492" font-family="Arial" font-size="10.00"> </text>
<text text-anchor="start" x="269.859" y="-492" font-family="Arial" font-size="10.00">k59 :KarliDrawCardsAction</text>
</a>
</g>
<!-- maumau -->
<g id="node3" class="node"><title>maumau</title>
<image xlink:href="icons/shared.png" width="70px" height="23px" preserveAspectRatio="xMinYMin meet" x="436.859" y="-546"/>
<a xlink:href="../examples/org/sdmlib/examples/replication/maumau/MauMau.java" xlink:title="&lt;TABLE&gt;">
<polygon fill="none" stroke="black" points="425.359,-505 425.359,-521 518.359,-521 518.359,-505 425.359,-505"/>
<text text-anchor="start" x="428.859" y="-511" font-family="Arial" font-size="10.00"> </text>
<text text-anchor="start" x="432.859" y="-511" font-family="Arial" font-size="10.00">maumau :MauMau</text>
</a>
</g>
<!-- c24 -->
<g id="node4" class="node"><title>c24</title>
<a xlink:href="../examples/org/sdmlib/examples/replication/maumau/Card.java" xlink:title="&lt;TABLE&gt;">
<polygon fill="none" stroke="black" points="435.359,-424 435.359,-441 507.359,-441 507.359,-424 435.359,-424"/>
<text text-anchor="start" x="447.859" y="-430.5" font-family="Arial" font-size="10.00"> </text>
<text text-anchor="start" x="451.859" y="-430.5" font-family="Arial" font-size="10.00">c24 :Card</text>
</a>
<polygon fill="none" stroke="black" points="435.359,-390 435.359,-424 507.359,-424 507.359,-390 435.359,-390"/>
<text text-anchor="start" x="440.359" y="-412" font-family="Arial" font-size="10.00">suit = &quot;Clubs&quot;</text>
<text text-anchor="start" x="440.359" y="-398" font-family="Arial" font-size="10.00">value = &quot;10&quot;</text>
</g>
<!-- maumau&#45;&#45;c24 -->
<g id="edge2" class="edge"><title>maumau&#45;&#45;c24</title>
<path fill="none" stroke="black" d="M471.359,-501.266C471.359,-484.81 471.359,-463.13 471.359,-445.881"/>
<text text-anchor="middle" x="475.585" y="-452.444" font-family="Arial" font-size="10.00">cards</text>
<text text-anchor="middle" x="467.133" y="-489.703" font-family="Arial" font-size="10.00">game</text>
</g>
<!-- karli -->
<g id="node5" class="node"><title>karli</title>
<a xlink:href="../examples/org/sdmlib/examples/replication/maumau/Player.java" xlink:title="&lt;TABLE&gt;">
<polygon fill="none" stroke="black" points="449.359,-328 449.359,-345 532.359,-345 532.359,-328 449.359,-328"/>
<text text-anchor="start" x="462.859" y="-334.5" font-family="Arial" font-size="10.00"> </text>
<text text-anchor="start" x="466.859" y="-334.5" font-family="Arial" font-size="10.00">karli :Player</text>
</a>
<polygon fill="none" stroke="black" points="449.359,-280 449.359,-328 532.359,-328 532.359,-280 449.359,-280"/>
<text text-anchor="start" x="454.359" y="-316" font-family="Arial" font-size="10.00">name = &quot;Karli&quot;</text>
<text text-anchor="start" x="454.359" y="-302" font-family="Arial" font-size="10.00">deckOwner = &quot;&quot;</text>
<text text-anchor="start" x="454.359" y="-288" font-family="Arial" font-size="10.00">stackOwner = &quot;&quot;</text>
</g>
<!-- maumau&#45;&#45;karli -->
<g id="edge18" class="edge"><title>maumau&#45;&#45;karli</title>
<path fill="none" stroke="black" d="M493.246,-501.314C504.959,-486.419 518.209,-466.419 524.359,-446 532.049,-420.466 530.194,-412.02 524.359,-386 521.576,-373.59 516.402,-360.801 510.915,-349.508"/>
<text text-anchor="middle" x="518.629" y="-353.373" font-family="Arial" font-size="10.00">players_currentMove</text>
<text text-anchor="middle" x="495.422" y="-489.054" font-family="Arial" font-size="10.00">game_assignment</text>
</g>
<!-- c31 -->
<g id="node6" class="node"><title>c31</title>
<a xlink:href="../examples/org/sdmlib/examples/replication/maumau/Card.java" xlink:title="&lt;TABLE&gt;">
<polygon fill="none" stroke="black" points="49.3588,-197 49.3588,-214 129.359,-214 129.359,-197 49.3588,-197"/>
<text text-anchor="start" x="65.8588" y="-203.5" font-family="Arial" font-size="10.00"> </text>
<text text-anchor="start" x="69.8588" y="-203.5" font-family="Arial" font-size="10.00">c31 :Card</text>
</a>
<polygon fill="none" stroke="black" points="49.3588,-163 49.3588,-197 129.359,-197 129.359,-163 49.3588,-163"/>
<text text-anchor="start" x="54.3588" y="-185" font-family="Arial" font-size="10.00">suit = &quot;Spades&quot;</text>
<text text-anchor="start" x="54.3588" y="-171" font-family="Arial" font-size="10.00">value = &quot;9&quot;</text>
</g>
<!-- maumau&#45;&#45;c31 -->
<g id="edge4" class="edge"><title>maumau&#45;&#45;c31</title>
<path fill="none" stroke="black" d="M437.876,-501.313C428.248,-494.677 417.582,-487.753 407.359,-482 373.38,-462.879 359.039,-468.728 327.359,-446 233.675,-378.787 147.953,-270.328 109.979,-218.871"/>
<text text-anchor="middle" x="118.797" y="-221.086" font-family="Arial" font-size="10.00">cards</text>
<text text-anchor="middle" x="428.01" y="-497.18" font-family="Arial" font-size="10.00">game</text>
</g>
<!-- c52 -->
<g id="node7" class="node"><title>c52</title>
<a xlink:href="../examples/org/sdmlib/examples/replication/maumau/Card.java" xlink:title="&lt;TABLE&gt;">
<polygon fill="none" stroke="black" points="163.359,-197 163.359,-214 253.359,-214 253.359,-197 163.359,-197"/>
<text text-anchor="start" x="184.859" y="-203.5" font-family="Arial" font-size="10.00"> </text>
<text text-anchor="start" x="188.859" y="-203.5" font-family="Arial" font-size="10.00">c52 :Card</text>
</a>
<polygon fill="none" stroke="black" points="163.359,-163 163.359,-197 253.359,-197 253.359,-163 163.359,-163"/>
<text text-anchor="start" x="168.359" y="-185" font-family="Arial" font-size="10.00">suit = &quot;Diamonds&quot;</text>
<text text-anchor="start" x="168.359" y="-171" font-family="Arial" font-size="10.00">value = &quot;Ace&quot;</text>
</g>
<!-- maumau&#45;&#45;c52 -->
<g id="edge12" class="edge"><title>maumau&#45;&#45;c52</title>
<path fill="none" stroke="black" d="M436.747,-501.213C417.442,-486.436 393.672,-466.586 375.359,-446 309.051,-371.463 250.068,-268.34 223.412,-218.815"/>
<text text-anchor="middle" x="231.464" y="-222.245" font-family="Arial" font-size="10.00">cards</text>
<text text-anchor="middle" x="426.993" y="-496.505" font-family="Arial" font-size="10.00">game</text>
</g>
<!-- c43 -->
<g id="node8" class="node"><title>c43</title>
<a xlink:href="../examples/org/sdmlib/examples/replication/maumau/Card.java" xlink:title="&lt;TABLE&gt;">
<polygon fill="none" stroke="black" points="288.359,-197 288.359,-214 363.359,-214 363.359,-197 288.359,-197"/>
<text text-anchor="start" x="302.359" y="-203.5" font-family="Arial" font-size="10.00"> </text>
<text text-anchor="start" x="306.359" y="-203.5" font-family="Arial" font-size="10.00">c43 :Card</text>
</a>
<polygon fill="none" stroke="black" points="288.359,-163 288.359,-197 363.359,-197 363.359,-163 288.359,-163"/>
<text text-anchor="start" x="293.359" y="-185" font-family="Arial" font-size="10.00">suit = &quot;Hearts&quot;</text>
<text text-anchor="start" x="293.359" y="-171" font-family="Arial" font-size="10.00">value = &quot;King&quot;</text>
</g>
<!-- maumau&#45;&#45;c43 -->
<g id="edge8" class="edge"><title>maumau&#45;&#45;c43</title>
<path fill="none" stroke="black" d="M446.59,-501.199C432.834,-486.266 416.334,-466.266 405.359,-446 363.782,-369.228 340.193,-267.586 330.547,-218.688"/>
<text text-anchor="middle" x="336.507" y="-224.218" font-family="Arial" font-size="10.00">cards</text>
<text text-anchor="middle" x="437.369" y="-494.83" font-family="Arial" font-size="10.00">game</text>
</g>
<!-- c35 -->
<g id="node9" class="node"><title>c35</title>
<a xlink:href="../examples/org/sdmlib/examples/replication/maumau/Card.java" xlink:title="&lt;TABLE&gt;">
<polygon fill="none" stroke="black" points="554.359,-197 554.359,-214 634.359,-214 634.359,-197 554.359,-197"/>
<text text-anchor="start" x="570.859" y="-203.5" font-family="Arial" font-size="10.00"> </text>
<text text-anchor="start" x="574.859" y="-203.5" font-family="Arial" font-size="10.00">c35 :Card</text>
</a>
<polygon fill="none" stroke="black" points="554.359,-163 554.359,-197 634.359,-197 634.359,-163 554.359,-163"/>
<text text-anchor="start" x="559.359" y="-185" font-family="Arial" font-size="10.00">suit = &quot;Spades&quot;</text>
<text text-anchor="start" x="559.359" y="-171" font-family="Arial" font-size="10.00">value = &quot;King&quot;</text>
</g>
<!-- maumau&#45;&#45;c35 -->
<g id="edge6" class="edge"><title>maumau&#45;&#45;c35</title>
<path fill="none" stroke="black" d="M498.389,-501.432C512.96,-486.726 530.022,-466.874 540.359,-446 578.153,-369.678 589.553,-267.827 592.947,-218.785"/>
<text text-anchor="middle" x="596.449" y="-225.652" font-family="Arial" font-size="10.00">cards</text>
<text text-anchor="middle" x="501.678" y="-489.489" font-family="Arial" font-size="10.00">game</text>
</g>
<!-- c44 -->
<g id="node10" class="node"><title>c44</title>
<a xlink:href="../examples/org/sdmlib/examples/replication/maumau/Card.java" xlink:title="&lt;TABLE&gt;">
<polygon fill="none" stroke="black" points="779.359,-197 779.359,-214 854.359,-214 854.359,-197 779.359,-197"/>
<text text-anchor="start" x="793.359" y="-203.5" font-family="Arial" font-size="10.00"> </text>
<text text-anchor="start" x="797.359" y="-203.5" font-family="Arial" font-size="10.00">c44 :Card</text>
</a>
<polygon fill="none" stroke="black" points="779.359,-163 779.359,-197 854.359,-197 854.359,-163 779.359,-163"/>
<text text-anchor="start" x="784.359" y="-185" font-family="Arial" font-size="10.00">suit = &quot;Hearts&quot;</text>
<text text-anchor="start" x="784.359" y="-171" font-family="Arial" font-size="10.00">value = &quot;Ace&quot;</text>
</g>
<!-- maumau&#45;&#45;c44 -->
<g id="edge10" class="edge"><title>maumau&#45;&#45;c44</title>
<path fill="none" stroke="black" d="M515.968,-501.45C540.582,-486.894 571.001,-467.183 595.359,-446 678.872,-373.371 759.221,-268.902 795.786,-218.86"/>
<text text-anchor="middle" x="793.796" y="-226.16" font-family="Arial" font-size="10.00">cards</text>
<text text-anchor="middle" x="521.573" y="-490.669" font-family="Arial" font-size="10.00">game</text>
</g>
<!-- p12 -->
<g id="node11" class="node"><title>p12</title>
<a xlink:href="../examples/org/sdmlib/examples/replication/maumau/Player.java" xlink:title="&lt;TABLE&gt;">
<polygon fill="none" stroke="black" points="397.359,-218 397.359,-235 482.359,-235 482.359,-218 397.359,-218"/>
<text text-anchor="start" x="412.859" y="-224.5" font-family="Arial" font-size="10.00"> </text>
<text text-anchor="start" x="416.859" y="-224.5" font-family="Arial" font-size="10.00">p12 :Player</text>
</a>
<polygon fill="none" stroke="black" points="397.359,-142 397.359,-218 482.359,-218 482.359,-142 397.359,-142"/>
<text text-anchor="start" x="402.359" y="-206" font-family="Arial" font-size="10.00">name = &quot;Sabine&quot;</text>
<text text-anchor="start" x="402.359" y="-192" font-family="Arial" font-size="10.00">deckOwner = &quot;&quot;</text>
<text text-anchor="start" x="402.359" y="-178" font-family="Arial" font-size="10.00">stackOwner = &quot;&quot;</text>
<text text-anchor="start" x="402.359" y="-164" font-family="Arial" font-size="10.00">assignment = &quot;&quot;</text>
<text text-anchor="start" x="402.359" y="-150" font-family="Arial" font-size="10.00">duty = &quot;&quot;</text>
</g>
<!-- maumau&#45;&#45;p12 -->
<g id="edge20" class="edge"><title>maumau&#45;&#45;p12</title>
<path fill="none" stroke="black" d="M449.471,-501.314C437.759,-486.419 424.509,-466.419 418.359,-446 397.46,-376.614 411.554,-292.166 424.638,-239.736"/>
<text text-anchor="middle" x="426.674" y="-247.026" font-family="Arial" font-size="10.00">players</text>
<text text-anchor="middle" x="440.596" y="-494.207" font-family="Arial" font-size="10.00">game</text>
</g>
<!-- p5 -->
<g id="node12" class="node"><title>p5</title>
<a xlink:href="../examples/org/sdmlib/examples/replication/maumau/Player.java" xlink:title="&lt;TABLE&gt;">
<polygon fill="none" stroke="black" points="398.359,-80 398.359,-97 481.359,-97 481.359,-80 398.359,-80"/>
<text text-anchor="start" x="415.359" y="-86.5" font-family="Arial" font-size="10.00"> </text>
<text text-anchor="start" x="419.359" y="-86.5" font-family="Arial" font-size="10.00">p5 :Player</text>
</a>
<polygon fill="none" stroke="black" points="398.359,-4 398.359,-80 481.359,-80 481.359,-4 398.359,-4"/>
<text text-anchor="start" x="403.359" y="-68" font-family="Arial" font-size="10.00">name = &quot;Abu&quot;</text>
<text text-anchor="start" x="403.359" y="-54" font-family="Arial" font-size="10.00">deckOwner = &quot;&quot;</text>
<text text-anchor="start" x="403.359" y="-40" font-family="Arial" font-size="10.00">stackOwner = &quot;&quot;</text>
<text text-anchor="start" x="403.359" y="-26" font-family="Arial" font-size="10.00">assignment = &quot;&quot;</text>
<text text-anchor="start" x="403.359" y="-12" font-family="Arial" font-size="10.00">duty = &quot;&quot;</text>
</g>
<!-- maumau&#45;&#45;p5 -->
<g id="edge16" class="edge"><title>maumau&#45;&#45;p5</title>
<path fill="none" stroke="black" d="M440.503,-501.384C430.403,-494.281 418.822,-487.084 407.359,-482 343.895,-453.855 316.641,-478.622 255.359,-446 106.177,-366.587 -74.0763,-269.275 32.3588,-138 76.8754,-83.094 291.281,-61.8724 389.736,-54.9247"/>
<text text-anchor="middle" x="381.026" y="-57.3373" font-family="Arial" font-size="10.00">players</text>
<text text-anchor="middle" x="430.647" y="-497.191" font-family="Arial" font-size="10.00">game</text>
</g>
<!-- d57 -->
<g id="node13" class="node"><title>d57</title>
<a xlink:href="../examples/org/sdmlib/examples/replication/maumau/Duty.java" xlink:title="&lt;TABLE&gt;">
<polygon fill="none" stroke="black" points="668.359,-197 668.359,-214 744.359,-214 744.359,-197 668.359,-197"/>
<text text-anchor="start" x="682.859" y="-203.5" font-family="Arial" font-size="10.00"> </text>
<text text-anchor="start" x="686.859" y="-203.5" font-family="Arial" font-size="10.00">d57 :Duty</text>
</a>
<polygon fill="none" stroke="black" points="668.359,-163 668.359,-197 744.359,-197 744.359,-163 668.359,-163"/>
<text text-anchor="start" x="673.359" y="-185" font-family="Arial" font-size="10.00">kind = &quot;Draw2&quot;</text>
<text text-anchor="start" x="673.359" y="-171" font-family="Arial" font-size="10.00">number = 1</text>
</g>
<!-- maumau&#45;&#45;d57 -->
<g id="edge22" class="edge"><title>maumau&#45;&#45;d57</title>
<path fill="none" stroke="black" d="M507.311,-501.372C526.402,-486.932 549.192,-467.358 565.359,-446 615.53,-379.718 601.248,-347.674 643.359,-276 655.078,-256.053 670.373,-235.081 682.958,-218.842"/>
<text text-anchor="middle" x="680.784" y="-226.103" font-family="Arial" font-size="10.00">duty</text>
<text text-anchor="middle" x="511.918" y="-489.997" font-family="Arial" font-size="10.00">game</text>
</g>
<!-- h19 -->
<g id="node14" class="node"><title>h19</title>
<a xlink:href="../examples/org/sdmlib/examples/replication/maumau/Holder.java" xlink:title="&lt;TABLE&gt;">
<polygon fill="none" stroke="black" points="694.359,-417 694.359,-434 777.359,-434 777.359,-417 694.359,-417"/>
<text text-anchor="start" x="708.859" y="-423.5" font-family="Arial" font-size="10.00"> </text>
<text text-anchor="start" x="712.859" y="-423.5" font-family="Arial" font-size="10.00">h19 :Holder</text>
</a>
<polygon fill="none" stroke="black" points="694.359,-397 694.359,-417 777.359,-417 777.359,-397 694.359,-397"/>
<text text-anchor="start" x="699.359" y="-405" font-family="Arial" font-size="10.00">stackOwner = &quot;&quot;</text>
</g>
<!-- maumau&#45;&#45;h19 -->
<g id="edge14" class="edge"><title>maumau&#45;&#45;h19</title>
<path fill="none" stroke="black" d="M525.957,-504.925C566.316,-489.162 622.509,-466.825 671.359,-446 676.857,-443.656 682.596,-441.147 688.281,-438.622"/>
<text text-anchor="middle" x="681.709" y="-443.659" font-family="Arial" font-size="10.00">deck</text>
<text text-anchor="middle" x="532.855" y="-495.186" font-family="Arial" font-size="10.00">deckOwner</text>
</g>
<!-- c24&#45;&#45;karli -->
<g id="edge24" class="edge"><title>c24&#45;&#45;karli</title>
<path fill="none" stroke="black" d="M476.753,-386.328C478.903,-374.897 481.401,-361.618 483.665,-349.582"/>
<text text-anchor="middle" x="486.143" y="-356.77" font-family="Arial" font-size="10.00">holder</text>
<text text-anchor="middle" x="474.275" y="-374.139" font-family="Arial" font-size="10.00">cards</text>
</g>
<!-- karli&#45;&#45;c31 -->
<g id="edge26" class="edge"><title>karli&#45;&#45;c31</title>
<path fill="none" stroke="black" d="M441.075,-309.536C371.879,-304.381 243.524,-288.528 146.359,-240 135.524,-234.589 125.116,-226.61 116.226,-218.607"/>
<text text-anchor="middle" x="125.815" y="-218.944" font-family="Arial" font-size="10.00">cards</text>
<text text-anchor="middle" x="431.689" y="-310.487" font-family="Arial" font-size="10.00">holder</text>
</g>
<!-- karli&#45;&#45;c52 -->
<g id="edge28" class="edge"><title>karli&#45;&#45;c52</title>
<path fill="none" stroke="black" d="M441.097,-301.319C395.095,-290.109 325.453,-269.918 270.359,-240 259.544,-234.127 248.755,-226.294 239.281,-218.574"/>
<text text-anchor="middle" x="248.992" y="-218.463" font-family="Arial" font-size="10.00">cards</text>
<text text-anchor="middle" x="431.278" y="-300.711" font-family="Arial" font-size="10.00">holder</text>
</g>
<!-- karli&#45;&#45;c43 -->
<g id="edge30" class="edge"><title>karli&#45;&#45;c43</title>
<path fill="none" stroke="black" d="M441.037,-282.558C421.331,-270.146 398.757,-255.092 379.359,-240 370.989,-233.488 362.37,-225.943 354.543,-218.719"/>
<text text-anchor="middle" x="364.078" y="-219.233" font-family="Arial" font-size="10.00">cards</text>
<text text-anchor="middle" x="431.12" y="-278.773" font-family="Arial" font-size="10.00">holder</text>
</g>
<!-- karli&#45;&#45;c35 -->
<g id="edge32" class="edge"><title>karli&#45;&#45;c35</title>
<path fill="none" stroke="black" d="M520.719,-276.385C536.308,-258.098 555.054,-236.108 569.731,-218.891"/>
<text text-anchor="middle" x="567.067" y="-226.029" font-family="Arial" font-size="10.00">cards</text>
<text text-anchor="middle" x="523.383" y="-264.246" font-family="Arial" font-size="10.00">holder</text>
</g>
<!-- karli&#45;&#45;c44 -->
<g id="edge34" class="edge"><title>karli&#45;&#45;c44</title>
<path fill="none" stroke="black" d="M539.725,-300.23C612.433,-282.692 741.854,-250.624 761.359,-240 771.671,-234.383 781.602,-226.441 790.119,-218.538"/>
<text text-anchor="middle" x="786.274" y="-225.269" font-family="Arial" font-size="10.00">cards</text>
<text text-anchor="middle" x="547.537" y="-291.487" font-family="Arial" font-size="10.00">holder</text>
</g>
<!-- karli&#45;&#45;p12 -->
<g id="edge36" class="edge"><title>karli&#45;&#45;p12</title>
<path fill="none" stroke="black" d="M475.47,-276.385C470.707,-264.991 465.343,-252.159 460.235,-239.94"/>
<text text-anchor="middle" x="467.63" y="-244.172" font-family="Arial" font-size="10.00">next</text>
<text text-anchor="middle" x="468.076" y="-267.153" font-family="Arial" font-size="10.00">prev</text>
</g>
<!-- karli&#45;&#45;p5 -->
<g id="edge38" class="edge"><title>karli&#45;&#45;p5</title>
<path fill="none" stroke="black" d="M498.935,-276.442C505.98,-240.629 512.687,-184.214 498.359,-138 494.444,-125.375 487.965,-112.957 480.702,-101.655"/>
<text text-anchor="middle" x="489.105" y="-104.576" font-family="Arial" font-size="10.00">prev</text>
<text text-anchor="middle" x="496.417" y="-264.264" font-family="Arial" font-size="10.00">next</text>
</g>
<!-- karli&#45;&#45;d57 -->
<g id="edge40" class="edge"><title>karli&#45;&#45;d57</title>
<path fill="none" stroke="black" d="M539.625,-294.674C572.611,-281.965 616.252,-262.96 651.359,-240 660.755,-233.855 670.117,-226.112 678.382,-218.567"/>
<text text-anchor="middle" x="674.488" y="-225.277" font-family="Arial" font-size="10.00">duty</text>
<text text-anchor="middle" x="546.519" y="-284.93" font-family="Arial" font-size="10.00">player</text>
</g>
<!-- p12&#45;&#45;p5 -->
<g id="edge42" class="edge"><title>p12&#45;&#45;p5</title>
<path fill="none" stroke="black" d="M439.359,-138.131C439.359,-126.305 439.359,-113.689 439.359,-101.863"/>
<text text-anchor="middle" x="443.585" y="-108.426" font-family="Arial" font-size="10.00">next</text>
<text text-anchor="middle" x="435.133" y="-126.568" font-family="Arial" font-size="10.00">prev</text>
</g>
<!-- topCardOnDeckControler -->
<g id="node15" class="node"><title>topCardOnDeckControler</title>
<image xlink:href="icons/person1.png" width="32px" height="43px" preserveAspectRatio="xMinYMin meet" x="920.859" y="-342"/>
<a xlink:href="../examples/org/sdmlib/examples/replication/maumau/CardControler.java" xlink:title="&lt;TABLE&gt;">
<polygon fill="none" stroke="black" points="844.359,-281 844.359,-297 1029.36,-297 1029.36,-281 844.359,-281"/>
<text text-anchor="start" x="847.859" y="-287" font-family="Arial" font-size="10.00"> </text>
<text text-anchor="start" x="851.859" y="-287" font-family="Arial" font-size="10.00">topCardOnDeckControler :CardControler</text>
</a>
</g>
<!-- topCardOnDeckControler&#45;&#45;c44 -->
<g id="edge44" class="edge"><title>topCardOnDeckControler&#45;&#45;c44</title>
<path fill="none" stroke="black" d="M902.293,-277.366C884,-258.768 861.724,-236.121 844.437,-218.546"/>
<text text-anchor="middle" x="853.805" y="-219.544" font-family="Arial" font-size="10.00">card</text>
</g>
<!-- l62 -->
<g id="node16" class="node"><title>l62</title>
<a xlink:href="../../SDMLib/src/org/eclipse/swt/widgets/Label.java" xlink:title="&lt;TABLE&gt;">
<polygon fill="none" stroke="black" points="888.359,-190 888.359,-207 984.359,-207 984.359,-190 888.359,-190"/>
<text text-anchor="start" x="912.859" y="-196.5" font-family="Arial" font-size="10.00"> </text>
<text text-anchor="start" x="916.859" y="-196.5" font-family="Arial" font-size="10.00">l62 :Label</text>
</a>
<polygon fill="none" stroke="black" points="888.359,-170 888.359,-190 984.359,-190 984.359,-170 888.359,-170"/>
<text text-anchor="start" x="893.359" y="-178" font-family="Arial" font-size="10.00">text = &quot;Ace Hearts&quot;</text>
</g>
<!-- topCardOnDeckControler&#45;&#45;l62 -->
<g id="edge46" class="edge"><title>topCardOnDeckControler&#45;&#45;l62</title>
<path fill="none" stroke="black" d="M936.359,-277.366C936.359,-256.232 936.359,-229.87 936.359,-211.662"/>
<text text-anchor="middle" x="940.585" y="-218.225" font-family="Arial" font-size="10.00">label</text>
</g>
<!-- c63 -->
<g id="node17" class="node"><title>c63</title>
<a xlink:href="../examples/org/sdmlib/examples/replication/maumau/CardListener.java" xlink:title="&lt;TABLE&gt;">
<polygon fill="none" stroke="black" points="1018.36,-180 1018.36,-197 1106.36,-197 1106.36,-180 1018.36,-180"/>
<text text-anchor="start" x="1021.86" y="-186.5" font-family="Arial" font-size="10.00"> </text>
<text text-anchor="start" x="1025.86" y="-186.5" font-family="Arial" font-size="10.00">c63 :CardListener</text>
</a>
</g>
<!-- topCardOnDeckControler&#45;&#45;c63 -->
<g id="edge48" class="edge"><title>topCardOnDeckControler&#45;&#45;c63</title>
<path fill="none" stroke="black" d="M972.128,-277.366C995.847,-254.401 1025.94,-225.261 1044.68,-207.12"/>
<text text-anchor="middle" x="1041.11" y="-213.961" font-family="Arial" font-size="10.00">listener</text>
</g>
</g>
</svg>
