<?xml version="1.0" encoding="UTF-8" standalone="no"?>
<!DOCTYPE svg PUBLIC "-//W3C//DTD SVG 1.1//EN"
 "http://www.w3.org/Graphics/SVG/1.1/DTD/svg11.dtd">
<!-- Generated by graphviz version 2.28.0 (20110507.0327)
 -->
<!-- Title: ObjectDiagram Pages: 1 -->
<svg width="737pt" height="262pt"
 viewBox="0.00 0.00 737.00 262.00" xmlns="http://www.w3.org/2000/svg" xmlns:xlink="http://www.w3.org/1999/xlink">
<g id="graph1" class="graph" transform="scale(1 1) rotate(0) translate(4 258)">
<title>ObjectDiagram</title>
<polygon fill="white" stroke="white" points="-4,5 -4,-258 734,-258 734,5 -4,5"/>
<!-- s8 -->
<g id="node1" class="node"><title>s8</title>
<image xlink:href="icons/worker.png" width="80px" height="61px" preserveAspectRatio="xMinYMin meet" x="79" y="-247"/>
<a xlink:href="../examples/org/sdmlib/examples/replication/maumau/ShowStartGameButton.java" xlink:title="&lt;TABLE&gt;">
<polygon fill="none" stroke="black" points="25,-168 25,-184 213,-184 213,-168 25,-168"/>
<text text-anchor="start" x="28.5" y="-174" font-family="Times New Roman,serif" font-size="10.00"> </text>
<text text-anchor="start" x="31.5" y="-174" font-family="Times New Roman,serif" font-size="10.00">s8 :ShowStartGameButton$StartGameAction</text>
</a>
</g>
<!-- l7 -->
<g id="node2" class="node"><title>l7</title>
<a xlink:href="../../SDMLib/src/org/eclipse/swt/widgets/Label.java" xlink:title="&lt;TABLE&gt;">
<polygon fill="none" stroke="black" points="8,-106 8,-123 231,-123 231,-106 8,-106"/>
<text text-anchor="start" x="101" y="-112.5" font-family="Times New Roman,serif" font-size="10.00"> </text>
<text text-anchor="start" x="104" y="-112.5" font-family="Times New Roman,serif" font-size="10.00">l7 :Label</text>
</a>
<polygon fill="none" stroke="black" points="8,-86 8,-106 231,-106 231,-86 8,-86"/>
<text text-anchor="start" x="13" y="-94" font-family="Times New Roman,serif" font-size="10.00">text = &quot;When all players have shown up, Start Game&quot;</text>
</g>
<!-- s8&#45;&#45;l7 -->
<g id="edge2" class="edge"><title>s8&#45;&#45;l7</title>
<path fill="none" stroke="black" d="M119,-164.447C119,-151.668 119,-138.252 119,-127.501"/>
<text text-anchor="middle" x="123.226" y="-134.064" font-family="Times New Roman,serif" font-size="10.00">startGameLabel</text>
</g>
<!-- taskboard -->
<g id="node3" class="node"><title>taskboard</title>
<image xlink:href="icons/shared.png" width="70px" height="23px" preserveAspectRatio="xMinYMin meet" x="447" y="-228"/>
<a xlink:href="../../SDMLib/src/org/sdmlib/replication/TaskFlowBoard.java" xlink:title="&lt;TABLE&gt;">
<polygon fill="none" stroke="black" points="423,-187 423,-203 541,-203 541,-187 423,-187"/>
<text text-anchor="start" x="426.5" y="-193" font-family="Times New Roman,serif" font-size="10.00"> </text>
<text text-anchor="start" x="429.5" y="-193" font-family="Times New Roman,serif" font-size="10.00">taskboard :TaskFlowBoard</text>
</a>
</g>
<!-- l3 -->
<g id="node4" class="node"><title>l3</title>
<a xlink:href="../../SDMLib/src/org/sdmlib/replication/Lane.java" xlink:title="&lt;TABLE&gt;">
<polygon fill="none" stroke="black" points="265,-106 265,-123 341,-123 341,-106 265,-106"/>
<text text-anchor="start" x="286" y="-112.5" font-family="Times New Roman,serif" font-size="10.00"> </text>
<text text-anchor="start" x="289" y="-112.5" font-family="Times New Roman,serif" font-size="10.00">l3 :Lane</text>
</a>
<polygon fill="none" stroke="black" points="265,-86 265,-106 341,-106 341,-86 265,-86"/>
<text text-anchor="start" x="270" y="-94" font-family="Times New Roman,serif" font-size="10.00">name = &quot;server&quot;</text>
</g>
<!-- taskboard&#45;&#45;l3 -->
<g id="edge4" class="edge"><title>taskboard&#45;&#45;l3</title>
<path fill="none" stroke="black" d="M438.669,-183.309C408.767,-166.269 369.396,-143.835 340.773,-127.524"/>
<text text-anchor="middle" x="350.74" y="-125.84" font-family="Times New Roman,serif" font-size="10.00">lanes</text>
<text text-anchor="middle" x="428.702" y="-179.993" font-family="Times New Roman,serif" font-size="10.00">board</text>
</g>
<!-- l5 -->
<g id="node6" class="node"><title>l5</title>
<a xlink:href="../../SDMLib/src/org/sdmlib/replication/Lane.java" xlink:title="&lt;TABLE&gt;">
<polygon fill="none" stroke="black" points="376,-106 376,-123 465,-123 465,-106 376,-106"/>
<text text-anchor="start" x="403.5" y="-112.5" font-family="Times New Roman,serif" font-size="10.00"> </text>
<text text-anchor="start" x="406.5" y="-112.5" font-family="Times New Roman,serif" font-size="10.00">l5 :Lane</text>
</a>
<polygon fill="none" stroke="black" points="376,-86 376,-106 465,-106 465,-86 376,-86"/>
<text text-anchor="start" x="381" y="-94" font-family="Times New Roman,serif" font-size="10.00">name = &quot;AbuLane&quot;</text>
</g>
<!-- taskboard&#45;&#45;l5 -->
<g id="edge6" class="edge"><title>taskboard&#45;&#45;l5</title>
<path fill="none" stroke="black" d="M466.992,-183.309C456.67,-166.328 443.092,-143.99 433.187,-127.694"/>
<text text-anchor="middle" x="441.505" y="-130.743" font-family="Times New Roman,serif" font-size="10.00">lanes</text>
<text text-anchor="middle" x="458.673" y="-175.259" font-family="Times New Roman,serif" font-size="10.00">board</text>
</g>
<!-- l1 -->
<g id="node8" class="node"><title>l1</title>
<a xlink:href="../../SDMLib/src/org/sdmlib/replication/Lane.java" xlink:title="&lt;TABLE&gt;">
<polygon fill="none" stroke="black" points="499,-106 499,-123 589,-123 589,-106 499,-106"/>
<text text-anchor="start" x="527" y="-112.5" font-family="Times New Roman,serif" font-size="10.00"> </text>
<text text-anchor="start" x="530" y="-112.5" font-family="Times New Roman,serif" font-size="10.00">l1 :Lane</text>
</a>
<polygon fill="none" stroke="black" points="499,-86 499,-106 589,-106 589,-86 499,-86"/>
<text text-anchor="start" x="504" y="-94" font-family="Times New Roman,serif" font-size="10.00">name = &quot;KarliLane&quot;</text>
</g>
<!-- taskboard&#45;&#45;l1 -->
<g id="edge8" class="edge"><title>taskboard&#45;&#45;l1</title>
<path fill="none" stroke="black" d="M497.008,-183.309C507.33,-166.328 520.908,-143.99 530.813,-127.694"/>
<text text-anchor="middle" x="529.717" y="-135.134" font-family="Times New Roman,serif" font-size="10.00">lanes</text>
<text text-anchor="middle" x="498.105" y="-170.869" font-family="Times New Roman,serif" font-size="10.00">board</text>
</g>
<!-- l11 -->
<g id="node11" class="node"><title>l11</title>
<a xlink:href="../../SDMLib/src/org/sdmlib/replication/Lane.java" xlink:title="&lt;TABLE&gt;">
<polygon fill="none" stroke="black" points="623,-106 623,-123 721,-123 721,-106 623,-106"/>
<text text-anchor="start" x="652.5" y="-112.5" font-family="Times New Roman,serif" font-size="10.00"> </text>
<text text-anchor="start" x="655.5" y="-112.5" font-family="Times New Roman,serif" font-size="10.00">l11 :Lane</text>
</a>
<polygon fill="none" stroke="black" points="623,-86 623,-106 721,-106 721,-86 623,-86"/>
<text text-anchor="start" x="628" y="-94" font-family="Times New Roman,serif" font-size="10.00">name = &quot;SabineLane&quot;</text>
</g>
<!-- taskboard&#45;&#45;l11 -->
<g id="edge10" class="edge"><title>taskboard&#45;&#45;l11</title>
<path fill="none" stroke="black" d="M527.994,-183.309C559.733,-166.269 601.523,-143.835 631.905,-127.524"/>
<text text-anchor="middle" x="625.919" y="-133.035" font-family="Times New Roman,serif" font-size="10.00">lanes</text>
<text text-anchor="middle" x="533.98" y="-172.798" font-family="Times New Roman,serif" font-size="10.00">board</text>
</g>
<!-- b12 -->
<g id="node5" class="node"><title>b12</title>
<a xlink:href="../../SDMLib/src/org/sdmlib/replication/BoardTask.java" xlink:title="&lt;TABLE&gt;">
<polygon fill="none" stroke="black" points="258,-24 258,-41 349,-41 349,-24 258,-24"/>
<text text-anchor="start" x="270.5" y="-30.5" font-family="Times New Roman,serif" font-size="10.00"> </text>
<text text-anchor="start" x="273.5" y="-30.5" font-family="Times New Roman,serif" font-size="10.00">b12 :BoardTask</text>
</a>
<polygon fill="none" stroke="black" points="258,-4 258,-24 349,-24 349,-4 258,-4"/>
<text text-anchor="start" x="263" y="-12" font-family="Times New Roman,serif" font-size="10.00">name = &quot;startGame&quot;</text>
</g>
<!-- l3&#45;&#45;b12 -->
<g id="edge12" class="edge"><title>l3&#45;&#45;b12</title>
<path fill="none" stroke="black" d="M303,-82.1396C303,-70.759 303,-56.8929 303,-45.5569"/>
<text text-anchor="middle" x="307.226" y="-52.12" font-family="Times New Roman,serif" font-size="10.00">tasks</text>
<text text-anchor="middle" x="298.774" y="-70.5766" font-family="Times New Roman,serif" font-size="10.00">lane</text>
</g>
<!-- b6 -->
<g id="node7" class="node"><title>b6</title>
<a xlink:href="../../SDMLib/src/org/sdmlib/replication/BoardTask.java" xlink:title="&lt;TABLE&gt;">
<polygon fill="none" stroke="black" points="386,-24 386,-41 454,-41 454,-24 386,-24"/>
<text text-anchor="start" x="389.5" y="-30.5" font-family="Times New Roman,serif" font-size="10.00"> </text>
<text text-anchor="start" x="392.5" y="-30.5" font-family="Times New Roman,serif" font-size="10.00">b6 :BoardTask</text>
</a>
<polygon fill="none" stroke="black" points="386,-4 386,-24 454,-24 454,-4 386,-4"/>
<text text-anchor="start" x="391" y="-12" font-family="Times New Roman,serif" font-size="10.00">name = &quot;init&quot;</text>
</g>
<!-- l5&#45;&#45;b6 -->
<g id="edge14" class="edge"><title>l5&#45;&#45;b6</title>
<path fill="none" stroke="black" d="M420,-82.1396C420,-70.759 420,-56.8929 420,-45.5569"/>
<text text-anchor="middle" x="424.226" y="-52.12" font-family="Times New Roman,serif" font-size="10.00">tasks</text>
<text text-anchor="middle" x="415.774" y="-70.5766" font-family="Times New Roman,serif" font-size="10.00">lane</text>
</g>
<!-- b9 -->
<g id="node9" class="node"><title>b9</title>
<a xlink:href="../../SDMLib/src/org/sdmlib/replication/BoardTask.java" xlink:title="&lt;TABLE&gt;">
<polygon fill="none" stroke="black" points="499,-24 499,-41 567,-41 567,-24 499,-24"/>
<text text-anchor="start" x="502.5" y="-30.5" font-family="Times New Roman,serif" font-size="10.00"> </text>
<text text-anchor="start" x="505.5" y="-30.5" font-family="Times New Roman,serif" font-size="10.00">b9 :BoardTask</text>
</a>
<polygon fill="none" stroke="black" points="499,-4 499,-24 567,-24 567,-4 499,-4"/>
<text text-anchor="start" x="504" y="-12" font-family="Times New Roman,serif" font-size="10.00">name = &quot;init&quot;</text>
</g>
<!-- l1&#45;&#45;b9 -->
<g id="edge16" class="edge"><title>l1&#45;&#45;b9</title>
<path fill="none" stroke="black" d="M540.994,-82.1396C539.429,-70.759 537.523,-56.8929 535.964,-45.5569"/>
<text text-anchor="middle" x="541.385" y="-51.4598" font-family="Times New Roman,serif" font-size="10.00">tasks</text>
<text text-anchor="middle" x="535.573" y="-71.2367" font-family="Times New Roman,serif" font-size="10.00">lane</text>
</g>
<!-- b13 -->
<g id="node10" class="node"><title>b13</title>
<a xlink:href="../../SDMLib/src/org/sdmlib/replication/BoardTask.java" xlink:title="&lt;TABLE&gt;">
<polygon fill="none" stroke="black" points="601,-24 601,-41 717,-41 717,-24 601,-24"/>
<text text-anchor="start" x="626" y="-30.5" font-family="Times New Roman,serif" font-size="10.00"> </text>
<text text-anchor="start" x="629" y="-30.5" font-family="Times New Roman,serif" font-size="10.00">b13 :BoardTask</text>
</a>
<polygon fill="none" stroke="black" points="601,-4 601,-24 717,-24 717,-4 601,-4"/>
<text text-anchor="start" x="606" y="-12" font-family="Times New Roman,serif" font-size="10.00">name = &quot;clickStartButton&quot;</text>
</g>
<!-- l1&#45;&#45;b13 -->
<g id="edge18" class="edge"><title>l1&#45;&#45;b13</title>
<path fill="none" stroke="black" d="M575.121,-82.3508C591.484,-70.9674 611.487,-57.0524 627.854,-45.6665"/>
<text text-anchor="middle" x="622.828" y="-51.8114" font-family="Times New Roman,serif" font-size="10.00">tasks</text>
<text text-anchor="middle" x="580.147" y="-71.206" font-family="Times New Roman,serif" font-size="10.00">lane</text>
</g>
</g>
</svg>
