<?xml version="1.0" encoding="UTF-8" standalone="no"?>
<!DOCTYPE svg PUBLIC "-//W3C//DTD SVG 1.1//EN"
 "http://www.w3.org/Graphics/SVG/1.1/DTD/svg11.dtd">
<!-- Generated by graphviz version 2.28.0 (20110507.0327)
 -->
<!-- Title: ObjectDiagram Pages: 1 -->
<svg width="796pt" height="454pt"
 viewBox="0.00 0.00 795.61 454.00" xmlns="http://www.w3.org/2000/svg" xmlns:xlink="http://www.w3.org/1999/xlink">
<g id="graph1" class="graph" transform="scale(1 1) rotate(0) translate(4 450)">
<title>ObjectDiagram</title>
<polygon fill="white" stroke="white" points="-4,5 -4,-450 792.613,-450 792.613,5 -4,5"/>
<!-- s2 -->
<g id="node1" class="node"><title>s2</title>
<image xlink:href="icons/worker.png" width="63px" height="61px" preserveAspectRatio="xMinYMin meet" x="151.613" y="-439"/>
<a xlink:href="../examples/org/sdmlib/examples/replication/maumau/StoryTheo.java" xlink:title="&lt;TABLE&gt;">
<polygon fill="none" stroke="black" points="149.613,-360 149.613,-376 216.613,-376 216.613,-360 149.613,-360"/>
<text text-anchor="start" x="153.113" y="-366" font-family="Times New Roman,serif" font-size="10.00"> </text>
<text text-anchor="start" x="156.113" y="-366" font-family="Times New Roman,serif" font-size="10.00">s2 :StoryTheo</text>
</a>
</g>
<!-- maumau -->
<g id="node2" class="node"><title>maumau</title>
<image xlink:href="icons/shared.png" width="70px" height="23px" preserveAspectRatio="xMinYMin meet" x="258.613" y="-420"/>
<a xlink:href="../examples/org/sdmlib/examples/replication/maumau/MauMau.java" xlink:title="&lt;TABLE&gt;">
<polygon fill="none" stroke="black" points="250.613,-379 250.613,-395 336.613,-395 336.613,-379 250.613,-379"/>
<text text-anchor="start" x="254.113" y="-385" font-family="Times New Roman,serif" font-size="10.00"> </text>
<text text-anchor="start" x="257.113" y="-385" font-family="Times New Roman,serif" font-size="10.00">maumau :MauMau</text>
</a>
</g>
<!-- c20 -->
<g id="node3" class="node"><title>c20</title>
<a xlink:href="../examples/org/sdmlib/examples/replication/maumau/Card.java" xlink:title="&lt;TABLE&gt;">
<polygon fill="none" stroke="black" points="294.613,-298 294.613,-315 363.613,-315 363.613,-298 294.613,-298"/>
<text text-anchor="start" x="309.113" y="-304.5" font-family="Times New Roman,serif" font-size="10.00"> </text>
<text text-anchor="start" x="312.113" y="-304.5" font-family="Times New Roman,serif" font-size="10.00">c20 :Card</text>
</a>
<polygon fill="none" stroke="black" points="294.613,-264 294.613,-298 363.613,-298 363.613,-264 294.613,-264"/>
<text text-anchor="start" x="299.613" y="-286" font-family="Times New Roman,serif" font-size="10.00">suit = &quot;Clubs&quot;</text>
<text text-anchor="start" x="299.613" y="-272" font-family="Times New Roman,serif" font-size="10.00">value = &quot;10&quot;</text>
</g>
<!-- maumau&#45;&#45;c20 -->
<g id="edge2" class="edge"><title>maumau&#45;&#45;c20</title>
<path fill="none" stroke="black" d="M301.556,-375.266C306.84,-358.81 313.801,-337.13 319.34,-319.881"/>
<text text-anchor="middle" x="320.593" y="-327.303" font-family="Times New Roman,serif" font-size="10.00">cards</text>
<text text-anchor="middle" x="300.303" y="-362.845" font-family="Times New Roman,serif" font-size="10.00">game</text>
</g>
<!-- karli -->
<g id="node4" class="node"><title>karli</title>
<a xlink:href="../examples/org/sdmlib/examples/replication/maumau/Player.java" xlink:title="&lt;TABLE&gt;">
<polygon fill="none" stroke="black" points="265.613,-202 265.613,-219 335.613,-219 335.613,-202 265.613,-202"/>
<text text-anchor="start" x="276.113" y="-208.5" font-family="Times New Roman,serif" font-size="10.00"> </text>
<text text-anchor="start" x="279.113" y="-208.5" font-family="Times New Roman,serif" font-size="10.00">karli :Player</text>
</a>
<polygon fill="none" stroke="black" points="265.613,-182 265.613,-202 335.613,-202 335.613,-182 265.613,-182"/>
<text text-anchor="start" x="270.613" y="-190" font-family="Times New Roman,serif" font-size="10.00">name = &quot;Karli&quot;</text>
</g>
<!-- maumau&#45;&#45;karli -->
<g id="edge18" class="edge"><title>maumau&#45;&#45;karli</title>
<path fill="none" stroke="black" d="M285.919,-375.291C278.249,-347.179 268.668,-299.984 276.613,-260 279.099,-247.495 284.325,-234.305 289.268,-223.669"/>
<text text-anchor="middle" x="289.354" y="-231.168" font-family="Times New Roman,serif" font-size="10.00">players</text>
<text text-anchor="middle" x="279.545" y="-365.086" font-family="Times New Roman,serif" font-size="10.00">game</text>
</g>
<!-- c27 -->
<g id="node5" class="node"><title>c27</title>
<a xlink:href="../examples/org/sdmlib/examples/replication/maumau/Card.java" xlink:title="&lt;TABLE&gt;">
<polygon fill="none" stroke="black" points="393.613,-120 393.613,-137 468.613,-137 468.613,-120 393.613,-120"/>
<text text-anchor="start" x="411.113" y="-126.5" font-family="Times New Roman,serif" font-size="10.00"> </text>
<text text-anchor="start" x="414.113" y="-126.5" font-family="Times New Roman,serif" font-size="10.00">c27 :Card</text>
</a>
<polygon fill="none" stroke="black" points="393.613,-86 393.613,-120 468.613,-120 468.613,-86 393.613,-86"/>
<text text-anchor="start" x="398.613" y="-108" font-family="Times New Roman,serif" font-size="10.00">suit = &quot;Spades&quot;</text>
<text text-anchor="start" x="398.613" y="-94" font-family="Times New Roman,serif" font-size="10.00">value = &quot;9&quot;</text>
</g>
<!-- maumau&#45;&#45;c27 -->
<g id="edge4" class="edge"><title>maumau&#45;&#45;c27</title>
<path fill="none" stroke="black" d="M328.837,-375.165C346.551,-360.934 366.9,-341.621 379.613,-320 397.389,-289.77 416.794,-190.869 425.676,-141.527"/>
<text text-anchor="middle" x="428.196" y="-148.705" font-family="Times New Roman,serif" font-size="10.00">cards</text>
<text text-anchor="middle" x="333.161" y="-363.648" font-family="Times New Roman,serif" font-size="10.00">game</text>
</g>
<!-- c48 -->
<g id="node6" class="node"><title>c48</title>
<a xlink:href="../examples/org/sdmlib/examples/replication/maumau/Card.java" xlink:title="&lt;TABLE&gt;">
<polygon fill="none" stroke="black" points="502.613,-120 502.613,-137 588.613,-137 588.613,-120 502.613,-120"/>
<text text-anchor="start" x="525.613" y="-126.5" font-family="Times New Roman,serif" font-size="10.00"> </text>
<text text-anchor="start" x="528.613" y="-126.5" font-family="Times New Roman,serif" font-size="10.00">c48 :Card</text>
</a>
<polygon fill="none" stroke="black" points="502.613,-86 502.613,-120 588.613,-120 588.613,-86 502.613,-86"/>
<text text-anchor="start" x="507.613" y="-108" font-family="Times New Roman,serif" font-size="10.00">suit = &quot;Diamonds&quot;</text>
<text text-anchor="start" x="507.613" y="-94" font-family="Times New Roman,serif" font-size="10.00">value = &quot;Ace&quot;</text>
</g>
<!-- maumau&#45;&#45;c48 -->
<g id="edge12" class="edge"><title>maumau&#45;&#45;c48</title>
<path fill="none" stroke="black" d="M336.385,-375.39C358.395,-361.222 384.534,-341.899 403.613,-320 450.636,-266.029 436.738,-235.32 479.613,-178 489.246,-165.122 501.424,-152.387 512.689,-141.648"/>
<text text-anchor="middle" x="509.096" y="-148.48" font-family="Times New Roman,serif" font-size="10.00">cards</text>
<text text-anchor="middle" x="341.648" y="-364.387" font-family="Times New Roman,serif" font-size="10.00">game</text>
</g>
<!-- c39 -->
<g id="node7" class="node"><title>c39</title>
<a xlink:href="../examples/org/sdmlib/examples/replication/maumau/Card.java" xlink:title="&lt;TABLE&gt;">
<polygon fill="none" stroke="black" points="26.6135,-120 26.6135,-137 98.6135,-137 98.6135,-120 26.6135,-120"/>
<text text-anchor="start" x="42.6135" y="-126.5" font-family="Times New Roman,serif" font-size="10.00"> </text>
<text text-anchor="start" x="45.6135" y="-126.5" font-family="Times New Roman,serif" font-size="10.00">c39 :Card</text>
</a>
<polygon fill="none" stroke="black" points="26.6135,-86 26.6135,-120 98.6135,-120 98.6135,-86 26.6135,-86"/>
<text text-anchor="start" x="31.6135" y="-108" font-family="Times New Roman,serif" font-size="10.00">suit = &quot;Hearts&quot;</text>
<text text-anchor="start" x="31.6135" y="-94" font-family="Times New Roman,serif" font-size="10.00">value = &quot;King&quot;</text>
</g>
<!-- maumau&#45;&#45;c39 -->
<g id="edge8" class="edge"><title>maumau&#45;&#45;c39</title>
<path fill="none" stroke="black" d="M266.985,-375.389C250.899,-360.04 230.343,-339.55 213.613,-320 161.988,-259.671 108.943,-182.834 81.557,-141.84"/>
<text text-anchor="middle" x="90.1215" y="-144.502" font-family="Times New Roman,serif" font-size="10.00">cards</text>
<text text-anchor="middle" x="257.52" y="-369.662" font-family="Times New Roman,serif" font-size="10.00">game</text>
</g>
<!-- c31 -->
<g id="node8" class="node"><title>c31</title>
<a xlink:href="../examples/org/sdmlib/examples/replication/maumau/Card.java" xlink:title="&lt;TABLE&gt;">
<polygon fill="none" stroke="black" points="245.613,-120 245.613,-137 320.613,-137 320.613,-120 245.613,-120"/>
<text text-anchor="start" x="263.113" y="-126.5" font-family="Times New Roman,serif" font-size="10.00"> </text>
<text text-anchor="start" x="266.113" y="-126.5" font-family="Times New Roman,serif" font-size="10.00">c31 :Card</text>
</a>
<polygon fill="none" stroke="black" points="245.613,-86 245.613,-120 320.613,-120 320.613,-86 245.613,-86"/>
<text text-anchor="start" x="250.613" y="-108" font-family="Times New Roman,serif" font-size="10.00">suit = &quot;Spades&quot;</text>
<text text-anchor="start" x="250.613" y="-94" font-family="Times New Roman,serif" font-size="10.00">value = &quot;King&quot;</text>
</g>
<!-- maumau&#45;&#45;c31 -->
<g id="edge6" class="edge"><title>maumau&#45;&#45;c31</title>
<path fill="none" stroke="black" d="M281.444,-375.215C262.823,-334.038 231.158,-249.032 248.613,-178 251.713,-165.385 257.741,-152.504 263.87,-141.571"/>
<text text-anchor="middle" x="263.21" y="-149.049" font-family="Times New Roman,serif" font-size="10.00">cards</text>
<text text-anchor="middle" x="273.956" y="-366.087" font-family="Times New Roman,serif" font-size="10.00">game</text>
</g>
<!-- p10 -->
<g id="node9" class="node"><title>p10</title>
<a xlink:href="../examples/org/sdmlib/examples/replication/maumau/Player.java" xlink:title="&lt;TABLE&gt;">
<polygon fill="none" stroke="black" points="132.613,-113 132.613,-130 210.613,-130 210.613,-113 132.613,-113"/>
<text text-anchor="start" x="148.113" y="-119.5" font-family="Times New Roman,serif" font-size="10.00"> </text>
<text text-anchor="start" x="151.113" y="-119.5" font-family="Times New Roman,serif" font-size="10.00">p10 :Player</text>
</a>
<polygon fill="none" stroke="black" points="132.613,-93 132.613,-113 210.613,-113 210.613,-93 132.613,-93"/>
<text text-anchor="start" x="137.613" y="-101" font-family="Times New Roman,serif" font-size="10.00">name = &quot;Sabine&quot;</text>
</g>
<!-- maumau&#45;&#45;p10 -->
<g id="edge20" class="edge"><title>maumau&#45;&#45;p10</title>
<path fill="none" stroke="black" d="M275.709,-375.31C265.114,-359.932 251.979,-339.439 242.613,-320 211.364,-255.139 187.474,-172.878 177.171,-134.517"/>
<text text-anchor="middle" x="183.639" y="-139.644" font-family="Times New Roman,serif" font-size="10.00">players</text>
<text text-anchor="middle" x="267.109" y="-367.705" font-family="Times New Roman,serif" font-size="10.00">game</text>
</g>
<!-- p4 -->
<g id="node10" class="node"><title>p4</title>
<a xlink:href="../examples/org/sdmlib/examples/replication/maumau/Player.java" xlink:title="&lt;TABLE&gt;">
<polygon fill="none" stroke="black" points="137.613,-24 137.613,-41 206.613,-41 206.613,-24 137.613,-24"/>
<text text-anchor="start" x="150.613" y="-30.5" font-family="Times New Roman,serif" font-size="10.00"> </text>
<text text-anchor="start" x="153.613" y="-30.5" font-family="Times New Roman,serif" font-size="10.00">p4 :Player</text>
</a>
<polygon fill="none" stroke="black" points="137.613,-4 137.613,-24 206.613,-24 206.613,-4 137.613,-4"/>
<text text-anchor="start" x="142.613" y="-12" font-family="Times New Roman,serif" font-size="10.00">name = &quot;Abu&quot;</text>
</g>
<!-- maumau&#45;&#45;p4 -->
<g id="edge16" class="edge"><title>maumau&#45;&#45;p4</title>
<path fill="none" stroke="black" d="M261.306,-375.325C252.213,-368.761 242.187,-361.869 232.613,-356 202.788,-337.716 190.081,-341.667 162.613,-320 80.7095,-255.391 45.8746,-239.815 9.61347,-142 0.344238,-116.996 -5.7393,-103.804 9.61347,-82 36.4437,-43.8961 90.7313,-30.6937 129.05,-26.1936"/>
<text text-anchor="middle" x="120.641" y="-29.1058" font-family="Times New Roman,serif" font-size="10.00">players_currentMove</text>
<text text-anchor="middle" x="251.479" y="-370.972" font-family="Times New Roman,serif" font-size="10.00">game_assignment</text>
</g>
<!-- c40 -->
<g id="node11" class="node"><title>c40</title>
<a xlink:href="../examples/org/sdmlib/examples/replication/maumau/Card.java" xlink:title="&lt;TABLE&gt;">
<polygon fill="none" stroke="black" points="511.613,-298 511.613,-315 583.613,-315 583.613,-298 511.613,-298"/>
<text text-anchor="start" x="527.613" y="-304.5" font-family="Times New Roman,serif" font-size="10.00"> </text>
<text text-anchor="start" x="530.613" y="-304.5" font-family="Times New Roman,serif" font-size="10.00">c40 :Card</text>
</a>
<polygon fill="none" stroke="black" points="511.613,-264 511.613,-298 583.613,-298 583.613,-264 511.613,-264"/>
<text text-anchor="start" x="516.613" y="-286" font-family="Times New Roman,serif" font-size="10.00">suit = &quot;Hearts&quot;</text>
<text text-anchor="start" x="516.613" y="-272" font-family="Times New Roman,serif" font-size="10.00">value = &quot;Ace&quot;</text>
</g>
<!-- maumau&#45;&#45;c40 -->
<g id="edge10" class="edge"><title>maumau&#45;&#45;c40</title>
<path fill="none" stroke="black" d="M344.829,-380.331C384.642,-364.745 441.075,-342.002 489.613,-320 494.125,-317.955 498.799,-315.756 503.447,-313.517"/>
<text text-anchor="middle" x="497.109" y="-318.752" font-family="Times New Roman,serif" font-size="10.00">cards</text>
<text text-anchor="middle" x="351.717" y="-370.582" font-family="Times New Roman,serif" font-size="10.00">game</text>
</g>
<!-- h15 -->
<g id="node12" class="node"><title>h15</title>
<a xlink:href="../examples/org/sdmlib/examples/replication/maumau/Holder.java" xlink:title="&lt;TABLE&gt;">
<polygon fill="none" stroke="black" points="496.613,-192 496.613,-209 552.613,-209 552.613,-192 496.613,-192"/>
<text text-anchor="start" x="500.113" y="-198.5" font-family="Times New Roman,serif" font-size="10.00"> </text>
<text text-anchor="start" x="503.113" y="-198.5" font-family="Times New Roman,serif" font-size="10.00">h15 :Holder</text>
</a>
</g>
<!-- maumau&#45;&#45;h15 -->
<g id="edge14" class="edge"><title>maumau&#45;&#45;h15</title>
<path fill="none" stroke="black" d="M344.913,-382.387C378.145,-369.09 420.812,-348.28 451.613,-320 468.294,-304.686 499.844,-248.226 515.429,-219.312"/>
<text text-anchor="middle" x="514.816" y="-226.794" font-family="Times New Roman,serif" font-size="10.00">deck</text>
<text text-anchor="middle" x="351.684" y="-372.527" font-family="Times New Roman,serif" font-size="10.00">deckOwner</text>
</g>
<!-- c20&#45;&#45;karli -->
<g id="edge22" class="edge"><title>c20&#45;&#45;karli</title>
<path fill="none" stroke="black" d="M319.29,-260.03C315.472,-248.167 311.129,-234.675 307.593,-223.687"/>
<text text-anchor="middle" x="314.393" y="-228.52" font-family="Times New Roman,serif" font-size="10.00">holder</text>
<text text-anchor="middle" x="312.49" y="-250.198" font-family="Times New Roman,serif" font-size="10.00">cards</text>
</g>
<!-- karli&#45;&#45;c27 -->
<g id="edge24" class="edge"><title>karli&#45;&#45;c27</title>
<path fill="none" stroke="black" d="M332.748,-178.494C349.29,-167.424 369.685,-153.775 387.568,-141.807"/>
<text text-anchor="middle" x="382.386" y="-147.86" font-family="Times New Roman,serif" font-size="10.00">cards</text>
<text text-anchor="middle" x="337.93" y="-167.441" font-family="Times New Roman,serif" font-size="10.00">holder</text>
</g>
<!-- karli&#45;&#45;c48 -->
<g id="edge26" class="edge"><title>karli&#45;&#45;c48</title>
<path fill="none" stroke="black" d="M343.955,-188.177C381.618,-177.47 437.389,-160.566 484.613,-142 487.887,-140.713 491.232,-139.329 494.585,-137.889"/>
<text text-anchor="middle" x="487.915" y="-142.84" font-family="Times New Roman,serif" font-size="10.00">cards</text>
<text text-anchor="middle" x="351.499" y="-179.113" font-family="Times New Roman,serif" font-size="10.00">holder</text>
</g>
<!-- karli&#45;&#45;c39 -->
<g id="edge28" class="edge"><title>karli&#45;&#45;c39</title>
<path fill="none" stroke="black" d="M257.509,-189.078C219.456,-178.831 162.847,-162.095 115.613,-142 112.718,-140.768 109.773,-139.427 106.831,-138.018"/>
<text text-anchor="middle" x="116.83" y="-135.6" font-family="Times New Roman,serif" font-size="10.00">cards</text>
<text text-anchor="middle" x="247.652" y="-188.265" font-family="Times New Roman,serif" font-size="10.00">holder</text>
</g>
<!-- karli&#45;&#45;c31 -->
<g id="edge30" class="edge"><title>karli&#45;&#45;c31</title>
<path fill="none" stroke="black" d="M296.164,-178.494C293.874,-167.424 291.05,-153.775 288.574,-141.807"/>
<text text-anchor="middle" x="294.548" y="-147.326" font-family="Times New Roman,serif" font-size="10.00">cards</text>
<text text-anchor="middle" x="290.189" y="-167.976" font-family="Times New Roman,serif" font-size="10.00">holder</text>
</g>
<!-- karli&#45;&#45;p10 -->
<g id="edge32" class="edge"><title>karli&#45;&#45;p10</title>
<path fill="none" stroke="black" d="M268.726,-178.494C248.879,-165.11 223.443,-147.955 203.581,-134.56"/>
<text text-anchor="middle" x="213.458" y="-133.623" font-family="Times New Roman,serif" font-size="10.00">next</text>
<text text-anchor="middle" x="258.849" y="-174.431" font-family="Times New Roman,serif" font-size="10.00">prev</text>
</g>
<!-- karli&#45;&#45;p4 -->
<g id="edge34" class="edge"><title>karli&#45;&#45;p4</title>
<path fill="none" stroke="black" d="M317.825,-178.164C335.41,-153.004 357.415,-111.361 336.613,-82 309.055,-43.1013 253.24,-30.0996 214.192,-25.8611"/>
<text text-anchor="middle" x="223.717" y="-20.3148" font-family="Times New Roman,serif" font-size="10.00">prev</text>
<text text-anchor="middle" x="319.351" y="-165.781" font-family="Times New Roman,serif" font-size="10.00">next</text>
</g>
<!-- p10&#45;&#45;p4 -->
<g id="edge36" class="edge"><title>p10&#45;&#45;p4</title>
<path fill="none" stroke="black" d="M171.613,-89.4944C171.613,-76.1096 171.613,-58.9547 171.613,-45.5597"/>
<text text-anchor="middle" x="175.84" y="-52.1228" font-family="Times New Roman,serif" font-size="10.00">next</text>
<text text-anchor="middle" x="167.387" y="-77.9313" font-family="Times New Roman,serif" font-size="10.00">prev</text>
</g>
<!-- c40&#45;&#45;h15 -->
<g id="edge38" class="edge"><title>c40&#45;&#45;h15</title>
<path fill="none" stroke="black" d="M539.955,-260.03C536.374,-246.486 532.232,-230.819 529.155,-219.18"/>
<text text-anchor="middle" x="535.558" y="-224.362" font-family="Times New Roman,serif" font-size="10.00">holder</text>
<text text-anchor="middle" x="533.553" y="-249.848" font-family="Times New Roman,serif" font-size="10.00">cards</text>
</g>
<!-- topCardOnDeckControler -->
<g id="node13" class="node"><title>topCardOnDeckControler</title>
<image xlink:href="icons/person1.png" width="32px" height="43px" preserveAspectRatio="xMinYMin meet" x="626.113" y="-430"/>
<a xlink:href="../examples/org/sdmlib/examples/replication/maumau/CardControler.java" xlink:title="&lt;TABLE&gt;">
<polygon fill="none" stroke="black" points="555.613,-369 555.613,-385 728.613,-385 728.613,-369 555.613,-369"/>
<text text-anchor="start" x="559.113" y="-375" font-family="Times New Roman,serif" font-size="10.00"> </text>
<text text-anchor="start" x="562.113" y="-375" font-family="Times New Roman,serif" font-size="10.00">topCardOnDeckControler :CardControler</text>
</a>
</g>
<!-- topCardOnDeckControler&#45;&#45;c40 -->
<g id="edge40" class="edge"><title>topCardOnDeckControler&#45;&#45;c40</title>
<path fill="none" stroke="black" d="M611.613,-365.212C598.933,-350.508 584.344,-333.592 572.301,-319.627"/>
<text text-anchor="middle" x="581.421" y="-321.231" font-family="Times New Roman,serif" font-size="10.00">card</text>
</g>
<!-- l52 -->
<g id="node14" class="node"><title>l52</title>
<a xlink:href="../../SDMLib/src/org/eclipse/swt/widgets/Label.java" xlink:title="&lt;TABLE&gt;">
<polygon fill="none" stroke="black" points="617.613,-291 617.613,-308 665.613,-308 665.613,-291 617.613,-291"/>
<text text-anchor="start" x="621.113" y="-297.5" font-family="Times New Roman,serif" font-size="10.00"> </text>
<text text-anchor="start" x="624.113" y="-297.5" font-family="Times New Roman,serif" font-size="10.00">l52 :Label</text>
</a>
<polygon fill="none" stroke="black" points="617.613,-271 617.613,-291 665.613,-291 665.613,-271 617.613,-271"/>
<text text-anchor="start" x="622.613" y="-279" font-family="Times New Roman,serif" font-size="10.00">text = &quot; &quot;</text>
</g>
<!-- topCardOnDeckControler&#45;&#45;l52 -->
<g id="edge42" class="edge"><title>topCardOnDeckControler&#45;&#45;l52</title>
<path fill="none" stroke="black" d="M641.613,-365.212C641.613,-348.016 641.613,-327.794 641.613,-312.806"/>
<text text-anchor="middle" x="645.84" y="-319.369" font-family="Times New Roman,serif" font-size="10.00">label</text>
</g>
<!-- c53 -->
<g id="node15" class="node"><title>c53</title>
<a xlink:href="../examples/org/sdmlib/examples/replication/maumau/CardListener.java" xlink:title="&lt;TABLE&gt;">
<polygon fill="none" stroke="black" points="699.613,-281 699.613,-298 779.613,-298 779.613,-281 699.613,-281"/>
<text text-anchor="start" x="703.113" y="-287.5" font-family="Times New Roman,serif" font-size="10.00"> </text>
<text text-anchor="start" x="706.113" y="-287.5" font-family="Times New Roman,serif" font-size="10.00">c53 :CardListener</text>
</a>
</g>
<!-- topCardOnDeckControler&#45;&#45;c53 -->
<g id="edge44" class="edge"><title>topCardOnDeckControler&#45;&#45;c53</title>
<path fill="none" stroke="black" d="M672.891,-365.212C690.032,-346.147 710.517,-323.363 724.226,-308.115"/>
<text text-anchor="middle" x="721.309" y="-315.18" font-family="Times New Roman,serif" font-size="10.00">listener</text>
</g>
</g>
</svg>
