<?xml version="1.0" encoding="UTF-8" standalone="no"?>
<!DOCTYPE svg PUBLIC "-//W3C//DTD SVG 1.1//EN"
 "http://www.w3.org/Graphics/SVG/1.1/DTD/svg11.dtd">
<!-- Generated by graphviz version 2.28.0 (20110507.0327)
 -->
<!-- Title: ObjectDiagram Pages: 1 -->
<svg width="907pt" height="384pt"
 viewBox="0.00 0.00 907.00 384.00" xmlns="http://www.w3.org/2000/svg" xmlns:xlink="http://www.w3.org/1999/xlink">
<g id="graph1" class="graph" transform="scale(1 1) rotate(0) translate(4 380)">
<title>ObjectDiagram</title>
<polygon fill="white" stroke="white" points="-4,5 -4,-380 904,-380 904,5 -4,5"/>
<!-- karliNode -->
<g id="node1" class="node"><title>karliNode</title>
<image xlink:href="icons/node.png" width="83px" height="61px" preserveAspectRatio="xMinYMin meet" x="10" y="-357"/>
<a xlink:href="../../SDMLib/src/org/sdmlib/replication/Node.java" xlink:title="&lt;TABLE&gt;">
<polygon fill="none" stroke="black" points="8,-278 8,-294 95,-294 95,-278 8,-278"/>
<text text-anchor="start" x="14.5" y="-284" font-family="Arial" font-size="10.00"> </text>
<text text-anchor="start" x="18.5" y="-284" font-family="Arial" font-size="10.00">karliNode :Node</text>
</a>
</g>
<!-- s4 -->
<g id="node2" class="node"><title>s4</title>
<image xlink:href="icons/worker.png" width="80px" height="61px" preserveAspectRatio="xMinYMin meet" x="167" y="-357"/>
<a xlink:href="../examples/org/sdmlib/examples/replication/maumau/ShowStartGameButtonAction.java" xlink:title="&lt;TABLE&gt;">
<polygon fill="none" stroke="black" points="129,-278 129,-294 285,-294 285,-278 129,-278"/>
<text text-anchor="start" x="132.5" y="-284" font-family="Arial" font-size="10.00"> </text>
<text text-anchor="start" x="136.5" y="-284" font-family="Arial" font-size="10.00">s4 :ShowStartGameButtonAction</text>
</a>
</g>
<!-- taskboard -->
<g id="node3" class="node"><title>taskboard</title>
<image xlink:href="icons/shared.png" width="70px" height="23px" preserveAspectRatio="xMinYMin meet" x="348.5" y="-338"/>
<a xlink:href="../../SDMLib/src/org/sdmlib/replication/TaskFlowBoard.java" xlink:title="&lt;TABLE&gt;">
<polygon fill="none" stroke="black" points="320,-297 320,-313 447,-313 447,-297 320,-297"/>
<text text-anchor="start" x="323.5" y="-303" font-family="Arial" font-size="10.00"> </text>
<text text-anchor="start" x="327.5" y="-303" font-family="Arial" font-size="10.00">taskboard :TaskFlowBoard</text>
</a>
</g>
<!-- l2 -->
<g id="node4" class="node"><title>l2</title>
<a xlink:href="../../SDMLib/src/org/sdmlib/replication/Lane.java" xlink:title="&lt;TABLE&gt;">
<polygon fill="none" stroke="black" points="281,-162 281,-179 362,-179 362,-162 281,-162"/>
<text text-anchor="start" x="302" y="-168.5" font-family="Arial" font-size="10.00"> </text>
<text text-anchor="start" x="306" y="-168.5" font-family="Arial" font-size="10.00">l2 :Lane</text>
</a>
<polygon fill="none" stroke="black" points="281,-142 281,-162 362,-162 362,-142 281,-142"/>
<text text-anchor="start" x="286" y="-150" font-family="Arial" font-size="10.00">name = &quot;server&quot;</text>
</g>
<!-- taskboard&#45;&#45;l2 -->
<g id="edge2" class="edge"><title>taskboard&#45;&#45;l2</title>
<path fill="none" stroke="black" d="M373.176,-293.281C361.157,-263.04 341.003,-212.329 329.58,-183.589"/>
<text text-anchor="middle" x="336.855" y="-187.95" font-family="Arial" font-size="10.00">lanes</text>
<text text-anchor="middle" x="365.901" y="-283.92" font-family="Arial" font-size="10.00">board</text>
</g>
<!-- l1 -->
<g id="node5" class="node"><title>l1</title>
<a xlink:href="../../SDMLib/src/org/sdmlib/replication/Lane.java" xlink:title="&lt;TABLE&gt;">
<polygon fill="none" stroke="black" points="396,-162 396,-179 492,-179 492,-162 396,-162"/>
<text text-anchor="start" x="424.5" y="-168.5" font-family="Arial" font-size="10.00"> </text>
<text text-anchor="start" x="428.5" y="-168.5" font-family="Arial" font-size="10.00">l1 :Lane</text>
</a>
<polygon fill="none" stroke="black" points="396,-142 396,-162 492,-162 492,-142 396,-142"/>
<text text-anchor="start" x="401" y="-150" font-family="Arial" font-size="10.00">name = &quot;KarliLane&quot;</text>
</g>
<!-- taskboard&#45;&#45;l1 -->
<g id="edge4" class="edge"><title>taskboard&#45;&#45;l1</title>
<path fill="none" stroke="black" d="M392.666,-293.281C404.491,-263.04 424.32,-212.329 435.558,-183.589"/>
<text text-anchor="middle" x="436.194" y="-191.069" font-family="Arial" font-size="10.00">lanes</text>
<text text-anchor="middle" x="392.03" y="-280.802" font-family="Arial" font-size="10.00">board</text>
</g>
<!-- b3 -->
<g id="node6" class="node"><title>b3</title>
<a xlink:href="../../SDMLib/src/org/sdmlib/replication/BoardTask.java" xlink:title="&lt;TABLE&gt;">
<polygon fill="none" stroke="black" points="368,-38 368,-55 521,-55 521,-38 368,-38"/>
<text text-anchor="start" x="410.5" y="-44.5" font-family="Arial" font-size="10.00"> </text>
<text text-anchor="start" x="414.5" y="-44.5" font-family="Arial" font-size="10.00">b3 :BoardTask</text>
</a>
<polygon fill="none" stroke="black" points="368,-4 368,-38 521,-38 521,-4 368,-4"/>
<text text-anchor="start" x="373" y="-26" font-family="Arial" font-size="10.00">name = &quot;showStartGameButton&quot;</text>
<text text-anchor="start" x="373" y="-12" font-family="Arial" font-size="10.00">status = &quot;start&quot;</text>
</g>
<!-- l1&#45;&#45;b3 -->
<g id="edge6" class="edge"><title>l1&#45;&#45;b3</title>
<path fill="none" stroke="black" d="M444,-138.408C444,-116.891 444,-83.7134 444,-59.9275"/>
<text text-anchor="middle" x="448.226" y="-66.4906" font-family="Arial" font-size="10.00">tasks</text>
<text text-anchor="middle" x="439.774" y="-126.845" font-family="Arial" font-size="10.00">lane</text>
</g>
<!-- l5 -->
<g id="node7" class="node"><title>l5</title>
<a xlink:href="../../SDMLib/src/org/eclipse/swt/widgets/Label.java" xlink:title="&lt;TABLE&gt;">
<polygon fill="none" stroke="black" points="527,-162 527,-179 770,-179 770,-162 527,-162"/>
<text text-anchor="start" x="628" y="-168.5" font-family="Arial" font-size="10.00"> </text>
<text text-anchor="start" x="632" y="-168.5" font-family="Arial" font-size="10.00">l5 :Label</text>
</a>
<polygon fill="none" stroke="black" points="527,-142 527,-162 770,-162 770,-142 527,-142"/>
<text text-anchor="start" x="532" y="-150" font-family="Arial" font-size="10.00">text = &quot;When all players have shown up, Start Game&quot;</text>
</g>
<!-- s6 -->
<g id="node8" class="node"><title>s6</title>
<image xlink:href="icons/person1.png" width="32px" height="43px" preserveAspectRatio="xMinYMin meet" x="632" y="-348"/>
<a xlink:href="../examples/org/sdmlib/examples/replication/maumau/StartGameMouseAdapter.java" xlink:title="&lt;TABLE&gt;">
<polygon fill="none" stroke="black" points="579,-287 579,-303 717,-303 717,-287 579,-287"/>
<text text-anchor="start" x="582.5" y="-293" font-family="Arial" font-size="10.00"> </text>
<text text-anchor="start" x="586.5" y="-293" font-family="Arial" font-size="10.00">s6 :StartGameMouseAdapter</text>
</a>
</g>
<!-- s6&#45;&#45;l5 -->
<g id="edge8" class="edge"><title>s6&#45;&#45;l5</title>
<path fill="none" stroke="black" d="M648,-283.379C648,-252.859 648,-209.348 648,-183.558"/>
<text text-anchor="middle" x="652.226" y="-190.121" font-family="Arial" font-size="10.00">startGameLabel</text>
</g>
<!-- maumau -->
<g id="node9" class="node"><title>maumau</title>
<image xlink:href="icons/shared.png" width="70px" height="23px" preserveAspectRatio="xMinYMin meet" x="810.5" y="-369"/>
<a xlink:href="../examples/org/sdmlib/examples/replication/maumau/MauMau.java" xlink:title="&lt;TABLE&gt;">
<polygon fill="none" stroke="black" points="799,-328 799,-344 892,-344 892,-328 799,-328"/>
<text text-anchor="start" x="802.5" y="-334" font-family="Arial" font-size="10.00"> </text>
<text text-anchor="start" x="806.5" y="-334" font-family="Arial" font-size="10.00">maumau :MauMau</text>
</a>
<polygon fill="none" stroke="black" points="799,-266 799,-328 892,-328 892,-266 799,-266"/>
<text text-anchor="start" x="804" y="-316" font-family="Arial" font-size="10.00">deck = &quot;&quot;</text>
<text text-anchor="start" x="804" y="-302" font-family="Arial" font-size="10.00">stack = &quot;&quot;</text>
<text text-anchor="start" x="804" y="-288" font-family="Arial" font-size="10.00">currentMove = &quot;&quot;</text>
<text text-anchor="start" x="804" y="-274" font-family="Arial" font-size="10.00">duty = &quot;&quot;</text>
</g>
<!-- karli -->
<g id="node10" class="node"><title>karli</title>
<a xlink:href="../examples/org/sdmlib/examples/replication/maumau/Player.java" xlink:title="&lt;TABLE&gt;">
<polygon fill="none" stroke="black" points="804,-204 804,-221 887,-221 887,-204 804,-204"/>
<text text-anchor="start" x="817.5" y="-210.5" font-family="Arial" font-size="10.00"> </text>
<text text-anchor="start" x="821.5" y="-210.5" font-family="Arial" font-size="10.00">karli :Player</text>
</a>
<polygon fill="none" stroke="black" points="804,-100 804,-204 887,-204 887,-100 804,-100"/>
<text text-anchor="start" x="809" y="-192" font-family="Arial" font-size="10.00">name = &quot;Karli&quot;</text>
<text text-anchor="start" x="809" y="-178" font-family="Arial" font-size="10.00">deckOwner = &quot;&quot;</text>
<text text-anchor="start" x="809" y="-164" font-family="Arial" font-size="10.00">stackOwner = &quot;&quot;</text>
<text text-anchor="start" x="809" y="-150" font-family="Arial" font-size="10.00">next = &quot;&quot;</text>
<text text-anchor="start" x="809" y="-136" font-family="Arial" font-size="10.00">prev = &quot;&quot;</text>
<text text-anchor="start" x="809" y="-122" font-family="Arial" font-size="10.00">assignment = &quot;&quot;</text>
<text text-anchor="start" x="809" y="-108" font-family="Arial" font-size="10.00">duty = &quot;&quot;</text>
</g>
<!-- maumau&#45;&#45;karli -->
<g id="edge10" class="edge"><title>maumau&#45;&#45;karli</title>
<path fill="none" stroke="black" d="M845,-262.121C845,-250.318 845,-237.779 845,-225.712"/>
<text text-anchor="middle" x="849.226" y="-232.275" font-family="Arial" font-size="10.00">players</text>
<text text-anchor="middle" x="840.774" y="-250.558" font-family="Arial" font-size="10.00">game</text>
</g>
</g>
</svg>
