<?xml version="1.0" encoding="UTF-8" standalone="no"?>
<!DOCTYPE svg PUBLIC "-//W3C//DTD SVG 1.1//EN"
 "http://www.w3.org/Graphics/SVG/1.1/DTD/svg11.dtd">
<!-- Generated by graphviz version 2.28.0 (20110507.0327)
 -->
<!-- Title: ClassDiagram Pages: 1 -->
<svg width="707pt" height="552pt"
 viewBox="0.00 0.00 707.00 552.00" xmlns="http://www.w3.org/2000/svg" xmlns:xlink="http://www.w3.org/1999/xlink">
<g id="graph1" class="graph" transform="scale(1 1) rotate(0) translate(4 548)">
<title>ClassDiagram</title>
<polygon fill="white" stroke="white" points="-4,5 -4,-548 704,-548 704,5 -4,5"/>
<!-- _MauMau -->
<g id="node1" class="node"><title>_MauMau</title>
<a xlink:href="../examples/org/sdmlib/examples/replication/maumau/MauMau.java" xlink:title="&lt;TABLE&gt;">
<polygon fill="none" stroke="black" points="60,-392 60,-409 105,-409 105,-392 60,-392"/>
<text text-anchor="start" x="63.5" y="-398.5" font-family="Times New Roman,serif" font-size="10.00">MauMau</text>
</a>
<polygon fill="none" stroke="black" points="60,-372 60,-392 105,-392 105,-372 60,-372"/>
<text text-anchor="start" x="81" y="-380" font-family="Times New Roman,serif" font-size="10.00"> </text>
<polygon fill="none" stroke="black" points="60,-352 60,-372 105,-372 105,-352 60,-352"/>
<text text-anchor="start" x="81" y="-360" font-family="Times New Roman,serif" font-size="10.00"> </text>
</g>
<!-- _Card -->
<g id="node2" class="node"><title>_Card</title>
<a xlink:href="../examples/org/sdmlib/examples/replication/maumau/Card.java" xlink:title="&lt;TABLE&gt;">
<polygon fill="none" stroke="black" points="146,-174 146,-191 206,-191 206,-174 146,-174"/>
<text text-anchor="start" x="166.5" y="-180.5" font-family="Times New Roman,serif" font-size="10.00">Card</text>
</a>
<polygon fill="none" stroke="black" points="146,-140 146,-174 206,-174 206,-140 146,-140"/>
<text text-anchor="start" x="151" y="-162" font-family="Times New Roman,serif" font-size="10.00">suit :Suit</text>
<text text-anchor="start" x="151" y="-148" font-family="Times New Roman,serif" font-size="10.00">value :Value</text>
<polygon fill="none" stroke="black" points="146,-120 146,-140 206,-140 206,-120 146,-120"/>
<text text-anchor="start" x="174.5" y="-128" font-family="Times New Roman,serif" font-size="10.00"> </text>
</g>
<!-- _MauMau&#45;&gt;_Card -->
<g id="edge4" class="edge"><title>_MauMau&#45;&gt;_Card</title>
<path fill="none" stroke="black" d="M112.267,-351.064C125.844,-336.414 140.835,-317.602 150,-298 165.181,-265.529 171.51,-224.975 174.142,-195.705"/>
<text text-anchor="middle" x="177.45" y="-202.642" font-family="Times New Roman,serif" font-size="10.00">cards *</text>
<text text-anchor="middle" x="115.239" y="-339.016" font-family="Times New Roman,serif" font-size="10.00">game</text>
</g>
<!-- _Holder -->
<g id="node3" class="node"><title>_Holder</title>
<a xlink:href="../examples/org/sdmlib/examples/replication/maumau/Holder.java" xlink:title="&lt;TABLE&gt;">
<polygon fill="none" stroke="black" points="97,-276 97,-293 132,-293 132,-276 97,-276"/>
<text text-anchor="start" x="100.5" y="-282.5" font-family="Times New Roman,serif" font-size="10.00">Holder</text>
</a>
<polygon fill="none" stroke="black" points="97,-256 97,-276 132,-276 132,-256 97,-256"/>
<text text-anchor="start" x="113" y="-264" font-family="Times New Roman,serif" font-size="10.00"> </text>
<polygon fill="none" stroke="black" points="97,-236 97,-256 132,-256 132,-236 97,-236"/>
<text text-anchor="start" x="113" y="-244" font-family="Times New Roman,serif" font-size="10.00"> </text>
</g>
<!-- _MauMau&#45;&gt;_Holder -->
<g id="edge6" class="edge"><title>_MauMau&#45;&gt;_Holder</title>
<path fill="none" stroke="black" d="M84.7904,-348.245C88.3903,-332.433 93.7433,-313.373 99.0197,-297.585"/>
<text text-anchor="middle" x="100.211" y="-305.014" font-family="Times New Roman,serif" font-size="10.00">deck</text>
<text text-anchor="middle" x="82.7393" y="-335.957" font-family="Times New Roman,serif" font-size="10.00">deckOwner</text>
</g>
<!-- _MauMau&#45;&gt;_Holder -->
<g id="edge10" class="edge"><title>_MauMau&#45;&gt;_Holder</title>
<path fill="none" stroke="black" d="M97.0372,-348.245C102.314,-332.433 107.661,-313.373 111.248,-297.585"/>
<text text-anchor="middle" x="113.303" y="-304.872" font-family="Times New Roman,serif" font-size="10.00">stack</text>
<text text-anchor="middle" x="95.8417" y="-335.816" font-family="Times New Roman,serif" font-size="10.00">stackOwner</text>
</g>
<!-- _Player -->
<g id="node4" class="node"><title>_Player</title>
<a xlink:href="../examples/org/sdmlib/examples/replication/maumau/Player.java" xlink:title="&lt;TABLE&gt;">
<polygon fill="none" stroke="black" points="33,-167 33,-184 94,-184 94,-167 33,-167"/>
<text text-anchor="start" x="51" y="-173.5" font-family="Times New Roman,serif" font-size="10.00">Player</text>
</a>
<polygon fill="none" stroke="black" points="33,-147 33,-167 94,-167 94,-147 33,-147"/>
<text text-anchor="start" x="38" y="-155" font-family="Times New Roman,serif" font-size="10.00">name :String</text>
<polygon fill="none" stroke="black" points="33,-127 33,-147 94,-147 94,-127 33,-127"/>
<text text-anchor="start" x="62" y="-135" font-family="Times New Roman,serif" font-size="10.00"> </text>
</g>
<!-- _MauMau&#45;&gt;_Player -->
<g id="edge12" class="edge"><title>_MauMau&#45;&gt;_Player</title>
<path fill="none" stroke="black" d="M74.3772,-348.05C68.281,-305.537 61.9241,-230.831 60.8105,-188.531"/>
<text text-anchor="middle" x="65.3576" y="-194.937" font-family="Times New Roman,serif" font-size="10.00">players *</text>
<text text-anchor="middle" x="68.9839" y="-337.129" font-family="Times New Roman,serif" font-size="10.00">game</text>
</g>
<!-- _MauMau&#45;&gt;_Player -->
<g id="edge16" class="edge"><title>_MauMau&#45;&gt;_Player</title>
<path fill="none" stroke="black" d="M84.1784,-348.05C83.0302,-305.537 76.6569,-230.831 70.5625,-188.531"/>
<text text-anchor="middle" x="75.9605" y="-194.449" font-family="Times New Roman,serif" font-size="10.00">currentMove</text>
<text text-anchor="middle" x="79.6262" y="-336.646" font-family="Times New Roman,serif" font-size="10.00">assignment</text>
</g>
<!-- _Duty -->
<g id="node5" class="node"><title>_Duty</title>
<a xlink:href="../examples/org/sdmlib/examples/replication/maumau/Duty.java" xlink:title="&lt;TABLE&gt;">
<polygon fill="none" stroke="black" points="8,-58 8,-75 65,-75 65,-58 8,-58"/>
<text text-anchor="start" x="26" y="-64.5" font-family="Times New Roman,serif" font-size="10.00">Duty</text>
</a>
<polygon fill="none" stroke="black" points="8,-24 8,-58 65,-58 65,-24 8,-24"/>
<text text-anchor="start" x="13" y="-46" font-family="Times New Roman,serif" font-size="10.00">kind :String</text>
<text text-anchor="start" x="13" y="-32" font-family="Times New Roman,serif" font-size="10.00">number :int</text>
<polygon fill="none" stroke="black" points="8,-4 8,-24 65,-24 65,-4 8,-4"/>
<text text-anchor="start" x="35" y="-12" font-family="Times New Roman,serif" font-size="10.00"> </text>
</g>
<!-- _MauMau&#45;&gt;_Duty -->
<g id="edge20" class="edge"><title>_MauMau&#45;&gt;_Duty</title>
<path fill="none" stroke="black" d="M66.6148,-348.372C50.0647,-312.443 24.8036,-251.576 15,-196 8.82337,-160.985 10.1616,-151.225 15,-116 16.656,-103.944 19.7432,-91.0948 23.0505,-79.5007"/>
<text text-anchor="middle" x="24.6752" y="-86.8678" font-family="Times New Roman,serif" font-size="10.00">duty</text>
<text text-anchor="middle" x="59.0281" y="-339.357" font-family="Times New Roman,serif" font-size="10.00">game</text>
</g>
<!-- _Suit -->
<g id="node13" class="node"><title>_Suit</title>
<a xlink:href="../examples/org/sdmlib/examples/replication/maumau/Suit.java" xlink:title="&lt;TABLE&gt;">
<polygon fill="none" stroke="black" points="120,-51 120,-68 143,-68 143,-51 120,-51"/>
<text text-anchor="start" x="123.5" y="-57.5" font-family="Times New Roman,serif" font-size="10.00">Suit</text>
</a>
<polygon fill="none" stroke="black" points="120,-31 120,-51 143,-51 143,-31 120,-31"/>
<text text-anchor="start" x="130" y="-39" font-family="Times New Roman,serif" font-size="10.00"> </text>
<polygon fill="none" stroke="black" points="120,-11 120,-31 143,-31 143,-11 120,-11"/>
<text text-anchor="start" x="130" y="-19" font-family="Times New Roman,serif" font-size="10.00"> </text>
</g>
<!-- _Card&#45;&gt;_Suit -->
<g id="edge24" class="edge"><title>_Card&#45;&gt;_Suit</title>
<path fill="none" stroke="black" d="M160.765,-116.405C156.426,-105.414 151.684,-93.3998 147.286,-82.2569"/>
<polygon fill="black" stroke="black" points="143.528,-72.7364 151.385,-80.3857 145.363,-77.3872 147.199,-82.038 147.199,-82.038 147.199,-82.038 145.363,-77.3872 143.014,-83.6903 143.528,-72.7364 143.528,-72.7364"/>
<text text-anchor="middle" x="150.786" y="-77.1148" font-family="Times New Roman,serif" font-size="10.00">suit</text>
</g>
<!-- _Value -->
<g id="node14" class="node"><title>_Value</title>
<a xlink:href="../examples/org/sdmlib/examples/replication/maumau/Value.java" xlink:title="&lt;TABLE&gt;">
<polygon fill="none" stroke="black" points="188,-51 188,-68 218,-68 218,-51 188,-51"/>
<text text-anchor="start" x="191.5" y="-57.5" font-family="Times New Roman,serif" font-size="10.00">Value</text>
</a>
<polygon fill="none" stroke="black" points="188,-31 188,-51 218,-51 218,-31 188,-31"/>
<text text-anchor="start" x="201.5" y="-39" font-family="Times New Roman,serif" font-size="10.00"> </text>
<polygon fill="none" stroke="black" points="188,-11 188,-31 218,-31 218,-11 188,-11"/>
<text text-anchor="start" x="201.5" y="-19" font-family="Times New Roman,serif" font-size="10.00"> </text>
</g>
<!-- _Card&#45;&gt;_Value -->
<g id="edge26" class="edge"><title>_Card&#45;&gt;_Value</title>
<path fill="none" stroke="black" d="M185.141,-116.405C187.718,-105.525 190.532,-93.6424 193.149,-82.5948"/>
<polygon fill="black" stroke="black" points="195.483,-72.7364 197.558,-83.5044 194.331,-77.6018 193.179,-82.4672 193.179,-82.4672 193.179,-82.4672 194.331,-77.6018 188.8,-81.4301 195.483,-72.7364 195.483,-72.7364"/>
<text text-anchor="middle" x="197.507" y="-80.0295" font-family="Times New Roman,serif" font-size="10.00">value</text>
</g>
<!-- _Holder&#45;&gt;_Card -->
<g id="edge8" class="edge"><title>_Holder&#45;&gt;_Card</title>
<path fill="none" stroke="black" d="M132.267,-232.475C138.911,-221.009 146.499,-207.913 153.469,-195.885"/>
<text text-anchor="middle" x="152.581" y="-203.345" font-family="Times New Roman,serif" font-size="10.00">cards *</text>
<text text-anchor="middle" x="133.154" y="-220.015" font-family="Times New Roman,serif" font-size="10.00">holder</text>
</g>
<!-- _Holder&#45;&gt;_Player -->
<g id="edge2" class="edge"><title>_Holder&#45;&gt;_Player</title>
<path fill="none" stroke="black" d="M94.5167,-223.123C89.0736,-211.704 83.2427,-199.47 78.0947,-188.669"/>
<polygon fill="none" stroke="black" points="91.512,-224.954 98.9742,-232.475 97.831,-221.942 91.512,-224.954"/>
</g>
<!-- _Player&#45;&gt;_Player -->
<g id="edge14" class="edge"><title>_Player&#45;&gt;_Player</title>
<path fill="none" stroke="black" d="M101.475,-176.041C111.466,-174.809 119,-168.129 119,-156 119,-143.871 111.466,-137.191 101.475,-135.959"/>
<text text-anchor="middle" x="111.15" y="-130.93" font-family="Times New Roman,serif" font-size="10.00">next</text>
<text text-anchor="middle" x="109.631" y="-167.755" font-family="Times New Roman,serif" font-size="10.00">prev</text>
</g>
<!-- _Player&#45;&gt;_Duty -->
<g id="edge18" class="edge"><title>_Player&#45;&gt;_Duty</title>
<path fill="none" stroke="black" d="M55.479,-123.245C52.2958,-109.805 48.5569,-94.0181 45.2105,-79.8886"/>
<text text-anchor="middle" x="51.4116" y="-85.2337" font-family="Times New Roman,serif" font-size="10.00">duty</text>
<text text-anchor="middle" x="49.2778" y="-112.9" font-family="Times New Roman,serif" font-size="10.00">player</text>
</g>
<!-- _ReplicationMauMauServer -->
<g id="node6" class="node"><title>_ReplicationMauMauServer</title>
<a xlink:href="../examples/org/sdmlib/examples/replication/maumau/ReplicationMauMauServer.java" xlink:title="&lt;TABLE&gt;">
<polygon fill="none" stroke="black" points="168,-515 168,-532 284,-532 284,-515 168,-515"/>
<text text-anchor="start" x="171.5" y="-521.5" font-family="Times New Roman,serif" font-size="10.00">ReplicationMauMauServer</text>
</a>
<polygon fill="none" stroke="black" points="168,-495 168,-515 284,-515 284,-495 168,-495"/>
<text text-anchor="start" x="224.5" y="-503" font-family="Times New Roman,serif" font-size="10.00"> </text>
<polygon fill="none" stroke="black" points="168,-475 168,-495 284,-495 284,-475 168,-475"/>
<text text-anchor="start" x="224.5" y="-483" font-family="Times New Roman,serif" font-size="10.00"> </text>
</g>
<!-- _ServerLaneManager -->
<g id="node7" class="node"><title>_ServerLaneManager</title>
<a xlink:href="../examples/org/sdmlib/examples/replication/maumau/ServerLaneManager.java" xlink:title="&lt;TABLE&gt;">
<polygon fill="none" stroke="black" points="319,-515 319,-532 408,-532 408,-515 319,-515"/>
<text text-anchor="start" x="322.5" y="-521.5" font-family="Times New Roman,serif" font-size="10.00">ServerLaneManager</text>
</a>
<polygon fill="none" stroke="black" points="319,-495 319,-515 408,-515 408,-495 319,-495"/>
<text text-anchor="start" x="324" y="-503" font-family="Times New Roman,serif" font-size="10.00">source :Object</text>
<polygon fill="none" stroke="black" points="319,-475 319,-495 408,-495 408,-475 319,-475"/>
<text text-anchor="start" x="362" y="-483" font-family="Times New Roman,serif" font-size="10.00"> </text>
</g>
<!-- _Object -->
<g id="node15" class="node"><title>_Object</title>
<a xlink:href="../examples/java/lang/Object.java" xlink:title="&lt;TABLE&gt;">
<polygon fill="none" stroke="black" points="488,-392 488,-409 522,-409 522,-392 488,-392"/>
<text text-anchor="start" x="491.5" y="-398.5" font-family="Times New Roman,serif" font-size="10.00">Object</text>
</a>
<polygon fill="none" stroke="black" points="488,-372 488,-392 522,-392 522,-372 488,-372"/>
<text text-anchor="start" x="503.5" y="-380" font-family="Times New Roman,serif" font-size="10.00"> </text>
<polygon fill="none" stroke="black" points="488,-352 488,-372 522,-372 522,-352 488,-352"/>
<text text-anchor="start" x="503.5" y="-360" font-family="Times New Roman,serif" font-size="10.00"> </text>
</g>
<!-- _ServerLaneManager&#45;&gt;_Object -->
<g id="edge28" class="edge"><title>_ServerLaneManager&#45;&gt;_Object</title>
<path fill="none" stroke="black" d="M400.309,-471.209C421.876,-452.831 448.844,-429.852 470.007,-411.818"/>
<polygon fill="black" stroke="black" points="477.81,-405.169 473.117,-415.08 474.004,-408.412 470.198,-411.655 470.198,-411.655 470.198,-411.655 474.004,-408.412 467.28,-408.23 477.81,-405.169 477.81,-405.169"/>
<text text-anchor="middle" x="473.653" y="-411.764" font-family="Times New Roman,serif" font-size="10.00">source</text>
</g>
<!-- _Play7WorkFlowLaneManager -->
<g id="node8" class="node"><title>_Play7WorkFlowLaneManager</title>
<a xlink:href="../examples/org/sdmlib/examples/replication/maumau/Play7WorkFlowLaneManager.java" xlink:title="&lt;TABLE&gt;">
<polygon fill="none" stroke="black" points="442,-515 442,-532 569,-532 569,-515 442,-515"/>
<text text-anchor="start" x="445.5" y="-521.5" font-family="Times New Roman,serif" font-size="10.00">Play7WorkFlowLaneManager</text>
</a>
<polygon fill="none" stroke="black" points="442,-495 442,-515 569,-515 569,-495 442,-495"/>
<text text-anchor="start" x="447" y="-503" font-family="Times New Roman,serif" font-size="10.00">source :Object</text>
<polygon fill="none" stroke="black" points="442,-475 442,-495 569,-495 569,-475 442,-475"/>
<text text-anchor="start" x="504" y="-483" font-family="Times New Roman,serif" font-size="10.00"> </text>
</g>
<!-- _Play7WorkFlowLaneManager&#45;&gt;_Object -->
<g id="edge30" class="edge"><title>_Play7WorkFlowLaneManager&#45;&gt;_Object</title>
<path fill="none" stroke="black" d="M505,-471.209C505,-456.758 505,-439.463 505,-423.965"/>
<polygon fill="black" stroke="black" points="505,-413.579 509.5,-423.579 505,-418.579 505,-423.579 505,-423.579 505,-423.579 505,-418.579 500.5,-423.579 505,-413.579 505,-413.579"/>
<text text-anchor="middle" x="509.226" y="-420.142" font-family="Times New Roman,serif" font-size="10.00">source</text>
</g>
<!-- _PlayerLaneManager -->
<g id="node9" class="node"><title>_PlayerLaneManager</title>
<a xlink:href="../examples/org/sdmlib/examples/replication/maumau/PlayerLaneManager.java" xlink:title="&lt;TABLE&gt;">
<polygon fill="none" stroke="black" points="603,-515 603,-532 691,-532 691,-515 603,-515"/>
<text text-anchor="start" x="606.5" y="-521.5" font-family="Times New Roman,serif" font-size="10.00">PlayerLaneManager</text>
</a>
<polygon fill="none" stroke="black" points="603,-495 603,-515 691,-515 691,-495 603,-495"/>
<text text-anchor="start" x="608" y="-503" font-family="Times New Roman,serif" font-size="10.00">source :Object</text>
<polygon fill="none" stroke="black" points="603,-475 603,-495 691,-495 691,-475 603,-475"/>
<text text-anchor="start" x="645.5" y="-483" font-family="Times New Roman,serif" font-size="10.00"> </text>
</g>
<!-- _PlayerLaneManager&#45;&gt;_Object -->
<g id="edge32" class="edge"><title>_PlayerLaneManager&#45;&gt;_Object</title>
<path fill="none" stroke="black" d="M609.691,-471.209C588.124,-452.831 561.156,-429.852 539.993,-411.818"/>
<polygon fill="black" stroke="black" points="532.19,-405.169 542.72,-408.23 535.996,-408.412 539.802,-411.655 539.802,-411.655 539.802,-411.655 535.996,-408.412 536.883,-415.08 532.19,-405.169 532.19,-405.169"/>
<text text-anchor="middle" x="541.829" y="-405.33" font-family="Times New Roman,serif" font-size="10.00">source</text>
</g>
<!-- _MultiMauMauControler -->
<g id="node10" class="node"><title>_MultiMauMauControler</title>
<a xlink:href="../examples/org/sdmlib/examples/replication/maumau/MultiMauMauControler.java" xlink:title="&lt;TABLE&gt;">
<polygon fill="none" stroke="black" points="30,-522 30,-539 134,-539 134,-522 30,-522"/>
<text text-anchor="start" x="33.5" y="-528.5" font-family="Times New Roman,serif" font-size="10.00">MultiMauMauControler</text>
</a>
<polygon fill="none" stroke="black" points="30,-488 30,-522 134,-522 134,-488 30,-488"/>
<text text-anchor="start" x="35" y="-510" font-family="Times New Roman,serif" font-size="10.00">mauMau :MauMau</text>
<text text-anchor="start" x="35" y="-496" font-family="Times New Roman,serif" font-size="10.00">activePlayer :Player</text>
<polygon fill="none" stroke="black" points="30,-468 30,-488 134,-488 134,-468 30,-468"/>
<text text-anchor="start" x="80.5" y="-476" font-family="Times New Roman,serif" font-size="10.00"> </text>
</g>
<!-- _MultiMauMauControler&#45;&gt;_MauMau -->
<g id="edge34" class="edge"><title>_MultiMauMauControler&#45;&gt;_MauMau</title>
<path fill="none" stroke="black" d="M82,-464.382C82,-451.503 82,-437.094 82,-423.973"/>
<polygon fill="black" stroke="black" points="82,-413.779 86.5001,-423.779 82,-418.779 82.0001,-423.779 82.0001,-423.779 82.0001,-423.779 82,-418.779 77.5001,-423.779 82,-413.779 82,-413.779"/>
<text text-anchor="middle" x="86.2262" y="-420.342" font-family="Times New Roman,serif" font-size="10.00">mauMau</text>
</g>
<!-- _MultiMauMauControler&#45;&gt;_Player -->
<g id="edge36" class="edge"><title>_MultiMauMauControler&#45;&gt;_Player</title>
<path fill="none" stroke="black" d="M56.7903,-464.383C50.7309,-453.107 45.1138,-440.455 42,-428 22.1622,-348.649 38.8142,-252.518 51.638,-198.706"/>
<polygon fill="black" stroke="black" points="54.059,-188.844 56.0449,-199.629 52.8668,-193.7 51.6747,-198.556 51.6747,-198.556 51.6747,-198.556 52.8668,-193.7 47.3045,-197.483 54.059,-188.844 54.059,-188.844"/>
<text text-anchor="middle" x="56.0025" y="-196.154" font-family="Times New Roman,serif" font-size="10.00">activePlayer</text>
</g>
<!-- _CardControler -->
<g id="node11" class="node"><title>_CardControler</title>
<a xlink:href="../examples/org/sdmlib/examples/replication/maumau/CardControler.java" xlink:title="&lt;TABLE&gt;">
<polygon fill="none" stroke="black" points="215,-406 215,-423 311,-423 311,-406 215,-406"/>
<text text-anchor="start" x="234.5" y="-412.5" font-family="Times New Roman,serif" font-size="10.00">CardControler</text>
</a>
<polygon fill="none" stroke="black" points="215,-358 215,-406 311,-406 311,-358 215,-358"/>
<text text-anchor="start" x="220" y="-394" font-family="Times New Roman,serif" font-size="10.00">card :Card</text>
<text text-anchor="start" x="220" y="-380" font-family="Times New Roman,serif" font-size="10.00">label :Label</text>
<text text-anchor="start" x="220" y="-366" font-family="Times New Roman,serif" font-size="10.00">listener :CardListener</text>
<polygon fill="none" stroke="black" points="215,-338 215,-358 311,-358 311,-338 215,-338"/>
<text text-anchor="start" x="261.5" y="-346" font-family="Times New Roman,serif" font-size="10.00"> </text>
</g>
<!-- _MultiMauMauControler&#45;&gt;_CardControler -->
<g id="edge22" class="edge"><title>_MultiMauMauControler&#45;&gt;_CardControler</title>
<path fill="none" stroke="black" d="M139.767,-464.382C161.183,-450.065 185.425,-433.859 206.708,-419.632"/>
<text text-anchor="middle" x="201.522" y="-425.682" font-family="Times New Roman,serif" font-size="10.00">cardControlers *</text>
<text text-anchor="middle" x="144.953" y="-453.332" font-family="Times New Roman,serif" font-size="10.00">mauMauControler</text>
</g>
<!-- _CardControler&#45;&gt;_Card -->
<g id="edge38" class="edge"><title>_CardControler&#45;&gt;_Card</title>
<path fill="none" stroke="black" d="M279.06,-334.28C286.969,-303.77 291.803,-263.606 276,-232 264.756,-209.512 243.208,-192.018 222.985,-179.603"/>
<polygon fill="black" stroke="black" points="214.132,-174.425 225.036,-175.589 218.449,-176.949 222.765,-179.474 222.765,-179.474 222.765,-179.474 218.449,-176.949 220.493,-183.358 214.132,-174.425 214.132,-174.425"/>
<text text-anchor="middle" x="224.089" y="-172.852" font-family="Times New Roman,serif" font-size="10.00">card</text>
</g>
<!-- _Label -->
<g id="node12" class="node"><title>_Label</title>
<a xlink:href="../examples/org/eclipse/swt/widgets/Label.java" xlink:title="&lt;TABLE&gt;">
<polygon fill="none" stroke="black" points="205,-276 205,-293 259,-293 259,-276 205,-276"/>
<text text-anchor="start" x="221" y="-282.5" font-family="Times New Roman,serif" font-size="10.00">Label</text>
</a>
<polygon fill="none" stroke="black" points="205,-256 205,-276 259,-276 259,-256 205,-256"/>
<text text-anchor="start" x="210" y="-264" font-family="Times New Roman,serif" font-size="10.00">text :String</text>
<polygon fill="none" stroke="black" points="205,-236 205,-256 259,-256 259,-236 205,-236"/>
<text text-anchor="start" x="230.5" y="-244" font-family="Times New Roman,serif" font-size="10.00"> </text>
</g>
<!-- _CardControler&#45;&gt;_Label -->
<g id="edge40" class="edge"><title>_CardControler&#45;&gt;_Label</title>
<path fill="none" stroke="black" d="M250.57,-334.289C248.173,-325.473 245.673,-316.282 243.314,-307.606"/>
<polygon fill="black" stroke="black" points="240.623,-297.71 247.589,-306.179 241.935,-302.535 243.247,-307.36 243.247,-307.36 243.247,-307.36 241.935,-302.535 238.905,-308.541 240.623,-297.71 240.623,-297.71"/>
<text text-anchor="middle" x="247.079" y="-302.847" font-family="Times New Roman,serif" font-size="10.00">label</text>
</g>
<!-- _CardListener -->
<g id="node16" class="node"><title>_CardListener</title>
<a xlink:href="../examples/org/sdmlib/examples/replication/maumau/CardListener.java" xlink:title="&lt;TABLE&gt;">
<polygon fill="none" stroke="black" points="332,-276 332,-293 391,-293 391,-276 332,-276"/>
<text text-anchor="start" x="335.5" y="-282.5" font-family="Times New Roman,serif" font-size="10.00">CardListener</text>
</a>
<polygon fill="none" stroke="black" points="332,-256 332,-276 391,-276 391,-256 332,-256"/>
<text text-anchor="start" x="360" y="-264" font-family="Times New Roman,serif" font-size="10.00"> </text>
<polygon fill="none" stroke="black" points="332,-236 332,-256 391,-256 391,-236 332,-236"/>
<text text-anchor="start" x="360" y="-244" font-family="Times New Roman,serif" font-size="10.00"> </text>
</g>
<!-- _CardControler&#45;&gt;_CardListener -->
<g id="edge42" class="edge"><title>_CardControler&#45;&gt;_CardListener</title>
<path fill="none" stroke="black" d="M302.296,-334.289C310.533,-324.707 319.151,-314.681 327.169,-305.355"/>
<polygon fill="black" stroke="black" points="333.74,-297.71 330.634,-308.227 330.481,-301.502 327.221,-305.294 327.221,-305.294 327.221,-305.294 330.481,-301.502 323.809,-302.36 333.74,-297.71 333.74,-297.71"/>
<text text-anchor="middle" x="331.037" y="-304.838" font-family="Times New Roman,serif" font-size="10.00">listener</text>
</g>
</g>
</svg>
