<?xml version="1.0" encoding="UTF-8" standalone="no"?>
<!DOCTYPE svg PUBLIC "-//W3C//DTD SVG 1.1//EN"
 "http://www.w3.org/Graphics/SVG/1.1/DTD/svg11.dtd">
<!-- Generated by graphviz version 2.28.0 (20110507.0327)
 -->
<!-- Title: ClassDiagram Pages: 1 -->
<svg width="773pt" height="552pt"
 viewBox="0.00 0.00 773.00 552.00" xmlns="http://www.w3.org/2000/svg" xmlns:xlink="http://www.w3.org/1999/xlink">
<g id="graph1" class="graph" transform="scale(1 1) rotate(0) translate(4 548)">
<title>ClassDiagram</title>
<polygon fill="white" stroke="white" points="-4,5 -4,-548 770,-548 770,5 -4,5"/>
<!-- _MauMau -->
<g id="node1" class="node"><title>_MauMau</title>
<a xlink:href="../examples/org/sdmlib/examples/replication/maumau/MauMau.java" xlink:title="&lt;TABLE&gt;">
<polygon fill="none" stroke="black" points="44,-392 44,-409 89,-409 89,-392 44,-392"/>
<text text-anchor="start" x="47.5" y="-398.5" font-family="Times New Roman,serif" font-size="10.00">MauMau</text>
</a>
<polygon fill="none" stroke="black" points="44,-372 44,-392 89,-392 89,-372 44,-372"/>
<text text-anchor="start" x="65" y="-380" font-family="Times New Roman,serif" font-size="10.00"> </text>
<polygon fill="none" stroke="black" points="44,-352 44,-372 89,-372 89,-352 44,-352"/>
<text text-anchor="start" x="65" y="-360" font-family="Times New Roman,serif" font-size="10.00"> </text>
</g>
<!-- _Card -->
<g id="node2" class="node"><title>_Card</title>
<a xlink:href="../examples/org/sdmlib/examples/replication/maumau/Card.java" xlink:title="&lt;TABLE&gt;">
<polygon fill="none" stroke="black" points="146,-174 146,-191 206,-191 206,-174 146,-174"/>
<text text-anchor="start" x="166.5" y="-180.5" font-family="Times New Roman,serif" font-size="10.00">Card</text>
</a>
<polygon fill="none" stroke="black" points="146,-140 146,-174 206,-174 206,-140 146,-140"/>
<text text-anchor="start" x="151" y="-162" font-family="Times New Roman,serif" font-size="10.00">suit :Suit</text>
<text text-anchor="start" x="151" y="-148" font-family="Times New Roman,serif" font-size="10.00">value :Value</text>
<polygon fill="none" stroke="black" points="146,-120 146,-140 206,-140 206,-120 146,-120"/>
<text text-anchor="start" x="174.5" y="-128" font-family="Times New Roman,serif" font-size="10.00"> </text>
</g>
<!-- _MauMau&#45;&gt;_Card -->
<g id="edge4" class="edge"><title>_MauMau&#45;&gt;_Card</title>
<path fill="none" stroke="black" d="M96.294,-358.299C114.738,-343.434 137.15,-322.097 150,-298 166.983,-266.152 173.069,-225.147 175.153,-195.575"/>
<text text-anchor="middle" x="178.626" y="-202.453" font-family="Times New Roman,serif" font-size="10.00">cards *</text>
<text text-anchor="middle" x="100.597" y="-346.772" font-family="Times New Roman,serif" font-size="10.00">game</text>
</g>
<!-- _Holder -->
<g id="node3" class="node"><title>_Holder</title>
<a xlink:href="../examples/org/sdmlib/examples/replication/maumau/Holder.java" xlink:title="&lt;TABLE&gt;">
<polygon fill="none" stroke="black" points="97,-276 97,-293 132,-293 132,-276 97,-276"/>
<text text-anchor="start" x="100.5" y="-282.5" font-family="Times New Roman,serif" font-size="10.00">Holder</text>
</a>
<polygon fill="none" stroke="black" points="97,-256 97,-276 132,-276 132,-256 97,-256"/>
<text text-anchor="start" x="113" y="-264" font-family="Times New Roman,serif" font-size="10.00"> </text>
<polygon fill="none" stroke="black" points="97,-236 97,-256 132,-256 132,-236 97,-236"/>
<text text-anchor="start" x="113" y="-244" font-family="Times New Roman,serif" font-size="10.00"> </text>
</g>
<!-- _MauMau&#45;&gt;_Holder -->
<g id="edge6" class="edge"><title>_MauMau&#45;&gt;_Holder</title>
<path fill="none" stroke="black" d="M73.2473,-348.245C79.0664,-332.433 87.0945,-313.373 94.5867,-297.585"/>
<text text-anchor="middle" x="94.5704" y="-305.085" font-family="Times New Roman,serif" font-size="10.00">deck</text>
<text text-anchor="middle" x="72.4658" y="-335.775" font-family="Times New Roman,serif" font-size="10.00">deckOwner</text>
</g>
<!-- _MauMau&#45;&gt;_Holder -->
<g id="edge10" class="edge"><title>_MauMau&#45;&gt;_Holder</title>
<path fill="none" stroke="black" d="M85.494,-348.245C92.9901,-332.433 101.012,-313.373 106.815,-297.585"/>
<text text-anchor="middle" x="107.601" y="-305.054" font-family="Times New Roman,serif" font-size="10.00">stack</text>
<text text-anchor="middle" x="85.5068" y="-335.745" font-family="Times New Roman,serif" font-size="10.00">stackOwner</text>
</g>
<!-- _Player -->
<g id="node4" class="node"><title>_Player</title>
<a xlink:href="../examples/org/sdmlib/examples/replication/maumau/Player.java" xlink:title="&lt;TABLE&gt;">
<polygon fill="none" stroke="black" points="33,-167 33,-184 94,-184 94,-167 33,-167"/>
<text text-anchor="start" x="51" y="-173.5" font-family="Times New Roman,serif" font-size="10.00">Player</text>
</a>
<polygon fill="none" stroke="black" points="33,-147 33,-167 94,-167 94,-147 33,-147"/>
<text text-anchor="start" x="38" y="-155" font-family="Times New Roman,serif" font-size="10.00">name :String</text>
<polygon fill="none" stroke="black" points="33,-127 33,-147 94,-147 94,-127 33,-127"/>
<text text-anchor="start" x="62" y="-135" font-family="Times New Roman,serif" font-size="10.00"> </text>
</g>
<!-- _MauMau&#45;&gt;_Player -->
<g id="edge12" class="edge"><title>_MauMau&#45;&gt;_Player</title>
<path fill="none" stroke="black" d="M60.6696,-348.05C57.6236,-305.537 56.6268,-230.831 58.5482,-188.531"/>
<text text-anchor="middle" x="62.4454" y="-195.24" font-family="Times New Roman,serif" font-size="10.00">players *</text>
<text text-anchor="middle" x="55.8876" y="-336.767" font-family="Times New Roman,serif" font-size="10.00">game</text>
</g>
<!-- _MauMau&#45;&gt;_Player -->
<g id="edge16" class="edge"><title>_MauMau&#45;&gt;_Player</title>
<path fill="none" stroke="black" d="M70.4708,-348.05C72.3729,-305.537 71.3597,-230.831 68.3002,-188.531"/>
<text text-anchor="middle" x="73.0872" y="-194.811" font-family="Times New Roman,serif" font-size="10.00">currentMove</text>
<text text-anchor="middle" x="66.5683" y="-336.342" font-family="Times New Roman,serif" font-size="10.00">assignment</text>
</g>
<!-- _Duty -->
<g id="node5" class="node"><title>_Duty</title>
<a xlink:href="../examples/org/sdmlib/examples/replication/maumau/Duty.java" xlink:title="&lt;TABLE&gt;">
<polygon fill="none" stroke="black" points="8,-58 8,-75 65,-75 65,-58 8,-58"/>
<text text-anchor="start" x="26" y="-64.5" font-family="Times New Roman,serif" font-size="10.00">Duty</text>
</a>
<polygon fill="none" stroke="black" points="8,-24 8,-58 65,-58 65,-24 8,-24"/>
<text text-anchor="start" x="13" y="-46" font-family="Times New Roman,serif" font-size="10.00">kind :String</text>
<text text-anchor="start" x="13" y="-32" font-family="Times New Roman,serif" font-size="10.00">number :int</text>
<polygon fill="none" stroke="black" points="8,-4 8,-24 65,-24 65,-4 8,-4"/>
<text text-anchor="start" x="35" y="-12" font-family="Times New Roman,serif" font-size="10.00"> </text>
</g>
<!-- _MauMau&#45;&gt;_Duty -->
<g id="edge20" class="edge"><title>_MauMau&#45;&gt;_Duty</title>
<path fill="none" stroke="black" d="M53.0883,-348.487C34.4313,-299.171 3.3752,-200.631 15,-116 16.656,-103.944 19.7432,-91.0948 23.0505,-79.5007"/>
<text text-anchor="middle" x="24.6752" y="-86.8678" font-family="Times New Roman,serif" font-size="10.00">duty</text>
<text text-anchor="middle" x="46.0116" y="-338.922" font-family="Times New Roman,serif" font-size="10.00">game</text>
</g>
<!-- _Suit -->
<g id="node12" class="node"><title>_Suit</title>
<a xlink:href="../examples/org/sdmlib/examples/replication/maumau/Suit.java" xlink:title="&lt;TABLE&gt;">
<polygon fill="none" stroke="black" points="120,-51 120,-68 143,-68 143,-51 120,-51"/>
<text text-anchor="start" x="123.5" y="-57.5" font-family="Times New Roman,serif" font-size="10.00">Suit</text>
</a>
<polygon fill="none" stroke="black" points="120,-31 120,-51 143,-51 143,-31 120,-31"/>
<text text-anchor="start" x="130" y="-39" font-family="Times New Roman,serif" font-size="10.00"> </text>
<polygon fill="none" stroke="black" points="120,-11 120,-31 143,-31 143,-11 120,-11"/>
<text text-anchor="start" x="130" y="-19" font-family="Times New Roman,serif" font-size="10.00"> </text>
</g>
<!-- _Card&#45;&gt;_Suit -->
<g id="edge24" class="edge"><title>_Card&#45;&gt;_Suit</title>
<path fill="none" stroke="black" d="M160.765,-116.405C156.426,-105.414 151.684,-93.3998 147.286,-82.2569"/>
<polygon fill="black" stroke="black" points="143.528,-72.7364 151.385,-80.3857 145.363,-77.3872 147.199,-82.038 147.199,-82.038 147.199,-82.038 145.363,-77.3872 143.014,-83.6903 143.528,-72.7364 143.528,-72.7364"/>
<text text-anchor="middle" x="150.786" y="-77.1148" font-family="Times New Roman,serif" font-size="10.00">suit</text>
</g>
<!-- _Value -->
<g id="node13" class="node"><title>_Value</title>
<a xlink:href="../examples/org/sdmlib/examples/replication/maumau/Value.java" xlink:title="&lt;TABLE&gt;">
<polygon fill="none" stroke="black" points="188,-51 188,-68 218,-68 218,-51 188,-51"/>
<text text-anchor="start" x="191.5" y="-57.5" font-family="Times New Roman,serif" font-size="10.00">Value</text>
</a>
<polygon fill="none" stroke="black" points="188,-31 188,-51 218,-51 218,-31 188,-31"/>
<text text-anchor="start" x="201.5" y="-39" font-family="Times New Roman,serif" font-size="10.00"> </text>
<polygon fill="none" stroke="black" points="188,-11 188,-31 218,-31 218,-11 188,-11"/>
<text text-anchor="start" x="201.5" y="-19" font-family="Times New Roman,serif" font-size="10.00"> </text>
</g>
<!-- _Card&#45;&gt;_Value -->
<g id="edge26" class="edge"><title>_Card&#45;&gt;_Value</title>
<path fill="none" stroke="black" d="M185.141,-116.405C187.718,-105.525 190.532,-93.6424 193.149,-82.5948"/>
<polygon fill="black" stroke="black" points="195.483,-72.7364 197.558,-83.5044 194.331,-77.6018 193.179,-82.4672 193.179,-82.4672 193.179,-82.4672 194.331,-77.6018 188.8,-81.4301 195.483,-72.7364 195.483,-72.7364"/>
<text text-anchor="middle" x="197.507" y="-80.0295" font-family="Times New Roman,serif" font-size="10.00">value</text>
</g>
<!-- _Holder&#45;&gt;_Card -->
<g id="edge8" class="edge"><title>_Holder&#45;&gt;_Card</title>
<path fill="none" stroke="black" d="M132.267,-232.475C138.911,-221.009 146.499,-207.913 153.469,-195.885"/>
<text text-anchor="middle" x="152.581" y="-203.345" font-family="Times New Roman,serif" font-size="10.00">cards *</text>
<text text-anchor="middle" x="133.154" y="-220.015" font-family="Times New Roman,serif" font-size="10.00">holder</text>
</g>
<!-- _Holder&#45;&gt;_Player -->
<g id="edge2" class="edge"><title>_Holder&#45;&gt;_Player</title>
<path fill="none" stroke="black" d="M94.5167,-223.123C89.0736,-211.704 83.2427,-199.47 78.0947,-188.669"/>
<polygon fill="none" stroke="black" points="91.512,-224.954 98.9742,-232.475 97.831,-221.942 91.512,-224.954"/>
</g>
<!-- _Player&#45;&gt;_Player -->
<g id="edge14" class="edge"><title>_Player&#45;&gt;_Player</title>
<path fill="none" stroke="black" d="M101.475,-176.041C111.466,-174.809 119,-168.129 119,-156 119,-143.871 111.466,-137.191 101.475,-135.959"/>
<text text-anchor="middle" x="111.15" y="-130.93" font-family="Times New Roman,serif" font-size="10.00">next</text>
<text text-anchor="middle" x="109.631" y="-167.755" font-family="Times New Roman,serif" font-size="10.00">prev</text>
</g>
<!-- _Player&#45;&gt;_Duty -->
<g id="edge18" class="edge"><title>_Player&#45;&gt;_Duty</title>
<path fill="none" stroke="black" d="M55.479,-123.245C52.2958,-109.805 48.5569,-94.0181 45.2105,-79.8886"/>
<text text-anchor="middle" x="51.4116" y="-85.2337" font-family="Times New Roman,serif" font-size="10.00">duty</text>
<text text-anchor="middle" x="49.2778" y="-112.9" font-family="Times New Roman,serif" font-size="10.00">player</text>
</g>
<!-- _ReplicationMauMauServer -->
<g id="node6" class="node"><title>_ReplicationMauMauServer</title>
<a xlink:href="../examples/org/sdmlib/examples/replication/maumau/ReplicationMauMauServer.java" xlink:title="&lt;TABLE&gt;">
<polygon fill="none" stroke="black" points="154,-515 154,-532 270,-532 270,-515 154,-515"/>
<text text-anchor="start" x="157.5" y="-521.5" font-family="Times New Roman,serif" font-size="10.00">ReplicationMauMauServer</text>
</a>
<polygon fill="none" stroke="black" points="154,-495 154,-515 270,-515 270,-495 154,-495"/>
<text text-anchor="start" x="210.5" y="-503" font-family="Times New Roman,serif" font-size="10.00"> </text>
<polygon fill="none" stroke="black" points="154,-475 154,-495 270,-495 270,-475 154,-475"/>
<text text-anchor="start" x="210.5" y="-483" font-family="Times New Roman,serif" font-size="10.00"> </text>
</g>
<!-- _ServerLaneListener -->
<g id="node7" class="node"><title>_ServerLaneListener</title>
<a xlink:href="../examples/org/sdmlib/examples/replication/maumau/ServerLaneListener.java" xlink:title="&lt;TABLE&gt;">
<polygon fill="none" stroke="black" points="322,-515 322,-532 407,-532 407,-515 322,-515"/>
<text text-anchor="start" x="325.5" y="-521.5" font-family="Times New Roman,serif" font-size="10.00">ServerLaneListener</text>
</a>
<polygon fill="none" stroke="black" points="322,-495 322,-515 407,-515 407,-495 322,-495"/>
<text text-anchor="start" x="327" y="-503" font-family="Times New Roman,serif" font-size="10.00">source :Object</text>
<polygon fill="none" stroke="black" points="322,-475 322,-495 407,-495 407,-475 322,-475"/>
<text text-anchor="start" x="363" y="-483" font-family="Times New Roman,serif" font-size="10.00"> </text>
</g>
<!-- _Object -->
<g id="node14" class="node"><title>_Object</title>
<a xlink:href="../examples/java/lang/Object.java" xlink:title="&lt;TABLE&gt;">
<polygon fill="none" stroke="black" points="347,-392 347,-409 381,-409 381,-392 347,-392"/>
<text text-anchor="start" x="350.5" y="-398.5" font-family="Times New Roman,serif" font-size="10.00">Object</text>
</a>
<polygon fill="none" stroke="black" points="347,-372 347,-392 381,-392 381,-372 347,-372"/>
<text text-anchor="start" x="362.5" y="-380" font-family="Times New Roman,serif" font-size="10.00"> </text>
<polygon fill="none" stroke="black" points="347,-352 347,-372 381,-372 381,-352 347,-352"/>
<text text-anchor="start" x="362.5" y="-360" font-family="Times New Roman,serif" font-size="10.00"> </text>
</g>
<!-- _ServerLaneListener&#45;&gt;_Object -->
<g id="edge28" class="edge"><title>_ServerLaneListener&#45;&gt;_Object</title>
<path fill="none" stroke="black" d="M364,-471.209C364,-456.758 364,-439.463 364,-423.965"/>
<polygon fill="black" stroke="black" points="364,-413.579 368.5,-423.579 364,-418.579 364,-423.579 364,-423.579 364,-423.579 364,-418.579 359.5,-423.579 364,-413.579 364,-413.579"/>
<text text-anchor="middle" x="368.226" y="-420.142" font-family="Times New Roman,serif" font-size="10.00">source</text>
</g>
<!-- _MultiMauMauControler -->
<g id="node8" class="node"><title>_MultiMauMauControler</title>
<a xlink:href="../examples/org/sdmlib/examples/replication/maumau/MultiMauMauControler.java" xlink:title="&lt;TABLE&gt;">
<polygon fill="none" stroke="black" points="14,-522 14,-539 118,-539 118,-522 14,-522"/>
<text text-anchor="start" x="17.5" y="-528.5" font-family="Times New Roman,serif" font-size="10.00">MultiMauMauControler</text>
</a>
<polygon fill="none" stroke="black" points="14,-488 14,-522 118,-522 118,-488 14,-488"/>
<text text-anchor="start" x="19" y="-510" font-family="Times New Roman,serif" font-size="10.00">mauMau :MauMau</text>
<text text-anchor="start" x="19" y="-496" font-family="Times New Roman,serif" font-size="10.00">activePlayer :Player</text>
<polygon fill="none" stroke="black" points="14,-468 14,-488 118,-488 118,-468 14,-468"/>
<text text-anchor="start" x="64.5" y="-476" font-family="Times New Roman,serif" font-size="10.00"> </text>
</g>
<!-- _MultiMauMauControler&#45;&gt;_MauMau -->
<g id="edge30" class="edge"><title>_MultiMauMauControler&#45;&gt;_MauMau</title>
<path fill="none" stroke="black" d="M66,-464.382C66,-451.503 66,-437.094 66,-423.973"/>
<polygon fill="black" stroke="black" points="66,-413.779 70.5001,-423.779 66,-418.779 66.0001,-423.779 66.0001,-423.779 66.0001,-423.779 66,-418.779 61.5001,-423.779 66,-413.779 66,-413.779"/>
<text text-anchor="middle" x="70.2262" y="-420.342" font-family="Times New Roman,serif" font-size="10.00">mauMau</text>
</g>
<!-- _MultiMauMauControler&#45;&gt;_Player -->
<g id="edge32" class="edge"><title>_MultiMauMauControler&#45;&gt;_Player</title>
<path fill="none" stroke="black" d="M40.7903,-464.383C34.7309,-453.107 29.1138,-440.455 26,-428 5.99648,-347.986 30.1688,-251.798 47.7808,-198.216"/>
<polygon fill="black" stroke="black" points="50.9809,-188.721 52.0516,-199.634 49.3841,-193.459 47.7873,-198.197 47.7873,-198.197 47.7873,-198.197 49.3841,-193.459 43.5229,-196.76 50.9809,-188.721 50.9809,-188.721"/>
<text text-anchor="middle" x="52.0914" y="-196.159" font-family="Times New Roman,serif" font-size="10.00">activePlayer</text>
</g>
<!-- _CardControler -->
<g id="node9" class="node"><title>_CardControler</title>
<a xlink:href="../examples/org/sdmlib/examples/replication/maumau/CardControler.java" xlink:title="&lt;TABLE&gt;">
<polygon fill="none" stroke="black" points="215,-406 215,-423 311,-423 311,-406 215,-406"/>
<text text-anchor="start" x="234.5" y="-412.5" font-family="Times New Roman,serif" font-size="10.00">CardControler</text>
</a>
<polygon fill="none" stroke="black" points="215,-358 215,-406 311,-406 311,-358 215,-358"/>
<text text-anchor="start" x="220" y="-394" font-family="Times New Roman,serif" font-size="10.00">card :Card</text>
<text text-anchor="start" x="220" y="-380" font-family="Times New Roman,serif" font-size="10.00">label :Label</text>
<text text-anchor="start" x="220" y="-366" font-family="Times New Roman,serif" font-size="10.00">listener :CardListener</text>
<polygon fill="none" stroke="black" points="215,-338 215,-358 311,-358 311,-338 215,-338"/>
<text text-anchor="start" x="261.5" y="-346" font-family="Times New Roman,serif" font-size="10.00"> </text>
</g>
<!-- _MultiMauMauControler&#45;&gt;_CardControler -->
<g id="edge22" class="edge"><title>_MultiMauMauControler&#45;&gt;_CardControler</title>
<path fill="none" stroke="black" d="M126.177,-466.039C151.863,-450.262 181.667,-431.956 206.89,-416.464"/>
<text text-anchor="middle" x="201.379" y="-422.308" font-family="Times New Roman,serif" font-size="10.00">cardControlers *</text>
<text text-anchor="middle" x="131.688" y="-455.194" font-family="Times New Roman,serif" font-size="10.00">mauMauControler</text>
</g>
<!-- _CardControler&#45;&gt;_Card -->
<g id="edge34" class="edge"><title>_CardControler&#45;&gt;_Card</title>
<path fill="none" stroke="black" d="M279.06,-334.28C286.969,-303.77 291.803,-263.606 276,-232 264.756,-209.512 243.208,-192.018 222.985,-179.603"/>
<polygon fill="black" stroke="black" points="214.132,-174.425 225.036,-175.589 218.449,-176.949 222.765,-179.474 222.765,-179.474 222.765,-179.474 218.449,-176.949 220.493,-183.358 214.132,-174.425 214.132,-174.425"/>
<text text-anchor="middle" x="224.089" y="-172.852" font-family="Times New Roman,serif" font-size="10.00">card</text>
</g>
<!-- _Label -->
<g id="node11" class="node"><title>_Label</title>
<a xlink:href="../examples/org/eclipse/swt/widgets/Label.java" xlink:title="&lt;TABLE&gt;">
<polygon fill="none" stroke="black" points="205,-276 205,-293 259,-293 259,-276 205,-276"/>
<text text-anchor="start" x="221" y="-282.5" font-family="Times New Roman,serif" font-size="10.00">Label</text>
</a>
<polygon fill="none" stroke="black" points="205,-256 205,-276 259,-276 259,-256 205,-256"/>
<text text-anchor="start" x="210" y="-264" font-family="Times New Roman,serif" font-size="10.00">text :String</text>
<polygon fill="none" stroke="black" points="205,-236 205,-256 259,-256 259,-236 205,-236"/>
<text text-anchor="start" x="230.5" y="-244" font-family="Times New Roman,serif" font-size="10.00"> </text>
</g>
<!-- _CardControler&#45;&gt;_Label -->
<g id="edge36" class="edge"><title>_CardControler&#45;&gt;_Label</title>
<path fill="none" stroke="black" d="M250.57,-334.289C248.173,-325.473 245.673,-316.282 243.314,-307.606"/>
<polygon fill="black" stroke="black" points="240.623,-297.71 247.589,-306.179 241.935,-302.535 243.247,-307.36 243.247,-307.36 243.247,-307.36 241.935,-302.535 238.905,-308.541 240.623,-297.71 240.623,-297.71"/>
<text text-anchor="middle" x="247.079" y="-302.847" font-family="Times New Roman,serif" font-size="10.00">label</text>
</g>
<!-- _CardListener -->
<g id="node15" class="node"><title>_CardListener</title>
<a xlink:href="../examples/org/sdmlib/examples/replication/maumau/CardListener.java" xlink:title="&lt;TABLE&gt;">
<polygon fill="none" stroke="black" points="332,-276 332,-293 391,-293 391,-276 332,-276"/>
<text text-anchor="start" x="335.5" y="-282.5" font-family="Times New Roman,serif" font-size="10.00">CardListener</text>
</a>
<polygon fill="none" stroke="black" points="332,-256 332,-276 391,-276 391,-256 332,-256"/>
<text text-anchor="start" x="360" y="-264" font-family="Times New Roman,serif" font-size="10.00"> </text>
<polygon fill="none" stroke="black" points="332,-236 332,-256 391,-256 391,-236 332,-236"/>
<text text-anchor="start" x="360" y="-244" font-family="Times New Roman,serif" font-size="10.00"> </text>
</g>
<!-- _CardControler&#45;&gt;_CardListener -->
<g id="edge38" class="edge"><title>_CardControler&#45;&gt;_CardListener</title>
<path fill="none" stroke="black" d="M302.296,-334.289C310.533,-324.707 319.151,-314.681 327.169,-305.355"/>
<polygon fill="black" stroke="black" points="333.74,-297.71 330.634,-308.227 330.481,-301.502 327.221,-305.294 327.221,-305.294 327.221,-305.294 330.481,-301.502 323.809,-302.36 333.74,-297.71 333.74,-297.71"/>
<text text-anchor="middle" x="331.037" y="-304.838" font-family="Times New Roman,serif" font-size="10.00">listener</text>
</g>
<!-- _PlayerLaneListener -->
<g id="node10" class="node"><title>_PlayerLaneListener</title>
<a xlink:href="../examples/org/sdmlib/examples/replication/maumau/PlayerLaneListener.java" xlink:title="&lt;TABLE&gt;">
<polygon fill="none" stroke="black" points="453,-522 453,-539 578,-539 578,-522 453,-522"/>
<text text-anchor="start" x="477" y="-528.5" font-family="Times New Roman,serif" font-size="10.00">PlayerLaneListener</text>
</a>
<polygon fill="none" stroke="black" points="453,-488 453,-522 578,-522 578,-488 453,-488"/>
<text text-anchor="start" x="458" y="-510" font-family="Times New Roman,serif" font-size="10.00">handlerList :TaskHandlerSet</text>
<text text-anchor="start" x="458" y="-496" font-family="Times New Roman,serif" font-size="10.00">sources :LaneSet</text>
<polygon fill="none" stroke="black" points="453,-468 453,-488 578,-488 578,-468 453,-468"/>
<text text-anchor="start" x="514" y="-476" font-family="Times New Roman,serif" font-size="10.00"> </text>
</g>
<!-- _TaskHandler -->
<g id="node38" class="node"><title>_TaskHandler</title>
<text text-anchor="middle" x="480" y="-378.5" font-family="Times New Roman,serif" font-size="10.00">_TaskHandler</text>
</g>
<!-- _PlayerLaneListener&#45;&gt;_TaskHandler -->
<g id="edge40" class="edge"><title>_PlayerLaneListener&#45;&gt;_TaskHandler</title>
<path fill="none" stroke="black" d="M503.83,-464.382C498.611,-446.34 492.524,-425.298 487.809,-408.996"/>
<polygon fill="black" stroke="black" points="484.931,-399.047 492.032,-407.403 486.32,-403.85 487.71,-408.653 487.71,-408.653 487.71,-408.653 486.32,-403.85 483.387,-409.903 484.931,-399.047 484.931,-399.047"/>
<text text-anchor="middle" x="491.509" y="-404.079" font-family="Times New Roman,serif" font-size="10.00">handlerList</text>
</g>
<!-- _Lane -->
<g id="node40" class="node"><title>_Lane</title>
<text text-anchor="middle" x="562" y="-378.5" font-family="Times New Roman,serif" font-size="10.00">_Lane</text>
</g>
<!-- _PlayerLaneListener&#45;&gt;_Lane -->
<g id="edge42" class="edge"><title>_PlayerLaneListener&#45;&gt;_Lane</title>
<path fill="none" stroke="black" d="M530,-464.382C537.075,-446.169 545.338,-424.897 551.694,-408.531"/>
<polygon fill="black" stroke="black" points="555.379,-399.047 555.952,-409.998 553.568,-403.707 551.758,-408.368 551.758,-408.368 551.758,-408.368 553.568,-403.707 547.563,-406.739 555.379,-399.047 555.379,-399.047"/>
<text text-anchor="middle" x="556.036" y="-406.525" font-family="Times New Roman,serif" font-size="10.00">sources</text>
</g>
<!-- _TaskHandlerSet -->
<g id="node16" class="node"><title>_TaskHandlerSet</title>
<a xlink:href="../examples/org/sdmlib/replication/creators/TaskHandlerSet.java" xlink:title="&lt;TABLE&gt;">
<polygon fill="none" stroke="black" points="612,-515 612,-532 683,-532 683,-515 612,-515"/>
<text text-anchor="start" x="615.5" y="-521.5" font-family="Times New Roman,serif" font-size="10.00">TaskHandlerSet</text>
</a>
<polygon fill="none" stroke="black" points="612,-495 612,-515 683,-515 683,-495 612,-495"/>
<text text-anchor="start" x="646" y="-503" font-family="Times New Roman,serif" font-size="10.00"> </text>
<polygon fill="none" stroke="black" points="612,-475 612,-495 683,-495 683,-475 612,-475"/>
<text text-anchor="start" x="646" y="-483" font-family="Times New Roman,serif" font-size="10.00"> </text>
</g>
<!-- _LaneSet -->
<g id="node17" class="node"><title>_LaneSet</title>
<a xlink:href="../examples/org/sdmlib/replication/creators/LaneSet.java" xlink:title="&lt;TABLE&gt;">
<polygon fill="none" stroke="black" points="717,-515 717,-532 757,-532 757,-515 717,-515"/>
<text text-anchor="start" x="720.5" y="-521.5" font-family="Times New Roman,serif" font-size="10.00">LaneSet</text>
</a>
<polygon fill="none" stroke="black" points="717,-495 717,-515 757,-515 757,-495 717,-495"/>
<text text-anchor="start" x="735.5" y="-503" font-family="Times New Roman,serif" font-size="10.00"> </text>
<polygon fill="none" stroke="black" points="717,-475 717,-495 757,-495 757,-475 717,-475"/>
<text text-anchor="start" x="735.5" y="-483" font-family="Times New Roman,serif" font-size="10.00"> </text>
</g>
</g>
</svg>
