<?xml version="1.0" encoding="UTF-8" standalone="no"?>
<!DOCTYPE svg PUBLIC "-//W3C//DTD SVG 1.1//EN"
 "http://www.w3.org/Graphics/SVG/1.1/DTD/svg11.dtd">
<!-- Generated by graphviz version 2.28.0 (20110507.0327)
 -->
<!-- Title: ClassDiagram Pages: 1 -->
<svg width="1576pt" height="576pt"
 viewBox="0.00 0.00 1576.00 576.00" xmlns="http://www.w3.org/2000/svg" xmlns:xlink="http://www.w3.org/1999/xlink">
<g id="graph1" class="graph" transform="scale(1 1) rotate(0) translate(4 572)">
<title>ClassDiagram</title>
<polygon fill="white" stroke="white" points="-4,5 -4,-572 1573,-572 1573,5 -4,5"/>
<!-- _PeerToPeerChat -->
<g id="node1" class="node"><title>_PeerToPeerChat</title>
<a xlink:href="../src/org/sdmlib/examples/chats/PeerToPeerChat.java" xlink:title="&lt;TABLE&gt;">
<polygon fill="none" stroke="black" points="145,-216 145,-233 217,-233 217,-216 145,-216"/>
<text text-anchor="start" x="148.5" y="-222.5" font-family="Times New Roman,serif" font-size="10.00">PeerToPeerChat</text>
</a>
<polygon fill="none" stroke="black" points="145,-196 145,-216 217,-216 217,-196 145,-196"/>
<text text-anchor="start" x="179.5" y="-204" font-family="Times New Roman,serif" font-size="10.00"> </text>
<polygon fill="none" stroke="black" points="145,-176 145,-196 217,-196 217,-176 145,-176"/>
<text text-anchor="start" x="179.5" y="-184" font-family="Times New Roman,serif" font-size="10.00"> </text>
</g>
<!-- _TaskFlow -->
<g id="node2" class="node"><title>_TaskFlow</title>
<a xlink:href="../src/org/sdmlib/logger/TaskFlow.java" xlink:title="&lt;TABLE&gt;">
<polygon fill="none" stroke="black" points="617,-532 617,-549 739,-549 739,-532 617,-532"/>
<text text-anchor="start" x="658" y="-538.5" font-family="Times New Roman,serif" font-size="10.00">TaskFlow</text>
</a>
<polygon fill="none" stroke="black" points="617,-498 617,-532 739,-532 739,-498 617,-498"/>
<text text-anchor="start" x="622" y="-520" font-family="Times New Roman,serif" font-size="10.00">taskNo :int</text>
<text text-anchor="start" x="622" y="-506" font-family="Times New Roman,serif" font-size="10.00">idMap :SDMLibJsonIdMap</text>
<polygon fill="none" stroke="black" points="617,-478 617,-498 739,-498 739,-478 617,-478"/>
<text text-anchor="start" x="676.5" y="-486" font-family="Times New Roman,serif" font-size="10.00"> </text>
</g>
<!-- _TaskFlow&#45;&gt;_TaskFlow -->
<g id="edge26" class="edge"><title>_TaskFlow&#45;&gt;_TaskFlow</title>
<path fill="none" stroke="black" d="M747.275,-541.014C757.831,-536.891 765,-527.887 765,-514 765,-500.113 757.831,-491.109 747.275,-486.986"/>
<text text-anchor="middle" x="757.274" y="-484.366" font-family="Times New Roman,serif" font-size="10.00">subFlow</text>
<text text-anchor="middle" x="753.794" y="-530.931" font-family="Times New Roman,serif" font-size="10.00">parent</text>
</g>
<!-- _ChatMessageFlow -->
<g id="node3" class="node"><title>_ChatMessageFlow</title>
<a xlink:href="../src/ChatMessageFlow.java" xlink:title="&lt;TABLE&gt;">
<polygon fill="none" stroke="black" points="391,-374 391,-391 484,-391 484,-374 391,-374"/>
<text text-anchor="start" x="399.5" y="-380.5" font-family="Times New Roman,serif" font-size="10.00">ChatMessageFlow</text>
</a>
<polygon fill="none" stroke="black" points="391,-340 391,-374 484,-374 484,-340 391,-340"/>
<text text-anchor="start" x="396" y="-362" font-family="Times New Roman,serif" font-size="10.00">msg :String</text>
<text text-anchor="start" x="396" y="-348" font-family="Times New Roman,serif" font-size="10.00">gui :PeerToPeerChat</text>
<polygon fill="none" stroke="black" points="391,-320 391,-340 484,-340 484,-320 391,-320"/>
<text text-anchor="start" x="396" y="-328" font-family="Times New Roman,serif" font-size="10.00">run()</text>
</g>
<!-- _TaskFlow&#45;&gt;_ChatMessageFlow -->
<g id="edge2" class="edge"><title>_TaskFlow&#45;&gt;_ChatMessageFlow</title>
<path fill="none" stroke="black" d="M599.541,-480.628C567.539,-465.663 531.071,-446.254 501,-424 489.88,-415.771 479.009,-405.509 469.474,-395.51"/>
<polygon fill="none" stroke="black" points="598.33,-483.923 608.877,-484.928 601.258,-477.565 598.33,-483.923"/>
</g>
<!-- _DrawPointFlow -->
<g id="node4" class="node"><title>_DrawPointFlow</title>
<a xlink:href="../src/DrawPointFlow.java" xlink:title="&lt;TABLE&gt;">
<polygon fill="none" stroke="black" points="135,-402 135,-419 228,-419 228,-402 135,-402"/>
<text text-anchor="start" x="150.5" y="-408.5" font-family="Times New Roman,serif" font-size="10.00">DrawPointFlow</text>
</a>
<polygon fill="none" stroke="black" points="135,-312 135,-402 228,-402 228,-312 135,-312"/>
<text text-anchor="start" x="140" y="-390" font-family="Times New Roman,serif" font-size="10.00">x :int</text>
<text text-anchor="start" x="140" y="-376" font-family="Times New Roman,serif" font-size="10.00">y :int</text>
<text text-anchor="start" x="140" y="-362" font-family="Times New Roman,serif" font-size="10.00">r :int</text>
<text text-anchor="start" x="140" y="-348" font-family="Times New Roman,serif" font-size="10.00">g :int</text>
<text text-anchor="start" x="140" y="-334" font-family="Times New Roman,serif" font-size="10.00">b :int</text>
<text text-anchor="start" x="140" y="-320" font-family="Times New Roman,serif" font-size="10.00">gui :PeerToPeerChat</text>
<polygon fill="none" stroke="black" points="135,-292 135,-312 228,-312 228,-292 135,-292"/>
<text text-anchor="start" x="140" y="-300" font-family="Times New Roman,serif" font-size="10.00">run()</text>
</g>
<!-- _TaskFlow&#45;&gt;_DrawPointFlow -->
<g id="edge4" class="edge"><title>_TaskFlow&#45;&gt;_DrawPointFlow</title>
<path fill="none" stroke="black" d="M598.537,-510.743C507.776,-505.096 357.338,-486.176 245,-424 241.763,-422.208 238.591,-420.198 235.498,-418.022"/>
<polygon fill="none" stroke="black" points="598.573,-514.251 608.759,-511.339 598.98,-507.263 598.573,-514.251"/>
</g>
<!-- _ClearDrawingFlow -->
<g id="node5" class="node"><title>_ClearDrawingFlow</title>
<a xlink:href="../src/org/sdmlib/examples/chats/ClearDrawingFlow.java" xlink:title="&lt;TABLE&gt;">
<polygon fill="none" stroke="black" points="8,-367 8,-384 101,-384 101,-367 8,-367"/>
<text text-anchor="start" x="17.5" y="-373.5" font-family="Times New Roman,serif" font-size="10.00">ClearDrawingFlow</text>
</a>
<polygon fill="none" stroke="black" points="8,-347 8,-367 101,-367 101,-347 8,-347"/>
<text text-anchor="start" x="13" y="-355" font-family="Times New Roman,serif" font-size="10.00">gui :PeerToPeerChat</text>
<polygon fill="none" stroke="black" points="8,-327 8,-347 101,-347 101,-327 8,-327"/>
<text text-anchor="start" x="13" y="-335" font-family="Times New Roman,serif" font-size="10.00">run()</text>
</g>
<!-- _TaskFlow&#45;&gt;_ClearDrawingFlow -->
<g id="edge6" class="edge"><title>_TaskFlow&#45;&gt;_ClearDrawingFlow</title>
<path fill="none" stroke="black" d="M598.62,-506.761C464.385,-495.17 199.134,-467.467 117,-424 101.194,-415.635 87.16,-401.766 76.3725,-388.809"/>
<polygon fill="none" stroke="black" points="598.577,-510.27 608.839,-507.634 599.173,-503.296 598.577,-510.27"/>
</g>
<!-- _CSChatMessageFlow -->
<g id="node8" class="node"><title>_CSChatMessageFlow</title>
<a xlink:href="../src/CSChatMessageFlow.java" xlink:title="&lt;TABLE&gt;">
<polygon fill="none" stroke="black" points="262,-367 262,-384 356,-384 356,-367 262,-367"/>
<text text-anchor="start" x="265.5" y="-373.5" font-family="Times New Roman,serif" font-size="10.00">CSChatMessageFlow</text>
</a>
<polygon fill="none" stroke="black" points="262,-347 262,-367 356,-367 356,-347 262,-347"/>
<text text-anchor="start" x="267" y="-355" font-family="Times New Roman,serif" font-size="10.00">msg :String</text>
<polygon fill="none" stroke="black" points="262,-327 262,-347 356,-347 356,-327 262,-327"/>
<text text-anchor="start" x="267" y="-335" font-family="Times New Roman,serif" font-size="10.00">run()</text>
</g>
<!-- _TaskFlow&#45;&gt;_CSChatMessageFlow -->
<g id="edge8" class="edge"><title>_TaskFlow&#45;&gt;_CSChatMessageFlow</title>
<path fill="none" stroke="black" d="M598.611,-501.56C534.19,-489.619 442.911,-466.489 373,-424 357.879,-414.81 343.936,-401.147 332.951,-388.553"/>
<polygon fill="none" stroke="black" points="598.25,-505.051 608.713,-503.381 599.493,-498.162 598.25,-505.051"/>
</g>
<!-- _ClientLoginFlow -->
<g id="node10" class="node"><title>_ClientLoginFlow</title>
<a xlink:href="../src/org/sdmlib/examples/chats/ClientLoginFlow.java" xlink:title="&lt;TABLE&gt;">
<polygon fill="none" stroke="black" points="1288,-388 1288,-405 1396,-405 1396,-388 1288,-388"/>
<text text-anchor="start" x="1308.5" y="-394.5" font-family="Times New Roman,serif" font-size="10.00">ClientLoginFlow</text>
</a>
<polygon fill="none" stroke="black" points="1288,-326 1288,-388 1396,-388 1396,-326 1288,-326"/>
<text text-anchor="start" x="1293" y="-376" font-family="Times New Roman,serif" font-size="10.00">server :PeerProxySet</text>
<text text-anchor="start" x="1293" y="-362" font-family="Times New Roman,serif" font-size="10.00">clientIP :String</text>
<text text-anchor="start" x="1293" y="-348" font-family="Times New Roman,serif" font-size="10.00">clientPort :int</text>
<text text-anchor="start" x="1293" y="-334" font-family="Times New Roman,serif" font-size="10.00">allMessagesText :String</text>
<polygon fill="none" stroke="black" points="1288,-306 1288,-326 1396,-326 1396,-306 1288,-306"/>
<text text-anchor="start" x="1293" y="-314" font-family="Times New Roman,serif" font-size="10.00">run()</text>
</g>
<!-- _TaskFlow&#45;&gt;_ClientLoginFlow -->
<g id="edge10" class="edge"><title>_TaskFlow&#45;&gt;_ClientLoginFlow</title>
<path fill="none" stroke="black" d="M747.933,-469.974C756.487,-466.049 765.288,-462.585 774,-460 985.893,-397.127 1067.38,-512.294 1270,-424 1278.3,-420.385 1286.24,-415.395 1293.63,-409.754"/>
<polygon fill="none" stroke="black" points="746.252,-466.898 738.764,-474.394 749.292,-473.204 746.252,-466.898"/>
</g>
<!-- _CSDrawPointFlow -->
<g id="node11" class="node"><title>_CSDrawPointFlow</title>
<a xlink:href="../src/CSDrawPointFlow.java" xlink:title="&lt;TABLE&gt;">
<polygon fill="none" stroke="black" points="518,-395 518,-412 598,-412 598,-395 518,-395"/>
<text text-anchor="start" x="521.5" y="-401.5" font-family="Times New Roman,serif" font-size="10.00">CSDrawPointFlow</text>
</a>
<polygon fill="none" stroke="black" points="518,-319 518,-395 598,-395 598,-319 518,-319"/>
<text text-anchor="start" x="523" y="-383" font-family="Times New Roman,serif" font-size="10.00">x :int</text>
<text text-anchor="start" x="523" y="-369" font-family="Times New Roman,serif" font-size="10.00">y :int</text>
<text text-anchor="start" x="523" y="-355" font-family="Times New Roman,serif" font-size="10.00">r :int</text>
<text text-anchor="start" x="523" y="-341" font-family="Times New Roman,serif" font-size="10.00">g :int</text>
<text text-anchor="start" x="523" y="-327" font-family="Times New Roman,serif" font-size="10.00">b :int</text>
<polygon fill="none" stroke="black" points="518,-299 518,-319 598,-319 598,-299 518,-299"/>
<text text-anchor="start" x="523" y="-307" font-family="Times New Roman,serif" font-size="10.00">run()</text>
</g>
<!-- _TaskFlow&#45;&gt;_CSDrawPointFlow -->
<g id="edge12" class="edge"><title>_TaskFlow&#45;&gt;_CSDrawPointFlow</title>
<path fill="none" stroke="black" d="M642.204,-466.465C630.18,-450.833 616.597,-433.176 603.906,-416.678"/>
<polygon fill="none" stroke="black" points="639.466,-468.646 648.337,-474.438 645.014,-464.378 639.466,-468.646"/>
</g>
<!-- _CSClearDrawingFlow -->
<g id="node12" class="node"><title>_CSClearDrawingFlow</title>
<a xlink:href="../src/CSClearDrawingFlow.java" xlink:title="&lt;TABLE&gt;">
<polygon fill="none" stroke="black" points="632,-367 632,-384 724,-384 724,-367 632,-367"/>
<text text-anchor="start" x="635.5" y="-373.5" font-family="Times New Roman,serif" font-size="10.00">CSClearDrawingFlow</text>
</a>
<polygon fill="none" stroke="black" points="632,-347 632,-367 724,-367 724,-347 632,-347"/>
<text text-anchor="start" x="676.5" y="-355" font-family="Times New Roman,serif" font-size="10.00"> </text>
<polygon fill="none" stroke="black" points="632,-327 632,-347 724,-347 724,-327 632,-327"/>
<text text-anchor="start" x="637" y="-335" font-family="Times New Roman,serif" font-size="10.00">run()</text>
</g>
<!-- _TaskFlow&#45;&gt;_CSClearDrawingFlow -->
<g id="edge14" class="edge"><title>_TaskFlow&#45;&gt;_CSClearDrawingFlow</title>
<path fill="none" stroke="black" d="M678,-464.175C678,-439.496 678,-410.264 678,-388.567"/>
<polygon fill="none" stroke="black" points="674.5,-464.438 678,-474.438 681.5,-464.438 674.5,-464.438"/>
</g>
<!-- _CSVisitAllClientsFlow -->
<g id="node13" class="node"><title>_CSVisitAllClientsFlow</title>
<a xlink:href="../src/CSVisitAllClientsFlow.java" xlink:title="&lt;TABLE&gt;">
<polygon fill="none" stroke="black" points="1430,-367 1430,-384 1526,-384 1526,-367 1430,-367"/>
<text text-anchor="start" x="1433.5" y="-373.5" font-family="Times New Roman,serif" font-size="10.00">CSVisitAllClientsFlow</text>
</a>
<polygon fill="none" stroke="black" points="1430,-347 1430,-367 1526,-367 1526,-347 1430,-347"/>
<text text-anchor="start" x="1476.5" y="-355" font-family="Times New Roman,serif" font-size="10.00"> </text>
<polygon fill="none" stroke="black" points="1430,-327 1430,-347 1526,-347 1526,-327 1430,-327"/>
<text text-anchor="start" x="1435" y="-335" font-family="Times New Roman,serif" font-size="10.00">run()</text>
</g>
<!-- _TaskFlow&#45;&gt;_CSVisitAllClientsFlow -->
<g id="edge16" class="edge"><title>_TaskFlow&#45;&gt;_CSVisitAllClientsFlow</title>
<path fill="none" stroke="black" d="M747.22,-470.141C755.992,-466.114 765.038,-462.58 774,-460 910.672,-420.646 1283.63,-483.084 1413,-424 1429.95,-416.258 1444.79,-401.951 1455.99,-388.54"/>
<polygon fill="none" stroke="black" points="745.679,-466.999 738.194,-474.497 748.721,-473.303 745.679,-466.999"/>
</g>
<!-- _P2PNetworkLoginFlow -->
<g id="node17" class="node"><title>_P2PNetworkLoginFlow</title>
<a xlink:href="../src/P2PNetworkLoginFlow.java" xlink:title="&lt;TABLE&gt;">
<polygon fill="none" stroke="black" points="892,-402 892,-419 1000,-419 1000,-402 892,-402"/>
<text text-anchor="start" x="900" y="-408.5" font-family="Times New Roman,serif" font-size="10.00">P2PNetworkLoginFlow</text>
</a>
<polygon fill="none" stroke="black" points="892,-326 892,-402 1000,-402 1000,-326 892,-326"/>
<text text-anchor="start" x="897" y="-390" font-family="Times New Roman,serif" font-size="10.00">firstPeer :PeerProxySet</text>
<text text-anchor="start" x="897" y="-376" font-family="Times New Roman,serif" font-size="10.00">clientPeer :PeerProxySet</text>
<text text-anchor="start" x="897" y="-362" font-family="Times New Roman,serif" font-size="10.00">clientName :String</text>
<text text-anchor="start" x="897" y="-348" font-family="Times New Roman,serif" font-size="10.00">allMessages :String</text>
<text text-anchor="start" x="897" y="-334" font-family="Times New Roman,serif" font-size="10.00">peerList :PeerProxySet</text>
<polygon fill="none" stroke="black" points="892,-292 892,-326 1000,-326 1000,-292 892,-292"/>
<text text-anchor="start" x="897" y="-314" font-family="Times New Roman,serif" font-size="10.00">run()</text>
<text text-anchor="start" x="897" y="-300" font-family="Times New Roman,serif" font-size="10.00">getTaskNames()</text>
</g>
<!-- _TaskFlow&#45;&gt;_P2PNetworkLoginFlow -->
<g id="edge22" class="edge"><title>_TaskFlow&#45;&gt;_P2PNetworkLoginFlow</title>
<path fill="none" stroke="black" d="M753.861,-469.688C760.604,-466.275 767.382,-462.995 774,-460 817.035,-440.523 833.668,-448.589 874,-424 877.353,-421.956 880.685,-419.738 883.972,-417.394"/>
<polygon fill="none" stroke="black" points="751.989,-466.715 744.706,-474.41 755.198,-472.936 751.989,-466.715"/>
</g>
<!-- _P2PChatMessageFlow -->
<g id="node18" class="node"><title>_P2PChatMessageFlow</title>
<a xlink:href="../src/P2PChatMessageFlow.java" xlink:title="&lt;TABLE&gt;">
<polygon fill="none" stroke="black" points="1034,-374 1034,-391 1132,-391 1132,-374 1034,-374"/>
<text text-anchor="start" x="1037.5" y="-380.5" font-family="Times New Roman,serif" font-size="10.00">P2PChatMessageFlow</text>
</a>
<polygon fill="none" stroke="black" points="1034,-340 1034,-374 1132,-374 1132,-340 1034,-340"/>
<text text-anchor="start" x="1039" y="-362" font-family="Times New Roman,serif" font-size="10.00">msg :String</text>
<text text-anchor="start" x="1039" y="-348" font-family="Times New Roman,serif" font-size="10.00">pos :int</text>
<polygon fill="none" stroke="black" points="1034,-320 1034,-340 1132,-340 1132,-320 1034,-320"/>
<text text-anchor="start" x="1039" y="-328" font-family="Times New Roman,serif" font-size="10.00">run()</text>
</g>
<!-- _TaskFlow&#45;&gt;_P2PChatMessageFlow -->
<g id="edge24" class="edge"><title>_TaskFlow&#45;&gt;_P2PChatMessageFlow</title>
<path fill="none" stroke="black" d="M749.382,-470.028C757.504,-466.22 765.81,-462.767 774,-460 877.437,-425.06 919.66,-473.445 1017,-424 1030.54,-417.123 1042.95,-406.4 1053.27,-395.534"/>
<polygon fill="none" stroke="black" points="747.755,-466.927 740.306,-474.461 750.828,-473.217 747.755,-466.927"/>
</g>
<!-- _SDMLibJsonIdMap -->
<g id="node19" class="node"><title>_SDMLibJsonIdMap</title>
<a xlink:href="../src/org/sdmlib/serialization/SDMLibJsonIdMap.java" xlink:title="&lt;TABLE&gt;">
<polygon fill="none" stroke="black" points="1167,-367 1167,-384 1254,-384 1254,-367 1167,-367"/>
<text text-anchor="start" x="1170.5" y="-373.5" font-family="Times New Roman,serif" font-size="10.00">SDMLibJsonIdMap</text>
</a>
<polygon fill="none" stroke="black" points="1167,-347 1167,-367 1254,-367 1254,-347 1167,-347"/>
<text text-anchor="start" x="1209" y="-355" font-family="Times New Roman,serif" font-size="10.00"> </text>
<polygon fill="none" stroke="black" points="1167,-327 1167,-347 1254,-347 1254,-327 1167,-327"/>
<text text-anchor="start" x="1209" y="-335" font-family="Times New Roman,serif" font-size="10.00"> </text>
</g>
<!-- _TaskFlow&#45;&gt;_SDMLibJsonIdMap -->
<g id="edge30" class="edge"><title>_TaskFlow&#45;&gt;_SDMLibJsonIdMap</title>
<path fill="none" stroke="black" d="M739.096,-474.491C750.356,-468.795 762.269,-463.63 774,-460 933.951,-410.508 999.268,-498.927 1149,-424 1161.9,-417.542 1173.39,-407.109 1182.82,-396.38"/>
<polygon fill="black" stroke="black" points="1189.32,-388.567 1186.39,-399.133 1186.12,-392.412 1182.93,-396.257 1182.93,-396.257 1182.93,-396.257 1186.12,-392.412 1179.47,-393.38 1189.32,-388.567 1189.32,-388.567"/>
<text text-anchor="middle" x="1186.78" y="-395.738" font-family="Times New Roman,serif" font-size="10.00">idMap</text>
</g>
<!-- _ChatMessageFlow&#45;&gt;_PeerToPeerChat -->
<g id="edge32" class="edge"><title>_ChatMessageFlow&#45;&gt;_PeerToPeerChat</title>
<path fill="none" stroke="black" d="M405.19,-316.376C395.579,-306.262 384.503,-295.971 373,-288 330.201,-258.344 274.976,-236.15 234.748,-222.381"/>
<polygon fill="black" stroke="black" points="225.119,-219.148 236.031,-218.065 229.859,-220.74 234.599,-222.331 234.599,-222.331 234.599,-222.331 229.859,-220.74 233.166,-226.597 225.119,-219.148 225.119,-219.148"/>
<text text-anchor="middle" x="235.056" y="-215.527" font-family="Times New Roman,serif" font-size="10.00">gui</text>
</g>
<!-- _DrawPointFlow&#45;&gt;_PeerToPeerChat -->
<g id="edge34" class="edge"><title>_DrawPointFlow&#45;&gt;_PeerToPeerChat</title>
<path fill="none" stroke="black" d="M181,-288.344C181,-274.543 181,-260.377 181,-247.772"/>
<polygon fill="black" stroke="black" points="181,-237.593 185.5,-247.593 181,-242.593 181,-247.593 181,-247.593 181,-247.593 181,-242.593 176.5,-247.593 181,-237.593 181,-237.593"/>
<text text-anchor="middle" x="185.226" y="-244.156" font-family="Times New Roman,serif" font-size="10.00">gui</text>
</g>
<!-- _ClearDrawingFlow&#45;&gt;_PeerToPeerChat -->
<g id="edge36" class="edge"><title>_ClearDrawingFlow&#45;&gt;_PeerToPeerChat</title>
<path fill="none" stroke="black" d="M80.9334,-323.401C100.381,-300.584 126.77,-269.624 147.566,-245.226"/>
<polygon fill="black" stroke="black" points="154.105,-237.554 151.043,-248.083 150.862,-241.359 147.618,-245.164 147.618,-245.164 147.618,-245.164 150.862,-241.359 144.194,-242.245 154.105,-237.554 154.105,-237.554"/>
<text text-anchor="middle" x="151.443" y="-244.692" font-family="Times New Roman,serif" font-size="10.00">gui</text>
</g>
<!-- _PeerToPeerChatArgs -->
<g id="node6" class="node"><title>_PeerToPeerChatArgs</title>
<a xlink:href="../src/PeerToPeerChatArgs.java" xlink:title="&lt;TABLE&gt;">
<polygon fill="none" stroke="black" points="791,-546 791,-563 883,-563 883,-546 791,-546"/>
<text text-anchor="start" x="794.5" y="-552.5" font-family="Times New Roman,serif" font-size="10.00">PeerToPeerChatArgs</text>
</a>
<polygon fill="none" stroke="black" points="791,-484 791,-546 883,-546 883,-484 791,-484"/>
<text text-anchor="start" x="796" y="-534" font-family="Times New Roman,serif" font-size="10.00">userName :String</text>
<text text-anchor="start" x="796" y="-520" font-family="Times New Roman,serif" font-size="10.00">localPort :int</text>
<text text-anchor="start" x="796" y="-506" font-family="Times New Roman,serif" font-size="10.00">peerIp :String</text>
<text text-anchor="start" x="796" y="-492" font-family="Times New Roman,serif" font-size="10.00">peerPort :int</text>
<polygon fill="none" stroke="black" points="791,-464 791,-484 883,-484 883,-464 791,-464"/>
<text text-anchor="start" x="835.5" y="-472" font-family="Times New Roman,serif" font-size="10.00"> </text>
</g>
<!-- _PeerProxy -->
<g id="node7" class="node"><title>_PeerProxy</title>
<a xlink:href="../src/org/sdmlib/logger/PeerProxy.java" xlink:title="&lt;TABLE&gt;">
<polygon fill="none" stroke="black" points="902,-230 902,-247 990,-247 990,-230 902,-230"/>
<text text-anchor="start" x="926" y="-236.5" font-family="Times New Roman,serif" font-size="10.00">PeerProxy</text>
</a>
<polygon fill="none" stroke="black" points="902,-182 902,-230 990,-230 990,-182 902,-182"/>
<text text-anchor="start" x="907" y="-218" font-family="Times New Roman,serif" font-size="10.00">ip :String</text>
<text text-anchor="start" x="907" y="-204" font-family="Times New Roman,serif" font-size="10.00">port :int</text>
<text text-anchor="start" x="907" y="-190" font-family="Times New Roman,serif" font-size="10.00">idMap :JsonIdMap</text>
<polygon fill="none" stroke="black" points="902,-162 902,-182 990,-182 990,-162 902,-162"/>
<text text-anchor="start" x="944.5" y="-170" font-family="Times New Roman,serif" font-size="10.00"> </text>
</g>
<!-- _JsonIdMap -->
<g id="node20" class="node"><title>_JsonIdMap</title>
<a xlink:href="../src/de/uniks/networkparser/json/JsonIdMap.java" xlink:title="&lt;TABLE&gt;">
<polygon fill="none" stroke="black" points="920,-72 920,-89 973,-89 973,-72 920,-72"/>
<text text-anchor="start" x="923.5" y="-78.5" font-family="Times New Roman,serif" font-size="10.00">JsonIdMap</text>
</a>
<polygon fill="none" stroke="black" points="920,-52 920,-72 973,-72 973,-52 920,-52"/>
<text text-anchor="start" x="945" y="-60" font-family="Times New Roman,serif" font-size="10.00"> </text>
<polygon fill="none" stroke="black" points="920,-32 920,-52 973,-52 973,-32 920,-32"/>
<text text-anchor="start" x="945" y="-40" font-family="Times New Roman,serif" font-size="10.00"> </text>
</g>
<!-- _PeerProxy&#45;&gt;_JsonIdMap -->
<g id="edge38" class="edge"><title>_PeerProxy&#45;&gt;_JsonIdMap</title>
<path fill="none" stroke="black" d="M946,-158.289C946,-140.832 946,-121.029 946,-103.94"/>
<polygon fill="black" stroke="black" points="946,-93.6963 950.5,-103.696 946,-98.6963 946,-103.696 946,-103.696 946,-103.696 946,-98.6963 941.5,-103.696 946,-93.6963 946,-93.6963"/>
<text text-anchor="middle" x="950.226" y="-100.259" font-family="Times New Roman,serif" font-size="10.00">idMap</text>
</g>
<!-- _ChatServer -->
<g id="node9" class="node"><title>_ChatServer</title>
<a xlink:href="../src/ChatServer.java" xlink:title="&lt;TABLE&gt;">
<polygon fill="none" stroke="black" points="759,-374 759,-391 858,-391 858,-374 759,-374"/>
<text text-anchor="start" x="786" y="-380.5" font-family="Times New Roman,serif" font-size="10.00">ChatServer</text>
</a>
<polygon fill="none" stroke="black" points="759,-340 759,-374 858,-374 858,-340 759,-340"/>
<text text-anchor="start" x="764" y="-362" font-family="Times New Roman,serif" font-size="10.00">allMessages :String</text>
<text text-anchor="start" x="764" y="-348" font-family="Times New Roman,serif" font-size="10.00">allPeers :PeerProxySet</text>
<polygon fill="none" stroke="black" points="759,-320 759,-340 858,-340 858,-320 759,-320"/>
<text text-anchor="start" x="807" y="-328" font-family="Times New Roman,serif" font-size="10.00"> </text>
</g>
<!-- _ChatServer&#45;&gt;_PeerProxy -->
<g id="edge40" class="edge"><title>_ChatServer&#45;&gt;_PeerProxy</title>
<path fill="none" stroke="black" d="M843.898,-316.241C860.043,-298.809 879.356,-277.956 896.819,-259.101"/>
<polygon fill="black" stroke="black" points="903.664,-251.71 900.171,-262.105 900.267,-255.379 896.869,-259.047 896.869,-259.047 896.869,-259.047 900.267,-255.379 893.568,-255.989 903.664,-251.71 903.664,-251.71"/>
<text text-anchor="middle" x="900.606" y="-258.731" font-family="Times New Roman,serif" font-size="10.00">allPeers</text>
</g>
<!-- _ClientLoginFlow&#45;&gt;_PeerProxy -->
<g id="edge42" class="edge"><title>_ClientLoginFlow&#45;&gt;_PeerProxy</title>
<path fill="none" stroke="black" d="M1291.32,-302.273C1284.52,-296.926 1277.35,-292.001 1270,-288 1186.03,-242.271 1075.91,-221.437 1008.1,-212.395"/>
<polygon fill="black" stroke="black" points="998.001,-211.095 1008.49,-207.909 1002.96,-211.733 1007.92,-212.372 1007.92,-212.372 1007.92,-212.372 1002.96,-211.733 1007.34,-216.835 998.001,-211.095 998.001,-211.095"/>
<text text-anchor="middle" x="1007.53" y="-205.561" font-family="Times New Roman,serif" font-size="10.00">server</text>
</g>
<!-- _CSClientTask -->
<g id="node14" class="node"><title>_CSClientTask</title>
<a xlink:href="../src/CSClientTask.java" xlink:title="&lt;TABLE&gt;">
<polygon fill="none" stroke="black" points="1447,-216 1447,-233 1509,-233 1509,-216 1447,-216"/>
<text text-anchor="start" x="1450.5" y="-222.5" font-family="Times New Roman,serif" font-size="10.00">CSClientTask</text>
</a>
<polygon fill="none" stroke="black" points="1447,-196 1447,-216 1509,-216 1509,-196 1447,-196"/>
<text text-anchor="start" x="1476.5" y="-204" font-family="Times New Roman,serif" font-size="10.00"> </text>
<polygon fill="none" stroke="black" points="1447,-176 1447,-196 1509,-196 1509,-176 1447,-176"/>
<text text-anchor="start" x="1476.5" y="-184" font-family="Times New Roman,serif" font-size="10.00"> </text>
</g>
<!-- _CSVisitAllClientsFlow&#45;&gt;_CSClientTask -->
<g id="edge28" class="edge"><title>_CSVisitAllClientsFlow&#45;&gt;_CSClientTask</title>
<path fill="none" stroke="black" d="M1478,-323.401C1478,-298.115 1478,-262.827 1478,-237.554"/>
<text text-anchor="middle" x="1482.23" y="-244.117" font-family="Times New Roman,serif" font-size="10.00">tgtTask</text>
<text text-anchor="middle" x="1473.77" y="-311.838" font-family="Times New Roman,serif" font-size="10.00">parent</text>
</g>
<!-- _CTDrawPoint -->
<g id="node15" class="node"><title>_CTDrawPoint</title>
<a xlink:href="../src/CTDrawPoint.java" xlink:title="&lt;TABLE&gt;">
<polygon fill="none" stroke="black" points="1498,-100 1498,-117 1560,-117 1560,-100 1498,-100"/>
<text text-anchor="start" x="1501.5" y="-106.5" font-family="Times New Roman,serif" font-size="10.00">CTDrawPoint</text>
</a>
<polygon fill="none" stroke="black" points="1498,-24 1498,-100 1560,-100 1560,-24 1498,-24"/>
<text text-anchor="start" x="1503" y="-88" font-family="Times New Roman,serif" font-size="10.00">x :int</text>
<text text-anchor="start" x="1503" y="-74" font-family="Times New Roman,serif" font-size="10.00">y :int</text>
<text text-anchor="start" x="1503" y="-60" font-family="Times New Roman,serif" font-size="10.00">r :int</text>
<text text-anchor="start" x="1503" y="-46" font-family="Times New Roman,serif" font-size="10.00">g :int</text>
<text text-anchor="start" x="1503" y="-32" font-family="Times New Roman,serif" font-size="10.00">b :int</text>
<polygon fill="none" stroke="black" points="1498,-4 1498,-24 1560,-24 1560,-4 1498,-4"/>
<text text-anchor="start" x="1527.5" y="-12" font-family="Times New Roman,serif" font-size="10.00"> </text>
</g>
<!-- _CSClientTask&#45;&gt;_CTDrawPoint -->
<g id="edge18" class="edge"><title>_CSClientTask&#45;&gt;_CTDrawPoint</title>
<path fill="none" stroke="black" d="M1492.73,-162.986C1497.36,-150.105 1502.56,-135.611 1507.56,-121.71"/>
<polygon fill="none" stroke="black" points="1489.4,-161.891 1489.32,-172.486 1495.99,-164.257 1489.4,-161.891"/>
</g>
<!-- _CTClearDrawing -->
<g id="node16" class="node"><title>_CTClearDrawing</title>
<a xlink:href="../src/CTClearDrawing.java" xlink:title="&lt;TABLE&gt;">
<polygon fill="none" stroke="black" points="1390,-72 1390,-89 1464,-89 1464,-72 1390,-72"/>
<text text-anchor="start" x="1393.5" y="-78.5" font-family="Times New Roman,serif" font-size="10.00">CTClearDrawing</text>
</a>
<polygon fill="none" stroke="black" points="1390,-52 1390,-72 1464,-72 1464,-52 1390,-52"/>
<text text-anchor="start" x="1425.5" y="-60" font-family="Times New Roman,serif" font-size="10.00"> </text>
<polygon fill="none" stroke="black" points="1390,-32 1390,-52 1464,-52 1464,-32 1390,-32"/>
<text text-anchor="start" x="1425.5" y="-40" font-family="Times New Roman,serif" font-size="10.00"> </text>
</g>
<!-- _CSClientTask&#45;&gt;_CTClearDrawing -->
<g id="edge20" class="edge"><title>_CSClientTask&#45;&gt;_CTClearDrawing</title>
<path fill="none" stroke="black" d="M1463.3,-163.067C1455.4,-141.073 1445.8,-114.357 1438.46,-93.9173"/>
<polygon fill="none" stroke="black" points="1460.01,-164.257 1466.68,-172.486 1466.6,-161.891 1460.01,-164.257"/>
</g>
<!-- _P2PNetworkLoginFlow&#45;&gt;_PeerProxy -->
<g id="edge44" class="edge"><title>_P2PNetworkLoginFlow&#45;&gt;_PeerProxy</title>
<path fill="none" stroke="black" d="M932.567,-288.344C932.415,-279.434 932.523,-270.372 932.891,-261.676"/>
<polygon fill="black" stroke="black" points="933.442,-251.667 937.385,-261.899 933.167,-256.659 932.892,-261.652 932.892,-261.652 932.892,-261.652 933.167,-256.659 928.399,-261.404 933.442,-251.667 933.442,-251.667"/>
<text text-anchor="middle" x="937.163" y="-258.449" font-family="Times New Roman,serif" font-size="10.00">firstPeer</text>
</g>
<!-- _P2PNetworkLoginFlow&#45;&gt;_PeerProxy -->
<g id="edge46" class="edge"><title>_P2PNetworkLoginFlow&#45;&gt;_PeerProxy</title>
<path fill="none" stroke="black" d="M946,-288.344C946,-279.434 946,-270.372 946,-261.676"/>
<polygon fill="black" stroke="black" points="946,-251.667 950.5,-261.667 946,-256.667 946,-261.667 946,-261.667 946,-261.667 946,-256.667 941.5,-261.667 946,-251.667 946,-251.667"/>
<text text-anchor="middle" x="950.226" y="-258.23" font-family="Times New Roman,serif" font-size="10.00">clientPeer</text>
</g>
<!-- _P2PNetworkLoginFlow&#45;&gt;_PeerProxy -->
<g id="edge48" class="edge"><title>_P2PNetworkLoginFlow&#45;&gt;_PeerProxy</title>
<path fill="none" stroke="black" d="M959.433,-288.344C959.585,-279.434 959.477,-270.372 959.109,-261.676"/>
<polygon fill="black" stroke="black" points="958.558,-251.667 963.601,-261.404 958.833,-256.659 959.108,-261.652 959.108,-261.652 959.108,-261.652 958.833,-256.659 954.615,-261.899 958.558,-251.667 958.558,-251.667"/>
<text text-anchor="middle" x="963.276" y="-257.984" font-family="Times New Roman,serif" font-size="10.00">peerList</text>
</g>
<!-- _PeerProxySet -->
<g id="node21" class="node"><title>_PeerProxySet</title>
<a xlink:href="../src/org/sdmlib/logger/util/PeerProxySet.java" xlink:title="&lt;TABLE&gt;">
<polygon fill="none" stroke="black" points="917,-525 917,-542 977,-542 977,-525 917,-525"/>
<text text-anchor="start" x="920.5" y="-531.5" font-family="Times New Roman,serif" font-size="10.00">PeerProxySet</text>
</a>
<polygon fill="none" stroke="black" points="917,-505 917,-525 977,-525 977,-505 917,-505"/>
<text text-anchor="start" x="945.5" y="-513" font-family="Times New Roman,serif" font-size="10.00"> </text>
<polygon fill="none" stroke="black" points="917,-485 917,-505 977,-505 977,-485 917,-485"/>
<text text-anchor="start" x="945.5" y="-493" font-family="Times New Roman,serif" font-size="10.00"> </text>
</g>
</g>
</svg>
