<?xml version="1.0" encoding="UTF-8" standalone="no"?>
<!DOCTYPE svg PUBLIC "-//W3C//DTD SVG 1.1//EN"
 "http://www.w3.org/Graphics/SVG/1.1/DTD/svg11.dtd">
<!-- Generated by graphviz version 2.28.0 (20110507.0327)
 -->
<!-- Title: ObjectDiagram Pages: 1 -->
<svg width="806pt" height="276pt"
 viewBox="0.00 0.00 806.00 276.00" xmlns="http://www.w3.org/2000/svg" xmlns:xlink="http://www.w3.org/1999/xlink">
<g id="graph1" class="graph" transform="scale(1 1) rotate(0) translate(4 272)">
<title>ObjectDiagram</title>
<polygon fill="white" stroke="white" points="-4,5 -4,-272 803,-272 803,5 -4,5"/>
<!-- testPlay7Node -->
<g id="node1" class="node"><title>testPlay7Node</title>
<image xlink:href="icons/node.png" width="100px" height="61px" preserveAspectRatio="xMinYMin meet" x="10" y="-261"/>
<a xlink:href="../../SDMLib/src/org/sdmlib/replication/Node.java" xlink:title="&lt;TABLE&gt;">
<polygon fill="none" stroke="black" points="8,-182 8,-198 112,-198 112,-182 8,-182"/>
<text text-anchor="start" x="11.5" y="-188" font-family="Arial" font-size="10.00"> </text>
<text text-anchor="start" x="15.5" y="-188" font-family="Arial" font-size="10.00">testPlay7Node :Node</text>
</a>
</g>
<!-- play7Tester -->
<g id="node2" class="node"><title>play7Tester</title>
<image xlink:href="icons/worker.png" width="80px" height="61px" preserveAspectRatio="xMinYMin meet" x="214" y="-261"/>
<a xlink:href="../examples/org/sdmlib/examples/replication/maumau/SharedSpaceMauMauStoryboards.java" xlink:title="&lt;TABLE&gt;">
<polygon fill="none" stroke="black" points="146,-182 146,-198 362,-198 362,-182 146,-182"/>
<text text-anchor="start" x="149.5" y="-188" font-family="Arial" font-size="10.00"> </text>
<text text-anchor="start" x="153.5" y="-188" font-family="Arial" font-size="10.00">play7Tester :SharedSpaceMauMauStoryboards</text>
</a>
</g>
<!-- taskboard -->
<g id="node3" class="node"><title>taskboard</title>
<image xlink:href="icons/shared.png" width="70px" height="23px" preserveAspectRatio="xMinYMin meet" x="425.5" y="-242"/>
<a xlink:href="../../SDMLib/src/org/sdmlib/replication/TaskFlowBoard.java" xlink:title="&lt;TABLE&gt;">
<polygon fill="none" stroke="black" points="397,-201 397,-217 524,-217 524,-201 397,-201"/>
<text text-anchor="start" x="400.5" y="-207" font-family="Arial" font-size="10.00"> </text>
<text text-anchor="start" x="404.5" y="-207" font-family="Arial" font-size="10.00">taskboard :TaskFlowBoard</text>
</a>
</g>
<!-- l1 -->
<g id="node4" class="node"><title>l1</title>
<a xlink:href="../../SDMLib/src/org/sdmlib/replication/Lane.java" xlink:title="&lt;TABLE&gt;">
<polygon fill="none" stroke="black" points="496,-120 496,-137 639,-137 639,-120 496,-120"/>
<text text-anchor="start" x="548" y="-126.5" font-family="Arial" font-size="10.00"> </text>
<text text-anchor="start" x="552" y="-126.5" font-family="Arial" font-size="10.00">l1 :Lane</text>
</a>
<polygon fill="none" stroke="black" points="496,-100 496,-120 639,-120 639,-100 496,-100"/>
<text text-anchor="start" x="501" y="-108" font-family="Arial" font-size="10.00">name = &quot;play7WorkFlowLane&quot;</text>
</g>
<!-- taskboard&#45;&#45;l1 -->
<g id="edge2" class="edge"><title>taskboard&#45;&#45;l1</title>
<path fill="none" stroke="black" d="M485.902,-197.309C503.714,-180.328 527.148,-157.99 544.243,-141.694"/>
<text text-anchor="middle" x="540.599" y="-148.506" font-family="Arial" font-size="10.00">lanes</text>
<text text-anchor="middle" x="489.546" y="-185.496" font-family="Arial" font-size="10.00">board</text>
</g>
<!-- b2 -->
<g id="node5" class="node"><title>b2</title>
<a xlink:href="../../SDMLib/src/org/sdmlib/replication/BoardTask.java" xlink:title="&lt;TABLE&gt;">
<polygon fill="none" stroke="black" points="515,-38 515,-55 620,-55 620,-38 515,-38"/>
<text text-anchor="start" x="533.5" y="-44.5" font-family="Arial" font-size="10.00"> </text>
<text text-anchor="start" x="537.5" y="-44.5" font-family="Arial" font-size="10.00">b2 :BoardTask</text>
</a>
<polygon fill="none" stroke="black" points="515,-4 515,-38 620,-38 620,-4 515,-4"/>
<text text-anchor="start" x="520" y="-26" font-family="Arial" font-size="10.00">name = &quot;startClients&quot;</text>
<text text-anchor="start" x="520" y="-12" font-family="Arial" font-size="10.00">status = &quot;&quot;</text>
</g>
<!-- l1&#45;&#45;b2 -->
<g id="edge4" class="edge"><title>l1&#45;&#45;b2</title>
<path fill="none" stroke="black" d="M567,-96.4944C567,-85.4243 567,-71.7752 567,-59.8074"/>
<text text-anchor="middle" x="571.226" y="-66.3705" font-family="Arial" font-size="10.00">tasks</text>
<text text-anchor="middle" x="562.774" y="-84.9313" font-family="Arial" font-size="10.00">lane</text>
</g>
<!-- play7WorkFlowLane -->
<g id="node6" class="node"><title>play7WorkFlowLane</title>
<image xlink:href="icons/person1.png" width="32px" height="43px" preserveAspectRatio="xMinYMin meet" x="658" y="-252"/>
<a xlink:href="../examples/org/sdmlib/examples/replication/maumau/Play7WorkFlowLaneManager.java" xlink:title="&lt;TABLE&gt;">
<polygon fill="none" stroke="black" points="558,-191 558,-207 790,-207 790,-191 558,-191"/>
<text text-anchor="start" x="561.5" y="-197" font-family="Arial" font-size="10.00"> </text>
<text text-anchor="start" x="565.5" y="-197" font-family="Arial" font-size="10.00">play7WorkFlowLane :Play7WorkFlowLaneManager</text>
</a>
</g>
<!-- play7WorkFlowLane&#45;&#45;l1 -->
<g id="edge6" class="edge"><title>play7WorkFlowLane&#45;&#45;l1</title>
<path fill="none" stroke="black" d="M637.775,-187.467C621.89,-172.325 603.73,-155.013 589.782,-141.717"/>
<text text-anchor="middle" x="599.258" y="-142.412" font-family="Arial" font-size="10.00">source</text>
</g>
</g>
</svg>
