<?xml version="1.0" encoding="UTF-8" standalone="no"?>
<!DOCTYPE svg PUBLIC "-//W3C//DTD SVG 1.1//EN"
 "http://www.w3.org/Graphics/SVG/1.1/DTD/svg11.dtd">
<!-- Generated by graphviz version 2.28.0 (20110507.0327)
 -->
<!-- Title: ObjectDiagram Pages: 1 -->
<svg width="758pt" height="262pt"
 viewBox="0.00 0.00 758.00 262.00" xmlns="http://www.w3.org/2000/svg" xmlns:xlink="http://www.w3.org/1999/xlink">
<g id="graph1" class="graph" transform="scale(1 1) rotate(0) translate(4 258)">
<title>ObjectDiagram</title>
<polygon fill="white" stroke="white" points="-4,5 -4,-258 755,-258 755,5 -4,5"/>
<!-- testPlay7Node -->
<g id="node1" class="node"><title>testPlay7Node</title>
<image xlink:href="icons/node.png" width="91px" height="61px" preserveAspectRatio="xMinYMin meet" x="10" y="-247"/>
<a xlink:href="../../SDMLib/src/org/sdmlib/replication/Node.java" xlink:title="&lt;TABLE&gt;">
<polygon fill="none" stroke="black" points="8,-168 8,-184 103,-184 103,-168 8,-168"/>
<text text-anchor="start" x="11.5" y="-174" font-family="Times New Roman,serif" font-size="10.00"> </text>
<text text-anchor="start" x="14.5" y="-174" font-family="Times New Roman,serif" font-size="10.00">testPlay7Node :Node</text>
</a>
</g>
<!-- play7Tester -->
<g id="node2" class="node"><title>play7Tester</title>
<image xlink:href="icons/worker.png" width="80px" height="61px" preserveAspectRatio="xMinYMin meet" x="197.5" y="-247"/>
<a xlink:href="../examples/org/sdmlib/examples/replication/maumau/SharedSpaceMauMauStoryboards.java" xlink:title="&lt;TABLE&gt;">
<polygon fill="none" stroke="black" points="137,-168 137,-184 338,-184 338,-168 137,-168"/>
<text text-anchor="start" x="140.5" y="-174" font-family="Times New Roman,serif" font-size="10.00"> </text>
<text text-anchor="start" x="143.5" y="-174" font-family="Times New Roman,serif" font-size="10.00">play7Tester :SharedSpaceMauMauStoryboards</text>
</a>
</g>
<!-- taskboard -->
<g id="node3" class="node"><title>taskboard</title>
<image xlink:href="icons/shared.png" width="70px" height="23px" preserveAspectRatio="xMinYMin meet" x="396" y="-228"/>
<a xlink:href="../../SDMLib/src/org/sdmlib/replication/TaskFlowBoard.java" xlink:title="&lt;TABLE&gt;">
<polygon fill="none" stroke="black" points="372,-187 372,-203 490,-203 490,-187 372,-187"/>
<text text-anchor="start" x="375.5" y="-193" font-family="Times New Roman,serif" font-size="10.00"> </text>
<text text-anchor="start" x="378.5" y="-193" font-family="Times New Roman,serif" font-size="10.00">taskboard :TaskFlowBoard</text>
</a>
</g>
<!-- l1 -->
<g id="node4" class="node"><title>l1</title>
<a xlink:href="../../SDMLib/src/org/sdmlib/replication/Lane.java" xlink:title="&lt;TABLE&gt;">
<polygon fill="none" stroke="black" points="465,-106 465,-123 600,-123 600,-106 465,-106"/>
<text text-anchor="start" x="515.5" y="-112.5" font-family="Times New Roman,serif" font-size="10.00"> </text>
<text text-anchor="start" x="518.5" y="-112.5" font-family="Times New Roman,serif" font-size="10.00">l1 :Lane</text>
</a>
<polygon fill="none" stroke="black" points="465,-86 465,-106 600,-106 600,-86 465,-86"/>
<text text-anchor="start" x="470" y="-94" font-family="Times New Roman,serif" font-size="10.00">name = &quot;play7WorkFlowLane&quot;</text>
</g>
<!-- taskboard&#45;&#45;l1 -->
<g id="edge2" class="edge"><title>taskboard&#45;&#45;l1</title>
<path fill="none" stroke="black" d="M455.449,-183.309C472.263,-166.328 494.382,-143.99 510.519,-127.694"/>
<text text-anchor="middle" x="507.145" y="-134.608" font-family="Times New Roman,serif" font-size="10.00">lanes</text>
<text text-anchor="middle" x="458.823" y="-171.395" font-family="Times New Roman,serif" font-size="10.00">board</text>
</g>
<!-- b2 -->
<g id="node5" class="node"><title>b2</title>
<a xlink:href="../../SDMLib/src/org/sdmlib/replication/BoardTask.java" xlink:title="&lt;TABLE&gt;">
<polygon fill="none" stroke="black" points="484,-24 484,-41 581,-41 581,-24 484,-24"/>
<text text-anchor="start" x="502" y="-30.5" font-family="Times New Roman,serif" font-size="10.00"> </text>
<text text-anchor="start" x="505" y="-30.5" font-family="Times New Roman,serif" font-size="10.00">b2 :BoardTask</text>
</a>
<polygon fill="none" stroke="black" points="484,-4 484,-24 581,-24 581,-4 484,-4"/>
<text text-anchor="start" x="489" y="-12" font-family="Times New Roman,serif" font-size="10.00">name = &quot;startClients&quot;</text>
</g>
<!-- l1&#45;&#45;b2 -->
<g id="edge4" class="edge"><title>l1&#45;&#45;b2</title>
<path fill="none" stroke="black" d="M532,-82.1396C532,-70.759 532,-56.8929 532,-45.5569"/>
<text text-anchor="middle" x="536.226" y="-52.12" font-family="Times New Roman,serif" font-size="10.00">tasks</text>
<text text-anchor="middle" x="527.774" y="-70.5766" font-family="Times New Roman,serif" font-size="10.00">lane</text>
</g>
<!-- play7WorkFlowLane -->
<g id="node6" class="node"><title>play7WorkFlowLane</title>
<image xlink:href="icons/person1.png" width="32px" height="43px" preserveAspectRatio="xMinYMin meet" x="617" y="-238"/>
<a xlink:href="../examples/org/sdmlib/examples/replication/maumau/Play7WorkFlowLaneManager.java" xlink:title="&lt;TABLE&gt;">
<polygon fill="none" stroke="black" points="524,-177 524,-193 742,-193 742,-177 524,-177"/>
<text text-anchor="start" x="527.5" y="-183" font-family="Times New Roman,serif" font-size="10.00"> </text>
<text text-anchor="start" x="530.5" y="-183" font-family="Times New Roman,serif" font-size="10.00">play7WorkFlowLane :Play7WorkFlowLaneManager</text>
</a>
</g>
<!-- play7WorkFlowLane&#45;&#45;l1 -->
<g id="edge6" class="edge"><title>play7WorkFlowLane&#45;&#45;l1</title>
<path fill="none" stroke="black" d="M598.806,-173.467C583.812,-158.325 566.67,-141.013 553.504,-127.717"/>
<text text-anchor="middle" x="562.884" y="-128.684" font-family="Times New Roman,serif" font-size="10.00">source</text>
</g>
</g>
</svg>
