<?xml version="1.0" encoding="UTF-8" standalone="no"?>
<!DOCTYPE svg PUBLIC "-//W3C//DTD SVG 1.1//EN"
 "http://www.w3.org/Graphics/SVG/1.1/DTD/svg11.dtd">
<!-- Generated by graphviz version 2.28.0 (20110507.0327)
 -->
<!-- Title: ObjectDiagram Pages: 1 -->
<svg width="821pt" height="364pt"
 viewBox="0.00 0.00 821.00 364.00" xmlns="http://www.w3.org/2000/svg" xmlns:xlink="http://www.w3.org/1999/xlink">
<g id="graph1" class="graph" transform="scale(1 1) rotate(0) translate(4 360)">
<title>ObjectDiagram</title>
<polygon fill="white" stroke="white" points="-4,5 -4,-360 818,-360 818,5 -4,5"/>
<!-- serverNode -->
<g id="node1" class="node"><title>serverNode</title>
<image xlink:href="icons/node.png" width="83px" height="61px" preserveAspectRatio="xMinYMin meet" x="104" y="-349"/>
<a xlink:href="../../SDMLib/src/org/sdmlib/replication/Node.java" xlink:title="&lt;TABLE&gt;">
<polygon fill="none" stroke="black" points="102,-270 102,-286 189,-286 189,-270 102,-270"/>
<text text-anchor="start" x="107.5" y="-276" font-family="Times New Roman,serif" font-size="10.00"> </text>
<text text-anchor="start" x="110.5" y="-276" font-family="Times New Roman,serif" font-size="10.00">serverNode :Node</text>
</a>
</g>
<!-- taskBoardLanesListener -->
<g id="node2" class="node"><title>taskBoardLanesListener</title>
<image xlink:href="icons/worker.png" width="80px" height="61px" preserveAspectRatio="xMinYMin meet" x="345" y="-349"/>
<a xlink:href="../examples/org/sdmlib/examples/replication/maumau/ReplicationMauMauServer.java" xlink:title="&lt;TABLE&gt;">
<polygon fill="none" stroke="black" points="223,-270 223,-286 547,-286 547,-270 223,-270"/>
<text text-anchor="start" x="226.5" y="-276" font-family="Times New Roman,serif" font-size="10.00"> </text>
<text text-anchor="start" x="229.5" y="-276" font-family="Times New Roman,serif" font-size="10.00">taskBoardLanesListener :ReplicationMauMauServer$TaskBoardLanesListener</text>
</a>
</g>
<!-- taskboard -->
<g id="node3" class="node"><title>taskboard</title>
<image xlink:href="icons/shared.png" width="70px" height="23px" preserveAspectRatio="xMinYMin meet" x="350" y="-223"/>
<a xlink:href="../../SDMLib/src/org/sdmlib/replication/TaskFlowBoard.java" xlink:title="&lt;TABLE&gt;">
<polygon fill="none" stroke="black" points="326,-182 326,-198 444,-198 444,-182 326,-182"/>
<text text-anchor="start" x="329.5" y="-188" font-family="Times New Roman,serif" font-size="10.00"> </text>
<text text-anchor="start" x="332.5" y="-188" font-family="Times New Roman,serif" font-size="10.00">taskboard :TaskFlowBoard</text>
</a>
</g>
<!-- taskBoardLanesListener&#45;&#45;taskboard -->
<g id="edge2" class="edge"><title>taskBoardLanesListener&#45;&#45;taskboard</title>
<path fill="none" stroke="black" d="M385,-266.383C385,-253.874 385,-240.673 385,-229.731"/>
<text text-anchor="middle" x="389.226" y="-236.294" font-family="Times New Roman,serif" font-size="10.00">taskFlowBoard</text>
</g>
<!-- serverLane -->
<g id="node4" class="node"><title>serverLane</title>
<a xlink:href="../../SDMLib/src/org/sdmlib/replication/Lane.java" xlink:title="&lt;TABLE&gt;">
<polygon fill="none" stroke="black" points="55,-120 55,-137 134,-137 134,-120 55,-120"/>
<text text-anchor="start" x="58.5" y="-126.5" font-family="Times New Roman,serif" font-size="10.00"> </text>
<text text-anchor="start" x="61.5" y="-126.5" font-family="Times New Roman,serif" font-size="10.00">serverLane :Lane</text>
</a>
<polygon fill="none" stroke="black" points="55,-100 55,-120 134,-120 134,-100 55,-100"/>
<text text-anchor="start" x="60" y="-108" font-family="Times New Roman,serif" font-size="10.00">name = &quot;server&quot;</text>
</g>
<!-- taskboard&#45;&#45;serverLane -->
<g id="edge4" class="edge"><title>taskboard&#45;&#45;serverLane</title>
<path fill="none" stroke="black" d="M317.851,-187.636C270.758,-176.341 206.544,-159.895 151,-142 147.87,-140.992 144.662,-139.905 141.442,-138.773"/>
<text text-anchor="middle" x="151.392" y="-135.279" font-family="Times New Roman,serif" font-size="10.00">lanes</text>
<text text-anchor="middle" x="308.048" y="-187.11" font-family="Times New Roman,serif" font-size="10.00">board</text>
</g>
<!-- l1 -->
<g id="node5" class="node"><title>l1</title>
<a xlink:href="../../SDMLib/src/org/sdmlib/replication/Lane.java" xlink:title="&lt;TABLE&gt;">
<polygon fill="none" stroke="black" points="168,-120 168,-137 303,-137 303,-120 168,-120"/>
<text text-anchor="start" x="218.5" y="-126.5" font-family="Times New Roman,serif" font-size="10.00"> </text>
<text text-anchor="start" x="221.5" y="-126.5" font-family="Times New Roman,serif" font-size="10.00">l1 :Lane</text>
</a>
<polygon fill="none" stroke="black" points="168,-100 168,-120 303,-120 303,-100 168,-100"/>
<text text-anchor="start" x="173" y="-108" font-family="Times New Roman,serif" font-size="10.00">name = &quot;play7WorkFlowLane&quot;</text>
</g>
<!-- taskboard&#45;&#45;l1 -->
<g id="edge6" class="edge"><title>taskboard&#45;&#45;l1</title>
<path fill="none" stroke="black" d="M340.401,-178.322C319.33,-166.662 294.404,-152.87 274.083,-141.626"/>
<text text-anchor="middle" x="284.059" y="-139.816" font-family="Times New Roman,serif" font-size="10.00">lanes</text>
<text text-anchor="middle" x="330.425" y="-175.132" font-family="Times New Roman,serif" font-size="10.00">board</text>
</g>
<!-- l5 -->
<g id="node8" class="node"><title>l5</title>
<a xlink:href="../../SDMLib/src/org/sdmlib/replication/Lane.java" xlink:title="&lt;TABLE&gt;">
<polygon fill="none" stroke="black" points="341,-120 341,-137 430,-137 430,-120 341,-120"/>
<text text-anchor="start" x="368.5" y="-126.5" font-family="Times New Roman,serif" font-size="10.00"> </text>
<text text-anchor="start" x="371.5" y="-126.5" font-family="Times New Roman,serif" font-size="10.00">l5 :Lane</text>
</a>
<polygon fill="none" stroke="black" points="341,-100 341,-120 430,-120 430,-100 341,-100"/>
<text text-anchor="start" x="346" y="-108" font-family="Times New Roman,serif" font-size="10.00">name = &quot;AbuLane&quot;</text>
</g>
<!-- taskboard&#45;&#45;l5 -->
<g id="edge8" class="edge"><title>taskboard&#45;&#45;l5</title>
<path fill="none" stroke="black" d="M385,-178.097C385,-166.446 385,-152.705 385,-141.513"/>
<text text-anchor="middle" x="389.226" y="-148.076" font-family="Times New Roman,serif" font-size="10.00">lanes</text>
<text text-anchor="middle" x="380.774" y="-166.534" font-family="Times New Roman,serif" font-size="10.00">board</text>
</g>
<!-- l8 -->
<g id="node10" class="node"><title>l8</title>
<a xlink:href="../../SDMLib/src/org/sdmlib/replication/Lane.java" xlink:title="&lt;TABLE&gt;">
<polygon fill="none" stroke="black" points="488,-120 488,-137 578,-137 578,-120 488,-120"/>
<text text-anchor="start" x="516" y="-126.5" font-family="Times New Roman,serif" font-size="10.00"> </text>
<text text-anchor="start" x="519" y="-126.5" font-family="Times New Roman,serif" font-size="10.00">l8 :Lane</text>
</a>
<polygon fill="none" stroke="black" points="488,-100 488,-120 578,-120 578,-100 488,-100"/>
<text text-anchor="start" x="493" y="-108" font-family="Times New Roman,serif" font-size="10.00">name = &quot;KarliLane&quot;</text>
</g>
<!-- taskboard&#45;&#45;l8 -->
<g id="edge10" class="edge"><title>taskboard&#45;&#45;l8</title>
<path fill="none" stroke="black" d="M429.004,-178.322C449.795,-166.662 474.388,-152.87 494.438,-141.626"/>
<text text-anchor="middle" x="488.6" y="-147.245" font-family="Times New Roman,serif" font-size="10.00">lanes</text>
<text text-anchor="middle" x="434.842" y="-167.703" font-family="Times New Roman,serif" font-size="10.00">board</text>
</g>
<!-- l11 -->
<g id="node12" class="node"><title>l11</title>
<a xlink:href="../../SDMLib/src/org/sdmlib/replication/Lane.java" xlink:title="&lt;TABLE&gt;">
<polygon fill="none" stroke="black" points="661,-120 661,-137 759,-137 759,-120 661,-120"/>
<text text-anchor="start" x="690.5" y="-126.5" font-family="Times New Roman,serif" font-size="10.00"> </text>
<text text-anchor="start" x="693.5" y="-126.5" font-family="Times New Roman,serif" font-size="10.00">l11 :Lane</text>
</a>
<polygon fill="none" stroke="black" points="661,-100 661,-120 759,-120 759,-100 661,-100"/>
<text text-anchor="start" x="666" y="-108" font-family="Times New Roman,serif" font-size="10.00">name = &quot;SabineLane&quot;</text>
</g>
<!-- taskboard&#45;&#45;l11 -->
<g id="edge12" class="edge"><title>taskboard&#45;&#45;l11</title>
<path fill="none" stroke="black" d="M452.34,-185.802C511.558,-170.679 596.807,-148.908 652.786,-134.612"/>
<text text-anchor="middle" x="645.05" y="-138.449" font-family="Times New Roman,serif" font-size="10.00">lanes</text>
<text text-anchor="middle" x="460.076" y="-176.965" font-family="Times New Roman,serif" font-size="10.00">board</text>
</g>
<!-- b2 -->
<g id="node6" class="node"><title>b2</title>
<a xlink:href="../../SDMLib/src/org/sdmlib/replication/BoardTask.java" xlink:title="&lt;TABLE&gt;">
<polygon fill="none" stroke="black" points="9,-38 9,-55 150,-55 150,-38 9,-38"/>
<text text-anchor="start" x="49" y="-44.5" font-family="Times New Roman,serif" font-size="10.00"> </text>
<text text-anchor="start" x="52" y="-44.5" font-family="Times New Roman,serif" font-size="10.00">b2 :BoardTask</text>
</a>
<polygon fill="none" stroke="black" points="9,-4 9,-38 150,-38 150,-4 9,-4"/>
<text text-anchor="start" x="14" y="-26" font-family="Times New Roman,serif" font-size="10.00">name = &quot;showStartGameButton&quot;</text>
<text text-anchor="start" x="14" y="-12" font-family="Times New Roman,serif" font-size="10.00">status = &quot;start&quot;</text>
</g>
<!-- l1&#45;&#45;b2 -->
<g id="edge14" class="edge"><title>l1&#45;&#45;b2</title>
<path fill="none" stroke="black" d="M196.438,-96.4944C176.498,-85.3739 151.892,-71.6511 130.362,-59.6443"/>
<text text-anchor="middle" x="140.336" y="-57.8676" font-family="Times New Roman,serif" font-size="10.00">tasks</text>
<text text-anchor="middle" x="186.464" y="-93.271" font-family="Times New Roman,serif" font-size="10.00">lane</text>
</g>
<!-- b3 -->
<g id="node7" class="node"><title>b3</title>
<a xlink:href="../../SDMLib/src/org/sdmlib/replication/BoardTask.java" xlink:title="&lt;TABLE&gt;">
<polygon fill="none" stroke="black" points="184,-38 184,-55 281,-55 281,-38 184,-38"/>
<text text-anchor="start" x="202" y="-44.5" font-family="Times New Roman,serif" font-size="10.00"> </text>
<text text-anchor="start" x="205" y="-44.5" font-family="Times New Roman,serif" font-size="10.00">b3 :BoardTask</text>
</a>
<polygon fill="none" stroke="black" points="184,-4 184,-38 281,-38 281,-4 184,-4"/>
<text text-anchor="start" x="189" y="-26" font-family="Times New Roman,serif" font-size="10.00">name = &quot;startClients&quot;</text>
<text text-anchor="start" x="189" y="-12" font-family="Times New Roman,serif" font-size="10.00">status = &quot;start&quot;</text>
</g>
<!-- l1&#45;&#45;b3 -->
<g id="edge16" class="edge"><title>l1&#45;&#45;b3</title>
<path fill="none" stroke="black" d="M234.258,-96.4944C233.877,-85.4243 233.406,-71.7752 232.993,-59.8074"/>
<text text-anchor="middle" x="237.529" y="-66.2194" font-family="Times New Roman,serif" font-size="10.00">tasks</text>
<text text-anchor="middle" x="229.722" y="-85.0823" font-family="Times New Roman,serif" font-size="10.00">lane</text>
</g>
<!-- b6 -->
<g id="node9" class="node"><title>b6</title>
<a xlink:href="../../SDMLib/src/org/sdmlib/replication/BoardTask.java" xlink:title="&lt;TABLE&gt;">
<polygon fill="none" stroke="black" points="315,-38 315,-55 456,-55 456,-38 315,-38"/>
<text text-anchor="start" x="355" y="-44.5" font-family="Times New Roman,serif" font-size="10.00"> </text>
<text text-anchor="start" x="358" y="-44.5" font-family="Times New Roman,serif" font-size="10.00">b6 :BoardTask</text>
</a>
<polygon fill="none" stroke="black" points="315,-4 315,-38 456,-38 456,-4 315,-4"/>
<text text-anchor="start" x="320" y="-26" font-family="Times New Roman,serif" font-size="10.00">name = &quot;showStartGameButton&quot;</text>
<text text-anchor="start" x="320" y="-12" font-family="Times New Roman,serif" font-size="10.00">status = &quot;start&quot;</text>
</g>
<!-- l5&#45;&#45;b6 -->
<g id="edge18" class="edge"><title>l5&#45;&#45;b6</title>
<path fill="none" stroke="black" d="M385,-96.4944C385,-85.4243 385,-71.7752 385,-59.8074"/>
<text text-anchor="middle" x="389.226" y="-66.3705" font-family="Times New Roman,serif" font-size="10.00">tasks</text>
<text text-anchor="middle" x="380.774" y="-84.9313" font-family="Times New Roman,serif" font-size="10.00">lane</text>
</g>
<!-- b9 -->
<g id="node11" class="node"><title>b9</title>
<a xlink:href="../../SDMLib/src/org/sdmlib/replication/BoardTask.java" xlink:title="&lt;TABLE&gt;">
<polygon fill="none" stroke="black" points="490,-38 490,-55 631,-55 631,-38 490,-38"/>
<text text-anchor="start" x="530" y="-44.5" font-family="Times New Roman,serif" font-size="10.00"> </text>
<text text-anchor="start" x="533" y="-44.5" font-family="Times New Roman,serif" font-size="10.00">b9 :BoardTask</text>
</a>
<polygon fill="none" stroke="black" points="490,-4 490,-38 631,-38 631,-4 490,-4"/>
<text text-anchor="start" x="495" y="-26" font-family="Times New Roman,serif" font-size="10.00">name = &quot;showStartGameButton&quot;</text>
<text text-anchor="start" x="495" y="-12" font-family="Times New Roman,serif" font-size="10.00">status = &quot;start&quot;</text>
</g>
<!-- l8&#45;&#45;b9 -->
<g id="edge20" class="edge"><title>l8&#45;&#45;b9</title>
<path fill="none" stroke="black" d="M539.674,-96.4944C543.11,-85.4243 547.346,-71.7752 551.06,-59.8074"/>
<text text-anchor="middle" x="552.41" y="-67.2158" font-family="Times New Roman,serif" font-size="10.00">tasks</text>
<text text-anchor="middle" x="538.324" y="-84.0859" font-family="Times New Roman,serif" font-size="10.00">lane</text>
</g>
<!-- b12 -->
<g id="node13" class="node"><title>b12</title>
<a xlink:href="../../SDMLib/src/org/sdmlib/replication/BoardTask.java" xlink:title="&lt;TABLE&gt;">
<polygon fill="none" stroke="black" points="665,-31 665,-48 806,-48 806,-31 665,-31"/>
<text text-anchor="start" x="702.5" y="-37.5" font-family="Times New Roman,serif" font-size="10.00"> </text>
<text text-anchor="start" x="705.5" y="-37.5" font-family="Times New Roman,serif" font-size="10.00">b12 :BoardTask</text>
</a>
<polygon fill="none" stroke="black" points="665,-11 665,-31 806,-31 806,-11 665,-11"/>
<text text-anchor="start" x="670" y="-19" font-family="Times New Roman,serif" font-size="10.00">name = &quot;showStartGameButton&quot;</text>
</g>
<!-- l11&#45;&#45;b12 -->
<g id="edge22" class="edge"><title>l11&#45;&#45;b12</title>
<path fill="none" stroke="black" d="M716.18,-96.4944C720.026,-83.1096 724.956,-65.9547 728.805,-52.5597"/>
<text text-anchor="middle" x="730.363" y="-59.9375" font-family="Times New Roman,serif" font-size="10.00">tasks</text>
<text text-anchor="middle" x="714.621" y="-84.1166" font-family="Times New Roman,serif" font-size="10.00">lane</text>
</g>
</g>
</svg>
