<?xml version="1.0" encoding="UTF-8" standalone="no"?>
<!DOCTYPE svg PUBLIC "-//W3C//DTD SVG 1.1//EN"
 "http://www.w3.org/Graphics/SVG/1.1/DTD/svg11.dtd">
<!-- Generated by graphviz version 2.28.0 (20110507.0327)
 -->
<!-- Title: ObjectDiagram Pages: 1 -->
<svg width="650pt" height="282pt"
 viewBox="0.00 0.00 650.00 282.00" xmlns="http://www.w3.org/2000/svg" xmlns:xlink="http://www.w3.org/1999/xlink">
<g id="graph1" class="graph" transform="scale(1 1) rotate(0) translate(4 278)">
<title>ObjectDiagram</title>
<polygon fill="white" stroke="white" points="-4,5 -4,-278 647,-278 647,5 -4,5"/>
<!-- server -->
<g id="node1" class="node"><title>server</title>
<image xlink:href="icons/worker.png" width="80px" height="61px" preserveAspectRatio="xMinYMin meet" x="42" y="-267"/>
<a xlink:href="../examples/org/sdmlib/examples/replication/maumau/ReplicationMauMauServer.java" xlink:title="&lt;TABLE&gt;">
<polygon fill="none" stroke="black" points="8,-188 8,-204 156,-204 156,-188 8,-188"/>
<text text-anchor="start" x="11.5" y="-194" font-family="Times New Roman,serif" font-size="10.00"> </text>
<text text-anchor="start" x="14.5" y="-194" font-family="Times New Roman,serif" font-size="10.00">server :ReplicationMauMauServer</text>
</a>
</g>
<!-- taskboard -->
<g id="node2" class="node"><title>taskboard</title>
<image xlink:href="icons/shared.png" width="70px" height="23px" preserveAspectRatio="xMinYMin meet" x="317" y="-134"/>
<a xlink:href="../../SDMLib/src/org/sdmlib/replication/TaskFlowBoard.java" xlink:title="&lt;TABLE&gt;">
<polygon fill="none" stroke="black" points="293,-93 293,-109 411,-109 411,-93 293,-93"/>
<text text-anchor="start" x="296.5" y="-99" font-family="Times New Roman,serif" font-size="10.00"> </text>
<text text-anchor="start" x="299.5" y="-99" font-family="Times New Roman,serif" font-size="10.00">taskboard :TaskFlowBoard</text>
</a>
</g>
<!-- serverLane -->
<g id="node3" class="node"><title>serverLane</title>
<a xlink:href="../../SDMLib/src/org/sdmlib/replication/Lane.java" xlink:title="&lt;TABLE&gt;">
<polygon fill="none" stroke="black" points="224,-24 224,-41 303,-41 303,-24 224,-24"/>
<text text-anchor="start" x="227.5" y="-30.5" font-family="Times New Roman,serif" font-size="10.00"> </text>
<text text-anchor="start" x="230.5" y="-30.5" font-family="Times New Roman,serif" font-size="10.00">serverLane :Lane</text>
</a>
<polygon fill="none" stroke="black" points="224,-4 224,-24 303,-24 303,-4 224,-4"/>
<text text-anchor="start" x="229" y="-12" font-family="Times New Roman,serif" font-size="10.00">name = &quot;server&quot;</text>
</g>
<!-- taskboard&#45;&#45;serverLane -->
<g id="edge2" class="edge"><title>taskboard&#45;&#45;serverLane</title>
<path fill="none" stroke="black" d="M327.68,-89.4071C314.093,-75.6671 297.321,-58.7067 284.261,-45.5"/>
<text text-anchor="middle" x="293.639" y="-46.4727" font-family="Times New Roman,serif" font-size="10.00">lanes</text>
<text text-anchor="middle" x="318.303" y="-83.4345" font-family="Times New Roman,serif" font-size="10.00">board</text>
</g>
<!-- taskBoardLanesListener -->
<g id="node4" class="node"><title>taskBoardLanesListener</title>
<image xlink:href="icons/server.png" width="48px" height="37px" preserveAspectRatio="xMinYMin meet" x="328" y="-255"/>
<a xlink:href="../examples/org/sdmlib/examples/replication/maumau/ReplicationMauMauServer.java" xlink:title="&lt;TABLE&gt;">
<polygon fill="none" stroke="black" points="190,-200 190,-216 514,-216 514,-200 190,-200"/>
<text text-anchor="start" x="193.5" y="-206" font-family="Times New Roman,serif" font-size="10.00"> </text>
<text text-anchor="start" x="196.5" y="-206" font-family="Times New Roman,serif" font-size="10.00">taskBoardLanesListener :ReplicationMauMauServer$TaskBoardLanesListener</text>
</a>
</g>
<!-- taskBoardLanesListener&#45;&#45;taskboard -->
<g id="edge4" class="edge"><title>taskBoardLanesListener&#45;&#45;taskboard</title>
<path fill="none" stroke="black" d="M352,-196.205C352,-178.614 352,-157.078 352,-140.752"/>
<text text-anchor="middle" x="356.226" y="-147.315" font-family="Times New Roman,serif" font-size="10.00">taskFlowBoard</text>
</g>
<!-- serverLaneListener -->
<g id="node5" class="node"><title>serverLaneListener</title>
<image xlink:href="icons/server.png" width="48px" height="37px" preserveAspectRatio="xMinYMin meet" x="150.5" y="-141"/>
<a xlink:href="../examples/org/sdmlib/examples/replication/maumau/ServerLaneListener.java" xlink:title="&lt;TABLE&gt;">
<polygon fill="none" stroke="black" points="90,-86 90,-102 259,-102 259,-86 90,-86"/>
<text text-anchor="start" x="93.5" y="-92" font-family="Times New Roman,serif" font-size="10.00"> </text>
<text text-anchor="start" x="96.5" y="-92" font-family="Times New Roman,serif" font-size="10.00">serverLaneListener :ServerLaneListener</text>
</a>
</g>
<!-- serverLaneListener&#45;&#45;serverLane -->
<g id="edge6" class="edge"><title>serverLaneListener&#45;&#45;serverLane</title>
<path fill="none" stroke="black" d="M205.378,-82.2694C217.389,-70.1233 230.801,-56.5609 241.661,-45.5787"/>
<text text-anchor="middle" x="238.293" y="-52.4946" font-family="Times New Roman,serif" font-size="10.00">source</text>
</g>
<!-- maumau -->
<g id="node6" class="node"><title>maumau</title>
<image xlink:href="icons/shared.png" width="70px" height="23px" preserveAspectRatio="xMinYMin meet" x="556" y="-248"/>
<a xlink:href="../examples/org/sdmlib/examples/replication/maumau/MauMau.java" xlink:title="&lt;TABLE&gt;">
<polygon fill="none" stroke="black" points="548,-207 548,-223 634,-223 634,-207 548,-207"/>
<text text-anchor="start" x="551.5" y="-213" font-family="Times New Roman,serif" font-size="10.00"> </text>
<text text-anchor="start" x="554.5" y="-213" font-family="Times New Roman,serif" font-size="10.00">maumau :MauMau</text>
</a>
</g>
</g>
</svg>
