<?xml version="1.0" encoding="UTF-8" standalone="no"?>
<!DOCTYPE svg PUBLIC "-//W3C//DTD SVG 1.1//EN"
 "http://www.w3.org/Graphics/SVG/1.1/DTD/svg11.dtd">
<!-- Generated by graphviz version 2.28.0 (20110507.0327)
 -->
<!-- Title: ObjectDiagram Pages: 1 -->
<svg width="470pt" height="350pt"
 viewBox="0.00 0.00 470.00 350.00" xmlns="http://www.w3.org/2000/svg" xmlns:xlink="http://www.w3.org/1999/xlink">
<g id="graph1" class="graph" transform="scale(1 1) rotate(0) translate(4 346)">
<title>ObjectDiagram</title>
<polygon fill="white" stroke="white" points="-4,5 -4,-346 467,-346 467,5 -4,5"/>
<!-- serverNode -->
<g id="node1" class="node"><title>serverNode</title>
<image xlink:href="icons/node.png" width="83px" height="61px" preserveAspectRatio="xMinYMin meet" x="11" y="-335"/>
<a xlink:href="../../SDMLib/src/org/sdmlib/replication/Node.java" xlink:title="&lt;TABLE&gt;">
<polygon fill="none" stroke="black" points="9,-256 9,-272 96,-272 96,-256 9,-256"/>
<text text-anchor="start" x="14.5" y="-262" font-family="Times New Roman,serif" font-size="10.00"> </text>
<text text-anchor="start" x="17.5" y="-262" font-family="Times New Roman,serif" font-size="10.00">serverNode :Node</text>
</a>
</g>
<!-- taskBoardLanesListener -->
<g id="node2" class="node"><title>taskBoardLanesListener</title>
<image xlink:href="icons/worker.png" width="80px" height="61px" preserveAspectRatio="xMinYMin meet" x="252" y="-335"/>
<a xlink:href="../examples/org/sdmlib/examples/replication/maumau/ReplicationMauMauServer.java" xlink:title="&lt;TABLE&gt;">
<polygon fill="none" stroke="black" points="130,-256 130,-272 454,-272 454,-256 130,-256"/>
<text text-anchor="start" x="133.5" y="-262" font-family="Times New Roman,serif" font-size="10.00"> </text>
<text text-anchor="start" x="136.5" y="-262" font-family="Times New Roman,serif" font-size="10.00">taskBoardLanesListener :ReplicationMauMauServer$TaskBoardLanesListener</text>
</a>
</g>
<!-- taskboard -->
<g id="node3" class="node"><title>taskboard</title>
<image xlink:href="icons/shared.png" width="70px" height="23px" preserveAspectRatio="xMinYMin meet" x="257" y="-209"/>
<a xlink:href="../../SDMLib/src/org/sdmlib/replication/TaskFlowBoard.java" xlink:title="&lt;TABLE&gt;">
<polygon fill="none" stroke="black" points="233,-168 233,-184 351,-184 351,-168 233,-168"/>
<text text-anchor="start" x="236.5" y="-174" font-family="Times New Roman,serif" font-size="10.00"> </text>
<text text-anchor="start" x="239.5" y="-174" font-family="Times New Roman,serif" font-size="10.00">taskboard :TaskFlowBoard</text>
</a>
</g>
<!-- taskBoardLanesListener&#45;&#45;taskboard -->
<g id="edge2" class="edge"><title>taskBoardLanesListener&#45;&#45;taskboard</title>
<path fill="none" stroke="black" d="M292,-252.383C292,-239.874 292,-226.673 292,-215.731"/>
<text text-anchor="middle" x="296.226" y="-222.294" font-family="Times New Roman,serif" font-size="10.00">taskFlowBoard</text>
</g>
<!-- serverLane -->
<g id="node4" class="node"><title>serverLane</title>
<a xlink:href="../../SDMLib/src/org/sdmlib/replication/Lane.java" xlink:title="&lt;TABLE&gt;">
<polygon fill="none" stroke="black" points="183,-106 183,-123 262,-123 262,-106 183,-106"/>
<text text-anchor="start" x="186.5" y="-112.5" font-family="Times New Roman,serif" font-size="10.00"> </text>
<text text-anchor="start" x="189.5" y="-112.5" font-family="Times New Roman,serif" font-size="10.00">serverLane :Lane</text>
</a>
<polygon fill="none" stroke="black" points="183,-86 183,-106 262,-106 262,-86 183,-86"/>
<text text-anchor="start" x="188" y="-94" font-family="Times New Roman,serif" font-size="10.00">name = &quot;server&quot;</text>
</g>
<!-- taskboard&#45;&#45;serverLane -->
<g id="edge4" class="edge"><title>taskboard&#45;&#45;serverLane</title>
<path fill="none" stroke="black" d="M270.998,-164.097C261.171,-152.446 249.583,-138.705 240.143,-127.513"/>
<text text-anchor="middle" x="249.217" y="-129.216" font-family="Times New Roman,serif" font-size="10.00">lanes</text>
<text text-anchor="middle" x="261.924" y="-157.394" font-family="Times New Roman,serif" font-size="10.00">board</text>
</g>
<!-- l1 -->
<g id="node5" class="node"><title>l1</title>
<a xlink:href="../../SDMLib/src/org/sdmlib/replication/Lane.java" xlink:title="&lt;TABLE&gt;">
<polygon fill="none" stroke="black" points="296,-106 296,-123 431,-123 431,-106 296,-106"/>
<text text-anchor="start" x="346.5" y="-112.5" font-family="Times New Roman,serif" font-size="10.00"> </text>
<text text-anchor="start" x="349.5" y="-112.5" font-family="Times New Roman,serif" font-size="10.00">l1 :Lane</text>
</a>
<polygon fill="none" stroke="black" points="296,-86 296,-106 431,-106 431,-86 296,-86"/>
<text text-anchor="start" x="301" y="-94" font-family="Times New Roman,serif" font-size="10.00">name = &quot;play7WorkFlowLane&quot;</text>
</g>
<!-- taskboard&#45;&#45;l1 -->
<g id="edge6" class="edge"><title>taskboard&#45;&#45;l1</title>
<path fill="none" stroke="black" d="M313.302,-164.097C323.269,-152.446 335.023,-138.705 344.597,-127.513"/>
<text text-anchor="middle" x="341.918" y="-134.647" font-family="Times New Roman,serif" font-size="10.00">lanes</text>
<text text-anchor="middle" x="315.982" y="-151.963" font-family="Times New Roman,serif" font-size="10.00">board</text>
</g>
<!-- b2 -->
<g id="node6" class="node"><title>b2</title>
<a xlink:href="../../SDMLib/src/org/sdmlib/replication/BoardTask.java" xlink:title="&lt;TABLE&gt;">
<polygon fill="none" stroke="black" points="293,-24 293,-41 434,-41 434,-24 293,-24"/>
<text text-anchor="start" x="333" y="-30.5" font-family="Times New Roman,serif" font-size="10.00"> </text>
<text text-anchor="start" x="336" y="-30.5" font-family="Times New Roman,serif" font-size="10.00">b2 :BoardTask</text>
</a>
<polygon fill="none" stroke="black" points="293,-4 293,-24 434,-24 434,-4 293,-4"/>
<text text-anchor="start" x="298" y="-12" font-family="Times New Roman,serif" font-size="10.00">name = &quot;showStartGameButton&quot;</text>
</g>
<!-- l1&#45;&#45;b2 -->
<g id="edge8" class="edge"><title>l1&#45;&#45;b2</title>
<path fill="none" stroke="black" d="M363,-82.1396C363,-70.759 363,-56.8929 363,-45.5569"/>
<text text-anchor="middle" x="367.226" y="-52.12" font-family="Times New Roman,serif" font-size="10.00">tasks</text>
<text text-anchor="middle" x="358.774" y="-70.5766" font-family="Times New Roman,serif" font-size="10.00">lane</text>
</g>
</g>
</svg>
