<?xml version="1.0" encoding="UTF-8" standalone="no"?>
<!DOCTYPE svg PUBLIC "-//W3C//DTD SVG 1.1//EN"
 "http://www.w3.org/Graphics/SVG/1.1/DTD/svg11.dtd">
<!-- Generated by graphviz version 2.28.0 (20110507.0327)
 -->
<!-- Title: ObjectDiagram Pages: 1 -->
<svg width="646pt" height="364pt"
 viewBox="0.00 0.00 646.00 364.00" xmlns="http://www.w3.org/2000/svg" xmlns:xlink="http://www.w3.org/1999/xlink">
<g id="graph1" class="graph" transform="scale(1 1) rotate(0) translate(4 360)">
<title>ObjectDiagram</title>
<polygon fill="white" stroke="white" points="-4,5 -4,-360 643,-360 643,5 -4,5"/>
<!-- serverNode -->
<g id="node1" class="node"><title>serverNode</title>
<image xlink:href="icons/node.png" width="83px" height="61px" preserveAspectRatio="xMinYMin meet" x="27" y="-349"/>
<a xlink:href="../../SDMLib/src/org/sdmlib/replication/Node.java" xlink:title="&lt;TABLE&gt;">
<polygon fill="none" stroke="black" points="25,-270 25,-286 112,-286 112,-270 25,-270"/>
<text text-anchor="start" x="30.5" y="-276" font-family="Times New Roman,serif" font-size="10.00"> </text>
<text text-anchor="start" x="33.5" y="-276" font-family="Times New Roman,serif" font-size="10.00">serverNode :Node</text>
</a>
</g>
<!-- taskBoardLanesListener -->
<g id="node2" class="node"><title>taskBoardLanesListener</title>
<image xlink:href="icons/worker.png" width="80px" height="61px" preserveAspectRatio="xMinYMin meet" x="268" y="-349"/>
<a xlink:href="../examples/org/sdmlib/examples/replication/maumau/ReplicationMauMauServer.java" xlink:title="&lt;TABLE&gt;">
<polygon fill="none" stroke="black" points="146,-270 146,-286 470,-286 470,-270 146,-270"/>
<text text-anchor="start" x="149.5" y="-276" font-family="Times New Roman,serif" font-size="10.00"> </text>
<text text-anchor="start" x="152.5" y="-276" font-family="Times New Roman,serif" font-size="10.00">taskBoardLanesListener :ReplicationMauMauServer$TaskBoardLanesListener</text>
</a>
</g>
<!-- taskboard -->
<g id="node3" class="node"><title>taskboard</title>
<image xlink:href="icons/shared.png" width="70px" height="23px" preserveAspectRatio="xMinYMin meet" x="273" y="-223"/>
<a xlink:href="../../SDMLib/src/org/sdmlib/replication/TaskFlowBoard.java" xlink:title="&lt;TABLE&gt;">
<polygon fill="none" stroke="black" points="249,-182 249,-198 367,-198 367,-182 249,-182"/>
<text text-anchor="start" x="252.5" y="-188" font-family="Times New Roman,serif" font-size="10.00"> </text>
<text text-anchor="start" x="255.5" y="-188" font-family="Times New Roman,serif" font-size="10.00">taskboard :TaskFlowBoard</text>
</a>
</g>
<!-- taskBoardLanesListener&#45;&#45;taskboard -->
<g id="edge2" class="edge"><title>taskBoardLanesListener&#45;&#45;taskboard</title>
<path fill="none" stroke="black" d="M308,-266.383C308,-253.874 308,-240.673 308,-229.731"/>
<text text-anchor="middle" x="312.226" y="-236.294" font-family="Times New Roman,serif" font-size="10.00">taskFlowBoard</text>
</g>
<!-- serverLane -->
<g id="node4" class="node"><title>serverLane</title>
<a xlink:href="../../SDMLib/src/org/sdmlib/replication/Lane.java" xlink:title="&lt;TABLE&gt;">
<polygon fill="none" stroke="black" points="54,-120 54,-137 133,-137 133,-120 54,-120"/>
<text text-anchor="start" x="57.5" y="-126.5" font-family="Times New Roman,serif" font-size="10.00"> </text>
<text text-anchor="start" x="60.5" y="-126.5" font-family="Times New Roman,serif" font-size="10.00">serverLane :Lane</text>
</a>
<polygon fill="none" stroke="black" points="54,-100 54,-120 133,-120 133,-100 54,-100"/>
<text text-anchor="start" x="59" y="-108" font-family="Times New Roman,serif" font-size="10.00">name = &quot;server&quot;</text>
</g>
<!-- taskboard&#45;&#45;serverLane -->
<g id="edge4" class="edge"><title>taskboard&#45;&#45;serverLane</title>
<path fill="none" stroke="black" d="M244.366,-178.434C211.057,-165.575 170.966,-150.098 140.414,-138.304"/>
<text text-anchor="middle" x="150.391" y="-135.125" font-family="Times New Roman,serif" font-size="10.00">lanes</text>
<text text-anchor="middle" x="234.389" y="-176.613" font-family="Times New Roman,serif" font-size="10.00">board</text>
</g>
<!-- l1 -->
<g id="node5" class="node"><title>l1</title>
<a xlink:href="../../SDMLib/src/org/sdmlib/replication/Lane.java" xlink:title="&lt;TABLE&gt;">
<polygon fill="none" stroke="black" points="167,-120 167,-137 302,-137 302,-120 167,-120"/>
<text text-anchor="start" x="217.5" y="-126.5" font-family="Times New Roman,serif" font-size="10.00"> </text>
<text text-anchor="start" x="220.5" y="-126.5" font-family="Times New Roman,serif" font-size="10.00">l1 :Lane</text>
</a>
<polygon fill="none" stroke="black" points="167,-100 167,-120 302,-120 302,-100 167,-100"/>
<text text-anchor="start" x="172" y="-108" font-family="Times New Roman,serif" font-size="10.00">name = &quot;play7WorkFlowLane&quot;</text>
</g>
<!-- taskboard&#45;&#45;l1 -->
<g id="edge6" class="edge"><title>taskboard&#45;&#45;l1</title>
<path fill="none" stroke="black" d="M285.798,-178.097C275.41,-166.446 263.159,-152.705 253.18,-141.513"/>
<text text-anchor="middle" x="262.366" y="-142.965" font-family="Times New Roman,serif" font-size="10.00">lanes</text>
<text text-anchor="middle" x="276.612" y="-171.645" font-family="Times New Roman,serif" font-size="10.00">board</text>
</g>
<!-- l5 -->
<g id="node8" class="node"><title>l5</title>
<a xlink:href="../../SDMLib/src/org/sdmlib/replication/Lane.java" xlink:title="&lt;TABLE&gt;">
<polygon fill="none" stroke="black" points="339,-120 339,-137 428,-137 428,-120 339,-120"/>
<text text-anchor="start" x="366.5" y="-126.5" font-family="Times New Roman,serif" font-size="10.00"> </text>
<text text-anchor="start" x="369.5" y="-126.5" font-family="Times New Roman,serif" font-size="10.00">l5 :Lane</text>
</a>
<polygon fill="none" stroke="black" points="339,-100 339,-120 428,-120 428,-100 339,-100"/>
<text text-anchor="start" x="344" y="-108" font-family="Times New Roman,serif" font-size="10.00">name = &quot;AbuLane&quot;</text>
</g>
<!-- taskboard&#45;&#45;l5 -->
<g id="edge8" class="edge"><title>taskboard&#45;&#45;l5</title>
<path fill="none" stroke="black" d="M330.502,-178.097C341.031,-166.446 353.447,-152.705 363.561,-141.513"/>
<text text-anchor="middle" x="360.62" y="-148.571" font-family="Times New Roman,serif" font-size="10.00">lanes</text>
<text text-anchor="middle" x="333.443" y="-166.039" font-family="Times New Roman,serif" font-size="10.00">board</text>
</g>
<!-- l8 -->
<g id="node10" class="node"><title>l8</title>
<a xlink:href="../../SDMLib/src/org/sdmlib/replication/Lane.java" xlink:title="&lt;TABLE&gt;">
<polygon fill="none" stroke="black" points="491,-120 491,-137 581,-137 581,-120 491,-120"/>
<text text-anchor="start" x="519" y="-126.5" font-family="Times New Roman,serif" font-size="10.00"> </text>
<text text-anchor="start" x="522" y="-126.5" font-family="Times New Roman,serif" font-size="10.00">l8 :Lane</text>
</a>
<polygon fill="none" stroke="black" points="491,-100 491,-120 581,-120 581,-100 491,-100"/>
<text text-anchor="start" x="496" y="-108" font-family="Times New Roman,serif" font-size="10.00">name = &quot;KarliLane&quot;</text>
</g>
<!-- taskboard&#45;&#45;l8 -->
<g id="edge10" class="edge"><title>taskboard&#45;&#45;l8</title>
<path fill="none" stroke="black" d="M375.174,-178.546C409.458,-166.066 450.581,-151.096 482.661,-139.417"/>
<text text-anchor="middle" x="475.59" y="-143.989" font-family="Times New Roman,serif" font-size="10.00">lanes</text>
<text text-anchor="middle" x="382.245" y="-168.975" font-family="Times New Roman,serif" font-size="10.00">board</text>
</g>
<!-- b2 -->
<g id="node6" class="node"><title>b2</title>
<a xlink:href="../../SDMLib/src/org/sdmlib/replication/BoardTask.java" xlink:title="&lt;TABLE&gt;">
<polygon fill="none" stroke="black" points="9,-38 9,-55 150,-55 150,-38 9,-38"/>
<text text-anchor="start" x="49" y="-44.5" font-family="Times New Roman,serif" font-size="10.00"> </text>
<text text-anchor="start" x="52" y="-44.5" font-family="Times New Roman,serif" font-size="10.00">b2 :BoardTask</text>
</a>
<polygon fill="none" stroke="black" points="9,-4 9,-38 150,-38 150,-4 9,-4"/>
<text text-anchor="start" x="14" y="-26" font-family="Times New Roman,serif" font-size="10.00">name = &quot;showStartGameButton&quot;</text>
<text text-anchor="start" x="14" y="-12" font-family="Times New Roman,serif" font-size="10.00">status = &quot;start&quot;</text>
</g>
<!-- l1&#45;&#45;b2 -->
<g id="edge12" class="edge"><title>l1&#45;&#45;b2</title>
<path fill="none" stroke="black" d="M195.685,-96.4944C175.873,-85.3739 151.424,-71.6511 130.033,-59.6443"/>
<text text-anchor="middle" x="140.005" y="-57.895" font-family="Times New Roman,serif" font-size="10.00">tasks</text>
<text text-anchor="middle" x="185.714" y="-93.2437" font-family="Times New Roman,serif" font-size="10.00">lane</text>
</g>
<!-- b3 -->
<g id="node7" class="node"><title>b3</title>
<a xlink:href="../../SDMLib/src/org/sdmlib/replication/BoardTask.java" xlink:title="&lt;TABLE&gt;">
<polygon fill="none" stroke="black" points="184,-38 184,-55 281,-55 281,-38 184,-38"/>
<text text-anchor="start" x="202" y="-44.5" font-family="Times New Roman,serif" font-size="10.00"> </text>
<text text-anchor="start" x="205" y="-44.5" font-family="Times New Roman,serif" font-size="10.00">b3 :BoardTask</text>
</a>
<polygon fill="none" stroke="black" points="184,-4 184,-38 281,-38 281,-4 184,-4"/>
<text text-anchor="start" x="189" y="-26" font-family="Times New Roman,serif" font-size="10.00">name = &quot;startClients&quot;</text>
<text text-anchor="start" x="189" y="-12" font-family="Times New Roman,serif" font-size="10.00">status = &quot;start&quot;</text>
</g>
<!-- l1&#45;&#45;b3 -->
<g id="edge14" class="edge"><title>l1&#45;&#45;b3</title>
<path fill="none" stroke="black" d="M233.506,-96.4944C233.251,-85.4243 232.937,-71.7752 232.662,-59.8074"/>
<text text-anchor="middle" x="237.096" y="-66.2709" font-family="Times New Roman,serif" font-size="10.00">tasks</text>
<text text-anchor="middle" x="229.072" y="-85.0308" font-family="Times New Roman,serif" font-size="10.00">lane</text>
</g>
<!-- b6 -->
<g id="node9" class="node"><title>b6</title>
<a xlink:href="../../SDMLib/src/org/sdmlib/replication/BoardTask.java" xlink:title="&lt;TABLE&gt;">
<polygon fill="none" stroke="black" points="315,-38 315,-55 456,-55 456,-38 315,-38"/>
<text text-anchor="start" x="355" y="-44.5" font-family="Times New Roman,serif" font-size="10.00"> </text>
<text text-anchor="start" x="358" y="-44.5" font-family="Times New Roman,serif" font-size="10.00">b6 :BoardTask</text>
</a>
<polygon fill="none" stroke="black" points="315,-4 315,-38 456,-38 456,-4 315,-4"/>
<text text-anchor="start" x="320" y="-26" font-family="Times New Roman,serif" font-size="10.00">name = &quot;showStartGameButton&quot;</text>
<text text-anchor="start" x="320" y="-12" font-family="Times New Roman,serif" font-size="10.00">status = &quot;start&quot;</text>
</g>
<!-- l5&#45;&#45;b6 -->
<g id="edge16" class="edge"><title>l5&#45;&#45;b6</title>
<path fill="none" stroke="black" d="M383.494,-96.4944C383.749,-85.4243 384.063,-71.7752 384.338,-59.8074"/>
<text text-anchor="middle" x="388.355" y="-66.4652" font-family="Times New Roman,serif" font-size="10.00">tasks</text>
<text text-anchor="middle" x="379.478" y="-84.8366" font-family="Times New Roman,serif" font-size="10.00">lane</text>
</g>
<!-- b9 -->
<g id="node11" class="node"><title>b9</title>
<a xlink:href="../../SDMLib/src/org/sdmlib/replication/BoardTask.java" xlink:title="&lt;TABLE&gt;">
<polygon fill="none" stroke="black" points="490,-31 490,-48 631,-48 631,-31 490,-31"/>
<text text-anchor="start" x="530" y="-37.5" font-family="Times New Roman,serif" font-size="10.00"> </text>
<text text-anchor="start" x="533" y="-37.5" font-family="Times New Roman,serif" font-size="10.00">b9 :BoardTask</text>
</a>
<polygon fill="none" stroke="black" points="490,-11 490,-31 631,-31 631,-11 490,-11"/>
<text text-anchor="start" x="495" y="-19" font-family="Times New Roman,serif" font-size="10.00">name = &quot;showStartGameButton&quot;</text>
</g>
<!-- l8&#45;&#45;b9 -->
<g id="edge18" class="edge"><title>l8&#45;&#45;b9</title>
<path fill="none" stroke="black" d="M541.933,-96.4944C545.625,-83.1096 550.357,-65.9547 554.052,-52.5597"/>
<text text-anchor="middle" x="555.716" y="-59.9203" font-family="Times New Roman,serif" font-size="10.00">tasks</text>
<text text-anchor="middle" x="540.269" y="-84.1338" font-family="Times New Roman,serif" font-size="10.00">lane</text>
</g>
</g>
</svg>
