<?xml version="1.0" encoding="UTF-8" standalone="no"?>
<!DOCTYPE svg PUBLIC "-//W3C//DTD SVG 1.1//EN"
 "http://www.w3.org/Graphics/SVG/1.1/DTD/svg11.dtd">
<!-- Generated by graphviz version 2.28.0 (20110507.0327)
 -->
<!-- Title: ObjectDiagram Pages: 1 -->
<svg width="494pt" height="364pt"
 viewBox="0.00 0.00 494.00 364.00" xmlns="http://www.w3.org/2000/svg" xmlns:xlink="http://www.w3.org/1999/xlink">
<g id="graph1" class="graph" transform="scale(1 1) rotate(0) translate(4 360)">
<title>ObjectDiagram</title>
<polygon fill="white" stroke="white" points="-4,5 -4,-360 491,-360 491,5 -4,5"/>
<!-- serverNode -->
<g id="node1" class="node"><title>serverNode</title>
<image xlink:href="icons/node.png" width="84px" height="61px" preserveAspectRatio="xMinYMin meet" x="10" y="-349"/>
<a xlink:href="../../SDMLib/src/org/sdmlib/replication/Node.java" xlink:title="&lt;TABLE&gt;">
<polygon fill="none" stroke="black" points="8,-270 8,-286 96,-286 96,-270 8,-270"/>
<text text-anchor="start" x="11.5" y="-276" font-family="Arial" font-size="10.00"> </text>
<text text-anchor="start" x="15.5" y="-276" font-family="Arial" font-size="10.00">serverNode :Node</text>
</a>
</g>
<!-- taskBoardLanesListener -->
<g id="node2" class="node"><title>taskBoardLanesListener</title>
<image xlink:href="icons/worker.png" width="80px" height="61px" preserveAspectRatio="xMinYMin meet" x="264" y="-349"/>
<a xlink:href="../examples/org/sdmlib/examples/replication/maumau/ReplicationMauMauServer.java" xlink:title="&lt;TABLE&gt;">
<polygon fill="none" stroke="black" points="130,-270 130,-286 478,-286 478,-270 130,-270"/>
<text text-anchor="start" x="133.5" y="-276" font-family="Arial" font-size="10.00"> </text>
<text text-anchor="start" x="137.5" y="-276" font-family="Arial" font-size="10.00">taskBoardLanesListener :ReplicationMauMauServer$TaskBoardLanesListener</text>
</a>
</g>
<!-- taskboard -->
<g id="node3" class="node"><title>taskboard</title>
<image xlink:href="icons/shared.png" width="70px" height="23px" preserveAspectRatio="xMinYMin meet" x="269.5" y="-223"/>
<a xlink:href="../../SDMLib/src/org/sdmlib/replication/TaskFlowBoard.java" xlink:title="&lt;TABLE&gt;">
<polygon fill="none" stroke="black" points="241,-182 241,-198 368,-198 368,-182 241,-182"/>
<text text-anchor="start" x="244.5" y="-188" font-family="Arial" font-size="10.00"> </text>
<text text-anchor="start" x="248.5" y="-188" font-family="Arial" font-size="10.00">taskboard :TaskFlowBoard</text>
</a>
</g>
<!-- taskBoardLanesListener&#45;&#45;taskboard -->
<g id="edge2" class="edge"><title>taskBoardLanesListener&#45;&#45;taskboard</title>
<path fill="none" stroke="black" d="M304,-266.383C304,-253.874 304,-240.673 304,-229.731"/>
<text text-anchor="middle" x="308.226" y="-236.294" font-family="Arial" font-size="10.00">taskFlowBoard</text>
</g>
<!-- serverLane -->
<g id="node4" class="node"><title>serverLane</title>
<a xlink:href="../../SDMLib/src/org/sdmlib/replication/Lane.java" xlink:title="&lt;TABLE&gt;">
<polygon fill="none" stroke="black" points="188,-120 188,-137 273,-137 273,-120 188,-120"/>
<text text-anchor="start" x="191.5" y="-126.5" font-family="Arial" font-size="10.00"> </text>
<text text-anchor="start" x="195.5" y="-126.5" font-family="Arial" font-size="10.00">serverLane :Lane</text>
</a>
<polygon fill="none" stroke="black" points="188,-100 188,-120 273,-120 273,-100 188,-100"/>
<text text-anchor="start" x="193" y="-108" font-family="Arial" font-size="10.00">name = &quot;server&quot;</text>
</g>
<!-- taskboard&#45;&#45;serverLane -->
<g id="edge4" class="edge"><title>taskboard&#45;&#45;serverLane</title>
<path fill="none" stroke="black" d="M281.798,-178.097C271.41,-166.446 259.159,-152.705 249.18,-141.513"/>
<text text-anchor="middle" x="258.366" y="-142.965" font-family="Arial" font-size="10.00">lanes</text>
<text text-anchor="middle" x="272.612" y="-171.645" font-family="Arial" font-size="10.00">board</text>
</g>
<!-- l1 -->
<g id="node5" class="node"><title>l1</title>
<a xlink:href="../../SDMLib/src/org/sdmlib/replication/Lane.java" xlink:title="&lt;TABLE&gt;">
<polygon fill="none" stroke="black" points="307,-120 307,-137 450,-137 450,-120 307,-120"/>
<text text-anchor="start" x="359" y="-126.5" font-family="Arial" font-size="10.00"> </text>
<text text-anchor="start" x="363" y="-126.5" font-family="Arial" font-size="10.00">l1 :Lane</text>
</a>
<polygon fill="none" stroke="black" points="307,-100 307,-120 450,-120 450,-100 307,-100"/>
<text text-anchor="start" x="312" y="-108" font-family="Arial" font-size="10.00">name = &quot;play7WorkFlowLane&quot;</text>
</g>
<!-- taskboard&#45;&#45;l1 -->
<g id="edge6" class="edge"><title>taskboard&#45;&#45;l1</title>
<path fill="none" stroke="black" d="M326.202,-178.097C336.59,-166.446 348.841,-152.705 358.82,-141.513"/>
<text text-anchor="middle" x="355.943" y="-148.59" font-family="Arial" font-size="10.00">lanes</text>
<text text-anchor="middle" x="329.079" y="-166.02" font-family="Arial" font-size="10.00">board</text>
</g>
<!-- b2 -->
<g id="node6" class="node"><title>b2</title>
<a xlink:href="../../SDMLib/src/org/sdmlib/replication/BoardTask.java" xlink:title="&lt;TABLE&gt;">
<polygon fill="none" stroke="black" points="302,-38 302,-55 455,-55 455,-38 302,-38"/>
<text text-anchor="start" x="344.5" y="-44.5" font-family="Arial" font-size="10.00"> </text>
<text text-anchor="start" x="348.5" y="-44.5" font-family="Arial" font-size="10.00">b2 :BoardTask</text>
</a>
<polygon fill="none" stroke="black" points="302,-4 302,-38 455,-38 455,-4 302,-4"/>
<text text-anchor="start" x="307" y="-26" font-family="Arial" font-size="10.00">name = &quot;showStartGameButton&quot;</text>
<text text-anchor="start" x="307" y="-12" font-family="Arial" font-size="10.00">status = &quot;&quot;</text>
</g>
<!-- l1&#45;&#45;b2 -->
<g id="edge8" class="edge"><title>l1&#45;&#45;b2</title>
<path fill="none" stroke="black" d="M378,-96.4944C378,-85.4243 378,-71.7752 378,-59.8074"/>
<text text-anchor="middle" x="382.226" y="-66.3705" font-family="Arial" font-size="10.00">tasks</text>
<text text-anchor="middle" x="373.774" y="-84.9313" font-family="Arial" font-size="10.00">lane</text>
</g>
</g>
</svg>
