<?xml version="1.0" encoding="UTF-8" standalone="no"?>
<!DOCTYPE svg PUBLIC "-//W3C//DTD SVG 1.1//EN"
 "http://www.w3.org/Graphics/SVG/1.1/DTD/svg11.dtd">
<!-- Generated by graphviz version 2.28.0 (20110507.0327)
 -->
<!-- Title: ObjectDiagram Pages: 1 -->
<svg width="1170pt" height="364pt"
 viewBox="0.00 0.00 1170.00 364.00" xmlns="http://www.w3.org/2000/svg" xmlns:xlink="http://www.w3.org/1999/xlink">
<g id="graph1" class="graph" transform="scale(1 1) rotate(0) translate(4 360)">
<title>ObjectDiagram</title>
<polygon fill="white" stroke="white" points="-4,5 -4,-360 1167,-360 1167,5 -4,5"/>
<!-- taskBoardLanesListener -->
<g id="node1" class="node"><title>taskBoardLanesListener</title>
<image xlink:href="icons/worker.png" width="80px" height="61px" preserveAspectRatio="xMinYMin meet" x="344" y="-349"/>
<a xlink:href="../examples/org/sdmlib/examples/replication/maumau/ReplicationMauMauServer.java" xlink:title="&lt;TABLE&gt;">
<polygon fill="none" stroke="black" points="222,-270 222,-286 546,-286 546,-270 222,-270"/>
<text text-anchor="start" x="225.5" y="-276" font-family="Times New Roman,serif" font-size="10.00"> </text>
<text text-anchor="start" x="228.5" y="-276" font-family="Times New Roman,serif" font-size="10.00">taskBoardLanesListener :ReplicationMauMauServer$TaskBoardLanesListener</text>
</a>
</g>
<!-- taskboard -->
<g id="node2" class="node"><title>taskboard</title>
<image xlink:href="icons/shared.png" width="70px" height="23px" preserveAspectRatio="xMinYMin meet" x="349" y="-223"/>
<a xlink:href="../../SDMLib/src/org/sdmlib/replication/TaskFlowBoard.java" xlink:title="&lt;TABLE&gt;">
<polygon fill="none" stroke="black" points="325,-182 325,-198 443,-198 443,-182 325,-182"/>
<text text-anchor="start" x="328.5" y="-188" font-family="Times New Roman,serif" font-size="10.00"> </text>
<text text-anchor="start" x="331.5" y="-188" font-family="Times New Roman,serif" font-size="10.00">taskboard :TaskFlowBoard</text>
</a>
</g>
<!-- taskBoardLanesListener&#45;&#45;taskboard -->
<g id="edge2" class="edge"><title>taskBoardLanesListener&#45;&#45;taskboard</title>
<path fill="none" stroke="black" d="M384,-266.383C384,-253.874 384,-240.673 384,-229.731"/>
<text text-anchor="middle" x="388.226" y="-236.294" font-family="Times New Roman,serif" font-size="10.00">taskFlowBoard</text>
</g>
<!-- serverLane -->
<g id="node3" class="node"><title>serverLane</title>
<a xlink:href="../../SDMLib/src/org/sdmlib/replication/Lane.java" xlink:title="&lt;TABLE&gt;">
<polygon fill="none" stroke="black" points="55,-120 55,-137 134,-137 134,-120 55,-120"/>
<text text-anchor="start" x="58.5" y="-126.5" font-family="Times New Roman,serif" font-size="10.00"> </text>
<text text-anchor="start" x="61.5" y="-126.5" font-family="Times New Roman,serif" font-size="10.00">serverLane :Lane</text>
</a>
<polygon fill="none" stroke="black" points="55,-100 55,-120 134,-120 134,-100 55,-100"/>
<text text-anchor="start" x="60" y="-108" font-family="Times New Roman,serif" font-size="10.00">name = &quot;server&quot;</text>
</g>
<!-- taskboard&#45;&#45;serverLane -->
<g id="edge4" class="edge"><title>taskboard&#45;&#45;serverLane</title>
<path fill="none" stroke="black" d="M316.817,-187.74C269.709,-176.493 205.491,-160.061 150,-142 147.219,-141.095 144.376,-140.124 141.519,-139.114"/>
<text text-anchor="middle" x="151.471" y="-135.64" font-family="Times New Roman,serif" font-size="10.00">lanes</text>
<text text-anchor="middle" x="307.016" y="-187.223" font-family="Times New Roman,serif" font-size="10.00">board</text>
</g>
<!-- l21 -->
<g id="node4" class="node"><title>l21</title>
<a xlink:href="../../SDMLib/src/org/sdmlib/replication/Lane.java" xlink:title="&lt;TABLE&gt;">
<polygon fill="none" stroke="black" points="168,-120 168,-137 303,-137 303,-120 168,-120"/>
<text text-anchor="start" x="216" y="-126.5" font-family="Times New Roman,serif" font-size="10.00"> </text>
<text text-anchor="start" x="219" y="-126.5" font-family="Times New Roman,serif" font-size="10.00">l21 :Lane</text>
</a>
<polygon fill="none" stroke="black" points="168,-100 168,-120 303,-120 303,-100 168,-100"/>
<text text-anchor="start" x="173" y="-108" font-family="Times New Roman,serif" font-size="10.00">name = &quot;play7WorkFlowLane&quot;</text>
</g>
<!-- taskboard&#45;&#45;l21 -->
<g id="edge6" class="edge"><title>taskboard&#45;&#45;l21</title>
<path fill="none" stroke="black" d="M339.699,-178.322C318.767,-166.662 294.008,-152.87 273.823,-141.626"/>
<text text-anchor="middle" x="283.797" y="-139.845" font-family="Times New Roman,serif" font-size="10.00">lanes</text>
<text text-anchor="middle" x="329.724" y="-175.104" font-family="Times New Roman,serif" font-size="10.00">board</text>
</g>
<!-- l89 -->
<g id="node7" class="node"><title>l89</title>
<a xlink:href="../../SDMLib/src/org/sdmlib/replication/Lane.java" xlink:title="&lt;TABLE&gt;">
<polygon fill="none" stroke="black" points="340,-120 340,-137 429,-137 429,-120 340,-120"/>
<text text-anchor="start" x="365" y="-126.5" font-family="Times New Roman,serif" font-size="10.00"> </text>
<text text-anchor="start" x="368" y="-126.5" font-family="Times New Roman,serif" font-size="10.00">l89 :Lane</text>
</a>
<polygon fill="none" stroke="black" points="340,-100 340,-120 429,-120 429,-100 340,-100"/>
<text text-anchor="start" x="345" y="-108" font-family="Times New Roman,serif" font-size="10.00">name = &quot;AbuLane&quot;</text>
</g>
<!-- taskboard&#45;&#45;l89 -->
<g id="edge8" class="edge"><title>taskboard&#45;&#45;l89</title>
<path fill="none" stroke="black" d="M384,-178.097C384,-166.446 384,-152.705 384,-141.513"/>
<text text-anchor="middle" x="388.226" y="-148.076" font-family="Times New Roman,serif" font-size="10.00">lanes</text>
<text text-anchor="middle" x="379.774" y="-166.534" font-family="Times New Roman,serif" font-size="10.00">board</text>
</g>
<!-- l274 -->
<g id="node9" class="node"><title>l274</title>
<a xlink:href="../../SDMLib/src/org/sdmlib/replication/Lane.java" xlink:title="&lt;TABLE&gt;">
<polygon fill="none" stroke="black" points="514,-120 514,-137 604,-137 604,-120 514,-120"/>
<text text-anchor="start" x="537.5" y="-126.5" font-family="Times New Roman,serif" font-size="10.00"> </text>
<text text-anchor="start" x="540.5" y="-126.5" font-family="Times New Roman,serif" font-size="10.00">l274 :Lane</text>
</a>
<polygon fill="none" stroke="black" points="514,-100 514,-120 604,-120 604,-100 514,-100"/>
<text text-anchor="start" x="519" y="-108" font-family="Times New Roman,serif" font-size="10.00">name = &quot;KarliLane&quot;</text>
</g>
<!-- taskboard&#45;&#45;l274 -->
<g id="edge10" class="edge"><title>taskboard&#45;&#45;l274</title>
<path fill="none" stroke="black" d="M436.032,-178.322C460.616,-166.662 489.695,-152.87 513.403,-141.626"/>
<text text-anchor="middle" x="507.025" y="-146.828" font-family="Times New Roman,serif" font-size="10.00">lanes</text>
<text text-anchor="middle" x="442.41" y="-168.12" font-family="Times New Roman,serif" font-size="10.00">board</text>
</g>
<!-- l540 -->
<g id="node12" class="node"><title>l540</title>
<a xlink:href="../../SDMLib/src/org/sdmlib/replication/Lane.java" xlink:title="&lt;TABLE&gt;">
<polygon fill="none" stroke="black" points="860,-120 860,-137 958,-137 958,-120 860,-120"/>
<text text-anchor="start" x="887.5" y="-126.5" font-family="Times New Roman,serif" font-size="10.00"> </text>
<text text-anchor="start" x="890.5" y="-126.5" font-family="Times New Roman,serif" font-size="10.00">l540 :Lane</text>
</a>
<polygon fill="none" stroke="black" points="860,-100 860,-120 958,-120 958,-100 860,-100"/>
<text text-anchor="start" x="865" y="-108" font-family="Times New Roman,serif" font-size="10.00">name = &quot;SabineLane&quot;</text>
</g>
<!-- taskboard&#45;&#45;l540 -->
<g id="edge12" class="edge"><title>taskboard&#45;&#45;l540</title>
<path fill="none" stroke="black" d="M451.025,-192.404C555.102,-175.95 753.759,-144.543 851.618,-129.072"/>
<text text-anchor="middle" x="843.326" y="-132.161" font-family="Times New Roman,serif" font-size="10.00">lanes</text>
<text text-anchor="middle" x="459.317" y="-184.314" font-family="Times New Roman,serif" font-size="10.00">board</text>
</g>
<!-- b24 -->
<g id="node5" class="node"><title>b24</title>
<a xlink:href="../../SDMLib/src/org/sdmlib/replication/BoardTask.java" xlink:title="&lt;TABLE&gt;">
<polygon fill="none" stroke="black" points="8,-38 8,-55 149,-55 149,-38 8,-38"/>
<text text-anchor="start" x="45.5" y="-44.5" font-family="Times New Roman,serif" font-size="10.00"> </text>
<text text-anchor="start" x="48.5" y="-44.5" font-family="Times New Roman,serif" font-size="10.00">b24 :BoardTask</text>
</a>
<polygon fill="none" stroke="black" points="8,-4 8,-38 149,-38 149,-4 8,-4"/>
<text text-anchor="start" x="13" y="-26" font-family="Times New Roman,serif" font-size="10.00">name = &quot;showStartGameButton&quot;</text>
<text text-anchor="start" x="13" y="-12" font-family="Times New Roman,serif" font-size="10.00">status = &quot;start&quot;</text>
</g>
<!-- l21&#45;&#45;b24 -->
<g id="edge14" class="edge"><title>l21&#45;&#45;b24</title>
<path fill="none" stroke="black" d="M196.191,-96.4944C176.123,-85.3739 151.359,-71.6511 129.691,-59.6443"/>
<text text-anchor="middle" x="139.667" y="-57.8406" font-family="Times New Roman,serif" font-size="10.00">tasks</text>
<text text-anchor="middle" x="186.215" y="-93.2981" font-family="Times New Roman,serif" font-size="10.00">lane</text>
</g>
<!-- b34 -->
<g id="node6" class="node"><title>b34</title>
<a xlink:href="../../SDMLib/src/org/sdmlib/replication/BoardTask.java" xlink:title="&lt;TABLE&gt;">
<polygon fill="none" stroke="black" points="183,-38 183,-55 280,-55 280,-38 183,-38"/>
<text text-anchor="start" x="198.5" y="-44.5" font-family="Times New Roman,serif" font-size="10.00"> </text>
<text text-anchor="start" x="201.5" y="-44.5" font-family="Times New Roman,serif" font-size="10.00">b34 :BoardTask</text>
</a>
<polygon fill="none" stroke="black" points="183,-4 183,-38 280,-38 280,-4 183,-4"/>
<text text-anchor="start" x="188" y="-26" font-family="Times New Roman,serif" font-size="10.00">name = &quot;startClients&quot;</text>
<text text-anchor="start" x="188" y="-12" font-family="Times New Roman,serif" font-size="10.00">status = &quot;start&quot;</text>
</g>
<!-- l21&#45;&#45;b34 -->
<g id="edge16" class="edge"><title>l21&#45;&#45;b34</title>
<path fill="none" stroke="black" d="M234.011,-96.4944C233.502,-85.4243 232.875,-71.7752 232.324,-59.8074"/>
<text text-anchor="middle" x="236.962" y="-66.1668" font-family="Times New Roman,serif" font-size="10.00">tasks</text>
<text text-anchor="middle" x="229.373" y="-85.135" font-family="Times New Roman,serif" font-size="10.00">lane</text>
</g>
<!-- b92 -->
<g id="node8" class="node"><title>b92</title>
<a xlink:href="../../SDMLib/src/org/sdmlib/replication/BoardTask.java" xlink:title="&lt;TABLE&gt;">
<polygon fill="none" stroke="black" points="314,-38 314,-55 455,-55 455,-38 314,-38"/>
<text text-anchor="start" x="351.5" y="-44.5" font-family="Times New Roman,serif" font-size="10.00"> </text>
<text text-anchor="start" x="354.5" y="-44.5" font-family="Times New Roman,serif" font-size="10.00">b92 :BoardTask</text>
</a>
<polygon fill="none" stroke="black" points="314,-4 314,-38 455,-38 455,-4 314,-4"/>
<text text-anchor="start" x="319" y="-26" font-family="Times New Roman,serif" font-size="10.00">name = &quot;showStartGameButton&quot;</text>
<text text-anchor="start" x="319" y="-12" font-family="Times New Roman,serif" font-size="10.00">status = &quot;start&quot;</text>
</g>
<!-- l89&#45;&#45;b92 -->
<g id="edge18" class="edge"><title>l89&#45;&#45;b92</title>
<path fill="none" stroke="black" d="M384,-96.4944C384,-85.4243 384,-71.7752 384,-59.8074"/>
<text text-anchor="middle" x="388.226" y="-66.3705" font-family="Times New Roman,serif" font-size="10.00">tasks</text>
<text text-anchor="middle" x="379.774" y="-84.9313" font-family="Times New Roman,serif" font-size="10.00">lane</text>
</g>
<!-- b277 -->
<g id="node10" class="node"><title>b277</title>
<a xlink:href="../../SDMLib/src/org/sdmlib/replication/BoardTask.java" xlink:title="&lt;TABLE&gt;">
<polygon fill="none" stroke="black" points="489,-38 489,-55 630,-55 630,-38 489,-38"/>
<text text-anchor="start" x="524.5" y="-44.5" font-family="Times New Roman,serif" font-size="10.00"> </text>
<text text-anchor="start" x="527.5" y="-44.5" font-family="Times New Roman,serif" font-size="10.00">b277 :BoardTask</text>
</a>
<polygon fill="none" stroke="black" points="489,-4 489,-38 630,-38 630,-4 489,-4"/>
<text text-anchor="start" x="494" y="-26" font-family="Times New Roman,serif" font-size="10.00">name = &quot;showStartGameButton&quot;</text>
<text text-anchor="start" x="494" y="-12" font-family="Times New Roman,serif" font-size="10.00">status = &quot;start&quot;</text>
</g>
<!-- l274&#45;&#45;b277 -->
<g id="edge20" class="edge"><title>l274&#45;&#45;b277</title>
<path fill="none" stroke="black" d="M559,-96.4944C559,-85.4243 559,-71.7752 559,-59.8074"/>
<text text-anchor="middle" x="563.226" y="-66.3705" font-family="Times New Roman,serif" font-size="10.00">tasks</text>
<text text-anchor="middle" x="554.774" y="-84.9313" font-family="Times New Roman,serif" font-size="10.00">lane</text>
</g>
<!-- b3975 -->
<g id="node11" class="node"><title>b3975</title>
<a xlink:href="../../SDMLib/src/org/sdmlib/replication/BoardTask.java" xlink:title="&lt;TABLE&gt;">
<polygon fill="none" stroke="black" points="664,-38 664,-55 805,-55 805,-38 664,-38"/>
<text text-anchor="start" x="697" y="-44.5" font-family="Times New Roman,serif" font-size="10.00"> </text>
<text text-anchor="start" x="700" y="-44.5" font-family="Times New Roman,serif" font-size="10.00">b3975 :BoardTask</text>
</a>
<polygon fill="none" stroke="black" points="664,-4 664,-38 805,-38 805,-4 664,-4"/>
<text text-anchor="start" x="669" y="-26" font-family="Times New Roman,serif" font-size="10.00">name = &quot;showStartGameButton&quot;</text>
<text text-anchor="start" x="669" y="-12" font-family="Times New Roman,serif" font-size="10.00">status = &quot;start&quot;</text>
</g>
<!-- l274&#45;&#45;b3975 -->
<g id="edge22" class="edge"><title>l274&#45;&#45;b3975</title>
<path fill="none" stroke="black" d="M602.258,-96.4944C624.627,-85.3739 652.231,-71.6511 676.382,-59.6443"/>
<text text-anchor="middle" x="670.148" y="-64.9632" font-family="Times New Roman,serif" font-size="10.00">tasks</text>
<text text-anchor="middle" x="608.493" y="-86.1755" font-family="Times New Roman,serif" font-size="10.00">lane</text>
</g>
<!-- b543 -->
<g id="node13" class="node"><title>b543</title>
<a xlink:href="../../SDMLib/src/org/sdmlib/replication/BoardTask.java" xlink:title="&lt;TABLE&gt;">
<polygon fill="none" stroke="black" points="839,-38 839,-55 980,-55 980,-38 839,-38"/>
<text text-anchor="start" x="874.5" y="-44.5" font-family="Times New Roman,serif" font-size="10.00"> </text>
<text text-anchor="start" x="877.5" y="-44.5" font-family="Times New Roman,serif" font-size="10.00">b543 :BoardTask</text>
</a>
<polygon fill="none" stroke="black" points="839,-4 839,-38 980,-38 980,-4 839,-4"/>
<text text-anchor="start" x="844" y="-26" font-family="Times New Roman,serif" font-size="10.00">name = &quot;showStartGameButton&quot;</text>
<text text-anchor="start" x="844" y="-12" font-family="Times New Roman,serif" font-size="10.00">status = &quot;start&quot;</text>
</g>
<!-- l540&#45;&#45;b543 -->
<g id="edge24" class="edge"><title>l540&#45;&#45;b543</title>
<path fill="none" stroke="black" d="M909,-96.4944C909,-85.4243 909,-71.7752 909,-59.8074"/>
<text text-anchor="middle" x="913.226" y="-66.3705" font-family="Times New Roman,serif" font-size="10.00">tasks</text>
<text text-anchor="middle" x="904.774" y="-84.9313" font-family="Times New Roman,serif" font-size="10.00">lane</text>
</g>
<!-- b3986 -->
<g id="node14" class="node"><title>b3986</title>
<a xlink:href="../../SDMLib/src/org/sdmlib/replication/BoardTask.java" xlink:title="&lt;TABLE&gt;">
<polygon fill="none" stroke="black" points="1014,-31 1014,-48 1155,-48 1155,-31 1014,-31"/>
<text text-anchor="start" x="1047" y="-37.5" font-family="Times New Roman,serif" font-size="10.00"> </text>
<text text-anchor="start" x="1050" y="-37.5" font-family="Times New Roman,serif" font-size="10.00">b3986 :BoardTask</text>
</a>
<polygon fill="none" stroke="black" points="1014,-11 1014,-31 1155,-31 1155,-11 1014,-11"/>
<text text-anchor="start" x="1019" y="-19" font-family="Times New Roman,serif" font-size="10.00">name = &quot;showStartGameButton&quot;</text>
</g>
<!-- l540&#45;&#45;b3986 -->
<g id="edge26" class="edge"><title>l540&#45;&#45;b3986</title>
<path fill="none" stroke="black" d="M952.258,-96.4944C979.182,-83.1096 1013.69,-65.9547 1040.63,-52.5597"/>
<text text-anchor="middle" x="1034.4" y="-57.8786" font-family="Times New Roman,serif" font-size="10.00">tasks</text>
<text text-anchor="middle" x="958.493" y="-86.1755" font-family="Times New Roman,serif" font-size="10.00">lane</text>
</g>
</g>
</svg>
