<?xml version="1.0" encoding="UTF-8" standalone="no"?>
<!DOCTYPE svg PUBLIC "-//W3C//DTD SVG 1.1//EN"
 "http://www.w3.org/Graphics/SVG/1.1/DTD/svg11.dtd">
<!-- Generated by graphviz version 2.28.0 (20110507.0327)
 -->
<!-- Title: ObjectDiagram Pages: 1 -->
<svg width="470pt" height="364pt"
 viewBox="0.00 0.00 470.00 364.00" xmlns="http://www.w3.org/2000/svg" xmlns:xlink="http://www.w3.org/1999/xlink">
<g id="graph1" class="graph" transform="scale(1 1) rotate(0) translate(4 360)">
<title>ObjectDiagram</title>
<polygon fill="white" stroke="white" points="-4,5 -4,-360 467,-360 467,5 -4,5"/>
<!-- taskBoardLanesListener -->
<g id="node1" class="node"><title>taskBoardLanesListener</title>
<image xlink:href="icons/worker.png" width="80px" height="61px" preserveAspectRatio="xMinYMin meet" x="191" y="-349"/>
<a xlink:href="../examples/org/sdmlib/examples/replication/maumau/ReplicationMauMauServer.java" xlink:title="&lt;TABLE&gt;">
<polygon fill="none" stroke="black" points="69,-270 69,-286 393,-286 393,-270 69,-270"/>
<text text-anchor="start" x="72.5" y="-276" font-family="Times New Roman,serif" font-size="10.00"> </text>
<text text-anchor="start" x="75.5" y="-276" font-family="Times New Roman,serif" font-size="10.00">taskBoardLanesListener :ReplicationMauMauServer$TaskBoardLanesListener</text>
</a>
</g>
<!-- taskboard -->
<g id="node2" class="node"><title>taskboard</title>
<image xlink:href="icons/shared.png" width="70px" height="23px" preserveAspectRatio="xMinYMin meet" x="196" y="-223"/>
<a xlink:href="../../SDMLib/src/org/sdmlib/replication/TaskFlowBoard.java" xlink:title="&lt;TABLE&gt;">
<polygon fill="none" stroke="black" points="172,-182 172,-198 290,-198 290,-182 172,-182"/>
<text text-anchor="start" x="175.5" y="-188" font-family="Times New Roman,serif" font-size="10.00"> </text>
<text text-anchor="start" x="178.5" y="-188" font-family="Times New Roman,serif" font-size="10.00">taskboard :TaskFlowBoard</text>
</a>
</g>
<!-- taskBoardLanesListener&#45;&#45;taskboard -->
<g id="edge2" class="edge"><title>taskBoardLanesListener&#45;&#45;taskboard</title>
<path fill="none" stroke="black" d="M231,-266.383C231,-253.874 231,-240.673 231,-229.731"/>
<text text-anchor="middle" x="235.226" y="-236.294" font-family="Times New Roman,serif" font-size="10.00">taskFlowBoard</text>
</g>
<!-- serverLane -->
<g id="node3" class="node"><title>serverLane</title>
<a xlink:href="../../SDMLib/src/org/sdmlib/replication/Lane.java" xlink:title="&lt;TABLE&gt;">
<polygon fill="none" stroke="black" points="51,-120 51,-137 130,-137 130,-120 51,-120"/>
<text text-anchor="start" x="54.5" y="-126.5" font-family="Times New Roman,serif" font-size="10.00"> </text>
<text text-anchor="start" x="57.5" y="-126.5" font-family="Times New Roman,serif" font-size="10.00">serverLane :Lane</text>
</a>
<polygon fill="none" stroke="black" points="51,-100 51,-120 130,-120 130,-100 51,-100"/>
<text text-anchor="start" x="56" y="-108" font-family="Times New Roman,serif" font-size="10.00">name = &quot;server&quot;</text>
</g>
<!-- taskboard&#45;&#45;serverLane -->
<g id="edge4" class="edge"><title>taskboard&#45;&#45;serverLane</title>
<path fill="none" stroke="black" d="M189.077,-178.322C169.27,-166.662 145.84,-152.87 126.738,-141.626"/>
<text text-anchor="middle" x="136.693" y="-140.082" font-family="Times New Roman,serif" font-size="10.00">lanes</text>
<text text-anchor="middle" x="179.123" y="-174.866" font-family="Times New Roman,serif" font-size="10.00">board</text>
</g>
<!-- l1 -->
<g id="node4" class="node"><title>l1</title>
<a xlink:href="../../SDMLib/src/org/sdmlib/replication/Lane.java" xlink:title="&lt;TABLE&gt;">
<polygon fill="none" stroke="black" points="164,-120 164,-137 299,-137 299,-120 164,-120"/>
<text text-anchor="start" x="214.5" y="-126.5" font-family="Times New Roman,serif" font-size="10.00"> </text>
<text text-anchor="start" x="217.5" y="-126.5" font-family="Times New Roman,serif" font-size="10.00">l1 :Lane</text>
</a>
<polygon fill="none" stroke="black" points="164,-100 164,-120 299,-120 299,-100 164,-100"/>
<text text-anchor="start" x="169" y="-108" font-family="Times New Roman,serif" font-size="10.00">name = &quot;play7WorkFlowLane&quot;</text>
</g>
<!-- taskboard&#45;&#45;l1 -->
<g id="edge6" class="edge"><title>taskboard&#45;&#45;l1</title>
<path fill="none" stroke="black" d="M231,-178.097C231,-166.446 231,-152.705 231,-141.513"/>
<text text-anchor="middle" x="235.226" y="-148.076" font-family="Times New Roman,serif" font-size="10.00">lanes</text>
<text text-anchor="middle" x="226.774" y="-166.534" font-family="Times New Roman,serif" font-size="10.00">board</text>
</g>
<!-- l5 -->
<g id="node7" class="node"><title>l5</title>
<a xlink:href="../../SDMLib/src/org/sdmlib/replication/Lane.java" xlink:title="&lt;TABLE&gt;">
<polygon fill="none" stroke="black" points="336,-120 336,-137 425,-137 425,-120 336,-120"/>
<text text-anchor="start" x="363.5" y="-126.5" font-family="Times New Roman,serif" font-size="10.00"> </text>
<text text-anchor="start" x="366.5" y="-126.5" font-family="Times New Roman,serif" font-size="10.00">l5 :Lane</text>
</a>
<polygon fill="none" stroke="black" points="336,-100 336,-120 425,-120 425,-100 336,-100"/>
<text text-anchor="start" x="341" y="-108" font-family="Times New Roman,serif" font-size="10.00">name = &quot;AbuLane&quot;</text>
</g>
<!-- taskboard&#45;&#45;l5 -->
<g id="edge8" class="edge"><title>taskboard&#45;&#45;l5</title>
<path fill="none" stroke="black" d="M275.301,-178.322C296.233,-166.662 320.992,-152.87 341.177,-141.626"/>
<text text-anchor="middle" x="335.316" y="-147.229" font-family="Times New Roman,serif" font-size="10.00">lanes</text>
<text text-anchor="middle" x="281.162" y="-167.72" font-family="Times New Roman,serif" font-size="10.00">board</text>
</g>
<!-- b2 -->
<g id="node5" class="node"><title>b2</title>
<a xlink:href="../../SDMLib/src/org/sdmlib/replication/BoardTask.java" xlink:title="&lt;TABLE&gt;">
<polygon fill="none" stroke="black" points="8,-38 8,-55 149,-55 149,-38 8,-38"/>
<text text-anchor="start" x="48" y="-44.5" font-family="Times New Roman,serif" font-size="10.00"> </text>
<text text-anchor="start" x="51" y="-44.5" font-family="Times New Roman,serif" font-size="10.00">b2 :BoardTask</text>
</a>
<polygon fill="none" stroke="black" points="8,-4 8,-38 149,-38 149,-4 8,-4"/>
<text text-anchor="start" x="13" y="-26" font-family="Times New Roman,serif" font-size="10.00">name = &quot;showStartGameButton&quot;</text>
<text text-anchor="start" x="13" y="-12" font-family="Times New Roman,serif" font-size="10.00">status = &quot;start&quot;</text>
</g>
<!-- l1&#45;&#45;b2 -->
<g id="edge10" class="edge"><title>l1&#45;&#45;b2</title>
<path fill="none" stroke="black" d="M193.18,-96.4944C173.623,-85.3739 149.49,-71.6511 128.374,-59.6443"/>
<text text-anchor="middle" x="138.342" y="-57.9504" font-family="Times New Roman,serif" font-size="10.00">tasks</text>
<text text-anchor="middle" x="183.212" y="-93.1883" font-family="Times New Roman,serif" font-size="10.00">lane</text>
</g>
<!-- b3 -->
<g id="node6" class="node"><title>b3</title>
<a xlink:href="../../SDMLib/src/org/sdmlib/replication/BoardTask.java" xlink:title="&lt;TABLE&gt;">
<polygon fill="none" stroke="black" points="183,-38 183,-55 280,-55 280,-38 183,-38"/>
<text text-anchor="start" x="201" y="-44.5" font-family="Times New Roman,serif" font-size="10.00"> </text>
<text text-anchor="start" x="204" y="-44.5" font-family="Times New Roman,serif" font-size="10.00">b3 :BoardTask</text>
</a>
<polygon fill="none" stroke="black" points="183,-4 183,-38 280,-38 280,-4 183,-4"/>
<text text-anchor="start" x="188" y="-26" font-family="Times New Roman,serif" font-size="10.00">name = &quot;startClients&quot;</text>
<text text-anchor="start" x="188" y="-12" font-family="Times New Roman,serif" font-size="10.00">status = &quot;start&quot;</text>
</g>
<!-- l1&#45;&#45;b3 -->
<g id="edge12" class="edge"><title>l1&#45;&#45;b3</title>
<path fill="none" stroke="black" d="M231,-96.4944C231,-85.4243 231,-71.7752 231,-59.8074"/>
<text text-anchor="middle" x="235.226" y="-66.3705" font-family="Times New Roman,serif" font-size="10.00">tasks</text>
<text text-anchor="middle" x="226.774" y="-84.9313" font-family="Times New Roman,serif" font-size="10.00">lane</text>
</g>
<!-- b6 -->
<g id="node8" class="node"><title>b6</title>
<a xlink:href="../../SDMLib/src/org/sdmlib/replication/BoardTask.java" xlink:title="&lt;TABLE&gt;">
<polygon fill="none" stroke="black" points="314,-31 314,-48 455,-48 455,-31 314,-31"/>
<text text-anchor="start" x="354" y="-37.5" font-family="Times New Roman,serif" font-size="10.00"> </text>
<text text-anchor="start" x="357" y="-37.5" font-family="Times New Roman,serif" font-size="10.00">b6 :BoardTask</text>
</a>
<polygon fill="none" stroke="black" points="314,-11 314,-31 455,-31 455,-11 314,-11"/>
<text text-anchor="start" x="319" y="-19" font-family="Times New Roman,serif" font-size="10.00">name = &quot;showStartGameButton&quot;</text>
</g>
<!-- l5&#45;&#45;b6 -->
<g id="edge14" class="edge"><title>l5&#45;&#45;b6</title>
<path fill="none" stroke="black" d="M380.989,-96.4944C381.604,-83.1096 382.393,-65.9547 383.009,-52.5597"/>
<text text-anchor="middle" x="386.814" y="-59.3074" font-family="Times New Roman,serif" font-size="10.00">tasks</text>
<text text-anchor="middle" x="377.183" y="-84.7468" font-family="Times New Roman,serif" font-size="10.00">lane</text>
</g>
</g>
</svg>
