<?xml version="1.0" encoding="UTF-8" standalone="no"?>
<!DOCTYPE svg PUBLIC "-//W3C//DTD SVG 1.1//EN"
 "http://www.w3.org/Graphics/SVG/1.1/DTD/svg11.dtd">
<!-- Generated by graphviz version 2.28.0 (20110507.0327)
 -->
<!-- Title: ObjectDiagram Pages: 1 -->
<svg width="820pt" height="364pt"
 viewBox="0.00 0.00 820.00 364.00" xmlns="http://www.w3.org/2000/svg" xmlns:xlink="http://www.w3.org/1999/xlink">
<g id="graph1" class="graph" transform="scale(1 1) rotate(0) translate(4 360)">
<title>ObjectDiagram</title>
<polygon fill="white" stroke="white" points="-4,5 -4,-360 817,-360 817,5 -4,5"/>
<!-- taskBoardLanesListener -->
<g id="node1" class="node"><title>taskBoardLanesListener</title>
<image xlink:href="icons/worker.png" width="80px" height="61px" preserveAspectRatio="xMinYMin meet" x="267" y="-349"/>
<a xlink:href="../examples/org/sdmlib/examples/replication/maumau/ReplicationMauMauServer.java" xlink:title="&lt;TABLE&gt;">
<polygon fill="none" stroke="black" points="145,-270 145,-286 469,-286 469,-270 145,-270"/>
<text text-anchor="start" x="148.5" y="-276" font-family="Times New Roman,serif" font-size="10.00"> </text>
<text text-anchor="start" x="151.5" y="-276" font-family="Times New Roman,serif" font-size="10.00">taskBoardLanesListener :ReplicationMauMauServer$TaskBoardLanesListener</text>
</a>
</g>
<!-- taskboard -->
<g id="node2" class="node"><title>taskboard</title>
<image xlink:href="icons/shared.png" width="70px" height="23px" preserveAspectRatio="xMinYMin meet" x="272" y="-223"/>
<a xlink:href="../../SDMLib/src/org/sdmlib/replication/TaskFlowBoard.java" xlink:title="&lt;TABLE&gt;">
<polygon fill="none" stroke="black" points="248,-182 248,-198 366,-198 366,-182 248,-182"/>
<text text-anchor="start" x="251.5" y="-188" font-family="Times New Roman,serif" font-size="10.00"> </text>
<text text-anchor="start" x="254.5" y="-188" font-family="Times New Roman,serif" font-size="10.00">taskboard :TaskFlowBoard</text>
</a>
</g>
<!-- taskBoardLanesListener&#45;&#45;taskboard -->
<g id="edge2" class="edge"><title>taskBoardLanesListener&#45;&#45;taskboard</title>
<path fill="none" stroke="black" d="M307,-266.383C307,-253.874 307,-240.673 307,-229.731"/>
<text text-anchor="middle" x="311.226" y="-236.294" font-family="Times New Roman,serif" font-size="10.00">taskFlowBoard</text>
</g>
<!-- serverLane -->
<g id="node3" class="node"><title>serverLane</title>
<a xlink:href="../../SDMLib/src/org/sdmlib/replication/Lane.java" xlink:title="&lt;TABLE&gt;">
<polygon fill="none" stroke="black" points="53,-120 53,-137 132,-137 132,-120 53,-120"/>
<text text-anchor="start" x="56.5" y="-126.5" font-family="Times New Roman,serif" font-size="10.00"> </text>
<text text-anchor="start" x="59.5" y="-126.5" font-family="Times New Roman,serif" font-size="10.00">serverLane :Lane</text>
</a>
<polygon fill="none" stroke="black" points="53,-100 53,-120 132,-120 132,-100 53,-100"/>
<text text-anchor="start" x="58" y="-108" font-family="Times New Roman,serif" font-size="10.00">name = &quot;server&quot;</text>
</g>
<!-- taskboard&#45;&#45;serverLane -->
<g id="edge4" class="edge"><title>taskboard&#45;&#45;serverLane</title>
<path fill="none" stroke="black" d="M242.743,-178.482C213.774,-167.394 179.145,-154.092 148,-142 145.176,-140.904 142.273,-139.773 139.346,-138.631"/>
<text text-anchor="middle" x="149.325" y="-135.488" font-family="Times New Roman,serif" font-size="10.00">lanes</text>
<text text-anchor="middle" x="232.768" y="-176.688" font-family="Times New Roman,serif" font-size="10.00">board</text>
</g>
<!-- l21 -->
<g id="node4" class="node"><title>l21</title>
<a xlink:href="../../SDMLib/src/org/sdmlib/replication/Lane.java" xlink:title="&lt;TABLE&gt;">
<polygon fill="none" stroke="black" points="166,-120 166,-137 301,-137 301,-120 166,-120"/>
<text text-anchor="start" x="214" y="-126.5" font-family="Times New Roman,serif" font-size="10.00"> </text>
<text text-anchor="start" x="217" y="-126.5" font-family="Times New Roman,serif" font-size="10.00">l21 :Lane</text>
</a>
<polygon fill="none" stroke="black" points="166,-100 166,-120 301,-120 301,-100 166,-100"/>
<text text-anchor="start" x="171" y="-108" font-family="Times New Roman,serif" font-size="10.00">name = &quot;play7WorkFlowLane&quot;</text>
</g>
<!-- taskboard&#45;&#45;l21 -->
<g id="edge6" class="edge"><title>taskboard&#45;&#45;l21</title>
<path fill="none" stroke="black" d="M284.798,-178.097C274.41,-166.446 262.159,-152.705 252.18,-141.513"/>
<text text-anchor="middle" x="261.366" y="-142.965" font-family="Times New Roman,serif" font-size="10.00">lanes</text>
<text text-anchor="middle" x="275.612" y="-171.645" font-family="Times New Roman,serif" font-size="10.00">board</text>
</g>
<!-- l89 -->
<g id="node7" class="node"><title>l89</title>
<a xlink:href="../../SDMLib/src/org/sdmlib/replication/Lane.java" xlink:title="&lt;TABLE&gt;">
<polygon fill="none" stroke="black" points="338,-120 338,-137 427,-137 427,-120 338,-120"/>
<text text-anchor="start" x="363" y="-126.5" font-family="Times New Roman,serif" font-size="10.00"> </text>
<text text-anchor="start" x="366" y="-126.5" font-family="Times New Roman,serif" font-size="10.00">l89 :Lane</text>
</a>
<polygon fill="none" stroke="black" points="338,-100 338,-120 427,-120 427,-100 338,-100"/>
<text text-anchor="start" x="343" y="-108" font-family="Times New Roman,serif" font-size="10.00">name = &quot;AbuLane&quot;</text>
</g>
<!-- taskboard&#45;&#45;l89 -->
<g id="edge8" class="edge"><title>taskboard&#45;&#45;l89</title>
<path fill="none" stroke="black" d="M329.502,-178.097C340.031,-166.446 352.447,-152.705 362.561,-141.513"/>
<text text-anchor="middle" x="359.62" y="-148.571" font-family="Times New Roman,serif" font-size="10.00">lanes</text>
<text text-anchor="middle" x="332.443" y="-166.039" font-family="Times New Roman,serif" font-size="10.00">board</text>
</g>
<!-- l274 -->
<g id="node9" class="node"><title>l274</title>
<a xlink:href="../../SDMLib/src/org/sdmlib/replication/Lane.java" xlink:title="&lt;TABLE&gt;">
<polygon fill="none" stroke="black" points="514,-120 514,-137 604,-137 604,-120 514,-120"/>
<text text-anchor="start" x="537.5" y="-126.5" font-family="Times New Roman,serif" font-size="10.00"> </text>
<text text-anchor="start" x="540.5" y="-126.5" font-family="Times New Roman,serif" font-size="10.00">l274 :Lane</text>
</a>
<polygon fill="none" stroke="black" points="514,-100 514,-120 604,-120 604,-100 514,-100"/>
<text text-anchor="start" x="519" y="-108" font-family="Times New Roman,serif" font-size="10.00">name = &quot;KarliLane&quot;</text>
</g>
<!-- taskboard&#45;&#45;l274 -->
<g id="edge10" class="edge"><title>taskboard&#45;&#45;l274</title>
<path fill="none" stroke="black" d="M374.2,-180.867C415.463,-167.276 467.57,-150.114 505.927,-137.48"/>
<text text-anchor="middle" x="498.641" y="-141.83" font-family="Times New Roman,serif" font-size="10.00">lanes</text>
<text text-anchor="middle" x="381.486" y="-171.517" font-family="Times New Roman,serif" font-size="10.00">board</text>
</g>
<!-- b24 -->
<g id="node5" class="node"><title>b24</title>
<a xlink:href="../../SDMLib/src/org/sdmlib/replication/BoardTask.java" xlink:title="&lt;TABLE&gt;">
<polygon fill="none" stroke="black" points="8,-38 8,-55 149,-55 149,-38 8,-38"/>
<text text-anchor="start" x="45.5" y="-44.5" font-family="Times New Roman,serif" font-size="10.00"> </text>
<text text-anchor="start" x="48.5" y="-44.5" font-family="Times New Roman,serif" font-size="10.00">b24 :BoardTask</text>
</a>
<polygon fill="none" stroke="black" points="8,-4 8,-38 149,-38 149,-4 8,-4"/>
<text text-anchor="start" x="13" y="-26" font-family="Times New Roman,serif" font-size="10.00">name = &quot;showStartGameButton&quot;</text>
<text text-anchor="start" x="13" y="-12" font-family="Times New Roman,serif" font-size="10.00">status = &quot;start&quot;</text>
</g>
<!-- l21&#45;&#45;b24 -->
<g id="edge12" class="edge"><title>l21&#45;&#45;b24</title>
<path fill="none" stroke="black" d="M194.685,-96.4944C174.873,-85.3739 150.424,-71.6511 129.033,-59.6443"/>
<text text-anchor="middle" x="139.005" y="-57.895" font-family="Times New Roman,serif" font-size="10.00">tasks</text>
<text text-anchor="middle" x="184.714" y="-93.2437" font-family="Times New Roman,serif" font-size="10.00">lane</text>
</g>
<!-- b34 -->
<g id="node6" class="node"><title>b34</title>
<a xlink:href="../../SDMLib/src/org/sdmlib/replication/BoardTask.java" xlink:title="&lt;TABLE&gt;">
<polygon fill="none" stroke="black" points="183,-38 183,-55 280,-55 280,-38 183,-38"/>
<text text-anchor="start" x="198.5" y="-44.5" font-family="Times New Roman,serif" font-size="10.00"> </text>
<text text-anchor="start" x="201.5" y="-44.5" font-family="Times New Roman,serif" font-size="10.00">b34 :BoardTask</text>
</a>
<polygon fill="none" stroke="black" points="183,-4 183,-38 280,-38 280,-4 183,-4"/>
<text text-anchor="start" x="188" y="-26" font-family="Times New Roman,serif" font-size="10.00">name = &quot;startClients&quot;</text>
<text text-anchor="start" x="188" y="-12" font-family="Times New Roman,serif" font-size="10.00">status = &quot;start&quot;</text>
</g>
<!-- l21&#45;&#45;b34 -->
<g id="edge14" class="edge"><title>l21&#45;&#45;b34</title>
<path fill="none" stroke="black" d="M232.506,-96.4944C232.251,-85.4243 231.937,-71.7752 231.662,-59.8074"/>
<text text-anchor="middle" x="236.096" y="-66.2709" font-family="Times New Roman,serif" font-size="10.00">tasks</text>
<text text-anchor="middle" x="228.072" y="-85.0308" font-family="Times New Roman,serif" font-size="10.00">lane</text>
</g>
<!-- b92 -->
<g id="node8" class="node"><title>b92</title>
<a xlink:href="../../SDMLib/src/org/sdmlib/replication/BoardTask.java" xlink:title="&lt;TABLE&gt;">
<polygon fill="none" stroke="black" points="314,-38 314,-55 455,-55 455,-38 314,-38"/>
<text text-anchor="start" x="351.5" y="-44.5" font-family="Times New Roman,serif" font-size="10.00"> </text>
<text text-anchor="start" x="354.5" y="-44.5" font-family="Times New Roman,serif" font-size="10.00">b92 :BoardTask</text>
</a>
<polygon fill="none" stroke="black" points="314,-4 314,-38 455,-38 455,-4 314,-4"/>
<text text-anchor="start" x="319" y="-26" font-family="Times New Roman,serif" font-size="10.00">name = &quot;showStartGameButton&quot;</text>
<text text-anchor="start" x="319" y="-12" font-family="Times New Roman,serif" font-size="10.00">status = &quot;start&quot;</text>
</g>
<!-- l89&#45;&#45;b92 -->
<g id="edge16" class="edge"><title>l89&#45;&#45;b92</title>
<path fill="none" stroke="black" d="M382.494,-96.4944C382.749,-85.4243 383.063,-71.7752 383.338,-59.8074"/>
<text text-anchor="middle" x="387.355" y="-66.4652" font-family="Times New Roman,serif" font-size="10.00">tasks</text>
<text text-anchor="middle" x="378.478" y="-84.8366" font-family="Times New Roman,serif" font-size="10.00">lane</text>
</g>
<!-- b277 -->
<g id="node10" class="node"><title>b277</title>
<a xlink:href="../../SDMLib/src/org/sdmlib/replication/BoardTask.java" xlink:title="&lt;TABLE&gt;">
<polygon fill="none" stroke="black" points="489,-38 489,-55 630,-55 630,-38 489,-38"/>
<text text-anchor="start" x="524.5" y="-44.5" font-family="Times New Roman,serif" font-size="10.00"> </text>
<text text-anchor="start" x="527.5" y="-44.5" font-family="Times New Roman,serif" font-size="10.00">b277 :BoardTask</text>
</a>
<polygon fill="none" stroke="black" points="489,-4 489,-38 630,-38 630,-4 489,-4"/>
<text text-anchor="start" x="494" y="-26" font-family="Times New Roman,serif" font-size="10.00">name = &quot;showStartGameButton&quot;</text>
<text text-anchor="start" x="494" y="-12" font-family="Times New Roman,serif" font-size="10.00">status = &quot;start&quot;</text>
</g>
<!-- l274&#45;&#45;b277 -->
<g id="edge18" class="edge"><title>l274&#45;&#45;b277</title>
<path fill="none" stroke="black" d="M559,-96.4944C559,-85.4243 559,-71.7752 559,-59.8074"/>
<text text-anchor="middle" x="563.226" y="-66.3705" font-family="Times New Roman,serif" font-size="10.00">tasks</text>
<text text-anchor="middle" x="554.774" y="-84.9313" font-family="Times New Roman,serif" font-size="10.00">lane</text>
</g>
<!-- b3975 -->
<g id="node11" class="node"><title>b3975</title>
<a xlink:href="../../SDMLib/src/org/sdmlib/replication/BoardTask.java" xlink:title="&lt;TABLE&gt;">
<polygon fill="none" stroke="black" points="664,-31 664,-48 805,-48 805,-31 664,-31"/>
<text text-anchor="start" x="697" y="-37.5" font-family="Times New Roman,serif" font-size="10.00"> </text>
<text text-anchor="start" x="700" y="-37.5" font-family="Times New Roman,serif" font-size="10.00">b3975 :BoardTask</text>
</a>
<polygon fill="none" stroke="black" points="664,-11 664,-31 805,-31 805,-11 664,-11"/>
<text text-anchor="start" x="669" y="-19" font-family="Times New Roman,serif" font-size="10.00">name = &quot;showStartGameButton&quot;</text>
</g>
<!-- l274&#45;&#45;b3975 -->
<g id="edge20" class="edge"><title>l274&#45;&#45;b3975</title>
<path fill="none" stroke="black" d="M602.258,-96.4944C629.182,-83.1096 663.689,-65.9547 690.633,-52.5597"/>
<text text-anchor="middle" x="684.399" y="-57.8786" font-family="Times New Roman,serif" font-size="10.00">tasks</text>
<text text-anchor="middle" x="608.493" y="-86.1755" font-family="Times New Roman,serif" font-size="10.00">lane</text>
</g>
</g>
</svg>
