<?xml version="1.0" encoding="UTF-8" standalone="no"?>
<!DOCTYPE svg PUBLIC "-//W3C//DTD SVG 1.1//EN"
 "http://www.w3.org/Graphics/SVG/1.1/DTD/svg11.dtd">
<!-- Generated by graphviz version 2.28.0 (20110507.0327)
 -->
<!-- Title: ObjectDiagram Pages: 1 -->
<svg width="482pt" height="350pt"
 viewBox="0.00 0.00 482.00 350.00" xmlns="http://www.w3.org/2000/svg" xmlns:xlink="http://www.w3.org/1999/xlink">
<g id="graph1" class="graph" transform="scale(1 1) rotate(0) translate(4 346)">
<title>ObjectDiagram</title>
<polygon fill="white" stroke="white" points="-4,5 -4,-346 479,-346 479,5 -4,5"/>
<!-- taskBoardLanesListener -->
<g id="node1" class="node"><title>taskBoardLanesListener</title>
<image xlink:href="icons/worker.png" width="80px" height="61px" preserveAspectRatio="xMinYMin meet" x="187" y="-335"/>
<a xlink:href="../examples/org/sdmlib/examples/replication/maumau/ReplicationMauMauServer.java" xlink:title="&lt;TABLE&gt;">
<polygon fill="none" stroke="black" points="65,-256 65,-272 389,-272 389,-256 65,-256"/>
<text text-anchor="start" x="68.5" y="-262" font-family="Times New Roman,serif" font-size="10.00"> </text>
<text text-anchor="start" x="71.5" y="-262" font-family="Times New Roman,serif" font-size="10.00">taskBoardLanesListener :ReplicationMauMauServer$TaskBoardLanesListener</text>
</a>
</g>
<!-- taskboard -->
<g id="node2" class="node"><title>taskboard</title>
<image xlink:href="icons/shared.png" width="70px" height="23px" preserveAspectRatio="xMinYMin meet" x="192" y="-209"/>
<a xlink:href="../../SDMLib/src/org/sdmlib/replication/TaskFlowBoard.java" xlink:title="&lt;TABLE&gt;">
<polygon fill="none" stroke="black" points="168,-168 168,-184 286,-184 286,-168 168,-168"/>
<text text-anchor="start" x="171.5" y="-174" font-family="Times New Roman,serif" font-size="10.00"> </text>
<text text-anchor="start" x="174.5" y="-174" font-family="Times New Roman,serif" font-size="10.00">taskboard :TaskFlowBoard</text>
</a>
</g>
<!-- taskBoardLanesListener&#45;&#45;taskboard -->
<g id="edge2" class="edge"><title>taskBoardLanesListener&#45;&#45;taskboard</title>
<path fill="none" stroke="black" d="M227,-252.383C227,-239.874 227,-226.673 227,-215.731"/>
<text text-anchor="middle" x="231.226" y="-222.294" font-family="Times New Roman,serif" font-size="10.00">taskFlowBoard</text>
</g>
<!-- serverLane -->
<g id="node3" class="node"><title>serverLane</title>
<a xlink:href="../../SDMLib/src/org/sdmlib/replication/Lane.java" xlink:title="&lt;TABLE&gt;">
<polygon fill="none" stroke="black" points="8,-106 8,-123 87,-123 87,-106 8,-106"/>
<text text-anchor="start" x="11.5" y="-112.5" font-family="Times New Roman,serif" font-size="10.00"> </text>
<text text-anchor="start" x="14.5" y="-112.5" font-family="Times New Roman,serif" font-size="10.00">serverLane :Lane</text>
</a>
<polygon fill="none" stroke="black" points="8,-86 8,-106 87,-106 87,-86 8,-86"/>
<text text-anchor="start" x="13" y="-94" font-family="Times New Roman,serif" font-size="10.00">name = &quot;server&quot;</text>
</g>
<!-- taskboard&#45;&#45;serverLane -->
<g id="edge4" class="edge"><title>taskboard&#45;&#45;serverLane</title>
<path fill="none" stroke="black" d="M173.481,-164.322C148.195,-152.662 118.285,-138.87 93.9,-127.626"/>
<text text-anchor="middle" x="103.9" y="-125.083" font-family="Times New Roman,serif" font-size="10.00">lanes</text>
<text text-anchor="middle" x="163.482" y="-161.865" font-family="Times New Roman,serif" font-size="10.00">board</text>
</g>
<!-- l2 -->
<g id="node4" class="node"><title>l2</title>
<a xlink:href="../../SDMLib/src/org/sdmlib/replication/Lane.java" xlink:title="&lt;TABLE&gt;">
<polygon fill="none" stroke="black" points="121,-106 121,-123 210,-123 210,-106 121,-106"/>
<text text-anchor="start" x="148.5" y="-112.5" font-family="Times New Roman,serif" font-size="10.00"> </text>
<text text-anchor="start" x="151.5" y="-112.5" font-family="Times New Roman,serif" font-size="10.00">l2 :Lane</text>
</a>
<polygon fill="none" stroke="black" points="121,-86 121,-106 210,-106 210,-86 121,-86"/>
<text text-anchor="start" x="126" y="-94" font-family="Times New Roman,serif" font-size="10.00">name = &quot;AbuLane&quot;</text>
</g>
<!-- taskboard&#45;&#45;l2 -->
<g id="edge6" class="edge"><title>taskboard&#45;&#45;l2</title>
<path fill="none" stroke="black" d="M208.398,-164.097C199.695,-152.446 189.431,-138.705 181.07,-127.513"/>
<text text-anchor="middle" x="189.88" y="-129.745" font-family="Times New Roman,serif" font-size="10.00">lanes</text>
<text text-anchor="middle" x="199.588" y="-156.865" font-family="Times New Roman,serif" font-size="10.00">board</text>
</g>
<!-- l5 -->
<g id="node6" class="node"><title>l5</title>
<a xlink:href="../../SDMLib/src/org/sdmlib/replication/Lane.java" xlink:title="&lt;TABLE&gt;">
<polygon fill="none" stroke="black" points="244,-106 244,-123 334,-123 334,-106 244,-106"/>
<text text-anchor="start" x="272" y="-112.5" font-family="Times New Roman,serif" font-size="10.00"> </text>
<text text-anchor="start" x="275" y="-112.5" font-family="Times New Roman,serif" font-size="10.00">l5 :Lane</text>
</a>
<polygon fill="none" stroke="black" points="244,-86 244,-106 334,-106 334,-86 244,-86"/>
<text text-anchor="start" x="249" y="-94" font-family="Times New Roman,serif" font-size="10.00">name = &quot;KarliLane&quot;</text>
</g>
<!-- taskboard&#45;&#45;l5 -->
<g id="edge8" class="edge"><title>taskboard&#45;&#45;l5</title>
<path fill="none" stroke="black" d="M245.602,-164.097C254.305,-152.446 264.569,-138.705 272.93,-127.513"/>
<text text-anchor="middle" x="270.892" y="-134.803" font-family="Times New Roman,serif" font-size="10.00">lanes</text>
<text text-anchor="middle" x="247.64" y="-151.807" font-family="Times New Roman,serif" font-size="10.00">board</text>
</g>
<!-- l8 -->
<g id="node8" class="node"><title>l8</title>
<a xlink:href="../../SDMLib/src/org/sdmlib/replication/Lane.java" xlink:title="&lt;TABLE&gt;">
<polygon fill="none" stroke="black" points="368,-106 368,-123 466,-123 466,-106 368,-106"/>
<text text-anchor="start" x="400" y="-112.5" font-family="Times New Roman,serif" font-size="10.00"> </text>
<text text-anchor="start" x="403" y="-112.5" font-family="Times New Roman,serif" font-size="10.00">l8 :Lane</text>
</a>
<polygon fill="none" stroke="black" points="368,-86 368,-106 466,-106 466,-86 368,-86"/>
<text text-anchor="start" x="373" y="-94" font-family="Times New Roman,serif" font-size="10.00">name = &quot;SabineLane&quot;</text>
</g>
<!-- taskboard&#45;&#45;l8 -->
<g id="edge10" class="edge"><title>taskboard&#45;&#45;l8</title>
<path fill="none" stroke="black" d="M283.235,-164.434C310.045,-152.723 341.826,-138.839 367.682,-127.544"/>
<text text-anchor="middle" x="361.068" y="-132.545" font-family="Times New Roman,serif" font-size="10.00">lanes</text>
<text text-anchor="middle" x="289.848" y="-154.433" font-family="Times New Roman,serif" font-size="10.00">board</text>
</g>
<!-- b3 -->
<g id="node5" class="node"><title>b3</title>
<a xlink:href="../../SDMLib/src/org/sdmlib/replication/BoardTask.java" xlink:title="&lt;TABLE&gt;">
<polygon fill="none" stroke="black" points="131,-24 131,-41 199,-41 199,-24 131,-24"/>
<text text-anchor="start" x="134.5" y="-30.5" font-family="Times New Roman,serif" font-size="10.00"> </text>
<text text-anchor="start" x="137.5" y="-30.5" font-family="Times New Roman,serif" font-size="10.00">b3 :BoardTask</text>
</a>
<polygon fill="none" stroke="black" points="131,-4 131,-24 199,-24 199,-4 131,-4"/>
<text text-anchor="start" x="136" y="-12" font-family="Times New Roman,serif" font-size="10.00">name = &quot;init&quot;</text>
</g>
<!-- l2&#45;&#45;b3 -->
<g id="edge12" class="edge"><title>l2&#45;&#45;b3</title>
<path fill="none" stroke="black" d="M165,-82.1396C165,-70.759 165,-56.8929 165,-45.5569"/>
<text text-anchor="middle" x="169.226" y="-52.12" font-family="Times New Roman,serif" font-size="10.00">tasks</text>
<text text-anchor="middle" x="160.774" y="-70.5766" font-family="Times New Roman,serif" font-size="10.00">lane</text>
</g>
<!-- b6 -->
<g id="node7" class="node"><title>b6</title>
<a xlink:href="../../SDMLib/src/org/sdmlib/replication/BoardTask.java" xlink:title="&lt;TABLE&gt;">
<polygon fill="none" stroke="black" points="255,-24 255,-41 323,-41 323,-24 255,-24"/>
<text text-anchor="start" x="258.5" y="-30.5" font-family="Times New Roman,serif" font-size="10.00"> </text>
<text text-anchor="start" x="261.5" y="-30.5" font-family="Times New Roman,serif" font-size="10.00">b6 :BoardTask</text>
</a>
<polygon fill="none" stroke="black" points="255,-4 255,-24 323,-24 323,-4 255,-4"/>
<text text-anchor="start" x="260" y="-12" font-family="Times New Roman,serif" font-size="10.00">name = &quot;init&quot;</text>
</g>
<!-- l5&#45;&#45;b6 -->
<g id="edge14" class="edge"><title>l5&#45;&#45;b6</title>
<path fill="none" stroke="black" d="M289,-82.1396C289,-70.759 289,-56.8929 289,-45.5569"/>
<text text-anchor="middle" x="293.226" y="-52.12" font-family="Times New Roman,serif" font-size="10.00">tasks</text>
<text text-anchor="middle" x="284.774" y="-70.5766" font-family="Times New Roman,serif" font-size="10.00">lane</text>
</g>
<!-- b9 -->
<g id="node9" class="node"><title>b9</title>
<a xlink:href="../../SDMLib/src/org/sdmlib/replication/BoardTask.java" xlink:title="&lt;TABLE&gt;">
<polygon fill="none" stroke="black" points="383,-24 383,-41 451,-41 451,-24 383,-24"/>
<text text-anchor="start" x="386.5" y="-30.5" font-family="Times New Roman,serif" font-size="10.00"> </text>
<text text-anchor="start" x="389.5" y="-30.5" font-family="Times New Roman,serif" font-size="10.00">b9 :BoardTask</text>
</a>
<polygon fill="none" stroke="black" points="383,-4 383,-24 451,-24 451,-4 383,-4"/>
<text text-anchor="start" x="388" y="-12" font-family="Times New Roman,serif" font-size="10.00">name = &quot;init&quot;</text>
</g>
<!-- l8&#45;&#45;b9 -->
<g id="edge16" class="edge"><title>l8&#45;&#45;b9</title>
<path fill="none" stroke="black" d="M417,-82.1396C417,-70.759 417,-56.8929 417,-45.5569"/>
<text text-anchor="middle" x="421.226" y="-52.12" font-family="Times New Roman,serif" font-size="10.00">tasks</text>
<text text-anchor="middle" x="412.774" y="-70.5766" font-family="Times New Roman,serif" font-size="10.00">lane</text>
</g>
</g>
</svg>
