<?xml version="1.0" encoding="UTF-8" standalone="no"?>
<!DOCTYPE svg PUBLIC "-//W3C//DTD SVG 1.1//EN"
 "http://www.w3.org/Graphics/SVG/1.1/DTD/svg11.dtd">
<!-- Generated by graphviz version 2.28.0 (20110507.0327)
 -->
<!-- Title: ObjectDiagram Pages: 1 -->
<svg width="531pt" height="364pt"
 viewBox="0.00 0.00 531.00 364.00" xmlns="http://www.w3.org/2000/svg" xmlns:xlink="http://www.w3.org/1999/xlink">
<g id="graph1" class="graph" transform="scale(1 1) rotate(0) translate(4 360)">
<title>ObjectDiagram</title>
<polygon fill="white" stroke="white" points="-4,5 -4,-360 528,-360 528,5 -4,5"/>
<!-- serverNode -->
<g id="node1" class="node"><title>serverNode</title>
<image xlink:href="icons/node.png" width="83px" height="61px" preserveAspectRatio="xMinYMin meet" x="11" y="-349"/>
<a xlink:href="../../SDMLib/src/org/sdmlib/replication/Node.java" xlink:title="&lt;TABLE&gt;">
<polygon fill="none" stroke="black" points="9,-270 9,-286 96,-286 96,-270 9,-270"/>
<text text-anchor="start" x="14.5" y="-276" font-family="Times New Roman,serif" font-size="10.00"> </text>
<text text-anchor="start" x="17.5" y="-276" font-family="Times New Roman,serif" font-size="10.00">serverNode :Node</text>
</a>
</g>
<!-- taskBoardLanesListener -->
<g id="node2" class="node"><title>taskBoardLanesListener</title>
<image xlink:href="icons/worker.png" width="80px" height="61px" preserveAspectRatio="xMinYMin meet" x="252" y="-349"/>
<a xlink:href="../examples/org/sdmlib/examples/replication/maumau/ReplicationMauMauServer.java" xlink:title="&lt;TABLE&gt;">
<polygon fill="none" stroke="black" points="130,-270 130,-286 454,-286 454,-270 130,-270"/>
<text text-anchor="start" x="133.5" y="-276" font-family="Times New Roman,serif" font-size="10.00"> </text>
<text text-anchor="start" x="136.5" y="-276" font-family="Times New Roman,serif" font-size="10.00">taskBoardLanesListener :ReplicationMauMauServer$TaskBoardLanesListener</text>
</a>
</g>
<!-- taskboard -->
<g id="node3" class="node"><title>taskboard</title>
<image xlink:href="icons/shared.png" width="70px" height="23px" preserveAspectRatio="xMinYMin meet" x="257" y="-223"/>
<a xlink:href="../../SDMLib/src/org/sdmlib/replication/TaskFlowBoard.java" xlink:title="&lt;TABLE&gt;">
<polygon fill="none" stroke="black" points="233,-182 233,-198 351,-198 351,-182 233,-182"/>
<text text-anchor="start" x="236.5" y="-188" font-family="Times New Roman,serif" font-size="10.00"> </text>
<text text-anchor="start" x="239.5" y="-188" font-family="Times New Roman,serif" font-size="10.00">taskboard :TaskFlowBoard</text>
</a>
</g>
<!-- taskBoardLanesListener&#45;&#45;taskboard -->
<g id="edge2" class="edge"><title>taskBoardLanesListener&#45;&#45;taskboard</title>
<path fill="none" stroke="black" d="M292,-266.383C292,-253.874 292,-240.673 292,-229.731"/>
<text text-anchor="middle" x="296.226" y="-236.294" font-family="Times New Roman,serif" font-size="10.00">taskFlowBoard</text>
</g>
<!-- serverLane -->
<g id="node4" class="node"><title>serverLane</title>
<a xlink:href="../../SDMLib/src/org/sdmlib/replication/Lane.java" xlink:title="&lt;TABLE&gt;">
<polygon fill="none" stroke="black" points="112,-120 112,-137 191,-137 191,-120 112,-120"/>
<text text-anchor="start" x="115.5" y="-126.5" font-family="Times New Roman,serif" font-size="10.00"> </text>
<text text-anchor="start" x="118.5" y="-126.5" font-family="Times New Roman,serif" font-size="10.00">serverLane :Lane</text>
</a>
<polygon fill="none" stroke="black" points="112,-100 112,-120 191,-120 191,-100 112,-100"/>
<text text-anchor="start" x="117" y="-108" font-family="Times New Roman,serif" font-size="10.00">name = &quot;server&quot;</text>
</g>
<!-- taskboard&#45;&#45;serverLane -->
<g id="edge4" class="edge"><title>taskboard&#45;&#45;serverLane</title>
<path fill="none" stroke="black" d="M250.077,-178.322C230.27,-166.662 206.84,-152.87 187.738,-141.626"/>
<text text-anchor="middle" x="197.693" y="-140.082" font-family="Times New Roman,serif" font-size="10.00">lanes</text>
<text text-anchor="middle" x="240.123" y="-174.866" font-family="Times New Roman,serif" font-size="10.00">board</text>
</g>
<!-- l1 -->
<g id="node5" class="node"><title>l1</title>
<a xlink:href="../../SDMLib/src/org/sdmlib/replication/Lane.java" xlink:title="&lt;TABLE&gt;">
<polygon fill="none" stroke="black" points="225,-120 225,-137 360,-137 360,-120 225,-120"/>
<text text-anchor="start" x="275.5" y="-126.5" font-family="Times New Roman,serif" font-size="10.00"> </text>
<text text-anchor="start" x="278.5" y="-126.5" font-family="Times New Roman,serif" font-size="10.00">l1 :Lane</text>
</a>
<polygon fill="none" stroke="black" points="225,-100 225,-120 360,-120 360,-100 225,-100"/>
<text text-anchor="start" x="230" y="-108" font-family="Times New Roman,serif" font-size="10.00">name = &quot;play7WorkFlowLane&quot;</text>
</g>
<!-- taskboard&#45;&#45;l1 -->
<g id="edge6" class="edge"><title>taskboard&#45;&#45;l1</title>
<path fill="none" stroke="black" d="M292,-178.097C292,-166.446 292,-152.705 292,-141.513"/>
<text text-anchor="middle" x="296.226" y="-148.076" font-family="Times New Roman,serif" font-size="10.00">lanes</text>
<text text-anchor="middle" x="287.774" y="-166.534" font-family="Times New Roman,serif" font-size="10.00">board</text>
</g>
<!-- l5 -->
<g id="node8" class="node"><title>l5</title>
<a xlink:href="../../SDMLib/src/org/sdmlib/replication/Lane.java" xlink:title="&lt;TABLE&gt;">
<polygon fill="none" stroke="black" points="397,-120 397,-137 486,-137 486,-120 397,-120"/>
<text text-anchor="start" x="424.5" y="-126.5" font-family="Times New Roman,serif" font-size="10.00"> </text>
<text text-anchor="start" x="427.5" y="-126.5" font-family="Times New Roman,serif" font-size="10.00">l5 :Lane</text>
</a>
<polygon fill="none" stroke="black" points="397,-100 397,-120 486,-120 486,-100 397,-100"/>
<text text-anchor="start" x="402" y="-108" font-family="Times New Roman,serif" font-size="10.00">name = &quot;AbuLane&quot;</text>
</g>
<!-- taskboard&#45;&#45;l5 -->
<g id="edge8" class="edge"><title>taskboard&#45;&#45;l5</title>
<path fill="none" stroke="black" d="M336.301,-178.322C357.233,-166.662 381.992,-152.87 402.177,-141.626"/>
<text text-anchor="middle" x="396.316" y="-147.229" font-family="Times New Roman,serif" font-size="10.00">lanes</text>
<text text-anchor="middle" x="342.162" y="-167.72" font-family="Times New Roman,serif" font-size="10.00">board</text>
</g>
<!-- b2 -->
<g id="node6" class="node"><title>b2</title>
<a xlink:href="../../SDMLib/src/org/sdmlib/replication/BoardTask.java" xlink:title="&lt;TABLE&gt;">
<polygon fill="none" stroke="black" points="69,-38 69,-55 210,-55 210,-38 69,-38"/>
<text text-anchor="start" x="109" y="-44.5" font-family="Times New Roman,serif" font-size="10.00"> </text>
<text text-anchor="start" x="112" y="-44.5" font-family="Times New Roman,serif" font-size="10.00">b2 :BoardTask</text>
</a>
<polygon fill="none" stroke="black" points="69,-4 69,-38 210,-38 210,-4 69,-4"/>
<text text-anchor="start" x="74" y="-26" font-family="Times New Roman,serif" font-size="10.00">name = &quot;showStartGameButton&quot;</text>
<text text-anchor="start" x="74" y="-12" font-family="Times New Roman,serif" font-size="10.00">status = &quot;start&quot;</text>
</g>
<!-- l1&#45;&#45;b2 -->
<g id="edge10" class="edge"><title>l1&#45;&#45;b2</title>
<path fill="none" stroke="black" d="M254.18,-96.4944C234.623,-85.3739 210.49,-71.6511 189.374,-59.6443"/>
<text text-anchor="middle" x="199.342" y="-57.9504" font-family="Times New Roman,serif" font-size="10.00">tasks</text>
<text text-anchor="middle" x="244.212" y="-93.1883" font-family="Times New Roman,serif" font-size="10.00">lane</text>
</g>
<!-- b3 -->
<g id="node7" class="node"><title>b3</title>
<a xlink:href="../../SDMLib/src/org/sdmlib/replication/BoardTask.java" xlink:title="&lt;TABLE&gt;">
<polygon fill="none" stroke="black" points="244,-38 244,-55 341,-55 341,-38 244,-38"/>
<text text-anchor="start" x="262" y="-44.5" font-family="Times New Roman,serif" font-size="10.00"> </text>
<text text-anchor="start" x="265" y="-44.5" font-family="Times New Roman,serif" font-size="10.00">b3 :BoardTask</text>
</a>
<polygon fill="none" stroke="black" points="244,-4 244,-38 341,-38 341,-4 244,-4"/>
<text text-anchor="start" x="249" y="-26" font-family="Times New Roman,serif" font-size="10.00">name = &quot;startClients&quot;</text>
<text text-anchor="start" x="249" y="-12" font-family="Times New Roman,serif" font-size="10.00">status = &quot;start&quot;</text>
</g>
<!-- l1&#45;&#45;b3 -->
<g id="edge12" class="edge"><title>l1&#45;&#45;b3</title>
<path fill="none" stroke="black" d="M292,-96.4944C292,-85.4243 292,-71.7752 292,-59.8074"/>
<text text-anchor="middle" x="296.226" y="-66.3705" font-family="Times New Roman,serif" font-size="10.00">tasks</text>
<text text-anchor="middle" x="287.774" y="-84.9313" font-family="Times New Roman,serif" font-size="10.00">lane</text>
</g>
<!-- b6 -->
<g id="node9" class="node"><title>b6</title>
<a xlink:href="../../SDMLib/src/org/sdmlib/replication/BoardTask.java" xlink:title="&lt;TABLE&gt;">
<polygon fill="none" stroke="black" points="375,-31 375,-48 516,-48 516,-31 375,-31"/>
<text text-anchor="start" x="415" y="-37.5" font-family="Times New Roman,serif" font-size="10.00"> </text>
<text text-anchor="start" x="418" y="-37.5" font-family="Times New Roman,serif" font-size="10.00">b6 :BoardTask</text>
</a>
<polygon fill="none" stroke="black" points="375,-11 375,-31 516,-31 516,-11 375,-11"/>
<text text-anchor="start" x="380" y="-19" font-family="Times New Roman,serif" font-size="10.00">name = &quot;showStartGameButton&quot;</text>
</g>
<!-- l5&#45;&#45;b6 -->
<g id="edge14" class="edge"><title>l5&#45;&#45;b6</title>
<path fill="none" stroke="black" d="M441.989,-96.4944C442.604,-83.1096 443.393,-65.9547 444.009,-52.5597"/>
<text text-anchor="middle" x="447.814" y="-59.3074" font-family="Times New Roman,serif" font-size="10.00">tasks</text>
<text text-anchor="middle" x="438.183" y="-84.7468" font-family="Times New Roman,serif" font-size="10.00">lane</text>
</g>
</g>
</svg>
