<?xml version="1.0" encoding="UTF-8" standalone="no"?>
<!DOCTYPE svg PUBLIC "-//W3C//DTD SVG 1.1//EN"
 "http://www.w3.org/Graphics/SVG/1.1/DTD/svg11.dtd">
<!-- Generated by graphviz version 2.28.0 (20110507.0327)
 -->
<!-- Title: ObjectDiagram Pages: 1 -->
<svg width="690pt" height="364pt"
 viewBox="0.00 0.00 690.00 364.00" xmlns="http://www.w3.org/2000/svg" xmlns:xlink="http://www.w3.org/1999/xlink">
<g id="graph1" class="graph" transform="scale(1 1) rotate(0) translate(4 360)">
<title>ObjectDiagram</title>
<polygon fill="white" stroke="white" points="-4,5 -4,-360 687,-360 687,5 -4,5"/>
<!-- serverNode -->
<g id="node1" class="node"><title>serverNode</title>
<image xlink:href="icons/node.png" width="84px" height="61px" preserveAspectRatio="xMinYMin meet" x="35" y="-349"/>
<a xlink:href="../../SDMLib/src/org/sdmlib/replication/Node.java" xlink:title="&lt;TABLE&gt;">
<polygon fill="none" stroke="black" points="33,-270 33,-286 121,-286 121,-270 33,-270"/>
<text text-anchor="start" x="36.5" y="-276" font-family="Arial" font-size="10.00"> </text>
<text text-anchor="start" x="40.5" y="-276" font-family="Arial" font-size="10.00">serverNode :Node</text>
</a>
</g>
<!-- taskBoardLanesListener -->
<g id="node2" class="node"><title>taskBoardLanesListener</title>
<image xlink:href="icons/worker.png" width="80px" height="61px" preserveAspectRatio="xMinYMin meet" x="289" y="-349"/>
<a xlink:href="../examples/org/sdmlib/examples/replication/maumau/ReplicationMauMauServer.java" xlink:title="&lt;TABLE&gt;">
<polygon fill="none" stroke="black" points="155,-270 155,-286 503,-286 503,-270 155,-270"/>
<text text-anchor="start" x="158.5" y="-276" font-family="Arial" font-size="10.00"> </text>
<text text-anchor="start" x="162.5" y="-276" font-family="Arial" font-size="10.00">taskBoardLanesListener :ReplicationMauMauServer$TaskBoardLanesListener</text>
</a>
</g>
<!-- taskboard -->
<g id="node3" class="node"><title>taskboard</title>
<image xlink:href="icons/shared.png" width="70px" height="23px" preserveAspectRatio="xMinYMin meet" x="294.5" y="-223"/>
<a xlink:href="../../SDMLib/src/org/sdmlib/replication/TaskFlowBoard.java" xlink:title="&lt;TABLE&gt;">
<polygon fill="none" stroke="black" points="266,-182 266,-198 393,-198 393,-182 266,-182"/>
<text text-anchor="start" x="269.5" y="-188" font-family="Arial" font-size="10.00"> </text>
<text text-anchor="start" x="273.5" y="-188" font-family="Arial" font-size="10.00">taskboard :TaskFlowBoard</text>
</a>
</g>
<!-- taskBoardLanesListener&#45;&#45;taskboard -->
<g id="edge2" class="edge"><title>taskBoardLanesListener&#45;&#45;taskboard</title>
<path fill="none" stroke="black" d="M329,-266.383C329,-253.874 329,-240.673 329,-229.731"/>
<text text-anchor="middle" x="333.226" y="-236.294" font-family="Arial" font-size="10.00">taskFlowBoard</text>
</g>
<!-- serverLane -->
<g id="node4" class="node"><title>serverLane</title>
<a xlink:href="../../SDMLib/src/org/sdmlib/replication/Lane.java" xlink:title="&lt;TABLE&gt;">
<polygon fill="none" stroke="black" points="61,-120 61,-137 146,-137 146,-120 61,-120"/>
<text text-anchor="start" x="64.5" y="-126.5" font-family="Arial" font-size="10.00"> </text>
<text text-anchor="start" x="68.5" y="-126.5" font-family="Arial" font-size="10.00">serverLane :Lane</text>
</a>
<polygon fill="none" stroke="black" points="61,-100 61,-120 146,-120 146,-100 61,-100"/>
<text text-anchor="start" x="66" y="-108" font-family="Arial" font-size="10.00">name = &quot;server&quot;</text>
</g>
<!-- taskboard&#45;&#45;serverLane -->
<g id="edge4" class="edge"><title>taskboard&#45;&#45;serverLane</title>
<path fill="none" stroke="black" d="M262.11,-178.434C227.357,-165.671 185.581,-150.328 153.558,-138.568"/>
<text text-anchor="middle" x="163.522" y="-135.225" font-family="Arial" font-size="10.00">lanes</text>
<text text-anchor="middle" x="252.145" y="-176.777" font-family="Arial" font-size="10.00">board</text>
</g>
<!-- l1 -->
<g id="node5" class="node"><title>l1</title>
<a xlink:href="../../SDMLib/src/org/sdmlib/replication/Lane.java" xlink:title="&lt;TABLE&gt;">
<polygon fill="none" stroke="black" points="180,-120 180,-137 323,-137 323,-120 180,-120"/>
<text text-anchor="start" x="232" y="-126.5" font-family="Arial" font-size="10.00"> </text>
<text text-anchor="start" x="236" y="-126.5" font-family="Arial" font-size="10.00">l1 :Lane</text>
</a>
<polygon fill="none" stroke="black" points="180,-100 180,-120 323,-120 323,-100 180,-100"/>
<text text-anchor="start" x="185" y="-108" font-family="Arial" font-size="10.00">name = &quot;play7WorkFlowLane&quot;</text>
</g>
<!-- taskboard&#45;&#45;l1 -->
<g id="edge6" class="edge"><title>taskboard&#45;&#45;l1</title>
<path fill="none" stroke="black" d="M305.597,-178.097C294.648,-166.446 281.735,-152.705 271.217,-141.513"/>
<text text-anchor="middle" x="280.503" y="-142.723" font-family="Arial" font-size="10.00">lanes</text>
<text text-anchor="middle" x="296.311" y="-171.887" font-family="Arial" font-size="10.00">board</text>
</g>
<!-- l5 -->
<g id="node8" class="node"><title>l5</title>
<a xlink:href="../../SDMLib/src/org/sdmlib/replication/Lane.java" xlink:title="&lt;TABLE&gt;">
<polygon fill="none" stroke="black" points="362,-120 362,-137 455,-137 455,-120 362,-120"/>
<text text-anchor="start" x="389" y="-126.5" font-family="Arial" font-size="10.00"> </text>
<text text-anchor="start" x="393" y="-126.5" font-family="Arial" font-size="10.00">l5 :Lane</text>
</a>
<polygon fill="none" stroke="black" points="362,-100 362,-120 455,-120 455,-100 362,-100"/>
<text text-anchor="start" x="367" y="-108" font-family="Arial" font-size="10.00">name = &quot;AbuLane&quot;</text>
</g>
<!-- taskboard&#45;&#45;l5 -->
<g id="edge8" class="edge"><title>taskboard&#45;&#45;l5</title>
<path fill="none" stroke="black" d="M352.703,-178.097C363.792,-166.446 376.871,-152.705 387.524,-141.513"/>
<text text-anchor="middle" x="384.337" y="-148.491" font-family="Arial" font-size="10.00">lanes</text>
<text text-anchor="middle" x="355.89" y="-166.119" font-family="Arial" font-size="10.00">board</text>
</g>
<!-- l8 -->
<g id="node10" class="node"><title>l8</title>
<a xlink:href="../../SDMLib/src/org/sdmlib/replication/Lane.java" xlink:title="&lt;TABLE&gt;">
<polygon fill="none" stroke="black" points="523,-120 523,-137 619,-137 619,-120 523,-120"/>
<text text-anchor="start" x="551.5" y="-126.5" font-family="Arial" font-size="10.00"> </text>
<text text-anchor="start" x="555.5" y="-126.5" font-family="Arial" font-size="10.00">l8 :Lane</text>
</a>
<polygon fill="none" stroke="black" points="523,-100 523,-120 619,-120 619,-100 523,-100"/>
<text text-anchor="start" x="528" y="-108" font-family="Arial" font-size="10.00">name = &quot;KarliLane&quot;</text>
</g>
<!-- taskboard&#45;&#45;l8 -->
<g id="edge10" class="edge"><title>taskboard&#45;&#45;l8</title>
<path fill="none" stroke="black" d="M400.299,-178.546C436.828,-166.018 480.671,-150.981 514.777,-139.283"/>
<text text-anchor="middle" x="507.575" y="-143.721" font-family="Arial" font-size="10.00">lanes</text>
<text text-anchor="middle" x="407.501" y="-169.108" font-family="Arial" font-size="10.00">board</text>
</g>
<!-- b2 -->
<g id="node6" class="node"><title>b2</title>
<a xlink:href="../../SDMLib/src/org/sdmlib/replication/BoardTask.java" xlink:title="&lt;TABLE&gt;">
<polygon fill="none" stroke="black" points="9,-38 9,-55 162,-55 162,-38 9,-38"/>
<text text-anchor="start" x="51.5" y="-44.5" font-family="Arial" font-size="10.00"> </text>
<text text-anchor="start" x="55.5" y="-44.5" font-family="Arial" font-size="10.00">b2 :BoardTask</text>
</a>
<polygon fill="none" stroke="black" points="9,-4 9,-38 162,-38 162,-4 9,-4"/>
<text text-anchor="start" x="14" y="-26" font-family="Arial" font-size="10.00">name = &quot;showStartGameButton&quot;</text>
<text text-anchor="start" x="14" y="-12" font-family="Arial" font-size="10.00">status = &quot;start&quot;</text>
</g>
<!-- l1&#45;&#45;b2 -->
<g id="edge12" class="edge"><title>l1&#45;&#45;b2</title>
<path fill="none" stroke="black" d="M209.966,-96.4944C188.748,-85.3739 162.564,-71.6511 139.655,-59.6443"/>
<text text-anchor="middle" x="149.644" y="-57.6082" font-family="Arial" font-size="10.00">tasks</text>
<text text-anchor="middle" x="199.977" y="-93.5305" font-family="Arial" font-size="10.00">lane</text>
</g>
<!-- b3 -->
<g id="node7" class="node"><title>b3</title>
<a xlink:href="../../SDMLib/src/org/sdmlib/replication/BoardTask.java" xlink:title="&lt;TABLE&gt;">
<polygon fill="none" stroke="black" points="196,-38 196,-55 301,-55 301,-38 196,-38"/>
<text text-anchor="start" x="214.5" y="-44.5" font-family="Arial" font-size="10.00"> </text>
<text text-anchor="start" x="218.5" y="-44.5" font-family="Arial" font-size="10.00">b3 :BoardTask</text>
</a>
<polygon fill="none" stroke="black" points="196,-4 196,-38 301,-38 301,-4 196,-4"/>
<text text-anchor="start" x="201" y="-26" font-family="Arial" font-size="10.00">name = &quot;startClients&quot;</text>
<text text-anchor="start" x="201" y="-12" font-family="Arial" font-size="10.00">status = &quot;start&quot;</text>
</g>
<!-- l1&#45;&#45;b3 -->
<g id="edge14" class="edge"><title>l1&#45;&#45;b3</title>
<path fill="none" stroke="black" d="M250.258,-96.4944C249.877,-85.4243 249.406,-71.7752 248.993,-59.8074"/>
<text text-anchor="middle" x="253.529" y="-66.2194" font-family="Arial" font-size="10.00">tasks</text>
<text text-anchor="middle" x="245.722" y="-85.0823" font-family="Arial" font-size="10.00">lane</text>
</g>
<!-- b6 -->
<g id="node9" class="node"><title>b6</title>
<a xlink:href="../../SDMLib/src/org/sdmlib/replication/BoardTask.java" xlink:title="&lt;TABLE&gt;">
<polygon fill="none" stroke="black" points="335,-38 335,-55 488,-55 488,-38 335,-38"/>
<text text-anchor="start" x="377.5" y="-44.5" font-family="Arial" font-size="10.00"> </text>
<text text-anchor="start" x="381.5" y="-44.5" font-family="Arial" font-size="10.00">b6 :BoardTask</text>
</a>
<polygon fill="none" stroke="black" points="335,-4 335,-38 488,-38 488,-4 335,-4"/>
<text text-anchor="start" x="340" y="-26" font-family="Arial" font-size="10.00">name = &quot;showStartGameButton&quot;</text>
<text text-anchor="start" x="340" y="-12" font-family="Arial" font-size="10.00">status = &quot;start&quot;</text>
</g>
<!-- l5&#45;&#45;b6 -->
<g id="edge16" class="edge"><title>l5&#45;&#45;b6</title>
<path fill="none" stroke="black" d="M408.742,-96.4944C409.123,-85.4243 409.594,-71.7752 410.007,-59.8074"/>
<text text-anchor="middle" x="413.918" y="-66.5107" font-family="Arial" font-size="10.00">tasks</text>
<text text-anchor="middle" x="404.83" y="-84.791" font-family="Arial" font-size="10.00">lane</text>
</g>
<!-- b9 -->
<g id="node11" class="node"><title>b9</title>
<a xlink:href="../../SDMLib/src/org/sdmlib/replication/BoardTask.java" xlink:title="&lt;TABLE&gt;">
<polygon fill="none" stroke="black" points="522,-38 522,-55 675,-55 675,-38 522,-38"/>
<text text-anchor="start" x="564.5" y="-44.5" font-family="Arial" font-size="10.00"> </text>
<text text-anchor="start" x="568.5" y="-44.5" font-family="Arial" font-size="10.00">b9 :BoardTask</text>
</a>
<polygon fill="none" stroke="black" points="522,-4 522,-38 675,-38 675,-4 522,-4"/>
<text text-anchor="start" x="527" y="-26" font-family="Arial" font-size="10.00">name = &quot;showStartGameButton&quot;</text>
<text text-anchor="start" x="527" y="-12" font-family="Arial" font-size="10.00">status = &quot;&quot;</text>
</g>
<!-- l8&#45;&#45;b9 -->
<g id="edge18" class="edge"><title>l8&#45;&#45;b9</title>
<path fill="none" stroke="black" d="M577.674,-96.4944C581.11,-85.4243 585.346,-71.7752 589.06,-59.8074"/>
<text text-anchor="middle" x="590.41" y="-67.2158" font-family="Arial" font-size="10.00">tasks</text>
<text text-anchor="middle" x="576.324" y="-84.0859" font-family="Arial" font-size="10.00">lane</text>
</g>
</g>
</svg>
