<?xml version="1.0" encoding="UTF-8" standalone="no"?>
<!DOCTYPE svg PUBLIC "-//W3C//DTD SVG 1.1//EN"
 "http://www.w3.org/Graphics/SVG/1.1/DTD/svg11.dtd">
<!-- Generated by graphviz version 2.28.0 (20110507.0327)
 -->
<!-- Title: ObjectDiagram Pages: 1 -->
<svg width="771pt" height="282pt"
 viewBox="0.00 0.00 771.00 282.00" xmlns="http://www.w3.org/2000/svg" xmlns:xlink="http://www.w3.org/1999/xlink">
<g id="graph1" class="graph" transform="scale(1 1) rotate(0) translate(4 278)">
<title>ObjectDiagram</title>
<polygon fill="white" stroke="white" points="-4,5 -4,-278 768,-278 768,5 -4,5"/>
<!-- serverNode -->
<g id="node1" class="node"><title>serverNode</title>
<image xlink:href="icons/node.png" width="83px" height="61px" preserveAspectRatio="xMinYMin meet" x="10" y="-267"/>
<a xlink:href="../../SDMLib/src/org/sdmlib/replication/Node.java" xlink:title="&lt;TABLE&gt;">
<polygon fill="none" stroke="black" points="8,-188 8,-204 95,-204 95,-188 8,-188"/>
<text text-anchor="start" x="13.5" y="-194" font-family="Times New Roman,serif" font-size="10.00"> </text>
<text text-anchor="start" x="16.5" y="-194" font-family="Times New Roman,serif" font-size="10.00">serverNode :Node</text>
</a>
</g>
<!-- server -->
<g id="node2" class="node"><title>server</title>
<image xlink:href="icons/worker.png" width="80px" height="61px" preserveAspectRatio="xMinYMin meet" x="163" y="-267"/>
<a xlink:href="../examples/org/sdmlib/examples/replication/maumau/ReplicationMauMauServer.java" xlink:title="&lt;TABLE&gt;">
<polygon fill="none" stroke="black" points="129,-188 129,-204 277,-204 277,-188 129,-188"/>
<text text-anchor="start" x="132.5" y="-194" font-family="Times New Roman,serif" font-size="10.00"> </text>
<text text-anchor="start" x="135.5" y="-194" font-family="Times New Roman,serif" font-size="10.00">server :ReplicationMauMauServer</text>
</a>
</g>
<!-- taskboard -->
<g id="node3" class="node"><title>taskboard</title>
<image xlink:href="icons/shared.png" width="70px" height="23px" preserveAspectRatio="xMinYMin meet" x="438" y="-134"/>
<a xlink:href="../../SDMLib/src/org/sdmlib/replication/TaskFlowBoard.java" xlink:title="&lt;TABLE&gt;">
<polygon fill="none" stroke="black" points="414,-93 414,-109 532,-109 532,-93 414,-93"/>
<text text-anchor="start" x="417.5" y="-99" font-family="Times New Roman,serif" font-size="10.00"> </text>
<text text-anchor="start" x="420.5" y="-99" font-family="Times New Roman,serif" font-size="10.00">taskboard :TaskFlowBoard</text>
</a>
</g>
<!-- serverLane -->
<g id="node4" class="node"><title>serverLane</title>
<a xlink:href="../../SDMLib/src/org/sdmlib/replication/Lane.java" xlink:title="&lt;TABLE&gt;">
<polygon fill="none" stroke="black" points="344,-24 344,-41 423,-41 423,-24 344,-24"/>
<text text-anchor="start" x="347.5" y="-30.5" font-family="Times New Roman,serif" font-size="10.00"> </text>
<text text-anchor="start" x="350.5" y="-30.5" font-family="Times New Roman,serif" font-size="10.00">serverLane :Lane</text>
</a>
<polygon fill="none" stroke="black" points="344,-4 344,-24 423,-24 423,-4 344,-4"/>
<text text-anchor="start" x="349" y="-12" font-family="Times New Roman,serif" font-size="10.00">name = &quot;server&quot;</text>
</g>
<!-- taskboard&#45;&#45;serverLane -->
<g id="edge2" class="edge"><title>taskboard&#45;&#45;serverLane</title>
<path fill="none" stroke="black" d="M448.407,-89.4071C434.667,-75.6671 417.707,-58.7067 404.5,-45.5"/>
<text text-anchor="middle" x="413.897" y="-46.4202" font-family="Times New Roman,serif" font-size="10.00">lanes</text>
<text text-anchor="middle" x="439.01" y="-83.4869" font-family="Times New Roman,serif" font-size="10.00">board</text>
</g>
<!-- taskBoardLanesListener -->
<g id="node5" class="node"><title>taskBoardLanesListener</title>
<image xlink:href="icons/server.png" width="48px" height="37px" preserveAspectRatio="xMinYMin meet" x="449" y="-255"/>
<a xlink:href="../examples/org/sdmlib/examples/replication/maumau/ReplicationMauMauServer.java" xlink:title="&lt;TABLE&gt;">
<polygon fill="none" stroke="black" points="311,-200 311,-216 635,-216 635,-200 311,-200"/>
<text text-anchor="start" x="314.5" y="-206" font-family="Times New Roman,serif" font-size="10.00"> </text>
<text text-anchor="start" x="317.5" y="-206" font-family="Times New Roman,serif" font-size="10.00">taskBoardLanesListener :ReplicationMauMauServer$TaskBoardLanesListener</text>
</a>
</g>
<!-- taskBoardLanesListener&#45;&#45;taskboard -->
<g id="edge4" class="edge"><title>taskBoardLanesListener&#45;&#45;taskboard</title>
<path fill="none" stroke="black" d="M473,-196.205C473,-178.614 473,-157.078 473,-140.752"/>
<text text-anchor="middle" x="477.226" y="-147.315" font-family="Times New Roman,serif" font-size="10.00">taskFlowBoard</text>
</g>
<!-- serverLaneListener -->
<g id="node6" class="node"><title>serverLaneListener</title>
<image xlink:href="icons/server.png" width="48px" height="37px" preserveAspectRatio="xMinYMin meet" x="269.5" y="-141"/>
<a xlink:href="../examples/org/sdmlib/examples/replication/maumau/ServerLaneManager.java" xlink:title="&lt;TABLE&gt;">
<polygon fill="none" stroke="black" points="207,-86 207,-102 380,-102 380,-86 207,-86"/>
<text text-anchor="start" x="210.5" y="-92" font-family="Times New Roman,serif" font-size="10.00"> </text>
<text text-anchor="start" x="213.5" y="-92" font-family="Times New Roman,serif" font-size="10.00">serverLaneListener :ServerLaneManager</text>
</a>
</g>
<!-- serverLaneListener&#45;&#45;serverLane -->
<g id="edge6" class="edge"><title>serverLaneListener&#45;&#45;serverLane</title>
<path fill="none" stroke="black" d="M324.731,-82.2694C336.877,-70.1233 350.439,-56.5609 361.421,-45.5787"/>
<text text-anchor="middle" x="358.001" y="-52.4756" font-family="Times New Roman,serif" font-size="10.00">source</text>
</g>
<!-- maumau -->
<g id="node7" class="node"><title>maumau</title>
<image xlink:href="icons/shared.png" width="70px" height="23px" preserveAspectRatio="xMinYMin meet" x="677" y="-248"/>
<a xlink:href="../examples/org/sdmlib/examples/replication/maumau/MauMau.java" xlink:title="&lt;TABLE&gt;">
<polygon fill="none" stroke="black" points="669,-207 669,-223 755,-223 755,-207 669,-207"/>
<text text-anchor="start" x="672.5" y="-213" font-family="Times New Roman,serif" font-size="10.00"> </text>
<text text-anchor="start" x="675.5" y="-213" font-family="Times New Roman,serif" font-size="10.00">maumau :MauMau</text>
</a>
</g>
</g>
</svg>
