<?xml version="1.0" encoding="UTF-8" standalone="no"?>
<!DOCTYPE svg PUBLIC "-//W3C//DTD SVG 1.1//EN"
 "http://www.w3.org/Graphics/SVG/1.1/DTD/svg11.dtd">
<!-- Generated by graphviz version 2.28.0 (20110507.0327)
 -->
<!-- Title: ObjectDiagram Pages: 1 -->
<svg width="811pt" height="306pt"
 viewBox="0.00 0.00 811.00 306.00" xmlns="http://www.w3.org/2000/svg" xmlns:xlink="http://www.w3.org/1999/xlink">
<g id="graph1" class="graph" transform="scale(1 1) rotate(0) translate(4 302)">
<title>ObjectDiagram</title>
<polygon fill="white" stroke="white" points="-4,5 -4,-302 808,-302 808,5 -4,5"/>
<!-- serverNode -->
<g id="node1" class="node"><title>serverNode</title>
<image xlink:href="icons/node.png" width="84px" height="61px" preserveAspectRatio="xMinYMin meet" x="10" y="-279"/>
<a xlink:href="../../SDMLib/src/org/sdmlib/replication/Node.java" xlink:title="&lt;TABLE&gt;">
<polygon fill="none" stroke="black" points="8,-200 8,-216 96,-216 96,-200 8,-200"/>
<text text-anchor="start" x="11.5" y="-206" font-family="Arial" font-size="10.00"> </text>
<text text-anchor="start" x="15.5" y="-206" font-family="Arial" font-size="10.00">serverNode :Node</text>
</a>
</g>
<!-- server -->
<g id="node2" class="node"><title>server</title>
<image xlink:href="icons/worker.png" width="80px" height="61px" preserveAspectRatio="xMinYMin meet" x="168" y="-279"/>
<a xlink:href="../examples/org/sdmlib/examples/replication/maumau/ReplicationMauMauServer.java" xlink:title="&lt;TABLE&gt;">
<polygon fill="none" stroke="black" points="130,-200 130,-216 286,-216 286,-200 130,-200"/>
<text text-anchor="start" x="133.5" y="-206" font-family="Arial" font-size="10.00"> </text>
<text text-anchor="start" x="137.5" y="-206" font-family="Arial" font-size="10.00">server :ReplicationMauMauServer</text>
</a>
</g>
<!-- taskboard -->
<g id="node3" class="node"><title>taskboard</title>
<image xlink:href="icons/shared.png" width="70px" height="23px" preserveAspectRatio="xMinYMin meet" x="459.5" y="-134"/>
<a xlink:href="../../SDMLib/src/org/sdmlib/replication/TaskFlowBoard.java" xlink:title="&lt;TABLE&gt;">
<polygon fill="none" stroke="black" points="431,-93 431,-109 558,-109 558,-93 431,-93"/>
<text text-anchor="start" x="434.5" y="-99" font-family="Arial" font-size="10.00"> </text>
<text text-anchor="start" x="438.5" y="-99" font-family="Arial" font-size="10.00">taskboard :TaskFlowBoard</text>
</a>
</g>
<!-- serverLane -->
<g id="node4" class="node"><title>serverLane</title>
<a xlink:href="../../SDMLib/src/org/sdmlib/replication/Lane.java" xlink:title="&lt;TABLE&gt;">
<polygon fill="none" stroke="black" points="357,-24 357,-41 442,-41 442,-24 357,-24"/>
<text text-anchor="start" x="360.5" y="-30.5" font-family="Arial" font-size="10.00"> </text>
<text text-anchor="start" x="364.5" y="-30.5" font-family="Arial" font-size="10.00">serverLane :Lane</text>
</a>
<polygon fill="none" stroke="black" points="357,-4 357,-24 442,-24 442,-4 357,-4"/>
<text text-anchor="start" x="362" y="-12" font-family="Arial" font-size="10.00">name = &quot;server&quot;</text>
</g>
<!-- taskboard&#45;&#45;serverLane -->
<g id="edge2" class="edge"><title>taskboard&#45;&#45;serverLane</title>
<path fill="none" stroke="black" d="M468.041,-89.4071C453.537,-75.6671 435.635,-58.7067 421.694,-45.5"/>
<text text-anchor="middle" x="431.18" y="-46.1651" font-family="Arial" font-size="10.00">lanes</text>
<text text-anchor="middle" x="458.555" y="-83.742" font-family="Arial" font-size="10.00">board</text>
</g>
<!-- taskBoardLanesListener -->
<g id="node5" class="node"><title>taskBoardLanesListener</title>
<image xlink:href="icons/server.png" width="48px" height="37px" preserveAspectRatio="xMinYMin meet" x="470" y="-267"/>
<a xlink:href="../examples/org/sdmlib/examples/replication/maumau/ReplicationMauMauServer.java" xlink:title="&lt;TABLE&gt;">
<polygon fill="none" stroke="black" points="320,-212 320,-228 668,-228 668,-212 320,-212"/>
<text text-anchor="start" x="323.5" y="-218" font-family="Arial" font-size="10.00"> </text>
<text text-anchor="start" x="327.5" y="-218" font-family="Arial" font-size="10.00">taskBoardLanesListener :ReplicationMauMauServer$TaskBoardLanesListener</text>
</a>
</g>
<!-- taskBoardLanesListener&#45;&#45;taskboard -->
<g id="edge4" class="edge"><title>taskBoardLanesListener&#45;&#45;taskboard</title>
<path fill="none" stroke="black" d="M494,-208.389C494,-187.293 494,-159.961 494,-140.511"/>
<text text-anchor="middle" x="498.226" y="-147.074" font-family="Arial" font-size="10.00">taskFlowBoard</text>
</g>
<!-- serverLaneListener -->
<g id="node6" class="node"><title>serverLaneListener</title>
<image xlink:href="icons/server.png" width="48px" height="37px" preserveAspectRatio="xMinYMin meet" x="280" y="-141"/>
<a xlink:href="../examples/org/sdmlib/examples/replication/maumau/ServerLaneManager.java" xlink:title="&lt;TABLE&gt;">
<polygon fill="none" stroke="black" points="212,-86 212,-102 396,-102 396,-86 212,-86"/>
<text text-anchor="start" x="215.5" y="-92" font-family="Arial" font-size="10.00"> </text>
<text text-anchor="start" x="219.5" y="-92" font-family="Arial" font-size="10.00">serverLaneListener :ServerLaneManager</text>
</a>
</g>
<!-- serverLaneListener&#45;&#45;serverLane -->
<g id="edge6" class="edge"><title>serverLaneListener&#45;&#45;serverLane</title>
<path fill="none" stroke="black" d="M337.493,-82.2694C350.314,-70.1233 364.63,-56.5609 376.222,-45.5787"/>
<text text-anchor="middle" x="372.55" y="-52.3798" font-family="Arial" font-size="10.00">source</text>
</g>
<!-- maumau -->
<g id="node7" class="node"><title>maumau</title>
<image xlink:href="icons/shared.png" width="70px" height="23px" preserveAspectRatio="xMinYMin meet" x="714.5" y="-291"/>
<a xlink:href="../examples/org/sdmlib/examples/replication/maumau/MauMau.java" xlink:title="&lt;TABLE&gt;">
<polygon fill="none" stroke="black" points="703,-250 703,-266 796,-266 796,-250 703,-250"/>
<text text-anchor="start" x="706.5" y="-256" font-family="Arial" font-size="10.00"> </text>
<text text-anchor="start" x="710.5" y="-256" font-family="Arial" font-size="10.00">maumau :MauMau</text>
</a>
<polygon fill="none" stroke="black" points="703,-188 703,-250 796,-250 796,-188 703,-188"/>
<text text-anchor="start" x="708" y="-238" font-family="Arial" font-size="10.00">deck = &quot;&quot;</text>
<text text-anchor="start" x="708" y="-224" font-family="Arial" font-size="10.00">stack = &quot;&quot;</text>
<text text-anchor="start" x="708" y="-210" font-family="Arial" font-size="10.00">currentMove = &quot;&quot;</text>
<text text-anchor="start" x="708" y="-196" font-family="Arial" font-size="10.00">duty = &quot;&quot;</text>
</g>
</g>
</svg>
