<?xml version="1.0" encoding="UTF-8" standalone="no"?>
<!DOCTYPE svg PUBLIC "-//W3C//DTD SVG 1.1//EN"
 "http://www.w3.org/Graphics/SVG/1.1/DTD/svg11.dtd">
<!-- Generated by graphviz version 2.28.0 (20110507.0327)
 -->
<!-- Title: ObjectDiagram Pages: 1 -->
<svg width="645pt" height="364pt"
 viewBox="0.00 0.00 645.00 364.00" xmlns="http://www.w3.org/2000/svg" xmlns:xlink="http://www.w3.org/1999/xlink">
<g id="graph1" class="graph" transform="scale(1 1) rotate(0) translate(4 360)">
<title>ObjectDiagram</title>
<polygon fill="white" stroke="white" points="-4,5 -4,-360 642,-360 642,5 -4,5"/>
<!-- taskBoardLanesListener -->
<g id="node1" class="node"><title>taskBoardLanesListener</title>
<image xlink:href="icons/worker.png" width="80px" height="61px" preserveAspectRatio="xMinYMin meet" x="267" y="-349"/>
<a xlink:href="../examples/org/sdmlib/examples/replication/maumau/ReplicationMauMauServer.java" xlink:title="&lt;TABLE&gt;">
<polygon fill="none" stroke="black" points="145,-270 145,-286 469,-286 469,-270 145,-270"/>
<text text-anchor="start" x="148.5" y="-276" font-family="Times New Roman,serif" font-size="10.00"> </text>
<text text-anchor="start" x="151.5" y="-276" font-family="Times New Roman,serif" font-size="10.00">taskBoardLanesListener :ReplicationMauMauServer$TaskBoardLanesListener</text>
</a>
</g>
<!-- taskboard -->
<g id="node2" class="node"><title>taskboard</title>
<image xlink:href="icons/shared.png" width="70px" height="23px" preserveAspectRatio="xMinYMin meet" x="272" y="-223"/>
<a xlink:href="../../SDMLib/src/org/sdmlib/replication/TaskFlowBoard.java" xlink:title="&lt;TABLE&gt;">
<polygon fill="none" stroke="black" points="248,-182 248,-198 366,-198 366,-182 248,-182"/>
<text text-anchor="start" x="251.5" y="-188" font-family="Times New Roman,serif" font-size="10.00"> </text>
<text text-anchor="start" x="254.5" y="-188" font-family="Times New Roman,serif" font-size="10.00">taskboard :TaskFlowBoard</text>
</a>
</g>
<!-- taskBoardLanesListener&#45;&#45;taskboard -->
<g id="edge2" class="edge"><title>taskBoardLanesListener&#45;&#45;taskboard</title>
<path fill="none" stroke="black" d="M307,-266.383C307,-253.874 307,-240.673 307,-229.731"/>
<text text-anchor="middle" x="311.226" y="-236.294" font-family="Times New Roman,serif" font-size="10.00">taskFlowBoard</text>
</g>
<!-- serverLane -->
<g id="node3" class="node"><title>serverLane</title>
<a xlink:href="../../SDMLib/src/org/sdmlib/replication/Lane.java" xlink:title="&lt;TABLE&gt;">
<polygon fill="none" stroke="black" points="53,-120 53,-137 132,-137 132,-120 53,-120"/>
<text text-anchor="start" x="56.5" y="-126.5" font-family="Times New Roman,serif" font-size="10.00"> </text>
<text text-anchor="start" x="59.5" y="-126.5" font-family="Times New Roman,serif" font-size="10.00">serverLane :Lane</text>
</a>
<polygon fill="none" stroke="black" points="53,-100 53,-120 132,-120 132,-100 53,-100"/>
<text text-anchor="start" x="58" y="-108" font-family="Times New Roman,serif" font-size="10.00">name = &quot;server&quot;</text>
</g>
<!-- taskboard&#45;&#45;serverLane -->
<g id="edge4" class="edge"><title>taskboard&#45;&#45;serverLane</title>
<path fill="none" stroke="black" d="M242.743,-178.482C213.774,-167.394 179.145,-154.092 148,-142 145.176,-140.904 142.273,-139.773 139.346,-138.631"/>
<text text-anchor="middle" x="149.325" y="-135.488" font-family="Times New Roman,serif" font-size="10.00">lanes</text>
<text text-anchor="middle" x="232.768" y="-176.688" font-family="Times New Roman,serif" font-size="10.00">board</text>
</g>
<!-- l1 -->
<g id="node4" class="node"><title>l1</title>
<a xlink:href="../../SDMLib/src/org/sdmlib/replication/Lane.java" xlink:title="&lt;TABLE&gt;">
<polygon fill="none" stroke="black" points="166,-120 166,-137 301,-137 301,-120 166,-120"/>
<text text-anchor="start" x="216.5" y="-126.5" font-family="Times New Roman,serif" font-size="10.00"> </text>
<text text-anchor="start" x="219.5" y="-126.5" font-family="Times New Roman,serif" font-size="10.00">l1 :Lane</text>
</a>
<polygon fill="none" stroke="black" points="166,-100 166,-120 301,-120 301,-100 166,-100"/>
<text text-anchor="start" x="171" y="-108" font-family="Times New Roman,serif" font-size="10.00">name = &quot;play7WorkFlowLane&quot;</text>
</g>
<!-- taskboard&#45;&#45;l1 -->
<g id="edge6" class="edge"><title>taskboard&#45;&#45;l1</title>
<path fill="none" stroke="black" d="M284.798,-178.097C274.41,-166.446 262.159,-152.705 252.18,-141.513"/>
<text text-anchor="middle" x="261.366" y="-142.965" font-family="Times New Roman,serif" font-size="10.00">lanes</text>
<text text-anchor="middle" x="275.612" y="-171.645" font-family="Times New Roman,serif" font-size="10.00">board</text>
</g>
<!-- l5 -->
<g id="node7" class="node"><title>l5</title>
<a xlink:href="../../SDMLib/src/org/sdmlib/replication/Lane.java" xlink:title="&lt;TABLE&gt;">
<polygon fill="none" stroke="black" points="338,-120 338,-137 427,-137 427,-120 338,-120"/>
<text text-anchor="start" x="365.5" y="-126.5" font-family="Times New Roman,serif" font-size="10.00"> </text>
<text text-anchor="start" x="368.5" y="-126.5" font-family="Times New Roman,serif" font-size="10.00">l5 :Lane</text>
</a>
<polygon fill="none" stroke="black" points="338,-100 338,-120 427,-120 427,-100 338,-100"/>
<text text-anchor="start" x="343" y="-108" font-family="Times New Roman,serif" font-size="10.00">name = &quot;AbuLane&quot;</text>
</g>
<!-- taskboard&#45;&#45;l5 -->
<g id="edge8" class="edge"><title>taskboard&#45;&#45;l5</title>
<path fill="none" stroke="black" d="M329.502,-178.097C340.031,-166.446 352.447,-152.705 362.561,-141.513"/>
<text text-anchor="middle" x="359.62" y="-148.571" font-family="Times New Roman,serif" font-size="10.00">lanes</text>
<text text-anchor="middle" x="332.443" y="-166.039" font-family="Times New Roman,serif" font-size="10.00">board</text>
</g>
<!-- l8 -->
<g id="node9" class="node"><title>l8</title>
<a xlink:href="../../SDMLib/src/org/sdmlib/replication/Lane.java" xlink:title="&lt;TABLE&gt;">
<polygon fill="none" stroke="black" points="490,-120 490,-137 580,-137 580,-120 490,-120"/>
<text text-anchor="start" x="518" y="-126.5" font-family="Times New Roman,serif" font-size="10.00"> </text>
<text text-anchor="start" x="521" y="-126.5" font-family="Times New Roman,serif" font-size="10.00">l8 :Lane</text>
</a>
<polygon fill="none" stroke="black" points="490,-100 490,-120 580,-120 580,-100 490,-100"/>
<text text-anchor="start" x="495" y="-108" font-family="Times New Roman,serif" font-size="10.00">name = &quot;KarliLane&quot;</text>
</g>
<!-- taskboard&#45;&#45;l8 -->
<g id="edge10" class="edge"><title>taskboard&#45;&#45;l8</title>
<path fill="none" stroke="black" d="M374.174,-178.546C408.458,-166.066 449.581,-151.096 481.661,-139.417"/>
<text text-anchor="middle" x="474.59" y="-143.989" font-family="Times New Roman,serif" font-size="10.00">lanes</text>
<text text-anchor="middle" x="381.245" y="-168.975" font-family="Times New Roman,serif" font-size="10.00">board</text>
</g>
<!-- b2 -->
<g id="node5" class="node"><title>b2</title>
<a xlink:href="../../SDMLib/src/org/sdmlib/replication/BoardTask.java" xlink:title="&lt;TABLE&gt;">
<polygon fill="none" stroke="black" points="8,-38 8,-55 149,-55 149,-38 8,-38"/>
<text text-anchor="start" x="48" y="-44.5" font-family="Times New Roman,serif" font-size="10.00"> </text>
<text text-anchor="start" x="51" y="-44.5" font-family="Times New Roman,serif" font-size="10.00">b2 :BoardTask</text>
</a>
<polygon fill="none" stroke="black" points="8,-4 8,-38 149,-38 149,-4 8,-4"/>
<text text-anchor="start" x="13" y="-26" font-family="Times New Roman,serif" font-size="10.00">name = &quot;showStartGameButton&quot;</text>
<text text-anchor="start" x="13" y="-12" font-family="Times New Roman,serif" font-size="10.00">status = &quot;start&quot;</text>
</g>
<!-- l1&#45;&#45;b2 -->
<g id="edge12" class="edge"><title>l1&#45;&#45;b2</title>
<path fill="none" stroke="black" d="M194.685,-96.4944C174.873,-85.3739 150.424,-71.6511 129.033,-59.6443"/>
<text text-anchor="middle" x="139.005" y="-57.895" font-family="Times New Roman,serif" font-size="10.00">tasks</text>
<text text-anchor="middle" x="184.714" y="-93.2437" font-family="Times New Roman,serif" font-size="10.00">lane</text>
</g>
<!-- b3 -->
<g id="node6" class="node"><title>b3</title>
<a xlink:href="../../SDMLib/src/org/sdmlib/replication/BoardTask.java" xlink:title="&lt;TABLE&gt;">
<polygon fill="none" stroke="black" points="183,-38 183,-55 280,-55 280,-38 183,-38"/>
<text text-anchor="start" x="201" y="-44.5" font-family="Times New Roman,serif" font-size="10.00"> </text>
<text text-anchor="start" x="204" y="-44.5" font-family="Times New Roman,serif" font-size="10.00">b3 :BoardTask</text>
</a>
<polygon fill="none" stroke="black" points="183,-4 183,-38 280,-38 280,-4 183,-4"/>
<text text-anchor="start" x="188" y="-26" font-family="Times New Roman,serif" font-size="10.00">name = &quot;startClients&quot;</text>
<text text-anchor="start" x="188" y="-12" font-family="Times New Roman,serif" font-size="10.00">status = &quot;start&quot;</text>
</g>
<!-- l1&#45;&#45;b3 -->
<g id="edge14" class="edge"><title>l1&#45;&#45;b3</title>
<path fill="none" stroke="black" d="M232.506,-96.4944C232.251,-85.4243 231.937,-71.7752 231.662,-59.8074"/>
<text text-anchor="middle" x="236.096" y="-66.2709" font-family="Times New Roman,serif" font-size="10.00">tasks</text>
<text text-anchor="middle" x="228.072" y="-85.0308" font-family="Times New Roman,serif" font-size="10.00">lane</text>
</g>
<!-- b6 -->
<g id="node8" class="node"><title>b6</title>
<a xlink:href="../../SDMLib/src/org/sdmlib/replication/BoardTask.java" xlink:title="&lt;TABLE&gt;">
<polygon fill="none" stroke="black" points="314,-38 314,-55 455,-55 455,-38 314,-38"/>
<text text-anchor="start" x="354" y="-44.5" font-family="Times New Roman,serif" font-size="10.00"> </text>
<text text-anchor="start" x="357" y="-44.5" font-family="Times New Roman,serif" font-size="10.00">b6 :BoardTask</text>
</a>
<polygon fill="none" stroke="black" points="314,-4 314,-38 455,-38 455,-4 314,-4"/>
<text text-anchor="start" x="319" y="-26" font-family="Times New Roman,serif" font-size="10.00">name = &quot;showStartGameButton&quot;</text>
<text text-anchor="start" x="319" y="-12" font-family="Times New Roman,serif" font-size="10.00">status = &quot;start&quot;</text>
</g>
<!-- l5&#45;&#45;b6 -->
<g id="edge16" class="edge"><title>l5&#45;&#45;b6</title>
<path fill="none" stroke="black" d="M382.494,-96.4944C382.749,-85.4243 383.063,-71.7752 383.338,-59.8074"/>
<text text-anchor="middle" x="387.355" y="-66.4652" font-family="Times New Roman,serif" font-size="10.00">tasks</text>
<text text-anchor="middle" x="378.478" y="-84.8366" font-family="Times New Roman,serif" font-size="10.00">lane</text>
</g>
<!-- b9 -->
<g id="node10" class="node"><title>b9</title>
<a xlink:href="../../SDMLib/src/org/sdmlib/replication/BoardTask.java" xlink:title="&lt;TABLE&gt;">
<polygon fill="none" stroke="black" points="489,-31 489,-48 630,-48 630,-31 489,-31"/>
<text text-anchor="start" x="529" y="-37.5" font-family="Times New Roman,serif" font-size="10.00"> </text>
<text text-anchor="start" x="532" y="-37.5" font-family="Times New Roman,serif" font-size="10.00">b9 :BoardTask</text>
</a>
<polygon fill="none" stroke="black" points="489,-11 489,-31 630,-31 630,-11 489,-11"/>
<text text-anchor="start" x="494" y="-19" font-family="Times New Roman,serif" font-size="10.00">name = &quot;showStartGameButton&quot;</text>
</g>
<!-- l8&#45;&#45;b9 -->
<g id="edge18" class="edge"><title>l8&#45;&#45;b9</title>
<path fill="none" stroke="black" d="M540.933,-96.4944C544.625,-83.1096 549.357,-65.9547 553.052,-52.5597"/>
<text text-anchor="middle" x="554.716" y="-59.9203" font-family="Times New Roman,serif" font-size="10.00">tasks</text>
<text text-anchor="middle" x="539.269" y="-84.1338" font-family="Times New Roman,serif" font-size="10.00">lane</text>
</g>
</g>
</svg>
