<?xml version="1.0" encoding="UTF-8" standalone="no"?>
<!DOCTYPE svg PUBLIC "-//W3C//DTD SVG 1.1//EN"
 "http://www.w3.org/Graphics/SVG/1.1/DTD/svg11.dtd">
<!-- Generated by graphviz version 2.28.0 (20110507.0327)
 -->
<!-- Title: ObjectDiagram Pages: 1 -->
<svg width="559pt" height="364pt"
 viewBox="0.00 0.00 559.00 364.00" xmlns="http://www.w3.org/2000/svg" xmlns:xlink="http://www.w3.org/1999/xlink">
<g id="graph1" class="graph" transform="scale(1 1) rotate(0) translate(4 360)">
<title>ObjectDiagram</title>
<polygon fill="white" stroke="white" points="-4,5 -4,-360 556,-360 556,5 -4,5"/>
<!-- serverNode -->
<g id="node1" class="node"><title>serverNode</title>
<image xlink:href="icons/node.png" width="84px" height="61px" preserveAspectRatio="xMinYMin meet" x="10" y="-349"/>
<a xlink:href="../../SDMLib/src/org/sdmlib/replication/Node.java" xlink:title="&lt;TABLE&gt;">
<polygon fill="none" stroke="black" points="8,-270 8,-286 96,-286 96,-270 8,-270"/>
<text text-anchor="start" x="11.5" y="-276" font-family="Arial" font-size="10.00"> </text>
<text text-anchor="start" x="15.5" y="-276" font-family="Arial" font-size="10.00">serverNode :Node</text>
</a>
</g>
<!-- taskBoardLanesListener -->
<g id="node2" class="node"><title>taskBoardLanesListener</title>
<image xlink:href="icons/worker.png" width="80px" height="61px" preserveAspectRatio="xMinYMin meet" x="264" y="-349"/>
<a xlink:href="../examples/org/sdmlib/examples/replication/maumau/ReplicationMauMauServer.java" xlink:title="&lt;TABLE&gt;">
<polygon fill="none" stroke="black" points="130,-270 130,-286 478,-286 478,-270 130,-270"/>
<text text-anchor="start" x="133.5" y="-276" font-family="Arial" font-size="10.00"> </text>
<text text-anchor="start" x="137.5" y="-276" font-family="Arial" font-size="10.00">taskBoardLanesListener :ReplicationMauMauServer$TaskBoardLanesListener</text>
</a>
</g>
<!-- taskboard -->
<g id="node3" class="node"><title>taskboard</title>
<image xlink:href="icons/shared.png" width="70px" height="23px" preserveAspectRatio="xMinYMin meet" x="269.5" y="-223"/>
<a xlink:href="../../SDMLib/src/org/sdmlib/replication/TaskFlowBoard.java" xlink:title="&lt;TABLE&gt;">
<polygon fill="none" stroke="black" points="241,-182 241,-198 368,-198 368,-182 241,-182"/>
<text text-anchor="start" x="244.5" y="-188" font-family="Arial" font-size="10.00"> </text>
<text text-anchor="start" x="248.5" y="-188" font-family="Arial" font-size="10.00">taskboard :TaskFlowBoard</text>
</a>
</g>
<!-- taskBoardLanesListener&#45;&#45;taskboard -->
<g id="edge2" class="edge"><title>taskBoardLanesListener&#45;&#45;taskboard</title>
<path fill="none" stroke="black" d="M304,-266.383C304,-253.874 304,-240.673 304,-229.731"/>
<text text-anchor="middle" x="308.226" y="-236.294" font-family="Arial" font-size="10.00">taskFlowBoard</text>
</g>
<!-- serverLane -->
<g id="node4" class="node"><title>serverLane</title>
<a xlink:href="../../SDMLib/src/org/sdmlib/replication/Lane.java" xlink:title="&lt;TABLE&gt;">
<polygon fill="none" stroke="black" points="114,-120 114,-137 199,-137 199,-120 114,-120"/>
<text text-anchor="start" x="117.5" y="-126.5" font-family="Arial" font-size="10.00"> </text>
<text text-anchor="start" x="121.5" y="-126.5" font-family="Arial" font-size="10.00">serverLane :Lane</text>
</a>
<polygon fill="none" stroke="black" points="114,-100 114,-120 199,-120 199,-100 114,-100"/>
<text text-anchor="start" x="119" y="-108" font-family="Arial" font-size="10.00">name = &quot;server&quot;</text>
</g>
<!-- taskboard&#45;&#45;serverLane -->
<g id="edge4" class="edge"><title>taskboard&#45;&#45;serverLane</title>
<path fill="none" stroke="black" d="M259.996,-178.322C239.205,-166.662 214.612,-152.87 194.562,-141.626"/>
<text text-anchor="middle" x="204.534" y="-139.873" font-family="Arial" font-size="10.00">lanes</text>
<text text-anchor="middle" x="250.024" y="-175.075" font-family="Arial" font-size="10.00">board</text>
</g>
<!-- l1 -->
<g id="node5" class="node"><title>l1</title>
<a xlink:href="../../SDMLib/src/org/sdmlib/replication/Lane.java" xlink:title="&lt;TABLE&gt;">
<polygon fill="none" stroke="black" points="233,-120 233,-137 376,-137 376,-120 233,-120"/>
<text text-anchor="start" x="285" y="-126.5" font-family="Arial" font-size="10.00"> </text>
<text text-anchor="start" x="289" y="-126.5" font-family="Arial" font-size="10.00">l1 :Lane</text>
</a>
<polygon fill="none" stroke="black" points="233,-100 233,-120 376,-120 376,-100 233,-100"/>
<text text-anchor="start" x="238" y="-108" font-family="Arial" font-size="10.00">name = &quot;play7WorkFlowLane&quot;</text>
</g>
<!-- taskboard&#45;&#45;l1 -->
<g id="edge6" class="edge"><title>taskboard&#45;&#45;l1</title>
<path fill="none" stroke="black" d="M304,-178.097C304,-166.446 304,-152.705 304,-141.513"/>
<text text-anchor="middle" x="308.226" y="-148.076" font-family="Arial" font-size="10.00">lanes</text>
<text text-anchor="middle" x="299.774" y="-166.534" font-family="Arial" font-size="10.00">board</text>
</g>
<!-- l5 -->
<g id="node8" class="node"><title>l5</title>
<a xlink:href="../../SDMLib/src/org/sdmlib/replication/Lane.java" xlink:title="&lt;TABLE&gt;">
<polygon fill="none" stroke="black" points="415,-120 415,-137 508,-137 508,-120 415,-120"/>
<text text-anchor="start" x="442" y="-126.5" font-family="Arial" font-size="10.00"> </text>
<text text-anchor="start" x="446" y="-126.5" font-family="Arial" font-size="10.00">l5 :Lane</text>
</a>
<polygon fill="none" stroke="black" points="415,-100 415,-120 508,-120 508,-100 415,-100"/>
<text text-anchor="start" x="420" y="-108" font-family="Arial" font-size="10.00">name = &quot;AbuLane&quot;</text>
</g>
<!-- taskboard&#45;&#45;l5 -->
<g id="edge8" class="edge"><title>taskboard&#45;&#45;l5</title>
<path fill="none" stroke="black" d="M350.68,-178.322C372.735,-166.662 398.824,-152.87 420.093,-141.626"/>
<text text-anchor="middle" x="414.056" y="-147.098" font-family="Arial" font-size="10.00">lanes</text>
<text text-anchor="middle" x="356.717" y="-167.85" font-family="Arial" font-size="10.00">board</text>
</g>
<!-- b2 -->
<g id="node6" class="node"><title>b2</title>
<a xlink:href="../../SDMLib/src/org/sdmlib/replication/BoardTask.java" xlink:title="&lt;TABLE&gt;">
<polygon fill="none" stroke="black" points="65,-38 65,-55 218,-55 218,-38 65,-38"/>
<text text-anchor="start" x="107.5" y="-44.5" font-family="Arial" font-size="10.00"> </text>
<text text-anchor="start" x="111.5" y="-44.5" font-family="Arial" font-size="10.00">b2 :BoardTask</text>
</a>
<polygon fill="none" stroke="black" points="65,-4 65,-38 218,-38 218,-4 65,-4"/>
<text text-anchor="start" x="70" y="-26" font-family="Arial" font-size="10.00">name = &quot;showStartGameButton&quot;</text>
<text text-anchor="start" x="70" y="-12" font-family="Arial" font-size="10.00">status = &quot;start&quot;</text>
</g>
<!-- l1&#45;&#45;b2 -->
<g id="edge10" class="edge"><title>l1&#45;&#45;b2</title>
<path fill="none" stroke="black" d="M263.708,-96.4944C242.873,-85.3739 217.162,-71.6511 194.667,-59.6443"/>
<text text-anchor="middle" x="204.652" y="-57.6835" font-family="Arial" font-size="10.00">tasks</text>
<text text-anchor="middle" x="253.722" y="-93.4552" font-family="Arial" font-size="10.00">lane</text>
</g>
<!-- b3 -->
<g id="node7" class="node"><title>b3</title>
<a xlink:href="../../SDMLib/src/org/sdmlib/replication/BoardTask.java" xlink:title="&lt;TABLE&gt;">
<polygon fill="none" stroke="black" points="252,-38 252,-55 357,-55 357,-38 252,-38"/>
<text text-anchor="start" x="270.5" y="-44.5" font-family="Arial" font-size="10.00"> </text>
<text text-anchor="start" x="274.5" y="-44.5" font-family="Arial" font-size="10.00">b3 :BoardTask</text>
</a>
<polygon fill="none" stroke="black" points="252,-4 252,-38 357,-38 357,-4 252,-4"/>
<text text-anchor="start" x="257" y="-26" font-family="Arial" font-size="10.00">name = &quot;startClients&quot;</text>
<text text-anchor="start" x="257" y="-12" font-family="Arial" font-size="10.00">status = &quot;start&quot;</text>
</g>
<!-- l1&#45;&#45;b3 -->
<g id="edge12" class="edge"><title>l1&#45;&#45;b3</title>
<path fill="none" stroke="black" d="M304,-96.4944C304,-85.4243 304,-71.7752 304,-59.8074"/>
<text text-anchor="middle" x="308.226" y="-66.3705" font-family="Arial" font-size="10.00">tasks</text>
<text text-anchor="middle" x="299.774" y="-84.9313" font-family="Arial" font-size="10.00">lane</text>
</g>
<!-- b6 -->
<g id="node9" class="node"><title>b6</title>
<a xlink:href="../../SDMLib/src/org/sdmlib/replication/BoardTask.java" xlink:title="&lt;TABLE&gt;">
<polygon fill="none" stroke="black" points="391,-38 391,-55 544,-55 544,-38 391,-38"/>
<text text-anchor="start" x="433.5" y="-44.5" font-family="Arial" font-size="10.00"> </text>
<text text-anchor="start" x="437.5" y="-44.5" font-family="Arial" font-size="10.00">b6 :BoardTask</text>
</a>
<polygon fill="none" stroke="black" points="391,-4 391,-38 544,-38 544,-4 391,-4"/>
<text text-anchor="start" x="396" y="-26" font-family="Arial" font-size="10.00">name = &quot;showStartGameButton&quot;</text>
<text text-anchor="start" x="396" y="-12" font-family="Arial" font-size="10.00">status = &quot;&quot;</text>
</g>
<!-- l5&#45;&#45;b6 -->
<g id="edge14" class="edge"><title>l5&#45;&#45;b6</title>
<path fill="none" stroke="black" d="M462.483,-96.4944C463.247,-85.4243 464.188,-71.7752 465.013,-59.8074"/>
<text text-anchor="middle" x="468.606" y="-66.6398" font-family="Arial" font-size="10.00">tasks</text>
<text text-anchor="middle" x="458.891" y="-84.662" font-family="Arial" font-size="10.00">lane</text>
</g>
</g>
</svg>
