<?xml version="1.0" encoding="UTF-8" standalone="no"?>
<!DOCTYPE svg PUBLIC "-//W3C//DTD SVG 1.1//EN"
 "http://www.w3.org/Graphics/SVG/1.1/DTD/svg11.dtd">
<!-- Generated by graphviz version 2.28.0 (20110507.0327)
 -->
<!-- Title: ObjectDiagram Pages: 1 -->
<svg width="355pt" height="350pt"
 viewBox="0.00 0.00 355.00 350.00" xmlns="http://www.w3.org/2000/svg" xmlns:xlink="http://www.w3.org/1999/xlink">
<g id="graph1" class="graph" transform="scale(1 1) rotate(0) translate(4 346)">
<title>ObjectDiagram</title>
<polygon fill="white" stroke="white" points="-4,5 -4,-346 352,-346 352,5 -4,5"/>
<!-- taskBoardLanesListener -->
<g id="node1" class="node"><title>taskBoardLanesListener</title>
<image xlink:href="icons/worker.png" width="80px" height="61px" preserveAspectRatio="xMinYMin meet" x="130" y="-335"/>
<a xlink:href="../examples/org/sdmlib/examples/replication/maumau/ReplicationMauMauServer.java" xlink:title="&lt;TABLE&gt;">
<polygon fill="none" stroke="black" points="8,-256 8,-272 332,-272 332,-256 8,-256"/>
<text text-anchor="start" x="11.5" y="-262" font-family="Times New Roman,serif" font-size="10.00"> </text>
<text text-anchor="start" x="14.5" y="-262" font-family="Times New Roman,serif" font-size="10.00">taskBoardLanesListener :ReplicationMauMauServer$TaskBoardLanesListener</text>
</a>
</g>
<!-- taskboard -->
<g id="node2" class="node"><title>taskboard</title>
<image xlink:href="icons/shared.png" width="70px" height="23px" preserveAspectRatio="xMinYMin meet" x="135" y="-209"/>
<a xlink:href="../../SDMLib/src/org/sdmlib/replication/TaskFlowBoard.java" xlink:title="&lt;TABLE&gt;">
<polygon fill="none" stroke="black" points="111,-168 111,-184 229,-184 229,-168 111,-168"/>
<text text-anchor="start" x="114.5" y="-174" font-family="Times New Roman,serif" font-size="10.00"> </text>
<text text-anchor="start" x="117.5" y="-174" font-family="Times New Roman,serif" font-size="10.00">taskboard :TaskFlowBoard</text>
</a>
</g>
<!-- taskBoardLanesListener&#45;&#45;taskboard -->
<g id="edge2" class="edge"><title>taskBoardLanesListener&#45;&#45;taskboard</title>
<path fill="none" stroke="black" d="M170,-252.383C170,-239.874 170,-226.673 170,-215.731"/>
<text text-anchor="middle" x="174.226" y="-222.294" font-family="Times New Roman,serif" font-size="10.00">taskFlowBoard</text>
</g>
<!-- serverLane -->
<g id="node3" class="node"><title>serverLane</title>
<a xlink:href="../../SDMLib/src/org/sdmlib/replication/Lane.java" xlink:title="&lt;TABLE&gt;">
<polygon fill="none" stroke="black" points="13,-106 13,-123 92,-123 92,-106 13,-106"/>
<text text-anchor="start" x="16.5" y="-112.5" font-family="Times New Roman,serif" font-size="10.00"> </text>
<text text-anchor="start" x="19.5" y="-112.5" font-family="Times New Roman,serif" font-size="10.00">serverLane :Lane</text>
</a>
<polygon fill="none" stroke="black" points="13,-86 13,-106 92,-106 92,-86 13,-86"/>
<text text-anchor="start" x="18" y="-94" font-family="Times New Roman,serif" font-size="10.00">name = &quot;server&quot;</text>
</g>
<!-- taskboard&#45;&#45;serverLane -->
<g id="edge4" class="edge"><title>taskboard&#45;&#45;serverLane</title>
<path fill="none" stroke="black" d="M134.916,-164.322C118.339,-152.662 98.7311,-138.87 82.7455,-127.626"/>
<text text-anchor="middle" x="92.5899" y="-126.884" font-family="Times New Roman,serif" font-size="10.00">lanes</text>
<text text-anchor="middle" x="125.071" y="-160.065" font-family="Times New Roman,serif" font-size="10.00">board</text>
</g>
<!-- l2 -->
<g id="node4" class="node"><title>l2</title>
<a xlink:href="../../SDMLib/src/org/sdmlib/replication/Lane.java" xlink:title="&lt;TABLE&gt;">
<polygon fill="none" stroke="black" points="126,-106 126,-123 215,-123 215,-106 126,-106"/>
<text text-anchor="start" x="153.5" y="-112.5" font-family="Times New Roman,serif" font-size="10.00"> </text>
<text text-anchor="start" x="156.5" y="-112.5" font-family="Times New Roman,serif" font-size="10.00">l2 :Lane</text>
</a>
<polygon fill="none" stroke="black" points="126,-86 126,-106 215,-106 215,-86 126,-86"/>
<text text-anchor="start" x="131" y="-94" font-family="Times New Roman,serif" font-size="10.00">name = &quot;AbuLane&quot;</text>
</g>
<!-- taskboard&#45;&#45;l2 -->
<g id="edge6" class="edge"><title>taskboard&#45;&#45;l2</title>
<path fill="none" stroke="black" d="M170,-164.097C170,-152.446 170,-138.705 170,-127.513"/>
<text text-anchor="middle" x="174.226" y="-134.076" font-family="Times New Roman,serif" font-size="10.00">lanes</text>
<text text-anchor="middle" x="165.774" y="-152.534" font-family="Times New Roman,serif" font-size="10.00">board</text>
</g>
<!-- l5 -->
<g id="node6" class="node"><title>l5</title>
<a xlink:href="../../SDMLib/src/org/sdmlib/replication/Lane.java" xlink:title="&lt;TABLE&gt;">
<polygon fill="none" stroke="black" points="249,-106 249,-123 339,-123 339,-106 249,-106"/>
<text text-anchor="start" x="277" y="-112.5" font-family="Times New Roman,serif" font-size="10.00"> </text>
<text text-anchor="start" x="280" y="-112.5" font-family="Times New Roman,serif" font-size="10.00">l5 :Lane</text>
</a>
<polygon fill="none" stroke="black" points="249,-86 249,-106 339,-106 339,-86 249,-86"/>
<text text-anchor="start" x="254" y="-94" font-family="Times New Roman,serif" font-size="10.00">name = &quot;KarliLane&quot;</text>
</g>
<!-- taskboard&#45;&#45;l5 -->
<g id="edge8" class="edge"><title>taskboard&#45;&#45;l5</title>
<path fill="none" stroke="black" d="M206.868,-164.322C224.288,-152.662 244.893,-138.87 261.691,-127.626"/>
<text text-anchor="middle" x="256.51" y="-133.679" font-family="Times New Roman,serif" font-size="10.00">lanes</text>
<text text-anchor="middle" x="212.049" y="-153.269" font-family="Times New Roman,serif" font-size="10.00">board</text>
</g>
<!-- b3 -->
<g id="node5" class="node"><title>b3</title>
<a xlink:href="../../SDMLib/src/org/sdmlib/replication/BoardTask.java" xlink:title="&lt;TABLE&gt;">
<polygon fill="none" stroke="black" points="136,-24 136,-41 204,-41 204,-24 136,-24"/>
<text text-anchor="start" x="139.5" y="-30.5" font-family="Times New Roman,serif" font-size="10.00"> </text>
<text text-anchor="start" x="142.5" y="-30.5" font-family="Times New Roman,serif" font-size="10.00">b3 :BoardTask</text>
</a>
<polygon fill="none" stroke="black" points="136,-4 136,-24 204,-24 204,-4 136,-4"/>
<text text-anchor="start" x="141" y="-12" font-family="Times New Roman,serif" font-size="10.00">name = &quot;init&quot;</text>
</g>
<!-- l2&#45;&#45;b3 -->
<g id="edge10" class="edge"><title>l2&#45;&#45;b3</title>
<path fill="none" stroke="black" d="M170,-82.1396C170,-70.759 170,-56.8929 170,-45.5569"/>
<text text-anchor="middle" x="174.226" y="-52.12" font-family="Times New Roman,serif" font-size="10.00">tasks</text>
<text text-anchor="middle" x="165.774" y="-70.5766" font-family="Times New Roman,serif" font-size="10.00">lane</text>
</g>
<!-- b6 -->
<g id="node7" class="node"><title>b6</title>
<a xlink:href="../../SDMLib/src/org/sdmlib/replication/BoardTask.java" xlink:title="&lt;TABLE&gt;">
<polygon fill="none" stroke="black" points="260,-24 260,-41 328,-41 328,-24 260,-24"/>
<text text-anchor="start" x="263.5" y="-30.5" font-family="Times New Roman,serif" font-size="10.00"> </text>
<text text-anchor="start" x="266.5" y="-30.5" font-family="Times New Roman,serif" font-size="10.00">b6 :BoardTask</text>
</a>
<polygon fill="none" stroke="black" points="260,-4 260,-24 328,-24 328,-4 260,-4"/>
<text text-anchor="start" x="265" y="-12" font-family="Times New Roman,serif" font-size="10.00">name = &quot;init&quot;</text>
</g>
<!-- l5&#45;&#45;b6 -->
<g id="edge12" class="edge"><title>l5&#45;&#45;b6</title>
<path fill="none" stroke="black" d="M294,-82.1396C294,-70.759 294,-56.8929 294,-45.5569"/>
<text text-anchor="middle" x="298.226" y="-52.12" font-family="Times New Roman,serif" font-size="10.00">tasks</text>
<text text-anchor="middle" x="289.774" y="-70.5766" font-family="Times New Roman,serif" font-size="10.00">lane</text>
</g>
</g>
</svg>
