<?xml version="1.0" encoding="UTF-8" standalone="no"?>
<!DOCTYPE svg PUBLIC "-//W3C//DTD SVG 1.1//EN"
 "http://www.w3.org/Graphics/SVG/1.1/DTD/svg11.dtd">
<!-- Generated by graphviz version 2.28.0 (20110507.0327)
 -->
<!-- Title: ObjectDiagram Pages: 1 -->
<svg width="877pt" height="364pt"
 viewBox="0.00 0.00 877.00 364.00" xmlns="http://www.w3.org/2000/svg" xmlns:xlink="http://www.w3.org/1999/xlink">
<g id="graph1" class="graph" transform="scale(1 1) rotate(0) translate(4 360)">
<title>ObjectDiagram</title>
<polygon fill="white" stroke="white" points="-4,5 -4,-360 874,-360 874,5 -4,5"/>
<!-- serverNode -->
<g id="node1" class="node"><title>serverNode</title>
<image xlink:href="icons/node.png" width="84px" height="61px" preserveAspectRatio="xMinYMin meet" x="117" y="-349"/>
<a xlink:href="../../SDMLib/src/org/sdmlib/replication/Node.java" xlink:title="&lt;TABLE&gt;">
<polygon fill="none" stroke="black" points="115,-270 115,-286 203,-286 203,-270 115,-270"/>
<text text-anchor="start" x="118.5" y="-276" font-family="Arial" font-size="10.00"> </text>
<text text-anchor="start" x="122.5" y="-276" font-family="Arial" font-size="10.00">serverNode :Node</text>
</a>
</g>
<!-- taskBoardLanesListener -->
<g id="node2" class="node"><title>taskBoardLanesListener</title>
<image xlink:href="icons/worker.png" width="80px" height="61px" preserveAspectRatio="xMinYMin meet" x="371" y="-349"/>
<a xlink:href="../examples/org/sdmlib/examples/replication/maumau/ReplicationMauMauServer.java" xlink:title="&lt;TABLE&gt;">
<polygon fill="none" stroke="black" points="237,-270 237,-286 585,-286 585,-270 237,-270"/>
<text text-anchor="start" x="240.5" y="-276" font-family="Arial" font-size="10.00"> </text>
<text text-anchor="start" x="244.5" y="-276" font-family="Arial" font-size="10.00">taskBoardLanesListener :ReplicationMauMauServer$TaskBoardLanesListener</text>
</a>
</g>
<!-- taskboard -->
<g id="node3" class="node"><title>taskboard</title>
<image xlink:href="icons/shared.png" width="70px" height="23px" preserveAspectRatio="xMinYMin meet" x="376.5" y="-223"/>
<a xlink:href="../../SDMLib/src/org/sdmlib/replication/TaskFlowBoard.java" xlink:title="&lt;TABLE&gt;">
<polygon fill="none" stroke="black" points="348,-182 348,-198 475,-198 475,-182 348,-182"/>
<text text-anchor="start" x="351.5" y="-188" font-family="Arial" font-size="10.00"> </text>
<text text-anchor="start" x="355.5" y="-188" font-family="Arial" font-size="10.00">taskboard :TaskFlowBoard</text>
</a>
</g>
<!-- taskBoardLanesListener&#45;&#45;taskboard -->
<g id="edge2" class="edge"><title>taskBoardLanesListener&#45;&#45;taskboard</title>
<path fill="none" stroke="black" d="M411,-266.383C411,-253.874 411,-240.673 411,-229.731"/>
<text text-anchor="middle" x="415.226" y="-236.294" font-family="Arial" font-size="10.00">taskFlowBoard</text>
</g>
<!-- serverLane -->
<g id="node4" class="node"><title>serverLane</title>
<a xlink:href="../../SDMLib/src/org/sdmlib/replication/Lane.java" xlink:title="&lt;TABLE&gt;">
<polygon fill="none" stroke="black" points="63,-120 63,-137 148,-137 148,-120 63,-120"/>
<text text-anchor="start" x="66.5" y="-126.5" font-family="Arial" font-size="10.00"> </text>
<text text-anchor="start" x="70.5" y="-126.5" font-family="Arial" font-size="10.00">serverLane :Lane</text>
</a>
<polygon fill="none" stroke="black" points="63,-100 63,-120 148,-120 148,-100 63,-100"/>
<text text-anchor="start" x="68" y="-108" font-family="Arial" font-size="10.00">name = &quot;server&quot;</text>
</g>
<!-- taskboard&#45;&#45;serverLane -->
<g id="edge4" class="edge"><title>taskboard&#45;&#45;serverLane</title>
<path fill="none" stroke="black" d="M339.659,-187.464C290.251,-176.181 223.165,-159.818 165,-142 161.818,-141.025 158.557,-139.977 155.28,-138.885"/>
<text text-anchor="middle" x="165.213" y="-135.229" font-family="Arial" font-size="10.00">lanes</text>
<text text-anchor="middle" x="329.879" y="-187.046" font-family="Arial" font-size="10.00">board</text>
</g>
<!-- l1 -->
<g id="node5" class="node"><title>l1</title>
<a xlink:href="../../SDMLib/src/org/sdmlib/replication/Lane.java" xlink:title="&lt;TABLE&gt;">
<polygon fill="none" stroke="black" points="182,-120 182,-137 325,-137 325,-120 182,-120"/>
<text text-anchor="start" x="234" y="-126.5" font-family="Arial" font-size="10.00"> </text>
<text text-anchor="start" x="238" y="-126.5" font-family="Arial" font-size="10.00">l1 :Lane</text>
</a>
<polygon fill="none" stroke="black" points="182,-100 182,-120 325,-120 325,-100 182,-100"/>
<text text-anchor="start" x="187" y="-108" font-family="Arial" font-size="10.00">name = &quot;play7WorkFlowLane&quot;</text>
</g>
<!-- taskboard&#45;&#45;l1 -->
<g id="edge6" class="edge"><title>taskboard&#45;&#45;l1</title>
<path fill="none" stroke="black" d="M364.023,-178.322C341.827,-166.662 315.572,-152.87 294.168,-141.626"/>
<text text-anchor="middle" x="304.157" y="-139.6" font-family="Arial" font-size="10.00">lanes</text>
<text text-anchor="middle" x="354.034" y="-175.349" font-family="Arial" font-size="10.00">board</text>
</g>
<!-- l5 -->
<g id="node8" class="node"><title>l5</title>
<a xlink:href="../../SDMLib/src/org/sdmlib/replication/Lane.java" xlink:title="&lt;TABLE&gt;">
<polygon fill="none" stroke="black" points="365,-120 365,-137 458,-137 458,-120 365,-120"/>
<text text-anchor="start" x="392" y="-126.5" font-family="Arial" font-size="10.00"> </text>
<text text-anchor="start" x="396" y="-126.5" font-family="Arial" font-size="10.00">l5 :Lane</text>
</a>
<polygon fill="none" stroke="black" points="365,-100 365,-120 458,-120 458,-100 365,-100"/>
<text text-anchor="start" x="370" y="-108" font-family="Arial" font-size="10.00">name = &quot;AbuLane&quot;</text>
</g>
<!-- taskboard&#45;&#45;l5 -->
<g id="edge8" class="edge"><title>taskboard&#45;&#45;l5</title>
<path fill="none" stroke="black" d="M411,-178.097C411,-166.446 411,-152.705 411,-141.513"/>
<text text-anchor="middle" x="415.226" y="-148.076" font-family="Arial" font-size="10.00">lanes</text>
<text text-anchor="middle" x="406.774" y="-166.534" font-family="Arial" font-size="10.00">board</text>
</g>
<!-- l8 -->
<g id="node10" class="node"><title>l8</title>
<a xlink:href="../../SDMLib/src/org/sdmlib/replication/Lane.java" xlink:title="&lt;TABLE&gt;">
<polygon fill="none" stroke="black" points="519,-120 519,-137 615,-137 615,-120 519,-120"/>
<text text-anchor="start" x="547.5" y="-126.5" font-family="Arial" font-size="10.00"> </text>
<text text-anchor="start" x="551.5" y="-126.5" font-family="Arial" font-size="10.00">l8 :Lane</text>
</a>
<polygon fill="none" stroke="black" points="519,-100 519,-120 615,-120 615,-100 519,-100"/>
<text text-anchor="start" x="524" y="-108" font-family="Arial" font-size="10.00">name = &quot;KarliLane&quot;</text>
</g>
<!-- taskboard&#45;&#45;l8 -->
<g id="edge10" class="edge"><title>taskboard&#45;&#45;l8</title>
<path fill="none" stroke="black" d="M457.383,-178.322C479.297,-166.662 505.22,-152.87 526.353,-141.626"/>
<text text-anchor="middle" x="520.337" y="-147.114" font-family="Arial" font-size="10.00">lanes</text>
<text text-anchor="middle" x="463.399" y="-167.834" font-family="Arial" font-size="10.00">board</text>
</g>
<!-- l11 -->
<g id="node12" class="node"><title>l11</title>
<a xlink:href="../../SDMLib/src/org/sdmlib/replication/Lane.java" xlink:title="&lt;TABLE&gt;">
<polygon fill="none" stroke="black" points="704,-120 704,-137 810,-137 810,-120 704,-120"/>
<text text-anchor="start" x="735" y="-126.5" font-family="Arial" font-size="10.00"> </text>
<text text-anchor="start" x="739" y="-126.5" font-family="Arial" font-size="10.00">l11 :Lane</text>
</a>
<polygon fill="none" stroke="black" points="704,-100 704,-120 810,-120 810,-100 704,-100"/>
<text text-anchor="start" x="709" y="-108" font-family="Arial" font-size="10.00">name = &quot;SabineLane&quot;</text>
</g>
<!-- taskboard&#45;&#45;l11 -->
<g id="edge12" class="edge"><title>taskboard&#45;&#45;l11</title>
<path fill="none" stroke="black" d="M482.272,-185.903C545.279,-170.788 636.209,-148.976 695.939,-134.648"/>
<text text-anchor="middle" x="688.112" y="-138.371" font-family="Arial" font-size="10.00">lanes</text>
<text text-anchor="middle" x="490.099" y="-177.179" font-family="Arial" font-size="10.00">board</text>
</g>
<!-- b2 -->
<g id="node6" class="node"><title>b2</title>
<a xlink:href="../../SDMLib/src/org/sdmlib/replication/BoardTask.java" xlink:title="&lt;TABLE&gt;">
<polygon fill="none" stroke="black" points="9,-38 9,-55 162,-55 162,-38 9,-38"/>
<text text-anchor="start" x="51.5" y="-44.5" font-family="Arial" font-size="10.00"> </text>
<text text-anchor="start" x="55.5" y="-44.5" font-family="Arial" font-size="10.00">b2 :BoardTask</text>
</a>
<polygon fill="none" stroke="black" points="9,-4 9,-38 162,-38 162,-4 9,-4"/>
<text text-anchor="start" x="14" y="-26" font-family="Arial" font-size="10.00">name = &quot;showStartGameButton&quot;</text>
<text text-anchor="start" x="14" y="-12" font-family="Arial" font-size="10.00">status = &quot;start&quot;</text>
</g>
<!-- l1&#45;&#45;b2 -->
<g id="edge14" class="edge"><title>l1&#45;&#45;b2</title>
<path fill="none" stroke="black" d="M211.472,-96.4944C189.998,-85.3739 163.499,-71.6511 140.313,-59.6443"/>
<text text-anchor="middle" x="150.305" y="-57.5592" font-family="Arial" font-size="10.00">tasks</text>
<text text-anchor="middle" x="201.481" y="-93.5795" font-family="Arial" font-size="10.00">lane</text>
</g>
<!-- b3 -->
<g id="node7" class="node"><title>b3</title>
<a xlink:href="../../SDMLib/src/org/sdmlib/replication/BoardTask.java" xlink:title="&lt;TABLE&gt;">
<polygon fill="none" stroke="black" points="196,-38 196,-55 301,-55 301,-38 196,-38"/>
<text text-anchor="start" x="214.5" y="-44.5" font-family="Arial" font-size="10.00"> </text>
<text text-anchor="start" x="218.5" y="-44.5" font-family="Arial" font-size="10.00">b3 :BoardTask</text>
</a>
<polygon fill="none" stroke="black" points="196,-4 196,-38 301,-38 301,-4 196,-4"/>
<text text-anchor="start" x="201" y="-26" font-family="Arial" font-size="10.00">name = &quot;startClients&quot;</text>
<text text-anchor="start" x="201" y="-12" font-family="Arial" font-size="10.00">status = &quot;start&quot;</text>
</g>
<!-- l1&#45;&#45;b3 -->
<g id="edge16" class="edge"><title>l1&#45;&#45;b3</title>
<path fill="none" stroke="black" d="M251.764,-96.4944C251.128,-85.4243 250.343,-71.7752 249.656,-59.8074"/>
<text text-anchor="middle" x="254.395" y="-66.113" font-family="Arial" font-size="10.00">tasks</text>
<text text-anchor="middle" x="247.025" y="-85.1887" font-family="Arial" font-size="10.00">lane</text>
</g>
<!-- b6 -->
<g id="node9" class="node"><title>b6</title>
<a xlink:href="../../SDMLib/src/org/sdmlib/replication/BoardTask.java" xlink:title="&lt;TABLE&gt;">
<polygon fill="none" stroke="black" points="335,-38 335,-55 488,-55 488,-38 335,-38"/>
<text text-anchor="start" x="377.5" y="-44.5" font-family="Arial" font-size="10.00"> </text>
<text text-anchor="start" x="381.5" y="-44.5" font-family="Arial" font-size="10.00">b6 :BoardTask</text>
</a>
<polygon fill="none" stroke="black" points="335,-4 335,-38 488,-38 488,-4 335,-4"/>
<text text-anchor="start" x="340" y="-26" font-family="Arial" font-size="10.00">name = &quot;showStartGameButton&quot;</text>
<text text-anchor="start" x="340" y="-12" font-family="Arial" font-size="10.00">status = &quot;start&quot;</text>
</g>
<!-- l5&#45;&#45;b6 -->
<g id="edge18" class="edge"><title>l5&#45;&#45;b6</title>
<path fill="none" stroke="black" d="M411,-96.4944C411,-85.4243 411,-71.7752 411,-59.8074"/>
<text text-anchor="middle" x="415.226" y="-66.3705" font-family="Arial" font-size="10.00">tasks</text>
<text text-anchor="middle" x="406.774" y="-84.9313" font-family="Arial" font-size="10.00">lane</text>
</g>
<!-- b9 -->
<g id="node11" class="node"><title>b9</title>
<a xlink:href="../../SDMLib/src/org/sdmlib/replication/BoardTask.java" xlink:title="&lt;TABLE&gt;">
<polygon fill="none" stroke="black" points="522,-38 522,-55 675,-55 675,-38 522,-38"/>
<text text-anchor="start" x="564.5" y="-44.5" font-family="Arial" font-size="10.00"> </text>
<text text-anchor="start" x="568.5" y="-44.5" font-family="Arial" font-size="10.00">b9 :BoardTask</text>
</a>
<polygon fill="none" stroke="black" points="522,-4 522,-38 675,-38 675,-4 522,-4"/>
<text text-anchor="start" x="527" y="-26" font-family="Arial" font-size="10.00">name = &quot;showStartGameButton&quot;</text>
<text text-anchor="start" x="527" y="-12" font-family="Arial" font-size="10.00">status = &quot;start&quot;</text>
</g>
<!-- l8&#45;&#45;b9 -->
<g id="edge20" class="edge"><title>l8&#45;&#45;b9</title>
<path fill="none" stroke="black" d="M574.663,-96.4944C578.607,-85.4243 583.471,-71.7752 587.735,-59.8074"/>
<text text-anchor="middle" x="588.674" y="-67.2632" font-family="Arial" font-size="10.00">tasks</text>
<text text-anchor="middle" x="573.724" y="-84.0386" font-family="Arial" font-size="10.00">lane</text>
</g>
<!-- b12 -->
<g id="node13" class="node"><title>b12</title>
<a xlink:href="../../SDMLib/src/org/sdmlib/replication/BoardTask.java" xlink:title="&lt;TABLE&gt;">
<polygon fill="none" stroke="black" points="709,-38 709,-55 862,-55 862,-38 709,-38"/>
<text text-anchor="start" x="749" y="-44.5" font-family="Arial" font-size="10.00"> </text>
<text text-anchor="start" x="753" y="-44.5" font-family="Arial" font-size="10.00">b12 :BoardTask</text>
</a>
<polygon fill="none" stroke="black" points="709,-4 709,-38 862,-38 862,-4 709,-4"/>
<text text-anchor="start" x="714" y="-26" font-family="Arial" font-size="10.00">name = &quot;showStartGameButton&quot;</text>
<text text-anchor="start" x="714" y="-12" font-family="Arial" font-size="10.00">status = &quot;&quot;</text>
</g>
<!-- l11&#45;&#45;b12 -->
<g id="edge22" class="edge"><title>l11&#45;&#45;b12</title>
<path fill="none" stroke="black" d="M763.921,-96.4944C767.484,-85.4243 771.877,-71.7752 775.729,-59.8074"/>
<text text-anchor="middle" x="776.975" y="-67.2294" font-family="Arial" font-size="10.00">tasks</text>
<text text-anchor="middle" x="762.675" y="-84.0724" font-family="Arial" font-size="10.00">lane</text>
</g>
</g>
</svg>
