<?xml version="1.0" encoding="UTF-8" standalone="no"?>
<!DOCTYPE svg PUBLIC "-//W3C//DTD SVG 1.1//EN"
 "http://www.w3.org/Graphics/SVG/1.1/DTD/svg11.dtd">
<!-- Generated by graphviz version 2.28.0 (20110507.0327)
 -->
<!-- Title: ObjectDiagram Pages: 1 -->
<svg width="348pt" height="350pt"
 viewBox="0.00 0.00 348.00 350.00" xmlns="http://www.w3.org/2000/svg" xmlns:xlink="http://www.w3.org/1999/xlink">
<g id="graph1" class="graph" transform="scale(1 1) rotate(0) translate(4 346)">
<title>ObjectDiagram</title>
<polygon fill="white" stroke="white" points="-4,5 -4,-346 345,-346 345,5 -4,5"/>
<!-- taskBoardLanesListener -->
<g id="node1" class="node"><title>taskBoardLanesListener</title>
<image xlink:href="icons/worker.png" width="80px" height="61px" preserveAspectRatio="xMinYMin meet" x="130" y="-335"/>
<a xlink:href="../examples/org/sdmlib/examples/replication/maumau/ReplicationMauMauServer.java" xlink:title="&lt;TABLE&gt;">
<polygon fill="none" stroke="black" points="8,-256 8,-272 332,-272 332,-256 8,-256"/>
<text text-anchor="start" x="11.5" y="-262" font-family="Times New Roman,serif" font-size="10.00"> </text>
<text text-anchor="start" x="14.5" y="-262" font-family="Times New Roman,serif" font-size="10.00">taskBoardLanesListener :ReplicationMauMauServer$TaskBoardLanesListener</text>
</a>
</g>
<!-- taskboard -->
<g id="node2" class="node"><title>taskboard</title>
<image xlink:href="icons/shared.png" width="70px" height="23px" preserveAspectRatio="xMinYMin meet" x="135" y="-209"/>
<a xlink:href="../../SDMLib/src/org/sdmlib/replication/TaskFlowBoard.java" xlink:title="&lt;TABLE&gt;">
<polygon fill="none" stroke="black" points="111,-168 111,-184 229,-184 229,-168 111,-168"/>
<text text-anchor="start" x="114.5" y="-174" font-family="Times New Roman,serif" font-size="10.00"> </text>
<text text-anchor="start" x="117.5" y="-174" font-family="Times New Roman,serif" font-size="10.00">taskboard :TaskFlowBoard</text>
</a>
</g>
<!-- taskBoardLanesListener&#45;&#45;taskboard -->
<g id="edge2" class="edge"><title>taskBoardLanesListener&#45;&#45;taskboard</title>
<path fill="none" stroke="black" d="M170,-252.383C170,-239.874 170,-226.673 170,-215.731"/>
<text text-anchor="middle" x="174.226" y="-222.294" font-family="Times New Roman,serif" font-size="10.00">taskFlowBoard</text>
</g>
<!-- serverLane -->
<g id="node3" class="node"><title>serverLane</title>
<a xlink:href="../../SDMLib/src/org/sdmlib/replication/Lane.java" xlink:title="&lt;TABLE&gt;">
<polygon fill="none" stroke="black" points="72,-106 72,-123 151,-123 151,-106 72,-106"/>
<text text-anchor="start" x="75.5" y="-112.5" font-family="Times New Roman,serif" font-size="10.00"> </text>
<text text-anchor="start" x="78.5" y="-112.5" font-family="Times New Roman,serif" font-size="10.00">serverLane :Lane</text>
</a>
<polygon fill="none" stroke="black" points="72,-86 72,-106 151,-106 151,-86 72,-86"/>
<text text-anchor="start" x="77" y="-94" font-family="Times New Roman,serif" font-size="10.00">name = &quot;server&quot;</text>
</g>
<!-- taskboard&#45;&#45;serverLane -->
<g id="edge4" class="edge"><title>taskboard&#45;&#45;serverLane</title>
<path fill="none" stroke="black" d="M152.298,-164.097C144.016,-152.446 134.248,-138.705 126.292,-127.513"/>
<text text-anchor="middle" x="134.988" y="-129.951" font-family="Times New Roman,serif" font-size="10.00">lanes</text>
<text text-anchor="middle" x="143.603" y="-156.659" font-family="Times New Roman,serif" font-size="10.00">board</text>
</g>
<!-- l2 -->
<g id="node4" class="node"><title>l2</title>
<a xlink:href="../../SDMLib/src/org/sdmlib/replication/Lane.java" xlink:title="&lt;TABLE&gt;">
<polygon fill="none" stroke="black" points="185,-106 185,-123 274,-123 274,-106 185,-106"/>
<text text-anchor="start" x="212.5" y="-112.5" font-family="Times New Roman,serif" font-size="10.00"> </text>
<text text-anchor="start" x="215.5" y="-112.5" font-family="Times New Roman,serif" font-size="10.00">l2 :Lane</text>
</a>
<polygon fill="none" stroke="black" points="185,-86 185,-106 274,-106 274,-86 185,-86"/>
<text text-anchor="start" x="190" y="-94" font-family="Times New Roman,serif" font-size="10.00">name = &quot;AbuLane&quot;</text>
</g>
<!-- taskboard&#45;&#45;l2 -->
<g id="edge6" class="edge"><title>taskboard&#45;&#45;l2</title>
<path fill="none" stroke="black" d="M187.702,-164.097C195.984,-152.446 205.752,-138.705 213.708,-127.513"/>
<text text-anchor="middle" x="211.901" y="-134.848" font-family="Times New Roman,serif" font-size="10.00">lanes</text>
<text text-anchor="middle" x="189.508" y="-151.762" font-family="Times New Roman,serif" font-size="10.00">board</text>
</g>
<!-- b3 -->
<g id="node5" class="node"><title>b3</title>
<a xlink:href="../../SDMLib/src/org/sdmlib/replication/BoardTask.java" xlink:title="&lt;TABLE&gt;">
<polygon fill="none" stroke="black" points="195,-24 195,-41 263,-41 263,-24 195,-24"/>
<text text-anchor="start" x="198.5" y="-30.5" font-family="Times New Roman,serif" font-size="10.00"> </text>
<text text-anchor="start" x="201.5" y="-30.5" font-family="Times New Roman,serif" font-size="10.00">b3 :BoardTask</text>
</a>
<polygon fill="none" stroke="black" points="195,-4 195,-24 263,-24 263,-4 195,-4"/>
<text text-anchor="start" x="200" y="-12" font-family="Times New Roman,serif" font-size="10.00">name = &quot;init&quot;</text>
</g>
<!-- l2&#45;&#45;b3 -->
<g id="edge8" class="edge"><title>l2&#45;&#45;b3</title>
<path fill="none" stroke="black" d="M229,-82.1396C229,-70.759 229,-56.8929 229,-45.5569"/>
<text text-anchor="middle" x="233.226" y="-52.12" font-family="Times New Roman,serif" font-size="10.00">tasks</text>
<text text-anchor="middle" x="224.774" y="-70.5766" font-family="Times New Roman,serif" font-size="10.00">lane</text>
</g>
</g>
</svg>
