<?xml version="1.0" encoding="UTF-8" standalone="no"?>
<!DOCTYPE svg PUBLIC "-//W3C//DTD SVG 1.1//EN"
 "http://www.w3.org/Graphics/SVG/1.1/DTD/svg11.dtd">
<!-- Generated by graphviz version 2.28.0 (20110507.0327)
 -->
<!-- Title: ObjectDiagram Pages: 1 -->
<svg width="820pt" height="364pt"
 viewBox="0.00 0.00 820.00 364.00" xmlns="http://www.w3.org/2000/svg" xmlns:xlink="http://www.w3.org/1999/xlink">
<g id="graph1" class="graph" transform="scale(1 1) rotate(0) translate(4 360)">
<title>ObjectDiagram</title>
<polygon fill="white" stroke="white" points="-4,5 -4,-360 817,-360 817,5 -4,5"/>
<!-- taskBoardLanesListener -->
<g id="node1" class="node"><title>taskBoardLanesListener</title>
<image xlink:href="icons/worker.png" width="80px" height="61px" preserveAspectRatio="xMinYMin meet" x="344" y="-349"/>
<a xlink:href="../examples/org/sdmlib/examples/replication/maumau/ReplicationMauMauServer.java" xlink:title="&lt;TABLE&gt;">
<polygon fill="none" stroke="black" points="222,-270 222,-286 546,-286 546,-270 222,-270"/>
<text text-anchor="start" x="225.5" y="-276" font-family="Times New Roman,serif" font-size="10.00"> </text>
<text text-anchor="start" x="228.5" y="-276" font-family="Times New Roman,serif" font-size="10.00">taskBoardLanesListener :ReplicationMauMauServer$TaskBoardLanesListener</text>
</a>
</g>
<!-- taskboard -->
<g id="node2" class="node"><title>taskboard</title>
<image xlink:href="icons/shared.png" width="70px" height="23px" preserveAspectRatio="xMinYMin meet" x="349" y="-223"/>
<a xlink:href="../../SDMLib/src/org/sdmlib/replication/TaskFlowBoard.java" xlink:title="&lt;TABLE&gt;">
<polygon fill="none" stroke="black" points="325,-182 325,-198 443,-198 443,-182 325,-182"/>
<text text-anchor="start" x="328.5" y="-188" font-family="Times New Roman,serif" font-size="10.00"> </text>
<text text-anchor="start" x="331.5" y="-188" font-family="Times New Roman,serif" font-size="10.00">taskboard :TaskFlowBoard</text>
</a>
</g>
<!-- taskBoardLanesListener&#45;&#45;taskboard -->
<g id="edge2" class="edge"><title>taskBoardLanesListener&#45;&#45;taskboard</title>
<path fill="none" stroke="black" d="M384,-266.383C384,-253.874 384,-240.673 384,-229.731"/>
<text text-anchor="middle" x="388.226" y="-236.294" font-family="Times New Roman,serif" font-size="10.00">taskFlowBoard</text>
</g>
<!-- serverLane -->
<g id="node3" class="node"><title>serverLane</title>
<a xlink:href="../../SDMLib/src/org/sdmlib/replication/Lane.java" xlink:title="&lt;TABLE&gt;">
<polygon fill="none" stroke="black" points="54,-120 54,-137 133,-137 133,-120 54,-120"/>
<text text-anchor="start" x="57.5" y="-126.5" font-family="Times New Roman,serif" font-size="10.00"> </text>
<text text-anchor="start" x="60.5" y="-126.5" font-family="Times New Roman,serif" font-size="10.00">serverLane :Lane</text>
</a>
<polygon fill="none" stroke="black" points="54,-100 54,-120 133,-120 133,-100 54,-100"/>
<text text-anchor="start" x="59" y="-108" font-family="Times New Roman,serif" font-size="10.00">name = &quot;server&quot;</text>
</g>
<!-- taskboard&#45;&#45;serverLane -->
<g id="edge4" class="edge"><title>taskboard&#45;&#45;serverLane</title>
<path fill="none" stroke="black" d="M316.782,-187.828C269.447,-176.592 204.822,-160.137 149,-142 146.218,-141.096 143.375,-140.127 140.518,-139.117"/>
<text text-anchor="middle" x="150.47" y="-135.641" font-family="Times New Roman,serif" font-size="10.00">lanes</text>
<text text-anchor="middle" x="306.983" y="-187.324" font-family="Times New Roman,serif" font-size="10.00">board</text>
</g>
<!-- l1 -->
<g id="node4" class="node"><title>l1</title>
<a xlink:href="../../SDMLib/src/org/sdmlib/replication/Lane.java" xlink:title="&lt;TABLE&gt;">
<polygon fill="none" stroke="black" points="167,-120 167,-137 302,-137 302,-120 167,-120"/>
<text text-anchor="start" x="217.5" y="-126.5" font-family="Times New Roman,serif" font-size="10.00"> </text>
<text text-anchor="start" x="220.5" y="-126.5" font-family="Times New Roman,serif" font-size="10.00">l1 :Lane</text>
</a>
<polygon fill="none" stroke="black" points="167,-100 167,-120 302,-120 302,-100 167,-100"/>
<text text-anchor="start" x="172" y="-108" font-family="Times New Roman,serif" font-size="10.00">name = &quot;play7WorkFlowLane&quot;</text>
</g>
<!-- taskboard&#45;&#45;l1 -->
<g id="edge6" class="edge"><title>taskboard&#45;&#45;l1</title>
<path fill="none" stroke="black" d="M339.401,-178.322C318.33,-166.662 293.404,-152.87 273.083,-141.626"/>
<text text-anchor="middle" x="283.059" y="-139.816" font-family="Times New Roman,serif" font-size="10.00">lanes</text>
<text text-anchor="middle" x="329.425" y="-175.132" font-family="Times New Roman,serif" font-size="10.00">board</text>
</g>
<!-- l5 -->
<g id="node7" class="node"><title>l5</title>
<a xlink:href="../../SDMLib/src/org/sdmlib/replication/Lane.java" xlink:title="&lt;TABLE&gt;">
<polygon fill="none" stroke="black" points="340,-120 340,-137 429,-137 429,-120 340,-120"/>
<text text-anchor="start" x="367.5" y="-126.5" font-family="Times New Roman,serif" font-size="10.00"> </text>
<text text-anchor="start" x="370.5" y="-126.5" font-family="Times New Roman,serif" font-size="10.00">l5 :Lane</text>
</a>
<polygon fill="none" stroke="black" points="340,-100 340,-120 429,-120 429,-100 340,-100"/>
<text text-anchor="start" x="345" y="-108" font-family="Times New Roman,serif" font-size="10.00">name = &quot;AbuLane&quot;</text>
</g>
<!-- taskboard&#45;&#45;l5 -->
<g id="edge8" class="edge"><title>taskboard&#45;&#45;l5</title>
<path fill="none" stroke="black" d="M384,-178.097C384,-166.446 384,-152.705 384,-141.513"/>
<text text-anchor="middle" x="388.226" y="-148.076" font-family="Times New Roman,serif" font-size="10.00">lanes</text>
<text text-anchor="middle" x="379.774" y="-166.534" font-family="Times New Roman,serif" font-size="10.00">board</text>
</g>
<!-- l8 -->
<g id="node9" class="node"><title>l8</title>
<a xlink:href="../../SDMLib/src/org/sdmlib/replication/Lane.java" xlink:title="&lt;TABLE&gt;">
<polygon fill="none" stroke="black" points="487,-120 487,-137 577,-137 577,-120 487,-120"/>
<text text-anchor="start" x="515" y="-126.5" font-family="Times New Roman,serif" font-size="10.00"> </text>
<text text-anchor="start" x="518" y="-126.5" font-family="Times New Roman,serif" font-size="10.00">l8 :Lane</text>
</a>
<polygon fill="none" stroke="black" points="487,-100 487,-120 577,-120 577,-100 487,-100"/>
<text text-anchor="start" x="492" y="-108" font-family="Times New Roman,serif" font-size="10.00">name = &quot;KarliLane&quot;</text>
</g>
<!-- taskboard&#45;&#45;l8 -->
<g id="edge10" class="edge"><title>taskboard&#45;&#45;l8</title>
<path fill="none" stroke="black" d="M428.004,-178.322C448.795,-166.662 473.388,-152.87 493.438,-141.626"/>
<text text-anchor="middle" x="487.6" y="-147.245" font-family="Times New Roman,serif" font-size="10.00">lanes</text>
<text text-anchor="middle" x="433.842" y="-167.703" font-family="Times New Roman,serif" font-size="10.00">board</text>
</g>
<!-- l11 -->
<g id="node11" class="node"><title>l11</title>
<a xlink:href="../../SDMLib/src/org/sdmlib/replication/Lane.java" xlink:title="&lt;TABLE&gt;">
<polygon fill="none" stroke="black" points="660,-120 660,-137 758,-137 758,-120 660,-120"/>
<text text-anchor="start" x="689.5" y="-126.5" font-family="Times New Roman,serif" font-size="10.00"> </text>
<text text-anchor="start" x="692.5" y="-126.5" font-family="Times New Roman,serif" font-size="10.00">l11 :Lane</text>
</a>
<polygon fill="none" stroke="black" points="660,-100 660,-120 758,-120 758,-100 660,-100"/>
<text text-anchor="start" x="665" y="-108" font-family="Times New Roman,serif" font-size="10.00">name = &quot;SabineLane&quot;</text>
</g>
<!-- taskboard&#45;&#45;l11 -->
<g id="edge12" class="edge"><title>taskboard&#45;&#45;l11</title>
<path fill="none" stroke="black" d="M451.34,-185.802C510.558,-170.679 595.807,-148.908 651.786,-134.612"/>
<text text-anchor="middle" x="644.05" y="-138.449" font-family="Times New Roman,serif" font-size="10.00">lanes</text>
<text text-anchor="middle" x="459.076" y="-176.965" font-family="Times New Roman,serif" font-size="10.00">board</text>
</g>
<!-- b2 -->
<g id="node5" class="node"><title>b2</title>
<a xlink:href="../../SDMLib/src/org/sdmlib/replication/BoardTask.java" xlink:title="&lt;TABLE&gt;">
<polygon fill="none" stroke="black" points="8,-38 8,-55 149,-55 149,-38 8,-38"/>
<text text-anchor="start" x="48" y="-44.5" font-family="Times New Roman,serif" font-size="10.00"> </text>
<text text-anchor="start" x="51" y="-44.5" font-family="Times New Roman,serif" font-size="10.00">b2 :BoardTask</text>
</a>
<polygon fill="none" stroke="black" points="8,-4 8,-38 149,-38 149,-4 8,-4"/>
<text text-anchor="start" x="13" y="-26" font-family="Times New Roman,serif" font-size="10.00">name = &quot;showStartGameButton&quot;</text>
<text text-anchor="start" x="13" y="-12" font-family="Times New Roman,serif" font-size="10.00">status = &quot;start&quot;</text>
</g>
<!-- l1&#45;&#45;b2 -->
<g id="edge14" class="edge"><title>l1&#45;&#45;b2</title>
<path fill="none" stroke="black" d="M195.438,-96.4944C175.498,-85.3739 150.892,-71.6511 129.362,-59.6443"/>
<text text-anchor="middle" x="139.336" y="-57.8676" font-family="Times New Roman,serif" font-size="10.00">tasks</text>
<text text-anchor="middle" x="185.464" y="-93.271" font-family="Times New Roman,serif" font-size="10.00">lane</text>
</g>
<!-- b3 -->
<g id="node6" class="node"><title>b3</title>
<a xlink:href="../../SDMLib/src/org/sdmlib/replication/BoardTask.java" xlink:title="&lt;TABLE&gt;">
<polygon fill="none" stroke="black" points="183,-38 183,-55 280,-55 280,-38 183,-38"/>
<text text-anchor="start" x="201" y="-44.5" font-family="Times New Roman,serif" font-size="10.00"> </text>
<text text-anchor="start" x="204" y="-44.5" font-family="Times New Roman,serif" font-size="10.00">b3 :BoardTask</text>
</a>
<polygon fill="none" stroke="black" points="183,-4 183,-38 280,-38 280,-4 183,-4"/>
<text text-anchor="start" x="188" y="-26" font-family="Times New Roman,serif" font-size="10.00">name = &quot;startClients&quot;</text>
<text text-anchor="start" x="188" y="-12" font-family="Times New Roman,serif" font-size="10.00">status = &quot;start&quot;</text>
</g>
<!-- l1&#45;&#45;b3 -->
<g id="edge16" class="edge"><title>l1&#45;&#45;b3</title>
<path fill="none" stroke="black" d="M233.258,-96.4944C232.877,-85.4243 232.406,-71.7752 231.993,-59.8074"/>
<text text-anchor="middle" x="236.529" y="-66.2194" font-family="Times New Roman,serif" font-size="10.00">tasks</text>
<text text-anchor="middle" x="228.722" y="-85.0823" font-family="Times New Roman,serif" font-size="10.00">lane</text>
</g>
<!-- b6 -->
<g id="node8" class="node"><title>b6</title>
<a xlink:href="../../SDMLib/src/org/sdmlib/replication/BoardTask.java" xlink:title="&lt;TABLE&gt;">
<polygon fill="none" stroke="black" points="314,-38 314,-55 455,-55 455,-38 314,-38"/>
<text text-anchor="start" x="354" y="-44.5" font-family="Times New Roman,serif" font-size="10.00"> </text>
<text text-anchor="start" x="357" y="-44.5" font-family="Times New Roman,serif" font-size="10.00">b6 :BoardTask</text>
</a>
<polygon fill="none" stroke="black" points="314,-4 314,-38 455,-38 455,-4 314,-4"/>
<text text-anchor="start" x="319" y="-26" font-family="Times New Roman,serif" font-size="10.00">name = &quot;showStartGameButton&quot;</text>
<text text-anchor="start" x="319" y="-12" font-family="Times New Roman,serif" font-size="10.00">status = &quot;start&quot;</text>
</g>
<!-- l5&#45;&#45;b6 -->
<g id="edge18" class="edge"><title>l5&#45;&#45;b6</title>
<path fill="none" stroke="black" d="M384,-96.4944C384,-85.4243 384,-71.7752 384,-59.8074"/>
<text text-anchor="middle" x="388.226" y="-66.3705" font-family="Times New Roman,serif" font-size="10.00">tasks</text>
<text text-anchor="middle" x="379.774" y="-84.9313" font-family="Times New Roman,serif" font-size="10.00">lane</text>
</g>
<!-- b9 -->
<g id="node10" class="node"><title>b9</title>
<a xlink:href="../../SDMLib/src/org/sdmlib/replication/BoardTask.java" xlink:title="&lt;TABLE&gt;">
<polygon fill="none" stroke="black" points="489,-38 489,-55 630,-55 630,-38 489,-38"/>
<text text-anchor="start" x="529" y="-44.5" font-family="Times New Roman,serif" font-size="10.00"> </text>
<text text-anchor="start" x="532" y="-44.5" font-family="Times New Roman,serif" font-size="10.00">b9 :BoardTask</text>
</a>
<polygon fill="none" stroke="black" points="489,-4 489,-38 630,-38 630,-4 489,-4"/>
<text text-anchor="start" x="494" y="-26" font-family="Times New Roman,serif" font-size="10.00">name = &quot;showStartGameButton&quot;</text>
<text text-anchor="start" x="494" y="-12" font-family="Times New Roman,serif" font-size="10.00">status = &quot;start&quot;</text>
</g>
<!-- l8&#45;&#45;b9 -->
<g id="edge20" class="edge"><title>l8&#45;&#45;b9</title>
<path fill="none" stroke="black" d="M538.674,-96.4944C542.11,-85.4243 546.346,-71.7752 550.06,-59.8074"/>
<text text-anchor="middle" x="551.41" y="-67.2158" font-family="Times New Roman,serif" font-size="10.00">tasks</text>
<text text-anchor="middle" x="537.324" y="-84.0859" font-family="Times New Roman,serif" font-size="10.00">lane</text>
</g>
<!-- b12 -->
<g id="node12" class="node"><title>b12</title>
<a xlink:href="../../SDMLib/src/org/sdmlib/replication/BoardTask.java" xlink:title="&lt;TABLE&gt;">
<polygon fill="none" stroke="black" points="664,-31 664,-48 805,-48 805,-31 664,-31"/>
<text text-anchor="start" x="701.5" y="-37.5" font-family="Times New Roman,serif" font-size="10.00"> </text>
<text text-anchor="start" x="704.5" y="-37.5" font-family="Times New Roman,serif" font-size="10.00">b12 :BoardTask</text>
</a>
<polygon fill="none" stroke="black" points="664,-11 664,-31 805,-31 805,-11 664,-11"/>
<text text-anchor="start" x="669" y="-19" font-family="Times New Roman,serif" font-size="10.00">name = &quot;showStartGameButton&quot;</text>
</g>
<!-- l11&#45;&#45;b12 -->
<g id="edge22" class="edge"><title>l11&#45;&#45;b12</title>
<path fill="none" stroke="black" d="M715.18,-96.4944C719.026,-83.1096 723.956,-65.9547 727.805,-52.5597"/>
<text text-anchor="middle" x="729.363" y="-59.9375" font-family="Times New Roman,serif" font-size="10.00">tasks</text>
<text text-anchor="middle" x="713.621" y="-84.1166" font-family="Times New Roman,serif" font-size="10.00">lane</text>
</g>
</g>
</svg>
