<?xml version="1.0" encoding="UTF-8" standalone="no"?>
<!DOCTYPE svg PUBLIC "-//W3C//DTD SVG 1.1//EN"
 "http://www.w3.org/Graphics/SVG/1.1/DTD/svg11.dtd">
<!-- Generated by graphviz version 2.28.0 (20110507.0327)
 -->
<!-- Title: ObjectDiagram Pages: 1 -->
<svg width="1436pt" height="384pt"
 viewBox="0.00 0.00 1436.00 384.00" xmlns="http://www.w3.org/2000/svg" xmlns:xlink="http://www.w3.org/1999/xlink">
<g id="graph1" class="graph" transform="scale(1 1) rotate(0) translate(4 380)">
<title>ObjectDiagram</title>
<polygon fill="white" stroke="white" points="-4,5 -4,-380 1433,-380 1433,5 -4,5"/>
<!-- sabineNode -->
<g id="node1" class="node"><title>sabineNode</title>
<image xlink:href="icons/node.png" width="87px" height="61px" preserveAspectRatio="xMinYMin meet" x="10" y="-357"/>
<a xlink:href="../../SDMLib/src/org/sdmlib/replication/Node.java" xlink:title="&lt;TABLE&gt;">
<polygon fill="none" stroke="black" points="8,-278 8,-294 99,-294 99,-278 8,-278"/>
<text text-anchor="start" x="11.5" y="-284" font-family="Arial" font-size="10.00"> </text>
<text text-anchor="start" x="15.5" y="-284" font-family="Arial" font-size="10.00">sabineNode :Node</text>
</a>
</g>
<!-- s12 -->
<g id="node2" class="node"><title>s12</title>
<image xlink:href="icons/worker.png" width="80px" height="61px" preserveAspectRatio="xMinYMin meet" x="173.5" y="-357"/>
<a xlink:href="../examples/org/sdmlib/examples/replication/maumau/ShowStartGameButtonAction.java" xlink:title="&lt;TABLE&gt;">
<polygon fill="none" stroke="black" points="133,-278 133,-294 294,-294 294,-278 133,-278"/>
<text text-anchor="start" x="136.5" y="-284" font-family="Arial" font-size="10.00"> </text>
<text text-anchor="start" x="140.5" y="-284" font-family="Arial" font-size="10.00">s12 :ShowStartGameButtonAction</text>
</a>
</g>
<!-- taskboard -->
<g id="node3" class="node"><title>taskboard</title>
<image xlink:href="icons/shared.png" width="70px" height="23px" preserveAspectRatio="xMinYMin meet" x="356.5" y="-338"/>
<a xlink:href="../../SDMLib/src/org/sdmlib/replication/TaskFlowBoard.java" xlink:title="&lt;TABLE&gt;">
<polygon fill="none" stroke="black" points="328,-297 328,-313 455,-313 455,-297 328,-297"/>
<text text-anchor="start" x="331.5" y="-303" font-family="Arial" font-size="10.00"> </text>
<text text-anchor="start" x="335.5" y="-303" font-family="Arial" font-size="10.00">taskboard :TaskFlowBoard</text>
</a>
</g>
<!-- l2 -->
<g id="node4" class="node"><title>l2</title>
<a xlink:href="../../SDMLib/src/org/sdmlib/replication/Lane.java" xlink:title="&lt;TABLE&gt;">
<polygon fill="none" stroke="black" points="53,-162 53,-179 134,-179 134,-162 53,-162"/>
<text text-anchor="start" x="74" y="-168.5" font-family="Arial" font-size="10.00"> </text>
<text text-anchor="start" x="78" y="-168.5" font-family="Arial" font-size="10.00">l2 :Lane</text>
</a>
<polygon fill="none" stroke="black" points="53,-142 53,-162 134,-162 134,-142 53,-142"/>
<text text-anchor="start" x="58" y="-150" font-family="Arial" font-size="10.00">name = &quot;server&quot;</text>
</g>
<!-- taskboard&#45;&#45;l2 -->
<g id="edge2" class="edge"><title>taskboard&#45;&#45;l2</title>
<path fill="none" stroke="black" d="M361.118,-293.217C346.497,-282.206 328.163,-269.961 310,-262 243.243,-232.738 212.806,-262.989 150,-226 132.307,-215.58 117.126,-197.796 106.89,-183.616"/>
<text text-anchor="middle" x="115.676" y="-185.892" font-family="Arial" font-size="10.00">lanes</text>
<text text-anchor="middle" x="351.321" y="-288.71" font-family="Arial" font-size="10.00">board</text>
</g>
<!-- l3 -->
<g id="node5" class="node"><title>l3</title>
<a xlink:href="../../SDMLib/src/org/sdmlib/replication/Lane.java" xlink:title="&lt;TABLE&gt;">
<polygon fill="none" stroke="black" points="168,-162 168,-179 311,-179 311,-162 168,-162"/>
<text text-anchor="start" x="220" y="-168.5" font-family="Arial" font-size="10.00"> </text>
<text text-anchor="start" x="224" y="-168.5" font-family="Arial" font-size="10.00">l3 :Lane</text>
</a>
<polygon fill="none" stroke="black" points="168,-142 168,-162 311,-162 311,-142 168,-142"/>
<text text-anchor="start" x="173" y="-150" font-family="Arial" font-size="10.00">name = &quot;play7WorkFlowLane&quot;</text>
</g>
<!-- taskboard&#45;&#45;l3 -->
<g id="edge4" class="edge"><title>taskboard&#45;&#45;l3</title>
<path fill="none" stroke="black" d="M366.915,-293.281C337.449,-263.04 288.039,-212.329 260.035,-183.589"/>
<text text-anchor="middle" x="269.387" y="-184.631" font-family="Arial" font-size="10.00">lanes</text>
<text text-anchor="middle" x="357.563" y="-287.239" font-family="Arial" font-size="10.00">board</text>
</g>
<!-- l6 -->
<g id="node7" class="node"><title>l6</title>
<a xlink:href="../../SDMLib/src/org/sdmlib/replication/Lane.java" xlink:title="&lt;TABLE&gt;">
<polygon fill="none" stroke="black" points="345,-162 345,-179 438,-179 438,-162 345,-162"/>
<text text-anchor="start" x="372" y="-168.5" font-family="Arial" font-size="10.00"> </text>
<text text-anchor="start" x="376" y="-168.5" font-family="Arial" font-size="10.00">l6 :Lane</text>
</a>
<polygon fill="none" stroke="black" points="345,-142 345,-162 438,-162 438,-142 345,-142"/>
<text text-anchor="start" x="350" y="-150" font-family="Arial" font-size="10.00">name = &quot;AbuLane&quot;</text>
</g>
<!-- taskboard&#45;&#45;l6 -->
<g id="edge6" class="edge"><title>taskboard&#45;&#45;l6</title>
<path fill="none" stroke="black" d="M391,-293.281C391,-263.04 391,-212.329 391,-183.589"/>
<text text-anchor="middle" x="395.226" y="-190.152" font-family="Arial" font-size="10.00">lanes</text>
<text text-anchor="middle" x="386.774" y="-281.718" font-family="Arial" font-size="10.00">board</text>
</g>
<!-- l9 -->
<g id="node9" class="node"><title>l9</title>
<a xlink:href="../../SDMLib/src/org/sdmlib/replication/Lane.java" xlink:title="&lt;TABLE&gt;">
<polygon fill="none" stroke="black" points="499,-162 499,-179 595,-179 595,-162 499,-162"/>
<text text-anchor="start" x="527.5" y="-168.5" font-family="Arial" font-size="10.00"> </text>
<text text-anchor="start" x="531.5" y="-168.5" font-family="Arial" font-size="10.00">l9 :Lane</text>
</a>
<polygon fill="none" stroke="black" points="499,-142 499,-162 595,-162 595,-142 499,-142"/>
<text text-anchor="start" x="504" y="-150" font-family="Arial" font-size="10.00">name = &quot;KarliLane&quot;</text>
</g>
<!-- taskboard&#45;&#45;l9 -->
<g id="edge8" class="edge"><title>taskboard&#45;&#45;l9</title>
<path fill="none" stroke="black" d="M415.719,-293.281C445.96,-263.04 496.671,-212.329 525.411,-183.589"/>
<text text-anchor="middle" x="521.991" y="-190.486" font-family="Arial" font-size="10.00">lanes</text>
<text text-anchor="middle" x="419.139" y="-281.384" font-family="Arial" font-size="10.00">board</text>
</g>
<!-- l1 -->
<g id="node11" class="node"><title>l1</title>
<a xlink:href="../../SDMLib/src/org/sdmlib/replication/Lane.java" xlink:title="&lt;TABLE&gt;">
<polygon fill="none" stroke="black" points="684,-162 684,-179 790,-179 790,-162 684,-162"/>
<text text-anchor="start" x="717.5" y="-168.5" font-family="Arial" font-size="10.00"> </text>
<text text-anchor="start" x="721.5" y="-168.5" font-family="Arial" font-size="10.00">l1 :Lane</text>
</a>
<polygon fill="none" stroke="black" points="684,-142 684,-162 790,-162 790,-142 684,-142"/>
<text text-anchor="start" x="689" y="-150" font-family="Arial" font-size="10.00">name = &quot;SabineLane&quot;</text>
</g>
<!-- taskboard&#45;&#45;l1 -->
<g id="edge10" class="edge"><title>taskboard&#45;&#45;l1</title>
<path fill="none" stroke="black" d="M453.966,-293.324C498.497,-275.499 559.395,-250.37 612,-226 640.758,-212.677 672.543,-196.381 696.865,-183.568"/>
<text text-anchor="middle" x="690.804" y="-189.022" font-family="Arial" font-size="10.00">lanes</text>
<text text-anchor="middle" x="460.798" y="-283.522" font-family="Arial" font-size="10.00">board</text>
</g>
<!-- b4 -->
<g id="node6" class="node"><title>b4</title>
<a xlink:href="../../SDMLib/src/org/sdmlib/replication/BoardTask.java" xlink:title="&lt;TABLE&gt;">
<polygon fill="none" stroke="black" points="162,-38 162,-55 267,-55 267,-38 162,-38"/>
<text text-anchor="start" x="180.5" y="-44.5" font-family="Arial" font-size="10.00"> </text>
<text text-anchor="start" x="184.5" y="-44.5" font-family="Arial" font-size="10.00">b4 :BoardTask</text>
</a>
<polygon fill="none" stroke="black" points="162,-4 162,-38 267,-38 267,-4 162,-4"/>
<text text-anchor="start" x="167" y="-26" font-family="Arial" font-size="10.00">name = &quot;startClients&quot;</text>
<text text-anchor="start" x="167" y="-12" font-family="Arial" font-size="10.00">status = &quot;start&quot;</text>
</g>
<!-- l3&#45;&#45;b4 -->
<g id="edge12" class="edge"><title>l3&#45;&#45;b4</title>
<path fill="none" stroke="black" d="M234.816,-138.408C230.646,-116.891 224.216,-83.7134 219.606,-59.9275"/>
<text text-anchor="middle" x="225.479" y="-65.521" font-family="Arial" font-size="10.00">tasks</text>
<text text-anchor="middle" x="228.942" y="-127.815" font-family="Arial" font-size="10.00">lane</text>
</g>
<!-- b7 -->
<g id="node8" class="node"><title>b7</title>
<a xlink:href="../../SDMLib/src/org/sdmlib/replication/BoardTask.java" xlink:title="&lt;TABLE&gt;">
<polygon fill="none" stroke="black" points="301,-38 301,-55 454,-55 454,-38 301,-38"/>
<text text-anchor="start" x="343.5" y="-44.5" font-family="Arial" font-size="10.00"> </text>
<text text-anchor="start" x="347.5" y="-44.5" font-family="Arial" font-size="10.00">b7 :BoardTask</text>
</a>
<polygon fill="none" stroke="black" points="301,-4 301,-38 454,-38 454,-4 301,-4"/>
<text text-anchor="start" x="306" y="-26" font-family="Arial" font-size="10.00">name = &quot;showStartGameButton&quot;</text>
<text text-anchor="start" x="306" y="-12" font-family="Arial" font-size="10.00">status = &quot;start&quot;</text>
</g>
<!-- l6&#45;&#45;b7 -->
<g id="edge14" class="edge"><title>l6&#45;&#45;b7</title>
<path fill="none" stroke="black" d="M388.657,-138.408C386.321,-116.891 382.721,-83.7134 380.139,-59.9275"/>
<text text-anchor="middle" x="385.319" y="-65.9817" font-family="Arial" font-size="10.00">tasks</text>
<text text-anchor="middle" x="383.477" y="-127.354" font-family="Arial" font-size="10.00">lane</text>
</g>
<!-- b10 -->
<g id="node10" class="node"><title>b10</title>
<a xlink:href="../../SDMLib/src/org/sdmlib/replication/BoardTask.java" xlink:title="&lt;TABLE&gt;">
<polygon fill="none" stroke="black" points="488,-38 488,-55 641,-55 641,-38 488,-38"/>
<text text-anchor="start" x="528" y="-44.5" font-family="Arial" font-size="10.00"> </text>
<text text-anchor="start" x="532" y="-44.5" font-family="Arial" font-size="10.00">b10 :BoardTask</text>
</a>
<polygon fill="none" stroke="black" points="488,-4 488,-38 641,-38 641,-4 488,-4"/>
<text text-anchor="start" x="493" y="-26" font-family="Arial" font-size="10.00">name = &quot;showStartGameButton&quot;</text>
<text text-anchor="start" x="493" y="-12" font-family="Arial" font-size="10.00">status = &quot;start&quot;</text>
</g>
<!-- l9&#45;&#45;b10 -->
<g id="edge16" class="edge"><title>l9&#45;&#45;b10</title>
<path fill="none" stroke="black" d="M549.845,-138.408C552.681,-116.891 557.053,-83.7134 560.188,-59.9275"/>
<text text-anchor="middle" x="563.194" y="-66.9651" font-family="Arial" font-size="10.00">tasks</text>
<text text-anchor="middle" x="546.84" y="-126.371" font-family="Arial" font-size="10.00">lane</text>
</g>
<!-- b11 -->
<g id="node12" class="node"><title>b11</title>
<a xlink:href="../../SDMLib/src/org/sdmlib/replication/BoardTask.java" xlink:title="&lt;TABLE&gt;">
<polygon fill="none" stroke="black" points="675,-38 675,-55 828,-55 828,-38 675,-38"/>
<text text-anchor="start" x="715" y="-44.5" font-family="Arial" font-size="10.00"> </text>
<text text-anchor="start" x="719" y="-44.5" font-family="Arial" font-size="10.00">b11 :BoardTask</text>
</a>
<polygon fill="none" stroke="black" points="675,-4 675,-38 828,-38 828,-4 675,-4"/>
<text text-anchor="start" x="680" y="-26" font-family="Arial" font-size="10.00">name = &quot;showStartGameButton&quot;</text>
<text text-anchor="start" x="680" y="-12" font-family="Arial" font-size="10.00">status = &quot;start&quot;</text>
</g>
<!-- l1&#45;&#45;b11 -->
<g id="edge18" class="edge"><title>l1&#45;&#45;b11</title>
<path fill="none" stroke="black" d="M739.343,-138.408C741.679,-116.891 745.279,-83.7134 747.861,-59.9275"/>
<text text-anchor="middle" x="751.084" y="-66.8937" font-family="Arial" font-size="10.00">tasks</text>
<text text-anchor="middle" x="736.12" y="-126.442" font-family="Arial" font-size="10.00">lane</text>
</g>
<!-- l13 -->
<g id="node13" class="node"><title>l13</title>
<a xlink:href="../../SDMLib/src/org/eclipse/swt/widgets/Label.java" xlink:title="&lt;TABLE&gt;">
<polygon fill="none" stroke="black" points="825,-162 825,-179 1068,-179 1068,-162 825,-162"/>
<text text-anchor="start" x="923" y="-168.5" font-family="Arial" font-size="10.00"> </text>
<text text-anchor="start" x="927" y="-168.5" font-family="Arial" font-size="10.00">l13 :Label</text>
</a>
<polygon fill="none" stroke="black" points="825,-142 825,-162 1068,-162 1068,-142 825,-142"/>
<text text-anchor="start" x="830" y="-150" font-family="Arial" font-size="10.00">text = &quot;When all players have shown up, Start Game&quot;</text>
</g>
<!-- s14 -->
<g id="node14" class="node"><title>s14</title>
<image xlink:href="icons/person1.png" width="32px" height="43px" preserveAspectRatio="xMinYMin meet" x="930" y="-348"/>
<a xlink:href="../examples/org/sdmlib/examples/replication/maumau/StartGameMouseAdapter.java" xlink:title="&lt;TABLE&gt;">
<polygon fill="none" stroke="black" points="874,-287 874,-303 1018,-303 1018,-287 874,-287"/>
<text text-anchor="start" x="877.5" y="-293" font-family="Arial" font-size="10.00"> </text>
<text text-anchor="start" x="881.5" y="-293" font-family="Arial" font-size="10.00">s14 :StartGameMouseAdapter</text>
</a>
</g>
<!-- s14&#45;&#45;l13 -->
<g id="edge20" class="edge"><title>s14&#45;&#45;l13</title>
<path fill="none" stroke="black" d="M946,-283.379C946,-252.859 946,-209.348 946,-183.558"/>
<text text-anchor="middle" x="950.226" y="-190.121" font-family="Arial" font-size="10.00">startGameLabel</text>
</g>
<!-- maumau -->
<g id="node15" class="node"><title>maumau</title>
<image xlink:href="icons/shared.png" width="70px" height="23px" preserveAspectRatio="xMinYMin meet" x="1225.5" y="-369"/>
<a xlink:href="../examples/org/sdmlib/examples/replication/maumau/MauMau.java" xlink:title="&lt;TABLE&gt;">
<polygon fill="none" stroke="black" points="1214,-328 1214,-344 1307,-344 1307,-328 1214,-328"/>
<text text-anchor="start" x="1217.5" y="-334" font-family="Arial" font-size="10.00"> </text>
<text text-anchor="start" x="1221.5" y="-334" font-family="Arial" font-size="10.00">maumau :MauMau</text>
</a>
<polygon fill="none" stroke="black" points="1214,-266 1214,-328 1307,-328 1307,-266 1214,-266"/>
<text text-anchor="start" x="1219" y="-316" font-family="Arial" font-size="10.00">deck = &quot;&quot;</text>
<text text-anchor="start" x="1219" y="-302" font-family="Arial" font-size="10.00">stack = &quot;&quot;</text>
<text text-anchor="start" x="1219" y="-288" font-family="Arial" font-size="10.00">currentMove = &quot;&quot;</text>
<text text-anchor="start" x="1219" y="-274" font-family="Arial" font-size="10.00">duty = &quot;&quot;</text>
</g>
<!-- p5 -->
<g id="node16" class="node"><title>p5</title>
<a xlink:href="../examples/org/sdmlib/examples/replication/maumau/Player.java" xlink:title="&lt;TABLE&gt;">
<polygon fill="none" stroke="black" points="1102,-204 1102,-221 1185,-221 1185,-204 1102,-204"/>
<text text-anchor="start" x="1119" y="-210.5" font-family="Arial" font-size="10.00"> </text>
<text text-anchor="start" x="1123" y="-210.5" font-family="Arial" font-size="10.00">p5 :Player</text>
</a>
<polygon fill="none" stroke="black" points="1102,-100 1102,-204 1185,-204 1185,-100 1102,-100"/>
<text text-anchor="start" x="1107" y="-192" font-family="Arial" font-size="10.00">name = &quot;Abu&quot;</text>
<text text-anchor="start" x="1107" y="-178" font-family="Arial" font-size="10.00">deckOwner = &quot;&quot;</text>
<text text-anchor="start" x="1107" y="-164" font-family="Arial" font-size="10.00">stackOwner = &quot;&quot;</text>
<text text-anchor="start" x="1107" y="-150" font-family="Arial" font-size="10.00">next = &quot;&quot;</text>
<text text-anchor="start" x="1107" y="-136" font-family="Arial" font-size="10.00">prev = &quot;&quot;</text>
<text text-anchor="start" x="1107" y="-122" font-family="Arial" font-size="10.00">assignment = &quot;&quot;</text>
<text text-anchor="start" x="1107" y="-108" font-family="Arial" font-size="10.00">duty = &quot;&quot;</text>
</g>
<!-- maumau&#45;&#45;p5 -->
<g id="edge22" class="edge"><title>maumau&#45;&#45;p5</title>
<path fill="none" stroke="black" d="M1218.09,-262.121C1209.24,-250.318 1199.83,-237.779 1190.78,-225.712"/>
<text text-anchor="middle" x="1199.6" y="-227.927" font-family="Arial" font-size="10.00">players</text>
<text text-anchor="middle" x="1209.27" y="-254.906" font-family="Arial" font-size="10.00">game</text>
</g>
<!-- p8 -->
<g id="node17" class="node"><title>p8</title>
<a xlink:href="../examples/org/sdmlib/examples/replication/maumau/Player.java" xlink:title="&lt;TABLE&gt;">
<polygon fill="none" stroke="black" points="1219,-204 1219,-221 1302,-221 1302,-204 1219,-204"/>
<text text-anchor="start" x="1236" y="-210.5" font-family="Arial" font-size="10.00"> </text>
<text text-anchor="start" x="1240" y="-210.5" font-family="Arial" font-size="10.00">p8 :Player</text>
</a>
<polygon fill="none" stroke="black" points="1219,-100 1219,-204 1302,-204 1302,-100 1219,-100"/>
<text text-anchor="start" x="1224" y="-192" font-family="Arial" font-size="10.00">name = &quot;Karli&quot;</text>
<text text-anchor="start" x="1224" y="-178" font-family="Arial" font-size="10.00">deckOwner = &quot;&quot;</text>
<text text-anchor="start" x="1224" y="-164" font-family="Arial" font-size="10.00">stackOwner = &quot;&quot;</text>
<text text-anchor="start" x="1224" y="-150" font-family="Arial" font-size="10.00">next = &quot;&quot;</text>
<text text-anchor="start" x="1224" y="-136" font-family="Arial" font-size="10.00">prev = &quot;&quot;</text>
<text text-anchor="start" x="1224" y="-122" font-family="Arial" font-size="10.00">assignment = &quot;&quot;</text>
<text text-anchor="start" x="1224" y="-108" font-family="Arial" font-size="10.00">duty = &quot;&quot;</text>
</g>
<!-- maumau&#45;&#45;p8 -->
<g id="edge24" class="edge"><title>maumau&#45;&#45;p8</title>
<path fill="none" stroke="black" d="M1260,-262.121C1260,-250.318 1260,-237.779 1260,-225.712"/>
<text text-anchor="middle" x="1264.23" y="-232.275" font-family="Arial" font-size="10.00">players</text>
<text text-anchor="middle" x="1255.77" y="-250.558" font-family="Arial" font-size="10.00">game</text>
</g>
<!-- sabine -->
<g id="node18" class="node"><title>sabine</title>
<a xlink:href="../examples/org/sdmlib/examples/replication/maumau/Player.java" xlink:title="&lt;TABLE&gt;">
<polygon fill="none" stroke="black" points="1336,-204 1336,-221 1421,-221 1421,-204 1336,-204"/>
<text text-anchor="start" x="1345" y="-210.5" font-family="Arial" font-size="10.00"> </text>
<text text-anchor="start" x="1349" y="-210.5" font-family="Arial" font-size="10.00">sabine :Player</text>
</a>
<polygon fill="none" stroke="black" points="1336,-100 1336,-204 1421,-204 1421,-100 1336,-100"/>
<text text-anchor="start" x="1341" y="-192" font-family="Arial" font-size="10.00">name = &quot;Sabine&quot;</text>
<text text-anchor="start" x="1341" y="-178" font-family="Arial" font-size="10.00">deckOwner = &quot;&quot;</text>
<text text-anchor="start" x="1341" y="-164" font-family="Arial" font-size="10.00">stackOwner = &quot;&quot;</text>
<text text-anchor="start" x="1341" y="-150" font-family="Arial" font-size="10.00">next = &quot;&quot;</text>
<text text-anchor="start" x="1341" y="-136" font-family="Arial" font-size="10.00">prev = &quot;&quot;</text>
<text text-anchor="start" x="1341" y="-122" font-family="Arial" font-size="10.00">assignment = &quot;&quot;</text>
<text text-anchor="start" x="1341" y="-108" font-family="Arial" font-size="10.00">duty = &quot;&quot;</text>
</g>
<!-- maumau&#45;&#45;sabine -->
<g id="edge26" class="edge"><title>maumau&#45;&#45;sabine</title>
<path fill="none" stroke="black" d="M1302.27,-262.121C1311.2,-250.318 1320.68,-237.779 1329.81,-225.712"/>
<text text-anchor="middle" x="1327.71" y="-232.99" font-family="Arial" font-size="10.00">players</text>
<text text-anchor="middle" x="1304.36" y="-249.843" font-family="Arial" font-size="10.00">game</text>
</g>
</g>
</svg>
