<?xml version="1.0" encoding="UTF-8" standalone="no"?>
<!DOCTYPE svg PUBLIC "-//W3C//DTD SVG 1.1//EN"
 "http://www.w3.org/Graphics/SVG/1.1/DTD/svg11.dtd">
<!-- Generated by graphviz version 2.28.0 (20110507.0327)
 -->
<!-- Title: ObjectDiagram Pages: 1 -->
<svg width="894pt" height="268pt"
 viewBox="0.00 0.00 894.00 268.00" xmlns="http://www.w3.org/2000/svg" xmlns:xlink="http://www.w3.org/1999/xlink">
<g id="graph1" class="graph" transform="scale(1 1) rotate(0) translate(4 264)">
<title>ObjectDiagram</title>
<polygon fill="white" stroke="white" points="-4,5 -4,-264 891,-264 891,5 -4,5"/>
<!-- sabineInit -->
<g id="node1" class="node"><title>sabineInit</title>
<image xlink:href="icons/worker.png" width="80px" height="61px" preserveAspectRatio="xMinYMin meet" x="53" y="-253"/>
<a xlink:href="../examples/org/sdmlib/examples/replication/maumau/MultiMauMauClientInitTask.java" xlink:title="&lt;TABLE&gt;">
<polygon fill="none" stroke="black" points="8,-174 8,-190 178,-190 178,-174 8,-174"/>
<text text-anchor="start" x="11.5" y="-180" font-family="Times New Roman,serif" font-size="10.00"> </text>
<text text-anchor="start" x="14.5" y="-180" font-family="Times New Roman,serif" font-size="10.00">sabineInit :MultiMauMauClientInitTask</text>
</a>
</g>
<!-- taskboard -->
<g id="node2" class="node"><title>taskboard</title>
<image xlink:href="icons/shared.png" width="70px" height="23px" preserveAspectRatio="xMinYMin meet" x="236" y="-234"/>
<a xlink:href="../../SDMLib/src/org/sdmlib/replication/TaskFlowBoard.java" xlink:title="&lt;TABLE&gt;">
<polygon fill="none" stroke="black" points="212,-193 212,-209 330,-209 330,-193 212,-193"/>
<text text-anchor="start" x="215.5" y="-199" font-family="Times New Roman,serif" font-size="10.00"> </text>
<text text-anchor="start" x="218.5" y="-199" font-family="Times New Roman,serif" font-size="10.00">taskboard :TaskFlowBoard</text>
</a>
</g>
<!-- l1 -->
<g id="node3" class="node"><title>l1</title>
<a xlink:href="../../SDMLib/src/org/sdmlib/replication/Lane.java" xlink:title="&lt;TABLE&gt;">
<polygon fill="none" stroke="black" points="222,-109 222,-126 320,-126 320,-109 222,-109"/>
<text text-anchor="start" x="254" y="-115.5" font-family="Times New Roman,serif" font-size="10.00"> </text>
<text text-anchor="start" x="257" y="-115.5" font-family="Times New Roman,serif" font-size="10.00">l1 :Lane</text>
</a>
<polygon fill="none" stroke="black" points="222,-89 222,-109 320,-109 320,-89 222,-89"/>
<text text-anchor="start" x="227" y="-97" font-family="Times New Roman,serif" font-size="10.00">name = &quot;SabineLane&quot;</text>
</g>
<!-- taskboard&#45;&#45;l1 -->
<g id="edge2" class="edge"><title>taskboard&#45;&#45;l1</title>
<path fill="none" stroke="black" d="M271,-189.382C271,-171.561 271,-147.702 271,-130.616"/>
<text text-anchor="middle" x="275.226" y="-137.179" font-family="Times New Roman,serif" font-size="10.00">lanes</text>
<text text-anchor="middle" x="266.774" y="-177.819" font-family="Times New Roman,serif" font-size="10.00">board</text>
</g>
<!-- sabineLaneListener -->
<g id="node4" class="node"><title>sabineLaneListener</title>
<image xlink:href="icons/person1.png" width="32px" height="43px" preserveAspectRatio="xMinYMin meet" x="440" y="-244"/>
<a xlink:href="../examples/org/sdmlib/examples/replication/maumau/PlayerLaneListener.java" xlink:title="&lt;TABLE&gt;">
<polygon fill="none" stroke="black" points="371,-183 371,-199 541,-199 541,-183 371,-183"/>
<text text-anchor="start" x="374.5" y="-189" font-family="Times New Roman,serif" font-size="10.00"> </text>
<text text-anchor="start" x="377.5" y="-189" font-family="Times New Roman,serif" font-size="10.00">sabineLaneListener :PlayerLaneListener</text>
</a>
</g>
<!-- sabineLaneListener&#45;&#45;l1 -->
<g id="edge8" class="edge"><title>sabineLaneListener&#45;&#45;l1</title>
<path fill="none" stroke="black" d="M395.168,-179.474C366.733,-163.335 333.758,-144.62 308.939,-130.533"/>
<text text-anchor="middle" x="318.907" y="-128.831" font-family="Times New Roman,serif" font-size="10.00">sources</text>
</g>
<!-- sabineStartGameHandler -->
<g id="node5" class="node"><title>sabineStartGameHandler</title>
<a xlink:href="../examples/org/sdmlib/examples/replication/maumau/ShowStartGameButton.java" xlink:title="&lt;TABLE&gt;">
<polygon fill="none" stroke="black" points="354,-99 354,-116 558,-116 558,-99 354,-99"/>
<text text-anchor="start" x="357.5" y="-105.5" font-family="Times New Roman,serif" font-size="10.00"> </text>
<text text-anchor="start" x="360.5" y="-105.5" font-family="Times New Roman,serif" font-size="10.00">sabineStartGameHandler :ShowStartGameButton</text>
</a>
</g>
<!-- sabineLaneListener&#45;&#45;sabineStartGameHandler -->
<g id="edge4" class="edge"><title>sabineLaneListener&#45;&#45;sabineStartGameHandler</title>
<path fill="none" stroke="black" d="M456,-179.328C456,-161.527 456,-140.623 456,-126.259"/>
<text text-anchor="middle" x="460.226" y="-132.822" font-family="Times New Roman,serif" font-size="10.00">handlerList</text>
</g>
<!-- s2 -->
<g id="node6" class="node"><title>s2</title>
<a xlink:href="../examples/org/sdmlib/examples/replication/maumau/StoryTheo.java" xlink:title="&lt;TABLE&gt;">
<polygon fill="none" stroke="black" points="593,-99 593,-116 660,-116 660,-99 593,-99"/>
<text text-anchor="start" x="596.5" y="-105.5" font-family="Times New Roman,serif" font-size="10.00"> </text>
<text text-anchor="start" x="599.5" y="-105.5" font-family="Times New Roman,serif" font-size="10.00">s2 :StoryTheo</text>
</a>
</g>
<!-- sabineLaneListener&#45;&#45;s2 -->
<g id="edge6" class="edge"><title>sabineLaneListener&#45;&#45;s2</title>
<path fill="none" stroke="black" d="M512.135,-179.328C540.956,-161.527 574.8,-140.623 598.057,-126.259"/>
<text text-anchor="middle" x="592.567" y="-132.117" font-family="Times New Roman,serif" font-size="10.00">handlerList</text>
</g>
<!-- maumau -->
<g id="node7" class="node"><title>maumau</title>
<image xlink:href="icons/shared.png" width="70px" height="23px" preserveAspectRatio="xMinYMin meet" x="702" y="-127"/>
<a xlink:href="../examples/org/sdmlib/examples/replication/maumau/MauMau.java" xlink:title="&lt;TABLE&gt;">
<polygon fill="none" stroke="black" points="694,-86 694,-102 780,-102 780,-86 694,-86"/>
<text text-anchor="start" x="697.5" y="-92" font-family="Times New Roman,serif" font-size="10.00"> </text>
<text text-anchor="start" x="700.5" y="-92" font-family="Times New Roman,serif" font-size="10.00">maumau :MauMau</text>
</a>
</g>
<!-- sabine -->
<g id="node8" class="node"><title>sabine</title>
<a xlink:href="../examples/org/sdmlib/examples/replication/maumau/Player.java" xlink:title="&lt;TABLE&gt;">
<polygon fill="none" stroke="black" points="737,-24 737,-41 815,-41 815,-24 737,-24"/>
<text text-anchor="start" x="746.5" y="-30.5" font-family="Times New Roman,serif" font-size="10.00"> </text>
<text text-anchor="start" x="749.5" y="-30.5" font-family="Times New Roman,serif" font-size="10.00">sabine :Player</text>
</a>
<polygon fill="none" stroke="black" points="737,-4 737,-24 815,-24 815,-4 737,-4"/>
<text text-anchor="start" x="742" y="-12" font-family="Times New Roman,serif" font-size="10.00">name = &quot;Sabine&quot;</text>
</g>
<!-- maumau&#45;&#45;sabine -->
<g id="edge10" class="edge"><title>maumau&#45;&#45;sabine</title>
<path fill="none" stroke="black" d="M748.701,-82.0973C754.176,-70.4462 760.632,-56.7055 765.892,-45.5129"/>
<text text-anchor="middle" x="765.862" y="-53.0128" font-family="Times New Roman,serif" font-size="10.00">players</text>
<text text-anchor="middle" x="748.731" y="-69.5973" font-family="Times New Roman,serif" font-size="10.00">game</text>
</g>
<!-- abuMauMauController -->
<g id="node9" class="node"><title>abuMauMauController</title>
<image xlink:href="icons/person1.png" width="32px" height="43px" preserveAspectRatio="xMinYMin meet" x="760" y="-244"/>
<a xlink:href="../examples/org/sdmlib/examples/replication/maumau/MultiMauMauControler.java" xlink:title="&lt;TABLE&gt;">
<polygon fill="none" stroke="black" points="674,-183 674,-199 878,-199 878,-183 674,-183"/>
<text text-anchor="start" x="677.5" y="-189" font-family="Times New Roman,serif" font-size="10.00"> </text>
<text text-anchor="start" x="680.5" y="-189" font-family="Times New Roman,serif" font-size="10.00">abuMauMauController :MultiMauMauControler</text>
</a>
</g>
<!-- abuMauMauController&#45;&#45;maumau -->
<g id="edge12" class="edge"><title>abuMauMauController&#45;&#45;maumau</title>
<path fill="none" stroke="black" d="M763.122,-179.328C757.575,-164.394 751.217,-147.277 746.163,-133.669"/>
<text text-anchor="middle" x="753.28" y="-138.193" font-family="Times New Roman,serif" font-size="10.00">mauMau</text>
</g>
<!-- abuMauMauController&#45;&#45;sabine -->
<g id="edge14" class="edge"><title>abuMauMauController&#45;&#45;sabine</title>
<path fill="none" stroke="black" d="M787.779,-179.487C795.357,-152.825 802.795,-115.026 797,-82 794.816,-69.5534 790.184,-56.2581 785.824,-45.541"/>
<text text-anchor="middle" x="793.11" y="-49.8906" font-family="Times New Roman,serif" font-size="10.00">activePlayer</text>
</g>
</g>
</svg>
