<?xml version="1.0" encoding="UTF-8" standalone="no"?>
<!DOCTYPE svg PUBLIC "-//W3C//DTD SVG 1.1//EN"
 "http://www.w3.org/Graphics/SVG/1.1/DTD/svg11.dtd">
<!-- Generated by graphviz version 2.28.0 (20110507.0327)
 -->
<!-- Title: ObjectDiagram Pages: 1 -->
<svg width="1351pt" height="276pt"
 viewBox="0.00 0.00 1351.00 276.00" xmlns="http://www.w3.org/2000/svg" xmlns:xlink="http://www.w3.org/1999/xlink">
<g id="graph1" class="graph" transform="scale(1 1) rotate(0) translate(4 272)">
<title>ObjectDiagram</title>
<polygon fill="white" stroke="white" points="-4,5 -4,-272 1348,-272 1348,5 -4,5"/>
<!-- s13 -->
<g id="node1" class="node"><title>s13</title>
<image xlink:href="icons/worker.png" width="80px" height="61px" preserveAspectRatio="xMinYMin meet" x="177.5" y="-261"/>
<a xlink:href="../examples/org/sdmlib/examples/replication/maumau/ShowStartGameButtonAction.java" xlink:title="&lt;TABLE&gt;">
<polygon fill="none" stroke="black" points="144,-182 144,-198 291,-198 291,-182 144,-182"/>
<text text-anchor="start" x="147.5" y="-188" font-family="Times New Roman,serif" font-size="10.00"> </text>
<text text-anchor="start" x="150.5" y="-188" font-family="Times New Roman,serif" font-size="10.00">s13 :ShowStartGameButtonAction</text>
</a>
</g>
<!-- taskboard -->
<g id="node2" class="node"><title>taskboard</title>
<image xlink:href="icons/shared.png" width="70px" height="23px" preserveAspectRatio="xMinYMin meet" x="349" y="-242"/>
<a xlink:href="../../SDMLib/src/org/sdmlib/replication/TaskFlowBoard.java" xlink:title="&lt;TABLE&gt;">
<polygon fill="none" stroke="black" points="325,-201 325,-217 443,-217 443,-201 325,-201"/>
<text text-anchor="start" x="328.5" y="-207" font-family="Times New Roman,serif" font-size="10.00"> </text>
<text text-anchor="start" x="331.5" y="-207" font-family="Times New Roman,serif" font-size="10.00">taskboard :TaskFlowBoard</text>
</a>
</g>
<!-- l2 -->
<g id="node3" class="node"><title>l2</title>
<a xlink:href="../../SDMLib/src/org/sdmlib/replication/Lane.java" xlink:title="&lt;TABLE&gt;">
<polygon fill="none" stroke="black" points="71,-120 71,-137 147,-137 147,-120 71,-120"/>
<text text-anchor="start" x="92" y="-126.5" font-family="Times New Roman,serif" font-size="10.00"> </text>
<text text-anchor="start" x="95" y="-126.5" font-family="Times New Roman,serif" font-size="10.00">l2 :Lane</text>
</a>
<polygon fill="none" stroke="black" points="71,-100 71,-120 147,-120 147,-100 71,-100"/>
<text text-anchor="start" x="76" y="-108" font-family="Times New Roman,serif" font-size="10.00">name = &quot;server&quot;</text>
</g>
<!-- taskboard&#45;&#45;l2 -->
<g id="edge2" class="edge"><title>taskboard&#45;&#45;l2</title>
<path fill="none" stroke="black" d="M345.863,-197.479C333.779,-190.463 320.139,-183.292 307,-178 246.207,-153.515 226.343,-162.215 164,-142 161.065,-141.048 158.063,-140.018 155.049,-138.939"/>
<text text-anchor="middle" x="165.005" y="-135.5" font-family="Times New Roman,serif" font-size="10.00">lanes</text>
<text text-anchor="middle" x="335.899" y="-194.131" font-family="Times New Roman,serif" font-size="10.00">board</text>
</g>
<!-- l3 -->
<g id="node4" class="node"><title>l3</title>
<a xlink:href="../../SDMLib/src/org/sdmlib/replication/Lane.java" xlink:title="&lt;TABLE&gt;">
<polygon fill="none" stroke="black" points="182,-120 182,-137 297,-137 297,-120 182,-120"/>
<text text-anchor="start" x="222.5" y="-126.5" font-family="Times New Roman,serif" font-size="10.00"> </text>
<text text-anchor="start" x="225.5" y="-126.5" font-family="Times New Roman,serif" font-size="10.00">l3 :Lane</text>
</a>
<polygon fill="none" stroke="black" points="182,-100 182,-120 297,-120 297,-100 182,-100"/>
<text text-anchor="start" x="187" y="-108" font-family="Times New Roman,serif" font-size="10.00">name = &quot;play7WorkFlow&quot;</text>
</g>
<!-- taskboard&#45;&#45;l3 -->
<g id="edge4" class="edge"><title>taskboard&#45;&#45;l3</title>
<path fill="none" stroke="black" d="M348.9,-197.309C324.761,-180.328 293.005,-157.99 269.839,-141.694"/>
<text text-anchor="middle" x="279.684" y="-140.952" font-family="Times New Roman,serif" font-size="10.00">lanes</text>
<text text-anchor="middle" x="339.055" y="-193.051" font-family="Times New Roman,serif" font-size="10.00">board</text>
</g>
<!-- l7 -->
<g id="node7" class="node"><title>l7</title>
<a xlink:href="../../SDMLib/src/org/sdmlib/replication/Lane.java" xlink:title="&lt;TABLE&gt;">
<polygon fill="none" stroke="black" points="340,-120 340,-137 429,-137 429,-120 340,-120"/>
<text text-anchor="start" x="367.5" y="-126.5" font-family="Times New Roman,serif" font-size="10.00"> </text>
<text text-anchor="start" x="370.5" y="-126.5" font-family="Times New Roman,serif" font-size="10.00">l7 :Lane</text>
</a>
<polygon fill="none" stroke="black" points="340,-100 340,-120 429,-120 429,-100 340,-100"/>
<text text-anchor="start" x="345" y="-108" font-family="Times New Roman,serif" font-size="10.00">name = &quot;AbuLane&quot;</text>
</g>
<!-- taskboard&#45;&#45;l7 -->
<g id="edge6" class="edge"><title>taskboard&#45;&#45;l7</title>
<path fill="none" stroke="black" d="M384,-197.309C384,-180.328 384,-157.99 384,-141.694"/>
<text text-anchor="middle" x="388.226" y="-148.257" font-family="Times New Roman,serif" font-size="10.00">lanes</text>
<text text-anchor="middle" x="379.774" y="-185.746" font-family="Times New Roman,serif" font-size="10.00">board</text>
</g>
<!-- l10 -->
<g id="node9" class="node"><title>l10</title>
<a xlink:href="../../SDMLib/src/org/sdmlib/replication/Lane.java" xlink:title="&lt;TABLE&gt;">
<polygon fill="none" stroke="black" points="487,-120 487,-137 577,-137 577,-120 487,-120"/>
<text text-anchor="start" x="512.5" y="-126.5" font-family="Times New Roman,serif" font-size="10.00"> </text>
<text text-anchor="start" x="515.5" y="-126.5" font-family="Times New Roman,serif" font-size="10.00">l10 :Lane</text>
</a>
<polygon fill="none" stroke="black" points="487,-100 487,-120 577,-120 577,-100 487,-100"/>
<text text-anchor="start" x="492" y="-108" font-family="Times New Roman,serif" font-size="10.00">name = &quot;KarliLane&quot;</text>
</g>
<!-- taskboard&#45;&#45;l10 -->
<g id="edge8" class="edge"><title>taskboard&#45;&#45;l10</title>
<path fill="none" stroke="black" d="M419.827,-197.309C444.465,-180.328 476.877,-157.99 500.522,-141.694"/>
<text text-anchor="middle" x="495.458" y="-147.817" font-family="Times New Roman,serif" font-size="10.00">lanes</text>
<text text-anchor="middle" x="424.891" y="-186.186" font-family="Times New Roman,serif" font-size="10.00">board</text>
</g>
<!-- l1 -->
<g id="node11" class="node"><title>l1</title>
<a xlink:href="../../SDMLib/src/org/sdmlib/replication/Lane.java" xlink:title="&lt;TABLE&gt;">
<polygon fill="none" stroke="black" points="660,-120 660,-137 758,-137 758,-120 660,-120"/>
<text text-anchor="start" x="692" y="-126.5" font-family="Times New Roman,serif" font-size="10.00"> </text>
<text text-anchor="start" x="695" y="-126.5" font-family="Times New Roman,serif" font-size="10.00">l1 :Lane</text>
</a>
<polygon fill="none" stroke="black" points="660,-100 660,-120 758,-120 758,-100 660,-100"/>
<text text-anchor="start" x="665" y="-108" font-family="Times New Roman,serif" font-size="10.00">name = &quot;SabineLane&quot;</text>
</g>
<!-- taskboard&#45;&#45;l1 -->
<g id="edge10" class="edge"><title>taskboard&#45;&#45;l1</title>
<path fill="none" stroke="black" d="M451.34,-200.866C510.558,-182.28 595.807,-155.525 651.786,-137.956"/>
<text text-anchor="middle" x="644.404" y="-142.203" font-family="Times New Roman,serif" font-size="10.00">lanes</text>
<text text-anchor="middle" x="458.722" y="-191.619" font-family="Times New Roman,serif" font-size="10.00">board</text>
</g>
<!-- b4 -->
<g id="node5" class="node"><title>b4</title>
<a xlink:href="../../SDMLib/src/org/sdmlib/replication/BoardTask.java" xlink:title="&lt;TABLE&gt;">
<polygon fill="none" stroke="black" points="8,-38 8,-55 149,-55 149,-38 8,-38"/>
<text text-anchor="start" x="48" y="-44.5" font-family="Times New Roman,serif" font-size="10.00"> </text>
<text text-anchor="start" x="51" y="-44.5" font-family="Times New Roman,serif" font-size="10.00">b4 :BoardTask</text>
</a>
<polygon fill="none" stroke="black" points="8,-4 8,-38 149,-38 149,-4 8,-4"/>
<text text-anchor="start" x="13" y="-26" font-family="Times New Roman,serif" font-size="10.00">name = &quot;showStartGameButton&quot;</text>
<text text-anchor="start" x="13" y="-12" font-family="Times New Roman,serif" font-size="10.00">status = &quot;start&quot;</text>
</g>
<!-- l3&#45;&#45;b4 -->
<g id="edge12" class="edge"><title>l3&#45;&#45;b4</title>
<path fill="none" stroke="black" d="M199.202,-96.4944C178.623,-85.3739 153.228,-71.6511 131.008,-59.6443"/>
<text text-anchor="middle" x="140.991" y="-57.7348" font-family="Times New Roman,serif" font-size="10.00">tasks</text>
<text text-anchor="middle" x="189.22" y="-93.4038" font-family="Times New Roman,serif" font-size="10.00">lane</text>
</g>
<!-- b5 -->
<g id="node6" class="node"><title>b5</title>
<a xlink:href="../../SDMLib/src/org/sdmlib/replication/BoardTask.java" xlink:title="&lt;TABLE&gt;">
<polygon fill="none" stroke="black" points="183,-38 183,-55 280,-55 280,-38 183,-38"/>
<text text-anchor="start" x="201" y="-44.5" font-family="Times New Roman,serif" font-size="10.00"> </text>
<text text-anchor="start" x="204" y="-44.5" font-family="Times New Roman,serif" font-size="10.00">b5 :BoardTask</text>
</a>
<polygon fill="none" stroke="black" points="183,-4 183,-38 280,-38 280,-4 183,-4"/>
<text text-anchor="start" x="188" y="-26" font-family="Times New Roman,serif" font-size="10.00">name = &quot;startClients&quot;</text>
<text text-anchor="start" x="188" y="-12" font-family="Times New Roman,serif" font-size="10.00">status = &quot;start&quot;</text>
</g>
<!-- l3&#45;&#45;b5 -->
<g id="edge14" class="edge"><title>l3&#45;&#45;b5</title>
<path fill="none" stroke="black" d="M237.022,-96.4944C236.005,-85.4243 234.749,-71.7752 233.649,-59.8074"/>
<text text-anchor="middle" x="238.687" y="-65.9454" font-family="Times New Roman,serif" font-size="10.00">tasks</text>
<text text-anchor="middle" x="231.984" y="-85.3564" font-family="Times New Roman,serif" font-size="10.00">lane</text>
</g>
<!-- b8 -->
<g id="node8" class="node"><title>b8</title>
<a xlink:href="../../SDMLib/src/org/sdmlib/replication/BoardTask.java" xlink:title="&lt;TABLE&gt;">
<polygon fill="none" stroke="black" points="314,-38 314,-55 455,-55 455,-38 314,-38"/>
<text text-anchor="start" x="354" y="-44.5" font-family="Times New Roman,serif" font-size="10.00"> </text>
<text text-anchor="start" x="357" y="-44.5" font-family="Times New Roman,serif" font-size="10.00">b8 :BoardTask</text>
</a>
<polygon fill="none" stroke="black" points="314,-4 314,-38 455,-38 455,-4 314,-4"/>
<text text-anchor="start" x="319" y="-26" font-family="Times New Roman,serif" font-size="10.00">name = &quot;showStartGameButton&quot;</text>
<text text-anchor="start" x="319" y="-12" font-family="Times New Roman,serif" font-size="10.00">status = &quot;start&quot;</text>
</g>
<!-- l7&#45;&#45;b8 -->
<g id="edge16" class="edge"><title>l7&#45;&#45;b8</title>
<path fill="none" stroke="black" d="M384,-96.4944C384,-85.4243 384,-71.7752 384,-59.8074"/>
<text text-anchor="middle" x="388.226" y="-66.3705" font-family="Times New Roman,serif" font-size="10.00">tasks</text>
<text text-anchor="middle" x="379.774" y="-84.9313" font-family="Times New Roman,serif" font-size="10.00">lane</text>
</g>
<!-- b11 -->
<g id="node10" class="node"><title>b11</title>
<a xlink:href="../../SDMLib/src/org/sdmlib/replication/BoardTask.java" xlink:title="&lt;TABLE&gt;">
<polygon fill="none" stroke="black" points="489,-38 489,-55 630,-55 630,-38 489,-38"/>
<text text-anchor="start" x="526.5" y="-44.5" font-family="Times New Roman,serif" font-size="10.00"> </text>
<text text-anchor="start" x="529.5" y="-44.5" font-family="Times New Roman,serif" font-size="10.00">b11 :BoardTask</text>
</a>
<polygon fill="none" stroke="black" points="489,-4 489,-38 630,-38 630,-4 489,-4"/>
<text text-anchor="start" x="494" y="-26" font-family="Times New Roman,serif" font-size="10.00">name = &quot;showStartGameButton&quot;</text>
<text text-anchor="start" x="494" y="-12" font-family="Times New Roman,serif" font-size="10.00">status = &quot;start&quot;</text>
</g>
<!-- l10&#45;&#45;b11 -->
<g id="edge18" class="edge"><title>l10&#45;&#45;b11</title>
<path fill="none" stroke="black" d="M538.674,-96.4944C542.11,-85.4243 546.346,-71.7752 550.06,-59.8074"/>
<text text-anchor="middle" x="551.41" y="-67.2158" font-family="Times New Roman,serif" font-size="10.00">tasks</text>
<text text-anchor="middle" x="537.324" y="-84.0859" font-family="Times New Roman,serif" font-size="10.00">lane</text>
</g>
<!-- b12 -->
<g id="node12" class="node"><title>b12</title>
<a xlink:href="../../SDMLib/src/org/sdmlib/replication/BoardTask.java" xlink:title="&lt;TABLE&gt;">
<polygon fill="none" stroke="black" points="664,-38 664,-55 805,-55 805,-38 664,-38"/>
<text text-anchor="start" x="701.5" y="-44.5" font-family="Times New Roman,serif" font-size="10.00"> </text>
<text text-anchor="start" x="704.5" y="-44.5" font-family="Times New Roman,serif" font-size="10.00">b12 :BoardTask</text>
</a>
<polygon fill="none" stroke="black" points="664,-4 664,-38 805,-38 805,-4 664,-4"/>
<text text-anchor="start" x="669" y="-26" font-family="Times New Roman,serif" font-size="10.00">name = &quot;showStartGameButton&quot;</text>
<text text-anchor="start" x="669" y="-12" font-family="Times New Roman,serif" font-size="10.00">status = &quot;start&quot;</text>
</g>
<!-- l1&#45;&#45;b12 -->
<g id="edge20" class="edge"><title>l1&#45;&#45;b12</title>
<path fill="none" stroke="black" d="M715.18,-96.4944C718.361,-85.4243 722.283,-71.7752 725.722,-59.8074"/>
<text text-anchor="middle" x="727.281" y="-67.1851" font-family="Times New Roman,serif" font-size="10.00">tasks</text>
<text text-anchor="middle" x="713.621" y="-84.1166" font-family="Times New Roman,serif" font-size="10.00">lane</text>
</g>
<!-- l14 -->
<g id="node13" class="node"><title>l14</title>
<a xlink:href="../../SDMLib/src/org/eclipse/swt/widgets/Label.java" xlink:title="&lt;TABLE&gt;">
<polygon fill="none" stroke="black" points="793,-120 793,-137 1016,-137 1016,-120 793,-120"/>
<text text-anchor="start" x="884" y="-126.5" font-family="Times New Roman,serif" font-size="10.00"> </text>
<text text-anchor="start" x="887" y="-126.5" font-family="Times New Roman,serif" font-size="10.00">l14 :Label</text>
</a>
<polygon fill="none" stroke="black" points="793,-100 793,-120 1016,-120 1016,-100 793,-100"/>
<text text-anchor="start" x="798" y="-108" font-family="Times New Roman,serif" font-size="10.00">text = &quot;When all players have shown up, Start Game&quot;</text>
</g>
<!-- s15 -->
<g id="node14" class="node"><title>s15</title>
<image xlink:href="icons/person1.png" width="32px" height="43px" preserveAspectRatio="xMinYMin meet" x="888" y="-252"/>
<a xlink:href="../examples/org/sdmlib/examples/replication/maumau/ShowStartGameButtonAction.java" xlink:title="&lt;TABLE&gt;">
<polygon fill="none" stroke="black" points="794,-191 794,-207 1014,-207 1014,-191 794,-191"/>
<text text-anchor="start" x="797.5" y="-197" font-family="Times New Roman,serif" font-size="10.00"> </text>
<text text-anchor="start" x="800.5" y="-197" font-family="Times New Roman,serif" font-size="10.00">s15 :ShowStartGameButtonAction$StartGameAction</text>
</a>
</g>
<!-- s15&#45;&#45;l14 -->
<g id="edge22" class="edge"><title>s15&#45;&#45;l14</title>
<path fill="none" stroke="black" d="M904,-187.467C904,-172.325 904,-155.013 904,-141.717"/>
<text text-anchor="middle" x="908.226" y="-148.28" font-family="Times New Roman,serif" font-size="10.00">startGameLabel</text>
</g>
<!-- maumau -->
<g id="node15" class="node"><title>maumau</title>
<image xlink:href="icons/shared.png" width="70px" height="23px" preserveAspectRatio="xMinYMin meet" x="1153" y="-242"/>
<a xlink:href="../examples/org/sdmlib/examples/replication/maumau/MauMau.java" xlink:title="&lt;TABLE&gt;">
<polygon fill="none" stroke="black" points="1145,-201 1145,-217 1231,-217 1231,-201 1145,-201"/>
<text text-anchor="start" x="1148.5" y="-207" font-family="Times New Roman,serif" font-size="10.00"> </text>
<text text-anchor="start" x="1151.5" y="-207" font-family="Times New Roman,serif" font-size="10.00">maumau :MauMau</text>
</a>
</g>
<!-- p6 -->
<g id="node16" class="node"><title>p6</title>
<a xlink:href="../examples/org/sdmlib/examples/replication/maumau/Player.java" xlink:title="&lt;TABLE&gt;">
<polygon fill="none" stroke="black" points="1050,-120 1050,-137 1119,-137 1119,-120 1050,-120"/>
<text text-anchor="start" x="1063" y="-126.5" font-family="Times New Roman,serif" font-size="10.00"> </text>
<text text-anchor="start" x="1066" y="-126.5" font-family="Times New Roman,serif" font-size="10.00">p6 :Player</text>
</a>
<polygon fill="none" stroke="black" points="1050,-100 1050,-120 1119,-120 1119,-100 1050,-100"/>
<text text-anchor="start" x="1055" y="-108" font-family="Times New Roman,serif" font-size="10.00">name = &quot;Abu&quot;</text>
</g>
<!-- maumau&#45;&#45;p6 -->
<g id="edge24" class="edge"><title>maumau&#45;&#45;p6</title>
<path fill="none" stroke="black" d="M1162.82,-197.309C1145.51,-180.328 1122.73,-157.99 1106.12,-141.694"/>
<text text-anchor="middle" x="1115.55" y="-142.523" font-family="Times New Roman,serif" font-size="10.00">players</text>
<text text-anchor="middle" x="1153.39" y="-191.48" font-family="Times New Roman,serif" font-size="10.00">game</text>
</g>
<!-- p9 -->
<g id="node17" class="node"><title>p9</title>
<a xlink:href="../examples/org/sdmlib/examples/replication/maumau/Player.java" xlink:title="&lt;TABLE&gt;">
<polygon fill="none" stroke="black" points="1153,-120 1153,-137 1223,-137 1223,-120 1153,-120"/>
<text text-anchor="start" x="1166.5" y="-126.5" font-family="Times New Roman,serif" font-size="10.00"> </text>
<text text-anchor="start" x="1169.5" y="-126.5" font-family="Times New Roman,serif" font-size="10.00">p9 :Player</text>
</a>
<polygon fill="none" stroke="black" points="1153,-100 1153,-120 1223,-120 1223,-100 1153,-100"/>
<text text-anchor="start" x="1158" y="-108" font-family="Times New Roman,serif" font-size="10.00">name = &quot;Karli&quot;</text>
</g>
<!-- maumau&#45;&#45;p9 -->
<g id="edge26" class="edge"><title>maumau&#45;&#45;p9</title>
<path fill="none" stroke="black" d="M1188,-197.309C1188,-180.328 1188,-157.99 1188,-141.694"/>
<text text-anchor="middle" x="1192.23" y="-148.257" font-family="Times New Roman,serif" font-size="10.00">players</text>
<text text-anchor="middle" x="1183.77" y="-185.746" font-family="Times New Roman,serif" font-size="10.00">game</text>
</g>
<!-- sabine -->
<g id="node18" class="node"><title>sabine</title>
<a xlink:href="../examples/org/sdmlib/examples/replication/maumau/Player.java" xlink:title="&lt;TABLE&gt;">
<polygon fill="none" stroke="black" points="1257,-120 1257,-137 1335,-137 1335,-120 1257,-120"/>
<text text-anchor="start" x="1266.5" y="-126.5" font-family="Times New Roman,serif" font-size="10.00"> </text>
<text text-anchor="start" x="1269.5" y="-126.5" font-family="Times New Roman,serif" font-size="10.00">sabine :Player</text>
</a>
<polygon fill="none" stroke="black" points="1257,-100 1257,-120 1335,-120 1335,-100 1257,-100"/>
<text text-anchor="start" x="1262" y="-108" font-family="Times New Roman,serif" font-size="10.00">name = &quot;Sabine&quot;</text>
</g>
<!-- maumau&#45;&#45;sabine -->
<g id="edge28" class="edge"><title>maumau&#45;&#45;sabine</title>
<path fill="none" stroke="black" d="M1214.14,-197.309C1232.12,-180.328 1255.78,-157.99 1273.03,-141.694"/>
<text text-anchor="middle" x="1269.34" y="-148.489" font-family="Times New Roman,serif" font-size="10.00">players</text>
<text text-anchor="middle" x="1217.83" y="-185.513" font-family="Times New Roman,serif" font-size="10.00">game</text>
</g>
</g>
</svg>
