<?xml version="1.0" encoding="UTF-8" standalone="no"?>
<!DOCTYPE svg PUBLIC "-//W3C//DTD SVG 1.1//EN"
 "http://www.w3.org/Graphics/SVG/1.1/DTD/svg11.dtd">
<!-- Generated by graphviz version 2.28.0 (20110507.0327)
 -->
<!-- Title: ObjectDiagram Pages: 1 -->
<svg width="1408pt" height="384pt"
 viewBox="0.00 0.00 1408.00 384.00" xmlns="http://www.w3.org/2000/svg" xmlns:xlink="http://www.w3.org/1999/xlink">
<g id="graph1" class="graph" transform="scale(1 1) rotate(0) translate(4 380)">
<title>ObjectDiagram</title>
<polygon fill="white" stroke="white" points="-4,5 -4,-380 1405,-380 1405,5 -4,5"/>
<!-- sabineNode -->
<g id="node1" class="node"><title>sabineNode</title>
<image xlink:href="icons/node.png" width="87px" height="61px" preserveAspectRatio="xMinYMin meet" x="10" y="-357"/>
<a xlink:href="../../SDMLib/src/org/sdmlib/replication/Node.java" xlink:title="&lt;TABLE&gt;">
<polygon fill="none" stroke="black" points="8,-278 8,-294 99,-294 99,-278 8,-278"/>
<text text-anchor="start" x="11.5" y="-284" font-family="Arial" font-size="10.00"> </text>
<text text-anchor="start" x="15.5" y="-284" font-family="Arial" font-size="10.00">sabineNode :Node</text>
</a>
</g>
<!-- s11 -->
<g id="node2" class="node"><title>s11</title>
<image xlink:href="icons/worker.png" width="80px" height="61px" preserveAspectRatio="xMinYMin meet" x="173.5" y="-357"/>
<a xlink:href="../examples/org/sdmlib/examples/replication/maumau/ShowStartGameButtonAction.java" xlink:title="&lt;TABLE&gt;">
<polygon fill="none" stroke="black" points="133,-278 133,-294 294,-294 294,-278 133,-278"/>
<text text-anchor="start" x="136.5" y="-284" font-family="Arial" font-size="10.00"> </text>
<text text-anchor="start" x="140.5" y="-284" font-family="Arial" font-size="10.00">s11 :ShowStartGameButtonAction</text>
</a>
</g>
<!-- taskboard -->
<g id="node3" class="node"><title>taskboard</title>
<image xlink:href="icons/shared.png" width="70px" height="23px" preserveAspectRatio="xMinYMin meet" x="356.5" y="-338"/>
<a xlink:href="../../SDMLib/src/org/sdmlib/replication/TaskFlowBoard.java" xlink:title="&lt;TABLE&gt;">
<polygon fill="none" stroke="black" points="328,-297 328,-313 455,-313 455,-297 328,-297"/>
<text text-anchor="start" x="331.5" y="-303" font-family="Arial" font-size="10.00"> </text>
<text text-anchor="start" x="335.5" y="-303" font-family="Arial" font-size="10.00">taskboard :TaskFlowBoard</text>
</a>
</g>
<!-- l2 -->
<g id="node4" class="node"><title>l2</title>
<a xlink:href="../../SDMLib/src/org/sdmlib/replication/Lane.java" xlink:title="&lt;TABLE&gt;">
<polygon fill="none" stroke="black" points="165,-162 165,-179 246,-179 246,-162 165,-162"/>
<text text-anchor="start" x="186" y="-168.5" font-family="Arial" font-size="10.00"> </text>
<text text-anchor="start" x="190" y="-168.5" font-family="Arial" font-size="10.00">l2 :Lane</text>
</a>
<polygon fill="none" stroke="black" points="165,-142 165,-162 246,-162 246,-142 165,-142"/>
<text text-anchor="start" x="170" y="-150" font-family="Arial" font-size="10.00">name = &quot;server&quot;</text>
</g>
<!-- taskboard&#45;&#45;l2 -->
<g id="edge2" class="edge"><title>taskboard&#45;&#45;l2</title>
<path fill="none" stroke="black" d="M355.599,-293.361C320.36,-268.737 270.343,-233.487 262,-226 247.493,-212.982 232.907,-196.528 222.122,-183.564"/>
<text text-anchor="middle" x="231.185" y="-185.29" font-family="Arial" font-size="10.00">lanes</text>
<text text-anchor="middle" x="345.75" y="-289.128" font-family="Arial" font-size="10.00">board</text>
</g>
<!-- l5 -->
<g id="node5" class="node"><title>l5</title>
<a xlink:href="../../SDMLib/src/org/sdmlib/replication/Lane.java" xlink:title="&lt;TABLE&gt;">
<polygon fill="none" stroke="black" points="280,-162 280,-179 373,-179 373,-162 280,-162"/>
<text text-anchor="start" x="307" y="-168.5" font-family="Arial" font-size="10.00"> </text>
<text text-anchor="start" x="311" y="-168.5" font-family="Arial" font-size="10.00">l5 :Lane</text>
</a>
<polygon fill="none" stroke="black" points="280,-142 280,-162 373,-162 373,-142 280,-142"/>
<text text-anchor="start" x="285" y="-150" font-family="Arial" font-size="10.00">name = &quot;AbuLane&quot;</text>
</g>
<!-- taskboard&#45;&#45;l5 -->
<g id="edge4" class="edge"><title>taskboard&#45;&#45;l5</title>
<path fill="none" stroke="black" d="M380.701,-293.281C368.1,-263.04 346.971,-212.329 334.995,-183.589"/>
<text text-anchor="middle" x="342.382" y="-187.829" font-family="Arial" font-size="10.00">lanes</text>
<text text-anchor="middle" x="373.314" y="-284.041" font-family="Arial" font-size="10.00">board</text>
</g>
<!-- l6 -->
<g id="node7" class="node"><title>l6</title>
<a xlink:href="../../SDMLib/src/org/sdmlib/replication/Lane.java" xlink:title="&lt;TABLE&gt;">
<polygon fill="none" stroke="black" points="407,-162 407,-179 503,-179 503,-162 407,-162"/>
<text text-anchor="start" x="435.5" y="-168.5" font-family="Arial" font-size="10.00"> </text>
<text text-anchor="start" x="439.5" y="-168.5" font-family="Arial" font-size="10.00">l6 :Lane</text>
</a>
<polygon fill="none" stroke="black" points="407,-142 407,-162 503,-162 503,-142 407,-142"/>
<text text-anchor="start" x="412" y="-150" font-family="Arial" font-size="10.00">name = &quot;KarliLane&quot;</text>
</g>
<!-- taskboard&#45;&#45;l6 -->
<g id="edge6" class="edge"><title>taskboard&#45;&#45;l6</title>
<path fill="none" stroke="black" d="M401.141,-293.281C413.548,-263.04 434.352,-212.329 446.143,-183.589"/>
<text text-anchor="middle" x="446.613" y="-191.078" font-family="Arial" font-size="10.00">lanes</text>
<text text-anchor="middle" x="400.671" y="-280.792" font-family="Arial" font-size="10.00">board</text>
</g>
<!-- l1 -->
<g id="node10" class="node"><title>l1</title>
<a xlink:href="../../SDMLib/src/org/sdmlib/replication/Lane.java" xlink:title="&lt;TABLE&gt;">
<polygon fill="none" stroke="black" points="656,-162 656,-179 762,-179 762,-162 656,-162"/>
<text text-anchor="start" x="689.5" y="-168.5" font-family="Arial" font-size="10.00"> </text>
<text text-anchor="start" x="693.5" y="-168.5" font-family="Arial" font-size="10.00">l1 :Lane</text>
</a>
<polygon fill="none" stroke="black" points="656,-142 656,-162 762,-162 762,-142 656,-142"/>
<text text-anchor="start" x="661" y="-150" font-family="Arial" font-size="10.00">name = &quot;SabineLane&quot;</text>
</g>
<!-- taskboard&#45;&#45;l1 -->
<g id="edge8" class="edge"><title>taskboard&#45;&#45;l1</title>
<path fill="none" stroke="black" d="M441.037,-293.453C502.605,-263.25 606.171,-212.444 664.888,-183.64"/>
<text text-anchor="middle" x="658.612" y="-188.926" font-family="Arial" font-size="10.00">lanes</text>
<text text-anchor="middle" x="447.313" y="-283.168" font-family="Arial" font-size="10.00">board</text>
</g>
<!-- b8 -->
<g id="node6" class="node"><title>b8</title>
<a xlink:href="../../SDMLib/src/org/sdmlib/replication/BoardTask.java" xlink:title="&lt;TABLE&gt;">
<polygon fill="none" stroke="black" points="132,-38 132,-55 285,-55 285,-38 132,-38"/>
<text text-anchor="start" x="174.5" y="-44.5" font-family="Arial" font-size="10.00"> </text>
<text text-anchor="start" x="178.5" y="-44.5" font-family="Arial" font-size="10.00">b8 :BoardTask</text>
</a>
<polygon fill="none" stroke="black" points="132,-4 132,-38 285,-38 285,-4 132,-4"/>
<text text-anchor="start" x="137" y="-26" font-family="Arial" font-size="10.00">name = &quot;showStartGameButton&quot;</text>
<text text-anchor="start" x="137" y="-12" font-family="Arial" font-size="10.00">status = &quot;start&quot;</text>
</g>
<!-- l5&#45;&#45;b8 -->
<g id="edge10" class="edge"><title>l5&#45;&#45;b8</title>
<path fill="none" stroke="black" d="M306.249,-138.408C286.567,-116.891 256.218,-83.7134 234.461,-59.9275"/>
<text text-anchor="middle" x="243.696" y="-61.2624" font-family="Arial" font-size="10.00">tasks</text>
<text text-anchor="middle" x="297.014" y="-132.073" font-family="Arial" font-size="10.00">lane</text>
</g>
<!-- b7 -->
<g id="node8" class="node"><title>b7</title>
<a xlink:href="../../SDMLib/src/org/sdmlib/replication/BoardTask.java" xlink:title="&lt;TABLE&gt;">
<polygon fill="none" stroke="black" points="319,-38 319,-55 472,-55 472,-38 319,-38"/>
<text text-anchor="start" x="361.5" y="-44.5" font-family="Arial" font-size="10.00"> </text>
<text text-anchor="start" x="365.5" y="-44.5" font-family="Arial" font-size="10.00">b7 :BoardTask</text>
</a>
<polygon fill="none" stroke="black" points="319,-4 319,-38 472,-38 472,-4 319,-4"/>
<text text-anchor="start" x="324" y="-26" font-family="Arial" font-size="10.00">name = &quot;showStartGameButton&quot;</text>
<text text-anchor="start" x="324" y="-12" font-family="Arial" font-size="10.00">status = &quot;start&quot;</text>
</g>
<!-- l6&#45;&#45;b7 -->
<g id="edge12" class="edge"><title>l6&#45;&#45;b7</title>
<path fill="none" stroke="black" d="M444.957,-138.408C434.949,-116.891 419.518,-83.7134 408.455,-59.9275"/>
<text text-anchor="middle" x="416.109" y="-63.8629" font-family="Arial" font-size="10.00">tasks</text>
<text text-anchor="middle" x="437.303" y="-129.473" font-family="Arial" font-size="10.00">lane</text>
</g>
<!-- b9 -->
<g id="node9" class="node"><title>b9</title>
<a xlink:href="../../SDMLib/src/org/sdmlib/replication/BoardTask.java" xlink:title="&lt;TABLE&gt;">
<polygon fill="none" stroke="black" points="506,-38 506,-55 659,-55 659,-38 506,-38"/>
<text text-anchor="start" x="548.5" y="-44.5" font-family="Arial" font-size="10.00"> </text>
<text text-anchor="start" x="552.5" y="-44.5" font-family="Arial" font-size="10.00">b9 :BoardTask</text>
</a>
<polygon fill="none" stroke="black" points="506,-4 506,-38 659,-38 659,-4 506,-4"/>
<text text-anchor="start" x="511" y="-26" font-family="Arial" font-size="10.00">name = &quot;showStartGameButton&quot;</text>
<text text-anchor="start" x="511" y="-12" font-family="Arial" font-size="10.00">status = &quot;start&quot;</text>
</g>
<!-- l6&#45;&#45;b9 -->
<g id="edge14" class="edge"><title>l6&#45;&#45;b9</title>
<path fill="none" stroke="black" d="M476.257,-138.408C497.441,-116.891 530.104,-83.7134 553.521,-59.9275"/>
<text text-anchor="middle" x="550.174" y="-66.8509" font-family="Arial" font-size="10.00">tasks</text>
<text text-anchor="middle" x="479.604" y="-126.485" font-family="Arial" font-size="10.00">lane</text>
</g>
<!-- b10 -->
<g id="node11" class="node"><title>b10</title>
<a xlink:href="../../SDMLib/src/org/sdmlib/replication/BoardTask.java" xlink:title="&lt;TABLE&gt;">
<polygon fill="none" stroke="black" points="693,-38 693,-55 846,-55 846,-38 693,-38"/>
<text text-anchor="start" x="733" y="-44.5" font-family="Arial" font-size="10.00"> </text>
<text text-anchor="start" x="737" y="-44.5" font-family="Arial" font-size="10.00">b10 :BoardTask</text>
</a>
<polygon fill="none" stroke="black" points="693,-4 693,-38 846,-38 846,-4 693,-4"/>
<text text-anchor="start" x="698" y="-26" font-family="Arial" font-size="10.00">name = &quot;showStartGameButton&quot;</text>
<text text-anchor="start" x="698" y="-12" font-family="Arial" font-size="10.00">status = &quot;start&quot;</text>
</g>
<!-- l1&#45;&#45;b10 -->
<g id="edge16" class="edge"><title>l1&#45;&#45;b10</title>
<path fill="none" stroke="black" d="M719.043,-138.408C729.051,-116.891 744.482,-83.7134 755.545,-59.9275"/>
<text text-anchor="middle" x="755.555" y="-67.4275" font-family="Arial" font-size="10.00">tasks</text>
<text text-anchor="middle" x="719.033" y="-125.908" font-family="Arial" font-size="10.00">lane</text>
</g>
<!-- l12 -->
<g id="node12" class="node"><title>l12</title>
<a xlink:href="../../SDMLib/src/org/eclipse/swt/widgets/Label.java" xlink:title="&lt;TABLE&gt;">
<polygon fill="none" stroke="black" points="797,-162 797,-179 1040,-179 1040,-162 797,-162"/>
<text text-anchor="start" x="895" y="-168.5" font-family="Arial" font-size="10.00"> </text>
<text text-anchor="start" x="899" y="-168.5" font-family="Arial" font-size="10.00">l12 :Label</text>
</a>
<polygon fill="none" stroke="black" points="797,-142 797,-162 1040,-162 1040,-142 797,-142"/>
<text text-anchor="start" x="802" y="-150" font-family="Arial" font-size="10.00">text = &quot;When all players have shown up, Start Game&quot;</text>
</g>
<!-- s13 -->
<g id="node13" class="node"><title>s13</title>
<image xlink:href="icons/person1.png" width="32px" height="43px" preserveAspectRatio="xMinYMin meet" x="902" y="-348"/>
<a xlink:href="../examples/org/sdmlib/examples/replication/maumau/StartGameMouseAdapter.java" xlink:title="&lt;TABLE&gt;">
<polygon fill="none" stroke="black" points="846,-287 846,-303 990,-303 990,-287 846,-287"/>
<text text-anchor="start" x="849.5" y="-293" font-family="Arial" font-size="10.00"> </text>
<text text-anchor="start" x="853.5" y="-293" font-family="Arial" font-size="10.00">s13 :StartGameMouseAdapter</text>
</a>
</g>
<!-- s13&#45;&#45;l12 -->
<g id="edge18" class="edge"><title>s13&#45;&#45;l12</title>
<path fill="none" stroke="black" d="M918,-283.379C918,-252.859 918,-209.348 918,-183.558"/>
<text text-anchor="middle" x="922.226" y="-190.121" font-family="Arial" font-size="10.00">startGameLabel</text>
</g>
<!-- maumau -->
<g id="node14" class="node"><title>maumau</title>
<image xlink:href="icons/shared.png" width="70px" height="23px" preserveAspectRatio="xMinYMin meet" x="1197.5" y="-369"/>
<a xlink:href="../examples/org/sdmlib/examples/replication/maumau/MauMau.java" xlink:title="&lt;TABLE&gt;">
<polygon fill="none" stroke="black" points="1186,-328 1186,-344 1279,-344 1279,-328 1186,-328"/>
<text text-anchor="start" x="1189.5" y="-334" font-family="Arial" font-size="10.00"> </text>
<text text-anchor="start" x="1193.5" y="-334" font-family="Arial" font-size="10.00">maumau :MauMau</text>
</a>
<polygon fill="none" stroke="black" points="1186,-266 1186,-328 1279,-328 1279,-266 1186,-266"/>
<text text-anchor="start" x="1191" y="-316" font-family="Arial" font-size="10.00">deck = &quot;&quot;</text>
<text text-anchor="start" x="1191" y="-302" font-family="Arial" font-size="10.00">stack = &quot;&quot;</text>
<text text-anchor="start" x="1191" y="-288" font-family="Arial" font-size="10.00">currentMove = &quot;&quot;</text>
<text text-anchor="start" x="1191" y="-274" font-family="Arial" font-size="10.00">duty = &quot;&quot;</text>
</g>
<!-- p3 -->
<g id="node15" class="node"><title>p3</title>
<a xlink:href="../examples/org/sdmlib/examples/replication/maumau/Player.java" xlink:title="&lt;TABLE&gt;">
<polygon fill="none" stroke="black" points="1074,-204 1074,-221 1157,-221 1157,-204 1074,-204"/>
<text text-anchor="start" x="1091" y="-210.5" font-family="Arial" font-size="10.00"> </text>
<text text-anchor="start" x="1095" y="-210.5" font-family="Arial" font-size="10.00">p3 :Player</text>
</a>
<polygon fill="none" stroke="black" points="1074,-100 1074,-204 1157,-204 1157,-100 1074,-100"/>
<text text-anchor="start" x="1079" y="-192" font-family="Arial" font-size="10.00">name = &quot;Abu&quot;</text>
<text text-anchor="start" x="1079" y="-178" font-family="Arial" font-size="10.00">deckOwner = &quot;&quot;</text>
<text text-anchor="start" x="1079" y="-164" font-family="Arial" font-size="10.00">stackOwner = &quot;&quot;</text>
<text text-anchor="start" x="1079" y="-150" font-family="Arial" font-size="10.00">next = &quot;&quot;</text>
<text text-anchor="start" x="1079" y="-136" font-family="Arial" font-size="10.00">prev = &quot;&quot;</text>
<text text-anchor="start" x="1079" y="-122" font-family="Arial" font-size="10.00">assignment = &quot;&quot;</text>
<text text-anchor="start" x="1079" y="-108" font-family="Arial" font-size="10.00">duty = &quot;&quot;</text>
</g>
<!-- maumau&#45;&#45;p3 -->
<g id="edge20" class="edge"><title>maumau&#45;&#45;p3</title>
<path fill="none" stroke="black" d="M1190.09,-262.121C1181.24,-250.318 1171.83,-237.779 1162.78,-225.712"/>
<text text-anchor="middle" x="1171.6" y="-227.927" font-family="Arial" font-size="10.00">players</text>
<text text-anchor="middle" x="1181.27" y="-254.906" font-family="Arial" font-size="10.00">game</text>
</g>
<!-- p4 -->
<g id="node16" class="node"><title>p4</title>
<a xlink:href="../examples/org/sdmlib/examples/replication/maumau/Player.java" xlink:title="&lt;TABLE&gt;">
<polygon fill="none" stroke="black" points="1191,-204 1191,-221 1274,-221 1274,-204 1191,-204"/>
<text text-anchor="start" x="1208" y="-210.5" font-family="Arial" font-size="10.00"> </text>
<text text-anchor="start" x="1212" y="-210.5" font-family="Arial" font-size="10.00">p4 :Player</text>
</a>
<polygon fill="none" stroke="black" points="1191,-100 1191,-204 1274,-204 1274,-100 1191,-100"/>
<text text-anchor="start" x="1196" y="-192" font-family="Arial" font-size="10.00">name = &quot;Karli&quot;</text>
<text text-anchor="start" x="1196" y="-178" font-family="Arial" font-size="10.00">deckOwner = &quot;&quot;</text>
<text text-anchor="start" x="1196" y="-164" font-family="Arial" font-size="10.00">stackOwner = &quot;&quot;</text>
<text text-anchor="start" x="1196" y="-150" font-family="Arial" font-size="10.00">next = &quot;&quot;</text>
<text text-anchor="start" x="1196" y="-136" font-family="Arial" font-size="10.00">prev = &quot;&quot;</text>
<text text-anchor="start" x="1196" y="-122" font-family="Arial" font-size="10.00">assignment = &quot;&quot;</text>
<text text-anchor="start" x="1196" y="-108" font-family="Arial" font-size="10.00">duty = &quot;&quot;</text>
</g>
<!-- maumau&#45;&#45;p4 -->
<g id="edge22" class="edge"><title>maumau&#45;&#45;p4</title>
<path fill="none" stroke="black" d="M1232,-262.121C1232,-250.318 1232,-237.779 1232,-225.712"/>
<text text-anchor="middle" x="1236.23" y="-232.275" font-family="Arial" font-size="10.00">players</text>
<text text-anchor="middle" x="1227.77" y="-250.558" font-family="Arial" font-size="10.00">game</text>
</g>
<!-- sabine -->
<g id="node17" class="node"><title>sabine</title>
<a xlink:href="../examples/org/sdmlib/examples/replication/maumau/Player.java" xlink:title="&lt;TABLE&gt;">
<polygon fill="none" stroke="black" points="1308,-204 1308,-221 1393,-221 1393,-204 1308,-204"/>
<text text-anchor="start" x="1317" y="-210.5" font-family="Arial" font-size="10.00"> </text>
<text text-anchor="start" x="1321" y="-210.5" font-family="Arial" font-size="10.00">sabine :Player</text>
</a>
<polygon fill="none" stroke="black" points="1308,-100 1308,-204 1393,-204 1393,-100 1308,-100"/>
<text text-anchor="start" x="1313" y="-192" font-family="Arial" font-size="10.00">name = &quot;Sabine&quot;</text>
<text text-anchor="start" x="1313" y="-178" font-family="Arial" font-size="10.00">deckOwner = &quot;&quot;</text>
<text text-anchor="start" x="1313" y="-164" font-family="Arial" font-size="10.00">stackOwner = &quot;&quot;</text>
<text text-anchor="start" x="1313" y="-150" font-family="Arial" font-size="10.00">next = &quot;&quot;</text>
<text text-anchor="start" x="1313" y="-136" font-family="Arial" font-size="10.00">prev = &quot;&quot;</text>
<text text-anchor="start" x="1313" y="-122" font-family="Arial" font-size="10.00">assignment = &quot;&quot;</text>
<text text-anchor="start" x="1313" y="-108" font-family="Arial" font-size="10.00">duty = &quot;&quot;</text>
</g>
<!-- maumau&#45;&#45;sabine -->
<g id="edge24" class="edge"><title>maumau&#45;&#45;sabine</title>
<path fill="none" stroke="black" d="M1274.27,-262.121C1283.2,-250.318 1292.68,-237.779 1301.81,-225.712"/>
<text text-anchor="middle" x="1299.71" y="-232.99" font-family="Arial" font-size="10.00">players</text>
<text text-anchor="middle" x="1276.36" y="-249.843" font-family="Arial" font-size="10.00">game</text>
</g>
</g>
</svg>
