<?xml version="1.0" encoding="UTF-8" standalone="no"?>
<!DOCTYPE svg PUBLIC "-//W3C//DTD SVG 1.1//EN"
 "http://www.w3.org/Graphics/SVG/1.1/DTD/svg11.dtd">
<!-- Generated by graphviz version 2.28.0 (20110507.0327)
 -->
<!-- Title: ObjectDiagram Pages: 1 -->
<svg width="953pt" height="416pt"
 viewBox="0.00 0.00 953.00 416.00" xmlns="http://www.w3.org/2000/svg" xmlns:xlink="http://www.w3.org/1999/xlink">
<g id="graph1" class="graph" transform="scale(1 1) rotate(0) translate(4 412)">
<title>ObjectDiagram</title>
<polygon fill="white" stroke="white" points="-4,5 -4,-412 950,-412 950,5 -4,5"/>
<!-- sabineNode -->
<g id="node1" class="node"><title>sabineNode</title>
<image xlink:href="icons/node.png" width="87px" height="61px" preserveAspectRatio="xMinYMin meet" x="10" y="-400"/>
<a xlink:href="../../SDMLib/src/org/sdmlib/replication/Node.java" xlink:title="&lt;TABLE&gt;">
<polygon fill="none" stroke="black" points="8,-321 8,-337 99,-337 99,-321 8,-321"/>
<text text-anchor="start" x="11.5" y="-327" font-family="Arial" font-size="10.00"> </text>
<text text-anchor="start" x="15.5" y="-327" font-family="Arial" font-size="10.00">sabineNode :Node</text>
</a>
</g>
<!-- sabineInit -->
<g id="node2" class="node"><title>sabineInit</title>
<image xlink:href="icons/worker.png" width="80px" height="61px" preserveAspectRatio="xMinYMin meet" x="181" y="-400"/>
<a xlink:href="../examples/org/sdmlib/examples/replication/maumau/MultiMauMauClientInitTask.java" xlink:title="&lt;TABLE&gt;">
<polygon fill="none" stroke="black" points="133,-321 133,-337 309,-337 309,-321 133,-321"/>
<text text-anchor="start" x="136.5" y="-327" font-family="Arial" font-size="10.00"> </text>
<text text-anchor="start" x="140.5" y="-327" font-family="Arial" font-size="10.00">sabineInit :MultiMauMauClientInitTask</text>
</a>
</g>
<!-- taskboard -->
<g id="node3" class="node"><title>taskboard</title>
<image xlink:href="icons/shared.png" width="70px" height="23px" preserveAspectRatio="xMinYMin meet" x="372.5" y="-381"/>
<a xlink:href="../../SDMLib/src/org/sdmlib/replication/TaskFlowBoard.java" xlink:title="&lt;TABLE&gt;">
<polygon fill="none" stroke="black" points="344,-340 344,-356 471,-356 471,-340 344,-340"/>
<text text-anchor="start" x="347.5" y="-346" font-family="Arial" font-size="10.00"> </text>
<text text-anchor="start" x="351.5" y="-346" font-family="Arial" font-size="10.00">taskboard :TaskFlowBoard</text>
</a>
</g>
<!-- l1 -->
<g id="node4" class="node"><title>l1</title>
<a xlink:href="../../SDMLib/src/org/sdmlib/replication/Lane.java" xlink:title="&lt;TABLE&gt;">
<polygon fill="none" stroke="black" points="354,-224 354,-241 460,-241 460,-224 354,-224"/>
<text text-anchor="start" x="387.5" y="-230.5" font-family="Arial" font-size="10.00"> </text>
<text text-anchor="start" x="391.5" y="-230.5" font-family="Arial" font-size="10.00">l1 :Lane</text>
</a>
<polygon fill="none" stroke="black" points="354,-204 354,-224 460,-224 460,-204 354,-204"/>
<text text-anchor="start" x="359" y="-212" font-family="Arial" font-size="10.00">name = &quot;SabineLane&quot;</text>
</g>
<!-- taskboard&#45;&#45;l1 -->
<g id="edge2" class="edge"><title>taskboard&#45;&#45;l1</title>
<path fill="none" stroke="black" d="M407,-336.19C407,-310.436 407,-270.54 407,-245.913"/>
<text text-anchor="middle" x="411.226" y="-252.476" font-family="Arial" font-size="10.00">lanes</text>
<text text-anchor="middle" x="402.774" y="-324.627" font-family="Arial" font-size="10.00">board</text>
</g>
<!-- sabineLaneListener -->
<g id="node5" class="node"><title>sabineLaneListener</title>
<image xlink:href="icons/person1.png" width="32px" height="43px" preserveAspectRatio="xMinYMin meet" x="583" y="-401"/>
<a xlink:href="../examples/org/sdmlib/examples/replication/maumau/PlayerLaneManager.java" xlink:title="&lt;TABLE&gt;">
<polygon fill="none" stroke="black" points="505,-340 505,-356 693,-356 693,-340 505,-340"/>
<text text-anchor="start" x="508.5" y="-346" font-family="Arial" font-size="10.00"> </text>
<text text-anchor="start" x="512.5" y="-346" font-family="Arial" font-size="10.00">sabineLaneListener :PlayerLaneManager</text>
</a>
<polygon fill="none" stroke="black" points="505,-320 505,-340 693,-340 693,-320 505,-320"/>
<text text-anchor="start" x="510" y="-328" font-family="Arial" font-size="10.00">source = &quot;&quot;</text>
</g>
<!-- maumau -->
<g id="node6" class="node"><title>maumau</title>
<image xlink:href="icons/shared.png" width="70px" height="23px" preserveAspectRatio="xMinYMin meet" x="755.5" y="-273"/>
<a xlink:href="../examples/org/sdmlib/examples/replication/maumau/MauMau.java" xlink:title="&lt;TABLE&gt;">
<polygon fill="none" stroke="black" points="744,-232 744,-248 837,-248 837,-232 744,-232"/>
<text text-anchor="start" x="747.5" y="-238" font-family="Arial" font-size="10.00"> </text>
<text text-anchor="start" x="751.5" y="-238" font-family="Arial" font-size="10.00">maumau :MauMau</text>
</a>
<polygon fill="none" stroke="black" points="744,-170 744,-232 837,-232 837,-170 744,-170"/>
<text text-anchor="start" x="749" y="-220" font-family="Arial" font-size="10.00">deck = &quot;&quot;</text>
<text text-anchor="start" x="749" y="-206" font-family="Arial" font-size="10.00">stack = &quot;&quot;</text>
<text text-anchor="start" x="749" y="-192" font-family="Arial" font-size="10.00">currentMove = &quot;&quot;</text>
<text text-anchor="start" x="749" y="-178" font-family="Arial" font-size="10.00">duty = &quot;&quot;</text>
</g>
<!-- sabine -->
<g id="node7" class="node"><title>sabine</title>
<a xlink:href="../examples/org/sdmlib/examples/replication/maumau/Player.java" xlink:title="&lt;TABLE&gt;">
<polygon fill="none" stroke="black" points="789,-108 789,-125 874,-125 874,-108 789,-108"/>
<text text-anchor="start" x="798" y="-114.5" font-family="Arial" font-size="10.00"> </text>
<text text-anchor="start" x="802" y="-114.5" font-family="Arial" font-size="10.00">sabine :Player</text>
</a>
<polygon fill="none" stroke="black" points="789,-4 789,-108 874,-108 874,-4 789,-4"/>
<text text-anchor="start" x="794" y="-96" font-family="Arial" font-size="10.00">name = &quot;Sabine&quot;</text>
<text text-anchor="start" x="794" y="-82" font-family="Arial" font-size="10.00">deckOwner = &quot;&quot;</text>
<text text-anchor="start" x="794" y="-68" font-family="Arial" font-size="10.00">stackOwner = &quot;&quot;</text>
<text text-anchor="start" x="794" y="-54" font-family="Arial" font-size="10.00">next = &quot;&quot;</text>
<text text-anchor="start" x="794" y="-40" font-family="Arial" font-size="10.00">prev = &quot;&quot;</text>
<text text-anchor="start" x="794" y="-26" font-family="Arial" font-size="10.00">assignment = &quot;&quot;</text>
<text text-anchor="start" x="794" y="-12" font-family="Arial" font-size="10.00">duty = &quot;&quot;</text>
</g>
<!-- maumau&#45;&#45;sabine -->
<g id="edge4" class="edge"><title>maumau&#45;&#45;sabine</title>
<path fill="none" stroke="black" d="M804.686,-166.121C807.788,-154.318 811.084,-141.779 814.255,-129.712"/>
<text text-anchor="middle" x="816.039" y="-137.052" font-family="Arial" font-size="10.00">players</text>
<text text-anchor="middle" x="802.902" y="-153.781" font-family="Arial" font-size="10.00">game</text>
</g>
<!-- abuMauMauController -->
<g id="node8" class="node"><title>abuMauMauController</title>
<image xlink:href="icons/person1.png" width="32px" height="43px" preserveAspectRatio="xMinYMin meet" x="816" y="-391"/>
<a xlink:href="../examples/org/sdmlib/examples/replication/maumau/MultiMauMauControler.java" xlink:title="&lt;TABLE&gt;">
<polygon fill="none" stroke="black" points="727,-330 727,-346 937,-346 937,-330 727,-330"/>
<text text-anchor="start" x="730.5" y="-336" font-family="Arial" font-size="10.00"> </text>
<text text-anchor="start" x="734.5" y="-336" font-family="Arial" font-size="10.00">abuMauMauController :MultiMauMauControler</text>
</a>
</g>
<!-- abuMauMauController&#45;&#45;maumau -->
<g id="edge6" class="edge"><title>abuMauMauController&#45;&#45;maumau</title>
<path fill="none" stroke="black" d="M821.402,-326.429C817.052,-312.24 811.905,-295.453 807.051,-279.618"/>
<text text-anchor="middle" x="813.748" y="-284.545" font-family="Arial" font-size="10.00">mauMau</text>
</g>
<!-- abuMauMauController&#45;&#45;sabine -->
<g id="edge8" class="edge"><title>abuMauMauController&#45;&#45;sabine</title>
<path fill="none" stroke="black" d="M843.062,-326.293C847.042,-312.1 851.034,-295.419 853,-280 859.409,-229.74 858.475,-216.37 853,-166 851.713,-154.16 849.593,-141.667 847.163,-129.675"/>
<text text-anchor="middle" x="853.078" y="-135.239" font-family="Arial" font-size="10.00">activePlayer</text>
</g>
</g>
</svg>
