<?xml version="1.0" encoding="UTF-8" standalone="no"?>
<!DOCTYPE svg PUBLIC "-//W3C//DTD SVG 1.1//EN"
 "http://www.w3.org/Graphics/SVG/1.1/DTD/svg11.dtd">
<!-- Generated by graphviz version 2.28.0 (20110507.0327)
 -->
<!-- Title: ObjectDiagram Pages: 1 -->
<svg width="1137pt" height="262pt"
 viewBox="0.00 0.00 1137.00 262.00" xmlns="http://www.w3.org/2000/svg" xmlns:xlink="http://www.w3.org/1999/xlink">
<g id="graph1" class="graph" transform="scale(1 1) rotate(0) translate(4 258)">
<title>ObjectDiagram</title>
<polygon fill="white" stroke="white" points="-4,5 -4,-258 1134,-258 1134,5 -4,5"/>
<!-- sabineStartGameHandler -->
<g id="node1" class="node"><title>sabineStartGameHandler</title>
<image xlink:href="icons/worker.png" width="80px" height="61px" preserveAspectRatio="xMinYMin meet" x="70" y="-247"/>
<a xlink:href="../examples/org/sdmlib/examples/replication/maumau/ShowStartGameButton.java" xlink:title="&lt;TABLE&gt;">
<polygon fill="none" stroke="black" points="8,-168 8,-184 212,-184 212,-168 8,-168"/>
<text text-anchor="start" x="11.5" y="-174" font-family="Times New Roman,serif" font-size="10.00"> </text>
<text text-anchor="start" x="14.5" y="-174" font-family="Times New Roman,serif" font-size="10.00">sabineStartGameHandler :ShowStartGameButton</text>
</a>
</g>
<!-- taskboard -->
<g id="node2" class="node"><title>taskboard</title>
<image xlink:href="icons/shared.png" width="70px" height="23px" preserveAspectRatio="xMinYMin meet" x="270" y="-228"/>
<a xlink:href="../../SDMLib/src/org/sdmlib/replication/TaskFlowBoard.java" xlink:title="&lt;TABLE&gt;">
<polygon fill="none" stroke="black" points="246,-187 246,-203 364,-203 364,-187 246,-187"/>
<text text-anchor="start" x="249.5" y="-193" font-family="Times New Roman,serif" font-size="10.00"> </text>
<text text-anchor="start" x="252.5" y="-193" font-family="Times New Roman,serif" font-size="10.00">taskboard :TaskFlowBoard</text>
</a>
</g>
<!-- l3 -->
<g id="node3" class="node"><title>l3</title>
<a xlink:href="../../SDMLib/src/org/sdmlib/replication/Lane.java" xlink:title="&lt;TABLE&gt;">
<polygon fill="none" stroke="black" points="88,-106 88,-123 164,-123 164,-106 88,-106"/>
<text text-anchor="start" x="109" y="-112.5" font-family="Times New Roman,serif" font-size="10.00"> </text>
<text text-anchor="start" x="112" y="-112.5" font-family="Times New Roman,serif" font-size="10.00">l3 :Lane</text>
</a>
<polygon fill="none" stroke="black" points="88,-86 88,-106 164,-106 164,-86 88,-86"/>
<text text-anchor="start" x="93" y="-94" font-family="Times New Roman,serif" font-size="10.00">name = &quot;server&quot;</text>
</g>
<!-- taskboard&#45;&#45;l3 -->
<g id="edge2" class="edge"><title>taskboard&#45;&#45;l3</title>
<path fill="none" stroke="black" d="M262.842,-183.473C251.841,-177.106 239.989,-170.275 229,-164 207.792,-151.89 184.045,-138.506 164.702,-127.649"/>
<text text-anchor="middle" x="174.673" y="-125.902" font-family="Times New Roman,serif" font-size="10.00">lanes</text>
<text text-anchor="middle" x="252.881" y="-180.093" font-family="Times New Roman,serif" font-size="10.00">board</text>
</g>
<!-- l5 -->
<g id="node4" class="node"><title>l5</title>
<a xlink:href="../../SDMLib/src/org/sdmlib/replication/Lane.java" xlink:title="&lt;TABLE&gt;">
<polygon fill="none" stroke="black" points="199,-106 199,-123 288,-123 288,-106 199,-106"/>
<text text-anchor="start" x="226.5" y="-112.5" font-family="Times New Roman,serif" font-size="10.00"> </text>
<text text-anchor="start" x="229.5" y="-112.5" font-family="Times New Roman,serif" font-size="10.00">l5 :Lane</text>
</a>
<polygon fill="none" stroke="black" points="199,-86 199,-106 288,-106 288,-86 199,-86"/>
<text text-anchor="start" x="204" y="-94" font-family="Times New Roman,serif" font-size="10.00">name = &quot;AbuLane&quot;</text>
</g>
<!-- taskboard&#45;&#45;l5 -->
<g id="edge4" class="edge"><title>taskboard&#45;&#45;l5</title>
<path fill="none" stroke="black" d="M289.992,-183.309C279.67,-166.328 266.092,-143.99 256.187,-127.694"/>
<text text-anchor="middle" x="264.505" y="-130.743" font-family="Times New Roman,serif" font-size="10.00">lanes</text>
<text text-anchor="middle" x="281.673" y="-175.259" font-family="Times New Roman,serif" font-size="10.00">board</text>
</g>
<!-- l8 -->
<g id="node6" class="node"><title>l8</title>
<a xlink:href="../../SDMLib/src/org/sdmlib/replication/Lane.java" xlink:title="&lt;TABLE&gt;">
<polygon fill="none" stroke="black" points="322,-106 322,-123 412,-123 412,-106 322,-106"/>
<text text-anchor="start" x="350" y="-112.5" font-family="Times New Roman,serif" font-size="10.00"> </text>
<text text-anchor="start" x="353" y="-112.5" font-family="Times New Roman,serif" font-size="10.00">l8 :Lane</text>
</a>
<polygon fill="none" stroke="black" points="322,-86 322,-106 412,-106 412,-86 322,-86"/>
<text text-anchor="start" x="327" y="-94" font-family="Times New Roman,serif" font-size="10.00">name = &quot;KarliLane&quot;</text>
</g>
<!-- taskboard&#45;&#45;l8 -->
<g id="edge6" class="edge"><title>taskboard&#45;&#45;l8</title>
<path fill="none" stroke="black" d="M320.008,-183.309C330.33,-166.328 343.908,-143.99 353.813,-127.694"/>
<text text-anchor="middle" x="352.717" y="-135.134" font-family="Times New Roman,serif" font-size="10.00">lanes</text>
<text text-anchor="middle" x="321.105" y="-170.869" font-family="Times New Roman,serif" font-size="10.00">board</text>
</g>
<!-- l1 -->
<g id="node8" class="node"><title>l1</title>
<a xlink:href="../../SDMLib/src/org/sdmlib/replication/Lane.java" xlink:title="&lt;TABLE&gt;">
<polygon fill="none" stroke="black" points="446,-106 446,-123 544,-123 544,-106 446,-106"/>
<text text-anchor="start" x="478" y="-112.5" font-family="Times New Roman,serif" font-size="10.00"> </text>
<text text-anchor="start" x="481" y="-112.5" font-family="Times New Roman,serif" font-size="10.00">l1 :Lane</text>
</a>
<polygon fill="none" stroke="black" points="446,-86 446,-106 544,-106 544,-86 446,-86"/>
<text text-anchor="start" x="451" y="-94" font-family="Times New Roman,serif" font-size="10.00">name = &quot;SabineLane&quot;</text>
</g>
<!-- taskboard&#45;&#45;l1 -->
<g id="edge8" class="edge"><title>taskboard&#45;&#45;l1</title>
<path fill="none" stroke="black" d="M350.994,-183.309C382.733,-166.269 424.523,-143.835 454.905,-127.524"/>
<text text-anchor="middle" x="448.919" y="-133.035" font-family="Times New Roman,serif" font-size="10.00">lanes</text>
<text text-anchor="middle" x="356.98" y="-172.798" font-family="Times New Roman,serif" font-size="10.00">board</text>
</g>
<!-- b6 -->
<g id="node5" class="node"><title>b6</title>
<a xlink:href="../../SDMLib/src/org/sdmlib/replication/BoardTask.java" xlink:title="&lt;TABLE&gt;">
<polygon fill="none" stroke="black" points="209,-24 209,-41 277,-41 277,-24 209,-24"/>
<text text-anchor="start" x="212.5" y="-30.5" font-family="Times New Roman,serif" font-size="10.00"> </text>
<text text-anchor="start" x="215.5" y="-30.5" font-family="Times New Roman,serif" font-size="10.00">b6 :BoardTask</text>
</a>
<polygon fill="none" stroke="black" points="209,-4 209,-24 277,-24 277,-4 209,-4"/>
<text text-anchor="start" x="214" y="-12" font-family="Times New Roman,serif" font-size="10.00">name = &quot;init&quot;</text>
</g>
<!-- l5&#45;&#45;b6 -->
<g id="edge10" class="edge"><title>l5&#45;&#45;b6</title>
<path fill="none" stroke="black" d="M243,-82.1396C243,-70.759 243,-56.8929 243,-45.5569"/>
<text text-anchor="middle" x="247.226" y="-52.12" font-family="Times New Roman,serif" font-size="10.00">tasks</text>
<text text-anchor="middle" x="238.774" y="-70.5766" font-family="Times New Roman,serif" font-size="10.00">lane</text>
</g>
<!-- b9 -->
<g id="node7" class="node"><title>b9</title>
<a xlink:href="../../SDMLib/src/org/sdmlib/replication/BoardTask.java" xlink:title="&lt;TABLE&gt;">
<polygon fill="none" stroke="black" points="333,-24 333,-41 401,-41 401,-24 333,-24"/>
<text text-anchor="start" x="336.5" y="-30.5" font-family="Times New Roman,serif" font-size="10.00"> </text>
<text text-anchor="start" x="339.5" y="-30.5" font-family="Times New Roman,serif" font-size="10.00">b9 :BoardTask</text>
</a>
<polygon fill="none" stroke="black" points="333,-4 333,-24 401,-24 401,-4 333,-4"/>
<text text-anchor="start" x="338" y="-12" font-family="Times New Roman,serif" font-size="10.00">name = &quot;init&quot;</text>
</g>
<!-- l8&#45;&#45;b9 -->
<g id="edge12" class="edge"><title>l8&#45;&#45;b9</title>
<path fill="none" stroke="black" d="M367,-82.1396C367,-70.759 367,-56.8929 367,-45.5569"/>
<text text-anchor="middle" x="371.226" y="-52.12" font-family="Times New Roman,serif" font-size="10.00">tasks</text>
<text text-anchor="middle" x="362.774" y="-70.5766" font-family="Times New Roman,serif" font-size="10.00">lane</text>
</g>
<!-- b12 -->
<g id="node9" class="node"><title>b12</title>
<a xlink:href="../../SDMLib/src/org/sdmlib/replication/BoardTask.java" xlink:title="&lt;TABLE&gt;">
<polygon fill="none" stroke="black" points="459,-24 459,-41 532,-41 532,-24 459,-24"/>
<text text-anchor="start" x="462.5" y="-30.5" font-family="Times New Roman,serif" font-size="10.00"> </text>
<text text-anchor="start" x="465.5" y="-30.5" font-family="Times New Roman,serif" font-size="10.00">b12 :BoardTask</text>
</a>
<polygon fill="none" stroke="black" points="459,-4 459,-24 532,-24 532,-4 459,-4"/>
<text text-anchor="start" x="464" y="-12" font-family="Times New Roman,serif" font-size="10.00">name = &quot;init&quot;</text>
</g>
<!-- l1&#45;&#45;b12 -->
<g id="edge14" class="edge"><title>l1&#45;&#45;b12</title>
<path fill="none" stroke="black" d="M495,-82.1396C495,-70.759 495,-56.8929 495,-45.5569"/>
<text text-anchor="middle" x="499.226" y="-52.12" font-family="Times New Roman,serif" font-size="10.00">tasks</text>
<text text-anchor="middle" x="490.774" y="-70.5766" font-family="Times New Roman,serif" font-size="10.00">lane</text>
</g>
<!-- l10 -->
<g id="node10" class="node"><title>l10</title>
<a xlink:href="../../SDMLib/src/org/eclipse/swt/widgets/Label.java" xlink:title="&lt;TABLE&gt;">
<polygon fill="none" stroke="black" points="579,-106 579,-123 802,-123 802,-106 579,-106"/>
<text text-anchor="start" x="670" y="-112.5" font-family="Times New Roman,serif" font-size="10.00"> </text>
<text text-anchor="start" x="673" y="-112.5" font-family="Times New Roman,serif" font-size="10.00">l10 :Label</text>
</a>
<polygon fill="none" stroke="black" points="579,-86 579,-106 802,-106 802,-86 579,-86"/>
<text text-anchor="start" x="584" y="-94" font-family="Times New Roman,serif" font-size="10.00">text = &quot;When all players have shown up, Start Game&quot;</text>
</g>
<!-- s11 -->
<g id="node11" class="node"><title>s11</title>
<image xlink:href="icons/person1.png" width="32px" height="43px" preserveAspectRatio="xMinYMin meet" x="674" y="-238"/>
<a xlink:href="../examples/org/sdmlib/examples/replication/maumau/ShowStartGameButton.java" xlink:title="&lt;TABLE&gt;">
<polygon fill="none" stroke="black" points="594,-177 594,-193 786,-193 786,-177 594,-177"/>
<text text-anchor="start" x="597.5" y="-183" font-family="Times New Roman,serif" font-size="10.00"> </text>
<text text-anchor="start" x="600.5" y="-183" font-family="Times New Roman,serif" font-size="10.00">s11 :ShowStartGameButton$StartGameAction</text>
</a>
</g>
<!-- s11&#45;&#45;l10 -->
<g id="edge16" class="edge"><title>s11&#45;&#45;l10</title>
<path fill="none" stroke="black" d="M690,-173.467C690,-158.325 690,-141.013 690,-127.717"/>
<text text-anchor="middle" x="694.226" y="-134.28" font-family="Times New Roman,serif" font-size="10.00">startGameLabel</text>
</g>
<!-- maumau -->
<g id="node12" class="node"><title>maumau</title>
<image xlink:href="icons/shared.png" width="70px" height="23px" preserveAspectRatio="xMinYMin meet" x="939" y="-228"/>
<a xlink:href="../examples/org/sdmlib/examples/replication/maumau/MauMau.java" xlink:title="&lt;TABLE&gt;">
<polygon fill="none" stroke="black" points="931,-187 931,-203 1017,-203 1017,-187 931,-187"/>
<text text-anchor="start" x="934.5" y="-193" font-family="Times New Roman,serif" font-size="10.00"> </text>
<text text-anchor="start" x="937.5" y="-193" font-family="Times New Roman,serif" font-size="10.00">maumau :MauMau</text>
</a>
</g>
<!-- p4 -->
<g id="node13" class="node"><title>p4</title>
<a xlink:href="../examples/org/sdmlib/examples/replication/maumau/Player.java" xlink:title="&lt;TABLE&gt;">
<polygon fill="none" stroke="black" points="836,-106 836,-123 905,-123 905,-106 836,-106"/>
<text text-anchor="start" x="849" y="-112.5" font-family="Times New Roman,serif" font-size="10.00"> </text>
<text text-anchor="start" x="852" y="-112.5" font-family="Times New Roman,serif" font-size="10.00">p4 :Player</text>
</a>
<polygon fill="none" stroke="black" points="836,-86 836,-106 905,-106 905,-86 836,-86"/>
<text text-anchor="start" x="841" y="-94" font-family="Times New Roman,serif" font-size="10.00">name = &quot;Abu&quot;</text>
</g>
<!-- maumau&#45;&#45;p4 -->
<g id="edge18" class="edge"><title>maumau&#45;&#45;p4</title>
<path fill="none" stroke="black" d="M948.825,-183.309C931.511,-166.328 908.735,-143.99 892.119,-127.694"/>
<text text-anchor="middle" x="901.549" y="-128.523" font-family="Times New Roman,serif" font-size="10.00">players</text>
<text text-anchor="middle" x="939.395" y="-177.48" font-family="Times New Roman,serif" font-size="10.00">game</text>
</g>
<!-- p7 -->
<g id="node14" class="node"><title>p7</title>
<a xlink:href="../examples/org/sdmlib/examples/replication/maumau/Player.java" xlink:title="&lt;TABLE&gt;">
<polygon fill="none" stroke="black" points="939,-106 939,-123 1009,-123 1009,-106 939,-106"/>
<text text-anchor="start" x="952.5" y="-112.5" font-family="Times New Roman,serif" font-size="10.00"> </text>
<text text-anchor="start" x="955.5" y="-112.5" font-family="Times New Roman,serif" font-size="10.00">p7 :Player</text>
</a>
<polygon fill="none" stroke="black" points="939,-86 939,-106 1009,-106 1009,-86 939,-86"/>
<text text-anchor="start" x="944" y="-94" font-family="Times New Roman,serif" font-size="10.00">name = &quot;Karli&quot;</text>
</g>
<!-- maumau&#45;&#45;p7 -->
<g id="edge20" class="edge"><title>maumau&#45;&#45;p7</title>
<path fill="none" stroke="black" d="M974,-183.309C974,-166.328 974,-143.99 974,-127.694"/>
<text text-anchor="middle" x="978.226" y="-134.257" font-family="Times New Roman,serif" font-size="10.00">players</text>
<text text-anchor="middle" x="969.774" y="-171.746" font-family="Times New Roman,serif" font-size="10.00">game</text>
</g>
<!-- sabine -->
<g id="node15" class="node"><title>sabine</title>
<a xlink:href="../examples/org/sdmlib/examples/replication/maumau/Player.java" xlink:title="&lt;TABLE&gt;">
<polygon fill="none" stroke="black" points="1043,-106 1043,-123 1121,-123 1121,-106 1043,-106"/>
<text text-anchor="start" x="1052.5" y="-112.5" font-family="Times New Roman,serif" font-size="10.00"> </text>
<text text-anchor="start" x="1055.5" y="-112.5" font-family="Times New Roman,serif" font-size="10.00">sabine :Player</text>
</a>
<polygon fill="none" stroke="black" points="1043,-86 1043,-106 1121,-106 1121,-86 1043,-86"/>
<text text-anchor="start" x="1048" y="-94" font-family="Times New Roman,serif" font-size="10.00">name = &quot;Sabine&quot;</text>
</g>
<!-- maumau&#45;&#45;sabine -->
<g id="edge22" class="edge"><title>maumau&#45;&#45;sabine</title>
<path fill="none" stroke="black" d="M1000.14,-183.309C1018.12,-166.328 1041.78,-143.99 1059.03,-127.694"/>
<text text-anchor="middle" x="1055.34" y="-134.489" font-family="Times New Roman,serif" font-size="10.00">players</text>
<text text-anchor="middle" x="1003.83" y="-171.513" font-family="Times New Roman,serif" font-size="10.00">game</text>
</g>
</g>
</svg>
