<?xml version="1.0" encoding="UTF-8" standalone="no"?>
<!DOCTYPE svg PUBLIC "-//W3C//DTD SVG 1.1//EN"
 "http://www.w3.org/Graphics/SVG/1.1/DTD/svg11.dtd">
<!-- Generated by graphviz version 2.28.0 (20110507.0327)
 -->
<!-- Title: ObjectDiagram Pages: 1 -->
<svg width="1315pt" height="384pt"
 viewBox="0.00 0.00 1315.00 384.00" xmlns="http://www.w3.org/2000/svg" xmlns:xlink="http://www.w3.org/1999/xlink">
<g id="graph1" class="graph" transform="scale(1 1) rotate(0) translate(4 380)">
<title>ObjectDiagram</title>
<polygon fill="white" stroke="white" points="-4,5 -4,-380 1312,-380 1312,5 -4,5"/>
<!-- sabineNode -->
<g id="node1" class="node"><title>sabineNode</title>
<image xlink:href="icons/node.png" width="87px" height="61px" preserveAspectRatio="xMinYMin meet" x="10" y="-357"/>
<a xlink:href="../../SDMLib/src/org/sdmlib/replication/Node.java" xlink:title="&lt;TABLE&gt;">
<polygon fill="none" stroke="black" points="8,-278 8,-294 99,-294 99,-278 8,-278"/>
<text text-anchor="start" x="11.5" y="-284" font-family="Arial" font-size="10.00"> </text>
<text text-anchor="start" x="15.5" y="-284" font-family="Arial" font-size="10.00">sabineNode :Node</text>
</a>
</g>
<!-- s10 -->
<g id="node2" class="node"><title>s10</title>
<image xlink:href="icons/worker.png" width="80px" height="61px" preserveAspectRatio="xMinYMin meet" x="173.5" y="-357"/>
<a xlink:href="../examples/org/sdmlib/examples/replication/maumau/ShowStartGameButtonAction.java" xlink:title="&lt;TABLE&gt;">
<polygon fill="none" stroke="black" points="133,-278 133,-294 294,-294 294,-278 133,-278"/>
<text text-anchor="start" x="136.5" y="-284" font-family="Arial" font-size="10.00"> </text>
<text text-anchor="start" x="140.5" y="-284" font-family="Arial" font-size="10.00">s10 :ShowStartGameButtonAction</text>
</a>
</g>
<!-- taskboard -->
<g id="node3" class="node"><title>taskboard</title>
<image xlink:href="icons/shared.png" width="70px" height="23px" preserveAspectRatio="xMinYMin meet" x="356.5" y="-338"/>
<a xlink:href="../../SDMLib/src/org/sdmlib/replication/TaskFlowBoard.java" xlink:title="&lt;TABLE&gt;">
<polygon fill="none" stroke="black" points="328,-297 328,-313 455,-313 455,-297 328,-297"/>
<text text-anchor="start" x="331.5" y="-303" font-family="Arial" font-size="10.00"> </text>
<text text-anchor="start" x="335.5" y="-303" font-family="Arial" font-size="10.00">taskboard :TaskFlowBoard</text>
</a>
</g>
<!-- l2 -->
<g id="node4" class="node"><title>l2</title>
<a xlink:href="../../SDMLib/src/org/sdmlib/replication/Lane.java" xlink:title="&lt;TABLE&gt;">
<polygon fill="none" stroke="black" points="165,-162 165,-179 246,-179 246,-162 165,-162"/>
<text text-anchor="start" x="186" y="-168.5" font-family="Arial" font-size="10.00"> </text>
<text text-anchor="start" x="190" y="-168.5" font-family="Arial" font-size="10.00">l2 :Lane</text>
</a>
<polygon fill="none" stroke="black" points="165,-142 165,-162 246,-162 246,-142 165,-142"/>
<text text-anchor="start" x="170" y="-150" font-family="Arial" font-size="10.00">name = &quot;server&quot;</text>
</g>
<!-- taskboard&#45;&#45;l2 -->
<g id="edge2" class="edge"><title>taskboard&#45;&#45;l2</title>
<path fill="none" stroke="black" d="M355.599,-293.361C320.36,-268.737 270.343,-233.487 262,-226 247.493,-212.982 232.907,-196.528 222.122,-183.564"/>
<text text-anchor="middle" x="231.185" y="-185.29" font-family="Arial" font-size="10.00">lanes</text>
<text text-anchor="middle" x="345.75" y="-289.128" font-family="Arial" font-size="10.00">board</text>
</g>
<!-- l4 -->
<g id="node5" class="node"><title>l4</title>
<a xlink:href="../../SDMLib/src/org/sdmlib/replication/Lane.java" xlink:title="&lt;TABLE&gt;">
<polygon fill="none" stroke="black" points="280,-162 280,-179 373,-179 373,-162 280,-162"/>
<text text-anchor="start" x="307" y="-168.5" font-family="Arial" font-size="10.00"> </text>
<text text-anchor="start" x="311" y="-168.5" font-family="Arial" font-size="10.00">l4 :Lane</text>
</a>
<polygon fill="none" stroke="black" points="280,-142 280,-162 373,-162 373,-142 280,-142"/>
<text text-anchor="start" x="285" y="-150" font-family="Arial" font-size="10.00">name = &quot;AbuLane&quot;</text>
</g>
<!-- taskboard&#45;&#45;l4 -->
<g id="edge4" class="edge"><title>taskboard&#45;&#45;l4</title>
<path fill="none" stroke="black" d="M380.701,-293.281C368.1,-263.04 346.971,-212.329 334.995,-183.589"/>
<text text-anchor="middle" x="342.382" y="-187.829" font-family="Arial" font-size="10.00">lanes</text>
<text text-anchor="middle" x="373.314" y="-284.041" font-family="Arial" font-size="10.00">board</text>
</g>
<!-- l7 -->
<g id="node7" class="node"><title>l7</title>
<a xlink:href="../../SDMLib/src/org/sdmlib/replication/Lane.java" xlink:title="&lt;TABLE&gt;">
<polygon fill="none" stroke="black" points="407,-162 407,-179 503,-179 503,-162 407,-162"/>
<text text-anchor="start" x="435.5" y="-168.5" font-family="Arial" font-size="10.00"> </text>
<text text-anchor="start" x="439.5" y="-168.5" font-family="Arial" font-size="10.00">l7 :Lane</text>
</a>
<polygon fill="none" stroke="black" points="407,-142 407,-162 503,-162 503,-142 407,-142"/>
<text text-anchor="start" x="412" y="-150" font-family="Arial" font-size="10.00">name = &quot;KarliLane&quot;</text>
</g>
<!-- taskboard&#45;&#45;l7 -->
<g id="edge6" class="edge"><title>taskboard&#45;&#45;l7</title>
<path fill="none" stroke="black" d="M401.141,-293.281C413.548,-263.04 434.352,-212.329 446.143,-183.589"/>
<text text-anchor="middle" x="446.613" y="-191.078" font-family="Arial" font-size="10.00">lanes</text>
<text text-anchor="middle" x="400.671" y="-280.792" font-family="Arial" font-size="10.00">board</text>
</g>
<!-- l1 -->
<g id="node9" class="node"><title>l1</title>
<a xlink:href="../../SDMLib/src/org/sdmlib/replication/Lane.java" xlink:title="&lt;TABLE&gt;">
<polygon fill="none" stroke="black" points="563,-162 563,-179 669,-179 669,-162 563,-162"/>
<text text-anchor="start" x="596.5" y="-168.5" font-family="Arial" font-size="10.00"> </text>
<text text-anchor="start" x="600.5" y="-168.5" font-family="Arial" font-size="10.00">l1 :Lane</text>
</a>
<polygon fill="none" stroke="black" points="563,-142 563,-162 669,-162 669,-142 563,-142"/>
<text text-anchor="start" x="568" y="-150" font-family="Arial" font-size="10.00">name = &quot;SabineLane&quot;</text>
</g>
<!-- taskboard&#45;&#45;l1 -->
<g id="edge8" class="edge"><title>taskboard&#45;&#45;l1</title>
<path fill="none" stroke="black" d="M426.652,-293.281C470.27,-263.04 543.41,-212.329 584.862,-183.589"/>
<text text-anchor="middle" x="579.822" y="-189.726" font-family="Arial" font-size="10.00">lanes</text>
<text text-anchor="middle" x="431.692" y="-282.144" font-family="Arial" font-size="10.00">board</text>
</g>
<!-- b5 -->
<g id="node6" class="node"><title>b5</title>
<a xlink:href="../../SDMLib/src/org/sdmlib/replication/BoardTask.java" xlink:title="&lt;TABLE&gt;">
<polygon fill="none" stroke="black" points="192,-38 192,-55 345,-55 345,-38 192,-38"/>
<text text-anchor="start" x="234.5" y="-44.5" font-family="Arial" font-size="10.00"> </text>
<text text-anchor="start" x="238.5" y="-44.5" font-family="Arial" font-size="10.00">b5 :BoardTask</text>
</a>
<polygon fill="none" stroke="black" points="192,-4 192,-38 345,-38 345,-4 192,-4"/>
<text text-anchor="start" x="197" y="-26" font-family="Arial" font-size="10.00">name = &quot;showStartGameButton&quot;</text>
<text text-anchor="start" x="197" y="-12" font-family="Arial" font-size="10.00">status = &quot;start&quot;</text>
</g>
<!-- l4&#45;&#45;b5 -->
<g id="edge10" class="edge"><title>l4&#45;&#45;b5</title>
<path fill="none" stroke="black" d="M316.292,-138.408C306.618,-116.891 291.701,-83.7134 281.006,-59.9275"/>
<text text-anchor="middle" x="288.577" y="-63.9605" font-family="Arial" font-size="10.00">tasks</text>
<text text-anchor="middle" x="308.721" y="-129.375" font-family="Arial" font-size="10.00">lane</text>
</g>
<!-- b8 -->
<g id="node8" class="node"><title>b8</title>
<a xlink:href="../../SDMLib/src/org/sdmlib/replication/BoardTask.java" xlink:title="&lt;TABLE&gt;">
<polygon fill="none" stroke="black" points="379,-38 379,-55 532,-55 532,-38 379,-38"/>
<text text-anchor="start" x="421.5" y="-44.5" font-family="Arial" font-size="10.00"> </text>
<text text-anchor="start" x="425.5" y="-44.5" font-family="Arial" font-size="10.00">b8 :BoardTask</text>
</a>
<polygon fill="none" stroke="black" points="379,-4 379,-38 532,-38 532,-4 379,-4"/>
<text text-anchor="start" x="384" y="-26" font-family="Arial" font-size="10.00">name = &quot;showStartGameButton&quot;</text>
<text text-anchor="start" x="384" y="-12" font-family="Arial" font-size="10.00">status = &quot;start&quot;</text>
</g>
<!-- l7&#45;&#45;b8 -->
<g id="edge12" class="edge"><title>l7&#45;&#45;b8</title>
<path fill="none" stroke="black" d="M455,-138.408C455,-116.891 455,-83.7134 455,-59.9275"/>
<text text-anchor="middle" x="459.226" y="-66.4906" font-family="Arial" font-size="10.00">tasks</text>
<text text-anchor="middle" x="450.774" y="-126.845" font-family="Arial" font-size="10.00">lane</text>
</g>
<!-- b9 -->
<g id="node10" class="node"><title>b9</title>
<a xlink:href="../../SDMLib/src/org/sdmlib/replication/BoardTask.java" xlink:title="&lt;TABLE&gt;">
<polygon fill="none" stroke="black" points="566,-38 566,-55 719,-55 719,-38 566,-38"/>
<text text-anchor="start" x="608.5" y="-44.5" font-family="Arial" font-size="10.00"> </text>
<text text-anchor="start" x="612.5" y="-44.5" font-family="Arial" font-size="10.00">b9 :BoardTask</text>
</a>
<polygon fill="none" stroke="black" points="566,-4 566,-38 719,-38 719,-4 566,-4"/>
<text text-anchor="start" x="571" y="-26" font-family="Arial" font-size="10.00">name = &quot;showStartGameButton&quot;</text>
<text text-anchor="start" x="571" y="-12" font-family="Arial" font-size="10.00">status = &quot;start&quot;</text>
</g>
<!-- l1&#45;&#45;b9 -->
<g id="edge14" class="edge"><title>l1&#45;&#45;b9</title>
<path fill="none" stroke="black" d="M620.352,-138.408C624.689,-116.891 631.376,-83.7134 636.17,-59.9275"/>
<text text-anchor="middle" x="638.522" y="-67.1469" font-family="Arial" font-size="10.00">tasks</text>
<text text-anchor="middle" x="618" y="-126.189" font-family="Arial" font-size="10.00">lane</text>
</g>
<!-- l11 -->
<g id="node11" class="node"><title>l11</title>
<a xlink:href="../../SDMLib/src/org/eclipse/swt/widgets/Label.java" xlink:title="&lt;TABLE&gt;">
<polygon fill="none" stroke="black" points="704,-162 704,-179 947,-179 947,-162 704,-162"/>
<text text-anchor="start" x="802" y="-168.5" font-family="Arial" font-size="10.00"> </text>
<text text-anchor="start" x="806" y="-168.5" font-family="Arial" font-size="10.00">l11 :Label</text>
</a>
<polygon fill="none" stroke="black" points="704,-142 704,-162 947,-162 947,-142 704,-142"/>
<text text-anchor="start" x="709" y="-150" font-family="Arial" font-size="10.00">text = &quot;When all players have shown up, Start Game&quot;</text>
</g>
<!-- s12 -->
<g id="node12" class="node"><title>s12</title>
<image xlink:href="icons/person1.png" width="32px" height="43px" preserveAspectRatio="xMinYMin meet" x="809" y="-348"/>
<a xlink:href="../examples/org/sdmlib/examples/replication/maumau/StartGameMouseAdapter.java" xlink:title="&lt;TABLE&gt;">
<polygon fill="none" stroke="black" points="753,-287 753,-303 897,-303 897,-287 753,-287"/>
<text text-anchor="start" x="756.5" y="-293" font-family="Arial" font-size="10.00"> </text>
<text text-anchor="start" x="760.5" y="-293" font-family="Arial" font-size="10.00">s12 :StartGameMouseAdapter</text>
</a>
</g>
<!-- s12&#45;&#45;l11 -->
<g id="edge16" class="edge"><title>s12&#45;&#45;l11</title>
<path fill="none" stroke="black" d="M825,-283.379C825,-252.859 825,-209.348 825,-183.558"/>
<text text-anchor="middle" x="829.226" y="-190.121" font-family="Arial" font-size="10.00">startGameLabel</text>
</g>
<!-- maumau -->
<g id="node13" class="node"><title>maumau</title>
<image xlink:href="icons/shared.png" width="70px" height="23px" preserveAspectRatio="xMinYMin meet" x="1104.5" y="-369"/>
<a xlink:href="../examples/org/sdmlib/examples/replication/maumau/MauMau.java" xlink:title="&lt;TABLE&gt;">
<polygon fill="none" stroke="black" points="1093,-328 1093,-344 1186,-344 1186,-328 1093,-328"/>
<text text-anchor="start" x="1096.5" y="-334" font-family="Arial" font-size="10.00"> </text>
<text text-anchor="start" x="1100.5" y="-334" font-family="Arial" font-size="10.00">maumau :MauMau</text>
</a>
<polygon fill="none" stroke="black" points="1093,-266 1093,-328 1186,-328 1186,-266 1093,-266"/>
<text text-anchor="start" x="1098" y="-316" font-family="Arial" font-size="10.00">deck = &quot;&quot;</text>
<text text-anchor="start" x="1098" y="-302" font-family="Arial" font-size="10.00">stack = &quot;&quot;</text>
<text text-anchor="start" x="1098" y="-288" font-family="Arial" font-size="10.00">currentMove = &quot;&quot;</text>
<text text-anchor="start" x="1098" y="-274" font-family="Arial" font-size="10.00">duty = &quot;&quot;</text>
</g>
<!-- p3 -->
<g id="node14" class="node"><title>p3</title>
<a xlink:href="../examples/org/sdmlib/examples/replication/maumau/Player.java" xlink:title="&lt;TABLE&gt;">
<polygon fill="none" stroke="black" points="981,-204 981,-221 1064,-221 1064,-204 981,-204"/>
<text text-anchor="start" x="998" y="-210.5" font-family="Arial" font-size="10.00"> </text>
<text text-anchor="start" x="1002" y="-210.5" font-family="Arial" font-size="10.00">p3 :Player</text>
</a>
<polygon fill="none" stroke="black" points="981,-100 981,-204 1064,-204 1064,-100 981,-100"/>
<text text-anchor="start" x="986" y="-192" font-family="Arial" font-size="10.00">name = &quot;Abu&quot;</text>
<text text-anchor="start" x="986" y="-178" font-family="Arial" font-size="10.00">deckOwner = &quot;&quot;</text>
<text text-anchor="start" x="986" y="-164" font-family="Arial" font-size="10.00">stackOwner = &quot;&quot;</text>
<text text-anchor="start" x="986" y="-150" font-family="Arial" font-size="10.00">next = &quot;&quot;</text>
<text text-anchor="start" x="986" y="-136" font-family="Arial" font-size="10.00">prev = &quot;&quot;</text>
<text text-anchor="start" x="986" y="-122" font-family="Arial" font-size="10.00">assignment = &quot;&quot;</text>
<text text-anchor="start" x="986" y="-108" font-family="Arial" font-size="10.00">duty = &quot;&quot;</text>
</g>
<!-- maumau&#45;&#45;p3 -->
<g id="edge18" class="edge"><title>maumau&#45;&#45;p3</title>
<path fill="none" stroke="black" d="M1097.09,-262.121C1088.24,-250.318 1078.83,-237.779 1069.78,-225.712"/>
<text text-anchor="middle" x="1078.6" y="-227.927" font-family="Arial" font-size="10.00">players</text>
<text text-anchor="middle" x="1088.27" y="-254.906" font-family="Arial" font-size="10.00">game</text>
</g>
<!-- p6 -->
<g id="node15" class="node"><title>p6</title>
<a xlink:href="../examples/org/sdmlib/examples/replication/maumau/Player.java" xlink:title="&lt;TABLE&gt;">
<polygon fill="none" stroke="black" points="1098,-204 1098,-221 1181,-221 1181,-204 1098,-204"/>
<text text-anchor="start" x="1115" y="-210.5" font-family="Arial" font-size="10.00"> </text>
<text text-anchor="start" x="1119" y="-210.5" font-family="Arial" font-size="10.00">p6 :Player</text>
</a>
<polygon fill="none" stroke="black" points="1098,-100 1098,-204 1181,-204 1181,-100 1098,-100"/>
<text text-anchor="start" x="1103" y="-192" font-family="Arial" font-size="10.00">name = &quot;Karli&quot;</text>
<text text-anchor="start" x="1103" y="-178" font-family="Arial" font-size="10.00">deckOwner = &quot;&quot;</text>
<text text-anchor="start" x="1103" y="-164" font-family="Arial" font-size="10.00">stackOwner = &quot;&quot;</text>
<text text-anchor="start" x="1103" y="-150" font-family="Arial" font-size="10.00">next = &quot;&quot;</text>
<text text-anchor="start" x="1103" y="-136" font-family="Arial" font-size="10.00">prev = &quot;&quot;</text>
<text text-anchor="start" x="1103" y="-122" font-family="Arial" font-size="10.00">assignment = &quot;&quot;</text>
<text text-anchor="start" x="1103" y="-108" font-family="Arial" font-size="10.00">duty = &quot;&quot;</text>
</g>
<!-- maumau&#45;&#45;p6 -->
<g id="edge20" class="edge"><title>maumau&#45;&#45;p6</title>
<path fill="none" stroke="black" d="M1139,-262.121C1139,-250.318 1139,-237.779 1139,-225.712"/>
<text text-anchor="middle" x="1143.23" y="-232.275" font-family="Arial" font-size="10.00">players</text>
<text text-anchor="middle" x="1134.77" y="-250.558" font-family="Arial" font-size="10.00">game</text>
</g>
<!-- sabine -->
<g id="node16" class="node"><title>sabine</title>
<a xlink:href="../examples/org/sdmlib/examples/replication/maumau/Player.java" xlink:title="&lt;TABLE&gt;">
<polygon fill="none" stroke="black" points="1215,-204 1215,-221 1300,-221 1300,-204 1215,-204"/>
<text text-anchor="start" x="1224" y="-210.5" font-family="Arial" font-size="10.00"> </text>
<text text-anchor="start" x="1228" y="-210.5" font-family="Arial" font-size="10.00">sabine :Player</text>
</a>
<polygon fill="none" stroke="black" points="1215,-100 1215,-204 1300,-204 1300,-100 1215,-100"/>
<text text-anchor="start" x="1220" y="-192" font-family="Arial" font-size="10.00">name = &quot;Sabine&quot;</text>
<text text-anchor="start" x="1220" y="-178" font-family="Arial" font-size="10.00">deckOwner = &quot;&quot;</text>
<text text-anchor="start" x="1220" y="-164" font-family="Arial" font-size="10.00">stackOwner = &quot;&quot;</text>
<text text-anchor="start" x="1220" y="-150" font-family="Arial" font-size="10.00">next = &quot;&quot;</text>
<text text-anchor="start" x="1220" y="-136" font-family="Arial" font-size="10.00">prev = &quot;&quot;</text>
<text text-anchor="start" x="1220" y="-122" font-family="Arial" font-size="10.00">assignment = &quot;&quot;</text>
<text text-anchor="start" x="1220" y="-108" font-family="Arial" font-size="10.00">duty = &quot;&quot;</text>
</g>
<!-- maumau&#45;&#45;sabine -->
<g id="edge22" class="edge"><title>maumau&#45;&#45;sabine</title>
<path fill="none" stroke="black" d="M1181.27,-262.121C1190.2,-250.318 1199.68,-237.779 1208.81,-225.712"/>
<text text-anchor="middle" x="1206.71" y="-232.99" font-family="Arial" font-size="10.00">players</text>
<text text-anchor="middle" x="1183.36" y="-249.843" font-family="Arial" font-size="10.00">game</text>
</g>
</g>
</svg>
