<?xml version="1.0" encoding="UTF-8" standalone="no"?>
<!DOCTYPE svg PUBLIC "-//W3C//DTD SVG 1.1//EN"
 "http://www.w3.org/Graphics/SVG/1.1/DTD/svg11.dtd">
<!-- Generated by graphviz version 2.28.0 (20110507.0327)
 -->
<!-- Title: ObjectDiagram Pages: 1 -->
<svg width="1246pt" height="384pt"
 viewBox="0.00 0.00 1246.00 384.00" xmlns="http://www.w3.org/2000/svg" xmlns:xlink="http://www.w3.org/1999/xlink">
<g id="graph1" class="graph" transform="scale(1 1) rotate(0) translate(4 380)">
<title>ObjectDiagram</title>
<polygon fill="white" stroke="white" points="-4,5 -4,-380 1243,-380 1243,5 -4,5"/>
<!-- sabineNode -->
<g id="node1" class="node"><title>sabineNode</title>
<image xlink:href="icons/node.png" width="87px" height="61px" preserveAspectRatio="xMinYMin meet" x="10" y="-357"/>
<a xlink:href="../../SDMLib/src/org/sdmlib/replication/Node.java" xlink:title="&lt;TABLE&gt;">
<polygon fill="none" stroke="black" points="8,-278 8,-294 99,-294 99,-278 8,-278"/>
<text text-anchor="start" x="11.5" y="-284" font-family="Arial" font-size="10.00"> </text>
<text text-anchor="start" x="15.5" y="-284" font-family="Arial" font-size="10.00">sabineNode :Node</text>
</a>
</g>
<!-- s8 -->
<g id="node2" class="node"><title>s8</title>
<image xlink:href="icons/worker.png" width="80px" height="61px" preserveAspectRatio="xMinYMin meet" x="171" y="-357"/>
<a xlink:href="../examples/org/sdmlib/examples/replication/maumau/ShowStartGameButtonAction.java" xlink:title="&lt;TABLE&gt;">
<polygon fill="none" stroke="black" points="133,-278 133,-294 289,-294 289,-278 133,-278"/>
<text text-anchor="start" x="136.5" y="-284" font-family="Arial" font-size="10.00"> </text>
<text text-anchor="start" x="140.5" y="-284" font-family="Arial" font-size="10.00">s8 :ShowStartGameButtonAction</text>
</a>
</g>
<!-- taskboard -->
<g id="node3" class="node"><title>taskboard</title>
<image xlink:href="icons/shared.png" width="70px" height="23px" preserveAspectRatio="xMinYMin meet" x="352.5" y="-338"/>
<a xlink:href="../../SDMLib/src/org/sdmlib/replication/TaskFlowBoard.java" xlink:title="&lt;TABLE&gt;">
<polygon fill="none" stroke="black" points="324,-297 324,-313 451,-313 451,-297 324,-297"/>
<text text-anchor="start" x="327.5" y="-303" font-family="Arial" font-size="10.00"> </text>
<text text-anchor="start" x="331.5" y="-303" font-family="Arial" font-size="10.00">taskboard :TaskFlowBoard</text>
</a>
</g>
<!-- l2 -->
<g id="node4" class="node"><title>l2</title>
<a xlink:href="../../SDMLib/src/org/sdmlib/replication/Lane.java" xlink:title="&lt;TABLE&gt;">
<polygon fill="none" stroke="black" points="226,-162 226,-179 307,-179 307,-162 226,-162"/>
<text text-anchor="start" x="247" y="-168.5" font-family="Arial" font-size="10.00"> </text>
<text text-anchor="start" x="251" y="-168.5" font-family="Arial" font-size="10.00">l2 :Lane</text>
</a>
<polygon fill="none" stroke="black" points="226,-142 226,-162 307,-162 307,-142 226,-142"/>
<text text-anchor="start" x="231" y="-150" font-family="Arial" font-size="10.00">name = &quot;server&quot;</text>
</g>
<!-- taskboard&#45;&#45;l2 -->
<g id="edge2" class="edge"><title>taskboard&#45;&#45;l2</title>
<path fill="none" stroke="black" d="M367.827,-293.281C344.371,-263.04 305.038,-212.329 282.745,-183.589"/>
<text text-anchor="middle" x="291.639" y="-185.66" font-family="Arial" font-size="10.00">lanes</text>
<text text-anchor="middle" x="358.933" y="-286.21" font-family="Arial" font-size="10.00">board</text>
</g>
<!-- l4 -->
<g id="node5" class="node"><title>l4</title>
<a xlink:href="../../SDMLib/src/org/sdmlib/replication/Lane.java" xlink:title="&lt;TABLE&gt;">
<polygon fill="none" stroke="black" points="341,-162 341,-179 434,-179 434,-162 341,-162"/>
<text text-anchor="start" x="368" y="-168.5" font-family="Arial" font-size="10.00"> </text>
<text text-anchor="start" x="372" y="-168.5" font-family="Arial" font-size="10.00">l4 :Lane</text>
</a>
<polygon fill="none" stroke="black" points="341,-142 341,-162 434,-162 434,-142 341,-142"/>
<text text-anchor="start" x="346" y="-150" font-family="Arial" font-size="10.00">name = &quot;AbuLane&quot;</text>
</g>
<!-- taskboard&#45;&#45;l4 -->
<g id="edge4" class="edge"><title>taskboard&#45;&#45;l4</title>
<path fill="none" stroke="black" d="M387,-293.281C387,-263.04 387,-212.329 387,-183.589"/>
<text text-anchor="middle" x="391.226" y="-190.152" font-family="Arial" font-size="10.00">lanes</text>
<text text-anchor="middle" x="382.774" y="-281.718" font-family="Arial" font-size="10.00">board</text>
</g>
<!-- l1 -->
<g id="node7" class="node"><title>l1</title>
<a xlink:href="../../SDMLib/src/org/sdmlib/replication/Lane.java" xlink:title="&lt;TABLE&gt;">
<polygon fill="none" stroke="black" points="494,-162 494,-179 600,-179 600,-162 494,-162"/>
<text text-anchor="start" x="527.5" y="-168.5" font-family="Arial" font-size="10.00"> </text>
<text text-anchor="start" x="531.5" y="-168.5" font-family="Arial" font-size="10.00">l1 :Lane</text>
</a>
<polygon fill="none" stroke="black" points="494,-142 494,-162 600,-162 600,-142 494,-142"/>
<text text-anchor="start" x="499" y="-150" font-family="Arial" font-size="10.00">name = &quot;SabineLane&quot;</text>
</g>
<!-- taskboard&#45;&#45;l1 -->
<g id="edge6" class="edge"><title>taskboard&#45;&#45;l1</title>
<path fill="none" stroke="black" d="M412.352,-293.281C443.369,-263.04 495.38,-212.329 524.858,-183.589"/>
<text text-anchor="middle" x="521.319" y="-190.442" font-family="Arial" font-size="10.00">lanes</text>
<text text-anchor="middle" x="415.891" y="-281.428" font-family="Arial" font-size="10.00">board</text>
</g>
<!-- b5 -->
<g id="node6" class="node"><title>b5</title>
<a xlink:href="../../SDMLib/src/org/sdmlib/replication/BoardTask.java" xlink:title="&lt;TABLE&gt;">
<polygon fill="none" stroke="black" points="298,-38 298,-55 451,-55 451,-38 298,-38"/>
<text text-anchor="start" x="340.5" y="-44.5" font-family="Arial" font-size="10.00"> </text>
<text text-anchor="start" x="344.5" y="-44.5" font-family="Arial" font-size="10.00">b5 :BoardTask</text>
</a>
<polygon fill="none" stroke="black" points="298,-4 298,-38 451,-38 451,-4 298,-4"/>
<text text-anchor="start" x="303" y="-26" font-family="Arial" font-size="10.00">name = &quot;showStartGameButton&quot;</text>
<text text-anchor="start" x="303" y="-12" font-family="Arial" font-size="10.00">status = &quot;start&quot;</text>
</g>
<!-- l4&#45;&#45;b5 -->
<g id="edge8" class="edge"><title>l4&#45;&#45;b5</title>
<path fill="none" stroke="black" d="M384.824,-138.408C382.656,-116.891 379.312,-83.7134 376.915,-59.9275"/>
<text text-anchor="middle" x="382.029" y="-66.0212" font-family="Arial" font-size="10.00">tasks</text>
<text text-anchor="middle" x="379.71" y="-127.315" font-family="Arial" font-size="10.00">lane</text>
</g>
<!-- b7 -->
<g id="node8" class="node"><title>b7</title>
<a xlink:href="../../SDMLib/src/org/sdmlib/replication/BoardTask.java" xlink:title="&lt;TABLE&gt;">
<polygon fill="none" stroke="black" points="485,-38 485,-55 638,-55 638,-38 485,-38"/>
<text text-anchor="start" x="527.5" y="-44.5" font-family="Arial" font-size="10.00"> </text>
<text text-anchor="start" x="531.5" y="-44.5" font-family="Arial" font-size="10.00">b7 :BoardTask</text>
</a>
<polygon fill="none" stroke="black" points="485,-4 485,-38 638,-38 638,-4 485,-4"/>
<text text-anchor="start" x="490" y="-26" font-family="Arial" font-size="10.00">name = &quot;showStartGameButton&quot;</text>
<text text-anchor="start" x="490" y="-12" font-family="Arial" font-size="10.00">status = &quot;start&quot;</text>
</g>
<!-- l1&#45;&#45;b7 -->
<g id="edge10" class="edge"><title>l1&#45;&#45;b7</title>
<path fill="none" stroke="black" d="M549.343,-138.408C551.679,-116.891 555.279,-83.7134 557.861,-59.9275"/>
<text text-anchor="middle" x="561.084" y="-66.8937" font-family="Arial" font-size="10.00">tasks</text>
<text text-anchor="middle" x="546.12" y="-126.442" font-family="Arial" font-size="10.00">lane</text>
</g>
<!-- l9 -->
<g id="node9" class="node"><title>l9</title>
<a xlink:href="../../SDMLib/src/org/eclipse/swt/widgets/Label.java" xlink:title="&lt;TABLE&gt;">
<polygon fill="none" stroke="black" points="635,-162 635,-179 878,-179 878,-162 635,-162"/>
<text text-anchor="start" x="736" y="-168.5" font-family="Arial" font-size="10.00"> </text>
<text text-anchor="start" x="740" y="-168.5" font-family="Arial" font-size="10.00">l9 :Label</text>
</a>
<polygon fill="none" stroke="black" points="635,-142 635,-162 878,-162 878,-142 635,-142"/>
<text text-anchor="start" x="640" y="-150" font-family="Arial" font-size="10.00">text = &quot;When all players have shown up, Start Game&quot;</text>
</g>
<!-- s10 -->
<g id="node10" class="node"><title>s10</title>
<image xlink:href="icons/person1.png" width="32px" height="43px" preserveAspectRatio="xMinYMin meet" x="740" y="-348"/>
<a xlink:href="../examples/org/sdmlib/examples/replication/maumau/StartGameMouseAdapter.java" xlink:title="&lt;TABLE&gt;">
<polygon fill="none" stroke="black" points="684,-287 684,-303 828,-303 828,-287 684,-287"/>
<text text-anchor="start" x="687.5" y="-293" font-family="Arial" font-size="10.00"> </text>
<text text-anchor="start" x="691.5" y="-293" font-family="Arial" font-size="10.00">s10 :StartGameMouseAdapter</text>
</a>
</g>
<!-- s10&#45;&#45;l9 -->
<g id="edge12" class="edge"><title>s10&#45;&#45;l9</title>
<path fill="none" stroke="black" d="M756,-283.379C756,-252.859 756,-209.348 756,-183.558"/>
<text text-anchor="middle" x="760.226" y="-190.121" font-family="Arial" font-size="10.00">startGameLabel</text>
</g>
<!-- maumau -->
<g id="node11" class="node"><title>maumau</title>
<image xlink:href="icons/shared.png" width="70px" height="23px" preserveAspectRatio="xMinYMin meet" x="1035.5" y="-369"/>
<a xlink:href="../examples/org/sdmlib/examples/replication/maumau/MauMau.java" xlink:title="&lt;TABLE&gt;">
<polygon fill="none" stroke="black" points="1024,-328 1024,-344 1117,-344 1117,-328 1024,-328"/>
<text text-anchor="start" x="1027.5" y="-334" font-family="Arial" font-size="10.00"> </text>
<text text-anchor="start" x="1031.5" y="-334" font-family="Arial" font-size="10.00">maumau :MauMau</text>
</a>
<polygon fill="none" stroke="black" points="1024,-266 1024,-328 1117,-328 1117,-266 1024,-266"/>
<text text-anchor="start" x="1029" y="-316" font-family="Arial" font-size="10.00">deck = &quot;&quot;</text>
<text text-anchor="start" x="1029" y="-302" font-family="Arial" font-size="10.00">stack = &quot;&quot;</text>
<text text-anchor="start" x="1029" y="-288" font-family="Arial" font-size="10.00">currentMove = &quot;&quot;</text>
<text text-anchor="start" x="1029" y="-274" font-family="Arial" font-size="10.00">duty = &quot;&quot;</text>
</g>
<!-- p3 -->
<g id="node12" class="node"><title>p3</title>
<a xlink:href="../examples/org/sdmlib/examples/replication/maumau/Player.java" xlink:title="&lt;TABLE&gt;">
<polygon fill="none" stroke="black" points="912,-204 912,-221 995,-221 995,-204 912,-204"/>
<text text-anchor="start" x="929" y="-210.5" font-family="Arial" font-size="10.00"> </text>
<text text-anchor="start" x="933" y="-210.5" font-family="Arial" font-size="10.00">p3 :Player</text>
</a>
<polygon fill="none" stroke="black" points="912,-100 912,-204 995,-204 995,-100 912,-100"/>
<text text-anchor="start" x="917" y="-192" font-family="Arial" font-size="10.00">name = &quot;Abu&quot;</text>
<text text-anchor="start" x="917" y="-178" font-family="Arial" font-size="10.00">deckOwner = &quot;&quot;</text>
<text text-anchor="start" x="917" y="-164" font-family="Arial" font-size="10.00">stackOwner = &quot;&quot;</text>
<text text-anchor="start" x="917" y="-150" font-family="Arial" font-size="10.00">next = &quot;&quot;</text>
<text text-anchor="start" x="917" y="-136" font-family="Arial" font-size="10.00">prev = &quot;&quot;</text>
<text text-anchor="start" x="917" y="-122" font-family="Arial" font-size="10.00">assignment = &quot;&quot;</text>
<text text-anchor="start" x="917" y="-108" font-family="Arial" font-size="10.00">duty = &quot;&quot;</text>
</g>
<!-- maumau&#45;&#45;p3 -->
<g id="edge14" class="edge"><title>maumau&#45;&#45;p3</title>
<path fill="none" stroke="black" d="M1028.09,-262.121C1019.24,-250.318 1009.83,-237.779 1000.78,-225.712"/>
<text text-anchor="middle" x="1009.6" y="-227.927" font-family="Arial" font-size="10.00">players</text>
<text text-anchor="middle" x="1019.27" y="-254.906" font-family="Arial" font-size="10.00">game</text>
</g>
<!-- p6 -->
<g id="node13" class="node"><title>p6</title>
<a xlink:href="../examples/org/sdmlib/examples/replication/maumau/Player.java" xlink:title="&lt;TABLE&gt;">
<polygon fill="none" stroke="black" points="1029,-204 1029,-221 1112,-221 1112,-204 1029,-204"/>
<text text-anchor="start" x="1046" y="-210.5" font-family="Arial" font-size="10.00"> </text>
<text text-anchor="start" x="1050" y="-210.5" font-family="Arial" font-size="10.00">p6 :Player</text>
</a>
<polygon fill="none" stroke="black" points="1029,-100 1029,-204 1112,-204 1112,-100 1029,-100"/>
<text text-anchor="start" x="1034" y="-192" font-family="Arial" font-size="10.00">name = &quot;Karli&quot;</text>
<text text-anchor="start" x="1034" y="-178" font-family="Arial" font-size="10.00">deckOwner = &quot;&quot;</text>
<text text-anchor="start" x="1034" y="-164" font-family="Arial" font-size="10.00">stackOwner = &quot;&quot;</text>
<text text-anchor="start" x="1034" y="-150" font-family="Arial" font-size="10.00">next = &quot;&quot;</text>
<text text-anchor="start" x="1034" y="-136" font-family="Arial" font-size="10.00">prev = &quot;&quot;</text>
<text text-anchor="start" x="1034" y="-122" font-family="Arial" font-size="10.00">assignment = &quot;&quot;</text>
<text text-anchor="start" x="1034" y="-108" font-family="Arial" font-size="10.00">duty = &quot;&quot;</text>
</g>
<!-- maumau&#45;&#45;p6 -->
<g id="edge16" class="edge"><title>maumau&#45;&#45;p6</title>
<path fill="none" stroke="black" d="M1070,-262.121C1070,-250.318 1070,-237.779 1070,-225.712"/>
<text text-anchor="middle" x="1074.23" y="-232.275" font-family="Arial" font-size="10.00">players</text>
<text text-anchor="middle" x="1065.77" y="-250.558" font-family="Arial" font-size="10.00">game</text>
</g>
<!-- sabine -->
<g id="node14" class="node"><title>sabine</title>
<a xlink:href="../examples/org/sdmlib/examples/replication/maumau/Player.java" xlink:title="&lt;TABLE&gt;">
<polygon fill="none" stroke="black" points="1146,-204 1146,-221 1231,-221 1231,-204 1146,-204"/>
<text text-anchor="start" x="1155" y="-210.5" font-family="Arial" font-size="10.00"> </text>
<text text-anchor="start" x="1159" y="-210.5" font-family="Arial" font-size="10.00">sabine :Player</text>
</a>
<polygon fill="none" stroke="black" points="1146,-100 1146,-204 1231,-204 1231,-100 1146,-100"/>
<text text-anchor="start" x="1151" y="-192" font-family="Arial" font-size="10.00">name = &quot;Sabine&quot;</text>
<text text-anchor="start" x="1151" y="-178" font-family="Arial" font-size="10.00">deckOwner = &quot;&quot;</text>
<text text-anchor="start" x="1151" y="-164" font-family="Arial" font-size="10.00">stackOwner = &quot;&quot;</text>
<text text-anchor="start" x="1151" y="-150" font-family="Arial" font-size="10.00">next = &quot;&quot;</text>
<text text-anchor="start" x="1151" y="-136" font-family="Arial" font-size="10.00">prev = &quot;&quot;</text>
<text text-anchor="start" x="1151" y="-122" font-family="Arial" font-size="10.00">assignment = &quot;&quot;</text>
<text text-anchor="start" x="1151" y="-108" font-family="Arial" font-size="10.00">duty = &quot;&quot;</text>
</g>
<!-- maumau&#45;&#45;sabine -->
<g id="edge18" class="edge"><title>maumau&#45;&#45;sabine</title>
<path fill="none" stroke="black" d="M1112.27,-262.121C1121.2,-250.318 1130.68,-237.779 1139.81,-225.712"/>
<text text-anchor="middle" x="1137.71" y="-232.99" font-family="Arial" font-size="10.00">players</text>
<text text-anchor="middle" x="1114.36" y="-249.843" font-family="Arial" font-size="10.00">game</text>
</g>
</g>
</svg>
