<?xml version="1.0" encoding="UTF-8" standalone="no"?>
<!DOCTYPE svg PUBLIC "-//W3C//DTD SVG 1.1//EN"
 "http://www.w3.org/Graphics/SVG/1.1/DTD/svg11.dtd">
<!-- Generated by graphviz version 2.28.0 (20110507.0327)
 -->
<!-- Title: ObjectDiagram Pages: 1 -->
<svg width="1287pt" height="268pt"
 viewBox="0.00 0.00 1287.00 268.00" xmlns="http://www.w3.org/2000/svg" xmlns:xlink="http://www.w3.org/1999/xlink">
<g id="graph1" class="graph" transform="scale(1 1) rotate(0) translate(4 264)">
<title>ObjectDiagram</title>
<polygon fill="white" stroke="white" points="-4,5 -4,-264 1284,-264 1284,5 -4,5"/>
<!-- sabineInit -->
<g id="node1" class="node"><title>sabineInit</title>
<image xlink:href="icons/worker.png" width="80px" height="61px" preserveAspectRatio="xMinYMin meet" x="53" y="-253"/>
<a xlink:href="../examples/org/sdmlib/examples/replication/maumau/MultiMauMauClientInitTask.java" xlink:title="&lt;TABLE&gt;">
<polygon fill="none" stroke="black" points="8,-174 8,-190 178,-190 178,-174 8,-174"/>
<text text-anchor="start" x="11.5" y="-180" font-family="Times New Roman,serif" font-size="10.00"> </text>
<text text-anchor="start" x="14.5" y="-180" font-family="Times New Roman,serif" font-size="10.00">sabineInit :MultiMauMauClientInitTask</text>
</a>
</g>
<!-- taskboard -->
<g id="node2" class="node"><title>taskboard</title>
<image xlink:href="icons/shared.png" width="70px" height="23px" preserveAspectRatio="xMinYMin meet" x="236" y="-234"/>
<a xlink:href="../../SDMLib/src/org/sdmlib/replication/TaskFlowBoard.java" xlink:title="&lt;TABLE&gt;">
<polygon fill="none" stroke="black" points="212,-193 212,-209 330,-209 330,-193 212,-193"/>
<text text-anchor="start" x="215.5" y="-199" font-family="Times New Roman,serif" font-size="10.00"> </text>
<text text-anchor="start" x="218.5" y="-199" font-family="Times New Roman,serif" font-size="10.00">taskboard :TaskFlowBoard</text>
</a>
</g>
<!-- l1 -->
<g id="node3" class="node"><title>l1</title>
<a xlink:href="../../SDMLib/src/org/sdmlib/replication/Lane.java" xlink:title="&lt;TABLE&gt;">
<polygon fill="none" stroke="black" points="222,-109 222,-126 320,-126 320,-109 222,-109"/>
<text text-anchor="start" x="254" y="-115.5" font-family="Times New Roman,serif" font-size="10.00"> </text>
<text text-anchor="start" x="257" y="-115.5" font-family="Times New Roman,serif" font-size="10.00">l1 :Lane</text>
</a>
<polygon fill="none" stroke="black" points="222,-89 222,-109 320,-109 320,-89 222,-89"/>
<text text-anchor="start" x="227" y="-97" font-family="Times New Roman,serif" font-size="10.00">name = &quot;SabineLane&quot;</text>
</g>
<!-- taskboard&#45;&#45;l1 -->
<g id="edge2" class="edge"><title>taskboard&#45;&#45;l1</title>
<path fill="none" stroke="black" d="M271,-189.382C271,-171.561 271,-147.702 271,-130.616"/>
<text text-anchor="middle" x="275.226" y="-137.179" font-family="Times New Roman,serif" font-size="10.00">lanes</text>
<text text-anchor="middle" x="266.774" y="-177.819" font-family="Times New Roman,serif" font-size="10.00">board</text>
</g>
<!-- sabineLaneListener -->
<g id="node4" class="node"><title>sabineLaneListener</title>
<image xlink:href="icons/person1.png" width="32px" height="43px" preserveAspectRatio="xMinYMin meet" x="632" y="-244"/>
<a xlink:href="../examples/org/sdmlib/examples/replication/maumau/PlayerLaneListener.java" xlink:title="&lt;TABLE&gt;">
<polygon fill="none" stroke="black" points="563,-183 563,-199 733,-199 733,-183 563,-183"/>
<text text-anchor="start" x="566.5" y="-189" font-family="Times New Roman,serif" font-size="10.00"> </text>
<text text-anchor="start" x="569.5" y="-189" font-family="Times New Roman,serif" font-size="10.00">sabineLaneListener :PlayerLaneListener</text>
</a>
</g>
<!-- sabineLaneListener&#45;&#45;l1 -->
<g id="edge12" class="edge"><title>sabineLaneListener&#45;&#45;l1</title>
<path fill="none" stroke="black" d="M554.703,-192.846C492.533,-178.055 409.278,-156.908 337,-134 333.613,-132.926 330.146,-131.775 326.661,-130.578"/>
<text text-anchor="middle" x="336.605" y="-127.016" font-family="Times New Roman,serif" font-size="10.00">sources</text>
</g>
<!-- sabineStartGameHandler -->
<g id="node5" class="node"><title>sabineStartGameHandler</title>
<a xlink:href="../examples/org/sdmlib/examples/replication/maumau/ShowStartGameButton.java" xlink:title="&lt;TABLE&gt;">
<polygon fill="none" stroke="black" points="354,-99 354,-116 558,-116 558,-99 354,-99"/>
<text text-anchor="start" x="357.5" y="-105.5" font-family="Times New Roman,serif" font-size="10.00"> </text>
<text text-anchor="start" x="360.5" y="-105.5" font-family="Times New Roman,serif" font-size="10.00">sabineStartGameHandler :ShowStartGameButton</text>
</a>
</g>
<!-- sabineLaneListener&#45;&#45;sabineStartGameHandler -->
<g id="edge4" class="edge"><title>sabineLaneListener&#45;&#45;sabineStartGameHandler</title>
<path fill="none" stroke="black" d="M584.866,-179.474C552.077,-161.542 513.47,-140.429 487.12,-126.019"/>
<text text-anchor="middle" x="497.099" y="-124.159" font-family="Times New Roman,serif" font-size="10.00">handlerList</text>
</g>
<!-- c2 -->
<g id="node6" class="node"><title>c2</title>
<a xlink:href="../examples/org/sdmlib/examples/replication/maumau/ClickStartGameButton.java" xlink:title="&lt;TABLE&gt;">
<polygon fill="none" stroke="black" points="592,-99 592,-116 704,-116 704,-99 592,-99"/>
<text text-anchor="start" x="595.5" y="-105.5" font-family="Times New Roman,serif" font-size="10.00"> </text>
<text text-anchor="start" x="598.5" y="-105.5" font-family="Times New Roman,serif" font-size="10.00">c2 :ClickStartGameButton</text>
</a>
</g>
<!-- sabineLaneListener&#45;&#45;c2 -->
<g id="edge6" class="edge"><title>sabineLaneListener&#45;&#45;c2</title>
<path fill="none" stroke="black" d="M648,-179.328C648,-161.527 648,-140.623 648,-126.259"/>
<text text-anchor="middle" x="652.226" y="-132.822" font-family="Times New Roman,serif" font-size="10.00">handlerList</text>
</g>
<!-- c3 -->
<g id="node7" class="node"><title>c3</title>
<a xlink:href="../examples/org/sdmlib/examples/replication/maumau/CardsAreDeltScreenDumpHandler.java" xlink:title="&lt;TABLE&gt;">
<polygon fill="none" stroke="black" points="739,-99 739,-116 900,-116 900,-99 739,-99"/>
<text text-anchor="start" x="742.5" y="-105.5" font-family="Times New Roman,serif" font-size="10.00"> </text>
<text text-anchor="start" x="745.5" y="-105.5" font-family="Times New Roman,serif" font-size="10.00">c3 :CardsAreDeltScreenDumpHandler</text>
</a>
</g>
<!-- sabineLaneListener&#45;&#45;c3 -->
<g id="edge8" class="edge"><title>sabineLaneListener&#45;&#45;c3</title>
<path fill="none" stroke="black" d="M704.466,-179.328C733.456,-161.527 767.499,-140.623 790.893,-126.259"/>
<text text-anchor="middle" x="785.381" y="-132.102" font-family="Times New Roman,serif" font-size="10.00">handlerList</text>
</g>
<!-- k4 -->
<g id="node8" class="node"><title>k4</title>
<a xlink:href="../examples/org/sdmlib/examples/replication/maumau/KarliDrawCardsHandler.java" xlink:title="&lt;TABLE&gt;">
<polygon fill="none" stroke="black" points="934,-99 934,-116 1053,-116 1053,-99 934,-99"/>
<text text-anchor="start" x="937.5" y="-105.5" font-family="Times New Roman,serif" font-size="10.00"> </text>
<text text-anchor="start" x="940.5" y="-105.5" font-family="Times New Roman,serif" font-size="10.00">k4 :KarliDrawCardsHandler</text>
</a>
</g>
<!-- sabineLaneListener&#45;&#45;k4 -->
<g id="edge10" class="edge"><title>sabineLaneListener&#45;&#45;k4</title>
<path fill="none" stroke="black" d="M741.188,-186.776C792.797,-171.55 858.051,-152.053 916,-134 924.051,-131.492 932.558,-128.786 940.865,-126.113"/>
<text text-anchor="middle" x="933.53" y="-130.409" font-family="Times New Roman,serif" font-size="10.00">handlerList</text>
</g>
<!-- maumau -->
<g id="node9" class="node"><title>maumau</title>
<image xlink:href="icons/shared.png" width="70px" height="23px" preserveAspectRatio="xMinYMin meet" x="1095" y="-127"/>
<a xlink:href="../examples/org/sdmlib/examples/replication/maumau/MauMau.java" xlink:title="&lt;TABLE&gt;">
<polygon fill="none" stroke="black" points="1087,-86 1087,-102 1173,-102 1173,-86 1087,-86"/>
<text text-anchor="start" x="1090.5" y="-92" font-family="Times New Roman,serif" font-size="10.00"> </text>
<text text-anchor="start" x="1093.5" y="-92" font-family="Times New Roman,serif" font-size="10.00">maumau :MauMau</text>
</a>
</g>
<!-- sabine -->
<g id="node10" class="node"><title>sabine</title>
<a xlink:href="../examples/org/sdmlib/examples/replication/maumau/Player.java" xlink:title="&lt;TABLE&gt;">
<polygon fill="none" stroke="black" points="1130,-24 1130,-41 1208,-41 1208,-24 1130,-24"/>
<text text-anchor="start" x="1139.5" y="-30.5" font-family="Times New Roman,serif" font-size="10.00"> </text>
<text text-anchor="start" x="1142.5" y="-30.5" font-family="Times New Roman,serif" font-size="10.00">sabine :Player</text>
</a>
<polygon fill="none" stroke="black" points="1130,-4 1130,-24 1208,-24 1208,-4 1130,-4"/>
<text text-anchor="start" x="1135" y="-12" font-family="Times New Roman,serif" font-size="10.00">name = &quot;Sabine&quot;</text>
</g>
<!-- maumau&#45;&#45;sabine -->
<g id="edge14" class="edge"><title>maumau&#45;&#45;sabine</title>
<path fill="none" stroke="black" d="M1141.7,-82.0973C1147.18,-70.4462 1153.63,-56.7055 1158.89,-45.5129"/>
<text text-anchor="middle" x="1158.86" y="-53.0128" font-family="Times New Roman,serif" font-size="10.00">players</text>
<text text-anchor="middle" x="1141.73" y="-69.5973" font-family="Times New Roman,serif" font-size="10.00">game</text>
</g>
<!-- abuMauMauController -->
<g id="node11" class="node"><title>abuMauMauController</title>
<image xlink:href="icons/person1.png" width="32px" height="43px" preserveAspectRatio="xMinYMin meet" x="1153" y="-244"/>
<a xlink:href="../examples/org/sdmlib/examples/replication/maumau/MultiMauMauControler.java" xlink:title="&lt;TABLE&gt;">
<polygon fill="none" stroke="black" points="1067,-183 1067,-199 1271,-199 1271,-183 1067,-183"/>
<text text-anchor="start" x="1070.5" y="-189" font-family="Times New Roman,serif" font-size="10.00"> </text>
<text text-anchor="start" x="1073.5" y="-189" font-family="Times New Roman,serif" font-size="10.00">abuMauMauController :MultiMauMauControler</text>
</a>
</g>
<!-- abuMauMauController&#45;&#45;maumau -->
<g id="edge16" class="edge"><title>abuMauMauController&#45;&#45;maumau</title>
<path fill="none" stroke="black" d="M1156.12,-179.328C1150.58,-164.394 1144.22,-147.277 1139.16,-133.669"/>
<text text-anchor="middle" x="1146.28" y="-138.193" font-family="Times New Roman,serif" font-size="10.00">mauMau</text>
</g>
<!-- abuMauMauController&#45;&#45;sabine -->
<g id="edge18" class="edge"><title>abuMauMauController&#45;&#45;sabine</title>
<path fill="none" stroke="black" d="M1180.78,-179.487C1188.36,-152.825 1195.79,-115.026 1190,-82 1187.82,-69.5534 1183.18,-56.2581 1178.82,-45.541"/>
<text text-anchor="middle" x="1186.11" y="-49.8906" font-family="Times New Roman,serif" font-size="10.00">activePlayer</text>
</g>
</g>
</svg>
