<?xml version="1.0" encoding="UTF-8" standalone="no"?>
<!DOCTYPE svg PUBLIC "-//W3C//DTD SVG 1.1//EN"
 "http://www.w3.org/Graphics/SVG/1.1/DTD/svg11.dtd">
<!-- Generated by graphviz version 2.28.0 (20110507.0327)
 -->
<!-- Title: ObjectDiagram Pages: 1 -->
<svg width="1336pt" height="276pt"
 viewBox="0.00 0.00 1336.00 276.00" xmlns="http://www.w3.org/2000/svg" xmlns:xlink="http://www.w3.org/1999/xlink">
<g id="graph1" class="graph" transform="scale(1 1) rotate(0) translate(4 272)">
<title>ObjectDiagram</title>
<polygon fill="white" stroke="white" points="-4,5 -4,-272 1333,-272 1333,5 -4,5"/>
<!-- sabineNode -->
<g id="node1" class="node"><title>sabineNode</title>
<image xlink:href="icons/node.png" width="83px" height="61px" preserveAspectRatio="xMinYMin meet" x="10" y="-261"/>
<a xlink:href="../../SDMLib/src/org/sdmlib/replication/Node.java" xlink:title="&lt;TABLE&gt;">
<polygon fill="none" stroke="black" points="8,-182 8,-198 95,-198 95,-182 8,-182"/>
<text text-anchor="start" x="12.5" y="-188" font-family="Times New Roman,serif" font-size="10.00"> </text>
<text text-anchor="start" x="15.5" y="-188" font-family="Times New Roman,serif" font-size="10.00">sabineNode :Node</text>
</a>
</g>
<!-- s12 -->
<g id="node2" class="node"><title>s12</title>
<image xlink:href="icons/worker.png" width="80px" height="61px" preserveAspectRatio="xMinYMin meet" x="162.5" y="-261"/>
<a xlink:href="../examples/org/sdmlib/examples/replication/maumau/ShowStartGameButtonAction.java" xlink:title="&lt;TABLE&gt;">
<polygon fill="none" stroke="black" points="129,-182 129,-198 276,-198 276,-182 129,-182"/>
<text text-anchor="start" x="132.5" y="-188" font-family="Times New Roman,serif" font-size="10.00"> </text>
<text text-anchor="start" x="135.5" y="-188" font-family="Times New Roman,serif" font-size="10.00">s12 :ShowStartGameButtonAction</text>
</a>
</g>
<!-- taskboard -->
<g id="node3" class="node"><title>taskboard</title>
<image xlink:href="icons/shared.png" width="70px" height="23px" preserveAspectRatio="xMinYMin meet" x="334" y="-242"/>
<a xlink:href="../../SDMLib/src/org/sdmlib/replication/TaskFlowBoard.java" xlink:title="&lt;TABLE&gt;">
<polygon fill="none" stroke="black" points="310,-201 310,-217 428,-217 428,-201 310,-201"/>
<text text-anchor="start" x="313.5" y="-207" font-family="Times New Roman,serif" font-size="10.00"> </text>
<text text-anchor="start" x="316.5" y="-207" font-family="Times New Roman,serif" font-size="10.00">taskboard :TaskFlowBoard</text>
</a>
</g>
<!-- l2 -->
<g id="node4" class="node"><title>l2</title>
<a xlink:href="../../SDMLib/src/org/sdmlib/replication/Lane.java" xlink:title="&lt;TABLE&gt;">
<polygon fill="none" stroke="black" points="45,-120 45,-137 121,-137 121,-120 45,-120"/>
<text text-anchor="start" x="66" y="-126.5" font-family="Times New Roman,serif" font-size="10.00"> </text>
<text text-anchor="start" x="69" y="-126.5" font-family="Times New Roman,serif" font-size="10.00">l2 :Lane</text>
</a>
<polygon fill="none" stroke="black" points="45,-100 45,-120 121,-120 121,-100 45,-100"/>
<text text-anchor="start" x="50" y="-108" font-family="Times New Roman,serif" font-size="10.00">name = &quot;server&quot;</text>
</g>
<!-- taskboard&#45;&#45;l2 -->
<g id="edge2" class="edge"><title>taskboard&#45;&#45;l2</title>
<path fill="none" stroke="black" d="M330.918,-197.341C318.836,-190.32 305.184,-183.18 292,-178 226.579,-152.294 205.044,-163.113 138,-142 135.057,-141.073 132.049,-140.062 129.031,-138.998"/>
<text text-anchor="middle" x="138.982" y="-135.511" font-family="Times New Roman,serif" font-size="10.00">lanes</text>
<text text-anchor="middle" x="320.954" y="-193.992" font-family="Times New Roman,serif" font-size="10.00">board</text>
</g>
<!-- l3 -->
<g id="node5" class="node"><title>l3</title>
<a xlink:href="../../SDMLib/src/org/sdmlib/replication/Lane.java" xlink:title="&lt;TABLE&gt;">
<polygon fill="none" stroke="black" points="156,-120 156,-137 291,-137 291,-120 156,-120"/>
<text text-anchor="start" x="206.5" y="-126.5" font-family="Times New Roman,serif" font-size="10.00"> </text>
<text text-anchor="start" x="209.5" y="-126.5" font-family="Times New Roman,serif" font-size="10.00">l3 :Lane</text>
</a>
<polygon fill="none" stroke="black" points="156,-100 156,-120 291,-120 291,-100 156,-100"/>
<text text-anchor="start" x="161" y="-108" font-family="Times New Roman,serif" font-size="10.00">name = &quot;play7WorkFlowLane&quot;</text>
</g>
<!-- taskboard&#45;&#45;l3 -->
<g id="edge4" class="edge"><title>taskboard&#45;&#45;l3</title>
<path fill="none" stroke="black" d="M333.657,-197.309C309.352,-180.328 277.378,-157.99 254.052,-141.694"/>
<text text-anchor="middle" x="263.902" y="-140.92" font-family="Times New Roman,serif" font-size="10.00">lanes</text>
<text text-anchor="middle" x="323.808" y="-193.083" font-family="Times New Roman,serif" font-size="10.00">board</text>
</g>
<!-- l6 -->
<g id="node7" class="node"><title>l6</title>
<a xlink:href="../../SDMLib/src/org/sdmlib/replication/Lane.java" xlink:title="&lt;TABLE&gt;">
<polygon fill="none" stroke="black" points="325,-120 325,-137 414,-137 414,-120 325,-120"/>
<text text-anchor="start" x="352.5" y="-126.5" font-family="Times New Roman,serif" font-size="10.00"> </text>
<text text-anchor="start" x="355.5" y="-126.5" font-family="Times New Roman,serif" font-size="10.00">l6 :Lane</text>
</a>
<polygon fill="none" stroke="black" points="325,-100 325,-120 414,-120 414,-100 325,-100"/>
<text text-anchor="start" x="330" y="-108" font-family="Times New Roman,serif" font-size="10.00">name = &quot;AbuLane&quot;</text>
</g>
<!-- taskboard&#45;&#45;l6 -->
<g id="edge6" class="edge"><title>taskboard&#45;&#45;l6</title>
<path fill="none" stroke="black" d="M369,-197.309C369,-180.328 369,-157.99 369,-141.694"/>
<text text-anchor="middle" x="373.226" y="-148.257" font-family="Times New Roman,serif" font-size="10.00">lanes</text>
<text text-anchor="middle" x="364.774" y="-185.746" font-family="Times New Roman,serif" font-size="10.00">board</text>
</g>
<!-- l9 -->
<g id="node9" class="node"><title>l9</title>
<a xlink:href="../../SDMLib/src/org/sdmlib/replication/Lane.java" xlink:title="&lt;TABLE&gt;">
<polygon fill="none" stroke="black" points="472,-120 472,-137 562,-137 562,-120 472,-120"/>
<text text-anchor="start" x="500" y="-126.5" font-family="Times New Roman,serif" font-size="10.00"> </text>
<text text-anchor="start" x="503" y="-126.5" font-family="Times New Roman,serif" font-size="10.00">l9 :Lane</text>
</a>
<polygon fill="none" stroke="black" points="472,-100 472,-120 562,-120 562,-100 472,-100"/>
<text text-anchor="start" x="477" y="-108" font-family="Times New Roman,serif" font-size="10.00">name = &quot;KarliLane&quot;</text>
</g>
<!-- taskboard&#45;&#45;l9 -->
<g id="edge8" class="edge"><title>taskboard&#45;&#45;l9</title>
<path fill="none" stroke="black" d="M404.827,-197.309C429.465,-180.328 461.877,-157.99 485.522,-141.694"/>
<text text-anchor="middle" x="480.458" y="-147.817" font-family="Times New Roman,serif" font-size="10.00">lanes</text>
<text text-anchor="middle" x="409.891" y="-186.186" font-family="Times New Roman,serif" font-size="10.00">board</text>
</g>
<!-- l1 -->
<g id="node11" class="node"><title>l1</title>
<a xlink:href="../../SDMLib/src/org/sdmlib/replication/Lane.java" xlink:title="&lt;TABLE&gt;">
<polygon fill="none" stroke="black" points="645,-120 645,-137 743,-137 743,-120 645,-120"/>
<text text-anchor="start" x="677" y="-126.5" font-family="Times New Roman,serif" font-size="10.00"> </text>
<text text-anchor="start" x="680" y="-126.5" font-family="Times New Roman,serif" font-size="10.00">l1 :Lane</text>
</a>
<polygon fill="none" stroke="black" points="645,-100 645,-120 743,-120 743,-100 645,-100"/>
<text text-anchor="start" x="650" y="-108" font-family="Times New Roman,serif" font-size="10.00">name = &quot;SabineLane&quot;</text>
</g>
<!-- taskboard&#45;&#45;l1 -->
<g id="edge10" class="edge"><title>taskboard&#45;&#45;l1</title>
<path fill="none" stroke="black" d="M436.34,-200.866C495.558,-182.28 580.807,-155.525 636.786,-137.956"/>
<text text-anchor="middle" x="629.404" y="-142.203" font-family="Times New Roman,serif" font-size="10.00">lanes</text>
<text text-anchor="middle" x="443.722" y="-191.619" font-family="Times New Roman,serif" font-size="10.00">board</text>
</g>
<!-- b4 -->
<g id="node6" class="node"><title>b4</title>
<a xlink:href="../../SDMLib/src/org/sdmlib/replication/BoardTask.java" xlink:title="&lt;TABLE&gt;">
<polygon fill="none" stroke="black" points="156,-38 156,-55 253,-55 253,-38 156,-38"/>
<text text-anchor="start" x="174" y="-44.5" font-family="Times New Roman,serif" font-size="10.00"> </text>
<text text-anchor="start" x="177" y="-44.5" font-family="Times New Roman,serif" font-size="10.00">b4 :BoardTask</text>
</a>
<polygon fill="none" stroke="black" points="156,-4 156,-38 253,-38 253,-4 156,-4"/>
<text text-anchor="start" x="161" y="-26" font-family="Times New Roman,serif" font-size="10.00">name = &quot;startClients&quot;</text>
<text text-anchor="start" x="161" y="-12" font-family="Times New Roman,serif" font-size="10.00">status = &quot;start&quot;</text>
</g>
<!-- l3&#45;&#45;b4 -->
<g id="edge12" class="edge"><title>l3&#45;&#45;b4</title>
<path fill="none" stroke="black" d="M218.303,-96.4944C215.886,-85.4243 212.905,-71.7752 210.291,-59.8074"/>
<text text-anchor="middle" x="216.354" y="-65.2601" font-family="Times New Roman,serif" font-size="10.00">tasks</text>
<text text-anchor="middle" x="212.241" y="-86.0417" font-family="Times New Roman,serif" font-size="10.00">lane</text>
</g>
<!-- b7 -->
<g id="node8" class="node"><title>b7</title>
<a xlink:href="../../SDMLib/src/org/sdmlib/replication/BoardTask.java" xlink:title="&lt;TABLE&gt;">
<polygon fill="none" stroke="black" points="287,-38 287,-55 428,-55 428,-38 287,-38"/>
<text text-anchor="start" x="327" y="-44.5" font-family="Times New Roman,serif" font-size="10.00"> </text>
<text text-anchor="start" x="330" y="-44.5" font-family="Times New Roman,serif" font-size="10.00">b7 :BoardTask</text>
</a>
<polygon fill="none" stroke="black" points="287,-4 287,-38 428,-38 428,-4 287,-4"/>
<text text-anchor="start" x="292" y="-26" font-family="Times New Roman,serif" font-size="10.00">name = &quot;showStartGameButton&quot;</text>
<text text-anchor="start" x="292" y="-12" font-family="Times New Roman,serif" font-size="10.00">status = &quot;start&quot;</text>
</g>
<!-- l6&#45;&#45;b7 -->
<g id="edge14" class="edge"><title>l6&#45;&#45;b7</title>
<path fill="none" stroke="black" d="M366.034,-96.4944C364.507,-85.4243 362.624,-71.7752 360.973,-59.8074"/>
<text text-anchor="middle" x="366.398" y="-65.708" font-family="Times New Roman,serif" font-size="10.00">tasks</text>
<text text-anchor="middle" x="360.609" y="-85.5938" font-family="Times New Roman,serif" font-size="10.00">lane</text>
</g>
<!-- b10 -->
<g id="node10" class="node"><title>b10</title>
<a xlink:href="../../SDMLib/src/org/sdmlib/replication/BoardTask.java" xlink:title="&lt;TABLE&gt;">
<polygon fill="none" stroke="black" points="462,-38 462,-55 603,-55 603,-38 462,-38"/>
<text text-anchor="start" x="499.5" y="-44.5" font-family="Times New Roman,serif" font-size="10.00"> </text>
<text text-anchor="start" x="502.5" y="-44.5" font-family="Times New Roman,serif" font-size="10.00">b10 :BoardTask</text>
</a>
<polygon fill="none" stroke="black" points="462,-4 462,-38 603,-38 603,-4 462,-4"/>
<text text-anchor="start" x="467" y="-26" font-family="Times New Roman,serif" font-size="10.00">name = &quot;showStartGameButton&quot;</text>
<text text-anchor="start" x="467" y="-12" font-family="Times New Roman,serif" font-size="10.00">status = &quot;start&quot;</text>
</g>
<!-- l9&#45;&#45;b10 -->
<g id="edge16" class="edge"><title>l9&#45;&#45;b10</title>
<path fill="none" stroke="black" d="M520.708,-96.4944C522.617,-85.4243 524.97,-71.7752 527.033,-59.8074"/>
<text text-anchor="middle" x="529.658" y="-66.9567" font-family="Times New Roman,serif" font-size="10.00">tasks</text>
<text text-anchor="middle" x="518.083" y="-84.345" font-family="Times New Roman,serif" font-size="10.00">lane</text>
</g>
<!-- b11 -->
<g id="node12" class="node"><title>b11</title>
<a xlink:href="../../SDMLib/src/org/sdmlib/replication/BoardTask.java" xlink:title="&lt;TABLE&gt;">
<polygon fill="none" stroke="black" points="637,-38 637,-55 778,-55 778,-38 637,-38"/>
<text text-anchor="start" x="674.5" y="-44.5" font-family="Times New Roman,serif" font-size="10.00"> </text>
<text text-anchor="start" x="677.5" y="-44.5" font-family="Times New Roman,serif" font-size="10.00">b11 :BoardTask</text>
</a>
<polygon fill="none" stroke="black" points="637,-4 637,-38 778,-38 778,-4 637,-4"/>
<text text-anchor="start" x="642" y="-26" font-family="Times New Roman,serif" font-size="10.00">name = &quot;showStartGameButton&quot;</text>
<text text-anchor="start" x="642" y="-12" font-family="Times New Roman,serif" font-size="10.00">status = &quot;start&quot;</text>
</g>
<!-- l1&#45;&#45;b11 -->
<g id="edge18" class="edge"><title>l1&#45;&#45;b11</title>
<path fill="none" stroke="black" d="M697.213,-96.4944C698.868,-85.4243 700.907,-71.7752 702.695,-59.8074"/>
<text text-anchor="middle" x="705.536" y="-66.8955" font-family="Times New Roman,serif" font-size="10.00">tasks</text>
<text text-anchor="middle" x="694.373" y="-84.4063" font-family="Times New Roman,serif" font-size="10.00">lane</text>
</g>
<!-- l13 -->
<g id="node13" class="node"><title>l13</title>
<a xlink:href="../../SDMLib/src/org/eclipse/swt/widgets/Label.java" xlink:title="&lt;TABLE&gt;">
<polygon fill="none" stroke="black" points="778,-120 778,-137 1001,-137 1001,-120 778,-120"/>
<text text-anchor="start" x="869" y="-126.5" font-family="Times New Roman,serif" font-size="10.00"> </text>
<text text-anchor="start" x="872" y="-126.5" font-family="Times New Roman,serif" font-size="10.00">l13 :Label</text>
</a>
<polygon fill="none" stroke="black" points="778,-100 778,-120 1001,-120 1001,-100 778,-100"/>
<text text-anchor="start" x="783" y="-108" font-family="Times New Roman,serif" font-size="10.00">text = &quot;When all players have shown up, Start Game&quot;</text>
</g>
<!-- s14 -->
<g id="node14" class="node"><title>s14</title>
<image xlink:href="icons/person1.png" width="32px" height="43px" preserveAspectRatio="xMinYMin meet" x="873.5" y="-252"/>
<a xlink:href="../examples/org/sdmlib/examples/replication/maumau/StartGameMouseAdapter.java" xlink:title="&lt;TABLE&gt;">
<polygon fill="none" stroke="black" points="824,-191 824,-207 955,-207 955,-191 824,-191"/>
<text text-anchor="start" x="827.5" y="-197" font-family="Times New Roman,serif" font-size="10.00"> </text>
<text text-anchor="start" x="830.5" y="-197" font-family="Times New Roman,serif" font-size="10.00">s14 :StartGameMouseAdapter</text>
</a>
</g>
<!-- s14&#45;&#45;l13 -->
<g id="edge20" class="edge"><title>s14&#45;&#45;l13</title>
<path fill="none" stroke="black" d="M889,-187.467C889,-172.325 889,-155.013 889,-141.717"/>
<text text-anchor="middle" x="893.226" y="-148.28" font-family="Times New Roman,serif" font-size="10.00">startGameLabel</text>
</g>
<!-- maumau -->
<g id="node15" class="node"><title>maumau</title>
<image xlink:href="icons/shared.png" width="70px" height="23px" preserveAspectRatio="xMinYMin meet" x="1138" y="-242"/>
<a xlink:href="../examples/org/sdmlib/examples/replication/maumau/MauMau.java" xlink:title="&lt;TABLE&gt;">
<polygon fill="none" stroke="black" points="1130,-201 1130,-217 1216,-217 1216,-201 1130,-201"/>
<text text-anchor="start" x="1133.5" y="-207" font-family="Times New Roman,serif" font-size="10.00"> </text>
<text text-anchor="start" x="1136.5" y="-207" font-family="Times New Roman,serif" font-size="10.00">maumau :MauMau</text>
</a>
</g>
<!-- p5 -->
<g id="node16" class="node"><title>p5</title>
<a xlink:href="../examples/org/sdmlib/examples/replication/maumau/Player.java" xlink:title="&lt;TABLE&gt;">
<polygon fill="none" stroke="black" points="1035,-120 1035,-137 1104,-137 1104,-120 1035,-120"/>
<text text-anchor="start" x="1048" y="-126.5" font-family="Times New Roman,serif" font-size="10.00"> </text>
<text text-anchor="start" x="1051" y="-126.5" font-family="Times New Roman,serif" font-size="10.00">p5 :Player</text>
</a>
<polygon fill="none" stroke="black" points="1035,-100 1035,-120 1104,-120 1104,-100 1035,-100"/>
<text text-anchor="start" x="1040" y="-108" font-family="Times New Roman,serif" font-size="10.00">name = &quot;Abu&quot;</text>
</g>
<!-- maumau&#45;&#45;p5 -->
<g id="edge22" class="edge"><title>maumau&#45;&#45;p5</title>
<path fill="none" stroke="black" d="M1147.82,-197.309C1130.51,-180.328 1107.73,-157.99 1091.12,-141.694"/>
<text text-anchor="middle" x="1100.55" y="-142.523" font-family="Times New Roman,serif" font-size="10.00">players</text>
<text text-anchor="middle" x="1138.39" y="-191.48" font-family="Times New Roman,serif" font-size="10.00">game</text>
</g>
<!-- p8 -->
<g id="node17" class="node"><title>p8</title>
<a xlink:href="../examples/org/sdmlib/examples/replication/maumau/Player.java" xlink:title="&lt;TABLE&gt;">
<polygon fill="none" stroke="black" points="1138,-120 1138,-137 1208,-137 1208,-120 1138,-120"/>
<text text-anchor="start" x="1151.5" y="-126.5" font-family="Times New Roman,serif" font-size="10.00"> </text>
<text text-anchor="start" x="1154.5" y="-126.5" font-family="Times New Roman,serif" font-size="10.00">p8 :Player</text>
</a>
<polygon fill="none" stroke="black" points="1138,-100 1138,-120 1208,-120 1208,-100 1138,-100"/>
<text text-anchor="start" x="1143" y="-108" font-family="Times New Roman,serif" font-size="10.00">name = &quot;Karli&quot;</text>
</g>
<!-- maumau&#45;&#45;p8 -->
<g id="edge24" class="edge"><title>maumau&#45;&#45;p8</title>
<path fill="none" stroke="black" d="M1173,-197.309C1173,-180.328 1173,-157.99 1173,-141.694"/>
<text text-anchor="middle" x="1177.23" y="-148.257" font-family="Times New Roman,serif" font-size="10.00">players</text>
<text text-anchor="middle" x="1168.77" y="-185.746" font-family="Times New Roman,serif" font-size="10.00">game</text>
</g>
<!-- sabine -->
<g id="node18" class="node"><title>sabine</title>
<a xlink:href="../examples/org/sdmlib/examples/replication/maumau/Player.java" xlink:title="&lt;TABLE&gt;">
<polygon fill="none" stroke="black" points="1242,-120 1242,-137 1320,-137 1320,-120 1242,-120"/>
<text text-anchor="start" x="1251.5" y="-126.5" font-family="Times New Roman,serif" font-size="10.00"> </text>
<text text-anchor="start" x="1254.5" y="-126.5" font-family="Times New Roman,serif" font-size="10.00">sabine :Player</text>
</a>
<polygon fill="none" stroke="black" points="1242,-100 1242,-120 1320,-120 1320,-100 1242,-100"/>
<text text-anchor="start" x="1247" y="-108" font-family="Times New Roman,serif" font-size="10.00">name = &quot;Sabine&quot;</text>
</g>
<!-- maumau&#45;&#45;sabine -->
<g id="edge26" class="edge"><title>maumau&#45;&#45;sabine</title>
<path fill="none" stroke="black" d="M1199.14,-197.309C1217.12,-180.328 1240.78,-157.99 1258.03,-141.694"/>
<text text-anchor="middle" x="1254.34" y="-148.489" font-family="Times New Roman,serif" font-size="10.00">players</text>
<text text-anchor="middle" x="1202.83" y="-185.513" font-family="Times New Roman,serif" font-size="10.00">game</text>
</g>
</g>
</svg>
