<?xml version="1.0" encoding="UTF-8" standalone="no"?>
<!DOCTYPE svg PUBLIC "-//W3C//DTD SVG 1.1//EN"
 "http://www.w3.org/Graphics/SVG/1.1/DTD/svg11.dtd">
<!-- Generated by graphviz version 2.28.0 (20110507.0327)
 -->
<!-- Title: ClassDiagram Pages: 1 -->
<svg width="375pt" height="566pt"
 viewBox="0.00 0.00 375.00 566.00" xmlns="http://www.w3.org/2000/svg" xmlns:xlink="http://www.w3.org/1999/xlink">
<g id="graph1" class="graph" transform="scale(1 1) rotate(0) translate(4 562)">
<title>ClassDiagram</title>
<polygon fill="white" stroke="white" points="-4,5 -4,-562 372,-562 372,5 -4,5"/>
<!-- _University -->
<g id="node1" class="node"><title>_University</title>
<a xlink:href="../emfsrc/org/sdmlib/examples/emfstudyright/EMFStudyRightModel/University.java" xlink:title="&lt;TABLE&gt;">
<polygon fill="none" stroke="lightgrey" points="99,-146 99,-163 160,-163 160,-146 99,-146"/>
<text text-anchor="start" x="108" y="-152.5" font-family="Times New Roman,serif" font-size="10.00">University</text>
</a>
<polygon fill="none" stroke="lightgrey" points="99,-126 99,-146 160,-146 160,-126 99,-126"/>
<text text-anchor="start" x="104" y="-134" font-family="Times New Roman,serif" font-size="10.00">name :String</text>
<polygon fill="none" stroke="lightgrey" points="99,-106 99,-126 160,-126 160,-106 99,-106"/>
<text text-anchor="start" x="128" y="-114" font-family="Times New Roman,serif" font-size="10.00"> </text>
</g>
<!-- _UniversityImpl -->
<g id="node2" class="node"><title>_UniversityImpl</title>
<a xlink:href="../emfsrc/org/sdmlib/examples/emfstudyright/EMFStudyRightModel/impl/UniversityImpl.java" xlink:title="&lt;TABLE&gt;">
<polygon fill="none" stroke="black" points="93,-44 93,-61 160,-61 160,-44 93,-44"/>
<text text-anchor="start" x="96.5" y="-50.5" font-family="Times New Roman,serif" font-size="10.00">UniversityImpl</text>
</a>
<polygon fill="none" stroke="black" points="93,-24 93,-44 160,-44 160,-24 93,-24"/>
<text text-anchor="start" x="125" y="-32" font-family="Times New Roman,serif" font-size="10.00"> </text>
<polygon fill="none" stroke="black" points="93,-4 93,-24 160,-24 160,-4 93,-4"/>
<text text-anchor="start" x="125" y="-12" font-family="Times New Roman,serif" font-size="10.00"> </text>
</g>
<!-- _University&#45;&gt;_UniversityImpl -->
<g id="edge4" class="edge"><title>_University&#45;&gt;_UniversityImpl</title>
<path fill="none" stroke="black" d="M127.746,-92.2111C127.481,-83.37 127.205,-74.1767 126.953,-65.778"/>
<polygon fill="none" stroke="black" points="124.252,-92.4689 128.051,-102.359 131.249,-92.2589 124.252,-92.4689"/>
</g>
<!-- _Student -->
<g id="node3" class="node"><title>_Student</title>
<a xlink:href="../emfsrc/org/sdmlib/examples/emfstudyright/EMFStudyRightModel/Student.java" xlink:title="&lt;TABLE&gt;">
<polygon fill="none" stroke="lightgrey" points="51,-304 51,-321 149,-321 149,-304 51,-304"/>
<text text-anchor="start" x="84" y="-310.5" font-family="Times New Roman,serif" font-size="10.00">Student</text>
</a>
<polygon fill="none" stroke="lightgrey" points="51,-228 51,-304 149,-304 149,-228 51,-228"/>
<text text-anchor="start" x="56" y="-292" font-family="Times New Roman,serif" font-size="10.00">name :String</text>
<text text-anchor="start" x="56" y="-278" font-family="Times New Roman,serif" font-size="10.00">studId :String</text>
<text text-anchor="start" x="56" y="-264" font-family="Times New Roman,serif" font-size="10.00">credits :int</text>
<text text-anchor="start" x="56" y="-250" font-family="Times New Roman,serif" font-size="10.00">motivation :int</text>
<text text-anchor="start" x="56" y="-236" font-family="Times New Roman,serif" font-size="10.00">assignmentPoints :int</text>
<polygon fill="none" stroke="lightgrey" points="51,-208 51,-228 149,-228 149,-208 51,-208"/>
<text text-anchor="start" x="98.5" y="-216" font-family="Times New Roman,serif" font-size="10.00"> </text>
</g>
<!-- _Student&#45;&gt;_University -->
<g id="edge16" class="edge"><title>_Student&#45;&gt;_University</title>
<path fill="none" stroke="black" d="M113.481,-204.497C116.351,-191.831 119.274,-178.93 121.798,-167.789"/>
<text text-anchor="middle" x="123.917" y="-175.062" font-family="Times New Roman,serif" font-size="10.00">uni</text>
<text text-anchor="middle" x="111.362" y="-192.224" font-family="Times New Roman,serif" font-size="10.00">students *</text>
</g>
<!-- _Student&#45;&gt;_Student -->
<g id="edge20" class="edge"><title>_Student&#45;&gt;_Student</title>
<path fill="none" stroke="black" d="M157.226,-288.036C167.673,-285.12 175,-277.441 175,-265 175,-252.559 167.673,-244.88 157.226,-241.964"/>
<text text-anchor="middle" x="167.162" y="-238.337" font-family="Times New Roman,serif" font-size="10.00">friends *</text>
<text text-anchor="middle" x="164.476" y="-278.649" font-family="Times New Roman,serif" font-size="10.00">friends *</text>
</g>
<!-- _StudentImpl -->
<g id="node4" class="node"><title>_StudentImpl</title>
<a xlink:href="../emfsrc/org/sdmlib/examples/emfstudyright/EMFStudyRightModel/impl/StudentImpl.java" xlink:title="&lt;TABLE&gt;">
<polygon fill="none" stroke="black" points="8,-146 8,-163 64,-163 64,-146 8,-146"/>
<text text-anchor="start" x="11.5" y="-152.5" font-family="Times New Roman,serif" font-size="10.00">StudentImpl</text>
</a>
<polygon fill="none" stroke="black" points="8,-126 8,-146 64,-146 64,-126 8,-126"/>
<text text-anchor="start" x="34.5" y="-134" font-family="Times New Roman,serif" font-size="10.00"> </text>
<polygon fill="none" stroke="black" points="8,-106 8,-126 64,-126 64,-106 8,-106"/>
<text text-anchor="start" x="34.5" y="-114" font-family="Times New Roman,serif" font-size="10.00"> </text>
</g>
<!-- _Student&#45;&gt;_StudentImpl -->
<g id="edge6" class="edge"><title>_Student&#45;&gt;_StudentImpl</title>
<path fill="none" stroke="black" d="M65.6406,-195.281C60.8427,-185.685 56.1159,-176.232 51.8947,-167.789"/>
<polygon fill="none" stroke="black" points="62.6457,-197.118 70.2484,-204.497 68.9067,-193.987 62.6457,-197.118"/>
</g>
<!-- _TeachingAssistant -->
<g id="node5" class="node"><title>_TeachingAssistant</title>
<a xlink:href="../emfsrc/org/sdmlib/examples/emfstudyright/EMFStudyRightModel/TeachingAssistant.java" xlink:title="&lt;TABLE&gt;">
<polygon fill="none" stroke="lightgrey" points="199,-146 199,-163 283,-163 283,-146 199,-146"/>
<text text-anchor="start" x="202.5" y="-152.5" font-family="Times New Roman,serif" font-size="10.00">TeachingAssistant</text>
</a>
<polygon fill="none" stroke="lightgrey" points="199,-126 199,-146 283,-146 283,-126 199,-126"/>
<text text-anchor="start" x="239.5" y="-134" font-family="Times New Roman,serif" font-size="10.00"> </text>
<polygon fill="none" stroke="lightgrey" points="199,-106 199,-126 283,-126 283,-106 199,-106"/>
<text text-anchor="start" x="239.5" y="-114" font-family="Times New Roman,serif" font-size="10.00"> </text>
</g>
<!-- _Student&#45;&gt;_TeachingAssistant -->
<g id="edge2" class="edge"><title>_Student&#45;&gt;_TeachingAssistant</title>
<path fill="none" stroke="black" d="M165.128,-204.877C179.207,-192.095 193.574,-179.053 205.965,-167.805"/>
<polygon fill="none" stroke="black" points="162.402,-202.625 157.35,-211.938 167.107,-207.807 162.402,-202.625"/>
</g>
<!-- _TeachingAssistantImpl -->
<g id="node6" class="node"><title>_TeachingAssistantImpl</title>
<a xlink:href="../emfsrc/org/sdmlib/examples/emfstudyright/EMFStudyRightModel/impl/TeachingAssistantImpl.java" xlink:title="&lt;TABLE&gt;">
<polygon fill="none" stroke="black" points="194,-44 194,-61 295,-61 295,-44 194,-44"/>
<text text-anchor="start" x="197.5" y="-50.5" font-family="Times New Roman,serif" font-size="10.00">TeachingAssistantImpl</text>
</a>
<polygon fill="none" stroke="black" points="194,-24 194,-44 295,-44 295,-24 194,-24"/>
<text text-anchor="start" x="243" y="-32" font-family="Times New Roman,serif" font-size="10.00"> </text>
<polygon fill="none" stroke="black" points="194,-4 194,-24 295,-24 295,-4 194,-4"/>
<text text-anchor="start" x="243" y="-12" font-family="Times New Roman,serif" font-size="10.00"> </text>
</g>
<!-- _TeachingAssistant&#45;&gt;_TeachingAssistantImpl -->
<g id="edge8" class="edge"><title>_TeachingAssistant&#45;&gt;_TeachingAssistantImpl</title>
<path fill="none" stroke="black" d="M242.254,-92.2111C242.519,-83.37 242.795,-74.1767 243.047,-65.778"/>
<polygon fill="none" stroke="black" points="238.751,-92.2589 241.949,-102.359 245.748,-92.4689 238.751,-92.2589"/>
</g>
<!-- _Room -->
<g id="node7" class="node"><title>_Room</title>
<a xlink:href="../emfsrc/org/sdmlib/examples/emfstudyright/EMFStudyRightModel/Room.java" xlink:title="&lt;TABLE&gt;">
<polygon fill="none" stroke="lightgrey" points="173,-420 173,-437 233,-437 233,-420 173,-420"/>
<text text-anchor="start" x="191" y="-426.5" font-family="Times New Roman,serif" font-size="10.00">Room</text>
</a>
<polygon fill="none" stroke="lightgrey" points="173,-386 173,-420 233,-420 233,-386 173,-386"/>
<text text-anchor="start" x="178" y="-408" font-family="Times New Roman,serif" font-size="10.00">topic :String</text>
<text text-anchor="start" x="178" y="-394" font-family="Times New Roman,serif" font-size="10.00">credits :int</text>
<polygon fill="none" stroke="lightgrey" points="173,-366 173,-386 233,-386 233,-366 173,-366"/>
<text text-anchor="start" x="201.5" y="-374" font-family="Times New Roman,serif" font-size="10.00"> </text>
</g>
<!-- _Room&#45;&gt;_University -->
<g id="edge14" class="edge"><title>_Room&#45;&gt;_University</title>
<path fill="none" stroke="black" d="M205.691,-362.418C207.103,-321.532 205.196,-255.841 184,-204 178.656,-190.929 169.936,-178.381 160.999,-167.701"/>
<text text-anchor="middle" x="170.013" y="-169.53" font-family="Times New Roman,serif" font-size="10.00">uni</text>
<text text-anchor="middle" x="201.681" y="-350.758" font-family="Times New Roman,serif" font-size="10.00">rooms *</text>
</g>
<!-- _Room&#45;&gt;_Student -->
<g id="edge18" class="edge"><title>_Room&#45;&gt;_Student</title>
<path fill="none" stroke="black" d="M173.484,-362.314C164.746,-350.861 154.968,-338.045 145.467,-325.593"/>
<text text-anchor="middle" x="154.325" y="-327.735" font-family="Times New Roman,serif" font-size="10.00">students *</text>
<text text-anchor="middle" x="164.627" y="-355.173" font-family="Times New Roman,serif" font-size="10.00">in</text>
</g>
<!-- _Room&#45;&gt;_TeachingAssistant -->
<g id="edge24" class="edge"><title>_Room&#45;&gt;_TeachingAssistant</title>
<path fill="none" stroke="black" d="M210.703,-362.148C212.881,-350.544 215.158,-337.778 217,-326 225.68,-270.485 233.359,-205.464 237.576,-167.682"/>
<text text-anchor="middle" x="240.76" y="-174.661" font-family="Times New Roman,serif" font-size="10.00">tas *</text>
<text text-anchor="middle" x="208.212" y="-349.964" font-family="Times New Roman,serif" font-size="10.00">room</text>
</g>
<!-- _Room&#45;&gt;_Room -->
<g id="edge26" class="edge"><title>_Room&#45;&gt;_Room</title>
<path fill="none" stroke="black" d="M241.214,-423.559C251.335,-422.327 259,-415.141 259,-402 259,-388.859 251.335,-381.673 241.214,-380.441"/>
<text text-anchor="middle" x="250.896" y="-375.438" font-family="Times New Roman,serif" font-size="10.00">doors *</text>
<text text-anchor="middle" x="249.355" y="-415.252" font-family="Times New Roman,serif" font-size="10.00">doors *</text>
</g>
<!-- _RoomImpl -->
<g id="node8" class="node"><title>_RoomImpl</title>
<a xlink:href="../emfsrc/org/sdmlib/examples/emfstudyright/EMFStudyRightModel/impl/RoomImpl.java" xlink:title="&lt;TABLE&gt;">
<polygon fill="none" stroke="black" points="277,-276 277,-293 325,-293 325,-276 277,-276"/>
<text text-anchor="start" x="280.5" y="-282.5" font-family="Times New Roman,serif" font-size="10.00">RoomImpl</text>
</a>
<polygon fill="none" stroke="black" points="277,-256 277,-276 325,-276 325,-256 277,-256"/>
<text text-anchor="start" x="299.5" y="-264" font-family="Times New Roman,serif" font-size="10.00"> </text>
<polygon fill="none" stroke="black" points="277,-236 277,-256 325,-256 325,-236 277,-236"/>
<text text-anchor="start" x="299.5" y="-244" font-family="Times New Roman,serif" font-size="10.00"> </text>
</g>
<!-- _Room&#45;&gt;_RoomImpl -->
<g id="edge10" class="edge"><title>_Room&#45;&gt;_RoomImpl</title>
<path fill="none" stroke="black" d="M237.137,-353.975C250.603,-335.425 265.723,-314.596 277.869,-297.864"/>
<polygon fill="none" stroke="black" points="234.125,-352.166 231.083,-362.314 239.79,-356.278 234.125,-352.166"/>
</g>
<!-- _Assignment -->
<g id="node9" class="node"><title>_Assignment</title>
<a xlink:href="../emfsrc/org/sdmlib/examples/emfstudyright/EMFStudyRightModel/Assignment.java" xlink:title="&lt;TABLE&gt;">
<polygon fill="none" stroke="lightgrey" points="173,-536 173,-553 234,-553 234,-536 173,-536"/>
<text text-anchor="start" x="179" y="-542.5" font-family="Times New Roman,serif" font-size="10.00">Assignment</text>
</a>
<polygon fill="none" stroke="lightgrey" points="173,-502 173,-536 234,-536 234,-502 173,-502"/>
<text text-anchor="start" x="178" y="-524" font-family="Times New Roman,serif" font-size="10.00">name :String</text>
<text text-anchor="start" x="178" y="-510" font-family="Times New Roman,serif" font-size="10.00">points :int</text>
<polygon fill="none" stroke="lightgrey" points="173,-482 173,-502 234,-502 234,-482 173,-482"/>
<text text-anchor="start" x="202" y="-490" font-family="Times New Roman,serif" font-size="10.00"> </text>
</g>
<!-- _Assignment&#45;&gt;_Student -->
<g id="edge22" class="edge"><title>_Assignment&#45;&gt;_Student</title>
<path fill="none" stroke="black" d="M176.188,-478.346C169.016,-466.966 161.685,-454.269 156,-442 138.677,-404.615 124.635,-360.417 114.945,-325.664"/>
<text text-anchor="middle" x="121.486" y="-330.728" font-family="Times New Roman,serif" font-size="10.00">students *</text>
<text text-anchor="middle" x="167.804" y="-470.395" font-family="Times New Roman,serif" font-size="10.00">done *</text>
</g>
<!-- _Assignment&#45;&gt;_Room -->
<g id="edge28" class="edge"><title>_Assignment&#45;&gt;_Room</title>
<path fill="none" stroke="black" d="M203,-478.405C203,-466.519 203,-453.438 203,-441.555"/>
<text text-anchor="middle" x="207.226" y="-448.119" font-family="Times New Roman,serif" font-size="10.00">room</text>
<text text-anchor="middle" x="198.774" y="-466.842" font-family="Times New Roman,serif" font-size="10.00">assignments *</text>
</g>
<!-- _AssignmentImpl -->
<g id="node10" class="node"><title>_AssignmentImpl</title>
<a xlink:href="../emfsrc/org/sdmlib/examples/emfstudyright/EMFStudyRightModel/impl/AssignmentImpl.java" xlink:title="&lt;TABLE&gt;">
<polygon fill="none" stroke="black" points="285,-413 285,-430 359,-430 359,-413 285,-413"/>
<text text-anchor="start" x="288.5" y="-419.5" font-family="Times New Roman,serif" font-size="10.00">AssignmentImpl</text>
</a>
<polygon fill="none" stroke="black" points="285,-393 285,-413 359,-413 359,-393 285,-393"/>
<text text-anchor="start" x="320.5" y="-401" font-family="Times New Roman,serif" font-size="10.00"> </text>
<polygon fill="none" stroke="black" points="285,-373 285,-393 359,-393 359,-373 285,-373"/>
<text text-anchor="start" x="320.5" y="-381" font-family="Times New Roman,serif" font-size="10.00"> </text>
</g>
<!-- _Assignment&#45;&gt;_AssignmentImpl -->
<g id="edge12" class="edge"><title>_Assignment&#45;&gt;_AssignmentImpl</title>
<path fill="none" stroke="black" d="M248.645,-473.273C262.071,-460.411 276.494,-446.594 288.968,-434.644"/>
<polygon fill="none" stroke="black" points="246.107,-470.857 241.307,-480.302 250.95,-475.912 246.107,-470.857"/>
</g>
</g>
</svg>
