<?xml version="1.0" encoding="UTF-8" standalone="no"?>
<!DOCTYPE svg PUBLIC "-//W3C//DTD SVG 1.1//EN"
 "http://www.w3.org/Graphics/SVG/1.1/DTD/svg11.dtd">
<!-- Generated by graphviz version 2.28.0 (20110507.0327)
 -->
<!-- Title: ClassDiagram Pages: 1 -->
<svg width="398pt" height="204pt"
 viewBox="0.00 0.00 398.00 204.00" xmlns="http://www.w3.org/2000/svg" xmlns:xlink="http://www.w3.org/1999/xlink">
<g id="graph1" class="graph" transform="scale(1 1) rotate(0) translate(4 200)">
<title>ClassDiagram</title>
<polygon fill="white" stroke="white" points="-4,5 -4,-200 395,-200 395,5 -4,5"/>
<!-- _University -->
<g id="node1" class="node"><title>_University</title>
<a xlink:href="../emfsrc/org/sdmlib/examples/emfstudyright/EMFStudyRightModel/University.java" xlink:title="&lt;TABLE&gt;">
<polygon fill="none" stroke="lightgrey" points="9,-160 9,-177 76,-177 76,-160 9,-160"/>
<text text-anchor="start" x="21" y="-166.5" font-family="Arial" font-size="10.00">University</text>
</a>
<polygon fill="none" stroke="lightgrey" points="9,-140 9,-160 76,-160 76,-140 9,-140"/>
<text text-anchor="start" x="14" y="-148" font-family="Arial" font-size="10.00">name :String</text>
<polygon fill="none" stroke="lightgrey" points="9,-120 9,-140 76,-140 76,-120 9,-120"/>
<text text-anchor="start" x="40.5" y="-128" font-family="Arial" font-size="10.00"> </text>
</g>
<!-- _UniversityImpl -->
<g id="node2" class="node"><title>_UniversityImpl</title>
<a xlink:href="../emfsrc/org/sdmlib/examples/emfstudyright/EMFStudyRightModel/impl/UniversityImpl.java" xlink:title="&lt;TABLE&gt;">
<polygon fill="none" stroke="black" points="8,-44 8,-61 76,-61 76,-44 8,-44"/>
<text text-anchor="start" x="11.5" y="-50.5" font-family="Arial" font-size="10.00">UniversityImpl</text>
</a>
<polygon fill="none" stroke="black" points="8,-24 8,-44 76,-44 76,-24 8,-24"/>
<text text-anchor="start" x="40" y="-32" font-family="Arial" font-size="10.00"> </text>
<polygon fill="none" stroke="black" points="8,-4 8,-24 76,-24 76,-4 8,-4"/>
<text text-anchor="start" x="40" y="-12" font-family="Arial" font-size="10.00"> </text>
</g>
<!-- _University&#45;&gt;_UniversityImpl -->
<g id="edge2" class="edge"><title>_University&#45;&gt;_UniversityImpl</title>
<path fill="none" stroke="black" d="M42,-105.866C42,-92.5377 42,-78.043 42,-65.5851"/>
<polygon fill="none" stroke="black" points="38.5001,-106.245 42,-116.245 45.5001,-106.245 38.5001,-106.245"/>
</g>
<!-- _Room -->
<g id="node3" class="node"><title>_Room</title>
<a xlink:href="../emfsrc/org/sdmlib/examples/emfstudyright/EMFStudyRightModel/Room.java" xlink:title="&lt;TABLE&gt;">
<polygon fill="none" stroke="lightgrey" points="110,-167 110,-184 174,-184 174,-167 110,-167"/>
<text text-anchor="start" x="129" y="-173.5" font-family="Arial" font-size="10.00">Room</text>
</a>
<polygon fill="none" stroke="lightgrey" points="110,-133 110,-167 174,-167 174,-133 110,-133"/>
<text text-anchor="start" x="115" y="-155" font-family="Arial" font-size="10.00">topic :String</text>
<text text-anchor="start" x="115" y="-141" font-family="Arial" font-size="10.00">credits :int</text>
<polygon fill="none" stroke="lightgrey" points="110,-113 110,-133 174,-133 174,-113 110,-113"/>
<text text-anchor="start" x="140" y="-121" font-family="Arial" font-size="10.00"> </text>
</g>
<!-- _RoomImpl -->
<g id="node4" class="node"><title>_RoomImpl</title>
<a xlink:href="../emfsrc/org/sdmlib/examples/emfstudyright/EMFStudyRightModel/impl/RoomImpl.java" xlink:title="&lt;TABLE&gt;">
<polygon fill="none" stroke="black" points="117,-44 117,-61 168,-61 168,-44 117,-44"/>
<text text-anchor="start" x="120.5" y="-50.5" font-family="Arial" font-size="10.00">RoomImpl</text>
</a>
<polygon fill="none" stroke="black" points="117,-24 117,-44 168,-44 168,-24 117,-24"/>
<text text-anchor="start" x="140.5" y="-32" font-family="Arial" font-size="10.00"> </text>
<polygon fill="none" stroke="black" points="117,-4 117,-24 168,-24 168,-4 117,-4"/>
<text text-anchor="start" x="140.5" y="-12" font-family="Arial" font-size="10.00"> </text>
</g>
<!-- _Room&#45;&gt;_RoomImpl -->
<g id="edge4" class="edge"><title>_Room&#45;&gt;_RoomImpl</title>
<path fill="none" stroke="black" d="M142,-99.1838C142,-87.8623 142,-76.1008 142,-65.7364"/>
<polygon fill="none" stroke="black" points="138.5,-99.4048 142,-109.405 145.5,-99.4048 138.5,-99.4048"/>
</g>
<!-- _Assignment -->
<g id="node5" class="node"><title>_Assignment</title>
<a xlink:href="../emfsrc/org/sdmlib/examples/emfstudyright/EMFStudyRightModel/Assignment.java" xlink:title="&lt;TABLE&gt;">
<polygon fill="none" stroke="lightgrey" points="209,-167 209,-184 276,-184 276,-167 209,-167"/>
<text text-anchor="start" x="216.5" y="-173.5" font-family="Arial" font-size="10.00">Assignment</text>
</a>
<polygon fill="none" stroke="lightgrey" points="209,-133 209,-167 276,-167 276,-133 209,-133"/>
<text text-anchor="start" x="214" y="-155" font-family="Arial" font-size="10.00">name :String</text>
<text text-anchor="start" x="214" y="-141" font-family="Arial" font-size="10.00">points :int</text>
<polygon fill="none" stroke="lightgrey" points="209,-113 209,-133 276,-133 276,-113 209,-113"/>
<text text-anchor="start" x="240.5" y="-121" font-family="Arial" font-size="10.00"> </text>
</g>
<!-- _AssignmentImpl -->
<g id="node6" class="node"><title>_AssignmentImpl</title>
<a xlink:href="../emfsrc/org/sdmlib/examples/emfstudyright/EMFStudyRightModel/impl/AssignmentImpl.java" xlink:title="&lt;TABLE&gt;">
<polygon fill="none" stroke="black" points="204,-44 204,-61 281,-61 281,-44 204,-44"/>
<text text-anchor="start" x="207.5" y="-50.5" font-family="Arial" font-size="10.00">AssignmentImpl</text>
</a>
<polygon fill="none" stroke="black" points="204,-24 204,-44 281,-44 281,-24 204,-24"/>
<text text-anchor="start" x="240.5" y="-32" font-family="Arial" font-size="10.00"> </text>
<polygon fill="none" stroke="black" points="204,-4 204,-24 281,-24 281,-4 204,-4"/>
<text text-anchor="start" x="240.5" y="-12" font-family="Arial" font-size="10.00"> </text>
</g>
<!-- _Assignment&#45;&gt;_AssignmentImpl -->
<g id="edge6" class="edge"><title>_Assignment&#45;&gt;_AssignmentImpl</title>
<path fill="none" stroke="black" d="M242,-99.1838C242,-87.8623 242,-76.1008 242,-65.7364"/>
<polygon fill="none" stroke="black" points="238.5,-99.4048 242,-109.405 245.5,-99.4048 238.5,-99.4048"/>
</g>
<!-- _Student -->
<g id="node7" class="node"><title>_Student</title>
<a xlink:href="../emfsrc/org/sdmlib/examples/emfstudyright/EMFStudyRightModel/Student.java" xlink:title="&lt;TABLE&gt;">
<polygon fill="none" stroke="lightgrey" points="310,-174 310,-191 382,-191 382,-174 310,-174"/>
<text text-anchor="start" x="329" y="-180.5" font-family="Arial" font-size="10.00">Student</text>
</a>
<polygon fill="none" stroke="lightgrey" points="310,-126 310,-174 382,-174 382,-126 310,-126"/>
<text text-anchor="start" x="315" y="-162" font-family="Arial" font-size="10.00">name :String</text>
<text text-anchor="start" x="315" y="-148" font-family="Arial" font-size="10.00">credits :int</text>
<text text-anchor="start" x="315" y="-134" font-family="Arial" font-size="10.00">motivation :int</text>
<polygon fill="none" stroke="lightgrey" points="310,-106 310,-126 382,-126 382,-106 310,-106"/>
<text text-anchor="start" x="344" y="-114" font-family="Arial" font-size="10.00"> </text>
</g>
<!-- _StudentImpl -->
<g id="node8" class="node"><title>_StudentImpl</title>
<a xlink:href="../emfsrc/org/sdmlib/examples/emfstudyright/EMFStudyRightModel/impl/StudentImpl.java" xlink:title="&lt;TABLE&gt;">
<polygon fill="none" stroke="black" points="317,-44 317,-61 376,-61 376,-44 317,-44"/>
<text text-anchor="start" x="320.5" y="-50.5" font-family="Arial" font-size="10.00">StudentImpl</text>
</a>
<polygon fill="none" stroke="black" points="317,-24 317,-44 376,-44 376,-24 317,-24"/>
<text text-anchor="start" x="344.5" y="-32" font-family="Arial" font-size="10.00"> </text>
<polygon fill="none" stroke="black" points="317,-4 317,-24 376,-24 376,-4 317,-4"/>
<text text-anchor="start" x="344.5" y="-12" font-family="Arial" font-size="10.00"> </text>
</g>
<!-- _Student&#45;&gt;_StudentImpl -->
<g id="edge8" class="edge"><title>_Student&#45;&gt;_StudentImpl</title>
<path fill="none" stroke="black" d="M346,-92.1136C346,-83.0438 346,-73.9364 346,-65.7104"/>
<polygon fill="none" stroke="black" points="342.5,-92.2887 346,-102.289 349.5,-92.2887 342.5,-92.2887"/>
</g>
</g>
</svg>
