<?xml version="1.0" encoding="UTF-8" standalone="no"?>
<!DOCTYPE svg PUBLIC "-//W3C//DTD SVG 1.1//EN"
 "http://www.w3.org/Graphics/SVG/1.1/DTD/svg11.dtd">
<!-- Generated by graphviz version 2.28.0 (20110507.0327)
 -->
<!-- Title: ClassDiagram Pages: 1 -->
<svg width="323pt" height="422pt"
 viewBox="0.00 0.00 323.10 422.00" xmlns="http://www.w3.org/2000/svg" xmlns:xlink="http://www.w3.org/1999/xlink">
<g id="graph1" class="graph" transform="scale(1 1) rotate(0) translate(4 418)">
<title>ClassDiagram</title>
<polygon fill="white" stroke="white" points="-4,5 -4,-418 320.099,-418 320.099,5 -4,5"/>
<!-- _University -->
<g id="node1" class="node"><title>_University</title>
<a xlink:href="../emfsrc/org/sdmlib/examples/emfstudyright/EMFStudyRightModel/University.java" xlink:title="&lt;TABLE&gt;">
<polygon fill="none" stroke="lightgrey" points="109,-146 109,-163 170,-163 170,-146 109,-146"/>
<text text-anchor="start" x="118" y="-152.5" font-family="Times New Roman,serif" font-size="10.00">University</text>
</a>
<polygon fill="none" stroke="lightgrey" points="109,-126 109,-146 170,-146 170,-126 109,-126"/>
<text text-anchor="start" x="114" y="-134" font-family="Times New Roman,serif" font-size="10.00">name :String</text>
<polygon fill="none" stroke="lightgrey" points="109,-106 109,-126 170,-126 170,-106 109,-106"/>
<text text-anchor="start" x="138" y="-114" font-family="Times New Roman,serif" font-size="10.00"> </text>
</g>
<!-- _UniversityImpl -->
<g id="node2" class="node"><title>_UniversityImpl</title>
<a xlink:href="../emfsrc/org/sdmlib/examples/emfstudyright/EMFStudyRightModel/impl/UniversityImpl.java" xlink:title="&lt;TABLE&gt;">
<polygon fill="none" stroke="black" points="106,-44 106,-61 173,-61 173,-44 106,-44"/>
<text text-anchor="start" x="109.5" y="-50.5" font-family="Times New Roman,serif" font-size="10.00">UniversityImpl</text>
</a>
<polygon fill="none" stroke="black" points="106,-24 106,-44 173,-44 173,-24 106,-24"/>
<text text-anchor="start" x="138" y="-32" font-family="Times New Roman,serif" font-size="10.00"> </text>
<polygon fill="none" stroke="black" points="106,-4 106,-24 173,-24 173,-4 106,-4"/>
<text text-anchor="start" x="138" y="-12" font-family="Times New Roman,serif" font-size="10.00"> </text>
</g>
<!-- _University&#45;&gt;_UniversityImpl -->
<g id="edge2" class="edge"><title>_University&#45;&gt;_UniversityImpl</title>
<path fill="none" stroke="black" d="M139,-92.2111C139,-83.37 139,-74.1767 139,-65.778"/>
<polygon fill="none" stroke="black" points="135.5,-92.3593 139,-102.359 142.5,-92.3594 135.5,-92.3593"/>
</g>
<!-- _Room -->
<g id="node3" class="node"><title>_Room</title>
<a xlink:href="../emfsrc/org/sdmlib/examples/emfstudyright/EMFStudyRightModel/Room.java" xlink:title="&lt;TABLE&gt;">
<polygon fill="none" stroke="lightgrey" points="8,-269 8,-286 68,-286 68,-269 8,-269"/>
<text text-anchor="start" x="26" y="-275.5" font-family="Times New Roman,serif" font-size="10.00">Room</text>
</a>
<polygon fill="none" stroke="lightgrey" points="8,-235 8,-269 68,-269 68,-235 8,-235"/>
<text text-anchor="start" x="13" y="-257" font-family="Times New Roman,serif" font-size="10.00">topic :String</text>
<text text-anchor="start" x="13" y="-243" font-family="Times New Roman,serif" font-size="10.00">credits :int</text>
<polygon fill="none" stroke="lightgrey" points="8,-215 8,-235 68,-235 68,-215 8,-215"/>
<text text-anchor="start" x="36.5" y="-223" font-family="Times New Roman,serif" font-size="10.00"> </text>
</g>
<!-- _Room&#45;&gt;_University -->
<g id="edge10" class="edge"><title>_Room&#45;&gt;_University</title>
<path fill="none" stroke="black" d="M72.194,-211.405C84.7842,-197.194 98.8892,-181.274 110.883,-167.736"/>
<text text-anchor="middle" x="108.036" y="-174.823" font-family="Times New Roman,serif" font-size="10.00">uni</text>
<text text-anchor="middle" x="75.0408" y="-199.319" font-family="Times New Roman,serif" font-size="10.00">rooms *</text>
</g>
<!-- _RoomImpl -->
<g id="node4" class="node"><title>_RoomImpl</title>
<a xlink:href="../emfsrc/org/sdmlib/examples/emfstudyright/EMFStudyRightModel/impl/RoomImpl.java" xlink:title="&lt;TABLE&gt;">
<polygon fill="none" stroke="black" points="14,-146 14,-163 62,-163 62,-146 14,-146"/>
<text text-anchor="start" x="17.5" y="-152.5" font-family="Times New Roman,serif" font-size="10.00">RoomImpl</text>
</a>
<polygon fill="none" stroke="black" points="14,-126 14,-146 62,-146 62,-126 14,-126"/>
<text text-anchor="start" x="36.5" y="-134" font-family="Times New Roman,serif" font-size="10.00"> </text>
<polygon fill="none" stroke="black" points="14,-106 14,-126 62,-126 62,-106 14,-106"/>
<text text-anchor="start" x="36.5" y="-114" font-family="Times New Roman,serif" font-size="10.00"> </text>
</g>
<!-- _Room&#45;&gt;_RoomImpl -->
<g id="edge4" class="edge"><title>_Room&#45;&gt;_RoomImpl</title>
<path fill="none" stroke="black" d="M38,-201.184C38,-189.862 38,-178.101 38,-167.736"/>
<polygon fill="none" stroke="black" points="34.5001,-201.405 38,-211.405 41.5001,-201.405 34.5001,-201.405"/>
</g>
<!-- _Assignment -->
<g id="node5" class="node"><title>_Assignment</title>
<a xlink:href="../emfsrc/org/sdmlib/examples/emfstudyright/EMFStudyRightModel/Assignment.java" xlink:title="&lt;TABLE&gt;">
<polygon fill="none" stroke="lightgrey" points="58,-392 58,-409 119,-409 119,-392 58,-392"/>
<text text-anchor="start" x="64" y="-398.5" font-family="Times New Roman,serif" font-size="10.00">Assignment</text>
</a>
<polygon fill="none" stroke="lightgrey" points="58,-358 58,-392 119,-392 119,-358 58,-358"/>
<text text-anchor="start" x="63" y="-380" font-family="Times New Roman,serif" font-size="10.00">name :String</text>
<text text-anchor="start" x="63" y="-366" font-family="Times New Roman,serif" font-size="10.00">points :int</text>
<polygon fill="none" stroke="lightgrey" points="58,-338 58,-358 119,-358 119,-338 58,-338"/>
<text text-anchor="start" x="87" y="-346" font-family="Times New Roman,serif" font-size="10.00"> </text>
</g>
<!-- _Assignment&#45;&gt;_Room -->
<g id="edge14" class="edge"><title>_Assignment&#45;&gt;_Room</title>
<path fill="none" stroke="black" d="M72.0422,-334.382C66.2691,-320.411 59.7525,-304.641 53.9777,-290.666"/>
<text text-anchor="middle" x="61.3447" y="-294.928" font-family="Times New Roman,serif" font-size="10.00">room</text>
<text text-anchor="middle" x="64.6752" y="-325.12" font-family="Times New Roman,serif" font-size="10.00">assignments *</text>
</g>
<!-- _AssignmentImpl -->
<g id="node6" class="node"><title>_AssignmentImpl</title>
<a xlink:href="../emfsrc/org/sdmlib/examples/emfstudyright/EMFStudyRightModel/impl/AssignmentImpl.java" xlink:title="&lt;TABLE&gt;">
<polygon fill="none" stroke="black" points="102,-262 102,-279 176,-279 176,-262 102,-262"/>
<text text-anchor="start" x="105.5" y="-268.5" font-family="Times New Roman,serif" font-size="10.00">AssignmentImpl</text>
</a>
<polygon fill="none" stroke="black" points="102,-242 102,-262 176,-262 176,-242 102,-242"/>
<text text-anchor="start" x="137.5" y="-250" font-family="Times New Roman,serif" font-size="10.00"> </text>
<polygon fill="none" stroke="black" points="102,-222 102,-242 176,-242 176,-222 102,-222"/>
<text text-anchor="start" x="137.5" y="-230" font-family="Times New Roman,serif" font-size="10.00"> </text>
</g>
<!-- _Assignment&#45;&gt;_AssignmentImpl -->
<g id="edge6" class="edge"><title>_Assignment&#45;&gt;_AssignmentImpl</title>
<path fill="none" stroke="black" d="M108.24,-324.98C114.076,-311.133 120.297,-296.375 125.606,-283.779"/>
<polygon fill="none" stroke="black" points="104.936,-323.808 104.277,-334.382 111.386,-326.527 104.936,-323.808"/>
</g>
<!-- _Student -->
<g id="node7" class="node"><title>_Student</title>
<a xlink:href="../emfsrc/org/sdmlib/examples/emfstudyright/EMFStudyRightModel/Student.java" xlink:title="&lt;TABLE&gt;">
<polygon fill="none" stroke="lightgrey" points="211,-276 211,-293 280,-293 280,-276 211,-276"/>
<text text-anchor="start" x="229.5" y="-282.5" font-family="Times New Roman,serif" font-size="10.00">Student</text>
</a>
<polygon fill="none" stroke="lightgrey" points="211,-228 211,-276 280,-276 280,-228 211,-228"/>
<text text-anchor="start" x="216" y="-264" font-family="Times New Roman,serif" font-size="10.00">name :String</text>
<text text-anchor="start" x="216" y="-250" font-family="Times New Roman,serif" font-size="10.00">credits :int</text>
<text text-anchor="start" x="216" y="-236" font-family="Times New Roman,serif" font-size="10.00">motivation :int</text>
<polygon fill="none" stroke="lightgrey" points="211,-208 211,-228 280,-228 280,-208 211,-208"/>
<text text-anchor="start" x="244" y="-216" font-family="Times New Roman,serif" font-size="10.00"> </text>
</g>
<!-- _Student&#45;&gt;_University -->
<g id="edge12" class="edge"><title>_Student&#45;&gt;_University</title>
<path fill="none" stroke="black" d="M202.497,-204.289C191.092,-192.024 179.012,-179.032 168.485,-167.71"/>
<text text-anchor="middle" x="177.752" y="-168.97" font-family="Times New Roman,serif" font-size="10.00">uni</text>
<text text-anchor="middle" x="193.23" y="-198.029" font-family="Times New Roman,serif" font-size="10.00">students *</text>
</g>
<!-- _Student&#45;&gt;_Student -->
<g id="edge16" class="edge"><title>_Student&#45;&gt;_Student</title>
<path fill="none" stroke="black" d="M287.331,-272.366C297.48,-270.696 305,-263.574 305,-251 305,-238.426 297.48,-231.304 287.331,-229.634"/>
<text text-anchor="middle" x="297.099" y="-224.995" font-family="Times New Roman,serif" font-size="10.00">friends *</text>
<text text-anchor="middle" x="295.248" y="-263.758" font-family="Times New Roman,serif" font-size="10.00">friends *</text>
</g>
<!-- _StudentImpl -->
<g id="node8" class="node"><title>_StudentImpl</title>
<a xlink:href="../emfsrc/org/sdmlib/examples/emfstudyright/EMFStudyRightModel/impl/StudentImpl.java" xlink:title="&lt;TABLE&gt;">
<polygon fill="none" stroke="black" points="217,-146 217,-163 273,-163 273,-146 217,-146"/>
<text text-anchor="start" x="220.5" y="-152.5" font-family="Times New Roman,serif" font-size="10.00">StudentImpl</text>
</a>
<polygon fill="none" stroke="black" points="217,-126 217,-146 273,-146 273,-126 217,-126"/>
<text text-anchor="start" x="243.5" y="-134" font-family="Times New Roman,serif" font-size="10.00"> </text>
<polygon fill="none" stroke="black" points="217,-106 217,-126 273,-126 273,-106 217,-106"/>
<text text-anchor="start" x="243.5" y="-114" font-family="Times New Roman,serif" font-size="10.00"> </text>
</g>
<!-- _Student&#45;&gt;_StudentImpl -->
<g id="edge8" class="edge"><title>_Student&#45;&gt;_StudentImpl</title>
<path fill="none" stroke="black" d="M245,-194.114C245,-185.044 245,-175.936 245,-167.71"/>
<polygon fill="none" stroke="black" points="241.5,-194.289 245,-204.289 248.5,-194.289 241.5,-194.289"/>
</g>
</g>
</svg>
