<?xml version="1.0" encoding="UTF-8" standalone="no"?>
<!DOCTYPE svg PUBLIC "-//W3C//DTD SVG 1.1//EN"
 "http://www.w3.org/Graphics/SVG/1.1/DTD/svg11.dtd">
<!-- Generated by graphviz version 2.28.0 (20110507.0327)
 -->
<!-- Title: ObjectDiagram Pages: 1 -->
<svg width="725pt" height="260pt"
 viewBox="0.00 0.00 725.00 260.00" xmlns="http://www.w3.org/2000/svg" xmlns:xlink="http://www.w3.org/1999/xlink">
<g id="graph1" class="graph" transform="scale(1 1) rotate(0) translate(4 256)">
<title>ObjectDiagram</title>
<polygon fill="white" stroke="white" points="-4,5 -4,-256 722,-256 722,5 -4,5"/>
<!-- u1 -->
<g id="node1" class="node"><title>u1</title>
<a xlink:href="../emfsrc/org/sdmlib/examples/emfstudyright/EMFStudyRightModel/impl/UniversityImpl.java" xlink:title="&lt;TABLE&gt;">
<polygon fill="none" stroke="black" points="364,-230 364,-247 494,-247 494,-230 364,-230"/>
<text text-anchor="start" x="388.5" y="-236.5" font-family="Arial" font-size="10.00"> </text>
<text text-anchor="start" x="392.5" y="-236.5" font-family="Arial" font-size="10.00">u1 :UniversityImpl</text>
</a>
<polygon fill="none" stroke="black" points="364,-210 364,-230 494,-230 494,-210 364,-210"/>
<text text-anchor="start" x="369" y="-218" font-family="Arial" font-size="10.00">name = &quot;Study Right EMF&quot;</text>
</g>
<!-- r5 -->
<g id="node2" class="node"><title>r5</title>
<a xlink:href="../emfsrc/org/sdmlib/examples/emfstudyright/EMFStudyRightModel/impl/RoomImpl.java" xlink:title="&lt;TABLE&gt;">
<polygon fill="none" stroke="black" points="153,-141 153,-158 227,-158 227,-141 153,-141"/>
<text text-anchor="start" x="159" y="-147.5" font-family="Arial" font-size="10.00"> </text>
<text text-anchor="start" x="163" y="-147.5" font-family="Arial" font-size="10.00">r5 :RoomImpl</text>
</a>
<polygon fill="none" stroke="black" points="153,-107 153,-141 227,-141 227,-107 153,-107"/>
<text text-anchor="start" x="158" y="-129" font-family="Arial" font-size="10.00">credits = 0</text>
<text text-anchor="start" x="158" y="-115" font-family="Arial" font-size="10.00">topic = &quot;Math&quot;</text>
</g>
<!-- u1&#45;&#45;r5 -->
<g id="edge2" class="edge"><title>u1&#45;&#45;r5</title>
<path fill="none" stroke="black" d="M355.874,-207.215C324.046,-197.291 286.641,-184.429 254,-170 247.82,-167.268 241.456,-164.125 235.249,-160.857"/>
<text text-anchor="middle" x="245.238" y="-158.813" font-family="Arial" font-size="10.00">roomsSet</text>
<text text-anchor="middle" x="345.959" y="-206.017" font-family="Arial" font-size="10.00">uni</text>
</g>
<!-- r8 -->
<g id="node5" class="node"><title>r8</title>
<a xlink:href="../emfsrc/org/sdmlib/examples/emfstudyright/EMFStudyRightModel/impl/RoomImpl.java" xlink:title="&lt;TABLE&gt;">
<polygon fill="none" stroke="black" points="272,-141 272,-158 353,-158 353,-141 272,-141"/>
<text text-anchor="start" x="281.5" y="-147.5" font-family="Arial" font-size="10.00"> </text>
<text text-anchor="start" x="285.5" y="-147.5" font-family="Arial" font-size="10.00">r8 :RoomImpl</text>
</a>
<polygon fill="none" stroke="black" points="272,-107 272,-141 353,-141 353,-107 272,-107"/>
<text text-anchor="start" x="277" y="-129" font-family="Arial" font-size="10.00">credits = 0</text>
<text text-anchor="start" x="277" y="-115" font-family="Arial" font-size="10.00">topic = &quot;Sports&quot;</text>
</g>
<!-- u1&#45;&#45;r8 -->
<g id="edge4" class="edge"><title>u1&#45;&#45;r8</title>
<path fill="none" stroke="black" d="M402.158,-206.435C385.966,-193.426 365.144,-176.697 347.59,-162.594"/>
<text text-anchor="middle" x="357.303" y="-162.476" font-family="Arial" font-size="10.00">roomsSet</text>
<text text-anchor="middle" x="392.446" y="-201.553" font-family="Arial" font-size="10.00">uni</text>
</g>
<!-- s10 -->
<g id="node7" class="node"><title>s10</title>
<a xlink:href="../emfsrc/org/sdmlib/examples/emfstudyright/EMFStudyRightModel/impl/StudentImpl.java" xlink:title="&lt;TABLE&gt;">
<polygon fill="none" stroke="black" points="387,-148 387,-165 472,-165 472,-148 387,-148"/>
<text text-anchor="start" x="390.5" y="-154.5" font-family="Arial" font-size="10.00"> </text>
<text text-anchor="start" x="394.5" y="-154.5" font-family="Arial" font-size="10.00">s10 :StudentImpl</text>
</a>
<polygon fill="none" stroke="black" points="387,-100 387,-148 472,-148 472,-100 387,-100"/>
<text text-anchor="start" x="392" y="-136" font-family="Arial" font-size="10.00">name = &quot;Karli&quot;</text>
<text text-anchor="start" x="392" y="-122" font-family="Arial" font-size="10.00">motivation = 0</text>
<text text-anchor="start" x="392" y="-108" font-family="Arial" font-size="10.00">credits = 42</text>
</g>
<!-- u1&#45;&#45;s10 -->
<g id="edge6" class="edge"><title>u1&#45;&#45;s10</title>
<path fill="none" stroke="black" d="M429,-206.198C429,-195.351 429,-181.962 429,-169.671"/>
<text text-anchor="middle" x="433.226" y="-176.234" font-family="Arial" font-size="10.00">studentsSet</text>
<text text-anchor="middle" x="424.774" y="-194.635" font-family="Arial" font-size="10.00">uni</text>
</g>
<!-- s11 -->
<g id="node8" class="node"><title>s11</title>
<a xlink:href="../emfsrc/org/sdmlib/examples/emfstudyright/EMFStudyRightModel/impl/StudentImpl.java" xlink:title="&lt;TABLE&gt;">
<polygon fill="none" stroke="black" points="506,-148 506,-165 591,-165 591,-148 506,-148"/>
<text text-anchor="start" x="509.5" y="-154.5" font-family="Arial" font-size="10.00"> </text>
<text text-anchor="start" x="513.5" y="-154.5" font-family="Arial" font-size="10.00">s11 :StudentImpl</text>
</a>
<polygon fill="none" stroke="black" points="506,-100 506,-148 591,-148 591,-100 506,-100"/>
<text text-anchor="start" x="511" y="-136" font-family="Arial" font-size="10.00">name = &quot;Eyse&quot;</text>
<text text-anchor="start" x="511" y="-122" font-family="Arial" font-size="10.00">motivation = 0</text>
<text text-anchor="start" x="511" y="-108" font-family="Arial" font-size="10.00">credits = 63</text>
</g>
<!-- u1&#45;&#45;s11 -->
<g id="edge8" class="edge"><title>u1&#45;&#45;s11</title>
<path fill="none" stroke="black" d="M456.301,-206.435C470.025,-195.594 487.019,-182.17 502.635,-169.835"/>
<text text-anchor="middle" x="498.142" y="-176.269" font-family="Arial" font-size="10.00">studentsSet</text>
<text text-anchor="middle" x="460.793" y="-195" font-family="Arial" font-size="10.00">uni</text>
</g>
<!-- s12 -->
<g id="node9" class="node"><title>s12</title>
<a xlink:href="../emfsrc/org/sdmlib/examples/emfstudyright/EMFStudyRightModel/impl/StudentImpl.java" xlink:title="&lt;TABLE&gt;">
<polygon fill="none" stroke="black" points="625,-148 625,-165 710,-165 710,-148 625,-148"/>
<text text-anchor="start" x="628.5" y="-154.5" font-family="Arial" font-size="10.00"> </text>
<text text-anchor="start" x="632.5" y="-154.5" font-family="Arial" font-size="10.00">s12 :StudentImpl</text>
</a>
<polygon fill="none" stroke="black" points="625,-100 625,-148 710,-148 710,-100 625,-100"/>
<text text-anchor="start" x="630" y="-136" font-family="Arial" font-size="10.00">name = &quot;Abu&quot;</text>
<text text-anchor="start" x="630" y="-122" font-family="Arial" font-size="10.00">motivation = 0</text>
<text text-anchor="start" x="630" y="-108" font-family="Arial" font-size="10.00">credits = 23</text>
</g>
<!-- u1&#45;&#45;s12 -->
<g id="edge10" class="edge"><title>u1&#45;&#45;s12</title>
<path fill="none" stroke="black" d="M502.29,-208.186C534.984,-198.32 573.581,-185.234 607,-170 610.206,-168.539 613.455,-166.947 616.697,-165.272"/>
<text text-anchor="middle" x="610.567" y="-170.673" font-family="Arial" font-size="10.00">studentsSet</text>
<text text-anchor="middle" x="509.718" y="-198.99" font-family="Arial" font-size="10.00">uni</text>
</g>
<!-- a6 -->
<g id="node3" class="node"><title>a6</title>
<a xlink:href="../emfsrc/org/sdmlib/examples/emfstudyright/EMFStudyRightModel/impl/AssignmentImpl.java" xlink:title="&lt;TABLE&gt;">
<polygon fill="none" stroke="black" points="8,-38 8,-55 106,-55 106,-38 8,-38"/>
<text text-anchor="start" x="11.5" y="-44.5" font-family="Arial" font-size="10.00"> </text>
<text text-anchor="start" x="15.5" y="-44.5" font-family="Arial" font-size="10.00">a6 :AssignmentImpl</text>
</a>
<polygon fill="none" stroke="black" points="8,-4 8,-38 106,-38 106,-4 8,-4"/>
<text text-anchor="start" x="13" y="-26" font-family="Arial" font-size="10.00">name = &quot;Limes&quot;</text>
<text text-anchor="start" x="13" y="-12" font-family="Arial" font-size="10.00">points = 0</text>
</g>
<!-- r5&#45;&#45;a6 -->
<g id="edge12" class="edge"><title>r5&#45;&#45;a6</title>
<path fill="none" stroke="black" d="M152.243,-103.328C134.273,-89.6807 112.834,-73.4002 94.8511,-59.7441"/>
<text text-anchor="middle" x="104.625" y="-59.3595" font-family="Arial" font-size="10.00">assignmentsSet</text>
<text text-anchor="middle" x="142.47" y="-98.7122" font-family="Arial" font-size="10.00">room</text>
</g>
<!-- a7 -->
<g id="node4" class="node"><title>a7</title>
<a xlink:href="../emfsrc/org/sdmlib/examples/emfstudyright/EMFStudyRightModel/impl/AssignmentImpl.java" xlink:title="&lt;TABLE&gt;">
<polygon fill="none" stroke="black" points="141,-38 141,-55 240,-55 240,-38 141,-38"/>
<text text-anchor="start" x="145" y="-44.5" font-family="Arial" font-size="10.00"> </text>
<text text-anchor="start" x="149" y="-44.5" font-family="Arial" font-size="10.00">a7 :AssignmentImpl</text>
</a>
<polygon fill="none" stroke="black" points="141,-4 141,-38 240,-38 240,-4 141,-4"/>
<text text-anchor="start" x="146" y="-26" font-family="Arial" font-size="10.00">name = &quot;Equations&quot;</text>
<text text-anchor="start" x="146" y="-12" font-family="Arial" font-size="10.00">points = 0</text>
</g>
<!-- r5&#45;&#45;a7 -->
<g id="edge14" class="edge"><title>r5&#45;&#45;a7</title>
<path fill="none" stroke="black" d="M190,-103.328C190,-89.6807 190,-73.4002 190,-59.7441"/>
<text text-anchor="middle" x="194.226" y="-66.3072" font-family="Arial" font-size="10.00">assignmentsSet</text>
<text text-anchor="middle" x="185.774" y="-91.7645" font-family="Arial" font-size="10.00">room</text>
</g>
<!-- a9 -->
<g id="node6" class="node"><title>a9</title>
<a xlink:href="../emfsrc/org/sdmlib/examples/emfstudyright/EMFStudyRightModel/impl/AssignmentImpl.java" xlink:title="&lt;TABLE&gt;">
<polygon fill="none" stroke="black" points="274,-38 274,-55 372,-55 372,-38 274,-38"/>
<text text-anchor="start" x="277.5" y="-44.5" font-family="Arial" font-size="10.00"> </text>
<text text-anchor="start" x="281.5" y="-44.5" font-family="Arial" font-size="10.00">a9 :AssignmentImpl</text>
</a>
<polygon fill="none" stroke="black" points="274,-4 274,-38 372,-38 372,-4 274,-4"/>
<text text-anchor="start" x="279" y="-26" font-family="Arial" font-size="10.00">name = &quot;Push&#45;ups&quot;</text>
<text text-anchor="start" x="279" y="-12" font-family="Arial" font-size="10.00">points = 0</text>
</g>
<!-- r8&#45;&#45;a9 -->
<g id="edge16" class="edge"><title>r8&#45;&#45;a9</title>
<path fill="none" stroke="black" d="M315.123,-103.328C316.609,-89.6807 318.382,-73.4002 319.869,-59.7441"/>
<text text-anchor="middle" x="323.09" y="-66.7115" font-family="Arial" font-size="10.00">assignmentsSet</text>
<text text-anchor="middle" x="311.903" y="-91.3602" font-family="Arial" font-size="10.00">room</text>
</g>
</g>
</svg>
