<?xml version="1.0" encoding="UTF-8" standalone="no"?>
<!DOCTYPE svg PUBLIC "-//W3C//DTD SVG 1.1//EN"
 "http://www.w3.org/Graphics/SVG/1.1/DTD/svg11.dtd">
<!-- Generated by graphviz version 2.28.0 (20110507.0327)
 -->
<!-- Title: ObjectDiagram Pages: 1 -->
<svg width="440pt" height="164pt"
 viewBox="0.00 0.00 440.00 164.00" xmlns="http://www.w3.org/2000/svg" xmlns:xlink="http://www.w3.org/1999/xlink">
<g id="graph1" class="graph" transform="scale(1 1) rotate(0) translate(4 160)">
<title>ObjectDiagram</title>
<polygon fill="white" stroke="white" points="-4,5 -4,-160 437,-160 437,5 -4,5"/>
<!-- u1 -->
<g id="node1" class="node"><title>u1</title>
<a xlink:href="../../SDMLib/src/org/sdmlib/examples/emfstudyright/EMFStudyRightModel/impl/UniversityImpl.java" xlink:title="&lt;TABLE&gt;">
<polygon fill="none" stroke="black" points="148,-134 148,-151 278,-151 278,-134 148,-134"/>
<text text-anchor="start" x="172.5" y="-140.5" font-family="Arial" font-size="10.00"> </text>
<text text-anchor="start" x="176.5" y="-140.5" font-family="Arial" font-size="10.00">u1 :UniversityImpl</text>
</a>
<polygon fill="none" stroke="black" points="148,-114 148,-134 278,-134 278,-114 148,-114"/>
<text text-anchor="start" x="153" y="-122" font-family="Arial" font-size="10.00">name = &quot;Study Right EMF&quot;</text>
</g>
<!-- r4 -->
<g id="node2" class="node"><title>r4</title>
<a xlink:href="../../SDMLib/src/org/sdmlib/examples/emfstudyright/EMFStudyRightModel/impl/RoomImpl.java" xlink:title="&lt;TABLE&gt;">
<polygon fill="none" stroke="black" points="8,-45 8,-62 82,-62 82,-45 8,-45"/>
<text text-anchor="start" x="14" y="-51.5" font-family="Arial" font-size="10.00"> </text>
<text text-anchor="start" x="18" y="-51.5" font-family="Arial" font-size="10.00">r4 :RoomImpl</text>
</a>
<polygon fill="none" stroke="black" points="8,-11 8,-45 82,-45 82,-11 8,-11"/>
<text text-anchor="start" x="13" y="-33" font-family="Arial" font-size="10.00">topic = &quot;Math&quot;</text>
<text text-anchor="start" x="13" y="-19" font-family="Arial" font-size="10.00">credits = 0</text>
</g>
<!-- u1&#45;&#45;r4 -->
<g id="edge2" class="edge"><title>u1&#45;&#45;r4</title>
<path fill="none" stroke="black" d="M167.682,-110.468C146.505,-100.022 121.138,-86.9508 99,-74 95.0126,-71.6673 90.9173,-69.1585 86.8509,-66.5896"/>
<text text-anchor="middle" x="96.772" y="-65.3433" font-family="Arial" font-size="10.00">roomsSet</text>
<text text-anchor="middle" x="157.685" y="-107.727" font-family="Arial" font-size="10.00">uni</text>
</g>
<!-- s5 -->
<g id="node3" class="node"><title>s5</title>
<a xlink:href="../../SDMLib/src/org/sdmlib/examples/emfstudyright/EMFStudyRightModel/impl/StudentImpl.java" xlink:title="&lt;TABLE&gt;">
<polygon fill="none" stroke="black" points="116,-52 116,-69 196,-69 196,-52 116,-52"/>
<text text-anchor="start" x="119.5" y="-58.5" font-family="Arial" font-size="10.00"> </text>
<text text-anchor="start" x="123.5" y="-58.5" font-family="Arial" font-size="10.00">s5 :StudentImpl</text>
</a>
<polygon fill="none" stroke="black" points="116,-4 116,-52 196,-52 196,-4 116,-4"/>
<text text-anchor="start" x="121" y="-40" font-family="Arial" font-size="10.00">name = &quot;Karli&quot;</text>
<text text-anchor="start" x="121" y="-26" font-family="Arial" font-size="10.00">credits = 42</text>
<text text-anchor="start" x="121" y="-12" font-family="Arial" font-size="10.00">motivation = 0</text>
</g>
<!-- u1&#45;&#45;s5 -->
<g id="edge4" class="edge"><title>u1&#45;&#45;s5</title>
<path fill="none" stroke="black" d="M199.78,-110.198C193.202,-99.3512 185.083,-85.9618 177.631,-73.6714"/>
<text text-anchor="middle" x="185.943" y="-76.7297" font-family="Arial" font-size="10.00">studentsSet</text>
<text text-anchor="middle" x="191.467" y="-102.14" font-family="Arial" font-size="10.00">uni</text>
</g>
<!-- s6 -->
<g id="node4" class="node"><title>s6</title>
<a xlink:href="../../SDMLib/src/org/sdmlib/examples/emfstudyright/EMFStudyRightModel/impl/StudentImpl.java" xlink:title="&lt;TABLE&gt;">
<polygon fill="none" stroke="black" points="230,-52 230,-69 310,-69 310,-52 230,-52"/>
<text text-anchor="start" x="233.5" y="-58.5" font-family="Arial" font-size="10.00"> </text>
<text text-anchor="start" x="237.5" y="-58.5" font-family="Arial" font-size="10.00">s6 :StudentImpl</text>
</a>
<polygon fill="none" stroke="black" points="230,-4 230,-52 310,-52 310,-4 230,-4"/>
<text text-anchor="start" x="235" y="-40" font-family="Arial" font-size="10.00">name = &quot;Eyse&quot;</text>
<text text-anchor="start" x="235" y="-26" font-family="Arial" font-size="10.00">credits = 63</text>
<text text-anchor="start" x="235" y="-12" font-family="Arial" font-size="10.00">motivation = 0</text>
</g>
<!-- u1&#45;&#45;s6 -->
<g id="edge6" class="edge"><title>u1&#45;&#45;s6</title>
<path fill="none" stroke="black" d="M226.22,-110.198C232.798,-99.3512 240.917,-85.9618 248.369,-73.6714"/>
<text text-anchor="middle" x="247.284" y="-81.1123" font-family="Arial" font-size="10.00">studentsSet</text>
<text text-anchor="middle" x="227.306" y="-97.7573" font-family="Arial" font-size="10.00">uni</text>
</g>
<!-- s7 -->
<g id="node5" class="node"><title>s7</title>
<a xlink:href="../../SDMLib/src/org/sdmlib/examples/emfstudyright/EMFStudyRightModel/impl/StudentImpl.java" xlink:title="&lt;TABLE&gt;">
<polygon fill="none" stroke="black" points="344,-52 344,-69 424,-69 424,-52 344,-52"/>
<text text-anchor="start" x="347.5" y="-58.5" font-family="Arial" font-size="10.00"> </text>
<text text-anchor="start" x="351.5" y="-58.5" font-family="Arial" font-size="10.00">s7 :StudentImpl</text>
</a>
<polygon fill="none" stroke="black" points="344,-4 344,-52 424,-52 424,-4 344,-4"/>
<text text-anchor="start" x="349" y="-40" font-family="Arial" font-size="10.00">name = &quot;Abu&quot;</text>
<text text-anchor="start" x="349" y="-26" font-family="Arial" font-size="10.00">credits = 23</text>
<text text-anchor="start" x="349" y="-12" font-family="Arial" font-size="10.00">motivation = 0</text>
</g>
<!-- u1&#45;&#45;s7 -->
<g id="edge8" class="edge"><title>u1&#45;&#45;s7</title>
<path fill="none" stroke="black" d="M257.627,-110.493C278.881,-99.9467 304.511,-86.7864 327,-74 329.951,-72.3224 332.964,-70.5629 335.989,-68.7615"/>
<text text-anchor="middle" x="330.357" y="-74.5252" font-family="Arial" font-size="10.00">studentsSet</text>
<text text-anchor="middle" x="263.854" y="-100.168" font-family="Arial" font-size="10.00">uni</text>
</g>
</g>
</svg>
