<?xml version="1.0" encoding="UTF-8" standalone="no"?>
<!DOCTYPE svg PUBLIC "-//W3C//DTD SVG 1.1//EN"
 "http://www.w3.org/Graphics/SVG/1.1/DTD/svg11.dtd">
<!-- Generated by graphviz version 2.28.0 (20110507.0327)
 -->
<!-- Title: ObjectDiagram Pages: 1 -->
<svg width="973pt" height="180pt"
 viewBox="0.00 0.00 973.00 180.00" xmlns="http://www.w3.org/2000/svg" xmlns:xlink="http://www.w3.org/1999/xlink">
<g id="graph1" class="graph" transform="scale(1 1) rotate(0) translate(4 176)">
<title>ObjectDiagram</title>
<polygon fill="white" stroke="white" points="-4,5 -4,-176 970,-176 970,5 -4,5"/>
<!-- theo -->
<g id="node1" class="node"><title>theo</title>
<image xlink:href="icons/worker.png" width="80px" height="61px" preserveAspectRatio="xMinYMin meet" x="54" y="-165"/>
<a xlink:href="../examples/org/sdmlib/examples/replication/maumau/SharedSpaceMauMauStoryboards.java" xlink:title="&lt;TABLE&gt;">
<polygon fill="none" stroke="black" points="8,-86 8,-102 180,-102 180,-86 8,-86"/>
<text text-anchor="start" x="11.5" y="-92" font-family="Times New Roman,serif" font-size="10.00"> </text>
<text text-anchor="start" x="14.5" y="-92" font-family="Times New Roman,serif" font-size="10.00">theo :SharedSpaceMauMauStoryboards</text>
</a>
</g>
<!-- taskboard -->
<g id="node2" class="node"><title>taskboard</title>
<image xlink:href="icons/shared.png" width="70px" height="23px" preserveAspectRatio="xMinYMin meet" x="238" y="-146"/>
<a xlink:href="../../SDMLib/src/org/sdmlib/replication/TaskFlowBoard.java" xlink:title="&lt;TABLE&gt;">
<polygon fill="none" stroke="black" points="214,-105 214,-121 332,-121 332,-105 214,-105"/>
<text text-anchor="start" x="217.5" y="-111" font-family="Times New Roman,serif" font-size="10.00"> </text>
<text text-anchor="start" x="220.5" y="-111" font-family="Times New Roman,serif" font-size="10.00">taskboard :TaskFlowBoard</text>
</a>
</g>
<!-- storyTheo -->
<g id="node3" class="node"><title>storyTheo</title>
<image xlink:href="icons/person1.png" width="32px" height="43px" preserveAspectRatio="xMinYMin meet" x="472.5" y="-156"/>
<a xlink:href="../examples/org/sdmlib/examples/replication/maumau/SharedSpaceMauMauStoryboards.java" xlink:title="&lt;TABLE&gt;">
<polygon fill="none" stroke="black" points="367,-95 367,-111 610,-111 610,-95 367,-95"/>
<text text-anchor="start" x="370.5" y="-101" font-family="Times New Roman,serif" font-size="10.00"> </text>
<text text-anchor="start" x="373.5" y="-101" font-family="Times New Roman,serif" font-size="10.00">storyTheo :SharedSpaceMauMauStoryboards$StoryTheo</text>
</a>
</g>
<!-- game42storyboard -->
<g id="node4" class="node"><title>game42storyboard</title>
<a xlink:href="../../SDMLib/src/org/sdmlib/storyboards/Storyboard.java" xlink:title="&lt;TABLE&gt;">
<polygon fill="none" stroke="black" points="644,-142 644,-159 778,-159 778,-142 644,-142"/>
<text text-anchor="start" x="647.5" y="-148.5" font-family="Times New Roman,serif" font-size="10.00"> </text>
<text text-anchor="start" x="650.5" y="-148.5" font-family="Times New Roman,serif" font-size="10.00">game42storyboard :Storyboard</text>
</a>
<polygon fill="none" stroke="black" points="644,-94 644,-142 778,-142 778,-94 644,-94"/>
<text text-anchor="start" x="649" y="-130" font-family="Times New Roman,serif" font-size="10.00">rootDir = &quot;examples&quot;</text>
<text text-anchor="start" x="649" y="-116" font-family="Times New Roman,serif" font-size="10.00">stepCounter = 2</text>
<text text-anchor="start" x="649" y="-102" font-family="Times New Roman,serif" font-size="10.00">stepDoneCounter = 0</text>
</g>
<!-- s1 -->
<g id="node5" class="node"><title>s1</title>
<a xlink:href="../../SDMLib/src/org/sdmlib/storyboards/StoryboardStep.java" xlink:title="&lt;TABLE&gt;">
<polygon fill="none" stroke="black" points="279,-24 279,-41 413,-41 413,-24 279,-24"/>
<text text-anchor="start" x="306" y="-30.5" font-family="Times New Roman,serif" font-size="10.00"> </text>
<text text-anchor="start" x="309" y="-30.5" font-family="Times New Roman,serif" font-size="10.00">s1 :StoryboardStep</text>
</a>
<polygon fill="none" stroke="black" points="279,-4 279,-24 413,-24 413,-4 279,-4"/>
<text text-anchor="start" x="284" y="-12" font-family="Times New Roman,serif" font-size="10.00">text = &quot;SharedSpaceMauMau&quot;</text>
</g>
<!-- game42storyboard&#45;&#45;s1 -->
<g id="edge2" class="edge"><title>game42storyboard&#45;&#45;s1</title>
<path fill="none" stroke="black" d="M646.9,-90.3286C639.967,-87.2251 632.917,-84.37 626,-82 542.627,-53.4323 517.047,-65.0533 431,-46 427.726,-45.275 424.387,-44.5121 421.018,-43.7233"/>
<text text-anchor="middle" x="430.805" y="-39.1695" font-family="Times New Roman,serif" font-size="10.00">storyboardSteps</text>
<text text-anchor="middle" x="636.902" y="-88.0198" font-family="Times New Roman,serif" font-size="10.00">storyboard</text>
</g>
<!-- s2 -->
<g id="node6" class="node"><title>s2</title>
<a xlink:href="../../SDMLib/src/org/sdmlib/storyboards/StoryboardStep.java" xlink:title="&lt;TABLE&gt;">
<polygon fill="none" stroke="black" points="448,-24 448,-41 763,-41 763,-24 448,-24"/>
<text text-anchor="start" x="565.5" y="-30.5" font-family="Times New Roman,serif" font-size="10.00"> </text>
<text text-anchor="start" x="568.5" y="-30.5" font-family="Times New Roman,serif" font-size="10.00">s2 :StoryboardStep</text>
</a>
<polygon fill="none" stroke="black" points="448,-4 448,-24 763,-24 763,-4 448,-4"/>
<text text-anchor="start" x="453" y="-12" font-family="Times New Roman,serif" font-size="10.00">text = &quot;Start: Abu, Karli, and Sabine want to play some replication maumau.&quot;</text>
</g>
<!-- game42storyboard&#45;&#45;s2 -->
<g id="edge4" class="edge"><title>game42storyboard&#45;&#45;s2</title>
<path fill="none" stroke="black" d="M673.926,-90.3253C658.404,-75.3886 640.872,-58.5185 627.375,-45.5303"/>
<text text-anchor="middle" x="636.836" y="-46.2692" font-family="Times New Roman,serif" font-size="10.00">storyboardSteps</text>
<text text-anchor="middle" x="664.465" y="-84.5865" font-family="Times New Roman,serif" font-size="10.00">storyboard</text>
</g>
<!-- s3 -->
<g id="node7" class="node"><title>s3</title>
<text text-anchor="middle" x="816" y="-20.5" font-family="Times New Roman,serif" font-size="10.00">s3</text>
</g>
<!-- game42storyboard&#45;&#45;s3 -->
<g id="edge6" class="edge"><title>game42storyboard&#45;&#45;s3</title>
<path fill="none" stroke="black" d="M747.724,-90.3253C764.874,-73.6652 784.5,-54.5996 798.296,-41.1984"/>
<text text-anchor="middle" x="794.74" y="-48.0447" font-family="Times New Roman,serif" font-size="10.00">storyboardSteps</text>
<text text-anchor="middle" x="751.28" y="-78.479" font-family="Times New Roman,serif" font-size="10.00">storyboard</text>
</g>
<!-- s4 -->
<g id="node8" class="node"><title>s4</title>
<a xlink:href="../../SDMLib/src/org/sdmlib/storyboards/StoryboardWall.java" xlink:title="&lt;TABLE&gt;">
<polygon fill="none" stroke="black" points="869,-14 869,-31 957,-31 957,-14 869,-14"/>
<text text-anchor="start" x="872.5" y="-20.5" font-family="Times New Roman,serif" font-size="10.00"> </text>
<text text-anchor="start" x="875.5" y="-20.5" font-family="Times New Roman,serif" font-size="10.00">s4 :StoryboardWall</text>
</a>
</g>
<!-- game42storyboard&#45;&#45;s4 -->
<g id="edge8" class="edge"><title>game42storyboard&#45;&#45;s4</title>
<path fill="none" stroke="black" d="M781.366,-90.4685C814.5,-73.7377 852.492,-54.5536 879.116,-41.1096"/>
<text text-anchor="middle" x="872.931" y="-46.4672" font-family="Times New Roman,serif" font-size="10.00">wall</text>
<text text-anchor="middle" x="787.551" y="-80.1109" font-family="Times New Roman,serif" font-size="10.00">storyboard</text>
</g>
</g>
</svg>
