<?xml version="1.0" encoding="UTF-8" standalone="no"?>
<!DOCTYPE svg PUBLIC "-//W3C//DTD SVG 1.1//EN"
 "http://www.w3.org/Graphics/SVG/1.1/DTD/svg11.dtd">
<!-- Generated by graphviz version 2.28.0 (20110507.0327)
 -->
<!-- Title: ObjectDiagram Pages: 1 -->
<svg width="829pt" height="180pt"
 viewBox="0.00 0.00 829.00 180.00" xmlns="http://www.w3.org/2000/svg" xmlns:xlink="http://www.w3.org/1999/xlink">
<g id="graph1" class="graph" transform="scale(1 1) rotate(0) translate(4 176)">
<title>ObjectDiagram</title>
<polygon fill="white" stroke="white" points="-4,5 -4,-176 826,-176 826,5 -4,5"/>
<!-- theo -->
<g id="node1" class="node"><title>theo</title>
<image xlink:href="icons/worker.png" width="80px" height="61px" preserveAspectRatio="xMinYMin meet" x="54" y="-165"/>
<a xlink:href="../examples/org/sdmlib/examples/replication/maumau/SharedSpaceMauMauStoryboards.java" xlink:title="&lt;TABLE&gt;">
<polygon fill="none" stroke="black" points="8,-86 8,-102 180,-102 180,-86 8,-86"/>
<text text-anchor="start" x="11.5" y="-92" font-family="Times New Roman,serif" font-size="10.00"> </text>
<text text-anchor="start" x="14.5" y="-92" font-family="Times New Roman,serif" font-size="10.00">theo :SharedSpaceMauMauStoryboards</text>
</a>
</g>
<!-- taskboard -->
<g id="node2" class="node"><title>taskboard</title>
<image xlink:href="icons/shared.png" width="70px" height="23px" preserveAspectRatio="xMinYMin meet" x="238" y="-146"/>
<a xlink:href="../../SDMLib/src/org/sdmlib/replication/TaskFlowBoard.java" xlink:title="&lt;TABLE&gt;">
<polygon fill="none" stroke="black" points="214,-105 214,-121 332,-121 332,-105 214,-105"/>
<text text-anchor="start" x="217.5" y="-111" font-family="Times New Roman,serif" font-size="10.00"> </text>
<text text-anchor="start" x="220.5" y="-111" font-family="Times New Roman,serif" font-size="10.00">taskboard :TaskFlowBoard</text>
</a>
</g>
<!-- storyTheo -->
<g id="node3" class="node"><title>storyTheo</title>
<image xlink:href="icons/person1.png" width="32px" height="43px" preserveAspectRatio="xMinYMin meet" x="400" y="-156"/>
<a xlink:href="../examples/org/sdmlib/examples/replication/maumau/StoryTheo.java" xlink:title="&lt;TABLE&gt;">
<polygon fill="none" stroke="black" points="366,-95 366,-111 466,-111 466,-95 366,-95"/>
<text text-anchor="start" x="369.5" y="-101" font-family="Times New Roman,serif" font-size="10.00"> </text>
<text text-anchor="start" x="372.5" y="-101" font-family="Times New Roman,serif" font-size="10.00">storyTheo :StoryTheo</text>
</a>
</g>
<!-- game42storyboard -->
<g id="node4" class="node"><title>game42storyboard</title>
<a xlink:href="../../SDMLib/src/org/sdmlib/storyboards/Storyboard.java" xlink:title="&lt;TABLE&gt;">
<polygon fill="none" stroke="black" points="500,-142 500,-159 634,-159 634,-142 500,-142"/>
<text text-anchor="start" x="503.5" y="-148.5" font-family="Times New Roman,serif" font-size="10.00"> </text>
<text text-anchor="start" x="506.5" y="-148.5" font-family="Times New Roman,serif" font-size="10.00">game42storyboard :Storyboard</text>
</a>
<polygon fill="none" stroke="black" points="500,-94 500,-142 634,-142 634,-94 500,-94"/>
<text text-anchor="start" x="505" y="-130" font-family="Times New Roman,serif" font-size="10.00">rootDir = &quot;examples&quot;</text>
<text text-anchor="start" x="505" y="-116" font-family="Times New Roman,serif" font-size="10.00">stepCounter = 2</text>
<text text-anchor="start" x="505" y="-102" font-family="Times New Roman,serif" font-size="10.00">stepDoneCounter = 0</text>
</g>
<!-- s1 -->
<g id="node5" class="node"><title>s1</title>
<a xlink:href="../../SDMLib/src/org/sdmlib/storyboards/StoryboardStep.java" xlink:title="&lt;TABLE&gt;">
<polygon fill="none" stroke="black" points="135,-24 135,-41 269,-41 269,-24 135,-24"/>
<text text-anchor="start" x="162" y="-30.5" font-family="Times New Roman,serif" font-size="10.00"> </text>
<text text-anchor="start" x="165" y="-30.5" font-family="Times New Roman,serif" font-size="10.00">s1 :StoryboardStep</text>
</a>
<polygon fill="none" stroke="black" points="135,-4 135,-24 269,-24 269,-4 135,-4"/>
<text text-anchor="start" x="140" y="-12" font-family="Times New Roman,serif" font-size="10.00">text = &quot;SharedSpaceMauMau&quot;</text>
</g>
<!-- game42storyboard&#45;&#45;s1 -->
<g id="edge2" class="edge"><title>game42storyboard&#45;&#45;s1</title>
<path fill="none" stroke="black" d="M503.68,-90.3111C496.823,-87.2111 489.848,-84.3615 483,-82 399.271,-53.1257 373.482,-65.1084 287,-46 283.725,-45.2765 280.386,-44.5149 277.017,-43.727"/>
<text text-anchor="middle" x="286.803" y="-39.1702" font-family="Times New Roman,serif" font-size="10.00">storyboardSteps</text>
<text text-anchor="middle" x="493.681" y="-87.9656" font-family="Times New Roman,serif" font-size="10.00">storyboard</text>
</g>
<!-- s2 -->
<g id="node6" class="node"><title>s2</title>
<a xlink:href="../../SDMLib/src/org/sdmlib/storyboards/StoryboardStep.java" xlink:title="&lt;TABLE&gt;">
<polygon fill="none" stroke="black" points="304,-24 304,-41 619,-41 619,-24 304,-24"/>
<text text-anchor="start" x="421.5" y="-30.5" font-family="Times New Roman,serif" font-size="10.00"> </text>
<text text-anchor="start" x="424.5" y="-30.5" font-family="Times New Roman,serif" font-size="10.00">s2 :StoryboardStep</text>
</a>
<polygon fill="none" stroke="black" points="304,-4 304,-24 619,-24 619,-4 304,-4"/>
<text text-anchor="start" x="309" y="-12" font-family="Times New Roman,serif" font-size="10.00">text = &quot;Start: Abu, Karli, and Sabine want to play some replication maumau.&quot;</text>
</g>
<!-- game42storyboard&#45;&#45;s2 -->
<g id="edge4" class="edge"><title>game42storyboard&#45;&#45;s2</title>
<path fill="none" stroke="black" d="M529.926,-90.3253C514.404,-75.3886 496.872,-58.5185 483.375,-45.5303"/>
<text text-anchor="middle" x="492.836" y="-46.2692" font-family="Times New Roman,serif" font-size="10.00">storyboardSteps</text>
<text text-anchor="middle" x="520.465" y="-84.5865" font-family="Times New Roman,serif" font-size="10.00">storyboard</text>
</g>
<!-- s3 -->
<g id="node7" class="node"><title>s3</title>
<text text-anchor="middle" x="672" y="-20.5" font-family="Times New Roman,serif" font-size="10.00">s3</text>
</g>
<!-- game42storyboard&#45;&#45;s3 -->
<g id="edge6" class="edge"><title>game42storyboard&#45;&#45;s3</title>
<path fill="none" stroke="black" d="M603.724,-90.3253C620.874,-73.6652 640.5,-54.5996 654.296,-41.1984"/>
<text text-anchor="middle" x="650.74" y="-48.0447" font-family="Times New Roman,serif" font-size="10.00">storyboardSteps</text>
<text text-anchor="middle" x="607.28" y="-78.479" font-family="Times New Roman,serif" font-size="10.00">storyboard</text>
</g>
<!-- s4 -->
<g id="node8" class="node"><title>s4</title>
<a xlink:href="../../SDMLib/src/org/sdmlib/storyboards/StoryboardWall.java" xlink:title="&lt;TABLE&gt;">
<polygon fill="none" stroke="black" points="725,-14 725,-31 813,-31 813,-14 725,-14"/>
<text text-anchor="start" x="728.5" y="-20.5" font-family="Times New Roman,serif" font-size="10.00"> </text>
<text text-anchor="start" x="731.5" y="-20.5" font-family="Times New Roman,serif" font-size="10.00">s4 :StoryboardWall</text>
</a>
</g>
<!-- game42storyboard&#45;&#45;s4 -->
<g id="edge8" class="edge"><title>game42storyboard&#45;&#45;s4</title>
<path fill="none" stroke="black" d="M637.366,-90.4685C670.5,-73.7377 708.492,-54.5536 735.116,-41.1096"/>
<text text-anchor="middle" x="728.931" y="-46.4672" font-family="Times New Roman,serif" font-size="10.00">wall</text>
<text text-anchor="middle" x="643.551" y="-80.1109" font-family="Times New Roman,serif" font-size="10.00">storyboard</text>
</g>
</g>
</svg>
