<?xml version="1.0" encoding="UTF-8" standalone="no"?>
<!DOCTYPE svg PUBLIC "-//W3C//DTD SVG 1.1//EN"
 "http://www.w3.org/Graphics/SVG/1.1/DTD/svg11.dtd">
<!-- Generated by graphviz version 2.28.0 (20110507.0327)
 -->
<!-- Title: ObjectDiagram Pages: 1 -->
<svg width="3501pt" height="802pt"
 viewBox="0.00 0.00 3501.00 802.00" xmlns="http://www.w3.org/2000/svg" xmlns:xlink="http://www.w3.org/1999/xlink">
<g id="graph1" class="graph" transform="scale(1 1) rotate(0) translate(4 798)">
<title>ObjectDiagram</title>
<polygon fill="white" stroke="white" points="-4,5 -4,-798 3498,-798 3498,5 -4,5"/>
<!-- theo -->
<g id="node1" class="node"><title>theo</title>
<image xlink:href="icons/worker.png" width="80px" height="61px" preserveAspectRatio="xMinYMin meet" x="239" y="-787"/>
<a xlink:href="../examples/org/sdmlib/examples/replication/maumau/SharedSpaceMauMauStoryboards.java" xlink:title="&lt;TABLE&gt;">
<polygon fill="none" stroke="black" points="193,-708 193,-724 365,-724 365,-708 193,-708"/>
<text text-anchor="start" x="196.5" y="-714" font-family="Times New Roman,serif" font-size="10.00"> </text>
<text text-anchor="start" x="199.5" y="-714" font-family="Times New Roman,serif" font-size="10.00">theo :SharedSpaceMauMauStoryboards</text>
</a>
</g>
<!-- taskboard -->
<g id="node2" class="node"><title>taskboard</title>
<image xlink:href="icons/shared.png" width="70px" height="23px" preserveAspectRatio="xMinYMin meet" x="219" y="-650"/>
<a xlink:href="../../SDMLib/src/org/sdmlib/replication/TaskFlowBoard.java" xlink:title="&lt;TABLE&gt;">
<polygon fill="none" stroke="black" points="195,-609 195,-625 313,-625 313,-609 195,-609"/>
<text text-anchor="start" x="198.5" y="-615" font-family="Times New Roman,serif" font-size="10.00"> </text>
<text text-anchor="start" x="201.5" y="-615" font-family="Times New Roman,serif" font-size="10.00">taskboard :TaskFlowBoard</text>
</a>
</g>
<!-- l1 -->
<g id="node3" class="node"><title>l1</title>
<a xlink:href="../../SDMLib/src/org/sdmlib/replication/Lane.java" xlink:title="&lt;TABLE&gt;">
<polygon fill="none" stroke="black" points="55,-466 55,-483 190,-483 190,-466 55,-466"/>
<text text-anchor="start" x="105.5" y="-472.5" font-family="Times New Roman,serif" font-size="10.00"> </text>
<text text-anchor="start" x="108.5" y="-472.5" font-family="Times New Roman,serif" font-size="10.00">l1 :Lane</text>
</a>
<polygon fill="none" stroke="black" points="55,-446 55,-466 190,-466 190,-446 55,-446"/>
<text text-anchor="start" x="60" y="-454" font-family="Times New Roman,serif" font-size="10.00">name = &quot;play7WorkFlowLane&quot;</text>
</g>
<!-- taskboard&#45;&#45;l1 -->
<g id="edge2" class="edge"><title>taskboard&#45;&#45;l1</title>
<path fill="none" stroke="black" d="M234.238,-605.448C208.491,-573.458 163.875,-518.027 139.366,-487.576"/>
<text text-anchor="middle" x="148.341" y="-489.486" font-family="Times New Roman,serif" font-size="10.00">lanes</text>
<text text-anchor="middle" x="225.263" y="-598.537" font-family="Times New Roman,serif" font-size="10.00">board</text>
</g>
<!-- b2 -->
<g id="node4" class="node"><title>b2</title>
<a xlink:href="../../SDMLib/src/org/sdmlib/replication/BoardTask.java" xlink:title="&lt;TABLE&gt;">
<polygon fill="none" stroke="black" points="8,-300 8,-317 105,-317 105,-300 8,-300"/>
<text text-anchor="start" x="26" y="-306.5" font-family="Times New Roman,serif" font-size="10.00"> </text>
<text text-anchor="start" x="29" y="-306.5" font-family="Times New Roman,serif" font-size="10.00">b2 :BoardTask</text>
</a>
<polygon fill="none" stroke="black" points="8,-280 8,-300 105,-300 105,-280 8,-280"/>
<text text-anchor="start" x="13" y="-288" font-family="Times New Roman,serif" font-size="10.00">name = &quot;startClients&quot;</text>
</g>
<!-- l1&#45;&#45;b2 -->
<g id="edge4" class="edge"><title>l1&#45;&#45;b2</title>
<path fill="none" stroke="black" d="M113.236,-442.222C100.577,-410.768 77.3153,-352.965 64.6954,-321.607"/>
<text text-anchor="middle" x="71.9996" y="-325.937" font-family="Times New Roman,serif" font-size="10.00">tasks</text>
<text text-anchor="middle" x="105.931" y="-432.892" font-family="Times New Roman,serif" font-size="10.00">lane</text>
</g>
<!-- play7WorkFlowLane -->
<g id="node5" class="node"><title>play7WorkFlowLane</title>
<image xlink:href="icons/person1.png" width="32px" height="43px" preserveAspectRatio="xMinYMin meet" x="492" y="-778"/>
<a xlink:href="../examples/org/sdmlib/examples/replication/maumau/Play7WorkFlowLaneManager.java" xlink:title="&lt;TABLE&gt;">
<polygon fill="none" stroke="black" points="399,-717 399,-733 617,-733 617,-717 399,-717"/>
<text text-anchor="start" x="402.5" y="-723" font-family="Times New Roman,serif" font-size="10.00"> </text>
<text text-anchor="start" x="405.5" y="-723" font-family="Times New Roman,serif" font-size="10.00">play7WorkFlowLane :Play7WorkFlowLaneManager</text>
</a>
</g>
<!-- play7WorkFlowLane&#45;&#45;taskboard -->
<g id="edge10" class="edge"><title>play7WorkFlowLane&#45;&#45;taskboard</title>
<path fill="none" stroke="black" d="M432.136,-713.353C392.082,-695.061 343.881,-673.048 307.725,-656.536"/>
<text text-anchor="middle" x="317.725" y="-653.957" font-family="Times New Roman,serif" font-size="10.00">taskFlowBoard</text>
</g>
<!-- r3 -->
<g id="node6" class="node"><title>r3</title>
<a xlink:href="../../SDMLib/src/org/sdmlib/replication/ReplicationChannel.java" xlink:title="&lt;TABLE&gt;">
<polygon fill="none" stroke="black" points="414,-622 414,-639 515,-639 515,-622 414,-622"/>
<text text-anchor="start" x="417.5" y="-628.5" font-family="Times New Roman,serif" font-size="10.00"> </text>
<text text-anchor="start" x="420.5" y="-628.5" font-family="Times New Roman,serif" font-size="10.00">r3 :ReplicationChannel</text>
</a>
</g>
<!-- play7WorkFlowLane&#45;&#45;r3 -->
<g id="edge6" class="edge"><title>play7WorkFlowLane&#45;&#45;r3</title>
<path fill="none" stroke="black" d="M494.799,-713.196C486.8,-692.108 476.942,-666.121 470.568,-649.315"/>
<text text-anchor="middle" x="477.734" y="-653.791" font-family="Times New Roman,serif" font-size="10.00">channel</text>
</g>
<!-- s14 -->
<g id="node17" class="node"><title>s14</title>
<a xlink:href="../../SDMLib/src/org/sdmlib/replication/SharedSpace.java" xlink:title="&lt;TABLE&gt;">
<polygon fill="none" stroke="black" points="505,-480 505,-497 597,-497 597,-480 505,-480"/>
<text text-anchor="start" x="514.5" y="-486.5" font-family="Times New Roman,serif" font-size="10.00"> </text>
<text text-anchor="start" x="517.5" y="-486.5" font-family="Times New Roman,serif" font-size="10.00">s14 :SharedSpace</text>
</a>
<polygon fill="none" stroke="black" points="505,-432 505,-480 597,-480 597,-432 505,-432"/>
<text text-anchor="start" x="510" y="-468" font-family="Times New Roman,serif" font-size="10.00">spaceId = &quot;game42&quot;</text>
<text text-anchor="start" x="510" y="-454" font-family="Times New Roman,serif" font-size="10.00">lastChangeId = 18</text>
<text text-anchor="start" x="510" y="-440" font-family="Times New Roman,serif" font-size="10.00">nodeId = &quot;Theo&quot;</text>
</g>
<!-- play7WorkFlowLane&#45;&#45;s14 -->
<g id="edge8" class="edge"><title>play7WorkFlowLane&#45;&#45;s14</title>
<path fill="none" stroke="black" d="M519.466,-713.285C523.678,-699.347 528.117,-683.045 531,-668 542.042,-610.372 547.181,-542.258 549.425,-501.675"/>
<text text-anchor="middle" x="553.111" y="-508.471" font-family="Times New Roman,serif" font-size="10.00">gameSpace</text>
</g>
<!-- game42storyboard -->
<g id="node29" class="node"><title>game42storyboard</title>
<a xlink:href="../../SDMLib/src/org/sdmlib/storyboards/Storyboard.java" xlink:title="&lt;TABLE&gt;">
<polygon fill="none" stroke="black" points="890,-646 890,-663 1024,-663 1024,-646 890,-646"/>
<text text-anchor="start" x="893.5" y="-652.5" font-family="Times New Roman,serif" font-size="10.00"> </text>
<text text-anchor="start" x="896.5" y="-652.5" font-family="Times New Roman,serif" font-size="10.00">game42storyboard :Storyboard</text>
</a>
<polygon fill="none" stroke="black" points="890,-598 890,-646 1024,-646 1024,-598 890,-598"/>
<text text-anchor="start" x="895" y="-634" font-family="Times New Roman,serif" font-size="10.00">rootDir = &quot;examples&quot;</text>
<text text-anchor="start" x="895" y="-620" font-family="Times New Roman,serif" font-size="10.00">stepCounter = 2</text>
<text text-anchor="start" x="895" y="-606" font-family="Times New Roman,serif" font-size="10.00">stepDoneCounter = 0</text>
</g>
<!-- play7WorkFlowLane&#45;&#45;game42storyboard -->
<g id="edge12" class="edge"><title>play7WorkFlowLane&#45;&#45;game42storyboard</title>
<path fill="none" stroke="black" d="M603.253,-713.425C613.577,-710.071 623.973,-706.858 634,-704 717.984,-680.064 816.107,-659.169 881.971,-646.143"/>
<text text-anchor="middle" x="873.914" y="-649.565" font-family="Times New Roman,serif" font-size="10.00">storyboard</text>
</g>
<!-- s4 -->
<g id="node7" class="node"><title>s4</title>
<a xlink:href="../../SDMLib/src/java/net/Socket.java" xlink:title="&lt;TABLE&gt;">
<polygon fill="none" stroke="black" points="363,-536 363,-553 471,-553 471,-536 363,-536"/>
<text text-anchor="start" x="395" y="-542.5" font-family="Times New Roman,serif" font-size="10.00"> </text>
<text text-anchor="start" x="398" y="-542.5" font-family="Times New Roman,serif" font-size="10.00">s4 :Socket</text>
</a>
<polygon fill="none" stroke="black" points="363,-376 363,-536 471,-536 471,-376 363,-376"/>
<text text-anchor="start" x="368" y="-524" font-family="Times New Roman,serif" font-size="10.00">port = 11144</text>
<text text-anchor="start" x="368" y="-510" font-family="Times New Roman,serif" font-size="10.00">keepAlive = &quot;false&quot;</text>
<text text-anchor="start" x="368" y="-496" font-family="Times New Roman,serif" font-size="10.00">localPort = 56908</text>
<text text-anchor="start" x="368" y="-482" font-family="Times New Roman,serif" font-size="10.00">oOBInline = &quot;false&quot;</text>
<text text-anchor="start" x="368" y="-468" font-family="Times New Roman,serif" font-size="10.00">soLinger = &#45;1</text>
<text text-anchor="start" x="368" y="-454" font-family="Times New Roman,serif" font-size="10.00">soTimeout = 0</text>
<text text-anchor="start" x="368" y="-440" font-family="Times New Roman,serif" font-size="10.00">receiveBufferSize = 8192</text>
<text text-anchor="start" x="368" y="-426" font-family="Times New Roman,serif" font-size="10.00">reuseAddress = &quot;false&quot;</text>
<text text-anchor="start" x="368" y="-412" font-family="Times New Roman,serif" font-size="10.00">sendBufferSize = 8192</text>
<text text-anchor="start" x="368" y="-398" font-family="Times New Roman,serif" font-size="10.00">tcpNoDelay = &quot;false&quot;</text>
<text text-anchor="start" x="368" y="-384" font-family="Times New Roman,serif" font-size="10.00">trafficClass = 0</text>
</g>
<!-- r3&#45;&#45;s4 -->
<g id="edge14" class="edge"><title>r3&#45;&#45;s4</title>
<path fill="none" stroke="black" d="M459.059,-612.759C455.147,-599.107 449.35,-578.881 443.302,-557.778"/>
<text text-anchor="middle" x="449.862" y="-562.826" font-family="Times New Roman,serif" font-size="10.00">socket</text>
</g>
<!-- r3&#45;&#45;s14 -->
<g id="edge16" class="edge"><title>r3&#45;&#45;s14</title>
<path fill="none" stroke="black" d="M473.146,-612.759C487.063,-586.525 513.86,-536.011 532.085,-501.656"/>
<text text-anchor="middle" x="531.571" y="-509.143" font-family="Times New Roman,serif" font-size="10.00">sharedSpace</text>
<text text-anchor="middle" x="473.66" y="-600.272" font-family="Times New Roman,serif" font-size="10.00">channels</text>
</g>
<!-- s5 -->
<g id="node8" class="node"><title>s5</title>
<a xlink:href="../../SDMLib/src/java/net/SocketInputStream.java" xlink:title="&lt;TABLE&gt;">
<polygon fill="none" stroke="black" points="139,-290 139,-307 239,-307 239,-290 139,-290"/>
<text text-anchor="start" x="142.5" y="-296.5" font-family="Times New Roman,serif" font-size="10.00"> </text>
<text text-anchor="start" x="145.5" y="-296.5" font-family="Times New Roman,serif" font-size="10.00">s5 :SocketInputStream</text>
</a>
</g>
<!-- s4&#45;&#45;s5 -->
<g id="edge18" class="edge"><title>s4&#45;&#45;s5</title>
<path fill="none" stroke="black" d="M354.999,-419.403C308.055,-385.636 246.139,-341.1 212.766,-317.095"/>
<text text-anchor="middle" x="222.592" y="-316.457" font-family="Times New Roman,serif" font-size="10.00">inputStream</text>
</g>
<!-- s7 -->
<g id="node10" class="node"><title>s7</title>
<a xlink:href="../../SDMLib/src/java/net/SocketOutputStream.java" xlink:title="&lt;TABLE&gt;">
<polygon fill="none" stroke="black" points="274,-290 274,-307 381,-307 381,-290 274,-290"/>
<text text-anchor="start" x="277.5" y="-296.5" font-family="Times New Roman,serif" font-size="10.00"> </text>
<text text-anchor="start" x="280.5" y="-296.5" font-family="Times New Roman,serif" font-size="10.00">s7 :SocketOutputStream</text>
</a>
</g>
<!-- s4&#45;&#45;s7 -->
<g id="edge20" class="edge"><title>s4&#45;&#45;s7</title>
<path fill="none" stroke="black" d="M366.737,-372.41C355.06,-351.132 343.863,-330.728 336.348,-317.034"/>
<text text-anchor="middle" x="344.413" y="-320.446" font-family="Times New Roman,serif" font-size="10.00">outputStream</text>
</g>
<!-- i8 -->
<g id="node11" class="node"><title>i8</title>
<a xlink:href="../../SDMLib/src/java/net/Inet4Address.java" xlink:title="&lt;TABLE&gt;">
<polygon fill="none" stroke="black" points="389,-183 389,-200 533,-200 533,-183 389,-183"/>
<text text-anchor="start" x="426" y="-189.5" font-family="Times New Roman,serif" font-size="10.00"> </text>
<text text-anchor="start" x="429" y="-189.5" font-family="Times New Roman,serif" font-size="10.00">i8 :Inet4Address</text>
</a>
<polygon fill="none" stroke="black" points="389,-135 389,-183 533,-183 533,-135 389,-135"/>
<text text-anchor="start" x="394" y="-171" font-family="Times New Roman,serif" font-size="10.00">hostAddress = &quot;127.0.0.1&quot;</text>
<text text-anchor="start" x="394" y="-157" font-family="Times New Roman,serif" font-size="10.00">hostName = &quot;localhost&quot;</text>
<text text-anchor="start" x="394" y="-143" font-family="Times New Roman,serif" font-size="10.00">canonicalHostName = &quot;127.0.0.1&quot;</text>
</g>
<!-- s4&#45;&#45;i8 -->
<g id="edge22" class="edge"><title>s4&#45;&#45;i8</title>
<path fill="none" stroke="black" d="M422.336,-372.301C425.216,-337.573 429.553,-297.793 436,-262 439.438,-242.913 444.893,-222.029 449.832,-204.895"/>
<text text-anchor="middle" x="451.413" y="-212.269" font-family="Times New Roman,serif" font-size="10.00">inetAddress_localAddress</text>
</g>
<!-- i12 -->
<g id="node15" class="node"><title>i12</title>
<a xlink:href="../../SDMLib/src/java/net/InetSocketAddress.java" xlink:title="&lt;TABLE&gt;">
<polygon fill="none" stroke="black" points="453,-314 453,-331 559,-331 559,-314 453,-314"/>
<text text-anchor="start" x="457.5" y="-320.5" font-family="Times New Roman,serif" font-size="10.00"> </text>
<text text-anchor="start" x="460.5" y="-320.5" font-family="Times New Roman,serif" font-size="10.00">i12 :InetSocketAddress</text>
</a>
<polygon fill="none" stroke="black" points="453,-266 453,-314 559,-314 559,-266 453,-266"/>
<text text-anchor="start" x="458" y="-302" font-family="Times New Roman,serif" font-size="10.00">hostName = &quot;127.0.0.1&quot;</text>
<text text-anchor="start" x="458" y="-288" font-family="Times New Roman,serif" font-size="10.00">port = 56908</text>
<text text-anchor="start" x="458" y="-274" font-family="Times New Roman,serif" font-size="10.00">hostString = &quot;127.0.0.1&quot;</text>
</g>
<!-- s4&#45;&#45;i12 -->
<g id="edge24" class="edge"><title>s4&#45;&#45;i12</title>
<path fill="none" stroke="black" d="M466.704,-372.41C473.792,-359.35 480.701,-346.619 486.699,-335.567"/>
<text text-anchor="middle" x="486.09" y="-343.048" font-family="Times New Roman,serif" font-size="10.00">localSocketAddress</text>
</g>
<!-- i13 -->
<g id="node16" class="node"><title>i13</title>
<a xlink:href="../../SDMLib/src/java/net/InetSocketAddress.java" xlink:title="&lt;TABLE&gt;">
<polygon fill="none" stroke="black" points="594,-314 594,-331 703,-331 703,-314 594,-314"/>
<text text-anchor="start" x="600" y="-320.5" font-family="Times New Roman,serif" font-size="10.00"> </text>
<text text-anchor="start" x="603" y="-320.5" font-family="Times New Roman,serif" font-size="10.00">i13 :InetSocketAddress</text>
</a>
<polygon fill="none" stroke="black" points="594,-266 594,-314 703,-314 703,-266 594,-266"/>
<text text-anchor="start" x="599" y="-302" font-family="Times New Roman,serif" font-size="10.00">hostName = &quot;localhost&quot;</text>
<text text-anchor="start" x="599" y="-288" font-family="Times New Roman,serif" font-size="10.00">port = 11144</text>
<text text-anchor="start" x="599" y="-274" font-family="Times New Roman,serif" font-size="10.00">hostString = &quot;localhost&quot;</text>
</g>
<!-- s4&#45;&#45;i13 -->
<g id="edge26" class="edge"><title>s4&#45;&#45;i13</title>
<path fill="none" stroke="black" d="M479.044,-379.417C481.963,-376.807 484.95,-374.323 488,-372 521.617,-346.395 537.519,-353.461 576,-336 579.182,-334.556 582.428,-333.051 585.697,-331.511"/>
<text text-anchor="middle" x="579.296" y="-336.693" font-family="Times New Roman,serif" font-size="10.00">remoteSocketAddress</text>
</g>
<!-- f6 -->
<g id="node9" class="node"><title>f6</title>
<a xlink:href="../../SDMLib/src/java/io/FileDescriptor.java" xlink:title="&lt;TABLE&gt;">
<polygon fill="none" stroke="black" points="235,-159 235,-176 314,-176 314,-159 235,-159"/>
<text text-anchor="start" x="238.5" y="-165.5" font-family="Times New Roman,serif" font-size="10.00"> </text>
<text text-anchor="start" x="241.5" y="-165.5" font-family="Times New Roman,serif" font-size="10.00">f6 :FileDescriptor</text>
</a>
</g>
<!-- s5&#45;&#45;f6 -->
<g id="edge28" class="edge"><title>s5&#45;&#45;f6</title>
<path fill="none" stroke="black" d="M200.287,-280.87C216.545,-256.197 246.383,-210.913 262.666,-186.201"/>
<text text-anchor="middle" x="261.208" y="-193.594" font-family="Times New Roman,serif" font-size="10.00">fD</text>
</g>
<!-- s7&#45;&#45;f6 -->
<g id="edge30" class="edge"><title>s7&#45;&#45;f6</title>
<path fill="none" stroke="black" d="M319.962,-280.87C309.825,-256.197 291.22,-210.913 281.067,-186.201"/>
<text text-anchor="middle" x="288.42" y="-190.478" font-family="Times New Roman,serif" font-size="10.00">fD</text>
</g>
<!-- i8&#45;&#45;i8 -->
<g id="edge35" class="edge"><title>i8&#45;&#45;i8</title>
<path fill="none" stroke="black" d="M541.36,-189.495C551.966,-185.829 559,-178.664 559,-168 559,-157.336 551.966,-150.171 541.36,-146.505"/>
<text text-anchor="middle" x="551.34" y="-143.38" font-family="Times New Roman,serif" font-size="10.00">loopbackAddress</text>
</g>
<!-- i10 -->
<g id="node13" class="node"><title>i10</title>
<a xlink:href="../../SDMLib/src/java/net/Inet4Address.java" xlink:title="&lt;TABLE&gt;">
<polygon fill="none" stroke="black" points="380,-52 380,-69 542,-69 542,-52 380,-52"/>
<text text-anchor="start" x="424" y="-58.5" font-family="Times New Roman,serif" font-size="10.00"> </text>
<text text-anchor="start" x="427" y="-58.5" font-family="Times New Roman,serif" font-size="10.00">i10 :Inet4Address</text>
</a>
<polygon fill="none" stroke="black" points="380,-4 380,-52 542,-52 542,-4 380,-4"/>
<text text-anchor="start" x="385" y="-40" font-family="Times New Roman,serif" font-size="10.00">hostAddress = &quot;192.168.2.100&quot;</text>
<text text-anchor="start" x="385" y="-26" font-family="Times New Roman,serif" font-size="10.00">hostName = &quot;zuendorf&#45;laptop&quot;</text>
<text text-anchor="start" x="385" y="-12" font-family="Times New Roman,serif" font-size="10.00">canonicalHostName = &quot;192.168.2.100&quot;</text>
</g>
<!-- i8&#45;&#45;i10 -->
<g id="edge33" class="edge"><title>i8&#45;&#45;i10</title>
<path fill="none" stroke="black" d="M461,-131.409C461,-113.51 461,-91.8673 461,-73.923"/>
<text text-anchor="middle" x="465.226" y="-80.4861" font-family="Times New Roman,serif" font-size="10.00">localHost</text>
<text text-anchor="middle" x="456.774" y="-119.846" font-family="Times New Roman,serif" font-size="10.00">loopbackAddress</text>
</g>
<!-- 9 -->
<g id="node12" class="node"><title>9</title>
<a xlink:href="../../SDMLib/src/[B.java" xlink:title="&lt;TABLE&gt;">
<polygon fill="none" stroke="black" points="654,-740 654,-757 686,-757 686,-740 654,-740"/>
<text text-anchor="start" x="657.5" y="-746.5" font-family="Times New Roman,serif" font-size="10.00"> </text>
<text text-anchor="start" x="660.5" y="-746.5" font-family="Times New Roman,serif" font-size="10.00">[9 :[B</text>
</a>
</g>
<!-- i10&#45;&#45;i10 -->
<g id="edge38" class="edge"><title>i10&#45;&#45;i10</title>
<path fill="none" stroke="black" d="M550.367,-57.9473C561.034,-54.1387 568,-47.1563 568,-37 568,-26.8438 561.034,-19.8613 550.367,-16.0527"/>
<text text-anchor="middle" x="560.352" y="-13.0045" font-family="Times New Roman,serif" font-size="10.00">localHost</text>
</g>
<!-- 11 -->
<g id="node14" class="node"><title>11</title>
<a xlink:href="../../SDMLib/src/[B.java" xlink:title="&lt;TABLE&gt;">
<polygon fill="none" stroke="black" points="724,-740 724,-757 760,-757 760,-740 724,-740"/>
<text text-anchor="start" x="727.5" y="-746.5" font-family="Times New Roman,serif" font-size="10.00"> </text>
<text text-anchor="start" x="730.5" y="-746.5" font-family="Times New Roman,serif" font-size="10.00">[11 :[B</text>
</a>
</g>
<!-- i12&#45;&#45;i8 -->
<g id="edge40" class="edge"><title>i12&#45;&#45;i8</title>
<path fill="none" stroke="black" d="M493.584,-262.409C487.341,-244.51 479.791,-222.867 473.531,-204.923"/>
<text text-anchor="middle" x="480.507" y="-209.588" font-family="Times New Roman,serif" font-size="10.00">address</text>
</g>
<!-- i13&#45;&#45;i8 -->
<g id="edge42" class="edge"><title>i13&#45;&#45;i8</title>
<path fill="none" stroke="black" d="M596.406,-262.409C570.353,-244.436 538.825,-222.687 512.75,-204.699"/>
<text text-anchor="middle" x="522.609" y="-203.866" font-family="Times New Roman,serif" font-size="10.00">address</text>
</g>
<!-- c15 -->
<g id="node18" class="node"><title>c15</title>
<a xlink:href="../../SDMLib/src/org/sdmlib/replication/ChangeHistory.java" xlink:title="&lt;TABLE&gt;">
<polygon fill="none" stroke="black" points="1544,-290 1544,-307 1633,-307 1633,-290 1544,-290"/>
<text text-anchor="start" x="1547.5" y="-296.5" font-family="Times New Roman,serif" font-size="10.00"> </text>
<text text-anchor="start" x="1550.5" y="-296.5" font-family="Times New Roman,serif" font-size="10.00">c15 :ChangeHistory</text>
</a>
</g>
<!-- s14&#45;&#45;c15 -->
<g id="edge44" class="edge"><title>s14&#45;&#45;c15</title>
<path fill="none" stroke="black" d="M565.909,-428.198C576.281,-408.078 592.187,-384.55 614,-372 694.145,-325.891 1344.83,-306.085 1535.61,-301.234"/>
<text text-anchor="middle" x="1526.67" y="-303.206" font-family="Times New Roman,serif" font-size="10.00">history</text>
</g>
<!-- r16 -->
<g id="node19" class="node"><title>r16</title>
<a xlink:href="../../SDMLib/src/org/sdmlib/replication/ReplicationChange.java" xlink:title="&lt;TABLE&gt;">
<polygon fill="none" stroke="black" points="585,-204 585,-221 1003,-221 1003,-204 585,-204"/>
<text text-anchor="start" x="746" y="-210.5" font-family="Times New Roman,serif" font-size="10.00"> </text>
<text text-anchor="start" x="749" y="-210.5" font-family="Times New Roman,serif" font-size="10.00">r16 :ReplicationChange</text>
</a>
<polygon fill="none" stroke="black" points="585,-114 585,-204 1003,-204 1003,-114 585,-114"/>
<text text-anchor="start" x="590" y="-192" font-family="Times New Roman,serif" font-size="10.00">historyIdPrefix = &quot;Theo&quot;</text>
<text text-anchor="start" x="590" y="-178" font-family="Times New Roman,serif" font-size="10.00">historyIdNumber = 14</text>
<text text-anchor="start" x="590" y="-164" font-family="Times New Roman,serif" font-size="10.00">targetObjectId = &quot;game42storyboard&quot;</text>
<text text-anchor="start" x="590" y="-150" font-family="Times New Roman,serif" font-size="10.00">targetProperty = &quot;wall&quot;</text>
<text text-anchor="start" x="590" y="-136" font-family="Times New Roman,serif" font-size="10.00">isToManyProperty = &quot;false&quot;</text>
<text text-anchor="start" x="590" y="-122" font-family="Times New Roman,serif" font-size="10.00">changeMsg = &quot;{ &#160;&#160;&quot;id&quot;:&quot;game42storyboard&quot;, &#160;&#160;&quot;upd&quot;:{ &#160;&#160;&#160;&#160;&#160;&quot;wall&quot;:{&quot;id&quot;:&quot;game42storyboardWall&quot;} &#160;&#160;}}&quot;</text>
</g>
<!-- c15&#45;&#45;r16 -->
<g id="edge46" class="edge"><title>c15&#45;&#45;r16</title>
<path fill="none" stroke="black" d="M1535.69,-293.469C1435.31,-284.31 1208.96,-261.4 1021,-226 1017.71,-225.38 1014.39,-224.74 1011.05,-224.083"/>
<text text-anchor="middle" x="1020.76" y="-219.184" font-family="Times New Roman,serif" font-size="10.00">changes</text>
</g>
<!-- r18 -->
<g id="node21" class="node"><title>r18</title>
<a xlink:href="../../SDMLib/src/org/sdmlib/replication/ReplicationChange.java" xlink:title="&lt;TABLE&gt;">
<polygon fill="none" stroke="black" points="1038,-204 1038,-221 1485,-221 1485,-204 1038,-204"/>
<text text-anchor="start" x="1213.5" y="-210.5" font-family="Times New Roman,serif" font-size="10.00"> </text>
<text text-anchor="start" x="1216.5" y="-210.5" font-family="Times New Roman,serif" font-size="10.00">r18 :ReplicationChange</text>
</a>
<polygon fill="none" stroke="black" points="1038,-114 1038,-204 1485,-204 1485,-114 1038,-114"/>
<text text-anchor="start" x="1043" y="-192" font-family="Times New Roman,serif" font-size="10.00">historyIdPrefix = &quot;Theo&quot;</text>
<text text-anchor="start" x="1043" y="-178" font-family="Times New Roman,serif" font-size="10.00">historyIdNumber = 15</text>
<text text-anchor="start" x="1043" y="-164" font-family="Times New Roman,serif" font-size="10.00">targetObjectId = &quot;game42storyboardWall&quot;</text>
<text text-anchor="start" x="1043" y="-150" font-family="Times New Roman,serif" font-size="10.00">targetProperty = &quot;storyboard&quot;</text>
<text text-anchor="start" x="1043" y="-136" font-family="Times New Roman,serif" font-size="10.00">isToManyProperty = &quot;false&quot;</text>
<text text-anchor="start" x="1043" y="-122" font-family="Times New Roman,serif" font-size="10.00">changeMsg = &quot;{ &#160;&#160;&quot;id&quot;:&quot;game42storyboardWall&quot;, &#160;&#160;&quot;upd&quot;:{ &#160;&#160;&#160;&#160;&#160;&quot;storyboard&quot;:{&quot;id&quot;:&quot;game42storyboard&quot;} &#160;&#160;}}&quot;</text>
</g>
<!-- c15&#45;&#45;r18 -->
<g id="edge48" class="edge"><title>c15&#45;&#45;r18</title>
<path fill="none" stroke="black" d="M1544.58,-280.87C1508.53,-266.649 1455.12,-245.58 1404.35,-225.55"/>
<text text-anchor="middle" x="1414.33" y="-222.445" font-family="Times New Roman,serif" font-size="10.00">changes</text>
</g>
<!-- r20 -->
<g id="node23" class="node"><title>r20</title>
<a xlink:href="../../SDMLib/src/org/sdmlib/replication/ReplicationChange.java" xlink:title="&lt;TABLE&gt;">
<polygon fill="none" stroke="black" points="1519,-204 1519,-221 2311,-221 2311,-204 1519,-204"/>
<text text-anchor="start" x="1867" y="-210.5" font-family="Times New Roman,serif" font-size="10.00"> </text>
<text text-anchor="start" x="1870" y="-210.5" font-family="Times New Roman,serif" font-size="10.00">r20 :ReplicationChange</text>
</a>
<polygon fill="none" stroke="black" points="1519,-114 1519,-204 2311,-204 2311,-114 1519,-114"/>
<text text-anchor="start" x="1524" y="-192" font-family="Times New Roman,serif" font-size="10.00">historyIdPrefix = &quot;Theo&quot;</text>
<text text-anchor="start" x="1524" y="-178" font-family="Times New Roman,serif" font-size="10.00">historyIdNumber = 16</text>
<text text-anchor="start" x="1524" y="-164" font-family="Times New Roman,serif" font-size="10.00">targetObjectId = &quot;game42taskBoard&quot;</text>
<text text-anchor="start" x="1524" y="-150" font-family="Times New Roman,serif" font-size="10.00">targetProperty = &quot;lanes&quot;</text>
<text text-anchor="start" x="1524" y="-136" font-family="Times New Roman,serif" font-size="10.00">isToManyProperty = &quot;true&quot;</text>
<text text-anchor="start" x="1524" y="-122" font-family="Times New Roman,serif" font-size="10.00">changeMsg = &quot;{ &#160;&#160;&quot;id&quot;:&quot;game42taskBoard&quot;, &#160;&#160;&quot;upd&quot;:{ &#160;&#160;&#160;&#160;&#160;&quot;lanes&quot;:{ &#160;&#160;&#160;&#160;&#160;&#160;&#160;&#160;&quot;id&quot;:&quot;L1&quot;, &#160;&#160;&#160;&#160;&#160;&#160;&#160;&#160;&quot;class&quot;:&quot;org.sdmlib.replication.Lane&quot;, &#160;&#160;&#160;&#160;&#160;&#160;&#160;&#160;&quot;prop&quot;:{ &#160;&#160;&#160;&#160;&#160;&#160;&#160;&#160;&#160;&#160;&#160;&quot;board&quot;:{&quot;id&quot;:&quot;game42taskBoard&quot;} &#160;&#160;&#160;&#160;&#160;&#160;&#160;&#160;} &#160;&#160;&#160;&#160;&#160;} &#160;&#160;}}&quot;</text>
</g>
<!-- c15&#45;&#45;r20 -->
<g id="edge50" class="edge"><title>c15&#45;&#45;r20</title>
<path fill="none" stroke="black" d="M1631.42,-280.87C1667.47,-266.649 1720.88,-245.58 1771.65,-225.55"/>
<text text-anchor="middle" x="1764.77" y="-230.307" font-family="Times New Roman,serif" font-size="10.00">changes</text>
</g>
<!-- r22 -->
<g id="node25" class="node"><title>r22</title>
<a xlink:href="../../SDMLib/src/org/sdmlib/replication/ReplicationChange.java" xlink:title="&lt;TABLE&gt;">
<polygon fill="none" stroke="black" points="2346,-204 2346,-221 2647,-221 2647,-204 2346,-204"/>
<text text-anchor="start" x="2448.5" y="-210.5" font-family="Times New Roman,serif" font-size="10.00"> </text>
<text text-anchor="start" x="2451.5" y="-210.5" font-family="Times New Roman,serif" font-size="10.00">r22 :ReplicationChange</text>
</a>
<polygon fill="none" stroke="black" points="2346,-114 2346,-204 2647,-204 2647,-114 2346,-114"/>
<text text-anchor="start" x="2351" y="-192" font-family="Times New Roman,serif" font-size="10.00">historyIdPrefix = &quot;Theo&quot;</text>
<text text-anchor="start" x="2351" y="-178" font-family="Times New Roman,serif" font-size="10.00">historyIdNumber = 17</text>
<text text-anchor="start" x="2351" y="-164" font-family="Times New Roman,serif" font-size="10.00">targetObjectId = &quot;L1&quot;</text>
<text text-anchor="start" x="2351" y="-150" font-family="Times New Roman,serif" font-size="10.00">targetProperty = &quot;name&quot;</text>
<text text-anchor="start" x="2351" y="-136" font-family="Times New Roman,serif" font-size="10.00">isToManyProperty = &quot;false&quot;</text>
<text text-anchor="start" x="2351" y="-122" font-family="Times New Roman,serif" font-size="10.00">changeMsg = &quot;{ &#160;&#160;&quot;id&quot;:&quot;L1&quot;, &#160;&#160;&quot;upd&quot;:{&quot;name&quot;:&quot;play7WorkFlowLane&quot;}}&quot;</text>
</g>
<!-- c15&#45;&#45;r22 -->
<g id="edge52" class="edge"><title>c15&#45;&#45;r22</title>
<path fill="none" stroke="black" d="M1640.67,-297.019C1762.83,-293.848 2074.36,-280.603 2328,-226 2331.16,-225.319 2334.35,-224.599 2337.55,-223.842"/>
<text text-anchor="middle" x="2329.69" y="-227.532" font-family="Times New Roman,serif" font-size="10.00">changes</text>
</g>
<!-- r24 -->
<g id="node27" class="node"><title>r24</title>
<a xlink:href="../../SDMLib/src/org/sdmlib/replication/ReplicationChange.java" xlink:title="&lt;TABLE&gt;">
<polygon fill="none" stroke="black" points="2681,-204 2681,-221 3485,-221 3485,-204 2681,-204"/>
<text text-anchor="start" x="3035" y="-210.5" font-family="Times New Roman,serif" font-size="10.00"> </text>
<text text-anchor="start" x="3038" y="-210.5" font-family="Times New Roman,serif" font-size="10.00">r24 :ReplicationChange</text>
</a>
<polygon fill="none" stroke="black" points="2681,-114 2681,-204 3485,-204 3485,-114 2681,-114"/>
<text text-anchor="start" x="2686" y="-192" font-family="Times New Roman,serif" font-size="10.00">historyIdPrefix = &quot;Theo&quot;</text>
<text text-anchor="start" x="2686" y="-178" font-family="Times New Roman,serif" font-size="10.00">historyIdNumber = 18</text>
<text text-anchor="start" x="2686" y="-164" font-family="Times New Roman,serif" font-size="10.00">targetObjectId = &quot;L1&quot;</text>
<text text-anchor="start" x="2686" y="-150" font-family="Times New Roman,serif" font-size="10.00">targetProperty = &quot;tasks&quot;</text>
<text text-anchor="start" x="2686" y="-136" font-family="Times New Roman,serif" font-size="10.00">isToManyProperty = &quot;true&quot;</text>
<text text-anchor="start" x="2686" y="-122" font-family="Times New Roman,serif" font-size="10.00">changeMsg = &quot;{ &#160;&#160;&quot;id&quot;:&quot;L1&quot;, &#160;&#160;&quot;upd&quot;:{ &#160;&#160;&#160;&#160;&#160;&quot;tasks&quot;:{ &#160;&#160;&#160;&#160;&#160;&#160;&#160;&#160;&quot;id&quot;:&quot;B2&quot;, &#160;&#160;&#160;&#160;&#160;&#160;&#160;&#160;&quot;class&quot;:&quot;org.sdmlib.replication.BoardTask&quot;, &#160;&#160;&#160;&#160;&#160;&#160;&#160;&#160;&quot;prop&quot;:{ &#160;&#160;&#160;&#160;&#160;&#160;&#160;&#160;&#160;&#160;&#160;&quot;name&quot;:&quot;startClients&quot;, &#160;&#160;&#160;&#160;&#160;&#160;&#160;&#160;&#160;&#160;&#160;&quot;lane&quot;:{&quot;id&quot;:&quot;L1&quot;} &#160;&#160;&#160;&#160;&#160;&#160;&#160;&#160;} &#160;&#160;&#160;&#160;&#160;} &#160;&#160;}}&quot;</text>
</g>
<!-- c15&#45;&#45;r24 -->
<g id="edge54" class="edge"><title>c15&#45;&#45;r24</title>
<path fill="none" stroke="black" d="M1640.4,-295.756C1796.36,-288.804 2271.03,-265.678 2663,-226 2666.29,-225.667 2669.6,-225.327 2672.92,-224.982"/>
<text text-anchor="middle" x="2664.35" y="-227.621" font-family="Times New Roman,serif" font-size="10.00">changes</text>
</g>
<!-- l17 -->
<g id="node20" class="node"><title>l17</title>
<a xlink:href="../../SDMLib/src/org/sdmlib/replication/LogEntry.java" xlink:title="&lt;TABLE&gt;">
<polygon fill="none" stroke="black" points="722,-52 722,-69 866,-69 866,-52 722,-52"/>
<text text-anchor="start" x="765.5" y="-58.5" font-family="Times New Roman,serif" font-size="10.00"> </text>
<text text-anchor="start" x="768.5" y="-58.5" font-family="Times New Roman,serif" font-size="10.00">l17 :LogEntry</text>
</a>
<polygon fill="none" stroke="black" points="722,-4 722,-52 866,-52 866,-4 722,-4"/>
<text text-anchor="start" x="727" y="-40" font-family="Times New Roman,serif" font-size="10.00">stepName = &quot;change recorded&quot;</text>
<text text-anchor="start" x="727" y="-26" font-family="Times New Roman,serif" font-size="10.00">executedBy = &quot;GameSpaceTheo&quot;</text>
<text text-anchor="start" x="727" y="-12" font-family="Times New Roman,serif" font-size="10.00">timeStamp = 1382892618238</text>
</g>
<!-- r16&#45;&#45;l17 -->
<g id="edge56" class="edge"><title>r16&#45;&#45;l17</title>
<path fill="none" stroke="black" d="M794,-110.419C794,-97.9625 794,-85.1063 794,-73.7463"/>
<text text-anchor="middle" x="798.226" y="-80.3094" font-family="Times New Roman,serif" font-size="10.00">logEntries</text>
<text text-anchor="middle" x="789.774" y="-98.8556" font-family="Times New Roman,serif" font-size="10.00">task</text>
</g>
<!-- l19 -->
<g id="node22" class="node"><title>l19</title>
<a xlink:href="../../SDMLib/src/org/sdmlib/replication/LogEntry.java" xlink:title="&lt;TABLE&gt;">
<polygon fill="none" stroke="black" points="1189,-52 1189,-69 1333,-69 1333,-52 1189,-52"/>
<text text-anchor="start" x="1232.5" y="-58.5" font-family="Times New Roman,serif" font-size="10.00"> </text>
<text text-anchor="start" x="1235.5" y="-58.5" font-family="Times New Roman,serif" font-size="10.00">l19 :LogEntry</text>
</a>
<polygon fill="none" stroke="black" points="1189,-4 1189,-52 1333,-52 1333,-4 1189,-4"/>
<text text-anchor="start" x="1194" y="-40" font-family="Times New Roman,serif" font-size="10.00">stepName = &quot;change recorded&quot;</text>
<text text-anchor="start" x="1194" y="-26" font-family="Times New Roman,serif" font-size="10.00">executedBy = &quot;GameSpaceTheo&quot;</text>
<text text-anchor="start" x="1194" y="-12" font-family="Times New Roman,serif" font-size="10.00">timeStamp = 1382892618241</text>
</g>
<!-- r18&#45;&#45;l19 -->
<g id="edge58" class="edge"><title>r18&#45;&#45;l19</title>
<path fill="none" stroke="black" d="M1261,-110.419C1261,-97.9625 1261,-85.1063 1261,-73.7463"/>
<text text-anchor="middle" x="1265.23" y="-80.3094" font-family="Times New Roman,serif" font-size="10.00">logEntries</text>
<text text-anchor="middle" x="1256.77" y="-98.8556" font-family="Times New Roman,serif" font-size="10.00">task</text>
</g>
<!-- l21 -->
<g id="node24" class="node"><title>l21</title>
<a xlink:href="../../SDMLib/src/org/sdmlib/replication/LogEntry.java" xlink:title="&lt;TABLE&gt;">
<polygon fill="none" stroke="black" points="1843,-52 1843,-69 1987,-69 1987,-52 1843,-52"/>
<text text-anchor="start" x="1886.5" y="-58.5" font-family="Times New Roman,serif" font-size="10.00"> </text>
<text text-anchor="start" x="1889.5" y="-58.5" font-family="Times New Roman,serif" font-size="10.00">l21 :LogEntry</text>
</a>
<polygon fill="none" stroke="black" points="1843,-4 1843,-52 1987,-52 1987,-4 1843,-4"/>
<text text-anchor="start" x="1848" y="-40" font-family="Times New Roman,serif" font-size="10.00">stepName = &quot;change recorded&quot;</text>
<text text-anchor="start" x="1848" y="-26" font-family="Times New Roman,serif" font-size="10.00">executedBy = &quot;GameSpaceTheo&quot;</text>
<text text-anchor="start" x="1848" y="-12" font-family="Times New Roman,serif" font-size="10.00">timeStamp = 1382892618301</text>
</g>
<!-- r20&#45;&#45;l21 -->
<g id="edge60" class="edge"><title>r20&#45;&#45;l21</title>
<path fill="none" stroke="black" d="M1915,-110.419C1915,-97.9625 1915,-85.1063 1915,-73.7463"/>
<text text-anchor="middle" x="1919.23" y="-80.3094" font-family="Times New Roman,serif" font-size="10.00">logEntries</text>
<text text-anchor="middle" x="1910.77" y="-98.8556" font-family="Times New Roman,serif" font-size="10.00">task</text>
</g>
<!-- l23 -->
<g id="node26" class="node"><title>l23</title>
<a xlink:href="../../SDMLib/src/org/sdmlib/replication/LogEntry.java" xlink:title="&lt;TABLE&gt;">
<polygon fill="none" stroke="black" points="2424,-52 2424,-69 2568,-69 2568,-52 2424,-52"/>
<text text-anchor="start" x="2467.5" y="-58.5" font-family="Times New Roman,serif" font-size="10.00"> </text>
<text text-anchor="start" x="2470.5" y="-58.5" font-family="Times New Roman,serif" font-size="10.00">l23 :LogEntry</text>
</a>
<polygon fill="none" stroke="black" points="2424,-4 2424,-52 2568,-52 2568,-4 2424,-4"/>
<text text-anchor="start" x="2429" y="-40" font-family="Times New Roman,serif" font-size="10.00">stepName = &quot;change recorded&quot;</text>
<text text-anchor="start" x="2429" y="-26" font-family="Times New Roman,serif" font-size="10.00">executedBy = &quot;GameSpaceTheo&quot;</text>
<text text-anchor="start" x="2429" y="-12" font-family="Times New Roman,serif" font-size="10.00">timeStamp = 1382892618303</text>
</g>
<!-- r22&#45;&#45;l23 -->
<g id="edge62" class="edge"><title>r22&#45;&#45;l23</title>
<path fill="none" stroke="black" d="M2496,-110.419C2496,-97.9625 2496,-85.1063 2496,-73.7463"/>
<text text-anchor="middle" x="2500.23" y="-80.3094" font-family="Times New Roman,serif" font-size="10.00">logEntries</text>
<text text-anchor="middle" x="2491.77" y="-98.8556" font-family="Times New Roman,serif" font-size="10.00">task</text>
</g>
<!-- l25 -->
<g id="node28" class="node"><title>l25</title>
<a xlink:href="../../SDMLib/src/org/sdmlib/replication/LogEntry.java" xlink:title="&lt;TABLE&gt;">
<polygon fill="none" stroke="black" points="3011,-52 3011,-69 3155,-69 3155,-52 3011,-52"/>
<text text-anchor="start" x="3054.5" y="-58.5" font-family="Times New Roman,serif" font-size="10.00"> </text>
<text text-anchor="start" x="3057.5" y="-58.5" font-family="Times New Roman,serif" font-size="10.00">l25 :LogEntry</text>
</a>
<polygon fill="none" stroke="black" points="3011,-4 3011,-52 3155,-52 3155,-4 3011,-4"/>
<text text-anchor="start" x="3016" y="-40" font-family="Times New Roman,serif" font-size="10.00">stepName = &quot;change recorded&quot;</text>
<text text-anchor="start" x="3016" y="-26" font-family="Times New Roman,serif" font-size="10.00">executedBy = &quot;GameSpaceTheo&quot;</text>
<text text-anchor="start" x="3016" y="-12" font-family="Times New Roman,serif" font-size="10.00">timeStamp = 1382892618306</text>
</g>
<!-- r24&#45;&#45;l25 -->
<g id="edge64" class="edge"><title>r24&#45;&#45;l25</title>
<path fill="none" stroke="black" d="M3083,-110.419C3083,-97.9625 3083,-85.1063 3083,-73.7463"/>
<text text-anchor="middle" x="3087.23" y="-80.3094" font-family="Times New Roman,serif" font-size="10.00">logEntries</text>
<text text-anchor="middle" x="3078.77" y="-98.8556" font-family="Times New Roman,serif" font-size="10.00">task</text>
</g>
<!-- s26 -->
<g id="node30" class="node"><title>s26</title>
<a xlink:href="../../SDMLib/src/org/sdmlib/storyboards/StoryboardStep.java" xlink:title="&lt;TABLE&gt;">
<polygon fill="none" stroke="black" points="631,-466 631,-483 765,-483 765,-466 631,-466"/>
<text text-anchor="start" x="655.5" y="-472.5" font-family="Times New Roman,serif" font-size="10.00"> </text>
<text text-anchor="start" x="658.5" y="-472.5" font-family="Times New Roman,serif" font-size="10.00">s26 :StoryboardStep</text>
</a>
<polygon fill="none" stroke="black" points="631,-446 631,-466 765,-466 765,-446 631,-446"/>
<text text-anchor="start" x="636" y="-454" font-family="Times New Roman,serif" font-size="10.00">text = &quot;SharedSpaceMauMau&quot;</text>
</g>
<!-- game42storyboard&#45;&#45;s26 -->
<g id="edge66" class="edge"><title>game42storyboard&#45;&#45;s26</title>
<path fill="none" stroke="black" d="M881.856,-606.998C849.769,-595.186 812.906,-578.841 783,-558 754.99,-538.48 729.366,-508.3 713.737,-487.877"/>
<text text-anchor="middle" x="722.639" y="-489.933" font-family="Times New Roman,serif" font-size="10.00">storyboardSteps</text>
<text text-anchor="middle" x="871.885" y="-605.255" font-family="Times New Roman,serif" font-size="10.00">storyboard</text>
</g>
<!-- s27 -->
<g id="node31" class="node"><title>s27</title>
<a xlink:href="../../SDMLib/src/org/sdmlib/storyboards/StoryboardStep.java" xlink:title="&lt;TABLE&gt;">
<polygon fill="none" stroke="black" points="800,-466 800,-483 1115,-483 1115,-466 800,-466"/>
<text text-anchor="start" x="915" y="-472.5" font-family="Times New Roman,serif" font-size="10.00"> </text>
<text text-anchor="start" x="918" y="-472.5" font-family="Times New Roman,serif" font-size="10.00">s27 :StoryboardStep</text>
</a>
<polygon fill="none" stroke="black" points="800,-446 800,-466 1115,-466 1115,-446 800,-446"/>
<text text-anchor="start" x="805" y="-454" font-family="Times New Roman,serif" font-size="10.00">text = &quot;Start: Abu, Karli, and Sabine want to play some replication maumau.&quot;</text>
</g>
<!-- game42storyboard&#45;&#45;s27 -->
<g id="edge68" class="edge"><title>game42storyboard&#45;&#45;s27</title>
<path fill="none" stroke="black" d="M957,-594.414C957,-562.007 957,-515.179 957,-487.937"/>
<text text-anchor="middle" x="961.226" y="-494.5" font-family="Times New Roman,serif" font-size="10.00">storyboardSteps</text>
<text text-anchor="middle" x="952.774" y="-582.851" font-family="Times New Roman,serif" font-size="10.00">storyboard</text>
</g>
<!-- s28 -->
<g id="node32" class="node"><title>s28</title>
<text text-anchor="middle" x="1168" y="-462.5" font-family="Times New Roman,serif" font-size="10.00">s28</text>
</g>
<!-- game42storyboard&#45;&#45;s28 -->
<g id="edge70" class="edge"><title>game42storyboard&#45;&#45;s28</title>
<path fill="none" stroke="black" d="M1032.26,-613.131C1066.09,-602.259 1104.32,-584.949 1131,-558 1151.59,-537.203 1161.15,-503.457 1165.25,-483.131"/>
<text text-anchor="middle" x="1167.47" y="-490.382" font-family="Times New Roman,serif" font-size="10.00">storyboardSteps</text>
<text text-anchor="middle" x="1039.5" y="-603.733" font-family="Times New Roman,serif" font-size="10.00">storyboard</text>
</g>
<!-- s29 -->
<g id="node33" class="node"><title>s29</title>
<a xlink:href="../../SDMLib/src/org/sdmlib/storyboards/StoryboardWall.java" xlink:title="&lt;TABLE&gt;">
<polygon fill="none" stroke="black" points="1221,-456 1221,-473 1313,-473 1313,-456 1221,-456"/>
<text text-anchor="start" x="1224.5" y="-462.5" font-family="Times New Roman,serif" font-size="10.00"> </text>
<text text-anchor="start" x="1227.5" y="-462.5" font-family="Times New Roman,serif" font-size="10.00">s29 :StoryboardWall</text>
</a>
</g>
<!-- game42storyboard&#45;&#45;s29 -->
<g id="edge72" class="edge"><title>game42storyboard&#45;&#45;s29</title>
<path fill="none" stroke="black" d="M1032.27,-621.599C1084.48,-612.718 1153.45,-594.624 1204,-558 1230.81,-538.578 1249.91,-504.054 1259.64,-483.269"/>
<text text-anchor="middle" x="1259.5" y="-490.768" font-family="Times New Roman,serif" font-size="10.00">wall</text>
<text text-anchor="middle" x="1040.43" y="-613.312" font-family="Times New Roman,serif" font-size="10.00">storyboard</text>
</g>
</g>
</svg>
