<?xml version="1.0" encoding="UTF-8" standalone="no"?>
<!DOCTYPE svg PUBLIC "-//W3C//DTD SVG 1.1//EN"
 "http://www.w3.org/Graphics/SVG/1.1/DTD/svg11.dtd">
<!-- Generated by graphviz version 2.28.0 (20110507.0327)
 -->
<!-- Title: ObjectDiagram Pages: 1 -->
<svg width="344pt" height="440pt"
 viewBox="0.00 0.00 344.00 440.00" xmlns="http://www.w3.org/2000/svg" xmlns:xlink="http://www.w3.org/1999/xlink">
<g id="graph1" class="graph" transform="scale(1 1) rotate(0) translate(4 436)">
<title>ObjectDiagram</title>
<polygon fill="white" stroke="white" points="-4,5 -4,-436 341,-436 341,5 -4,5"/>
<!-- sportsRoom -->
<g id="node1" class="node"><title>sportsRoom</title>
<a xlink:href="../emfsrc/org/sdmlib/examples/emfstudyright/EMFStudyRightModel/impl/RoomImpl.java" xlink:title="&lt;TABLE&gt;">
<polygon fill="none" stroke="black" points="173,-410 173,-427 287,-427 287,-410 173,-410"/>
<text text-anchor="start" x="176.5" y="-416.5" font-family="Arial" font-size="10.00"> </text>
<text text-anchor="start" x="180.5" y="-416.5" font-family="Arial" font-size="10.00">sportsRoom :RoomImpl</text>
</a>
<polygon fill="none" stroke="black" points="173,-376 173,-410 287,-410 287,-376 173,-376"/>
<text text-anchor="start" x="178" y="-398" font-family="Arial" font-size="10.00">topic = &quot;sports&quot;</text>
<text text-anchor="start" x="178" y="-384" font-family="Arial" font-size="10.00">credits = 25</text>
</g>
<!-- t934 -->
<g id="node2" class="node"><title>t934</title>
<a xlink:href="../emfsrc/org/sdmlib/examples/emfstudyright/EMFStudyRightModel/impl/TeachingAssistantImpl.java" xlink:title="&lt;TABLE&gt;">
<polygon fill="none" stroke="black" points="8,-304 8,-321 143,-321 143,-304 8,-304"/>
<text text-anchor="start" x="11.5" y="-310.5" font-family="Arial" font-size="10.00"> </text>
<text text-anchor="start" x="15.5" y="-310.5" font-family="Arial" font-size="10.00">t934 :TeachingAssistantImpl</text>
</a>
<polygon fill="none" stroke="black" points="8,-200 8,-304 143,-304 143,-200 8,-200"/>
<text text-anchor="start" x="13" y="-292" font-family="Arial" font-size="10.00">name = &quot;&quot;</text>
<text text-anchor="start" x="13" y="-278" font-family="Arial" font-size="10.00">uni = &quot;&quot;</text>
<text text-anchor="start" x="13" y="-264" font-family="Arial" font-size="10.00">credits = 0</text>
<text text-anchor="start" x="13" y="-250" font-family="Arial" font-size="10.00">studId = &quot;&quot;</text>
<text text-anchor="start" x="13" y="-236" font-family="Arial" font-size="10.00">in = &quot;&quot;</text>
<text text-anchor="start" x="13" y="-222" font-family="Arial" font-size="10.00">motivation = 0</text>
<text text-anchor="start" x="13" y="-208" font-family="Arial" font-size="10.00">assignmentPoints = 0</text>
</g>
<!-- sportsRoom&#45;&#45;t934 -->
<g id="edge2" class="edge"><title>sportsRoom&#45;&#45;t934</title>
<path fill="none" stroke="black" d="M197.884,-372.199C182.81,-358.681 164.198,-341.991 146.06,-325.725"/>
<text text-anchor="middle" x="155.629" y="-326.13" font-family="Arial" font-size="10.00">tasSet</text>
<text text-anchor="middle" x="188.315" y="-366.795" font-family="Arial" font-size="10.00">room</text>
</g>
<!-- abu -->
<g id="node3" class="node"><title>abu</title>
<image xlink:href="icons/karli.png" width="61px" height="46px" preserveAspectRatio="xMinYMin meet" x="200" y="-330"/>
<a xlink:href="../emfsrc/org/sdmlib/examples/emfstudyright/EMFStudyRightModel/impl/StudentImpl.java" xlink:title="&lt;TABLE&gt;">
<polygon fill="none" stroke="black" points="177,-266 177,-282 284,-282 284,-266 177,-266"/>
<text text-anchor="start" x="191.5" y="-272" font-family="Arial" font-size="10.00"> </text>
<text text-anchor="start" x="195.5" y="-272" font-family="Arial" font-size="10.00">abu :StudentImpl</text>
</a>
<polygon fill="none" stroke="black" points="177,-190 177,-266 284,-266 284,-190 177,-190"/>
<text text-anchor="start" x="182" y="-254" font-family="Arial" font-size="10.00">name = &quot;Abu&quot;</text>
<text text-anchor="start" x="182" y="-240" font-family="Arial" font-size="10.00">credits = 0</text>
<text text-anchor="start" x="182" y="-226" font-family="Arial" font-size="10.00">studId = &quot;1337&quot;</text>
<text text-anchor="start" x="182" y="-212" font-family="Arial" font-size="10.00">motivation = 42</text>
<text text-anchor="start" x="182" y="-198" font-family="Arial" font-size="10.00">assignmentPoints = 0</text>
</g>
<!-- sportsRoom&#45;&#45;abu -->
<g id="edge4" class="edge"><title>sportsRoom&#45;&#45;abu</title>
<path fill="none" stroke="black" d="M230,-372.199C230,-361.544 230,-348.917 230,-336.082"/>
<text text-anchor="middle" x="234.226" y="-342.645" font-family="Arial" font-size="10.00">studentsSet</text>
<text text-anchor="middle" x="225.774" y="-360.636" font-family="Arial" font-size="10.00">in</text>
</g>
<!-- alice -->
<g id="node4" class="node"><title>alice</title>
<image xlink:href="icons/karli.png" width="61px" height="46px" preserveAspectRatio="xMinYMin meet" x="245" y="-144"/>
<a xlink:href="../emfsrc/org/sdmlib/examples/emfstudyright/EMFStudyRightModel/impl/StudentImpl.java" xlink:title="&lt;TABLE&gt;">
<polygon fill="none" stroke="black" points="222,-80 222,-96 329,-96 329,-80 222,-80"/>
<text text-anchor="start" x="234" y="-86" font-family="Arial" font-size="10.00"> </text>
<text text-anchor="start" x="238" y="-86" font-family="Arial" font-size="10.00">alice :StudentImpl</text>
</a>
<polygon fill="none" stroke="black" points="222,-4 222,-80 329,-80 329,-4 222,-4"/>
<text text-anchor="start" x="227" y="-68" font-family="Arial" font-size="10.00">name = &quot;Alice&quot;</text>
<text text-anchor="start" x="227" y="-54" font-family="Arial" font-size="10.00">credits = 0</text>
<text text-anchor="start" x="227" y="-40" font-family="Arial" font-size="10.00">studId = &quot;2323&quot;</text>
<text text-anchor="start" x="227" y="-26" font-family="Arial" font-size="10.00">motivation = 42</text>
<text text-anchor="start" x="227" y="-12" font-family="Arial" font-size="10.00">assignmentPoints = 0</text>
</g>
<!-- sportsRoom&#45;&#45;alice -->
<g id="edge6" class="edge"><title>sportsRoom&#45;&#45;alice</title>
<path fill="none" stroke="black" d="M271.868,-372.37C283.146,-362.314 293.901,-349.986 300,-336 325.648,-277.183 315.305,-203.952 300.922,-150.211"/>
<text text-anchor="middle" x="307.218" y="-155.481" font-family="Arial" font-size="10.00">studentsSet</text>
<text text-anchor="middle" x="275.691" y="-360.629" font-family="Arial" font-size="10.00">in</text>
</g>
<!-- abu&#45;&#45;alice -->
<g id="edge8" class="edge"><title>abu&#45;&#45;alice</title>
<path fill="none" stroke="black" d="M248.109,-185.956C250.991,-174.172 253.972,-161.979 256.855,-150.192"/>
<text text-anchor="middle" x="258.807" y="-157.5" font-family="Arial" font-size="10.00">friendsSet</text>
<text text-anchor="middle" x="246.157" y="-173.648" font-family="Arial" font-size="10.00">friendsSet</text>
</g>
</g>
</svg>
