<?xml version="1.0" encoding="UTF-8" standalone="no"?>
<!DOCTYPE svg PUBLIC "-//W3C//DTD SVG 1.1//EN"
 "http://www.w3.org/Graphics/SVG/1.1/DTD/svg11.dtd">
<!-- Generated by graphviz version 2.28.0 (20110507.0327)
 -->
<!-- Title: ObjectDiagram Pages: 1 -->
<svg width="189pt" height="802pt"
 viewBox="0.00 0.00 189.00 802.00" xmlns="http://www.w3.org/2000/svg" xmlns:xlink="http://www.w3.org/1999/xlink">
<g id="graph1" class="graph" transform="scale(1 1) rotate(0) translate(4 798)">
<title>ObjectDiagram</title>
<polygon fill="white" stroke="white" points="-4,5 -4,-798 186,-798 186,5 -4,5"/>
<!-- karli -->
<g id="node1" class="node"><title>karli</title>
<image xlink:href="icons/karli.png" width="61px" height="46px" preserveAspectRatio="xMinYMin meet" x="75.5" y="-788"/>
<a xlink:href="../emfsrc/org/sdmlib/examples/emfstudyright/EMFStudyRightModel/impl/TeachingAssistantImpl.java" xlink:title="&lt;TABLE&gt;">
<polygon fill="none" stroke="black" points="39,-724 39,-740 173,-740 173,-724 39,-724"/>
<text text-anchor="start" x="42.5" y="-730" font-family="Arial" font-size="10.00"> </text>
<text text-anchor="start" x="46.5" y="-730" font-family="Arial" font-size="10.00">karli :TeachingAssistantImpl</text>
</a>
<polygon fill="none" stroke="black" points="39,-634 39,-724 173,-724 173,-634 39,-634"/>
<text text-anchor="start" x="44" y="-712" font-family="Arial" font-size="10.00">room = &quot;&quot;</text>
<text text-anchor="start" x="44" y="-698" font-family="Arial" font-size="10.00">name = &quot;Karli&quot;</text>
<text text-anchor="start" x="44" y="-684" font-family="Arial" font-size="10.00">credits = 0</text>
<text text-anchor="start" x="44" y="-670" font-family="Arial" font-size="10.00">studId = &quot;4242&quot;</text>
<text text-anchor="start" x="44" y="-656" font-family="Arial" font-size="10.00">motivation = 168</text>
<text text-anchor="start" x="44" y="-642" font-family="Arial" font-size="10.00">assignmentPoints = 0</text>
</g>
<!-- mathRoom -->
<g id="node2" class="node"><title>mathRoom</title>
<image xlink:href="icons/mathroom.png" width="104px" height="63px" preserveAspectRatio="xMinYMin meet" x="54" y="-587"/>
<a xlink:href="../emfsrc/org/sdmlib/examples/emfstudyright/EMFStudyRightModel/impl/RoomImpl.java" xlink:title="&lt;TABLE&gt;">
<polygon fill="none" stroke="black" points="52,-506 52,-522 160,-522 160,-506 52,-506"/>
<text text-anchor="start" x="55.5" y="-512" font-family="Arial" font-size="10.00"> </text>
<text text-anchor="start" x="59.5" y="-512" font-family="Arial" font-size="10.00">mathRoom :RoomImpl</text>
</a>
<polygon fill="none" stroke="black" points="52,-472 52,-506 160,-506 160,-472 52,-472"/>
<text text-anchor="start" x="57" y="-494" font-family="Arial" font-size="10.00">topic = &quot;math&quot;</text>
<text text-anchor="start" x="57" y="-480" font-family="Arial" font-size="10.00">credits = 17</text>
</g>
<!-- karli&#45;&#45;mathRoom -->
<g id="edge2" class="edge"><title>karli&#45;&#45;mathRoom</title>
<path fill="none" stroke="black" d="M106,-629.88C106,-617.669 106,-605.249 106,-593.539"/>
<text text-anchor="middle" x="110.226" y="-600.102" font-family="Arial" font-size="10.00">in</text>
<text text-anchor="middle" x="101.774" y="-618.317" font-family="Arial" font-size="10.00">studentsSet</text>
</g>
<!-- sportsRoom -->
<g id="node3" class="node"><title>sportsRoom</title>
<a xlink:href="../emfsrc/org/sdmlib/examples/emfstudyright/EMFStudyRightModel/impl/RoomImpl.java" xlink:title="&lt;TABLE&gt;">
<polygon fill="none" stroke="black" points="49,-410 49,-427 163,-427 163,-410 49,-410"/>
<text text-anchor="start" x="52.5" y="-416.5" font-family="Arial" font-size="10.00"> </text>
<text text-anchor="start" x="56.5" y="-416.5" font-family="Arial" font-size="10.00">sportsRoom :RoomImpl</text>
</a>
<polygon fill="none" stroke="black" points="49,-376 49,-410 163,-410 163,-376 49,-376"/>
<text text-anchor="start" x="54" y="-398" font-family="Arial" font-size="10.00">topic = &quot;sports&quot;</text>
<text text-anchor="start" x="54" y="-384" font-family="Arial" font-size="10.00">credits = 25</text>
</g>
<!-- mathRoom&#45;&#45;sportsRoom -->
<g id="edge4" class="edge"><title>mathRoom&#45;&#45;sportsRoom</title>
<path fill="none" stroke="black" d="M106,-468.36C106,-455.468 106,-442.473 106,-431.504"/>
<text text-anchor="middle" x="110.226" y="-438.067" font-family="Arial" font-size="10.00">doorsSet</text>
<text text-anchor="middle" x="101.774" y="-456.797" font-family="Arial" font-size="10.00">doorsSet</text>
</g>
<!-- abu -->
<g id="node4" class="node"><title>abu</title>
<image xlink:href="icons/karli.png" width="61px" height="46px" preserveAspectRatio="xMinYMin meet" x="31" y="-330"/>
<a xlink:href="../emfsrc/org/sdmlib/examples/emfstudyright/EMFStudyRightModel/impl/StudentImpl.java" xlink:title="&lt;TABLE&gt;">
<polygon fill="none" stroke="black" points="8,-266 8,-282 115,-282 115,-266 8,-266"/>
<text text-anchor="start" x="22.5" y="-272" font-family="Arial" font-size="10.00"> </text>
<text text-anchor="start" x="26.5" y="-272" font-family="Arial" font-size="10.00">abu :StudentImpl</text>
</a>
<polygon fill="none" stroke="black" points="8,-190 8,-266 115,-266 115,-190 8,-190"/>
<text text-anchor="start" x="13" y="-254" font-family="Arial" font-size="10.00">name = &quot;Abu&quot;</text>
<text text-anchor="start" x="13" y="-240" font-family="Arial" font-size="10.00">credits = 0</text>
<text text-anchor="start" x="13" y="-226" font-family="Arial" font-size="10.00">studId = &quot;1337&quot;</text>
<text text-anchor="start" x="13" y="-212" font-family="Arial" font-size="10.00">motivation = 168</text>
<text text-anchor="start" x="13" y="-198" font-family="Arial" font-size="10.00">assignmentPoints = 0</text>
</g>
<!-- sportsRoom&#45;&#45;abu -->
<g id="edge6" class="edge"><title>sportsRoom&#45;&#45;abu</title>
<path fill="none" stroke="black" d="M96.676,-372.199C93.2263,-361.544 89.1387,-348.917 84.9832,-336.082"/>
<text text-anchor="middle" x="91.7954" y="-340.902" font-family="Arial" font-size="10.00">studentsSet</text>
<text text-anchor="middle" x="89.8638" y="-362.378" font-family="Arial" font-size="10.00">in</text>
</g>
<!-- alice -->
<g id="node5" class="node"><title>alice</title>
<image xlink:href="icons/karli.png" width="61px" height="46px" preserveAspectRatio="xMinYMin meet" x="76" y="-144"/>
<a xlink:href="../emfsrc/org/sdmlib/examples/emfstudyright/EMFStudyRightModel/impl/StudentImpl.java" xlink:title="&lt;TABLE&gt;">
<polygon fill="none" stroke="black" points="53,-80 53,-96 160,-96 160,-80 53,-80"/>
<text text-anchor="start" x="65" y="-86" font-family="Arial" font-size="10.00"> </text>
<text text-anchor="start" x="69" y="-86" font-family="Arial" font-size="10.00">alice :StudentImpl</text>
</a>
<polygon fill="none" stroke="black" points="53,-4 53,-80 160,-80 160,-4 53,-4"/>
<text text-anchor="start" x="58" y="-68" font-family="Arial" font-size="10.00">name = &quot;Alice&quot;</text>
<text text-anchor="start" x="58" y="-54" font-family="Arial" font-size="10.00">credits = 0</text>
<text text-anchor="start" x="58" y="-40" font-family="Arial" font-size="10.00">studId = &quot;2323&quot;</text>
<text text-anchor="start" x="58" y="-26" font-family="Arial" font-size="10.00">motivation = 168</text>
<text text-anchor="start" x="58" y="-12" font-family="Arial" font-size="10.00">assignmentPoints = 0</text>
</g>
<!-- sportsRoom&#45;&#45;alice -->
<g id="edge8" class="edge"><title>sportsRoom&#45;&#45;alice</title>
<path fill="none" stroke="black" d="M119.679,-372.22C124.236,-361.158 128.727,-348.244 131,-336 143.17,-270.454 138.434,-252.251 131,-186 129.69,-174.323 127.62,-162.077 125.22,-150.17"/>
<text text-anchor="middle" x="131.127" y="-155.738" font-family="Arial" font-size="10.00">studentsSet</text>
<text text-anchor="middle" x="119.157" y="-359.734" font-family="Arial" font-size="10.00">in</text>
</g>
<!-- abu&#45;&#45;alice -->
<g id="edge10" class="edge"><title>abu&#45;&#45;alice</title>
<path fill="none" stroke="black" d="M79.1087,-185.956C81.9906,-174.172 84.9724,-161.979 87.8551,-150.192"/>
<text text-anchor="middle" x="89.8072" y="-157.5" font-family="Arial" font-size="10.00">friendsSet</text>
<text text-anchor="middle" x="77.1566" y="-173.648" font-family="Arial" font-size="10.00">friendsSet</text>
</g>
</g>
</svg>
