<?xml version="1.0" encoding="UTF-8" standalone="no"?>
<!DOCTYPE svg PUBLIC "-//W3C//DTD SVG 1.1//EN"
 "http://www.w3.org/Graphics/SVG/1.1/DTD/svg11.dtd">
<!-- Generated by graphviz version 2.28.0 (20110507.0327)
 -->
<!-- Title: ObjectDiagram Pages: 1 -->
<svg width="299pt" height="358pt"
 viewBox="0.00 0.00 299.00 358.00" xmlns="http://www.w3.org/2000/svg" xmlns:xlink="http://www.w3.org/1999/xlink">
<g id="graph1" class="graph" transform="scale(1 1) rotate(0) translate(4 354)">
<title>ObjectDiagram</title>
<polygon fill="white" stroke="white" points="-4,5 -4,-354 296,-354 296,5 -4,5"/>
<!-- karli -->
<g id="node1" class="node"><title>karli</title>
<image xlink:href="icons/karli.png" width="61px" height="46px" preserveAspectRatio="xMinYMin meet" x="44.5" y="-344"/>
<a xlink:href="../emfsrc/org/sdmlib/examples/emfstudyright/EMFStudyRightModel/impl/TeachingAssistantImpl.java" xlink:title="&lt;TABLE&gt;">
<polygon fill="none" stroke="black" points="8,-280 8,-296 142,-296 142,-280 8,-280"/>
<text text-anchor="start" x="11.5" y="-286" font-family="Arial" font-size="10.00"> </text>
<text text-anchor="start" x="15.5" y="-286" font-family="Arial" font-size="10.00">karli :TeachingAssistantImpl</text>
</a>
<polygon fill="none" stroke="black" points="8,-190 8,-280 142,-280 142,-190 8,-190"/>
<text text-anchor="start" x="13" y="-268" font-family="Arial" font-size="10.00">room = &quot;&quot;</text>
<text text-anchor="start" x="13" y="-254" font-family="Arial" font-size="10.00">name = &quot;Karli&quot;</text>
<text text-anchor="start" x="13" y="-240" font-family="Arial" font-size="10.00">credits = 0</text>
<text text-anchor="start" x="13" y="-226" font-family="Arial" font-size="10.00">studId = &quot;4242&quot;</text>
<text text-anchor="start" x="13" y="-212" font-family="Arial" font-size="10.00">motivation = 42</text>
<text text-anchor="start" x="13" y="-198" font-family="Arial" font-size="10.00">assignmentPoints = 0</text>
</g>
<!-- abu -->
<g id="node2" class="node"><title>abu</title>
<image xlink:href="icons/karli.png" width="61px" height="46px" preserveAspectRatio="xMinYMin meet" x="200" y="-337"/>
<a xlink:href="../emfsrc/org/sdmlib/examples/emfstudyright/EMFStudyRightModel/impl/StudentImpl.java" xlink:title="&lt;TABLE&gt;">
<polygon fill="none" stroke="black" points="177,-273 177,-289 284,-289 284,-273 177,-273"/>
<text text-anchor="start" x="191.5" y="-279" font-family="Arial" font-size="10.00"> </text>
<text text-anchor="start" x="195.5" y="-279" font-family="Arial" font-size="10.00">abu :StudentImpl</text>
</a>
<polygon fill="none" stroke="black" points="177,-197 177,-273 284,-273 284,-197 177,-197"/>
<text text-anchor="start" x="182" y="-261" font-family="Arial" font-size="10.00">name = &quot;Abu&quot;</text>
<text text-anchor="start" x="182" y="-247" font-family="Arial" font-size="10.00">credits = 0</text>
<text text-anchor="start" x="182" y="-233" font-family="Arial" font-size="10.00">studId = &quot;1337&quot;</text>
<text text-anchor="start" x="182" y="-219" font-family="Arial" font-size="10.00">motivation = 42</text>
<text text-anchor="start" x="182" y="-205" font-family="Arial" font-size="10.00">assignmentPoints = 0</text>
</g>
<!-- alice -->
<g id="node3" class="node"><title>alice</title>
<image xlink:href="icons/karli.png" width="61px" height="46px" preserveAspectRatio="xMinYMin meet" x="200" y="-144"/>
<a xlink:href="../emfsrc/org/sdmlib/examples/emfstudyright/EMFStudyRightModel/impl/StudentImpl.java" xlink:title="&lt;TABLE&gt;">
<polygon fill="none" stroke="black" points="177,-80 177,-96 284,-96 284,-80 177,-80"/>
<text text-anchor="start" x="189" y="-86" font-family="Arial" font-size="10.00"> </text>
<text text-anchor="start" x="193" y="-86" font-family="Arial" font-size="10.00">alice :StudentImpl</text>
</a>
<polygon fill="none" stroke="black" points="177,-4 177,-80 284,-80 284,-4 177,-4"/>
<text text-anchor="start" x="182" y="-68" font-family="Arial" font-size="10.00">name = &quot;Alice&quot;</text>
<text text-anchor="start" x="182" y="-54" font-family="Arial" font-size="10.00">credits = 0</text>
<text text-anchor="start" x="182" y="-40" font-family="Arial" font-size="10.00">studId = &quot;2323&quot;</text>
<text text-anchor="start" x="182" y="-26" font-family="Arial" font-size="10.00">motivation = 42</text>
<text text-anchor="start" x="182" y="-12" font-family="Arial" font-size="10.00">assignmentPoints = 0</text>
</g>
<!-- abu&#45;&#45;alice -->
<g id="edge2" class="edge"><title>abu&#45;&#45;alice</title>
<path fill="none" stroke="black" d="M230,-192.881C230,-178.83 230,-164.127 230,-150.077"/>
<text text-anchor="middle" x="234.226" y="-156.64" font-family="Arial" font-size="10.00">friendsSet</text>
<text text-anchor="middle" x="225.774" y="-181.318" font-family="Arial" font-size="10.00">friendsSet</text>
</g>
</g>
</svg>
